ISO-10303-21;
HEADER;
FILE_DESCRIPTION (( 'STEP AP214' ),
    '1' );
FILE_NAME ('25kg Vertical Servo.STEP',
    '2026-08-20T17:33:12',
    ( '' ),
    ( '' ),
    'SwSTEP 2.0',
    'SolidWorks 2026',
    '' );
FILE_SCHEMA (( 'AUTOMOTIVE_DESIGN' ));
ENDSEC;

DATA;
#1 = APPLICATION_PROTOCOL_DEFINITION ( 'draft international standard', 'automotive_design', 1998, #19 ) ;
#2 = PROPERTY_DEFINITION ('document property','', #9 ) ;
#3 = DIRECTION ( 'NONE',  ( 1.000000000000000222, -1.040834085586084257E-17, 3.469446951953614189E-18 ) ) ;
#4 = APPLICATION_PROTOCOL_DEFINITION ( 'draft international standard', 'automotive_design', 1998, #54 ) ;
#5 = CARTESIAN_POINT ( 'NONE',  ( 0.000000000000000000, 0.000000000000000000, 0.000000000000000000 ) ) ;
#6 = CARTESIAN_POINT ( 'NONE',  ( 0.000000000000000000, 0.000000000000000000, 0.000000000000000000 ) ) ;
#7 = PRODUCT ( '25kg Vertical Servo', '25kg Vertical Servo', '', ( #62 ) ) ;
#8 =( GEOMETRIC_REPRESENTATION_CONTEXT ( 3 ) GLOBAL_UNCERTAINTY_ASSIGNED_CONTEXT ( ( #36 ) ) GLOBAL_UNIT_ASSIGNED_CONTEXT ( ( #29, #40, #64 ) ) REPRESENTATION_CONTEXT ( 'NONE', 'WORKASPACE' ) );
#9 = DOCUMENT_FILE ( 'RDS3225 v7.step.STEP' , '', '', #13, '' ,$ ) ;
#10 = CARTESIAN_POINT ( 'NONE',  ( 0.000000000000000000, 0.000000000000000000, 0.000000000000000000 ) ) ;
#11 = OBJECT_ROLE ('mandatory',$ ) ;
#12 = SHAPE_REPRESENTATION ( '25kg Vertical Servo', ( #24, #49 ), #8 ) ;
#13 = DOCUMENT_TYPE ( 'geometry' ) ;
#14 = ITEM_DEFINED_TRANSFORMATION ( 'NONE', 'NONE', #49,  #38 ) ;
#15 =( GEOMETRIC_REPRESENTATION_CONTEXT ( 3 ) GLOBAL_UNCERTAINTY_ASSIGNED_CONTEXT ( ( #20 ) ) GLOBAL_UNIT_ASSIGNED_CONTEXT ( ( #50, #47, #42 ) ) REPRESENTATION_CONTEXT ( 'NONE', 'WORKASPACE' ) );
#16 = DIRECTION ( 'NONE',  ( 3.469446951953614189E-18, 6.451002926288751382E-18, 1.000000000000000222 ) ) ;
#17 = APPLICATION_CONTEXT ( 'automotive_design' ) ;
#18 = PRODUCT_DEFINITION_FORMATION_WITH_SPECIFIED_SOURCE ( 'Symmetric', '', #34, .NOT_KNOWN. ) ;
#19 = APPLICATION_CONTEXT ( 'automotive_design' ) ;
#20 = UNCERTAINTY_MEASURE_WITH_UNIT (LENGTH_MEASURE( 1.000000000000000082E-05 ), #50, 'distance_accuracy_value', 'NONE');
#21 =( REPRESENTATION_RELATIONSHIP ('NONE','NONE', #12, #58 ) REPRESENTATION_RELATIONSHIP_WITH_TRANSFORMATION ( #14 )SHAPE_REPRESENTATION_RELATIONSHIP( ) );
#22 = IDENTIFICATION_ROLE ( 'external document id and location', $) ;
#23 = SHAPE_DEFINITION_REPRESENTATION ( #35, #58 ) ;
#24 = AXIS2_PLACEMENT_3D ( 'NONE', #6, #27, #32 ) ;
#25 = PRODUCT_DEFINITION ( 'General', '', #18, #63 ) ;
#26 = APPLICATION_PROTOCOL_DEFINITION ( 'draft international standard', 'automotive_design', 1998, #17 ) ;
#27 = DIRECTION ( 'NONE',  ( 0.000000000000000000, 0.000000000000000000, 1.000000000000000000 ) ) ;
#28 = APPLIED_DOCUMENT_REFERENCE ( #9,'',( #25) ) ;
#29 =( LENGTH_UNIT ( ) NAMED_UNIT ( * ) SI_UNIT ( .MILLI., .METRE. ) );
#30 = PRODUCT_RELATED_PRODUCT_CATEGORY ( 'part', '', ( #7 ) ) ;
#31 = PRODUCT_DEFINITION ( 'General', '', #55, #44 ) ;
#32 = DIRECTION ( 'NONE',  ( 1.000000000000000000, 0.000000000000000000, 0.000000000000000000 ) ) ;
#33 = SHAPE_DEFINITION_REPRESENTATION ( #48, #12 ) ;
#34 = PRODUCT ( 'RDS3225 v7.step', 'RDS3225 v7.step', '', ( #60 ) ) ;
#35 = PRODUCT_DEFINITION_SHAPE ( 'NONE', 'NONE',  #25 ) ;
#36 = UNCERTAINTY_MEASURE_WITH_UNIT (LENGTH_MEASURE( 1.000000000000000082E-05 ), #29, 'distance_accuracy_value', 'NONE');
#37 = DIRECTION ( 'NONE',  ( 1.000000000000000000, 0.000000000000000000, 0.000000000000000000 ) ) ;
#38 = AXIS2_PLACEMENT_3D ( 'NONE', #10, #46, #37 ) ;
#39 = PROPERTY_DEFINITION_REPRESENTATION ( #2, #58 ) ;
#40 =( NAMED_UNIT ( * ) PLANE_ANGLE_UNIT ( ) SI_UNIT ( $, .RADIAN. ) );
#41 = APPLICATION_CONTEXT ( 'automotive_design' ) ;
#42 =( NAMED_UNIT ( * ) SI_UNIT ( $, .STERADIAN. ) SOLID_ANGLE_UNIT ( ) );
#43 = EXTERNAL_SOURCE (IDENTIFIER('') ) ;
#44 = PRODUCT_DEFINITION_CONTEXT ( 'detailed design', #41, 'design' ) ;
#45 = ROLE_ASSOCIATION ( #11, #28 ) ;
#46 = DIRECTION ( 'NONE',  ( 0.000000000000000000, 0.000000000000000000, 1.000000000000000000 ) ) ;
#47 =( NAMED_UNIT ( * ) PLANE_ANGLE_UNIT ( ) SI_UNIT ( $, .RADIAN. ) );
#48 = PRODUCT_DEFINITION_SHAPE ( 'NONE', 'NONE',  #31 ) ;
#49 = AXIS2_PLACEMENT_3D ( 'NONE', #5, #16, #3 ) ;
#50 =( LENGTH_UNIT ( ) NAMED_UNIT ( * ) SI_UNIT ( .MILLI., .METRE. ) );
#51 = APPLICATION_PROTOCOL_DEFINITION ( 'draft international standard', 'automotive_design', 1998, #41 ) ;
#52 = PROPERTY_DEFINITION ('external definition','', #9 ) ;
#53 = APPLIED_EXTERNAL_IDENTIFICATION_ASSIGNMENT ( 'RDS3225 v7.step.STEP' , #22, #43,( #9) ) ;
#54 = APPLICATION_CONTEXT ( 'automotive_design' ) ;
#55 = PRODUCT_DEFINITION_FORMATION_WITH_SPECIFIED_SOURCE ( 'Symmetric', '', #7, .NOT_KNOWN. ) ;
#56 = CONTEXT_DEPENDENT_SHAPE_REPRESENTATION ( #21, #59 ) ;
#57 = PRODUCT_RELATED_PRODUCT_CATEGORY ( 'part', '', ( #34 ) ) ;
#58 = SHAPE_REPRESENTATION ( 'RDS3225 v7.step', ( #38 ), #15 ) ;
#59 = PRODUCT_DEFINITION_SHAPE ( 'NONE', 'NONE',  #65 ) ;
#60 = PRODUCT_CONTEXT ( 'NONE', #19, 'mechanical' ) ;
#61 = PROPERTY_DEFINITION_REPRESENTATION ( #52, #58 ) ;
#62 = PRODUCT_CONTEXT ( 'NONE', #17, 'mechanical' ) ;
#63 = PRODUCT_DEFINITION_CONTEXT ( 'detailed design', #54, 'design' ) ;
#64 =( NAMED_UNIT ( * ) SI_UNIT ( $, .STERADIAN. ) SOLID_ANGLE_UNIT ( ) );
#65 = NEXT_ASSEMBLY_USAGE_OCCURRENCE ( 'NAUO23', ' ', ' ', #31, #25, $ ) ;
ENDSEC;
END-ISO-10303-21;
