ISO-10303-21;
HEADER;
FILE_DESCRIPTION (( 'STEP AP214' ),
    '1' );
FILE_NAME ('93475A210.step.STEP',
    '2026-08-20T17:33:10',
    ( '' ),
    ( '' ),
    'SwSTEP 2.0',
    'SolidWorks 2026',
    '' );
FILE_SCHEMA (( 'AUTOMOTIVE_DESIGN' ));
ENDSEC;

DATA;
#1 = VERTEX_POINT ( 'NONE', #18 ) ;
#2 = AXIS2_PLACEMENT_3D ( 'NONE', #24, #88, #137 ) ;
#3 = CARTESIAN_POINT ( 'NONE',  ( 1.600000000000000089, 1.959434878635765230E-16, 0.5999999999999999778 ) ) ;
#4 =( GEOMETRIC_REPRESENTATION_CONTEXT ( 3 ) GLOBAL_UNCERTAINTY_ASSIGNED_CONTEXT ( ( #95 ) ) GLOBAL_UNIT_ASSIGNED_CONTEXT ( ( #167, #140, #157 ) ) REPRESENTATION_CONTEXT ( 'NONE', 'WORKASPACE' ) );
#5 = VERTEX_POINT ( 'NONE', #3 ) ;
#6 = EDGE_CURVE ( 'NONE', #49, #98, #114, .T. ) ;
#7 = DIRECTION ( 'NONE',  ( -1.000000000000000000, 0.000000000000000000, 0.000000000000000000 ) ) ;
#8 = FACE_BOUND ( 'NONE', #116, .T. ) ;
#9 = EDGE_CURVE ( 'NONE', #5, #1, #122, .T. ) ;
#10 = CARTESIAN_POINT ( 'NONE',  ( -3.500000000000000000, 0.000000000000000000, 0.5999999999999999778 ) ) ;
#11 = VECTOR ( 'NONE', #108, 1000.000000000000000 ) ;
#12 = DIRECTION ( 'NONE',  ( 0.000000000000000000, 0.000000000000000000, -1.000000000000000000 ) ) ;
#13 = CARTESIAN_POINT ( 'NONE',  ( -3.500000000000000000, 0.000000000000000000, 0.5999999999999999778 ) ) ;
#14 = APPLICATION_PROTOCOL_DEFINITION ( 'draft international standard', 'automotive_design', 1998, #161 ) ;
#15 = VECTOR ( 'NONE', #73, 1000.000000000000000 ) ;
#16 = PRODUCT_DEFINITION_CONTEXT ( 'detailed design', #32, 'design' ) ;
#17 = APPLICATION_PROTOCOL_DEFINITION ( 'draft international standard', 'automotive_design', 1998, #32 ) ;
#18 = CARTESIAN_POINT ( 'NONE',  ( -1.600000000000000089, 0.000000000000000000, 0.5999999999999999778 ) ) ;
#19 = FILL_AREA_STYLE ('',( #163 ) ) ;
#20 = ORIENTED_EDGE ( 'NONE', *, *, #120, .F. ) ;
#21 =( NAMED_UNIT ( * ) PLANE_ANGLE_UNIT ( ) SI_UNIT ( $, .RADIAN. ) );
#22 = CARTESIAN_POINT ( 'NONE',  ( 0.000000000000000000, 0.000000000000000000, 0.000000000000000000 ) ) ;
#23 = MECHANICAL_DESIGN_GEOMETRIC_PRESENTATION_REPRESENTATION (  '', ( #146 ), #164 ) ;
#24 = CARTESIAN_POINT ( 'NONE',  ( 0.000000000000000000, 0.000000000000000000, 0.5999999999999999778 ) ) ;
#25 = PLANE ( 'NONE',  #94 ) ;
#26 = CIRCLE ( 'NONE', #87, 1.600000000000000089 ) ;
#27 = CARTESIAN_POINT ( 'NONE',  ( 0.000000000000000000, 0.000000000000000000, 0.5999999999999999778 ) ) ;
#28 = PRODUCT_RELATED_PRODUCT_CATEGORY ( 'part', '', ( #113 ) ) ;
#29 = CARTESIAN_POINT ( 'NONE',  ( 0.000000000000000000, 0.000000000000000000, 0.5999999999999999778 ) ) ;
#30 = ORIENTED_EDGE ( 'NONE', *, *, #129, .T. ) ;
#31 = UNCERTAINTY_MEASURE_WITH_UNIT (LENGTH_MEASURE( 1.000000000000000082E-05 ), #147, 'distance_accuracy_value', 'NONE');
#32 = APPLICATION_CONTEXT ( 'automotive_design' ) ;
#33 = EDGE_LOOP ( 'NONE', ( #199, #70, #143, #85 ) ) ;
#34 = EDGE_CURVE ( 'NONE', #132, #98, #82, .T. ) ;
#35 = FACE_OUTER_BOUND ( 'NONE', #33, .T. ) ;
#36 = ORIENTED_EDGE ( 'NONE', *, *, #159, .F. ) ;
#37 = ORIENTED_EDGE ( 'NONE', *, *, #136, .F. ) ;
#38 = MANIFOLD_SOLID_BREP ( 'Body1[1]', #59 ) ;
#39 = AXIS2_PLACEMENT_3D ( 'NONE', #196, #42, #61 ) ;
#40 = ORIENTED_EDGE ( 'NONE', *, *, #34, .F. ) ;
#41 = ORIENTED_EDGE ( 'NONE', *, *, #133, .T. ) ;
#42 = DIRECTION ( 'NONE',  ( 0.000000000000000000, 0.000000000000000000, 1.000000000000000000 ) ) ;
#43 = AXIS2_PLACEMENT_3D ( 'NONE', #101, #75, #74 ) ;
#44 = CARTESIAN_POINT ( 'NONE',  ( 0.000000000000000000, 0.000000000000000000, 0.5999999999999999778 ) ) ;
#45 = FACE_OUTER_BOUND ( 'NONE', #71, .T. ) ;
#46 = FACE_BOUND ( 'NONE', #110, .T. ) ;
#47 = LINE ( 'NONE', #125, #99 ) ;
#48 = EDGE_CURVE ( 'NONE', #56, #111, #26, .T. ) ;
#49 = VERTEX_POINT ( 'NONE', #68 ) ;
#50 = AXIS2_PLACEMENT_3D ( 'NONE', #162, #190, #118 ) ;
#51 = ORIENTED_EDGE ( 'NONE', *, *, #159, .T. ) ;
#52 = AXIS2_PLACEMENT_3D ( 'NONE', #138, #183, #186 ) ;
#53 = CIRCLE ( 'NONE', #79, 1.600000000000000089 ) ;
#54 = CARTESIAN_POINT ( 'NONE',  ( 0.000000000000000000, 0.000000000000000000, 0.5999999999999999778 ) ) ;
#55 = CARTESIAN_POINT ( 'NONE',  ( 0.000000000000000000, 0.000000000000000000, 0.000000000000000000 ) ) ;
#56 = VERTEX_POINT ( 'NONE', #128 ) ;
#57 = ADVANCED_BREP_SHAPE_REPRESENTATION ( '93475A210.step', ( #38, #52 ), #4 ) ;
#58 = SURFACE_STYLE_USAGE ( .BOTH. , #83 ) ;
#59 = CLOSED_SHELL ( 'NONE', ( #76, #152, #197, #142, #185, #188 ) ) ;
#60 =( NAMED_UNIT ( * ) SI_UNIT ( $, .STERADIAN. ) SOLID_ANGLE_UNIT ( ) );
#61 = DIRECTION ( 'NONE',  ( 1.000000000000000000, 0.000000000000000000, 0.000000000000000000 ) ) ;
#62 = DIRECTION ( 'NONE',  ( 0.000000000000000000, 0.000000000000000000, 1.000000000000000000 ) ) ;
#63 = DIRECTION ( 'NONE',  ( 0.000000000000000000, 0.000000000000000000, 1.000000000000000000 ) ) ;
#64 = DIRECTION ( 'NONE',  ( 1.000000000000000000, 0.000000000000000000, 0.000000000000000000 ) ) ;
#65 = DIRECTION ( 'NONE',  ( 0.000000000000000000, 0.000000000000000000, 1.000000000000000000 ) ) ;
#66 = VECTOR ( 'NONE', #84, 1000.000000000000000 ) ;
#67 = AXIS2_PLACEMENT_3D ( 'NONE', #44, #103, #166 ) ;
#68 = CARTESIAN_POINT ( 'NONE',  ( -3.500000000000000000, 0.000000000000000000, 0.000000000000000000 ) ) ;
#69 = ORIENTED_EDGE ( 'NONE', *, *, #6, .F. ) ;
#70 = ORIENTED_EDGE ( 'NONE', *, *, #136, .T. ) ;
#71 = EDGE_LOOP ( 'NONE', ( #160, #145, #51, #176 ) ) ;
#72 = DIRECTION ( 'NONE',  ( 0.000000000000000000, 0.000000000000000000, 1.000000000000000000 ) ) ;
#73 = DIRECTION ( 'NONE',  ( 0.000000000000000000, 0.000000000000000000, -1.000000000000000000 ) ) ;
#74 = DIRECTION ( 'NONE',  ( -1.000000000000000000, 0.000000000000000000, 0.000000000000000000 ) ) ;
#75 = DIRECTION ( 'NONE',  ( 0.000000000000000000, 0.000000000000000000, -1.000000000000000000 ) ) ;
#76 = ADVANCED_FACE ( 'NONE', ( #35 ), #187, .F. ) ;
#77 = FACE_OUTER_BOUND ( 'NONE', #96, .T. ) ;
#78 = DIRECTION ( 'NONE',  ( 1.000000000000000000, 0.000000000000000000, 0.000000000000000000 ) ) ;
#79 = AXIS2_PLACEMENT_3D ( 'NONE', #156, #62, #141 ) ;
#80 = ORIENTED_EDGE ( 'NONE', *, *, #6, .T. ) ;
#81 = PRESENTATION_LAYER_ASSIGNMENT (  '', '', ( #146 ) ) ;
#82 = LINE ( 'NONE', #134, #66 ) ;
#83 = SURFACE_SIDE_STYLE ('',( #148 ) ) ;
#84 = DIRECTION ( 'NONE',  ( 0.000000000000000000, 0.000000000000000000, -1.000000000000000000 ) ) ;
#85 = ORIENTED_EDGE ( 'NONE', *, *, #90, .F. ) ;
#86 = DIRECTION ( 'NONE',  ( 0.000000000000000000, 0.000000000000000000, 1.000000000000000000 ) ) ;
#87 = AXIS2_PLACEMENT_3D ( 'NONE', #22, #86, #151 ) ;
#88 = DIRECTION ( 'NONE',  ( 0.000000000000000000, 0.000000000000000000, -1.000000000000000000 ) ) ;
#89 = DIRECTION ( 'NONE',  ( 1.000000000000000000, 0.000000000000000000, 0.000000000000000000 ) ) ;
#90 = EDGE_CURVE ( 'NONE', #1, #56, #47, .T. ) ;
#91 = AXIS2_PLACEMENT_3D ( 'NONE', #55, #72, #174 ) ;
#92 = CARTESIAN_POINT ( 'NONE',  ( 0.000000000000000000, 0.000000000000000000, 0.5999999999999999778 ) ) ;
#93 = DIRECTION ( 'NONE',  ( 0.000000000000000000, 0.000000000000000000, -1.000000000000000000 ) ) ;
#94 = AXIS2_PLACEMENT_3D ( 'NONE', #106, #63, #89 ) ;
#95 = UNCERTAINTY_MEASURE_WITH_UNIT (LENGTH_MEASURE( 1.000000000000000082E-05 ), #167, 'distance_accuracy_value', 'NONE');
#96 = EDGE_LOOP ( 'NONE', ( #69, #36 ) ) ;
#97 = DIRECTION ( 'NONE',  ( -1.000000000000000000, 0.000000000000000000, 0.000000000000000000 ) ) ;
#98 = VERTEX_POINT ( 'NONE', #193 ) ;
#99 = VECTOR ( 'NONE', #12, 1000.000000000000000 ) ;
#100 = VERTEX_POINT ( 'NONE', #13 ) ;
#101 = CARTESIAN_POINT ( 'NONE',  ( 0.000000000000000000, 0.000000000000000000, 0.5999999999999999778 ) ) ;
#102 = CIRCLE ( 'NONE', #169, 3.500000000000000000 ) ;
#103 = DIRECTION ( 'NONE',  ( 0.000000000000000000, 0.000000000000000000, 1.000000000000000000 ) ) ;
#104 = PRODUCT_DEFINITION ( 'General', '', #105, #16 ) ;
#105 = PRODUCT_DEFINITION_FORMATION_WITH_SPECIFIED_SOURCE ( 'Symmetric', '', #113, .NOT_KNOWN. ) ;
#106 = CARTESIAN_POINT ( 'NONE',  ( 0.000000000000000000, 0.000000000000000000, 0.000000000000000000 ) ) ;
#107 = CARTESIAN_POINT ( 'NONE',  ( 1.600000000000000089, 1.959434878635765230E-16, 0.000000000000000000 ) ) ;
#108 = DIRECTION ( 'NONE',  ( 0.000000000000000000, 0.000000000000000000, -1.000000000000000000 ) ) ;
#109 = EDGE_LOOP ( 'NONE', ( #37, #144, #171, #177 ) ) ;
#110 = EDGE_LOOP ( 'NONE', ( #130, #41 ) ) ;
#111 = VERTEX_POINT ( 'NONE', #107 ) ;
#112 = ORIENTED_EDGE ( 'NONE', *, *, #9, .F. ) ;
#113 = PRODUCT ( '93475A210.step', '93475A210.step', '', ( #172 ) ) ;
#114 = CIRCLE ( 'NONE', #91, 3.500000000000000000 ) ;
#115 = DIRECTION ( 'NONE',  ( 0.000000000000000000, 0.000000000000000000, -1.000000000000000000 ) ) ;
#116 = EDGE_LOOP ( 'NONE', ( #20, #112 ) ) ;
#117 = AXIS2_PLACEMENT_3D ( 'NONE', #135, #65, #64 ) ;
#118 = DIRECTION ( 'NONE',  ( 1.000000000000000000, 0.000000000000000000, 0.000000000000000000 ) ) ;
#119 = FACE_OUTER_BOUND ( 'NONE', #158, .T. ) ;
#120 = EDGE_CURVE ( 'NONE', #1, #5, #198, .T. ) ;
#121 = CYLINDRICAL_SURFACE ( 'NONE', #2, 1.600000000000000089 ) ;
#122 = CIRCLE ( 'NONE', #50, 1.600000000000000089 ) ;
#123 = LINE ( 'NONE', #10, #15 ) ;
#124 = CARTESIAN_POINT ( 'NONE',  ( 3.500000000000000000, 4.286263797015736595E-16, 0.5999999999999999778 ) ) ;
#125 = CARTESIAN_POINT ( 'NONE',  ( -1.600000000000000089, 0.000000000000000000, 0.5999999999999999778 ) ) ;
#126 = SHAPE_DEFINITION_REPRESENTATION ( #139, #57 ) ;
#127 = EDGE_LOOP ( 'NONE', ( #131, #30 ) ) ;
#128 = CARTESIAN_POINT ( 'NONE',  ( -1.600000000000000089, 0.000000000000000000, 0.000000000000000000 ) ) ;
#129 = EDGE_CURVE ( 'NONE', #132, #100, #102, .T. ) ;
#130 = ORIENTED_EDGE ( 'NONE', *, *, #48, .T. ) ;
#131 = ORIENTED_EDGE ( 'NONE', *, *, #195, .T. ) ;
#132 = VERTEX_POINT ( 'NONE', #124 ) ;
#133 = EDGE_CURVE ( 'NONE', #111, #56, #53, .T. ) ;
#134 = CARTESIAN_POINT ( 'NONE',  ( 3.500000000000000000, 4.286263797015736595E-16, 0.5999999999999999778 ) ) ;
#135 = CARTESIAN_POINT ( 'NONE',  ( 0.000000000000000000, 0.000000000000000000, 0.5999999999999999778 ) ) ;
#136 = EDGE_CURVE ( 'NONE', #5, #111, #154, .T. ) ;
#137 = DIRECTION ( 'NONE',  ( -1.000000000000000000, 0.000000000000000000, 0.000000000000000000 ) ) ;
#138 = CARTESIAN_POINT ( 'NONE',  ( 0.000000000000000000, 0.000000000000000000, 0.000000000000000000 ) ) ;
#139 = PRODUCT_DEFINITION_SHAPE ( 'NONE', 'NONE',  #104 ) ;
#140 =( NAMED_UNIT ( * ) PLANE_ANGLE_UNIT ( ) SI_UNIT ( $, .RADIAN. ) );
#141 = DIRECTION ( 'NONE',  ( 1.000000000000000000, 0.000000000000000000, 0.000000000000000000 ) ) ;
#142 = ADVANCED_FACE ( 'NONE', ( #8, #170 ), #192, .T. ) ;
#143 = ORIENTED_EDGE ( 'NONE', *, *, #48, .F. ) ;
#144 = ORIENTED_EDGE ( 'NONE', *, *, #9, .T. ) ;
#145 = ORIENTED_EDGE ( 'NONE', *, *, #34, .T. ) ;
#146 = STYLED_ITEM ( 'NONE', ( #149 ), #38 ) ;
#147 =( LENGTH_UNIT ( ) NAMED_UNIT ( * ) SI_UNIT ( .MILLI., .METRE. ) );
#148 = SURFACE_STYLE_FILL_AREA ( #19 ) ;
#149 = PRESENTATION_STYLE_ASSIGNMENT (( #58 ) ) ;
#150 = CIRCLE ( 'NONE', #39, 3.500000000000000000 ) ;
#151 = DIRECTION ( 'NONE',  ( 1.000000000000000000, 0.000000000000000000, 0.000000000000000000 ) ) ;
#152 = ADVANCED_FACE ( 'NONE', ( #45 ), #179, .T. ) ;
#153 = DIRECTION ( 'NONE',  ( 0.000000000000000000, 0.000000000000000000, 1.000000000000000000 ) ) ;
#154 = LINE ( 'NONE', #182, #11 ) ;
#155 = CIRCLE ( 'NONE', #67, 3.500000000000000000 ) ;
#156 = CARTESIAN_POINT ( 'NONE',  ( 0.000000000000000000, 0.000000000000000000, 0.000000000000000000 ) ) ;
#157 =( NAMED_UNIT ( * ) SI_UNIT ( $, .STERADIAN. ) SOLID_ANGLE_UNIT ( ) );
#158 = EDGE_LOOP ( 'NONE', ( #40, #191, #189, #80 ) ) ;
#159 = EDGE_CURVE ( 'NONE', #98, #49, #150, .T. ) ;
#160 = ORIENTED_EDGE ( 'NONE', *, *, #129, .F. ) ;
#161 = APPLICATION_CONTEXT ( 'automotive_design' ) ;
#162 = CARTESIAN_POINT ( 'NONE',  ( 0.000000000000000000, 0.000000000000000000, 0.5999999999999999778 ) ) ;
#163 = FILL_AREA_STYLE_COLOUR ( '', #173 ) ;
#164 =( GEOMETRIC_REPRESENTATION_CONTEXT ( 3 ) GLOBAL_UNCERTAINTY_ASSIGNED_CONTEXT ( ( #31 ) ) GLOBAL_UNIT_ASSIGNED_CONTEXT ( ( #147, #21, #60 ) ) REPRESENTATION_CONTEXT ( 'NONE', 'WORKASPACE' ) );
#165 = FACE_OUTER_BOUND ( 'NONE', #109, .T. ) ;
#166 = DIRECTION ( 'NONE',  ( 1.000000000000000000, 0.000000000000000000, 0.000000000000000000 ) ) ;
#167 =( LENGTH_UNIT ( ) NAMED_UNIT ( * ) SI_UNIT ( .MILLI., .METRE. ) );
#168 = EDGE_CURVE ( 'NONE', #100, #49, #123, .T. ) ;
#169 = AXIS2_PLACEMENT_3D ( 'NONE', #27, #153, #180 ) ;
#170 = FACE_OUTER_BOUND ( 'NONE', #127, .T. ) ;
#171 = ORIENTED_EDGE ( 'NONE', *, *, #90, .T. ) ;
#172 = PRODUCT_CONTEXT ( 'NONE', #161, 'mechanical' ) ;
#173 = COLOUR_RGB ( '',0.7921568627450980005, 0.8196078431372548767, 0.9333333333333333481 ) ;
#174 = DIRECTION ( 'NONE',  ( 1.000000000000000000, 0.000000000000000000, 0.000000000000000000 ) ) ;
#175 = AXIS2_PLACEMENT_3D ( 'NONE', #54, #115, #97 ) ;
#176 = ORIENTED_EDGE ( 'NONE', *, *, #168, .F. ) ;
#177 = ORIENTED_EDGE ( 'NONE', *, *, #133, .F. ) ;
#178 = CYLINDRICAL_SURFACE ( 'NONE', #43, 3.500000000000000000 ) ;
#179 = CYLINDRICAL_SURFACE ( 'NONE', #184, 3.500000000000000000 ) ;
#180 = DIRECTION ( 'NONE',  ( 1.000000000000000000, 0.000000000000000000, 0.000000000000000000 ) ) ;
#181 = DIRECTION ( 'NONE',  ( 0.000000000000000000, 0.000000000000000000, 1.000000000000000000 ) ) ;
#182 = CARTESIAN_POINT ( 'NONE',  ( 1.600000000000000089, 1.959434878635765230E-16, 0.5999999999999999778 ) ) ;
#183 = DIRECTION ( 'NONE',  ( 0.000000000000000000, 0.000000000000000000, 1.000000000000000000 ) ) ;
#184 = AXIS2_PLACEMENT_3D ( 'NONE', #92, #93, #7 ) ;
#185 = ADVANCED_FACE ( 'NONE', ( #119 ), #178, .T. ) ;
#186 = DIRECTION ( 'NONE',  ( 1.000000000000000000, 0.000000000000000000, 0.000000000000000000 ) ) ;
#187 = CYLINDRICAL_SURFACE ( 'NONE', #175, 1.600000000000000089 ) ;
#188 = ADVANCED_FACE ( 'NONE', ( #165 ), #121, .F. ) ;
#189 = ORIENTED_EDGE ( 'NONE', *, *, #168, .T. ) ;
#190 = DIRECTION ( 'NONE',  ( 0.000000000000000000, 0.000000000000000000, 1.000000000000000000 ) ) ;
#191 = ORIENTED_EDGE ( 'NONE', *, *, #195, .F. ) ;
#192 = PLANE ( 'NONE',  #194 ) ;
#193 = CARTESIAN_POINT ( 'NONE',  ( 3.500000000000000000, 4.286263797015736595E-16, 0.000000000000000000 ) ) ;
#194 = AXIS2_PLACEMENT_3D ( 'NONE', #29, #181, #78 ) ;
#195 = EDGE_CURVE ( 'NONE', #100, #132, #155, .T. ) ;
#196 = CARTESIAN_POINT ( 'NONE',  ( 0.000000000000000000, 0.000000000000000000, 0.000000000000000000 ) ) ;
#197 = ADVANCED_FACE ( 'NONE', ( #46, #77 ), #25, .F. ) ;
#198 = CIRCLE ( 'NONE', #117, 1.600000000000000089 ) ;
#199 = ORIENTED_EDGE ( 'NONE', *, *, #120, .T. ) ;
ENDSEC;
END-ISO-10303-21;
