ISO-10303-21;
HEADER;
FILE_DESCRIPTION (( 'STEP AP214' ),
    '1' );
FILE_NAME ('Assembly.STEP',
    '2026-08-20T17:33:13',
    ( '' ),
    ( '' ),
    'SwSTEP 2.0',
    'SolidWorks 2026',
    '' );
FILE_SCHEMA (( 'AUTOMOTIVE_DESIGN' ));
ENDSEC;

DATA;
#1 = PRODUCT_DEFINITION_SHAPE ( 'NONE', 'NONE',  #911 ) ;
#2 = DOCUMENT_FILE ( 'Center Frame.STEP' , '', '', #362, '' ,$ ) ;
#3 = APPLICATION_PROTOCOL_DEFINITION ( 'draft international standard', 'automotive_design', 1998, #321 ) ;
#4 = OBJECT_ROLE ('mandatory',$ ) ;
#5 =( GEOMETRIC_REPRESENTATION_CONTEXT ( 3 ) GLOBAL_UNCERTAINTY_ASSIGNED_CONTEXT ( ( #205 ) ) GLOBAL_UNIT_ASSIGNED_CONTEXT ( ( #743, #271, #201 ) ) REPRESENTATION_CONTEXT ( 'NONE', 'WORKASPACE' ) );
#6 = APPLICATION_PROTOCOL_DEFINITION ( 'draft international standard', 'automotive_design', 1998, #431 ) ;
#7 = PRODUCT_DEFINITION ( 'General', '', #707, #60 ) ;
#8 =( NAMED_UNIT ( * ) PLANE_ANGLE_UNIT ( ) SI_UNIT ( $, .RADIAN. ) );
#9 = EXTERNAL_SOURCE (IDENTIFIER('') ) ;
#10 = PROPERTY_DEFINITION_REPRESENTATION ( #141, #252 ) ;
#11 = ITEM_DEFINED_TRANSFORMATION ( 'NONE', 'NONE', #418,  #649 ) ;
#12 = APPLICATION_PROTOCOL_DEFINITION ( 'draft international standard', 'automotive_design', 1998, #182 ) ;
#13 = PRODUCT ( 'HOBBYWING2812_\X2\9ed88ba4\X0\', 'HOBBYWING2812_\X2\9ed88ba4\X0\', '', ( #361 ) ) ;
#14 = APPLICATION_CONTEXT ( 'automotive_design' ) ;
#15 = PROPERTY_DEFINITION_REPRESENTATION ( #499, #162 ) ;
#16 = APPLICATION_PROTOCOL_DEFINITION ( 'draft international standard', 'automotive_design', 1998, #479 ) ;
#17 = DIRECTION ( 'NONE',  ( 0.000000000000000000, 0.000000000000000000, 1.000000000000000000 ) ) ;
#18 = AXIS2_PLACEMENT_3D ( 'NONE', #277, #415, #682 ) ;
#19 = PROPERTY_DEFINITION ('external definition','', #761 ) ;
#20 = PRODUCT_DEFINITION ( 'General', '', #445, #334 ) ;
#21 = APPLIED_DOCUMENT_REFERENCE ( #86,'',( #199) ) ;
#22 = ITEM_DEFINED_TRANSFORMATION ( 'NONE', 'NONE', #103,  #450 ) ;
#23 = APPLIED_DOCUMENT_REFERENCE ( #647,'',( #739) ) ;
#24 = APPLICATION_PROTOCOL_DEFINITION ( 'draft international standard', 'automotive_design', 1998, #444 ) ;
#25 = EXTERNAL_SOURCE (IDENTIFIER('') ) ;
#26 = APPLIED_DOCUMENT_REFERENCE ( #451,'',( #779) ) ;
#27 = PROPERTY_DEFINITION_REPRESENTATION ( #515, #888 ) ;
#28 = PRODUCT_DEFINITION_FORMATION_WITH_SPECIFIED_SOURCE ( 'Symmetric', '', #789, .NOT_KNOWN. ) ;
#29 = PRODUCT ( 'SG90 - Micro Servo 9g - Tower Pro.2_Pe\X2\00e7\X0\a', 'SG90 - Micro Servo 9g - Tower Pro.2_Pe\X2\00e7\X0\a', '', ( #435 ) ) ;
#30 = CONTEXT_DEPENDENT_SHAPE_REPRESENTATION ( #534, #267 ) ;
#31 = PRODUCT_DEFINITION ( 'General', '', #628, #760 ) ;
#32 = DIRECTION ( 'NONE',  ( -0.9990332908752510566, -0.03859817910828645948, 0.02103958869585274491 ) ) ;
#33 = APPLICATION_CONTEXT ( 'automotive_design' ) ;
#34 = PROPERTY_DEFINITION_REPRESENTATION ( #845, #654 ) ;
#35 =( GEOMETRIC_REPRESENTATION_CONTEXT ( 3 ) GLOBAL_UNCERTAINTY_ASSIGNED_CONTEXT ( ( #546 ) ) GLOBAL_UNIT_ASSIGNED_CONTEXT ( ( #419, #59, #611 ) ) REPRESENTATION_CONTEXT ( 'NONE', 'WORKASPACE' ) );
#36 = PROPERTY_DEFINITION ('document property','', #2 ) ;
#37 = CARTESIAN_POINT ( 'NONE',  ( 1000.039370969984589, 1163.484226740869644, 1284.219939289085460 ) ) ;
#38 = CARTESIAN_POINT ( 'NONE',  ( 0.000000000000000000, 0.000000000000000000, 0.000000000000000000 ) ) ;
#39 = APPLIED_EXTERNAL_IDENTIFICATION_ASSIGNMENT ( 'Tail-Lock.STEP' , #447, #678,( #711) ) ;
#40 = DOCUMENT_FILE ( 'HOBBYWING2812_\X2\9ed88ba4\X0\.STEP' , '', '', #714, '' ,$ ) ;
#41 = DIRECTION ( 'NONE',  ( 0.000000000000000000, 0.000000000000000000, 1.000000000000000000 ) ) ;
#42 = EXTERNAL_SOURCE (IDENTIFIER('') ) ;
#43 = CONTEXT_DEPENDENT_SHAPE_REPRESENTATION ( #583, #152 ) ;
#44 = CONTEXT_DEPENDENT_SHAPE_REPRESENTATION ( #276, #75 ) ;
#45 = PRODUCT_DEFINITION_CONTEXT ( 'detailed design', #76, 'design' ) ;
#46 = APPLICATION_CONTEXT ( 'automotive_design' ) ;
#47 = DIRECTION ( 'NONE',  ( 0.9990332908752510566, 0.03859817910828623744, -0.02103958869585275532 ) ) ;
#48 = PRODUCT_RELATED_PRODUCT_CATEGORY ( 'part', '', ( #375 ) ) ;
#49 = IDENTIFICATION_ROLE ( 'external document id and location', $) ;
#50 = PROPERTY_DEFINITION_REPRESENTATION ( #168, #593 ) ;
#51 = AXIS2_PLACEMENT_3D ( 'NONE', #769, #754, #147 ) ;
#52 =( LENGTH_UNIT ( ) NAMED_UNIT ( * ) SI_UNIT ( .MILLI., .METRE. ) );
#53 = DIRECTION ( 'NONE',  ( -0.02164655250597609382, 0.01537521603941552351, -0.9996474526033402030 ) ) ;
#54 = AXIS2_PLACEMENT_3D ( 'NONE', #241, #526, #808 ) ;
#55 = PROPERTY_DEFINITION ('document property','', #656 ) ;
#56 = APPLIED_DOCUMENT_REFERENCE ( #319,'',( #805) ) ;
#57 = IDENTIFICATION_ROLE ( 'external document id and location', $) ;
#58 = UNCERTAINTY_MEASURE_WITH_UNIT (LENGTH_MEASURE( 1.000000000000000082E-05 ), #262, 'distance_accuracy_value', 'NONE');
#59 =( NAMED_UNIT ( * ) PLANE_ANGLE_UNIT ( ) SI_UNIT ( $, .RADIAN. ) );
#60 = PRODUCT_DEFINITION_CONTEXT ( 'detailed design', #134, 'design' ) ;
#61 = OBJECT_ROLE ('mandatory',$ ) ;
#62 = PROPERTY_DEFINITION ('document property','', #703 ) ;
#63 = CARTESIAN_POINT ( 'NONE',  ( 0.000000000000000000, 0.000000000000000000, 0.000000000000000000 ) ) ;
#64 = DIRECTION ( 'NONE',  ( 0.9997329516093340640, -0.007758306911447074468, -0.02176773163094724434 ) ) ;
#65 = PRODUCT_RELATED_PRODUCT_CATEGORY ( 'part', '', ( #29 ) ) ;
#66 = AXIS2_PLACEMENT_3D ( 'NONE', #384, #389, #398 ) ;
#67 = SHAPE_REPRESENTATION ( 'HOBBYWING2812_\X2\9ed88ba4\X0\', ( #155 ), #765 ) ;
#68 = PROPERTY_DEFINITION ('external definition','', #86 ) ;
#69 = APPLICATION_CONTEXT ( 'automotive_design' ) ;
#70 = AXIS2_PLACEMENT_3D ( 'NONE', #488, #265, #64 ) ;
#71 = ROLE_ASSOCIATION ( #116, #708 ) ;
#72 = DIRECTION ( 'NONE',  ( 0.9990332908752512786, 0.03859817910828151205, -0.02103958869585283165 ) ) ;
#73 = PRODUCT_DEFINITION_SHAPE ( 'NONE', 'NONE',  #899 ) ;
#74 = ITEM_DEFINED_TRANSFORMATION ( 'NONE', 'NONE', #322,  #729 ) ;
#75 = PRODUCT_DEFINITION_SHAPE ( 'NONE', 'NONE',  #912 ) ;
#76 = APPLICATION_CONTEXT ( 'automotive_design' ) ;
#77 = IDENTIFICATION_ROLE ( 'external document id and location', $) ;
#78 = PROPERTY_DEFINITION_REPRESENTATION ( #62, #686 ) ;
#79 = PRODUCT ( 'Right Tail', 'Right Tail', '', ( #430 ) ) ;
#80 = PRODUCT_CONTEXT ( 'NONE', #691, 'mechanical' ) ;
#81 = APPLIED_EXTERNAL_IDENTIFICATION_ASSIGNMENT ( 'Canopy Lock.STEP' , #710, #670,( #693) ) ;
#82 = DOCUMENT_TYPE ( 'geometry' ) ;
#83 = PROPERTY_DEFINITION ('document property','', #318 ) ;
#84 = SHAPE_DEFINITION_REPRESENTATION ( #528, #530 ) ;
#85 = APPLICATION_PROTOCOL_DEFINITION ( 'draft international standard', 'automotive_design', 1998, #641 ) ;
#86 = DOCUMENT_FILE ( 'Left Tail Flap.STEP' , '', '', #257, '' ,$ ) ;
#87 = PROPERTY_DEFINITION ('external definition','', #693 ) ;
#88 = APPLICATION_CONTEXT ( 'automotive_design' ) ;
#89 = APPLIED_DOCUMENT_REFERENCE ( #290,'',( #20) ) ;
#90 = PRODUCT_CONTEXT ( 'NONE', #658, 'mechanical' ) ;
#91 =( GEOMETRIC_REPRESENTATION_CONTEXT ( 3 ) GLOBAL_UNCERTAINTY_ASSIGNED_CONTEXT ( ( #830 ) ) GLOBAL_UNIT_ASSIGNED_CONTEXT ( ( #402, #605, #535 ) ) REPRESENTATION_CONTEXT ( 'NONE', 'WORKASPACE' ) );
#92 = APPLIED_EXTERNAL_IDENTIFICATION_ASSIGNMENT ( 'APC 9x6.STEP' , #49, #744,( #319) ) ;
#93 = SHAPE_REPRESENTATION ( 'Right Tail Flap', ( #246 ), #91 ) ;
#94 = CONTEXT_DEPENDENT_SHAPE_REPRESENTATION ( #111, #206 ) ;
#95 = PRODUCT_DEFINITION_SHAPE ( 'NONE', 'NONE',  #913 ) ;
#96 = APPLIED_DOCUMENT_REFERENCE ( #788,'',( #457) ) ;
#97 = APPLICATION_PROTOCOL_DEFINITION ( 'draft international standard', 'automotive_design', 1998, #76 ) ;
#98 = IDENTIFICATION_ROLE ( 'external document id and location', $) ;
#99 = DIRECTION ( 'NONE',  ( 1.000000000000000000, 0.000000000000000000, 0.000000000000000000 ) ) ;
#100 = APPLIED_DOCUMENT_REFERENCE ( #584,'',( #149) ) ;
#101 = DIRECTION ( 'NONE',  ( 0.000000000000000000, 0.000000000000000000, 1.000000000000000000 ) ) ;
#102 = APPLICATION_CONTEXT ( 'automotive_design' ) ;
#103 = AXIS2_PLACEMENT_3D ( 'NONE', #478, #212, #671 ) ;
#104 = PRODUCT_DEFINITION_SHAPE ( 'NONE', 'NONE',  #915 ) ;
#105 = PROPERTY_DEFINITION_REPRESENTATION ( #406, #785 ) ;
#106 = IDENTIFICATION_ROLE ( 'external document id and location', $) ;
#107 = PRODUCT ( 'Left Tail Flap', 'Left Tail Flap', '', ( #288 ) ) ;
#108 =( NAMED_UNIT ( * ) PLANE_ANGLE_UNIT ( ) SI_UNIT ( $, .RADIAN. ) );
#109 = PROPERTY_DEFINITION_REPRESENTATION ( #337, #821 ) ;
#110 = ITEM_DEFINED_TRANSFORMATION ( 'NONE', 'NONE', #644,  #690 ) ;
#111 =( REPRESENTATION_RELATIONSHIP ('NONE','NONE', #752, #185 ) REPRESENTATION_RELATIONSHIP_WITH_TRANSFORMATION ( #523 )SHAPE_REPRESENTATION_RELATIONSHIP( ) );
#112 = CONTEXT_DEPENDENT_SHAPE_REPRESENTATION ( #390, #756 ) ;
#113 =( NAMED_UNIT ( * ) SI_UNIT ( $, .STERADIAN. ) SOLID_ANGLE_UNIT ( ) );
#114 = OBJECT_ROLE ('mandatory',$ ) ;
#115 = DOCUMENT_FILE ( 'SG90 - Micro Servo 9g - Tower Pro.2_Pe\X2\00e7\X0\a.STEP' , '', '', #844, '' ,$ ) ;
#116 = OBJECT_ROLE ('mandatory',$ ) ;
#117 = APPLICATION_PROTOCOL_DEFINITION ( 'draft international standard', 'automotive_design', 1998, #507 ) ;
#118 = DIRECTION ( 'NONE',  ( 1.000000000000000000, 0.000000000000000000, 0.000000000000000000 ) ) ;
#119 = CONTEXT_DEPENDENT_SHAPE_REPRESENTATION ( #653, #95 ) ;
#120 = APPLIED_EXTERNAL_IDENTIFICATION_ASSIGNMENT ( 'Canopy Lock.STEP' , #98, #42,( #893) ) ;
#121 = DIRECTION ( 'NONE',  ( 0.000000000000000000, 0.000000000000000000, 1.000000000000000000 ) ) ;
#122 = APPLIED_EXTERNAL_IDENTIFICATION_ASSIGNMENT ( 'HOBBYWING2812_\X2\9ed88ba4\X0\.STEP' , #178, #748,( #650) ) ;
#123 = PRODUCT_DEFINITION ( 'General', '', #239, #404 ) ;
#124 = PRODUCT_DEFINITION_FORMATION_WITH_SPECIFIED_SOURCE ( 'Symmetric', '', #634, .NOT_KNOWN. ) ;
#125 = DOCUMENT_TYPE ( 'geometry' ) ;
#126 = PRODUCT_DEFINITION_CONTEXT ( 'detailed design', #641, 'design' ) ;
#127 = CARTESIAN_POINT ( 'NONE',  ( 0.000000000000000000, 0.000000000000000000, 0.000000000000000000 ) ) ;
#128 =( NAMED_UNIT ( * ) SI_UNIT ( $, .STERADIAN. ) SOLID_ANGLE_UNIT ( ) );
#129 = DOCUMENT_TYPE ( 'geometry' ) ;
#130 = DIRECTION ( 'NONE',  ( -0.02208953576102854616, 0.02698022636160795143, -0.9993918749896552045 ) ) ;
#131 = PROPERTY_DEFINITION ('external definition','', #650 ) ;
#132 = UNCERTAINTY_MEASURE_WITH_UNIT (LENGTH_MEASURE( 1.000000000000000082E-05 ), #592, 'distance_accuracy_value', 'NONE');
#133 =( NAMED_UNIT ( * ) PLANE_ANGLE_UNIT ( ) SI_UNIT ( $, .RADIAN. ) );
#134 = APPLICATION_CONTEXT ( 'automotive_design' ) ;
#135 = PRODUCT_DEFINITION_CONTEXT ( 'detailed design', #182, 'design' ) ;
#136 = CARTESIAN_POINT ( 'NONE',  ( 1406.495475937725132, 1143.196459568543332, 1822.733758879362313 ) ) ;
#137 = PRODUCT_DEFINITION_SHAPE ( 'NONE', 'NONE',  #900 ) ;
#138 = PROPERTY_DEFINITION_REPRESENTATION ( #87, #616 ) ;
#139 = DIRECTION ( 'NONE',  ( 0.9990332908752510566, 0.03859817910828654275, -0.02103958869585276573 ) ) ;
#140 = OBJECT_ROLE ('mandatory',$ ) ;
#141 = PROPERTY_DEFINITION ('document property','', #711 ) ;
#142 =( LENGTH_UNIT ( ) NAMED_UNIT ( * ) SI_UNIT ( .MILLI., .METRE. ) );
#143 = AXIS2_PLACEMENT_3D ( 'NONE', #136, #130, #483 ) ;
#144 = DIRECTION ( 'NONE',  ( 0.02164655250597611116, -0.01537521603941625556, 0.9996474526033402030 ) ) ;
#145 = APPLICATION_CONTEXT ( 'automotive_design' ) ;
#146 = SHAPE_DEFINITION_REPRESENTATION ( #286, #616 ) ;
#147 = DIRECTION ( 'NONE',  ( 0.9990332908752513896, 0.03859817910827998549, -0.02103958869585285246 ) ) ;
#148 = PROPERTY_DEFINITION ('document property','', #893 ) ;
#149 = PRODUCT_DEFINITION ( 'General', '', #307, #482 ) ;
#150 = PROPERTY_DEFINITION ('document property','', #761 ) ;
#151 = APPLICATION_PROTOCOL_DEFINITION ( 'draft international standard', 'automotive_design', 1998, #145 ) ;
#152 = PRODUCT_DEFINITION_SHAPE ( 'NONE', 'NONE',  #897 ) ;
#153 = APPLICATION_PROTOCOL_DEFINITION ( 'draft international standard', 'automotive_design', 1998, #102 ) ;
#154 = EXTERNAL_SOURCE (IDENTIFIER('') ) ;
#155 = AXIS2_PLACEMENT_3D ( 'NONE', #405, #674, #544 ) ;
#156 = CONTEXT_DEPENDENT_SHAPE_REPRESENTATION ( #340, #833 ) ;
#157 = DIRECTION ( 'NONE',  ( 1.000000000000000000, 0.000000000000000000, 0.000000000000000000 ) ) ;
#158 = EXTERNAL_SOURCE (IDENTIFIER('') ) ;
#159 = CONTEXT_DEPENDENT_SHAPE_REPRESENTATION ( #545, #556 ) ;
#160 = PRODUCT ( 'Center Frame', 'Center Frame', '', ( #500 ) ) ;
#161 =( GEOMETRIC_REPRESENTATION_CONTEXT ( 3 ) GLOBAL_UNCERTAINTY_ASSIGNED_CONTEXT ( ( #676 ) ) GLOBAL_UNIT_ASSIGNED_CONTEXT ( ( #325, #547, #815 ) ) REPRESENTATION_CONTEXT ( 'NONE', 'WORKASPACE' ) );
#162 = SHAPE_REPRESENTATION ( 'Canopy', ( #385 ), #369 ) ;
#163 = ITEM_DEFINED_TRANSFORMATION ( 'NONE', 'NONE', #817,  #481 ) ;
#164 = PRODUCT_RELATED_PRODUCT_CATEGORY ( 'part', '', ( #634 ) ) ;
#165 = SHAPE_DEFINITION_REPRESENTATION ( #460, #785 ) ;
#166 = IDENTIFICATION_ROLE ( 'external document id and location', $) ;
#167 =( LENGTH_UNIT ( ) NAMED_UNIT ( * ) SI_UNIT ( .MILLI., .METRE. ) );
#168 = PROPERTY_DEFINITION ('document property','', #319 ) ;
#169 = ITEM_DEFINED_TRANSFORMATION ( 'NONE', 'NONE', #771,  #636 ) ;
#170 = PRODUCT_CONTEXT ( 'NONE', #791, 'mechanical' ) ;
#171 = OBJECT_ROLE ('mandatory',$ ) ;
#172 = ITEM_DEFINED_TRANSFORMATION ( 'NONE', 'NONE', #143,  #643 ) ;
#173 = PROPERTY_DEFINITION_REPRESENTATION ( #55, #536 ) ;
#174 = PRODUCT_CONTEXT ( 'NONE', #287, 'mechanical' ) ;
#175 = OBJECT_ROLE ('mandatory',$ ) ;
#176 = ROLE_ASSOCIATION ( #175, #793 ) ;
#177 = DOCUMENT_FILE ( 'Left Flap.STEP' , '', '', #577, '' ,$ ) ;
#178 = IDENTIFICATION_ROLE ( 'external document id and location', $) ;
#179 =( LENGTH_UNIT ( ) NAMED_UNIT ( * ) SI_UNIT ( .MILLI., .METRE. ) );
#180 = AXIS2_PLACEMENT_3D ( 'NONE', #784, #101, #300 ) ;
#181 = ROLE_ASSOCIATION ( #602, #811 ) ;
#182 = APPLICATION_CONTEXT ( 'automotive_design' ) ;
#183 = PRODUCT_DEFINITION_SHAPE ( 'NONE', 'NONE',  #779 ) ;
#184 = CONTEXT_DEPENDENT_SHAPE_REPRESENTATION ( #802, #798 ) ;
#185 = SHAPE_REPRESENTATION ( 'Left Tail Flap', ( #683 ), #439 ) ;
#186 = CARTESIAN_POINT ( 'NONE',  ( 1016.608992283094040, 1143.351957078501300, 1083.480956109960289 ) ) ;
#187 = AXIS2_PLACEMENT_3D ( 'NONE', #331, #336, #72 ) ;
#188 = ROLE_ASSOCIATION ( #140, #823 ) ;
#189 = UNCERTAINTY_MEASURE_WITH_UNIT (LENGTH_MEASURE( 1.000000000000000082E-05 ), #52, 'distance_accuracy_value', 'NONE');
#190 = CARTESIAN_POINT ( 'NONE',  ( 0.000000000000000000, 0.000000000000000000, 0.000000000000000000 ) ) ;
#191 = APPLICATION_CONTEXT ( 'automotive_design' ) ;
#192 = APPLIED_DOCUMENT_REFERENCE ( #200,'',( #304) ) ;
#193 = APPLIED_EXTERNAL_IDENTIFICATION_ASSIGNMENT ( 'Left Tail.STEP' , #223, #309,( #387) ) ;
#194 = DIRECTION ( 'NONE',  ( 1.000000000000000000, 0.000000000000000000, 0.000000000000000000 ) ) ;
#195 = PRODUCT_DEFINITION_FORMATION_WITH_SPECIFIED_SOURCE ( 'Symmetric', '', #314, .NOT_KNOWN. ) ;
#196 = PROPERTY_DEFINITION ('external definition','', #387 ) ;
#197 = PRODUCT_DEFINITION_CONTEXT ( 'detailed design', #282, 'design' ) ;
#198 = DIRECTION ( 'NONE',  ( -0.02164655250596600120, 0.01537521603941592770, -0.9996474526033405361 ) ) ;
#199 = PRODUCT_DEFINITION ( 'General', '', #799, #333 ) ;
#200 = DOCUMENT_FILE ( '25kg Vertical Servo.STEP' , '', '', #125, '' ,$ ) ;
#201 =( NAMED_UNIT ( * ) SI_UNIT ( $, .STERADIAN. ) SOLID_ANGLE_UNIT ( ) );
#202 = DIRECTION ( 'NONE',  ( -0.03826108319914677675, 0.9991365188507854711, 0.01619587018847675960 ) ) ;
#203 =( GEOMETRIC_REPRESENTATION_CONTEXT ( 3 ) GLOBAL_UNCERTAINTY_ASSIGNED_CONTEXT ( ( #685 ) ) GLOBAL_UNIT_ASSIGNED_CONTEXT ( ( #305, #377, #383 ) ) REPRESENTATION_CONTEXT ( 'NONE', 'WORKASPACE' ) );
#204 =( REPRESENTATION_RELATIONSHIP ('NONE','NONE', #752, #888 ) REPRESENTATION_RELATIONSHIP_WITH_TRANSFORMATION ( #169 )SHAPE_REPRESENTATION_RELATIONSHIP( ) );
#205 = UNCERTAINTY_MEASURE_WITH_UNIT (LENGTH_MEASURE( 1.000000000000000082E-05 ), #743, 'distance_accuracy_value', 'NONE');
#206 = PRODUCT_DEFINITION_SHAPE ( 'NONE', 'NONE',  #921 ) ;
#207 = APPLIED_EXTERNAL_IDENTIFICATION_ASSIGNMENT ( 'SG90 - Micro Servo 9g - Tower Pro.1_Pe\X2\00e7\X0\a.STEP' , #77, #350,( #761) ) ;
#208 = CARTESIAN_POINT ( 'NONE',  ( 1420.553787744443298, 1143.780914422473870, 2011.296399475635326 ) ) ;
#209 = EXTERNAL_SOURCE (IDENTIFIER('') ) ;
#210 =( NAMED_UNIT ( * ) SI_UNIT ( $, .STERADIAN. ) SOLID_ANGLE_UNIT ( ) );
#211 = CONTEXT_DEPENDENT_SHAPE_REPRESENTATION ( #442, #291 ) ;
#212 = DIRECTION ( 'NONE',  ( 0.02164655250597595504, -0.01537521603941564147, 0.9996474526033403141 ) ) ;
#213 = PROPERTY_DEFINITION ('external definition','', #893 ) ;
#214 = APPLIED_DOCUMENT_REFERENCE ( #434,'',( #805) ) ;
#215 =( NAMED_UNIT ( * ) PLANE_ANGLE_UNIT ( ) SI_UNIT ( $, .RADIAN. ) );
#216 = PRODUCT_RELATED_PRODUCT_CATEGORY ( 'part', '', ( #496 ) ) ;
#217 = EXTERNAL_SOURCE (IDENTIFIER('') ) ;
#218 = PRODUCT_DEFINITION_SHAPE ( 'NONE', 'NONE',  #805 ) ;
#219 = AXIS2_PLACEMENT_3D ( 'NONE', #38, #600, #118 ) ;
#220 = SHAPE_REPRESENTATION ( '25kg Vertical Servo', ( #615 ), #461 ) ;
#221 = ROLE_ASSOCIATION ( #810, #639 ) ;
#222 = PRODUCT_CONTEXT ( 'NONE', #891, 'mechanical' ) ;
#223 = IDENTIFICATION_ROLE ( 'external document id and location', $) ;
#224 = PROPERTY_DEFINITION ('document property','', #40 ) ;
#225 = SHAPE_REPRESENTATION ( 'Right Tail', ( #679 ), #5 ) ;
#226 = SHAPE_DEFINITION_REPRESENTATION ( #567, #686 ) ;
#227 = PRODUCT_DEFINITION_SHAPE ( 'NONE', 'NONE',  #149 ) ;
#228 =( NAMED_UNIT ( * ) PLANE_ANGLE_UNIT ( ) SI_UNIT ( $, .RADIAN. ) );
#229 = APPLICATION_CONTEXT ( 'automotive_design' ) ;
#230 = APPLICATION_PROTOCOL_DEFINITION ( 'draft international standard', 'automotive_design', 1998, #571 ) ;
#231 = OBJECT_ROLE ('mandatory',$ ) ;
#232 = PROPERTY_DEFINITION_REPRESENTATION ( #549, #785 ) ;
#233 = SHAPE_DEFINITION_REPRESENTATION ( #227, #888 ) ;
#234 = APPLIED_EXTERNAL_IDENTIFICATION_ASSIGNMENT ( '25kg Vertical Servo.STEP' , #57, #264,( #200) ) ;
#235 = PROPERTY_DEFINITION ('document property','', #400 ) ;
#236 = PROPERTY_DEFINITION_REPRESENTATION ( #196, #306 ) ;
#237 = APPLICATION_PROTOCOL_DEFINITION ( 'draft international standard', 'automotive_design', 1998, #598 ) ;
#238 = APPLICATION_CONTEXT ( 'automotive_design' ) ;
#239 = PRODUCT_DEFINITION_FORMATION_WITH_SPECIFIED_SOURCE ( 'Symmetric', '', #13, .NOT_KNOWN. ) ;
#240 =( GEOMETRIC_REPRESENTATION_CONTEXT ( 3 ) GLOBAL_UNCERTAINTY_ASSIGNED_CONTEXT ( ( #610 ) ) GLOBAL_UNIT_ASSIGNED_CONTEXT ( ( #142, #796, #210 ) ) REPRESENTATION_CONTEXT ( 'NONE', 'WORKASPACE' ) );
#241 = CARTESIAN_POINT ( 'NONE',  ( 0.000000000000000000, 0.000000000000000000, 0.000000000000000000 ) ) ;
#242 = APPLICATION_CONTEXT ( 'automotive_design' ) ;
#243 = ITEM_DEFINED_TRANSFORMATION ( 'NONE', 'NONE', #18,  #385 ) ;
#244 = DIRECTION ( 'NONE',  ( 1.000000000000000000, 0.000000000000000000, 0.000000000000000000 ) ) ;
#245 = APPLICATION_PROTOCOL_DEFINITION ( 'draft international standard', 'automotive_design', 1998, #791 ) ;
#246 = AXIS2_PLACEMENT_3D ( 'NONE', #831, #380, #194 ) ;
#247 = PRODUCT_RELATED_PRODUCT_CATEGORY ( 'part', '', ( #13 ) ) ;
#248 = IDENTIFICATION_ROLE ( 'external document id and location', $) ;
#249 = PROPERTY_DEFINITION_REPRESENTATION ( #235, #593 ) ;
#250 = CONTEXT_DEPENDENT_SHAPE_REPRESENTATION ( #850, #701 ) ;
#251 =( NAMED_UNIT ( * ) PLANE_ANGLE_UNIT ( ) SI_UNIT ( $, .RADIAN. ) );
#252 = SHAPE_REPRESENTATION ( 'Tail-Lock', ( #180 ), #666 ) ;
#253 = PRODUCT_RELATED_PRODUCT_CATEGORY ( 'part', '', ( #719 ) ) ;
#254 = IDENTIFICATION_ROLE ( 'external document id and location', $) ;
#255 = CARTESIAN_POINT ( 'NONE',  ( 0.000000000000000000, 0.000000000000000000, 0.000000000000000000 ) ) ;
#256 = DIRECTION ( 'NONE',  ( -0.1745773788044120700, -0.02264201139085133749, 0.9843830952073270302 ) ) ;
#257 = DOCUMENT_TYPE ( 'geometry' ) ;
#258 = AXIS2_PLACEMENT_3D ( 'NONE', #832, #759, #514 ) ;
#259 =( NAMED_UNIT ( * ) PLANE_ANGLE_UNIT ( ) SI_UNIT ( $, .RADIAN. ) );
#260 = ROLE_ASSOCIATION ( #874, #56 ) ;
#261 = PRODUCT_DEFINITION_CONTEXT ( 'detailed design', #321, 'design' ) ;
#262 =( LENGTH_UNIT ( ) NAMED_UNIT ( * ) SI_UNIT ( .MILLI., .METRE. ) );
#263 =( NAMED_UNIT ( * ) SI_UNIT ( $, .STERADIAN. ) SOLID_ANGLE_UNIT ( ) );
#264 = EXTERNAL_SOURCE (IDENTIFIER('') ) ;
#265 = DIRECTION ( 'NONE',  ( 0.008090255317056923440, 0.9998516947055745563, 0.01520316951479972964 ) ) ;
#266 =( REPRESENTATION_RELATIONSHIP ('NONE','NONE', #752, #67 ) REPRESENTATION_RELATIONSHIP_WITH_TRANSFORMATION ( #892 )SHAPE_REPRESENTATION_RELATIONSHIP( ) );
#267 = PRODUCT_DEFINITION_SHAPE ( 'NONE', 'NONE',  #906 ) ;
#268 = PROPERTY_DEFINITION_REPRESENTATION ( #579, #220 ) ;
#269 = UNCERTAINTY_MEASURE_WITH_UNIT (LENGTH_MEASURE( 1.000000000000000082E-05 ), #873, 'distance_accuracy_value', 'NONE');
#270 = DOCUMENT_TYPE ( 'geometry' ) ;
#271 =( NAMED_UNIT ( * ) PLANE_ANGLE_UNIT ( ) SI_UNIT ( $, .RADIAN. ) );
#272 = DIRECTION ( 'NONE',  ( 0.9990332908752513896, 0.03859817910828633458, -0.02103958869585275185 ) ) ;
#273 =( LENGTH_UNIT ( ) NAMED_UNIT ( * ) SI_UNIT ( .MILLI., .METRE. ) );
#274 = PROPERTY_DEFINITION ('external definition','', #711 ) ;
#275 =( LENGTH_UNIT ( ) NAMED_UNIT ( * ) SI_UNIT ( .MILLI., .METRE. ) );
#276 =( REPRESENTATION_RELATIONSHIP ('NONE','NONE', #752, #220 ) REPRESENTATION_RELATIONSHIP_WITH_TRANSFORMATION ( #403 )SHAPE_REPRESENTATION_RELATIONSHIP( ) );
#277 = CARTESIAN_POINT ( 'NONE',  ( 1006.369275093278702, 1135.661146278598153, 1533.743101555380008 ) ) ;
#278 = APPLIED_EXTERNAL_IDENTIFICATION_ASSIGNMENT ( 'HOBBYWING2812_\X2\9ed88ba4\X0\.STEP' , #663, #646,( #40) ) ;
#279 = PRODUCT_DEFINITION_FORMATION_WITH_SPECIFIED_SOURCE ( 'Symmetric', '', #452, .NOT_KNOWN. ) ;
#280 = APPLICATION_PROTOCOL_DEFINITION ( 'draft international standard', 'automotive_design', 1998, #69 ) ;
#281 = CARTESIAN_POINT ( 'NONE',  ( 977.3327970879021223, 1141.020888142848435, 1084.321672281423162 ) ) ;
#282 = APPLICATION_CONTEXT ( 'automotive_design' ) ;
#283 = PRODUCT_DEFINITION_SHAPE ( 'NONE', 'NONE',  #909 ) ;
#284 = APPLIED_DOCUMENT_REFERENCE ( #703,'',( #700) ) ;
#285 = APPLICATION_PROTOCOL_DEFINITION ( 'draft international standard', 'automotive_design', 1998, #658 ) ;
#286 = PRODUCT_DEFINITION_SHAPE ( 'NONE', 'NONE',  #7 ) ;
#287 = APPLICATION_CONTEXT ( 'automotive_design' ) ;
#288 = PRODUCT_CONTEXT ( 'NONE', #242, 'mechanical' ) ;
#289 = IDENTIFICATION_ROLE ( 'external document id and location', $) ;
#290 = DOCUMENT_FILE ( 'Right Tail.STEP' , '', '', #722, '' ,$ ) ;
#291 = PRODUCT_DEFINITION_SHAPE ( 'NONE', 'NONE',  #898 ) ;
#292 = APPLICATION_PROTOCOL_DEFINITION ( 'draft international standard', 'automotive_design', 1998, #381 ) ;
#293 = SHAPE_DEFINITION_REPRESENTATION ( #348, #536 ) ;
#294 = OBJECT_ROLE ('mandatory',$ ) ;
#295 = AXIS2_PLACEMENT_3D ( 'NONE', #608, #424, #563 ) ;
#296 = PROPERTY_DEFINITION ('document property','', #115 ) ;
#297 = DIRECTION ( 'NONE',  ( 0.000000000000000000, 0.000000000000000000, 1.000000000000000000 ) ) ;
#298 = IDENTIFICATION_ROLE ( 'external document id and location', $) ;
#299 = PROPERTY_DEFINITION_REPRESENTATION ( #680, #536 ) ;
#300 = DIRECTION ( 'NONE',  ( 1.000000000000000000, 0.000000000000000000, 0.000000000000000000 ) ) ;
#301 = APPLIED_EXTERNAL_IDENTIFICATION_ASSIGNMENT ( 'Right Wing.STEP' , #254, #209,( #703) ) ;
#302 = PROPERTY_DEFINITION_REPRESENTATION ( #484, #821 ) ;
#303 = DOCUMENT_TYPE ( 'geometry' ) ;
#304 = PRODUCT_DEFINITION ( 'General', '', #519, #45 ) ;
#305 =( LENGTH_UNIT ( ) NAMED_UNIT ( * ) SI_UNIT ( .MILLI., .METRE. ) );
#306 = SHAPE_REPRESENTATION ( 'Left Tail', ( #729 ), #35 ) ;
#307 = PRODUCT_DEFINITION_FORMATION_WITH_SPECIFIED_SOURCE ( 'Symmetric', '', #375, .NOT_KNOWN. ) ;
#308 = PRODUCT ( 'APC 9x6', 'APC 9x6', '', ( #414 ) ) ;
#309 = EXTERNAL_SOURCE (IDENTIFIER('') ) ;
#310 = APPLIED_DOCUMENT_REFERENCE ( #387,'',( #512) ) ;
#311 = DIRECTION ( 'NONE',  ( 0.000000000000000000, 0.000000000000000000, 1.000000000000000000 ) ) ;
#312 = APPLICATION_CONTEXT ( 'automotive_design' ) ;
#313 = PROPERTY_DEFINITION_REPRESENTATION ( #213, #616 ) ;
#314 = PRODUCT ( 'Left Wing', 'Left Wing', '', ( #356 ) ) ;
#315 = DIRECTION ( 'NONE',  ( -0.9990332908752509455, -0.03859817910828637622, 0.02103958869585264430 ) ) ;
#316 = UNCERTAINTY_MEASURE_WITH_UNIT (LENGTH_MEASURE( 1.000000000000000082E-05 ), #273, 'distance_accuracy_value', 'NONE');
#317 = PROPERTY_DEFINITION_REPRESENTATION ( #872, #220 ) ;
#318 = DOCUMENT_FILE ( 'HOBBYWING2812_\X2\9ed88ba4\X0\.STEP' , '', '', #698, '' ,$ ) ;
#319 = DOCUMENT_FILE ( 'APC 9x6.STEP' , '', '', #751, '' ,$ ) ;
#320 = APPLICATION_PROTOCOL_DEFINITION ( 'draft international standard', 'automotive_design', 1998, #328 ) ;
#321 = APPLICATION_CONTEXT ( 'automotive_design' ) ;
#322 = AXIS2_PLACEMENT_3D ( 'NONE', #186, #672, #32 ) ;
#323 = ROLE_ASSOCIATION ( #560, #675 ) ;
#324 = PRODUCT_DEFINITION_CONTEXT ( 'detailed design', #102, 'design' ) ;
#325 =( LENGTH_UNIT ( ) NAMED_UNIT ( * ) SI_UNIT ( .MILLI., .METRE. ) );
#326 = PROPERTY_DEFINITION ('document property','', #387 ) ;
#327 = DIRECTION ( 'NONE',  ( -0.02164655250597609382, 0.01537521603941552004, -0.9996474526033402030 ) ) ;
#328 = APPLICATION_CONTEXT ( 'automotive_design' ) ;
#329 = DIRECTION ( 'NONE',  ( 0.000000000000000000, 0.000000000000000000, 1.000000000000000000 ) ) ;
#330 = CONTEXT_DEPENDENT_SHAPE_REPRESENTATION ( #475, #104 ) ;
#331 = CARTESIAN_POINT ( 'NONE',  ( 613.2133388356469368, 1112.605101101109312, 2027.298843648148704 ) ) ;
#332 = PROPERTY_DEFINITION ('external definition','', #703 ) ;
#333 = PRODUCT_DEFINITION_CONTEXT ( 'detailed design', #598, 'design' ) ;
#334 = PRODUCT_DEFINITION_CONTEXT ( 'detailed design', #145, 'design' ) ;
#335 = IDENTIFICATION_ROLE ( 'external document id and location', $) ;
#336 = DIRECTION ( 'NONE',  ( 0.03826108319914188483, -0.9991365188507859152, -0.01619587018847750207 ) ) ;
#337 = PROPERTY_DEFINITION ('external definition','', #451 ) ;
#338 = PROPERTY_DEFINITION_REPRESENTATION ( #36, #530 ) ;
#339 = DIRECTION ( 'NONE',  ( -0.02164655250597607300, 0.01537521603941568137, -0.9996474526033402030 ) ) ;
#340 =( REPRESENTATION_RELATIONSHIP ('NONE','NONE', #752, #225 ) REPRESENTATION_RELATIONSHIP_WITH_TRANSFORMATION ( #351 )SHAPE_REPRESENTATION_RELATIONSHIP( ) );
#341 = PRODUCT_RELATED_PRODUCT_CATEGORY ( 'part', '', ( #588 ) ) ;
#342 = ITEM_DEFINED_TRANSFORMATION ( 'NONE', 'NONE', #51,  #180 ) ;
#343 = OBJECT_ROLE ('mandatory',$ ) ;
#344 = DIRECTION ( 'NONE',  ( 1.000000000000000000, 0.000000000000000000, 0.000000000000000000 ) ) ;
#345 = PROPERTY_DEFINITION_REPRESENTATION ( #689, #225 ) ;
#346 = CARTESIAN_POINT ( 'NONE',  ( 316.8290575258224635, 1102.195719883490483, 1906.120282690967315 ) ) ;
#347 = APPLIED_EXTERNAL_IDENTIFICATION_ASSIGNMENT ( 'HOBBYWING2812_\X2\9ed88ba4\X0\.STEP' , #702, #158,( #318) ) ;
#348 = PRODUCT_DEFINITION_SHAPE ( 'NONE', 'NONE',  #840 ) ;
#349 = PRODUCT_DEFINITION_FORMATION_WITH_SPECIFIED_SOURCE ( 'Symmetric', '', #877, .NOT_KNOWN. ) ;
#350 = EXTERNAL_SOURCE (IDENTIFIER('') ) ;
#351 = ITEM_DEFINED_TRANSFORMATION ( 'NONE', 'NONE', #894,  #679 ) ;
#352 = APPLICATION_PROTOCOL_DEFINITION ( 'draft international standard', 'automotive_design', 1998, #287 ) ;
#353 = PROPERTY_DEFINITION ('external definition','', #788 ) ;
#354 =( REPRESENTATION_RELATIONSHIP ('NONE','NONE', #752, #67 ) REPRESENTATION_RELATIONSHIP_WITH_TRANSFORMATION ( #580 )SHAPE_REPRESENTATION_RELATIONSHIP( ) );
#355 = CONTEXT_DEPENDENT_SHAPE_REPRESENTATION ( #376, #73 ) ;
#356 = PRODUCT_CONTEXT ( 'NONE', #381, 'mechanical' ) ;
#357 = CARTESIAN_POINT ( 'NONE',  ( 0.000000000000000000, 0.000000000000000000, 0.000000000000000000 ) ) ;
#358 = PROPERTY_DEFINITION_REPRESENTATION ( #417, #185 ) ;
#359 =( GEOMETRIC_REPRESENTATION_CONTEXT ( 3 ) GLOBAL_UNCERTAINTY_ASSIGNED_CONTEXT ( ( #269 ) ) GLOBAL_UNIT_ASSIGNED_CONTEXT ( ( #873, #8, #792 ) ) REPRESENTATION_CONTEXT ( 'NONE', 'WORKASPACE' ) );
#360 = PROPERTY_DEFINITION_REPRESENTATION ( #662, #530 ) ;
#361 = PRODUCT_CONTEXT ( 'NONE', #191, 'mechanical' ) ;
#362 = DOCUMENT_TYPE ( 'geometry' ) ;
#363 = APPLIED_EXTERNAL_IDENTIFICATION_ASSIGNMENT ( 'Left Tail Flap.STEP' , #106, #154,( #86) ) ;
#364 =( NAMED_UNIT ( * ) PLANE_ANGLE_UNIT ( ) SI_UNIT ( $, .RADIAN. ) );
#365 = ROLE_ASSOCIATION ( #343, #21 ) ;
#366 = ROLE_ASSOCIATION ( #550, #96 ) ;
#367 = SHAPE_DEFINITION_REPRESENTATION ( #730, #162 ) ;
#368 =( NAMED_UNIT ( * ) SI_UNIT ( $, .STERADIAN. ) SOLID_ANGLE_UNIT ( ) );
#369 =( GEOMETRIC_REPRESENTATION_CONTEXT ( 3 ) GLOBAL_UNCERTAINTY_ASSIGNED_CONTEXT ( ( #470 ) ) GLOBAL_UNIT_ASSIGNED_CONTEXT ( ( #723, #364, #510 ) ) REPRESENTATION_CONTEXT ( 'NONE', 'WORKASPACE' ) );
#370 = PROPERTY_DEFINITION_REPRESENTATION ( #83, #67 ) ;
#371 = CONTEXT_DEPENDENT_SHAPE_REPRESENTATION ( #437, #607 ) ;
#372 = AXIS2_PLACEMENT_3D ( 'NONE', #281, #497, #619 ) ;
#373 = PROPERTY_DEFINITION ('external definition','', #400 ) ;
#374 = PRODUCT_RELATED_PRODUCT_CATEGORY ( 'part', '', ( #582 ) ) ;
#375 = PRODUCT ( 'Right Flap', 'Right Flap', '', ( #222 ) ) ;
#376 =( REPRESENTATION_RELATIONSHIP ('NONE','NONE', #752, #593 ) REPRESENTATION_RELATIONSHIP_WITH_TRANSFORMATION ( #491 )SHAPE_REPRESENTATION_RELATIONSHIP( ) );
#377 =( NAMED_UNIT ( * ) PLANE_ANGLE_UNIT ( ) SI_UNIT ( $, .RADIAN. ) );
#378 = DIRECTION ( 'NONE',  ( 1.000000000000000000, 0.000000000000000000, 0.000000000000000000 ) ) ;
#379 = CONTEXT_DEPENDENT_SHAPE_REPRESENTATION ( #569, #618 ) ;
#380 = DIRECTION ( 'NONE',  ( 0.000000000000000000, 0.000000000000000000, 1.000000000000000000 ) ) ;
#381 = APPLICATION_CONTEXT ( 'automotive_design' ) ;
#382 = PROPERTY_DEFINITION_REPRESENTATION ( #632, #654 ) ;
#383 =( NAMED_UNIT ( * ) SI_UNIT ( $, .STERADIAN. ) SOLID_ANGLE_UNIT ( ) );
#384 = CARTESIAN_POINT ( 'NONE',  ( 1006.369275093278702, 1135.661146278598153, 1533.743101555380463 ) ) ;
#385 = AXIS2_PLACEMENT_3D ( 'NONE', #63, #778, #861 ) ;
#386 = ROLE_ASSOCIATION ( #516, #192 ) ;
#387 = DOCUMENT_FILE ( 'Left Tail.STEP' , '', '', #129, '' ,$ ) ;
#388 = PRODUCT_RELATED_PRODUCT_CATEGORY ( 'part', '', ( #107 ) ) ;
#389 = DIRECTION ( 'NONE',  ( 0.02164655250597609035, -0.01537521603941564494, 0.9996474526033402030 ) ) ;
#390 =( REPRESENTATION_RELATIONSHIP ('NONE','NONE', #752, #785 ) REPRESENTATION_RELATIONSHIP_WITH_TRANSFORMATION ( #440 )SHAPE_REPRESENTATION_RELATIONSHIP( ) );
#391 = APPLIED_DOCUMENT_REFERENCE ( #115,'',( #779) ) ;
#392 = PROPERTY_DEFINITION_REPRESENTATION ( #564, #67 ) ;
#393 = EXTERNAL_SOURCE (IDENTIFIER('') ) ;
#394 = ITEM_DEFINED_TRANSFORMATION ( 'NONE', 'NONE', #541,  #219 ) ;
#395 = APPLIED_EXTERNAL_IDENTIFICATION_ASSIGNMENT ( 'Left Wing.STEP' , #289, #456,( #656) ) ;
#396 = UNCERTAINTY_MEASURE_WITH_UNIT (LENGTH_MEASURE( 1.000000000000000082E-05 ), #179, 'distance_accuracy_value', 'NONE');
#397 = DIRECTION ( 'NONE',  ( 0.000000000000000000, 0.000000000000000000, 1.000000000000000000 ) ) ;
#398 = DIRECTION ( 'NONE',  ( 0.9990332908752512786, 0.03859817910828633458, -0.02103958869585276226 ) ) ;
#399 = PRODUCT_DEFINITION_FORMATION_WITH_SPECIFIED_SOURCE ( 'Symmetric', '', #160, .NOT_KNOWN. ) ;
#400 = DOCUMENT_FILE ( 'APC 9x6.STEP' , '', '', #303, '' ,$ ) ;
#401 = DOCUMENT_TYPE ( 'geometry' ) ;
#402 =( LENGTH_UNIT ( ) NAMED_UNIT ( * ) SI_UNIT ( .MILLI., .METRE. ) );
#403 = ITEM_DEFINED_TRANSFORMATION ( 'NONE', 'NONE', #465,  #615 ) ;
#404 = PRODUCT_DEFINITION_CONTEXT ( 'detailed design', #836, 'design' ) ;
#405 = CARTESIAN_POINT ( 'NONE',  ( 0.000000000000000000, 0.000000000000000000, 0.000000000000000000 ) ) ;
#406 = PROPERTY_DEFINITION ('document property','', #647 ) ;
#407 = PRODUCT_DEFINITION_CONTEXT ( 'detailed design', #33, 'design' ) ;
#408 =( REPRESENTATION_RELATIONSHIP ('NONE','NONE', #752, #654 ) REPRESENTATION_RELATIONSHIP_WITH_TRANSFORMATION ( #110 )SHAPE_REPRESENTATION_RELATIONSHIP( ) );
#409 = DIRECTION ( 'NONE',  ( -0.03826108319914670042, 0.9991365188507854711, 0.01619587018847783860 ) ) ;
#410 = DIRECTION ( 'NONE',  ( 0.9997564114235705235, 0.004639737292474548601, -0.02157754979883653307 ) ) ;
#411 = APPLICATION_CONTEXT ( 'automotive_design' ) ;
#412 = PROPERTY_DEFINITION ('external definition','', #434 ) ;
#413 = DIRECTION ( 'NONE',  ( 0.000000000000000000, 0.000000000000000000, 1.000000000000000000 ) ) ;
#414 = PRODUCT_CONTEXT ( 'NONE', #69, 'mechanical' ) ;
#415 = DIRECTION ( 'NONE',  ( 0.02164655250597605912, -0.01537521603941563453, 0.9996474526033403141 ) ) ;
#416 = PRODUCT_DEFINITION ( 'General', '', #428, #324 ) ;
#417 = PROPERTY_DEFINITION ('document property','', #86 ) ;
#418 = AXIS2_PLACEMENT_3D ( 'NONE', #809, #540, #890 ) ;
#419 =( LENGTH_UNIT ( ) NAMED_UNIT ( * ) SI_UNIT ( .MILLI., .METRE. ) );
#420 = ITEM_DEFINED_TRANSFORMATION ( 'NONE', 'NONE', #66,  #511 ) ;
#421 = DIRECTION ( 'NONE',  ( -0.9990332908752509455, -0.03859817910828659826, 0.02103958869585273797 ) ) ;
#422 = EXTERNAL_SOURCE (IDENTIFIER('') ) ;
#423 = PROPERTY_DEFINITION ('external definition','', #318 ) ;
#424 = DIRECTION ( 'NONE',  ( 0.02110360077136934354, -0.001251695202436674346, 0.9997765106730618356 ) ) ;
#425 = APPLIED_EXTERNAL_IDENTIFICATION_ASSIGNMENT ( 'SG90 - Micro Servo 9g - Tower Pro.1_Pe\X2\00e7\X0\a.STEP' , #335, #9,( #647) ) ;
#426 = EXTERNAL_SOURCE (IDENTIFIER('') ) ;
#427 = PRODUCT ( 'Canopy Lock', 'Canopy Lock', '', ( #429 ) ) ;
#428 = PRODUCT_DEFINITION_FORMATION_WITH_SPECIFIED_SOURCE ( 'Symmetric', '', #496, .NOT_KNOWN. ) ;
#429 = PRODUCT_CONTEXT ( 'NONE', #571, 'mechanical' ) ;
#430 = PRODUCT_CONTEXT ( 'NONE', #539, 'mechanical' ) ;
#431 = APPLICATION_CONTEXT ( 'automotive_design' ) ;
#432 = APPLIED_DOCUMENT_REFERENCE ( #318,'',( #123) ) ;
#433 =( NAMED_UNIT ( * ) SI_UNIT ( $, .STERADIAN. ) SOLID_ANGLE_UNIT ( ) );
#434 = DOCUMENT_FILE ( 'APC 9x6.STEP' , '', '', #471, '' ,$ ) ;
#435 = PRODUCT_CONTEXT ( 'NONE', #328, 'mechanical' ) ;
#436 = PRODUCT_DEFINITION_SHAPE ( 'NONE', 'NONE',  #123 ) ;
#437 =( REPRESENTATION_RELATIONSHIP ('NONE','NONE', #752, #536 ) REPRESENTATION_RELATIONSHIP_WITH_TRANSFORMATION ( #163 )SHAPE_REPRESENTATION_RELATIONSHIP( ) );
#438 = PROPERTY_DEFINITION_REPRESENTATION ( #692, #93 ) ;
#439 =( GEOMETRIC_REPRESENTATION_CONTEXT ( 3 ) GLOBAL_UNCERTAINTY_ASSIGNED_CONTEXT ( ( #132 ) ) GLOBAL_UNIT_ASSIGNED_CONTEXT ( ( #592, #881, #263 ) ) REPRESENTATION_CONTEXT ( 'NONE', 'WORKASPACE' ) );
#440 = ITEM_DEFINED_TRANSFORMATION ( 'NONE', 'NONE', #847,  #219 ) ;
#441 =( NAMED_UNIT ( * ) SI_UNIT ( $, .STERADIAN. ) SOLID_ANGLE_UNIT ( ) );
#442 =( REPRESENTATION_RELATIONSHIP ('NONE','NONE', #752, #530 ) REPRESENTATION_RELATIONSHIP_WITH_TRANSFORMATION ( #420 )SHAPE_REPRESENTATION_RELATIONSHIP( ) );
#443 = PROPERTY_DEFINITION ('external definition','', #115 ) ;
#444 = APPLICATION_CONTEXT ( 'automotive_design' ) ;
#445 = PRODUCT_DEFINITION_FORMATION_WITH_SPECIFIED_SOURCE ( 'Symmetric', '', #79, .NOT_KNOWN. ) ;
#446 = PRODUCT_DEFINITION_SHAPE ( 'NONE', 'NONE',  #20 ) ;
#447 = IDENTIFICATION_ROLE ( 'external document id and location', $) ;
#448 = AXIS2_PLACEMENT_3D ( 'NONE', #208, #773, #410 ) ;
#449 = DOCUMENT_TYPE ( 'geometry' ) ;
#450 = AXIS2_PLACEMENT_3D ( 'NONE', #742, #311, #538 ) ;
#451 = DOCUMENT_FILE ( 'SG90 - Micro Servo 9g - Tower Pro.2_Pe\X2\00e7\X0\a.STEP' , '', '', #724, '' ,$ ) ;
#452 = PRODUCT ( 'Right Wing', 'Right Wing', '', ( #625 ) ) ;
#453 = APPLIED_DOCUMENT_REFERENCE ( #177,'',( #813) ) ;
#454 =( NAMED_UNIT ( * ) SI_UNIT ( $, .STERADIAN. ) SOLID_ANGLE_UNIT ( ) );
#455 = DIRECTION ( 'NONE',  ( 0.02164655250597615627, -0.01537521603941562585, 0.9996474526033403141 ) ) ;
#456 = EXTERNAL_SOURCE (IDENTIFIER('') ) ;
#457 = PRODUCT_DEFINITION ( 'General', '', #349, #261 ) ;
#458 = PROPERTY_DEFINITION_REPRESENTATION ( #746, #888 ) ;
#459 = DIRECTION ( 'NONE',  ( -0.02164655250597598626, 0.01537521603941558422, -0.9996474526033400920 ) ) ;
#460 = PRODUCT_DEFINITION_SHAPE ( 'NONE', 'NONE',  #739 ) ;
#461 =( GEOMETRIC_REPRESENTATION_CONTEXT ( 3 ) GLOBAL_UNCERTAINTY_ASSIGNED_CONTEXT ( ( #820 ) ) GLOBAL_UNIT_ASSIGNED_CONTEXT ( ( #718, #709, #433 ) ) REPRESENTATION_CONTEXT ( 'NONE', 'WORKASPACE' ) );
#462 = OBJECT_ROLE ('mandatory',$ ) ;
#463 = APPLIED_DOCUMENT_REFERENCE ( #40,'',( #123) ) ;
#464 = CARTESIAN_POINT ( 'NONE',  ( 1711.424992552486174, 1158.052886441949568, 1877.780913591178660 ) ) ;
#465 = AXIS2_PLACEMENT_3D ( 'NONE', #827, #688, #613 ) ;
#466 = ROLE_ASSOCIATION ( #699, #749 ) ;
#467 = EXTERNAL_SOURCE (IDENTIFIER('') ) ;
#468 = APPLIED_EXTERNAL_IDENTIFICATION_ASSIGNMENT ( 'Right Flap.STEP' , #884, #486,( #584) ) ;
#469 = PROPERTY_DEFINITION_REPRESENTATION ( #517, #220 ) ;
#470 = UNCERTAINTY_MEASURE_WITH_UNIT (LENGTH_MEASURE( 1.000000000000000082E-05 ), #723, 'distance_accuracy_value', 'NONE');
#471 = DOCUMENT_TYPE ( 'geometry' ) ;
#472 = PRODUCT_DEFINITION_FORMATION_WITH_SPECIFIED_SOURCE ( 'Symmetric', '', #308, .NOT_KNOWN. ) ;
#473 = PRODUCT_DEFINITION ( 'General', '', #399, #753 ) ;
#474 = PRODUCT_DEFINITION_SHAPE ( 'NONE', 'NONE',  #902 ) ;
#475 =( REPRESENTATION_RELATIONSHIP ('NONE','NONE', #752, #593 ) REPRESENTATION_RELATIONSHIP_WITH_TRANSFORMATION ( #664 )SHAPE_REPRESENTATION_RELATIONSHIP( ) );
#476 = DOCUMENT_FILE ( '25kg Vertical Servo.STEP' , '', '', #775, '' ,$ ) ;
#477 = DIRECTION ( 'NONE',  ( 0.000000000000000000, 0.000000000000000000, 1.000000000000000000 ) ) ;
#478 = CARTESIAN_POINT ( 'NONE',  ( 1012.639677936048088, 1181.921862678987509, 1916.351370224239645 ) ) ;
#479 = APPLICATION_CONTEXT ( 'automotive_design' ) ;
#480 = PRODUCT_DEFINITION_CONTEXT ( 'detailed design', #229, 'design' ) ;
#481 = AXIS2_PLACEMENT_3D ( 'NONE', #190, #696, #344 ) ;
#482 = PRODUCT_DEFINITION_CONTEXT ( 'detailed design', #527, 'design' ) ;
#483 = DIRECTION ( 'NONE',  ( -0.03800705372464765336, 0.9988905084917971688, 0.02780676018831947094 ) ) ;
#484 = PROPERTY_DEFINITION ('document property','', #451 ) ;
#485 = APPLIED_EXTERNAL_IDENTIFICATION_ASSIGNMENT ( 'SG90 - Micro Servo 9g - Tower Pro.2_Pe\X2\00e7\X0\a.STEP' , #879, #826,( #451) ) ;
#486 = EXTERNAL_SOURCE (IDENTIFIER('') ) ;
#487 = CONTEXT_DEPENDENT_SHAPE_REPRESENTATION ( #673, #727 ) ;
#488 = CARTESIAN_POINT ( 'NONE',  ( 613.8519121345734675, 1112.151532227945381, 2056.788443499948244 ) ) ;
#489 = PROPERTY_DEFINITION_REPRESENTATION ( #19, #785 ) ;
#490 = IDENTIFICATION_ROLE ( 'external document id and location', $) ;
#491 = ITEM_DEFINED_TRANSFORMATION ( 'NONE', 'NONE', #726,  #54 ) ;
#492 = DIRECTION ( 'NONE',  ( 0.02164655250597126435, -0.01537521603941583923, 0.9996474526033404251 ) ) ;
#493 = EXTERNAL_SOURCE (IDENTIFIER('') ) ;
#494 = AXIS2_PLACEMENT_3D ( 'NONE', #846, #339, #421 ) ;
#495 = PROPERTY_DEFINITION_REPRESENTATION ( #858, #616 ) ;
#496 = PRODUCT ( 'Tail-Lock', 'Tail-Lock', '', ( #174 ) ) ;
#497 = DIRECTION ( 'NONE',  ( 0.02164655250597612851, -0.01537521603941563453, 0.9996474526033402030 ) ) ;
#498 =( REPRESENTATION_RELATIONSHIP ('NONE','NONE', #752, #93 ) REPRESENTATION_RELATIONSHIP_WITH_TRANSFORMATION ( #518 )SHAPE_REPRESENTATION_RELATIONSHIP( ) );
#499 = PROPERTY_DEFINITION ('document property','', #788 ) ;
#500 = PRODUCT_CONTEXT ( 'NONE', #88, 'mechanical' ) ;
#501 = APPLICATION_PROTOCOL_DEFINITION ( 'draft international standard', 'automotive_design', 1998, #411 ) ;
#502 = CARTESIAN_POINT ( 'NONE',  ( 0.000000000000000000, 0.000000000000000000, 0.000000000000000000 ) ) ;
#503 = DOCUMENT_TYPE ( 'geometry' ) ;
#504 = PROPERTY_DEFINITION_REPRESENTATION ( #68, #185 ) ;
#505 = APPLICATION_PROTOCOL_DEFINITION ( 'draft international standard', 'automotive_design', 1998, #46 ) ;
#506 = DOCUMENT_FILE ( 'Right Tail Flap.STEP' , '', '', #449, '' ,$ ) ;
#507 = APPLICATION_CONTEXT ( 'automotive_design' ) ;
#508 = ITEM_DEFINED_TRANSFORMATION ( 'NONE', 'NONE', #661,  #450 ) ;
#509 = PRODUCT_CONTEXT ( 'NONE', #755, 'mechanical' ) ;
#510 =( NAMED_UNIT ( * ) SI_UNIT ( $, .STERADIAN. ) SOLID_ANGLE_UNIT ( ) );
#511 = AXIS2_PLACEMENT_3D ( 'NONE', #591, #121, #244 ) ;
#512 = PRODUCT_DEFINITION ( 'General', '', #745, #687 ) ;
#513 = PRODUCT_CONTEXT ( 'NONE', #507, 'mechanical' ) ;
#514 = DIRECTION ( 'NONE',  ( 0.9994880225444723321, -0.02323090424506701543, -0.02200040631663446530 ) ) ;
#515 = PROPERTY_DEFINITION ('external definition','', #584 ) ;
#516 = OBJECT_ROLE ('mandatory',$ ) ;
#517 = PROPERTY_DEFINITION ('external definition','', #200 ) ;
#518 = ITEM_DEFINED_TRANSFORMATION ( 'NONE', 'NONE', #372,  #246 ) ;
#519 = PRODUCT_DEFINITION_FORMATION_WITH_SPECIFIED_SOURCE ( 'Symmetric', '', #582, .NOT_KNOWN. ) ;
#520 = PRODUCT_DEFINITION_SHAPE ( 'NONE', 'NONE',  #304 ) ;
#521 = PRODUCT_CONTEXT ( 'NONE', #411, 'mechanical' ) ;
#522 = DOCUMENT_TYPE ( 'geometry' ) ;
#523 = ITEM_DEFINED_TRANSFORMATION ( 'NONE', 'NONE', #494,  #683 ) ;
#524 = ITEM_DEFINED_TRANSFORMATION ( 'NONE', 'NONE', #578,  #155 ) ;
#525 = IDENTIFICATION_ROLE ( 'external document id and location', $) ;
#526 = DIRECTION ( 'NONE',  ( 0.000000000000000000, 0.000000000000000000, 1.000000000000000000 ) ) ;
#527 = APPLICATION_CONTEXT ( 'automotive_design' ) ;
#528 = PRODUCT_DEFINITION_SHAPE ( 'NONE', 'NONE',  #473 ) ;
#529 = CARTESIAN_POINT ( 'NONE',  ( 1007.249211724222846, 1185.750628600817436, 1667.417235538931891 ) ) ;
#530 = SHAPE_REPRESENTATION ( 'Center Frame', ( #511 ), #203 ) ;
#531 = ITEM_DEFINED_TRANSFORMATION ( 'NONE', 'NONE', #295,  #643 ) ;
#532 = PROPERTY_DEFINITION_REPRESENTATION ( #224, #67 ) ;
#533 =( LENGTH_UNIT ( ) NAMED_UNIT ( * ) SI_UNIT ( .MILLI., .METRE. ) );
#534 =( REPRESENTATION_RELATIONSHIP ('NONE','NONE', #752, #67 ) REPRESENTATION_RELATIONSHIP_WITH_TRANSFORMATION ( #524 )SHAPE_REPRESENTATION_RELATIONSHIP( ) );
#535 =( NAMED_UNIT ( * ) SI_UNIT ( $, .STERADIAN. ) SOLID_ANGLE_UNIT ( ) );
#536 = SHAPE_REPRESENTATION ( 'Left Wing', ( #481 ), #161 ) ;
#537 = UNCERTAINTY_MEASURE_WITH_UNIT (LENGTH_MEASURE( 1.000000000000000082E-05 ), #574, 'distance_accuracy_value', 'NONE');
#538 = DIRECTION ( 'NONE',  ( 1.000000000000000000, 0.000000000000000000, 0.000000000000000000 ) ) ;
#539 = APPLICATION_CONTEXT ( 'automotive_design' ) ;
#540 = DIRECTION ( 'NONE',  ( 0.9990332908752510566, 0.03859817910828634152, -0.02103958869585275185 ) ) ;
#541 = AXIS2_PLACEMENT_3D ( 'NONE', #834, #202, #626 ) ;
#542 = ITEM_DEFINED_TRANSFORMATION ( 'NONE', 'NONE', #695,  #615 ) ;
#543 = PRODUCT_RELATED_PRODUCT_CATEGORY ( 'part', '', ( #452 ) ) ;
#544 = DIRECTION ( 'NONE',  ( 1.000000000000000000, 0.000000000000000000, 0.000000000000000000 ) ) ;
#545 =( REPRESENTATION_RELATIONSHIP ('NONE','NONE', #752, #821 ) REPRESENTATION_RELATIONSHIP_WITH_TRANSFORMATION ( #172 )SHAPE_REPRESENTATION_RELATIONSHIP( ) );
#546 = UNCERTAINTY_MEASURE_WITH_UNIT (LENGTH_MEASURE( 1.000000000000000082E-05 ), #419, 'distance_accuracy_value', 'NONE');
#547 =( NAMED_UNIT ( * ) PLANE_ANGLE_UNIT ( ) SI_UNIT ( $, .RADIAN. ) );
#548 = DIRECTION ( 'NONE',  ( 0.9990332908752512786, 0.03859817910828622356, -0.02103958869584794666 ) ) ;
#549 = PROPERTY_DEFINITION ('external definition','', #647 ) ;
#550 = OBJECT_ROLE ('mandatory',$ ) ;
#551 = PROPERTY_DEFINITION_REPRESENTATION ( #862, #593 ) ;
#552 = PRODUCT_RELATED_PRODUCT_CATEGORY ( 'part', '', ( #864 ) ) ;
#553 = UNCERTAINTY_MEASURE_WITH_UNIT (LENGTH_MEASURE( 1.000000000000000082E-05 ), #533, 'distance_accuracy_value', 'NONE');
#554 =( REPRESENTATION_RELATIONSHIP ('NONE','NONE', #752, #686 ) REPRESENTATION_RELATIONSHIP_WITH_TRANSFORMATION ( #11 )SHAPE_REPRESENTATION_RELATIONSHIP( ) );
#555 = PRODUCT_DEFINITION_CONTEXT ( 'detailed design', #14, 'design' ) ;
#556 = PRODUCT_DEFINITION_SHAPE ( 'NONE', 'NONE',  #920 ) ;
#557 = APPLICATION_PROTOCOL_DEFINITION ( 'draft international standard', 'automotive_design', 1998, #88 ) ;
#558 = OBJECT_ROLE ('mandatory',$ ) ;
#559 = PRODUCT_DEFINITION_FORMATION_WITH_SPECIFIED_SOURCE ( 'Symmetric', '', #29, .NOT_KNOWN. ) ;
#560 = OBJECT_ROLE ('mandatory',$ ) ;
#561 = DIRECTION ( 'NONE',  ( 1.000000000000000000, 0.000000000000000000, 0.000000000000000000 ) ) ;
#562 = APPLICATION_PROTOCOL_DEFINITION ( 'draft international standard', 'automotive_design', 1998, #282 ) ;
#563 = DIRECTION ( 'NONE',  ( -0.03856321767498441244, 0.9992540286777157332, 0.002065045739666137095 ) ) ;
#564 = PROPERTY_DEFINITION ('external definition','', #40 ) ;
#565 =( REPRESENTATION_RELATIONSHIP ('NONE','NONE', #752, #616 ) REPRESENTATION_RELATIONSHIP_WITH_TRANSFORMATION ( #22 )SHAPE_REPRESENTATION_RELATIONSHIP( ) );
#566 = CONTEXT_DEPENDENT_SHAPE_REPRESENTATION ( #554, #137 ) ;
#567 = PRODUCT_DEFINITION_SHAPE ( 'NONE', 'NONE',  #700 ) ;
#568 = SHAPE_DEFINITION_REPRESENTATION ( #735, #654 ) ;
#569 =( REPRESENTATION_RELATIONSHIP ('NONE','NONE', #752, #252 ) REPRESENTATION_RELATIONSHIP_WITH_TRANSFORMATION ( #342 )SHAPE_REPRESENTATION_RELATIONSHIP( ) );
#570 = PROPERTY_DEFINITION_REPRESENTATION ( #443, #821 ) ;
#571 = APPLICATION_CONTEXT ( 'automotive_design' ) ;
#572 = SHAPE_DEFINITION_REPRESENTATION ( #446, #225 ) ;
#573 = APPLICATION_PROTOCOL_DEFINITION ( 'draft international standard', 'automotive_design', 1998, #229 ) ;
#574 =( LENGTH_UNIT ( ) NAMED_UNIT ( * ) SI_UNIT ( .MILLI., .METRE. ) );
#575 = APPLICATION_PROTOCOL_DEFINITION ( 'draft international standard', 'automotive_design', 1998, #14 ) ;
#576 = APPLICATION_PROTOCOL_DEFINITION ( 'draft international standard', 'automotive_design', 1998, #33 ) ;
#577 = DOCUMENT_TYPE ( 'geometry' ) ;
#578 = AXIS2_PLACEMENT_3D ( 'NONE', #37, #492, #548 ) ;
#579 = PROPERTY_DEFINITION ('document property','', #476 ) ;
#580 = ITEM_DEFINED_TRANSFORMATION ( 'NONE', 'NONE', #187,  #155 ) ;
#581 = APPLICATION_PROTOCOL_DEFINITION ( 'draft international standard', 'automotive_design', 1998, #242 ) ;
#582 = PRODUCT ( '25kg Vertical Servo', '25kg Vertical Servo', '', ( #630 ) ) ;
#583 =( REPRESENTATION_RELATIONSHIP ('NONE','NONE', #752, #616 ) REPRESENTATION_RELATIONSHIP_WITH_TRANSFORMATION ( #508 )SHAPE_REPRESENTATION_RELATIONSHIP( ) );
#584 = DOCUMENT_FILE ( 'Right Flap.STEP' , '', '', #503, '' ,$ ) ;
#585 = SHAPE_DEFINITION_REPRESENTATION ( #772, #306 ) ;
#586 = APPLIED_EXTERNAL_IDENTIFICATION_ASSIGNMENT ( 'Right Tail.STEP' , #490, #393,( #290) ) ;
#587 = AXIS2_PLACEMENT_3D ( 'NONE', #721, #635, #157 ) ;
#588 = PRODUCT ( 'Left Tail', 'Left Tail', '', ( #521 ) ) ;
#589 = DIRECTION ( 'NONE',  ( 0.9990332908752511676, 0.03859817910828485660, -0.02103958869585284899 ) ) ;
#590 = PROPERTY_DEFINITION_REPRESENTATION ( #614, #67 ) ;
#591 = CARTESIAN_POINT ( 'NONE',  ( 0.000000000000000000, 0.000000000000000000, 0.000000000000000000 ) ) ;
#592 =( LENGTH_UNIT ( ) NAMED_UNIT ( * ) SI_UNIT ( .MILLI., .METRE. ) );
#593 = SHAPE_REPRESENTATION ( 'APC 9x6', ( #54 ), #882 ) ;
#594 = PRODUCT_DEFINITION_SHAPE ( 'NONE', 'NONE',  #416 ) ;
#595 = CONTEXT_DEPENDENT_SHAPE_REPRESENTATION ( #603, #717 ) ;
#596 = ROLE_ASSOCIATION ( #231, #310 ) ;
#597 = CARTESIAN_POINT ( 'NONE',  ( 0.000000000000000000, 0.000000000000000000, 0.000000000000000000 ) ) ;
#598 = APPLICATION_CONTEXT ( 'automotive_design' ) ;
#599 = APPLIED_EXTERNAL_IDENTIFICATION_ASSIGNMENT ( 'APC 9x6.STEP' , #298, #25,( #400) ) ;
#600 = DIRECTION ( 'NONE',  ( 0.000000000000000000, 0.000000000000000000, 1.000000000000000000 ) ) ;
#601 = ROLE_ASSOCIATION ( #637, #463 ) ;
#602 = OBJECT_ROLE ('mandatory',$ ) ;
#603 =( REPRESENTATION_RELATIONSHIP ('NONE','NONE', #752, #220 ) REPRESENTATION_RELATIONSHIP_WITH_TRANSFORMATION ( #542 )SHAPE_REPRESENTATION_RELATIONSHIP( ) );
#604 = UNCERTAINTY_MEASURE_WITH_UNIT (LENGTH_MEASURE( 1.000000000000000082E-05 ), #167, 'distance_accuracy_value', 'NONE');
#605 =( NAMED_UNIT ( * ) PLANE_ANGLE_UNIT ( ) SI_UNIT ( $, .RADIAN. ) );
#606 =( GEOMETRIC_REPRESENTATION_CONTEXT ( 3 ) GLOBAL_UNCERTAINTY_ASSIGNED_CONTEXT ( ( #604 ) ) GLOBAL_UNIT_ASSIGNED_CONTEXT ( ( #167, #617, #841 ) ) REPRESENTATION_CONTEXT ( 'NONE', 'WORKASPACE' ) );
#607 = PRODUCT_DEFINITION_SHAPE ( 'NONE', 'NONE',  #904 ) ;
#608 = CARTESIAN_POINT ( 'NONE',  ( 619.5368124428940746, 1112.657339956020451, 1847.607924669425756 ) ) ;
#609 = IDENTIFICATION_ROLE ( 'external document id and location', $) ;
#610 = UNCERTAINTY_MEASURE_WITH_UNIT (LENGTH_MEASURE( 1.000000000000000082E-05 ), #142, 'distance_accuracy_value', 'NONE');
#611 =( NAMED_UNIT ( * ) SI_UNIT ( $, .STERADIAN. ) SOLID_ANGLE_UNIT ( ) );
#612 = EXTERNAL_SOURCE (IDENTIFIER('') ) ;
#613 = DIRECTION ( 'NONE',  ( 0.02164655250597606953, -0.01537521603941531534, 0.9996474526033403141 ) ) ;
#614 = PROPERTY_DEFINITION ('document property','', #650 ) ;
#615 = AXIS2_PLACEMENT_3D ( 'NONE', #357, #297, #378 ) ;
#616 = SHAPE_REPRESENTATION ( 'Canopy Lock', ( #450 ), #849 ) ;
#617 =( NAMED_UNIT ( * ) PLANE_ANGLE_UNIT ( ) SI_UNIT ( $, .RADIAN. ) );
#618 = PRODUCT_DEFINITION_SHAPE ( 'NONE', 'NONE',  #918 ) ;
#619 = DIRECTION ( 'NONE',  ( 0.9990332908752511676, 0.03859817910828468313, -0.02103958869585282471 ) ) ;
#620 = ROLE_ASSOCIATION ( #631, #839 ) ;
#621 = PROPERTY_DEFINITION_REPRESENTATION ( #764, #593 ) ;
#622 = DIRECTION ( 'NONE',  ( 0.9990332908752510566, 0.03859817910828631377, -0.02103958869585276226 ) ) ;
#623 = APPLIED_EXTERNAL_IDENTIFICATION_ASSIGNMENT ( '25kg Vertical Servo.STEP' , #609, #426,( #476) ) ;
#624 = DIRECTION ( 'NONE',  ( 1.000000000000000000, 0.000000000000000000, 0.000000000000000000 ) ) ;
#625 = PRODUCT_CONTEXT ( 'NONE', #431, 'mechanical' ) ;
#626 = DIRECTION ( 'NONE',  ( 0.02164655250599619926, -0.01537521603941367776, 0.9996474526033397590 ) ) ;
#627 = IDENTIFICATION_ROLE ( 'external document id and location', $) ;
#628 = PRODUCT_DEFINITION_FORMATION_WITH_SPECIFIED_SOURCE ( 'Symmetric', '', #864, .NOT_KNOWN. ) ;
#629 = PRODUCT_RELATED_PRODUCT_CATEGORY ( 'part', '', ( #308 ) ) ;
#630 = PRODUCT_CONTEXT ( 'NONE', #238, 'mechanical' ) ;
#631 = OBJECT_ROLE ('mandatory',$ ) ;
#632 = PROPERTY_DEFINITION ('external definition','', #177 ) ;
#633 = ROLE_ASSOCIATION ( #294, #284 ) ;
#634 = PRODUCT ( 'Left Flap', 'Left Flap', '', ( #90 ) ) ;
#635 = DIRECTION ( 'NONE',  ( 0.000000000000000000, 0.000000000000000000, 1.000000000000000000 ) ) ;
#636 = AXIS2_PLACEMENT_3D ( 'NONE', #597, #413, #624 ) ;
#637 = OBJECT_ROLE ('mandatory',$ ) ;
#638 = PROPERTY_DEFINITION_REPRESENTATION ( #373, #593 ) ;
#639 = APPLIED_DOCUMENT_REFERENCE ( #693,'',( #7) ) ;
#640 = SHAPE_DEFINITION_REPRESENTATION ( #436, #67 ) ;
#641 = APPLICATION_CONTEXT ( 'automotive_design' ) ;
#642 = PROPERTY_DEFINITION_REPRESENTATION ( #353, #162 ) ;
#643 = AXIS2_PLACEMENT_3D ( 'NONE', #502, #17, #99 ) ;
#644 = AXIS2_PLACEMENT_3D ( 'NONE', #346, #139, #327 ) ;
#645 = PROPERTY_DEFINITION ('document property','', #200 ) ;
#646 = EXTERNAL_SOURCE (IDENTIFIER('') ) ;
#647 = DOCUMENT_FILE ( 'SG90 - Micro Servo 9g - Tower Pro.1_Pe\X2\00e7\X0\a.STEP' , '', '', #522, '' ,$ ) ;
#648 = SHAPE_DEFINITION_REPRESENTATION ( #801, #93 ) ;
#649 = AXIS2_PLACEMENT_3D ( 'NONE', #733, #41, #657 ) ;
#650 = DOCUMENT_FILE ( 'HOBBYWING2812_\X2\9ed88ba4\X0\.STEP' , '', '', #82, '' ,$ ) ;
#651 = DOCUMENT_TYPE ( 'geometry' ) ;
#652 = APPLIED_EXTERNAL_IDENTIFICATION_ASSIGNMENT ( 'Left Flap.STEP' , #806, #684,( #177) ) ;
#653 =( REPRESENTATION_RELATIONSHIP ('NONE','NONE', #752, #593 ) REPRESENTATION_RELATIONSHIP_WITH_TRANSFORMATION ( #736 )SHAPE_REPRESENTATION_RELATIONSHIP( ) );
#654 = SHAPE_REPRESENTATION ( 'Left Flap', ( #690 ), #781 ) ;
#655 = PROPERTY_DEFINITION_REPRESENTATION ( #274, #252 ) ;
#656 = DOCUMENT_FILE ( 'Left Wing.STEP' , '', '', #705, '' ,$ ) ;
#657 = DIRECTION ( 'NONE',  ( 1.000000000000000000, 0.000000000000000000, 0.000000000000000000 ) ) ;
#658 = APPLICATION_CONTEXT ( 'automotive_design' ) ;
#659 = PROPERTY_DEFINITION_REPRESENTATION ( #131, #67 ) ;
#660 = DIRECTION ( 'NONE',  ( 1.000000000000000000, 0.000000000000000000, 0.000000000000000000 ) ) ;
#661 = AXIS2_PLACEMENT_3D ( 'NONE', #529, #459, #315 ) ;
#662 = PROPERTY_DEFINITION ('external definition','', #2 ) ;
#663 = IDENTIFICATION_ROLE ( 'external document id and location', $) ;
#664 = ITEM_DEFINED_TRANSFORMATION ( 'NONE', 'NONE', #258,  #54 ) ;
#665 = CONTEXT_DEPENDENT_SHAPE_REPRESENTATION ( #266, #854 ) ;
#666 =( GEOMETRIC_REPRESENTATION_CONTEXT ( 3 ) GLOBAL_UNCERTAINTY_ASSIGNED_CONTEXT ( ( #396 ) ) GLOBAL_UNIT_ASSIGNED_CONTEXT ( ( #179, #251, #812 ) ) REPRESENTATION_CONTEXT ( 'NONE', 'WORKASPACE' ) );
#667 = APPLIED_EXTERNAL_IDENTIFICATION_ASSIGNMENT ( 'SG90 - Micro Servo 9g - Tower Pro.2_Pe\X2\00e7\X0\a.STEP' , #525, #493,( #115) ) ;
#668 = PRODUCT_RELATED_PRODUCT_CATEGORY ( 'part', '', ( #314 ) ) ;
#669 = DIRECTION ( 'NONE',  ( 1.000000000000000000, 0.000000000000000000, 0.000000000000000000 ) ) ;
#670 = EXTERNAL_SOURCE (IDENTIFIER('') ) ;
#671 = DIRECTION ( 'NONE',  ( 0.9990332908752511676, 0.03859817910828630683, -0.02103958869585264777 ) ) ;
#672 = DIRECTION ( 'NONE',  ( -0.02164655250597607647, 0.01537521603941566055, -0.9996474526033403141 ) ) ;
#673 =( REPRESENTATION_RELATIONSHIP ('NONE','NONE', #752, #785 ) REPRESENTATION_RELATIONSHIP_WITH_TRANSFORMATION ( #394 )SHAPE_REPRESENTATION_RELATIONSHIP( ) );
#674 = DIRECTION ( 'NONE',  ( 0.000000000000000000, 0.000000000000000000, 1.000000000000000000 ) ) ;
#675 = APPLIED_DOCUMENT_REFERENCE ( #400,'',( #805) ) ;
#676 = UNCERTAINTY_MEASURE_WITH_UNIT (LENGTH_MEASURE( 1.000000000000000082E-05 ), #325, 'distance_accuracy_value', 'NONE');
#677 = DIRECTION ( 'NONE',  ( 0.9838998060383024047, 0.03483613094060149240, 0.1752929424103566725 ) ) ;
#678 = EXTERNAL_SOURCE (IDENTIFIER('') ) ;
#679 = AXIS2_PLACEMENT_3D ( 'NONE', #255, #397, #561 ) ;
#680 = PROPERTY_DEFINITION ('external definition','', #656 ) ;
#681 =( NAMED_UNIT ( * ) SI_UNIT ( $, .STERADIAN. ) SOLID_ANGLE_UNIT ( ) );
#682 = DIRECTION ( 'NONE',  ( 0.9990332908752510566, 0.03859817910828637622, -0.02103958869585272756 ) ) ;
#683 = AXIS2_PLACEMENT_3D ( 'NONE', #867, #734, #660 ) ;
#684 = EXTERNAL_SOURCE (IDENTIFIER('') ) ;
#685 = UNCERTAINTY_MEASURE_WITH_UNIT (LENGTH_MEASURE( 1.000000000000000082E-05 ), #305, 'distance_accuracy_value', 'NONE');
#686 = SHAPE_REPRESENTATION ( 'Right Wing', ( #649 ), #740 ) ;
#687 = PRODUCT_DEFINITION_CONTEXT ( 'detailed design', #444, 'design' ) ;
#688 = DIRECTION ( 'NONE',  ( -0.9990332908752511676, -0.03859817910828630683, 0.02103958869585275532 ) ) ;
#689 = PROPERTY_DEFINITION ('external definition','', #290 ) ;
#690 = AXIS2_PLACEMENT_3D ( 'NONE', #127, #329, #669 ) ;
#691 = APPLICATION_CONTEXT ( 'automotive_design' ) ;
#692 = PROPERTY_DEFINITION ('external definition','', #506 ) ;
#693 = DOCUMENT_FILE ( 'Canopy Lock.STEP' , '', '', #270, '' ,$ ) ;
#694 = CARTESIAN_POINT ( 'NONE',  ( 640.5049351349574636, 1113.550943897784464, 1842.015804967050371 ) ) ;
#695 = AXIS2_PLACEMENT_3D ( 'NONE', #843, #272, #144 ) ;
#696 = DIRECTION ( 'NONE',  ( 0.000000000000000000, 0.000000000000000000, 1.000000000000000000 ) ) ;
#697 = PROPERTY_DEFINITION_REPRESENTATION ( #838, #225 ) ;
#698 = DOCUMENT_TYPE ( 'geometry' ) ;
#699 = OBJECT_ROLE ('mandatory',$ ) ;
#700 = PRODUCT_DEFINITION ( 'General', '', #279, #555 ) ;
#701 = PRODUCT_DEFINITION_SHAPE ( 'NONE', 'NONE',  #908 ) ;
#702 = IDENTIFICATION_ROLE ( 'external document id and location', $) ;
#703 = DOCUMENT_FILE ( 'Right Wing.STEP' , '', '', #770, '' ,$ ) ;
#704 = SHAPE_DEFINITION_REPRESENTATION ( #594, #252 ) ;
#705 = DOCUMENT_TYPE ( 'geometry' ) ;
#706 = PRODUCT_DEFINITION_SHAPE ( 'NONE', 'NONE',  #199 ) ;
#707 = PRODUCT_DEFINITION_FORMATION_WITH_SPECIFIED_SOURCE ( 'Symmetric', '', #427, .NOT_KNOWN. ) ;
#708 = APPLIED_DOCUMENT_REFERENCE ( #2,'',( #473) ) ;
#709 =( NAMED_UNIT ( * ) PLANE_ANGLE_UNIT ( ) SI_UNIT ( $, .RADIAN. ) );
#710 = IDENTIFICATION_ROLE ( 'external document id and location', $) ;
#711 = DOCUMENT_FILE ( 'Tail-Lock.STEP' , '', '', #401, '' ,$ ) ;
#712 = PRODUCT_DEFINITION ( 'General', '', #28, #480 ) ;
#713 = APPLICATION_PROTOCOL_DEFINITION ( 'draft international standard', 'automotive_design', 1998, #238 ) ;
#714 = DOCUMENT_TYPE ( 'geometry' ) ;
#715 = PROPERTY_DEFINITION_REPRESENTATION ( #423, #67 ) ;
#716 = SHAPE_DEFINITION_REPRESENTATION ( #183, #821 ) ;
#717 = PRODUCT_DEFINITION_SHAPE ( 'NONE', 'NONE',  #914 ) ;
#718 =( LENGTH_UNIT ( ) NAMED_UNIT ( * ) SI_UNIT ( .MILLI., .METRE. ) );
#719 = PRODUCT ( 'SG90 - Micro Servo 9g - Tower Pro.1_Pe\X2\00e7\X0\a', 'SG90 - Micro Servo 9g - Tower Pro.1_Pe\X2\00e7\X0\a', '', ( #170 ) ) ;
#720 = CONTEXT_DEPENDENT_SHAPE_REPRESENTATION ( #868, #474 ) ;
#721 = CARTESIAN_POINT ( 'NONE',  ( 0.000000000000000000, 0.000000000000000000, 0.000000000000000000 ) ) ;
#722 = DOCUMENT_TYPE ( 'geometry' ) ;
#723 =( LENGTH_UNIT ( ) NAMED_UNIT ( * ) SI_UNIT ( .MILLI., .METRE. ) );
#724 = DOCUMENT_TYPE ( 'geometry' ) ;
#725 = ROLE_ASSOCIATION ( #896, #800 ) ;
#726 = AXIS2_PLACEMENT_3D ( 'NONE', #814, #256, #677 ) ;
#727 = PRODUCT_DEFINITION_SHAPE ( 'NONE', 'NONE',  #917 ) ;
#728 = ROLE_ASSOCIATION ( #762, #23 ) ;
#729 = AXIS2_PLACEMENT_3D ( 'NONE', #738, #477, #758 ) ;
#730 = PRODUCT_DEFINITION_SHAPE ( 'NONE', 'NONE',  #457 ) ;
#731 = DOCUMENT_TYPE ( 'geometry' ) ;
#732 = ROLE_ASSOCIATION ( #558, #453 ) ;
#733 = CARTESIAN_POINT ( 'NONE',  ( 0.000000000000000000, 0.000000000000000000, 0.000000000000000000 ) ) ;
#734 = DIRECTION ( 'NONE',  ( 0.000000000000000000, 0.000000000000000000, 1.000000000000000000 ) ) ;
#735 = PRODUCT_DEFINITION_SHAPE ( 'NONE', 'NONE',  #813 ) ;
#736 = ITEM_DEFINED_TRANSFORMATION ( 'NONE', 'NONE', #70,  #54 ) ;
#737 = CONTEXT_DEPENDENT_SHAPE_REPRESENTATION ( #354, #283 ) ;
#738 = CARTESIAN_POINT ( 'NONE',  ( 0.000000000000000000, 0.000000000000000000, 0.000000000000000000 ) ) ;
#739 = PRODUCT_DEFINITION ( 'General', '', #875, #135 ) ;
#740 =( GEOMETRIC_REPRESENTATION_CONTEXT ( 3 ) GLOBAL_UNCERTAINTY_ASSIGNED_CONTEXT ( ( #189 ) ) GLOBAL_UNIT_ASSIGNED_CONTEXT ( ( #52, #133, #681 ) ) REPRESENTATION_CONTEXT ( 'NONE', 'WORKASPACE' ) );
#741 = PRODUCT_DEFINITION_CONTEXT ( 'detailed design', #479, 'design' ) ;
#742 = CARTESIAN_POINT ( 'NONE',  ( 0.000000000000000000, 0.000000000000000000, 0.000000000000000000 ) ) ;
#743 =( LENGTH_UNIT ( ) NAMED_UNIT ( * ) SI_UNIT ( .MILLI., .METRE. ) );
#744 = EXTERNAL_SOURCE (IDENTIFIER('') ) ;
#745 = PRODUCT_DEFINITION_FORMATION_WITH_SPECIFIED_SOURCE ( 'Symmetric', '', #588, .NOT_KNOWN. ) ;
#746 = PROPERTY_DEFINITION ('document property','', #584 ) ;
#747 = CARTESIAN_POINT ( 'NONE',  ( 976.6476606480841838, 1141.808029914169765, 1084.322539657794323 ) ) ;
#748 = EXTERNAL_SOURCE (IDENTIFIER('') ) ;
#749 = APPLIED_DOCUMENT_REFERENCE ( #476,'',( #304) ) ;
#750 = UNCERTAINTY_MEASURE_WITH_UNIT (LENGTH_MEASURE( 1.000000000000000082E-05 ), #275, 'distance_accuracy_value', 'NONE');
#751 = DOCUMENT_TYPE ( 'geometry' ) ;
#752 = SHAPE_REPRESENTATION ( 'Assembly', ( #587, #661, #66, #726, #418, #894, #322, #771, #817, #847, #578, #644, #18, #187, #448, #103, #465, #70, #695, #258, #295, #541, #51, #372, #143, #494 ), #824 ) ;
#753 = PRODUCT_DEFINITION_CONTEXT ( 'detailed design', #312, 'design' ) ;
#754 = DIRECTION ( 'NONE',  ( 0.02164655250597607300, -0.01537521603941563626, 0.9996474526033402030 ) ) ;
#755 = APPLICATION_CONTEXT ( 'automotive_design' ) ;
#756 = PRODUCT_DEFINITION_SHAPE ( 'NONE', 'NONE',  #905 ) ;
#757 = PROPERTY_DEFINITION_REPRESENTATION ( #296, #821 ) ;
#758 = DIRECTION ( 'NONE',  ( 1.000000000000000000, 0.000000000000000000, 0.000000000000000000 ) ) ;
#759 = DIRECTION ( 'NONE',  ( 0.02356097525032655945, 0.9996118885946174704, 0.01486447528692806837 ) ) ;
#760 = PRODUCT_DEFINITION_CONTEXT ( 'detailed design', #46, 'design' ) ;
#761 = DOCUMENT_FILE ( 'SG90 - Micro Servo 9g - Tower Pro.1_Pe\X2\00e7\X0\a.STEP' , '', '', #731, '' ,$ ) ;
#762 = OBJECT_ROLE ('mandatory',$ ) ;
#763 = CARTESIAN_POINT ( 'NONE',  ( 314.7918497981872292, 1103.140641692689996, 1906.178930268016529 ) ) ;
#764 = PROPERTY_DEFINITION ('document property','', #434 ) ;
#765 =( GEOMETRIC_REPRESENTATION_CONTEXT ( 3 ) GLOBAL_UNCERTAINTY_ASSIGNED_CONTEXT ( ( #316 ) ) GLOBAL_UNIT_ASSIGNED_CONTEXT ( ( #273, #259, #128 ) ) REPRESENTATION_CONTEXT ( 'NONE', 'WORKASPACE' ) );
#766 = PROPERTY_DEFINITION_REPRESENTATION ( #150, #785 ) ;
#767 = PROPERTY_DEFINITION ('document property','', #506 ) ;
#768 = ROLE_ASSOCIATION ( #819, #89 ) ;
#769 = CARTESIAN_POINT ( 'NONE',  ( 994.8966022651167123, 1143.810010779483719, 1003.929951675610141 ) ) ;
#770 = DOCUMENT_TYPE ( 'geometry' ) ;
#771 = AXIS2_PLACEMENT_3D ( 'NONE', #464, #47, #818 ) ;
#772 = PRODUCT_DEFINITION_SHAPE ( 'NONE', 'NONE',  #512 ) ;
#773 = DIRECTION ( 'NONE',  ( 0.004306342075412598371, -0.9998710294681000255, -0.01547190512934440085 ) ) ;
#774 = PRODUCT_DEFINITION_SHAPE ( 'NONE', 'NONE',  #907 ) ;
#775 = DOCUMENT_TYPE ( 'geometry' ) ;
#776 = APPLICATION_PROTOCOL_DEFINITION ( 'draft international standard', 'automotive_design', 1998, #312 ) ;
#777 = SHAPE_DEFINITION_REPRESENTATION ( #520, #220 ) ;
#778 = DIRECTION ( 'NONE',  ( 0.000000000000000000, 0.000000000000000000, 1.000000000000000000 ) ) ;
#779 = PRODUCT_DEFINITION ( 'General', '', #559, #741 ) ;
#780 = ROLE_ASSOCIATION ( #4, #26 ) ;
#781 =( GEOMETRIC_REPRESENTATION_CONTEXT ( 3 ) GLOBAL_UNCERTAINTY_ASSIGNED_CONTEXT ( ( #537 ) ) GLOBAL_UNIT_ASSIGNED_CONTEXT ( ( #574, #228, #368 ) ) REPRESENTATION_CONTEXT ( 'NONE', 'WORKASPACE' ) );
#782 = ROLE_ASSOCIATION ( #462, #214 ) ;
#783 = APPLICATION_PROTOCOL_DEFINITION ( 'draft international standard', 'automotive_design', 1998, #755 ) ;
#784 = CARTESIAN_POINT ( 'NONE',  ( 0.000000000000000000, 0.000000000000000000, 0.000000000000000000 ) ) ;
#785 = SHAPE_REPRESENTATION ( 'SG90 - Micro Servo 9g - Tower Pro.1_Pe\X2\00e7\X0\a', ( #219 ), #240 ) ;
#786 = PROPERTY_DEFINITION_REPRESENTATION ( #767, #93 ) ;
#787 = PRODUCT_RELATED_PRODUCT_CATEGORY ( 'part', '', ( #160 ) ) ;
#788 = DOCUMENT_FILE ( 'Canopy.STEP' , '', '', #863, '' ,$ ) ;
#789 = PRODUCT ( 'Assembly', 'Assembly', '', ( #513 ) ) ;
#790 = SHAPE_DEFINITION_REPRESENTATION ( #883, #752 ) ;
#791 = APPLICATION_CONTEXT ( 'automotive_design' ) ;
#792 =( NAMED_UNIT ( * ) SI_UNIT ( $, .STERADIAN. ) SOLID_ANGLE_UNIT ( ) );
#793 = APPLIED_DOCUMENT_REFERENCE ( #711,'',( #416) ) ;
#794 = APPLIED_EXTERNAL_IDENTIFICATION_ASSIGNMENT ( 'Right Tail Flap.STEP' , #627, #217,( #506) ) ;
#795 = PROPERTY_DEFINITION_REPRESENTATION ( #326, #306 ) ;
#796 =( NAMED_UNIT ( * ) PLANE_ANGLE_UNIT ( ) SI_UNIT ( $, .RADIAN. ) );
#797 = SHAPE_DEFINITION_REPRESENTATION ( #706, #185 ) ;
#798 = PRODUCT_DEFINITION_SHAPE ( 'NONE', 'NONE',  #916 ) ;
#799 = PRODUCT_DEFINITION_FORMATION_WITH_SPECIFIED_SOURCE ( 'Symmetric', '', #107, .NOT_KNOWN. ) ;
#800 = APPLIED_DOCUMENT_REFERENCE ( #506,'',( #31) ) ;
#801 = PRODUCT_DEFINITION_SHAPE ( 'NONE', 'NONE',  #31 ) ;
#802 =( REPRESENTATION_RELATIONSHIP ('NONE','NONE', #752, #821 ) REPRESENTATION_RELATIONSHIP_WITH_TRANSFORMATION ( #531 )SHAPE_REPRESENTATION_RELATIONSHIP( ) );
#803 = ROLE_ASSOCIATION ( #114, #100 ) ;
#804 = APPLICATION_PROTOCOL_DEFINITION ( 'draft international standard', 'automotive_design', 1998, #836 ) ;
#805 = PRODUCT_DEFINITION ( 'General', '', #472, #197 ) ;
#806 = IDENTIFICATION_ROLE ( 'external document id and location', $) ;
#807 = APPLIED_DOCUMENT_REFERENCE ( #650,'',( #123) ) ;
#808 = DIRECTION ( 'NONE',  ( 1.000000000000000000, 0.000000000000000000, 0.000000000000000000 ) ) ;
#809 = CARTESIAN_POINT ( 'NONE',  ( 1713.460103576044503, 1157.162717228251495, 1877.723153546425920 ) ) ;
#810 = OBJECT_ROLE ('mandatory',$ ) ;
#811 = APPLIED_DOCUMENT_REFERENCE ( #656,'',( #840) ) ;
#812 =( NAMED_UNIT ( * ) SI_UNIT ( $, .STERADIAN. ) SOLID_ANGLE_UNIT ( ) );
#813 = PRODUCT_DEFINITION ( 'General', '', #124, #126 ) ;
#814 = CARTESIAN_POINT ( 'NONE',  ( 998.7576246828338071, 1196.955300122372591, 1284.762500940382324 ) ) ;
#815 =( NAMED_UNIT ( * ) SI_UNIT ( $, .STERADIAN. ) SOLID_ANGLE_UNIT ( ) );
#816 = CONTEXT_DEPENDENT_SHAPE_REPRESENTATION ( #565, #1 ) ;
#817 = AXIS2_PLACEMENT_3D ( 'NONE', #763, #622, #53 ) ;
#818 = DIRECTION ( 'NONE',  ( -0.02164655250597604177, 0.01537521603941443757, -0.9996474526033403141 ) ) ;
#819 = OBJECT_ROLE ('mandatory',$ ) ;
#820 = UNCERTAINTY_MEASURE_WITH_UNIT (LENGTH_MEASURE( 1.000000000000000082E-05 ), #718, 'distance_accuracy_value', 'NONE');
#821 = SHAPE_REPRESENTATION ( 'SG90 - Micro Servo 9g - Tower Pro.2_Pe\X2\00e7\X0\a', ( #643 ), #359 ) ;
#822 = APPLIED_EXTERNAL_IDENTIFICATION_ASSIGNMENT ( 'Canopy.STEP' , #248, #467,( #788) ) ;
#823 = APPLIED_DOCUMENT_REFERENCE ( #893,'',( #7) ) ;
#824 =( GEOMETRIC_REPRESENTATION_CONTEXT ( 3 ) GLOBAL_UNCERTAINTY_ASSIGNED_CONTEXT ( ( #750 ) ) GLOBAL_UNIT_ASSIGNED_CONTEXT ( ( #275, #215, #441 ) ) REPRESENTATION_CONTEXT ( 'NONE', 'WORKASPACE' ) );
#825 = PRODUCT_DEFINITION_SHAPE ( 'NONE', 'NONE',  #903 ) ;
#826 = EXTERNAL_SOURCE (IDENTIFIER('') ) ;
#827 = CARTESIAN_POINT ( 'NONE',  ( 612.0764062103812648, 1103.169307050377483, 1989.273480011679567 ) ) ;
#828 = PRODUCT_RELATED_PRODUCT_CATEGORY ( 'part', '', ( #427 ) ) ;
#829 = PROPERTY_DEFINITION_REPRESENTATION ( #148, #616 ) ;
#830 = UNCERTAINTY_MEASURE_WITH_UNIT (LENGTH_MEASURE( 1.000000000000000082E-05 ), #402, 'distance_accuracy_value', 'NONE');
#831 = CARTESIAN_POINT ( 'NONE',  ( 0.000000000000000000, 0.000000000000000000, 0.000000000000000000 ) ) ;
#832 = CARTESIAN_POINT ( 'NONE',  ( 1421.192361043369601, 1143.327345549310849, 2040.785999327431000 ) ) ;
#833 = PRODUCT_DEFINITION_SHAPE ( 'NONE', 'NONE',  #901 ) ;
#834 = CARTESIAN_POINT ( 'NONE',  ( 1385.527353245699487, 1142.302855626757264, 1828.325878581722918 ) ) ;
#835 = APPLIED_EXTERNAL_IDENTIFICATION_ASSIGNMENT ( 'Center Frame.STEP' , #857, #612,( #2) ) ;
#836 = APPLICATION_CONTEXT ( 'automotive_design' ) ;
#837 = PRODUCT_DEFINITION_SHAPE ( 'NONE', 'NONE',  #919 ) ;
#838 = PROPERTY_DEFINITION ('document property','', #290 ) ;
#839 = APPLIED_DOCUMENT_REFERENCE ( #761,'',( #739) ) ;
#840 = PRODUCT_DEFINITION ( 'General', '', #195, #407 ) ;
#841 =( NAMED_UNIT ( * ) SI_UNIT ( $, .STERADIAN. ) SOLID_ANGLE_UNIT ( ) );
#842 = PROPERTY_DEFINITION_REPRESENTATION ( #332, #686 ) ;
#843 = CARTESIAN_POINT ( 'NONE',  ( 1420.050280062420597, 1154.381888199510286, 1973.565497818760150 ) ) ;
#844 = DOCUMENT_TYPE ( 'geometry' ) ;
#845 = PROPERTY_DEFINITION ('document property','', #177 ) ;
#846 = CARTESIAN_POINT ( 'NONE',  ( 1015.710575169702679, 1142.881457710699351, 1083.478074844457979 ) ) ;
#847 = AXIS2_PLACEMENT_3D ( 'NONE', #694, #409, #198 ) ;
#848 = ROLE_ASSOCIATION ( #895, #391 ) ;
#849 =( GEOMETRIC_REPRESENTATION_CONTEXT ( 3 ) GLOBAL_UNCERTAINTY_ASSIGNED_CONTEXT ( ( #58 ) ) GLOBAL_UNIT_ASSIGNED_CONTEXT ( ( #262, #108, #113 ) ) REPRESENTATION_CONTEXT ( 'NONE', 'WORKASPACE' ) );
#850 =( REPRESENTATION_RELATIONSHIP ('NONE','NONE', #752, #162 ) REPRESENTATION_RELATIONSHIP_WITH_TRANSFORMATION ( #243 )SHAPE_REPRESENTATION_RELATIONSHIP( ) );
#851 = APPLICATION_PROTOCOL_DEFINITION ( 'draft international standard', 'automotive_design', 1998, #134 ) ;
#852 = APPLICATION_PROTOCOL_DEFINITION ( 'draft international standard', 'automotive_design', 1998, #191 ) ;
#853 = PRODUCT_RELATED_PRODUCT_CATEGORY ( 'part', '', ( #789 ) ) ;
#854 = PRODUCT_DEFINITION_SHAPE ( 'NONE', 'NONE',  #910 ) ;
#855 = PROPERTY_DEFINITION_REPRESENTATION ( #412, #593 ) ;
#856 = APPLICATION_PROTOCOL_DEFINITION ( 'draft international standard', 'automotive_design', 1998, #691 ) ;
#857 = IDENTIFICATION_ROLE ( 'external document id and location', $) ;
#858 = PROPERTY_DEFINITION ('document property','', #693 ) ;
#859 = SHAPE_DEFINITION_REPRESENTATION ( #218, #593 ) ;
#860 = APPLICATION_PROTOCOL_DEFINITION ( 'draft international standard', 'automotive_design', 1998, #891 ) ;
#861 = DIRECTION ( 'NONE',  ( 1.000000000000000000, 0.000000000000000000, 0.000000000000000000 ) ) ;
#862 = PROPERTY_DEFINITION ('external definition','', #319 ) ;
#863 = DOCUMENT_TYPE ( 'geometry' ) ;
#864 = PRODUCT ( 'Right Tail Flap', 'Right Tail Flap', '', ( #80 ) ) ;
#865 = APPLICATION_PROTOCOL_DEFINITION ( 'draft international standard', 'automotive_design', 1998, #527 ) ;
#866 = ROLE_ASSOCIATION ( #171, #432 ) ;
#867 = CARTESIAN_POINT ( 'NONE',  ( 0.000000000000000000, 0.000000000000000000, 0.000000000000000000 ) ) ;
#868 =( REPRESENTATION_RELATIONSHIP ('NONE','NONE', #752, #306 ) REPRESENTATION_RELATIONSHIP_WITH_TRANSFORMATION ( #74 )SHAPE_REPRESENTATION_RELATIONSHIP( ) );
#869 = PRODUCT_RELATED_PRODUCT_CATEGORY ( 'part', '', ( #79 ) ) ;
#870 = APPLIED_EXTERNAL_IDENTIFICATION_ASSIGNMENT ( 'APC 9x6.STEP' , #166, #422,( #434) ) ;
#871 = APPLICATION_PROTOCOL_DEFINITION ( 'draft international standard', 'automotive_design', 1998, #539 ) ;
#872 = PROPERTY_DEFINITION ('external definition','', #476 ) ;
#873 =( LENGTH_UNIT ( ) NAMED_UNIT ( * ) SI_UNIT ( .MILLI., .METRE. ) );
#874 = OBJECT_ROLE ('mandatory',$ ) ;
#875 = PRODUCT_DEFINITION_FORMATION_WITH_SPECIFIED_SOURCE ( 'Symmetric', '', #719, .NOT_KNOWN. ) ;
#876 = CONTEXT_DEPENDENT_SHAPE_REPRESENTATION ( #498, #837 ) ;
#877 = PRODUCT ( 'Canopy', 'Canopy', '', ( #509 ) ) ;
#878 = CONTEXT_DEPENDENT_SHAPE_REPRESENTATION ( #204, #825 ) ;
#879 = IDENTIFICATION_ROLE ( 'external document id and location', $) ;
#880 = CONTEXT_DEPENDENT_SHAPE_REPRESENTATION ( #408, #774 ) ;
#881 =( NAMED_UNIT ( * ) PLANE_ANGLE_UNIT ( ) SI_UNIT ( $, .RADIAN. ) );
#882 =( GEOMETRIC_REPRESENTATION_CONTEXT ( 3 ) GLOBAL_UNCERTAINTY_ASSIGNED_CONTEXT ( ( #553 ) ) GLOBAL_UNIT_ASSIGNED_CONTEXT ( ( #533, #889, #454 ) ) REPRESENTATION_CONTEXT ( 'NONE', 'WORKASPACE' ) );
#883 = PRODUCT_DEFINITION_SHAPE ( 'NONE', 'NONE',  #712 ) ;
#884 = IDENTIFICATION_ROLE ( 'external document id and location', $) ;
#885 = PRODUCT_RELATED_PRODUCT_CATEGORY ( 'part', '', ( #877 ) ) ;
#886 = PROPERTY_DEFINITION_REPRESENTATION ( #645, #220 ) ;
#887 = ROLE_ASSOCIATION ( #61, #807 ) ;
#888 = SHAPE_REPRESENTATION ( 'Right Flap', ( #636 ), #606 ) ;
#889 =( NAMED_UNIT ( * ) PLANE_ANGLE_UNIT ( ) SI_UNIT ( $, .RADIAN. ) );
#890 = DIRECTION ( 'NONE',  ( -0.02164655250597603484, 0.01537521603941443583, -0.9996474526033402030 ) ) ;
#891 = APPLICATION_CONTEXT ( 'automotive_design' ) ;
#892 = ITEM_DEFINED_TRANSFORMATION ( 'NONE', 'NONE', #448,  #155 ) ;
#893 = DOCUMENT_FILE ( 'Canopy Lock.STEP' , '', '', #651, '' ,$ ) ;
#894 = AXIS2_PLACEMENT_3D ( 'NONE', #747, #455, #589 ) ;
#895 = OBJECT_ROLE ('mandatory',$ ) ;
#896 = OBJECT_ROLE ('mandatory',$ ) ;
#897 = NEXT_ASSEMBLY_USAGE_OCCURRENCE ( 'NAUO24', ' ', ' ', #712, #7, $ ) ;
#898 = NEXT_ASSEMBLY_USAGE_OCCURRENCE ( 'NAUO25', ' ', ' ', #712, #473, $ ) ;
#899 = NEXT_ASSEMBLY_USAGE_OCCURRENCE ( 'NAUO26', ' ', ' ', #712, #805, $ ) ;
#900 = NEXT_ASSEMBLY_USAGE_OCCURRENCE ( 'NAUO27', ' ', ' ', #712, #700, $ ) ;
#901 = NEXT_ASSEMBLY_USAGE_OCCURRENCE ( 'NAUO28', ' ', ' ', #712, #20, $ ) ;
#902 = NEXT_ASSEMBLY_USAGE_OCCURRENCE ( 'NAUO29', ' ', ' ', #712, #512, $ ) ;
#903 = NEXT_ASSEMBLY_USAGE_OCCURRENCE ( 'NAUO30', ' ', ' ', #712, #149, $ ) ;
#904 = NEXT_ASSEMBLY_USAGE_OCCURRENCE ( 'NAUO31', ' ', ' ', #712, #840, $ ) ;
#905 = NEXT_ASSEMBLY_USAGE_OCCURRENCE ( 'NAUO32', ' ', ' ', #712, #739, $ ) ;
#906 = NEXT_ASSEMBLY_USAGE_OCCURRENCE ( 'NAUO33', ' ', ' ', #712, #123, $ ) ;
#907 = NEXT_ASSEMBLY_USAGE_OCCURRENCE ( 'NAUO34', ' ', ' ', #712, #813, $ ) ;
#908 = NEXT_ASSEMBLY_USAGE_OCCURRENCE ( 'NAUO35', ' ', ' ', #712, #457, $ ) ;
#909 = NEXT_ASSEMBLY_USAGE_OCCURRENCE ( 'NAUO36', ' ', ' ', #712, #123, $ ) ;
#910 = NEXT_ASSEMBLY_USAGE_OCCURRENCE ( 'NAUO37', ' ', ' ', #712, #123, $ ) ;
#911 = NEXT_ASSEMBLY_USAGE_OCCURRENCE ( 'NAUO38', ' ', ' ', #712, #7, $ ) ;
#912 = NEXT_ASSEMBLY_USAGE_OCCURRENCE ( 'NAUO39', ' ', ' ', #712, #304, $ ) ;
#913 = NEXT_ASSEMBLY_USAGE_OCCURRENCE ( 'NAUO40', ' ', ' ', #712, #805, $ ) ;
#914 = NEXT_ASSEMBLY_USAGE_OCCURRENCE ( 'NAUO41', ' ', ' ', #712, #304, $ ) ;
#915 = NEXT_ASSEMBLY_USAGE_OCCURRENCE ( 'NAUO42', ' ', ' ', #712, #805, $ ) ;
#916 = NEXT_ASSEMBLY_USAGE_OCCURRENCE ( 'NAUO43', ' ', ' ', #712, #779, $ ) ;
#917 = NEXT_ASSEMBLY_USAGE_OCCURRENCE ( 'NAUO44', ' ', ' ', #712, #739, $ ) ;
#918 = NEXT_ASSEMBLY_USAGE_OCCURRENCE ( 'NAUO45', ' ', ' ', #712, #416, $ ) ;
#919 = NEXT_ASSEMBLY_USAGE_OCCURRENCE ( 'NAUO46', ' ', ' ', #712, #31, $ ) ;
#920 = NEXT_ASSEMBLY_USAGE_OCCURRENCE ( 'NAUO47', ' ', ' ', #712, #779, $ ) ;
#921 = NEXT_ASSEMBLY_USAGE_OCCURRENCE ( 'NAUO48', ' ', ' ', #712, #199, $ ) ;
ENDSEC;
END-ISO-10303-21;
