ISO-10303-21;
HEADER;
FILE_DESCRIPTION (( 'STEP AP214' ),
    '1' );
FILE_NAME ('Canopy Lock.STEP',
    '2026-08-21T21:09:18',
    ( '' ),
    ( '' ),
    'SwSTEP 2.0',
    'SolidWorks 2026',
    '' );
FILE_SCHEMA (( 'AUTOMOTIVE_DESIGN' ));
ENDSEC;

DATA;
#1 = VERTEX_POINT ( 'NONE', #121 ) ;
#2 = CARTESIAN_POINT ( 'NONE',  ( -3.000000000000000000, 11.00000000000000178, 0.000000000000000000 ) ) ;
#3 = EDGE_CURVE ( 'NONE', #337, #218, #96, .T. ) ;
#4 = ORIENTED_EDGE ( 'NONE', *, *, #123, .T. ) ;
#5 = DIRECTION ( 'NONE',  ( 1.000000000000000000, 0.000000000000000000, -0.000000000000000000 ) ) ;
#6 = EDGE_LOOP ( 'NONE', ( #161, #91, #341, #140, #15, #128, #34, #57 ) ) ;
#7 = DIRECTION ( 'NONE',  ( -7.228014483236695816E-17, 1.000000000000000000, 0.000000000000000000 ) ) ;
#8 = ORIENTED_EDGE ( 'NONE', *, *, #29, .T. ) ;
#9 = VECTOR ( 'NONE', #154, 1000.000000000000000 ) ;
#10 = CARTESIAN_POINT ( 'NONE',  ( 3.000000000000000000, 3.000000000000000888, 10.00000000000000000 ) ) ;
#11 = PLANE ( 'NONE',  #130 ) ;
#12 = FACE_OUTER_BOUND ( 'NONE', #328, .T. ) ;
#13 = FACE_OUTER_BOUND ( 'NONE', #350, .T. ) ;
#14 = EDGE_CURVE ( 'NONE', #1, #44, #176, .T. ) ;
#15 = ORIENTED_EDGE ( 'NONE', *, *, #136, .T. ) ;
#16 = VECTOR ( 'NONE', #172, 1000.000000000000000 ) ;
#17 = SURFACE_STYLE_FILL_AREA ( #99 ) ;
#18 = DIRECTION ( 'NONE',  ( 0.000000000000000000, 0.000000000000000000, 1.000000000000000000 ) ) ;
#19 = CARTESIAN_POINT ( 'NONE',  ( -3.000000000000000000, 3.000000000000000888, 0.000000000000000000 ) ) ;
#20 = VECTOR ( 'NONE', #295, 1000.000000000000000 ) ;
#21 = EDGE_CURVE ( 'NONE', #83, #267, #43, .T. ) ;
#22 = DIRECTION ( 'NONE',  ( 1.000000000000000000, 0.000000000000000000, 0.000000000000000000 ) ) ;
#23 = DIRECTION ( 'NONE',  ( -0.000000000000000000, -0.000000000000000000, -1.000000000000000000 ) ) ;
#24 = VECTOR ( 'NONE', #241, 1000.000000000000000 ) ;
#25 = CARTESIAN_POINT ( 'NONE',  ( 6.000000000000000888, 3.000000000000000888, 14.00000000000000000 ) ) ;
#26 = ORIENTED_EDGE ( 'NONE', *, *, #29, .F. ) ;
#27 = DIRECTION ( 'NONE',  ( 0.000000000000000000, 1.000000000000000000, 0.000000000000000000 ) ) ;
#28 = VERTEX_POINT ( 'NONE', #152 ) ;
#29 = EDGE_CURVE ( 'NONE', #28, #119, #207, .T. ) ;
#30 = CARTESIAN_POINT ( 'NONE',  ( 6.000000000000000888, 3.000000000000000888, 14.00000000000000000 ) ) ;
#31 = VECTOR ( 'NONE', #231, 1000.000000000000000 ) ;
#32 = ORIENTED_EDGE ( 'NONE', *, *, #136, .F. ) ;
#33 = LINE ( 'NONE', #67, #16 ) ;
#34 = ORIENTED_EDGE ( 'NONE', *, *, #112, .T. ) ;
#35 = FACE_OUTER_BOUND ( 'NONE', #258, .T. ) ;
#36 = VERTEX_POINT ( 'NONE', #254 ) ;
#37 = MANIFOLD_SOLID_BREP ( 'Boss-Extrude2', #333 ) ;
#38 = DIRECTION ( 'NONE',  ( -1.000000000000000000, -7.228014483236695816E-17, 0.000000000000000000 ) ) ;
#39 = SURFACE_STYLE_USAGE ( .BOTH. , #177 ) ;
#40 = LINE ( 'NONE', #233, #289 ) ;
#41 = DIRECTION ( 'NONE',  ( -1.000000000000000000, -0.000000000000000000, -0.000000000000000000 ) ) ;
#42 = CARTESIAN_POINT ( 'NONE',  ( -3.000000000000000000, 3.000000000000000888, 0.000000000000000000 ) ) ;
#43 = LINE ( 'NONE', #280, #235 ) ;
#44 = VERTEX_POINT ( 'NONE', #344 ) ;
#45 = CARTESIAN_POINT ( 'NONE',  ( -3.000000000000000000, 3.000000000000000888, 10.00000000000000000 ) ) ;
#46 = VECTOR ( 'NONE', #133, 1000.000000000000000 ) ;
#47 = ADVANCED_FACE ( 'NONE', ( #200 ), #11, .F. ) ;
#48 = CARTESIAN_POINT ( 'NONE',  ( 3.000000000000000000, 11.00000000000000178, 0.000000000000000000 ) ) ;
#49 = CARTESIAN_POINT ( 'NONE',  ( 6.000000000000000888, 3.000000000000000888, 0.000000000000000000 ) ) ;
#50 = PLANE ( 'NONE',  #205 ) ;
#51 =( GEOMETRIC_REPRESENTATION_CONTEXT ( 3 ) GLOBAL_UNCERTAINTY_ASSIGNED_CONTEXT ( ( #279 ) ) GLOBAL_UNIT_ASSIGNED_CONTEXT ( ( #316, #155, #343 ) ) REPRESENTATION_CONTEXT ( 'NONE', 'WORKASPACE' ) );
#52 = ORIENTED_EDGE ( 'NONE', *, *, #98, .F. ) ;
#53 = DIRECTION ( 'NONE',  ( -0.000000000000000000, 0.7071067811865464625, 0.7071067811865486830 ) ) ;
#54 = ORIENTED_EDGE ( 'NONE', *, *, #283, .T. ) ;
#55 = EDGE_CURVE ( 'NONE', #108, #277, #232, .T. ) ;
#56 = CARTESIAN_POINT ( 'NONE',  ( -5.999999999999999112, -3.000000000000000000, 0.000000000000000000 ) ) ;
#57 = ORIENTED_EDGE ( 'NONE', *, *, #14, .F. ) ;
#58 = PLANE ( 'NONE',  #305 ) ;
#59 = AXIS2_PLACEMENT_3D ( 'NONE', #84, #223, #194 ) ;
#60 = ORIENTED_EDGE ( 'NONE', *, *, #318, .T. ) ;
#61 = ADVANCED_FACE ( 'NONE', ( #13 ), #50, .T. ) ;
#62 = LINE ( 'NONE', #92, #88 ) ;
#63 = ORIENTED_EDGE ( 'NONE', *, *, #21, .T. ) ;
#64 = DIRECTION ( 'NONE',  ( 0.000000000000000000, -0.000000000000000000, 1.000000000000000000 ) ) ;
#65 = UNCERTAINTY_MEASURE_WITH_UNIT (LENGTH_MEASURE( 1.000000000000000082E-05 ), #260, 'distance_accuracy_value', 'NONE');
#66 = DIRECTION ( 'NONE',  ( -1.000000000000000000, 0.000000000000000000, -0.000000000000000000 ) ) ;
#67 = CARTESIAN_POINT ( 'NONE',  ( 6.000000000000000888, 3.469446951953614189E-15, 14.00000000000000000 ) ) ;
#68 = VECTOR ( 'NONE', #27, 1000.000000000000000 ) ;
#69 = ORIENTED_EDGE ( 'NONE', *, *, #340, .T. ) ;
#70 = CARTESIAN_POINT ( 'NONE',  ( -5.999999999999999112, 3.000000000000000000, 0.000000000000000000 ) ) ;
#71 = ORIENTED_EDGE ( 'NONE', *, *, #226, .F. ) ;
#72 = PRODUCT_RELATED_PRODUCT_CATEGORY ( 'part', '', ( #143 ) ) ;
#73 = CARTESIAN_POINT ( 'NONE',  ( -5.999999999999999112, -3.000000000000000000, 10.99999999999998934 ) ) ;
#74 = VECTOR ( 'NONE', #197, 1000.000000000000000 ) ;
#75 = APPLICATION_PROTOCOL_DEFINITION ( 'draft international standard', 'automotive_design', 1998, #129 ) ;
#76 = VECTOR ( 'NONE', #107, 1000.000000000000000 ) ;
#77 = CARTESIAN_POINT ( 'NONE',  ( 6.000000000000000888, 3.000000000000000888, 14.00000000000000000 ) ) ;
#78 = CARTESIAN_POINT ( 'NONE',  ( 6.000000000000000888, -2.999999999999999112, 0.000000000000000000 ) ) ;
#79 = DIRECTION ( 'NONE',  ( 0.000000000000000000, -0.7071067811865464625, -0.7071067811865486830 ) ) ;
#80 = CARTESIAN_POINT ( 'NONE',  ( -3.000000000000000000, 11.00000000000000178, 0.000000000000000000 ) ) ;
#81 = VERTEX_POINT ( 'NONE', #30 ) ;
#82 = CARTESIAN_POINT ( 'NONE',  ( -3.000000000000000000, 3.000000000000000888, 0.000000000000000000 ) ) ;
#83 = VERTEX_POINT ( 'NONE', #132 ) ;
#84 = CARTESIAN_POINT ( 'NONE',  ( 6.000000000000000888, -2.999999999999999112, 14.00000000000000000 ) ) ;
#85 = EDGE_CURVE ( 'NONE', #267, #1, #349, .T. ) ;
#86 = EDGE_LOOP ( 'NONE', ( #307, #171, #224, #63 ) ) ;
#87 = FACE_OUTER_BOUND ( 'NONE', #126, .T. ) ;
#88 = VECTOR ( 'NONE', #310, 1000.000000000000000 ) ;
#89 = VERTEX_POINT ( 'NONE', #327 ) ;
#90 = DIRECTION ( 'NONE',  ( 1.000000000000000000, 0.000000000000000000, -0.000000000000000000 ) ) ;
#91 = ORIENTED_EDGE ( 'NONE', *, *, #213, .T. ) ;
#92 = CARTESIAN_POINT ( 'NONE',  ( -3.000000000000000000, 3.000000000000000888, 0.000000000000000000 ) ) ;
#93 = FILL_AREA_STYLE_COLOUR ( '', #156 ) ;
#94 = DIRECTION ( 'NONE',  ( 5.110978055611255139E-17, -0.7071067811865486830, 0.7071067811865464625 ) ) ;
#95 = VECTOR ( 'NONE', #79, 999.9999999999998863 ) ;
#96 = LINE ( 'NONE', #19, #109 ) ;
#97 = ORIENTED_EDGE ( 'NONE', *, *, #3, .F. ) ;
#98 = EDGE_CURVE ( 'NONE', #28, #277, #270, .T. ) ;
#99 = FILL_AREA_STYLE ('',( #93 ) ) ;
#100 = ADVANCED_BREP_SHAPE_REPRESENTATION ( 'Canopy Lock', ( #37, #118 ), #51 ) ;
#101 = DIRECTION ( 'NONE',  ( 0.000000000000000000, 0.000000000000000000, 1.000000000000000000 ) ) ;
#102 = PRODUCT_DEFINITION_FORMATION_WITH_SPECIFIED_SOURCE ( 'Symmetric', '', #143, .NOT_KNOWN. ) ;
#103 = CARTESIAN_POINT ( 'NONE',  ( 0.000000000000000000, 0.000000000000000000, 0.000000000000000000 ) ) ;
#104 = AXIS2_PLACEMENT_3D ( 'NONE', #338, #120, #312 ) ;
#105 = PLANE ( 'NONE',  #259 ) ;
#106 = CARTESIAN_POINT ( 'NONE',  ( -5.999999999999999112, 2.602085213965210642E-15, 14.00000000000000000 ) ) ;
#107 = DIRECTION ( 'NONE',  ( -0.000000000000000000, -0.000000000000000000, -1.000000000000000000 ) ) ;
#108 = VERTEX_POINT ( 'NONE', #56 ) ;
#109 = VECTOR ( 'NONE', #234, 1000.000000000000000 ) ;
#110 = LINE ( 'NONE', #157, #219 ) ;
#111 = ORIENTED_EDGE ( 'NONE', *, *, #185, .T. ) ;
#112 = EDGE_CURVE ( 'NONE', #89, #44, #266, .T. ) ;
#113 = DIRECTION ( 'NONE',  ( 0.000000000000000000, 1.000000000000000000, 0.000000000000000000 ) ) ;
#114 = ORIENTED_EDGE ( 'NONE', *, *, #292, .T. ) ;
#115 = CARTESIAN_POINT ( 'NONE',  ( 0.000000000000000000, 0.000000000000000000, 14.00000000000000000 ) ) ;
#116 = EDGE_LOOP ( 'NONE', ( #271, #173, #97, #304, #285, #269, #135, #195 ) ) ;
#117 = DIRECTION ( 'NONE',  ( -0.000000000000000000, -1.000000000000000000, -0.000000000000000000 ) ) ;
#118 = AXIS2_PLACEMENT_3D ( 'NONE', #103, #18, #210 ) ;
#119 = VERTEX_POINT ( 'NONE', #137 ) ;
#120 = DIRECTION ( 'NONE',  ( 1.000000000000000000, 0.000000000000000000, 0.000000000000000000 ) ) ;
#121 = CARTESIAN_POINT ( 'NONE',  ( -3.000000000000000000, 3.000000000000000888, 10.00000000000000000 ) ) ;
#122 = PLANE ( 'NONE',  #183 ) ;
#123 = EDGE_CURVE ( 'NONE', #81, #150, #139, .T. ) ;
#124 = CARTESIAN_POINT ( 'NONE',  ( 6.000000000000000888, -2.999999999999999112, 0.000000000000000000 ) ) ;
#125 = VECTOR ( 'NONE', #203, 1000.000000000000000 ) ;
#126 = EDGE_LOOP ( 'NONE', ( #60, #244, #69, #4 ) ) ;
#127 = EDGE_CURVE ( 'NONE', #282, #108, #324, .T. ) ;
#128 = ORIENTED_EDGE ( 'NONE', *, *, #182, .T. ) ;
#129 = APPLICATION_CONTEXT ( 'automotive_design' ) ;
#130 = AXIS2_PLACEMENT_3D ( 'NONE', #309, #179, #66 ) ;
#131 = ADVANCED_FACE ( 'NONE', ( #242 ), #105, .F. ) ;
#132 = CARTESIAN_POINT ( 'NONE',  ( 3.000000000000000000, 11.00000000000000178, 10.00000000000000000 ) ) ;
#133 = DIRECTION ( 'NONE',  ( 0.000000000000000000, 0.000000000000000000, 1.000000000000000000 ) ) ;
#134 = DIRECTION ( 'NONE',  ( -0.000000000000000000, -0.000000000000000000, -1.000000000000000000 ) ) ;
#135 = ORIENTED_EDGE ( 'NONE', *, *, #193, .F. ) ;
#136 = EDGE_CURVE ( 'NONE', #81, #246, #293, .T. ) ;
#137 = CARTESIAN_POINT ( 'NONE',  ( -5.999999999999999112, -3.000000000000000000, 10.99999999999998934 ) ) ;
#138 = ORIENTED_EDGE ( 'NONE', *, *, #21, .F. ) ;
#139 = LINE ( 'NONE', #25, #320 ) ;
#140 = ORIENTED_EDGE ( 'NONE', *, *, #123, .F. ) ;
#141 = FACE_OUTER_BOUND ( 'NONE', #164, .T. ) ;
#142 = ORIENTED_EDGE ( 'NONE', *, *, #175, .T. ) ;
#143 = PRODUCT ( 'Canopy Lock', 'Canopy Lock', '', ( #180 ) ) ;
#144 = CARTESIAN_POINT ( 'NONE',  ( -3.000000000000000000, 11.00000000000000178, 0.000000000000000000 ) ) ;
#145 = ORIENTED_EDGE ( 'NONE', *, *, #148, .T. ) ;
#146 = LINE ( 'NONE', #225, #74 ) ;
#147 = VERTEX_POINT ( 'NONE', #48 ) ;
#148 = EDGE_CURVE ( 'NONE', #89, #147, #110, .T. ) ;
#149 = CARTESIAN_POINT ( 'NONE',  ( -5.999999999999999112, -3.000000000000000000, 14.00000000000000000 ) ) ;
#150 = VERTEX_POINT ( 'NONE', #322 ) ;
#151 = CARTESIAN_POINT ( 'NONE',  ( 6.000000000000000888, -2.999999999999999112, 14.00000000000000000 ) ) ;
#152 = CARTESIAN_POINT ( 'NONE',  ( 6.000000000000000888, -2.999999999999999112, 10.99999999999998934 ) ) ;
#153 = EDGE_CURVE ( 'NONE', #150, #282, #215, .T. ) ;
#154 = DIRECTION ( 'NONE',  ( -1.000000000000000000, -7.228014483236695816E-17, -0.000000000000000000 ) ) ;
#155 =( NAMED_UNIT ( * ) PLANE_ANGLE_UNIT ( ) SI_UNIT ( $, .RADIAN. ) );
#156 = COLOUR_RGB ( '',0.7921568627450980005, 0.8196078431372548767, 0.9333333333333333481 ) ;
#157 = CARTESIAN_POINT ( 'NONE',  ( 3.000000000000000000, 3.000000000000000888, 0.000000000000000000 ) ) ;
#158 = EDGE_CURVE ( 'NONE', #337, #267, #264, .T. ) ;
#159 = LINE ( 'NONE', #162, #178 ) ;
#160 = CARTESIAN_POINT ( 'NONE',  ( 6.000000000000000888, -2.999999999999999112, 14.00000000000000000 ) ) ;
#161 = ORIENTED_EDGE ( 'NONE', *, *, #292, .F. ) ;
#162 = CARTESIAN_POINT ( 'NONE',  ( 3.000000000000000000, 11.00000000000000178, 0.000000000000000000 ) ) ;
#163 = CARTESIAN_POINT ( 'NONE',  ( 6.000000000000000888, 3.000000000000000888, 14.00000000000000000 ) ) ;
#164 = EDGE_LOOP ( 'NONE', ( #138, #330, #335, #332 ) ) ;
#165 = VECTOR ( 'NONE', #263, 1000.000000000000000 ) ;
#166 = CARTESIAN_POINT ( 'NONE',  ( 6.000000000000000888, -2.999999999999999112, 0.000000000000000000 ) ) ;
#167 = ORIENTED_EDGE ( 'NONE', *, *, #55, .T. ) ;
#168 = PLANE ( 'NONE',  #104 ) ;
#169 = ORIENTED_EDGE ( 'NONE', *, *, #193, .T. ) ;
#170 = CARTESIAN_POINT ( 'NONE',  ( -2.194256121534936390E-31, 3.035766082959412415E-15, 14.00000000000000000 ) ) ;
#171 = ORIENTED_EDGE ( 'NONE', *, *, #14, .T. ) ;
#172 = DIRECTION ( 'NONE',  ( 1.000000000000000000, 7.228014483236695816E-17, 0.000000000000000000 ) ) ;
#173 = ORIENTED_EDGE ( 'NONE', *, *, #213, .F. ) ;
#174 = FACE_OUTER_BOUND ( 'NONE', #256, .T. ) ;
#175 = EDGE_CURVE ( 'NONE', #119, #198, #300, .T. ) ;
#176 = LINE ( 'NONE', #45, #311 ) ;
#177 = SURFACE_SIDE_STYLE ('',( #17 ) ) ;
#178 = VECTOR ( 'NONE', #101, 1000.000000000000000 ) ;
#179 = DIRECTION ( 'NONE',  ( 0.000000000000000000, 0.000000000000000000, -1.000000000000000000 ) ) ;
#180 = PRODUCT_CONTEXT ( 'NONE', #129, 'mechanical' ) ;
#181 = DIRECTION ( 'NONE',  ( 0.000000000000000000, -0.000000000000000000, 1.000000000000000000 ) ) ;
#182 = EDGE_CURVE ( 'NONE', #246, #89, #319, .T. ) ;
#183 = AXIS2_PLACEMENT_3D ( 'NONE', #170, #94, #38 ) ;
#184 = DIRECTION ( 'NONE',  ( 0.000000000000000000, 0.000000000000000000, -1.000000000000000000 ) ) ;
#185 = EDGE_CURVE ( 'NONE', #147, #83, #159, .T. ) ;
#186 = DIRECTION ( 'NONE',  ( -0.000000000000000000, -1.000000000000000000, -0.000000000000000000 ) ) ;
#187 = LINE ( 'NONE', #351, #20 ) ;
#188 = AXIS2_PLACEMENT_3D ( 'NONE', #115, #64, #90 ) ;
#189 = CARTESIAN_POINT ( 'NONE',  ( -5.999999999999999112, 3.000000000000000000, 14.00000000000000000 ) ) ;
#190 = ORIENTED_EDGE ( 'NONE', *, *, #158, .F. ) ;
#191 = FACE_OUTER_BOUND ( 'NONE', #116, .T. ) ;
#192 = ORIENTED_EDGE ( 'NONE', *, *, #112, .F. ) ;
#193 = EDGE_CURVE ( 'NONE', #277, #246, #321, .T. ) ;
#194 = DIRECTION ( 'NONE',  ( 0.000000000000000000, 0.000000000000000000, 1.000000000000000000 ) ) ;
#195 = ORIENTED_EDGE ( 'NONE', *, *, #55, .F. ) ;
#196 = PRESENTATION_LAYER_ASSIGNMENT (  '', '', ( #352 ) ) ;
#197 = DIRECTION ( 'NONE',  ( -1.000000000000000000, -0.000000000000000000, -0.000000000000000000 ) ) ;
#198 = VERTEX_POINT ( 'NONE', #106 ) ;
#199 = CARTESIAN_POINT ( 'NONE',  ( 0.000000000000000000, 0.000000000000000000, 0.000000000000000000 ) ) ;
#200 = FACE_OUTER_BOUND ( 'NONE', #86, .T. ) ;
#201 = PLANE ( 'NONE',  #188 ) ;
#202 = EDGE_CURVE ( 'NONE', #36, #28, #212, .T. ) ;
#203 = DIRECTION ( 'NONE',  ( 1.000000000000000000, 7.228014483236695816E-17, -0.000000000000000000 ) ) ;
#204 = CARTESIAN_POINT ( 'NONE',  ( -3.000000000000000000, 11.00000000000000178, 10.00000000000000000 ) ) ;
#205 = AXIS2_PLACEMENT_3D ( 'NONE', #346, #22, #184 ) ;
#206 = ORIENTED_EDGE ( 'NONE', *, *, #3, .T. ) ;
#207 = LINE ( 'NONE', #73, #9 ) ;
#208 =( NAMED_UNIT ( * ) PLANE_ANGLE_UNIT ( ) SI_UNIT ( $, .RADIAN. ) );
#209 = VECTOR ( 'NONE', #298, 1000.000000000000000 ) ;
#210 = DIRECTION ( 'NONE',  ( 1.000000000000000000, 0.000000000000000000, 0.000000000000000000 ) ) ;
#211 = APPLICATION_PROTOCOL_DEFINITION ( 'draft international standard', 'automotive_design', 1998, #323 ) ;
#212 = LINE ( 'NONE', #216, #95 ) ;
#213 = EDGE_CURVE ( 'NONE', #218, #282, #187, .T. ) ;
#214 = AXIS2_PLACEMENT_3D ( 'NONE', #284, #7, #248 ) ;
#215 = LINE ( 'NONE', #189, #296 ) ;
#216 = CARTESIAN_POINT ( 'NONE',  ( 6.000000000000000888, 3.252606517456514091E-15, 14.00000000000000000 ) ) ;
#217 = DIRECTION ( 'NONE',  ( -1.000000000000000000, -7.228014483236695816E-17, 0.000000000000000000 ) ) ;
#218 = VERTEX_POINT ( 'NONE', #82 ) ;
#219 = VECTOR ( 'NONE', #245, 1000.000000000000000 ) ;
#220 = CARTESIAN_POINT ( 'NONE',  ( -5.999999999999999112, -3.000000000000000000, 0.000000000000000000 ) ) ;
#221 = ADVANCED_FACE ( 'NONE', ( #191 ), #278, .F. ) ;
#222 = ORIENTED_EDGE ( 'NONE', *, *, #175, .F. ) ;
#223 = DIRECTION ( 'NONE',  ( -1.000000000000000000, 0.000000000000000000, 0.000000000000000000 ) ) ;
#224 = ORIENTED_EDGE ( 'NONE', *, *, #226, .T. ) ;
#225 = CARTESIAN_POINT ( 'NONE',  ( -3.000000000000000000, 11.00000000000000178, 0.000000000000000000 ) ) ;
#226 = EDGE_CURVE ( 'NONE', #44, #83, #255, .T. ) ;
#227 = ORIENTED_EDGE ( 'NONE', *, *, #127, .T. ) ;
#228 = AXIS2_PLACEMENT_3D ( 'NONE', #42, #336, #329 ) ;
#229 = FACE_OUTER_BOUND ( 'NONE', #261, .T. ) ;
#230 = ORIENTED_EDGE ( 'NONE', *, *, #153, .T. ) ;
#231 = DIRECTION ( 'NONE',  ( -0.000000000000000000, -0.000000000000000000, -1.000000000000000000 ) ) ;
#232 = LINE ( 'NONE', #124, #125 ) ;
#233 = CARTESIAN_POINT ( 'NONE',  ( -5.999999999999999112, -3.000000000000000000, 14.00000000000000000 ) ) ;
#234 = DIRECTION ( 'NONE',  ( -0.000000000000000000, -1.000000000000000000, -0.000000000000000000 ) ) ;
#235 = VECTOR ( 'NONE', #41, 1000.000000000000000 ) ;
#236 = PRODUCT_DEFINITION ( 'General', '', #102, #251 ) ;
#237 = ORIENTED_EDGE ( 'NONE', *, *, #98, .T. ) ;
#238 = ADVANCED_FACE ( 'NONE', ( #274 ), #168, .F. ) ;
#239 = DIRECTION ( 'NONE',  ( 7.228014483236695816E-17, -1.000000000000000000, 0.000000000000000000 ) ) ;
#240 = VECTOR ( 'NONE', #23, 1000.000000000000000 ) ;
#241 = DIRECTION ( 'NONE',  ( -1.000000000000000000, -7.228014483236695816E-17, 0.000000000000000000 ) ) ;
#242 = FACE_OUTER_BOUND ( 'NONE', #6, .T. ) ;
#243 = DIRECTION ( 'NONE',  ( 1.000000000000000000, 7.228014483236695816E-17, 0.000000000000000000 ) ) ;
#244 = ORIENTED_EDGE ( 'NONE', *, *, #301, .T. ) ;
#245 = DIRECTION ( 'NONE',  ( 0.000000000000000000, 1.000000000000000000, 0.000000000000000000 ) ) ;
#246 = VERTEX_POINT ( 'NONE', #331 ) ;
#247 = ADVANCED_FACE ( 'NONE', ( #87 ), #201, .T. ) ;
#248 = DIRECTION ( 'NONE',  ( -1.000000000000000000, -7.228014483236695816E-17, 0.000000000000000000 ) ) ;
#249 = ORIENTED_EDGE ( 'NONE', *, *, #202, .F. ) ;
#250 = DIRECTION ( 'NONE',  ( 0.000000000000000000, 1.000000000000000000, 0.000000000000000000 ) ) ;
#251 = PRODUCT_DEFINITION_CONTEXT ( 'detailed design', #323, 'design' ) ;
#252 = ORIENTED_EDGE ( 'NONE', *, *, #301, .F. ) ;
#253 = DIRECTION ( 'NONE',  ( 0.000000000000000000, -0.000000000000000000, 1.000000000000000000 ) ) ;
#254 = CARTESIAN_POINT ( 'NONE',  ( 6.000000000000000888, 3.469446951953614189E-15, 14.00000000000000000 ) ) ;
#255 = LINE ( 'NONE', #10, #339 ) ;
#256 = EDGE_LOOP ( 'NONE', ( #222, #26, #249, #252 ) ) ;
#257 = ADVANCED_FACE ( 'NONE', ( #174 ), #122, .T. ) ;
#258 = EDGE_LOOP ( 'NONE', ( #275, #297, #237, #169, #32 ) ) ;
#259 = AXIS2_PLACEMENT_3D ( 'NONE', #77, #239, #243 ) ;
#260 =( LENGTH_UNIT ( ) NAMED_UNIT ( * ) SI_UNIT ( .MILLI., .METRE. ) );
#261 = EDGE_LOOP ( 'NONE', ( #52, #8, #54, #167 ) ) ;
#262 =( GEOMETRIC_REPRESENTATION_CONTEXT ( 3 ) GLOBAL_UNCERTAINTY_ASSIGNED_CONTEXT ( ( #65 ) ) GLOBAL_UNIT_ASSIGNED_CONTEXT ( ( #260, #208, #290 ) ) REPRESENTATION_CONTEXT ( 'NONE', 'WORKASPACE' ) );
#263 = DIRECTION ( 'NONE',  ( -0.000000000000000000, -1.000000000000000000, -0.000000000000000000 ) ) ;
#264 = LINE ( 'NONE', #80, #209 ) ;
#265 = VECTOR ( 'NONE', #113, 1000.000000000000000 ) ;
#266 = LINE ( 'NONE', #268, #46 ) ;
#267 = VERTEX_POINT ( 'NONE', #204 ) ;
#268 = CARTESIAN_POINT ( 'NONE',  ( 3.000000000000000000, 3.000000000000000888, 0.000000000000000000 ) ) ;
#269 = ORIENTED_EDGE ( 'NONE', *, *, #182, .F. ) ;
#270 = LINE ( 'NONE', #160, #76 ) ;
#271 = ORIENTED_EDGE ( 'NONE', *, *, #127, .F. ) ;
#272 = EDGE_CURVE ( 'NONE', #147, #337, #146, .T. ) ;
#273 = MECHANICAL_DESIGN_GEOMETRIC_PRESENTATION_REPRESENTATION (  '', ( #352 ), #262 ) ;
#274 = FACE_OUTER_BOUND ( 'NONE', #313, .T. ) ;
#275 = ORIENTED_EDGE ( 'NONE', *, *, #340, .F. ) ;
#276 = LINE ( 'NONE', #151, #265 ) ;
#277 = VERTEX_POINT ( 'NONE', #166 ) ;
#278 = PLANE ( 'NONE',  #291 ) ;
#279 = UNCERTAINTY_MEASURE_WITH_UNIT (LENGTH_MEASURE( 1.000000000000000082E-05 ), #316, 'distance_accuracy_value', 'NONE');
#280 = CARTESIAN_POINT ( 'NONE',  ( -3.000000000000000000, 11.00000000000000178, 10.00000000000000000 ) ) ;
#281 = PLANE ( 'NONE',  #214 ) ;
#282 = VERTEX_POINT ( 'NONE', #70 ) ;
#283 = EDGE_CURVE ( 'NONE', #119, #108, #306, .T. ) ;
#284 = CARTESIAN_POINT ( 'NONE',  ( 6.000000000000000888, -2.999999999999999112, 14.00000000000000000 ) ) ;
#285 = ORIENTED_EDGE ( 'NONE', *, *, #148, .F. ) ;
#286 = PRODUCT_DEFINITION_SHAPE ( 'NONE', 'NONE',  #236 ) ;
#287 = PRESENTATION_STYLE_ASSIGNMENT (( #39 ) ) ;
#288 = ADVANCED_FACE ( 'NONE', ( #12 ), #334, .T. ) ;
#289 = VECTOR ( 'NONE', #117, 1000.000000000000000 ) ;
#290 =( NAMED_UNIT ( * ) SI_UNIT ( $, .STERADIAN. ) SOLID_ANGLE_UNIT ( ) );
#291 = AXIS2_PLACEMENT_3D ( 'NONE', #199, #253, #5 ) ;
#292 = EDGE_CURVE ( 'NONE', #218, #1, #62, .T. ) ;
#293 = LINE ( 'NONE', #163, #240 ) ;
#294 = CARTESIAN_POINT ( 'NONE',  ( -5.999999999999999112, 2.818925648462310740E-15, 14.00000000000000000 ) ) ;
#295 = DIRECTION ( 'NONE',  ( -1.000000000000000000, -7.228014483236695816E-17, 0.000000000000000000 ) ) ;
#296 = VECTOR ( 'NONE', #134, 1000.000000000000000 ) ;
#297 = ORIENTED_EDGE ( 'NONE', *, *, #202, .T. ) ;
#298 = DIRECTION ( 'NONE',  ( 0.000000000000000000, 0.000000000000000000, 1.000000000000000000 ) ) ;
#299 = ORIENTED_EDGE ( 'NONE', *, *, #318, .F. ) ;
#300 = LINE ( 'NONE', #294, #325 ) ;
#301 = EDGE_CURVE ( 'NONE', #198, #36, #33, .T. ) ;
#302 = ORIENTED_EDGE ( 'NONE', *, *, #283, .F. ) ;
#303 = PLANE ( 'NONE',  #59 ) ;
#304 = ORIENTED_EDGE ( 'NONE', *, *, #272, .F. ) ;
#305 = AXIS2_PLACEMENT_3D ( 'NONE', #144, #250, #181 ) ;
#306 = LINE ( 'NONE', #149, #31 ) ;
#307 = ORIENTED_EDGE ( 'NONE', *, *, #85, .T. ) ;
#308 = DIRECTION ( 'NONE',  ( 0.000000000000000000, 1.000000000000000000, 0.000000000000000000 ) ) ;
#309 = CARTESIAN_POINT ( 'NONE',  ( 0.000000000000000000, 0.000000000000000000, 10.00000000000000000 ) ) ;
#310 = DIRECTION ( 'NONE',  ( 0.000000000000000000, 0.000000000000000000, 1.000000000000000000 ) ) ;
#311 = VECTOR ( 'NONE', #315, 1000.000000000000000 ) ;
#312 = DIRECTION ( 'NONE',  ( 0.000000000000000000, 0.000000000000000000, -1.000000000000000000 ) ) ;
#313 = EDGE_LOOP ( 'NONE', ( #302, #142, #299, #230, #227 ) ) ;
#314 = ADVANCED_FACE ( 'NONE', ( #229 ), #281, .F. ) ;
#315 = DIRECTION ( 'NONE',  ( 1.000000000000000000, 0.000000000000000000, 0.000000000000000000 ) ) ;
#316 =( LENGTH_UNIT ( ) NAMED_UNIT ( * ) SI_UNIT ( .MILLI., .METRE. ) );
#317 = VECTOR ( 'NONE', #186, 1000.000000000000000 ) ;
#318 = EDGE_CURVE ( 'NONE', #150, #198, #40, .T. ) ;
#319 = LINE ( 'NONE', #49, #24 ) ;
#320 = VECTOR ( 'NONE', #217, 1000.000000000000000 ) ;
#321 = LINE ( 'NONE', #78, #68 ) ;
#322 = CARTESIAN_POINT ( 'NONE',  ( -5.999999999999999112, 3.000000000000000000, 14.00000000000000000 ) ) ;
#323 = APPLICATION_CONTEXT ( 'automotive_design' ) ;
#324 = LINE ( 'NONE', #220, #165 ) ;
#325 = VECTOR ( 'NONE', #53, 999.9999999999998863 ) ;
#326 = ORIENTED_EDGE ( 'NONE', *, *, #85, .F. ) ;
#327 = CARTESIAN_POINT ( 'NONE',  ( 3.000000000000000000, 3.000000000000000888, 0.000000000000000000 ) ) ;
#328 = EDGE_LOOP ( 'NONE', ( #326, #190, #206, #114 ) ) ;
#329 = DIRECTION ( 'NONE',  ( 0.000000000000000000, 0.000000000000000000, 1.000000000000000000 ) ) ;
#330 = ORIENTED_EDGE ( 'NONE', *, *, #185, .F. ) ;
#331 = CARTESIAN_POINT ( 'NONE',  ( 6.000000000000000888, 3.000000000000000888, 0.000000000000000000 ) ) ;
#332 = ORIENTED_EDGE ( 'NONE', *, *, #158, .T. ) ;
#333 = CLOSED_SHELL ( 'NONE', ( #131, #238, #314, #345, #247, #221, #257, #288, #347, #61, #47 ) ) ;
#334 = PLANE ( 'NONE',  #228 ) ;
#335 = ORIENTED_EDGE ( 'NONE', *, *, #272, .T. ) ;
#336 = DIRECTION ( 'NONE',  ( -1.000000000000000000, 0.000000000000000000, 0.000000000000000000 ) ) ;
#337 = VERTEX_POINT ( 'NONE', #2 ) ;
#338 = CARTESIAN_POINT ( 'NONE',  ( -5.999999999999999112, -3.000000000000000000, 14.00000000000000000 ) ) ;
#339 = VECTOR ( 'NONE', #308, 1000.000000000000000 ) ;
#340 = EDGE_CURVE ( 'NONE', #36, #81, #276, .T. ) ;
#341 = ORIENTED_EDGE ( 'NONE', *, *, #153, .F. ) ;
#342 = SHAPE_DEFINITION_REPRESENTATION ( #286, #100 ) ;
#343 =( NAMED_UNIT ( * ) SI_UNIT ( $, .STERADIAN. ) SOLID_ANGLE_UNIT ( ) );
#344 = CARTESIAN_POINT ( 'NONE',  ( 3.000000000000000000, 3.000000000000000888, 10.00000000000000000 ) ) ;
#345 = ADVANCED_FACE ( 'NONE', ( #35 ), #303, .F. ) ;
#346 = CARTESIAN_POINT ( 'NONE',  ( 3.000000000000000000, 3.000000000000000888, 0.000000000000000000 ) ) ;
#347 = ADVANCED_FACE ( 'NONE', ( #141 ), #58, .T. ) ;
#348 = CARTESIAN_POINT ( 'NONE',  ( -3.000000000000000000, 3.000000000000000888, 10.00000000000000000 ) ) ;
#349 = LINE ( 'NONE', #348, #317 ) ;
#350 = EDGE_LOOP ( 'NONE', ( #71, #192, #145, #111 ) ) ;
#351 = CARTESIAN_POINT ( 'NONE',  ( 6.000000000000000888, 3.000000000000000888, 0.000000000000000000 ) ) ;
#352 = STYLED_ITEM ( 'NONE', ( #287 ), #37 ) ;
ENDSEC;
END-ISO-10303-21;
