ISO-10303-21;
HEADER;
FILE_DESCRIPTION (( 'STEP AP214' ),
    '1' );
FILE_NAME ('Canopy.STEP',
    '2026-08-22T18:37:21',
    ( '' ),
    ( '' ),
    'SwSTEP 2.0',
    'SolidWorks 2026',
    '' );
FILE_SCHEMA (( 'AUTOMOTIVE_DESIGN' ));
ENDSEC;

DATA;
#1 = ADVANCED_FACE ( 'NONE', ( #1241 ), #473, .T. ) ;
#2 = ORIENTED_EDGE ( 'NONE', *, *, #168, .F. ) ;
#3 = ORIENTED_EDGE ( 'NONE', *, *, #377, .F. ) ;
#4 = DIRECTION ( 'NONE',  ( 1.000000000000000000, 0.000000000000000000, 0.000000000000000000 ) ) ;
#5 = DIRECTION ( 'NONE',  ( 9.912705577010325549E-17, 0.000000000000000000, 1.000000000000000000 ) ) ;
#6 = CARTESIAN_POINT ( 'NONE',  ( 7.000000000000000000, 56.17753259136854638, 117.7022324300350817 ) ) ;
#7 = ADVANCED_FACE ( 'NONE', ( #866 ), #858, .F. ) ;
#8 = CARTESIAN_POINT ( 'NONE',  ( 0.000000000000000000, 0.000000000000000000, 0.000000000000000000 ) ) ;
#9 = ORIENTED_EDGE ( 'NONE', *, *, #955, .F. ) ;
#10 = CARTESIAN_POINT ( 'NONE',  ( 12.00000000000000178, 48.94132020700916286, 478.0000000000001137 ) ) ;
#11 = VECTOR ( 'NONE', #814, 1000.000000000000000 ) ;
#12 = CARTESIAN_POINT ( 'NONE',  ( 9.999999999999998224, 46.17753259136855348, 117.7022324300350817 ) ) ;
#13 = CIRCLE ( 'NONE', #967, 100.0000000000000000 ) ;
#14 = LINE ( 'NONE', #707, #37 ) ;
#15 = DIRECTION ( 'NONE',  ( 1.000000000000000000, 0.000000000000000000, -0.000000000000000000 ) ) ;
#16 = ADVANCED_FACE ( 'NONE', ( #371 ), #968, .F. ) ;
#17 = ORIENTED_EDGE ( 'NONE', *, *, #32, .F. ) ;
#18 = DIRECTION ( 'NONE',  ( 0.000000000000000000, -0.000000000000000000, -1.000000000000000000 ) ) ;
#19 = EDGE_CURVE ( 'NONE', #280, #714, #359, .T. ) ;
#20 = LINE ( 'NONE', #411, #390 ) ;
#21 = DIRECTION ( 'NONE',  ( 3.469446951953616161E-16, -1.000000000000000000, 0.000000000000000000 ) ) ;
#22 = ORIENTED_EDGE ( 'NONE', *, *, #1053, .F. ) ;
#23 = DIRECTION ( 'NONE',  ( 3.469446951953616161E-16, 1.000000000000000000, 0.000000000000000000 ) ) ;
#24 = ORIENTED_EDGE ( 'NONE', *, *, #864, .T. ) ;
#25 = CARTESIAN_POINT ( 'NONE',  ( -7.000000000000000000, 56.17753259136854638, 133.7022324300350817 ) ) ;
#26 = EDGE_CURVE ( 'NONE', #1211, #609, #492, .T. ) ;
#27 = DIRECTION ( 'NONE',  ( -0.000000000000000000, -0.000000000000000000, -1.000000000000000000 ) ) ;
#28 = ORIENTED_EDGE ( 'NONE', *, *, #825, .F. ) ;
#29 = FACE_OUTER_BOUND ( 'NONE', #551, .T. ) ;
#30 = CARTESIAN_POINT ( 'NONE',  ( 60.00002500000004346, 36.57878888070658974, 117.7022324300350675 ) ) ;
#31 = AXIS2_PLACEMENT_3D ( 'NONE', #610, #309, #216 ) ;
#32 = EDGE_CURVE ( 'NONE', #851, #708, #1191, .T. ) ;
#33 = ADVANCED_FACE ( 'NONE', ( #768 ), #288, .F. ) ;
#34 = FILL_AREA_STYLE ('',( #905 ) ) ;
#35 = ORIENTED_EDGE ( 'NONE', *, *, #78, .T. ) ;
#36 = CARTESIAN_POINT ( 'NONE',  ( -6.938893903907228378E-15, -41.14378277661475636, 117.7022324300350817 ) ) ;
#37 = VECTOR ( 'NONE', #1105, 1000.000000000000000 ) ;
#38 = VERTEX_POINT ( 'NONE', #754 ) ;
#39 = DIRECTION ( 'NONE',  ( 2.168404344971008868E-16, -1.000000000000000000, 0.000000000000000000 ) ) ;
#40 = CARTESIAN_POINT ( 'NONE',  ( 60.00000000000001421, 36.57878888070658974, 117.7022324300350817 ) ) ;
#41 = EDGE_CURVE ( 'NONE', #159, #455, #845, .T. ) ;
#42 = ORIENTED_EDGE ( 'NONE', *, *, #215, .F. ) ;
#43 = DIRECTION ( 'NONE',  ( -1.000000000000000000, 0.000000000000000000, 0.000000000000000000 ) ) ;
#44 = ORIENTED_EDGE ( 'NONE', *, *, #902, .F. ) ;
#45 = FACE_OUTER_BOUND ( 'NONE', #235, .T. ) ;
#46 = CARTESIAN_POINT ( 'NONE',  ( 114.0134879544802118, 123.1757978108904155, 397.7022324300351102 ) ) ;
#47 = ORIENTED_EDGE ( 'NONE', *, *, #630, .T. ) ;
#48 = PLANE ( 'NONE',  #539 ) ;
#49 = EDGE_CURVE ( 'NONE', #1217, #100, #364, .T. ) ;
#50 = CARTESIAN_POINT ( 'NONE',  ( -59.99999999999995737, 58.85624222338523737, 397.7022324300351102 ) ) ;
#51 = VECTOR ( 'NONE', #1210, 1000.000000000000000 ) ;
#52 =( NAMED_UNIT ( * ) SI_UNIT ( $, .STERADIAN. ) SOLID_ANGLE_UNIT ( ) );
#53 = ORIENTED_EDGE ( 'NONE', *, *, #215, .T. ) ;
#54 = FACE_OUTER_BOUND ( 'NONE', #643, .T. ) ;
#55 = EDGE_CURVE ( 'NONE', #159, #775, #959, .T. ) ;
#56 = VERTEX_POINT ( 'NONE', #1056 ) ;
#57 = CARTESIAN_POINT ( 'NONE',  ( 0.000000000000000000, 52.17753259136855348, 157.7022324300350817 ) ) ;
#58 = ORIENTED_EDGE ( 'NONE', *, *, #853, .F. ) ;
#59 = LINE ( 'NONE', #256, #520 ) ;
#60 = ORIENTED_EDGE ( 'NONE', *, *, #955, .T. ) ;
#61 = CARTESIAN_POINT ( 'NONE',  ( 114.0134879544802118, 123.1757978108904155, -97.29776756996535880 ) ) ;
#62 = EDGE_CURVE ( 'NONE', #733, #1113, #953, .T. ) ;
#63 = ORIENTED_EDGE ( 'NONE', *, *, #785, .T. ) ;
#64 = DIRECTION ( 'NONE',  ( 1.000000000000000000, 0.000000000000000000, 0.000000000000000000 ) ) ;
#65 = ORIENTED_EDGE ( 'NONE', *, *, #344, .T. ) ;
#66 = PLANE ( 'NONE',  #597 ) ;
#67 = B_SPLINE_CURVE_WITH_KNOTS ( 'NONE', 3,
 ( #1016, #626, #1196, #618 ),
 .UNSPECIFIED., .F., .F.,
 ( 4, 4 ),
 ( 0.3744504588815368851, 0.8290681931507813962 ),
 .UNSPECIFIED. ) ;
#68 = CIRCLE ( 'NONE', #327, 4.000000000000005329 ) ;
#69 = VECTOR ( 'NONE', #550, 1000.000000000000000 ) ;
#70 = UNCERTAINTY_MEASURE_WITH_UNIT (LENGTH_MEASURE( 1.000000000000000082E-05 ), #688, 'distance_accuracy_value', 'NONE');
#71 = ORIENTED_EDGE ( 'NONE', *, *, #394, .F. ) ;
#72 = DIRECTION ( 'NONE',  ( 1.000000000000000000, 0.000000000000000000, 0.000000000000000000 ) ) ;
#73 =( GEOMETRIC_REPRESENTATION_CONTEXT ( 3 ) GLOBAL_UNCERTAINTY_ASSIGNED_CONTEXT ( ( #70 ) ) GLOBAL_UNIT_ASSIGNED_CONTEXT ( ( #688, #1169, #379 ) ) REPRESENTATION_CONTEXT ( 'NONE', 'WORKASPACE' ) );
#74 = ORIENTED_EDGE ( 'NONE', *, *, #1137, .F. ) ;
#75 = DIRECTION ( 'NONE',  ( -0.000000000000000000, 0.000000000000000000, 1.000000000000000000 ) ) ;
#76 = VECTOR ( 'NONE', #872, 1000.000000000000000 ) ;
#77 = VERTEX_POINT ( 'NONE', #1198 ) ;
#78 = EDGE_CURVE ( 'NONE', #154, #464, #445, .T. ) ;
#79 = DIRECTION ( 'NONE',  ( 2.168404344971008868E-16, -1.000000000000000000, 0.000000000000000000 ) ) ;
#80 = ORIENTED_EDGE ( 'NONE', *, *, #1082, .F. ) ;
#81 = FACE_OUTER_BOUND ( 'NONE', #384, .T. ) ;
#82 = FACE_OUTER_BOUND ( 'NONE', #931, .T. ) ;
#83 = VERTEX_POINT ( 'NONE', #1004 ) ;
#84 = CARTESIAN_POINT ( 'NONE',  ( 7.703719777548943412E-31, -48.32121111929345147, 117.7022324300350817 ) ) ;
#85 = EDGE_LOOP ( 'NONE', ( #298, #544, #58, #810 ) ) ;
#86 = CARTESIAN_POINT ( 'NONE',  ( 0.000000000000000000, 52.17753259136855348, 157.7022324300350817 ) ) ;
#87 = ADVANCED_FACE ( 'NONE', ( #890 ), #608, .T. ) ;
#88 = AXIS2_PLACEMENT_3D ( 'NONE', #686, #1087, #581 ) ;
#89 = CARTESIAN_POINT ( 'NONE',  ( -12.24489795918367463, 50.92626982591332307, 478.0000000000001137 ) ) ;
#90 = DIRECTION ( 'NONE',  ( 0.000000000000000000, 0.000000000000000000, -1.000000000000000000 ) ) ;
#91 = APPLICATION_CONTEXT ( 'automotive_design' ) ;
#92 = VECTOR ( 'NONE', #282, 1000.000000000000000 ) ;
#93 = VECTOR ( 'NONE', #1246, 1000.000000000000000 ) ;
#94 = ORIENTED_EDGE ( 'NONE', *, *, #1155, .T. ) ;
#95 = DIRECTION ( 'NONE',  ( -0.000000000000000000, -0.000000000000000000, -1.000000000000000000 ) ) ;
#96 = PLANE ( 'NONE',  #459 ) ;
#97 = VECTOR ( 'NONE', #273, 1000.000000000000000 ) ;
#98 = CARTESIAN_POINT ( 'NONE',  ( -3.999999999999999112, 56.17753259136854638, 381.7022324300351102 ) ) ;
#99 = DIRECTION ( 'NONE',  ( -6.675472788130498728E-16, 1.000000000000000000, 0.000000000000000000 ) ) ;
#100 = VERTEX_POINT ( 'NONE', #40 ) ;
#101 = CARTESIAN_POINT ( 'NONE',  ( 4.000000000000006217, 52.17753259136855348, 381.7022324300351102 ) ) ;
#102 = PRODUCT ( 'Canopy', 'Canopy', '', ( #1199 ) ) ;
#103 = CARTESIAN_POINT ( 'NONE',  ( -59.99999999999998579, 58.85624222338523737, 117.7022324300350817 ) ) ;
#104 = ORIENTED_EDGE ( 'NONE', *, *, #454, .F. ) ;
#105 = EDGE_LOOP ( 'NONE', ( #177, #648, #745, #28 ) ) ;
#106 = CARTESIAN_POINT ( 'NONE',  ( -3.999999999999999112, 56.17753259136854638, 381.7022324300351102 ) ) ;
#107 = DIRECTION ( 'NONE',  ( 1.000000000000000000, 0.000000000000000000, 0.000000000000000000 ) ) ;
#108 = CARTESIAN_POINT ( 'NONE',  ( -114.0134879544802118, 123.1757978108904155, 528.0980032713840728 ) ) ;
#109 = CARTESIAN_POINT ( 'NONE',  ( 12.24489795918367641, 50.92626982591330886, 117.7022324300350817 ) ) ;
#110 = EDGE_CURVE ( 'NONE', #738, #139, #320, .T. ) ;
#111 = VERTEX_POINT ( 'NONE', #1083 ) ;
#112 = CARTESIAN_POINT ( 'NONE',  ( 0.000000000000000000, 48.17753259136854638, 133.7022324300350817 ) ) ;
#113 = VECTOR ( 'NONE', #921, 1000.000000000000000 ) ;
#114 = CARTESIAN_POINT ( 'NONE',  ( -52.83928462801132042, 36.57878888070658974, 117.7022324300350817 ) ) ;
#115 = CARTESIAN_POINT ( 'NONE',  ( -4.000000000000000000, 58.77618519775963080, 381.7022324300351102 ) ) ;
#116 = AXIS2_PLACEMENT_3D ( 'NONE', #718, #314, #700 ) ;
#117 = ORIENTED_EDGE ( 'NONE', *, *, #305, .F. ) ;
#118 = LINE ( 'NONE', #907, #51 ) ;
#119 = ORIENTED_EDGE ( 'NONE', *, *, #254, .F. ) ;
#120 = LINE ( 'NONE', #200, #92 ) ;
#121 = DIRECTION ( 'NONE',  ( -1.000000000000000000, 0.000000000000000000, 0.000000000000000000 ) ) ;
#122 = ORIENTED_EDGE ( 'NONE', *, *, #964, .T. ) ;
#123 = LINE ( 'NONE', #919, #169 ) ;
#124 = EDGE_CURVE ( 'NONE', #111, #572, #615, .T. ) ;
#125 = DIRECTION ( 'NONE',  ( -0.000000000000000000, -0.000000000000000000, 1.000000000000000000 ) ) ;
#126 = ADVANCED_FACE ( 'NONE', ( #807 ), #306, .T. ) ;
#127 = CARTESIAN_POINT ( 'NONE',  ( -11.99999999999999822, 48.94132020700916286, 117.7022324300350817 ) ) ;
#128 = ORIENTED_EDGE ( 'NONE', *, *, #693, .F. ) ;
#129 = CARTESIAN_POINT ( 'NONE',  ( -3.999999999999999112, 56.17753259136854638, 117.7022324300350817 ) ) ;
#130 = VECTOR ( 'NONE', #1081, 1000.000000000000000 ) ;
#131 = ORIENTED_EDGE ( 'NONE', *, *, #1012, .T. ) ;
#132 = ADVANCED_FACE ( 'NONE', ( #1099 ), #1193, .T. ) ;
#133 = FACE_OUTER_BOUND ( 'NONE', #452, .T. ) ;
#134 = VECTOR ( 'NONE', #1059, 1000.000000000000000 ) ;
#135 = ADVANCED_FACE ( 'NONE', ( #1188 ), #885, .F. ) ;
#136 = EDGE_CURVE ( 'NONE', #1036, #912, #213, .T. ) ;
#137 = CIRCLE ( 'NONE', #1005, 100.0000000000000000 ) ;
#138 = CARTESIAN_POINT ( 'NONE',  ( 114.0134879544802118, 123.1757978108904155, 117.7022324300350817 ) ) ;
#139 = VERTEX_POINT ( 'NONE', #1179 ) ;
#140 = DIRECTION ( 'NONE',  ( 0.000000000000000000, -0.000000000000000000, -1.000000000000000000 ) ) ;
#141 = ORIENTED_EDGE ( 'NONE', *, *, #878, .F. ) ;
#142 = PLANE ( 'NONE',  #414 ) ;
#143 = ORIENTED_EDGE ( 'NONE', *, *, #1111, .F. ) ;
#144 = CARTESIAN_POINT ( 'NONE',  ( 12.24489795918367641, 50.92626982591330886, 397.7022324300351102 ) ) ;
#145 = FACE_OUTER_BOUND ( 'NONE', #1000, .T. ) ;
#146 = EDGE_CURVE ( 'NONE', #1129, #1024, #560, .T. ) ;
#147 = ORIENTED_EDGE ( 'NONE', *, *, #237, .F. ) ;
#148 = CARTESIAN_POINT ( 'NONE',  ( 10.00000000000000355, 48.94132020700916286, 117.7022324300350817 ) ) ;
#149 = ORIENTED_EDGE ( 'NONE', *, *, #386, .F. ) ;
#150 = DIRECTION ( 'NONE',  ( -1.000000000000000000, 0.000000000000000000, -0.000000000000000000 ) ) ;
#151 = AXIS2_PLACEMENT_3D ( 'NONE', #50, #223, #150 ) ;
#152 = VECTOR ( 'NONE', #397, 1000.000000000000000 ) ;
#153 = CYLINDRICAL_SURFACE ( 'NONE', #251, 4.000000000000005329 ) ;
#154 = VERTEX_POINT ( 'NONE', #812 ) ;
#155 = CARTESIAN_POINT ( 'NONE',  ( 7.000000000000000000, 56.17753259136854638, 133.7022324300350817 ) ) ;
#156 = EDGE_CURVE ( 'NONE', #631, #280, #14, .T. ) ;
#157 = ORIENTED_EDGE ( 'NONE', *, *, #346, .T. ) ;
#158 = LINE ( 'NONE', #343, #841 ) ;
#159 = VERTEX_POINT ( 'NONE', #115 ) ;
#160 = B_SPLINE_CURVE_WITH_KNOTS ( 'NONE', 3,
 ( #246, #624, #1052, #569 ),
 .UNSPECIFIED., .F., .F.,
 ( 4, 4 ),
 ( 0.1708960981759164999, 0.6254188600906892548 ),
 .UNSPECIFIED. ) ;
#161 = CARTESIAN_POINT ( 'NONE',  ( -4.000000000000006217, 52.17753259136855348, 381.7022324300351102 ) ) ;
#162 = ORIENTED_EDGE ( 'NONE', *, *, #671, .T. ) ;
#163 = LINE ( 'NONE', #651, #985 ) ;
#164 = ORIENTED_EDGE ( 'NONE', *, *, #523, .T. ) ;
#165 = LINE ( 'NONE', #361, #679 ) ;
#166 = ORIENTED_EDGE ( 'NONE', *, *, #245, .F. ) ;
#167 = CARTESIAN_POINT ( 'NONE',  ( -59.99999999999995026, 39.01795136154728283, 397.7022324300351102 ) ) ;
#168 = EDGE_CURVE ( 'NONE', #317, #842, #727, .T. ) ;
#169 = VECTOR ( 'NONE', #710, 1000.000000000000000 ) ;
#170 = UNCERTAINTY_MEASURE_WITH_UNIT (LENGTH_MEASURE( 1.000000000000000082E-05 ), #1138, 'distance_accuracy_value', 'NONE');
#171 = VERTEX_POINT ( 'NONE', #788 ) ;
#172 = DIRECTION ( 'NONE',  ( -0.000000000000000000, -0.000000000000000000, -1.000000000000000000 ) ) ;
#173 = VECTOR ( 'NONE', #99, 1000.000000000000000 ) ;
#174 = ORIENTED_EDGE ( 'NONE', *, *, #622, .F. ) ;
#175 = DIRECTION ( 'NONE',  ( -1.000000000000000000, 0.000000000000000000, 0.000000000000000000 ) ) ;
#176 = CYLINDRICAL_SURFACE ( 'NONE', #817, 4.000000000000006217 ) ;
#177 = ORIENTED_EDGE ( 'NONE', *, *, #1162, .F. ) ;
#178 = DIRECTION ( 'NONE',  ( -1.000000000000000000, 0.000000000000000000, -0.000000000000000000 ) ) ;
#179 = EDGE_CURVE ( 'NONE', #933, #1217, #1174, .T. ) ;
#180 = ORIENTED_EDGE ( 'NONE', *, *, #179, .F. ) ;
#181 = LINE ( 'NONE', #836, #1206 ) ;
#182 = DIRECTION ( 'NONE',  ( 1.000000000000000000, 0.000000000000000000, 0.000000000000000000 ) ) ;
#183 = DIRECTION ( 'NONE',  ( 3.337736394065249364E-16, -1.000000000000000000, 0.000000000000000000 ) ) ;
#184 = ORIENTED_EDGE ( 'NONE', *, *, #1161, .F. ) ;
#185 = DIRECTION ( 'NONE',  ( 0.000000000000000000, 0.000000000000000000, -1.000000000000000000 ) ) ;
#186 = LINE ( 'NONE', #193, #1243 ) ;
#187 = AXIS2_PLACEMENT_3D ( 'NONE', #30, #1197, #419 ) ;
#188 = EDGE_LOOP ( 'NONE', ( #285, #1226, #328, #873 ) ) ;
#189 = CARTESIAN_POINT ( 'NONE',  ( 7.703719777548943412E-31, -48.32121111929345147, 397.7022324300351102 ) ) ;
#190 = AXIS2_PLACEMENT_3D ( 'NONE', #531, #604, #994 ) ;
#191 = ORIENTED_EDGE ( 'NONE', *, *, #709, .F. ) ;
#192 = DIRECTION ( 'NONE',  ( -0.000000000000000000, -0.000000000000000000, 1.000000000000000000 ) ) ;
#193 = CARTESIAN_POINT ( 'NONE',  ( 4.000000000000000888, 56.17753259136854638, 397.7022324300351102 ) ) ;
#194 = AXIS2_PLACEMENT_3D ( 'NONE', #231, #1095, #400 ) ;
#195 = ORIENTED_EDGE ( 'NONE', *, *, #1021, .F. ) ;
#196 = PLANE ( 'NONE',  #1051 ) ;
#197 = ORIENTED_EDGE ( 'NONE', *, *, #78, .F. ) ;
#198 = PLANE ( 'NONE',  #1186 ) ;
#199 = EDGE_CURVE ( 'NONE', #349, #633, #596, .T. ) ;
#200 = CARTESIAN_POINT ( 'NONE',  ( 4.000000000000000888, 56.17753259136854638, 117.7022324300350817 ) ) ;
#201 = EDGE_CURVE ( 'NONE', #927, #1182, #358, .T. ) ;
#202 = CARTESIAN_POINT ( 'NONE',  ( -7.000000000000000000, 56.17753259136854638, 133.7022324300350817 ) ) ;
#203 = PLANE ( 'NONE',  #1072 ) ;
#204 = ORIENTED_EDGE ( 'NONE', *, *, #41, .T. ) ;
#205 = CARTESIAN_POINT ( 'NONE',  ( -7.000000000000000000, 56.17753259136854638, 117.7022324300350817 ) ) ;
#206 = LINE ( 'NONE', #25, #1205 ) ;
#207 = DIRECTION ( 'NONE',  ( 1.000000000000000000, 0.000000000000000000, -0.000000000000000000 ) ) ;
#208 = ORIENTED_EDGE ( 'NONE', *, *, #726, .F. ) ;
#209 = FACE_OUTER_BOUND ( 'NONE', #430, .T. ) ;
#210 = AXIS2_PLACEMENT_3D ( 'NONE', #504, #299, #690 ) ;
#211 = CARTESIAN_POINT ( 'NONE',  ( 0.000000000000000000, 52.17753259136855348, 157.7022324300350817 ) ) ;
#212 = CIRCLE ( 'NONE', #352, 100.0000000000000000 ) ;
#213 = LINE ( 'NONE', #911, #1110 ) ;
#214 = ORIENTED_EDGE ( 'NONE', *, *, #26, .F. ) ;
#215 = EDGE_CURVE ( 'NONE', #38, #851, #1168, .T. ) ;
#216 = DIRECTION ( 'NONE',  ( 0.000000000000000000, -0.000000000000000000, -1.000000000000000000 ) ) ;
#217 = ORIENTED_EDGE ( 'NONE', *, *, #179, .T. ) ;
#218 = CARTESIAN_POINT ( 'NONE',  ( -4.000000000000000000, 58.77618519775963080, 397.7022324300351102 ) ) ;
#219 = CARTESIAN_POINT ( 'NONE',  ( 60.00000000000004263, 58.85624222338523737, 397.7022324300351102 ) ) ;
#220 = ORIENTED_EDGE ( 'NONE', *, *, #110, .F. ) ;
#221 = CARTESIAN_POINT ( 'NONE',  ( -6.999999999999998224, 56.17753259136854638, 397.7022324300351102 ) ) ;
#222 = ORIENTED_EDGE ( 'NONE', *, *, #870, .F. ) ;
#223 = DIRECTION ( 'NONE',  ( 0.000000000000000000, 0.000000000000000000, -1.000000000000000000 ) ) ;
#224 = DIRECTION ( 'NONE',  ( -0.000000000000000000, -0.000000000000000000, -1.000000000000000000 ) ) ;
#225 = MANIFOLD_SOLID_BREP ( 'Mirror5', #706 ) ;
#226 = ORIENTED_EDGE ( 'NONE', *, *, #19, .F. ) ;
#227 = CARTESIAN_POINT ( 'NONE',  ( 52.83928462801132042, 36.57878888070658974, 117.7022324300351386 ) ) ;
#228 = VERTEX_POINT ( 'NONE', #728 ) ;
#229 = LINE ( 'NONE', #1009, #903 ) ;
#230 = AXIS2_PLACEMENT_3D ( 'NONE', #86, #1145, #175 ) ;
#231 = CARTESIAN_POINT ( 'NONE',  ( 0.000000000000000000, 52.17753259136855348, 157.7022324300350817 ) ) ;
#232 = ORIENTED_EDGE ( 'NONE', *, *, #1011, .F. ) ;
#233 = CYLINDRICAL_SURFACE ( 'NONE', #576, 100.0000000000000000 ) ;
#234 = STYLED_ITEM ( 'NONE', ( #857 ), #225 ) ;
#235 = EDGE_LOOP ( 'NONE', ( #470, #636, #265, #373, #1091, #162, #94, #998, #1058, #502, #450, #164 ) ) ;
#236 = DIRECTION ( 'NONE',  ( 1.000000000000000000, 1.084202172485504434E-16, 0.000000000000000000 ) ) ;
#237 = EDGE_CURVE ( 'NONE', #1223, #733, #1213, .T. ) ;
#238 = VECTOR ( 'NONE', #657, 1000.000000000000000 ) ;
#239 = EDGE_CURVE ( 'NONE', #1024, #933, #826, .T. ) ;
#240 = CARTESIAN_POINT ( 'NONE',  ( 0.000000000000000000, 52.17753259136855348, 357.7022324300351102 ) ) ;
#241 = ORIENTED_EDGE ( 'NONE', *, *, #168, .T. ) ;
#242 = CARTESIAN_POINT ( 'NONE',  ( 10.00000000000000178, 46.17753259136855348, 397.7022324300351102 ) ) ;
#243 = ORIENTED_EDGE ( 'NONE', *, *, #239, .F. ) ;
#244 = CARTESIAN_POINT ( 'NONE',  ( 0.000000000000000000, 0.000000000000000000, 381.7022324300351102 ) ) ;
#245 = EDGE_CURVE ( 'NONE', #1245, #1156, #376, .T. ) ;
#246 = CARTESIAN_POINT ( 'NONE',  ( 57.00674397724008458, 41.01600751713782955, 397.7022324300351102 ) ) ;
#247 = ORIENTED_EDGE ( 'NONE', *, *, #1139, .T. ) ;
#248 = CARTESIAN_POINT ( 'NONE',  ( -6.999999999999999112, 48.17753259136854638, 381.7022324300351102 ) ) ;
#249 = ORIENTED_EDGE ( 'NONE', *, *, #661, .T. ) ;
#250 = DIRECTION ( 'NONE',  ( -1.000000000000000000, 0.000000000000000000, 0.000000000000000000 ) ) ;
#251 = AXIS2_PLACEMENT_3D ( 'NONE', #211, #382, #778 ) ;
#252 = VECTOR ( 'NONE', #513, 1000.000000000000000 ) ;
#253 = VECTOR ( 'NONE', #1216, 1000.000000000000000 ) ;
#254 = EDGE_CURVE ( 'NONE', #714, #508, #1117, .T. ) ;
#255 = EDGE_LOOP ( 'NONE', ( #217, #813, #1124, #1126 ) ) ;
#256 = CARTESIAN_POINT ( 'NONE',  ( -7.000000000000000888, 56.17753259136854638, 397.7022324300351102 ) ) ;
#257 = EDGE_CURVE ( 'NONE', #317, #171, #339, .T. ) ;
#258 = VERTEX_POINT ( 'NONE', #269 ) ;
#259 = DIRECTION ( 'NONE',  ( 0.000000000000000000, 0.000000000000000000, 1.000000000000000000 ) ) ;
#260 = ORIENTED_EDGE ( 'NONE', *, *, #693, .T. ) ;
#261 = CARTESIAN_POINT ( 'NONE',  ( 12.24489795918367818, 50.92626982591332307, 478.0000000000001137 ) ) ;
#262 = VERTEX_POINT ( 'NONE', #1240 ) ;
#263 = CARTESIAN_POINT ( 'NONE',  ( 7.000000000000000000, 48.17753259136854638, 117.7022324300350817 ) ) ;
#264 = ADVANCED_FACE ( 'NONE', ( #827 ), #951, .F. ) ;
#265 = ORIENTED_EDGE ( 'NONE', *, *, #491, .T. ) ;
#266 = LINE ( 'NONE', #155, #1208 ) ;
#267 = EDGE_LOOP ( 'NONE', ( #1194, #553, #993, #415 ) ) ;
#268 = CARTESIAN_POINT ( 'NONE',  ( 4.000000000000000000, 58.77618519775963080, 381.7022324300351102 ) ) ;
#269 = CARTESIAN_POINT ( 'NONE',  ( -59.99999999999996447, 39.01795136154726862, 117.7022324300350817 ) ) ;
#270 = ADVANCED_FACE ( 'NONE', ( #82 ), #732, .F. ) ;
#271 = CIRCLE ( 'NONE', #190, 100.0000000000000000 ) ;
#272 = PRODUCT_DEFINITION_CONTEXT ( 'detailed design', #91, 'design' ) ;
#273 = DIRECTION ( 'NONE',  ( 3.337736394065249364E-16, -1.000000000000000000, -0.000000000000000000 ) ) ;
#274 = CARTESIAN_POINT ( 'NONE',  ( -7.000000000000000888, 56.17753259136854638, 381.7022324300351102 ) ) ;
#275 = VERTEX_POINT ( 'NONE', #863 ) ;
#276 = DIRECTION ( 'NONE',  ( 3.469446951953616161E-16, 1.000000000000000000, 0.000000000000000000 ) ) ;
#277 = CARTESIAN_POINT ( 'NONE',  ( -6.999999999999999112, 48.17753259136854638, 381.7022324300351102 ) ) ;
#278 = DIRECTION ( 'NONE',  ( 0.000000000000000000, 1.000000000000000000, 0.000000000000000000 ) ) ;
#279 = CARTESIAN_POINT ( 'NONE',  ( -7.000000000000000000, 56.17753259136854638, 133.7022324300350817 ) ) ;
#280 = VERTEX_POINT ( 'NONE', #1146 ) ;
#281 = LINE ( 'NONE', #1076, #501 ) ;
#282 = DIRECTION ( 'NONE',  ( -6.675472788130498728E-16, 1.000000000000000000, 0.000000000000000000 ) ) ;
#283 = EDGE_CURVE ( 'NONE', #612, #708, #1220, .T. ) ;
#284 = DIRECTION ( 'NONE',  ( 0.000000000000000000, -0.000000000000000000, 1.000000000000000000 ) ) ;
#285 = ORIENTED_EDGE ( 'NONE', *, *, #1202, .F. ) ;
#286 = DIRECTION ( 'NONE',  ( -0.000000000000000000, -0.000000000000000000, 1.000000000000000000 ) ) ;
#287 = PLANE ( 'NONE',  #1002 ) ;
#288 = PLANE ( 'NONE',  #786 ) ;
#289 = PLANE ( 'NONE',  #884 ) ;
#290 = CIRCLE ( 'NONE', #230, 4.000000000000005329 ) ;
#291 = EDGE_CURVE ( 'NONE', #1024, #464, #160, .T. ) ;
#292 = AXIS2_PLACEMENT_3D ( 'NONE', #590, #15, #969 ) ;
#293 = ORIENTED_EDGE ( 'NONE', *, *, #878, .T. ) ;
#294 = DIRECTION ( 'NONE',  ( 1.084202172485504434E-16, 1.000000000000000000, -0.000000000000000000 ) ) ;
#295 = DIRECTION ( 'NONE',  ( 1.000000000000000000, 0.000000000000000000, 0.000000000000000000 ) ) ;
#296 = ORIENTED_EDGE ( 'NONE', *, *, #1069, .F. ) ;
#297 = CARTESIAN_POINT ( 'NONE',  ( -11.99999999999999822, 48.94132020700916286, 397.7022324300351102 ) ) ;
#298 = ORIENTED_EDGE ( 'NONE', *, *, #737, .T. ) ;
#299 = DIRECTION ( 'NONE',  ( -0.000000000000000000, -0.000000000000000000, 1.000000000000000000 ) ) ;
#300 = DIRECTION ( 'NONE',  ( 0.000000000000000000, -0.000000000000000000, -1.000000000000000000 ) ) ;
#301 = DIRECTION ( 'NONE',  ( -0.000000000000000000, -1.000000000000000000, 0.000000000000000000 ) ) ;
#302 = ORIENTED_EDGE ( 'NONE', *, *, #1011, .T. ) ;
#303 = LINE ( 'NONE', #990, #926 ) ;
#304 = LINE ( 'NONE', #792, #882 ) ;
#305 = EDGE_CURVE ( 'NONE', #438, #711, #667, .T. ) ;
#306 = PLANE ( 'NONE',  #747 ) ;
#307 = AXIS2_PLACEMENT_3D ( 'NONE', #477, #767, #759 ) ;
#308 = VERTEX_POINT ( 'NONE', #1207 ) ;
#309 = DIRECTION ( 'NONE',  ( 0.000000000000000000, -1.000000000000000000, 0.000000000000000000 ) ) ;
#310 = CIRCLE ( 'NONE', #840, 100.0000000000000000 ) ;
#311 = CIRCLE ( 'NONE', #370, 4.000000000000005329 ) ;
#312 = ORIENTED_EDGE ( 'NONE', *, *, #1116, .T. ) ;
#313 = DIRECTION ( 'NONE',  ( -3.337736394065249364E-16, 1.000000000000000000, 0.000000000000000000 ) ) ;
#314 = DIRECTION ( 'NONE',  ( 0.000000000000000000, 0.000000000000000000, -1.000000000000000000 ) ) ;
#315 = ADVANCED_FACE ( 'NONE', ( #1112 ), #176, .F. ) ;
#316 = ADVANCED_FACE ( 'NONE', ( #635 ), #153, .F. ) ;
#317 = VERTEX_POINT ( 'NONE', #895 ) ;
#318 = DIRECTION ( 'NONE',  ( 0.000000000000000000, 0.000000000000000000, 1.000000000000000000 ) ) ;
#319 = LINE ( 'NONE', #712, #699 ) ;
#320 = LINE ( 'NONE', #997, #543 ) ;
#321 = VERTEX_POINT ( 'NONE', #1167 ) ;
#322 = CARTESIAN_POINT ( 'NONE',  ( 10.00000000000000178, 46.17753259136855348, 397.7022324300351102 ) ) ;
#323 = CARTESIAN_POINT ( 'NONE',  ( 57.00674397724008458, 41.01600751713782955, 117.7022324300350817 ) ) ;
#324 = CARTESIAN_POINT ( 'NONE',  ( -6.938893903907228378E-15, -41.14378277661475636, 474.9999999999999432 ) ) ;
#325 = ORIENTED_EDGE ( 'NONE', *, *, #896, .F. ) ;
#326 = CARTESIAN_POINT ( 'NONE',  ( -59.99999999999994316, 39.01795136154728993, 528.0980032713840728 ) ) ;
#327 = AXIS2_PLACEMENT_3D ( 'NONE', #875, #300, #984 ) ;
#328 = ORIENTED_EDGE ( 'NONE', *, *, #1147, .T. ) ;
#329 = LINE ( 'NONE', #724, #779 ) ;
#330 = EDGE_CURVE ( 'NONE', #275, #1129, #186, .T. ) ;
#331 = VECTOR ( 'NONE', #334, 1000.000000000000000 ) ;
#332 = AXIS2_PLACEMENT_3D ( 'NONE', #297, #954, #474 ) ;
#333 = ORIENTED_EDGE ( 'NONE', *, *, #847, .F. ) ;
#334 = DIRECTION ( 'NONE',  ( -3.469446951953616161E-16, -1.000000000000000000, 0.000000000000000000 ) ) ;
#335 =( GEOMETRIC_REPRESENTATION_CONTEXT ( 3 ) GLOBAL_UNCERTAINTY_ASSIGNED_CONTEXT ( ( #170 ) ) GLOBAL_UNIT_ASSIGNED_CONTEXT ( ( #1138, #540, #52 ) ) REPRESENTATION_CONTEXT ( 'NONE', 'WORKASPACE' ) );
#336 = ORIENTED_EDGE ( 'NONE', *, *, #454, .T. ) ;
#337 = DIRECTION ( 'NONE',  ( -1.000000000000000000, 0.000000000000000000, 0.000000000000000000 ) ) ;
#338 = EDGE_CURVE ( 'NONE', #943, #56, #304, .T. ) ;
#339 = LINE ( 'NONE', #375, #952 ) ;
#340 = ORIENTED_EDGE ( 'NONE', *, *, #876, .T. ) ;
#341 = DIRECTION ( 'NONE',  ( 0.000000000000000000, 0.000000000000000000, -1.000000000000000000 ) ) ;
#342 = ORIENTED_EDGE ( 'NONE', *, *, #853, .T. ) ;
#343 = CARTESIAN_POINT ( 'NONE',  ( -10.00000000000000000, 48.94132020700916286, 117.7022324300351954 ) ) ;
#344 = EDGE_CURVE ( 'NONE', #738, #171, #68, .T. ) ;
#345 = SURFACE_STYLE_USAGE ( .BOTH. , #922 ) ;
#346 = EDGE_CURVE ( 'NONE', #508, #77, #310, .T. ) ;
#347 = ORIENTED_EDGE ( 'NONE', *, *, #876, .F. ) ;
#348 = LINE ( 'NONE', #1047, #802 ) ;
#349 = VERTEX_POINT ( 'NONE', #12 ) ;
#350 = CARTESIAN_POINT ( 'NONE',  ( 7.000000000000000000, 48.17753259136854638, 133.7022324300350817 ) ) ;
#351 = AXIS2_PLACEMENT_3D ( 'NONE', #10, #1151, #599 ) ;
#352 = AXIS2_PLACEMENT_3D ( 'NONE', #468, #542, #64 ) ;
#353 = ORIENTED_EDGE ( 'NONE', *, *, #580, .T. ) ;
#354 = EDGE_CURVE ( 'NONE', #603, #83, #206, .T. ) ;
#355 = PLANE ( 'NONE',  #760 ) ;
#356 = ORIENTED_EDGE ( 'NONE', *, *, #1038, .T. ) ;
#357 = DIRECTION ( 'NONE',  ( 1.000000000000000000, -3.469446951953616161E-16, 0.000000000000000000 ) ) ;
#358 = CIRCLE ( 'NONE', #1230, 100.0000000000000000 ) ;
#359 = CIRCLE ( 'NONE', #421, 100.0000000000000000 ) ;
#360 = ORIENTED_EDGE ( 'NONE', *, *, #1054, .F. ) ;
#361 = CARTESIAN_POINT ( 'NONE',  ( -3.999999999999999112, 56.17753259136854638, 397.7022324300351102 ) ) ;
#362 = VERTEX_POINT ( 'NONE', #114 ) ;
#363 = DIRECTION ( 'NONE',  ( -1.084202172485504434E-16, 1.000000000000000000, -0.000000000000000000 ) ) ;
#364 = LINE ( 'NONE', #563, #766 ) ;
#365 = LINE ( 'NONE', #948, #722 ) ;
#366 = ORIENTED_EDGE ( 'NONE', *, *, #605, .T. ) ;
#367 = CARTESIAN_POINT ( 'NONE',  ( 4.000000000000000000, 58.77618519775963080, 117.7022324300350817 ) ) ;
#368 = ADVANCED_FACE ( 'NONE', ( #593 ), #496, .F. ) ;
#369 = VECTOR ( 'NONE', #674, 1000.000000000000000 ) ;
#370 = AXIS2_PLACEMENT_3D ( 'NONE', #1034, #749, #1224 ) ;
#371 = FACE_OUTER_BOUND ( 'NONE', #267, .T. ) ;
#372 = VECTOR ( 'NONE', #341, 1000.000000000000000 ) ;
#373 = ORIENTED_EDGE ( 'NONE', *, *, #32, .T. ) ;
#374 = CARTESIAN_POINT ( 'NONE',  ( 6.999999999999999112, 56.17753259136854638, 397.7022324300351102 ) ) ;
#375 = CARTESIAN_POINT ( 'NONE',  ( -4.000000000000005329, 52.17753259136855348, 157.7022324300350817 ) ) ;
#376 = CIRCLE ( 'NONE', #1014, 2.000000000000000000 ) ;
#377 = EDGE_CURVE ( 'NONE', #38, #228, #639, .T. ) ;
#378 = DIRECTION ( 'NONE',  ( -1.000000000000000000, 0.000000000000000000, 0.000000000000000000 ) ) ;
#379 =( NAMED_UNIT ( * ) SI_UNIT ( $, .STERADIAN. ) SOLID_ANGLE_UNIT ( ) );
#380 = ORIENTED_EDGE ( 'NONE', *, *, #758, .T. ) ;
#381 = CARTESIAN_POINT ( 'NONE',  ( 12.00000000000000178, 48.94132020700916286, 397.7022324300351102 ) ) ;
#382 = DIRECTION ( 'NONE',  ( -0.000000000000000000, -0.000000000000000000, -1.000000000000000000 ) ) ;
#383 = EDGE_CURVE ( 'NONE', #1156, #1065, #20, .T. ) ;
#384 = EDGE_LOOP ( 'NONE', ( #704, #823, #9, #769 ) ) ;
#385 = CARTESIAN_POINT ( 'NONE',  ( -10.00000000000000000, 48.94132020700916286, 117.7022324300350817 ) ) ;
#386 = EDGE_CURVE ( 'NONE', #228, #38, #497, .T. ) ;
#387 = VERTEX_POINT ( 'NONE', #787 ) ;
#388 = CARTESIAN_POINT ( 'NONE',  ( 0.000000000000000000, 48.17753259136854638, 381.7022324300351102 ) ) ;
#389 = DIRECTION ( 'NONE',  ( 1.000000000000000000, 0.000000000000000000, 0.000000000000000000 ) ) ;
#390 = VECTOR ( 'NONE', #510, 1000.000000000000000 ) ;
#391 = CARTESIAN_POINT ( 'NONE',  ( -7.000000000000000888, 56.17753259136854638, 381.7022324300351102 ) ) ;
#392 = DIRECTION ( 'NONE',  ( 0.000000000000000000, 0.000000000000000000, 1.000000000000000000 ) ) ;
#393 = EDGE_CURVE ( 'NONE', #262, #387, #601, .T. ) ;
#394 = EDGE_CURVE ( 'NONE', #321, #617, #120, .T. ) ;
#395 = VECTOR ( 'NONE', #1232, 1000.000000000000000 ) ;
#396 = ORIENTED_EDGE ( 'NONE', *, *, #916, .F. ) ;
#397 = DIRECTION ( 'NONE',  ( -1.000000000000000000, -0.000000000000000000, -0.000000000000000000 ) ) ;
#398 = ADVANCED_BREP_SHAPE_REPRESENTATION ( 'Canopy', ( #225, #441 ), #73 ) ;
#399 = DIRECTION ( 'NONE',  ( 0.000000000000000000, 1.000000000000000000, 0.000000000000000000 ) ) ;
#400 = DIRECTION ( 'NONE',  ( -1.000000000000000000, 0.000000000000000000, 0.000000000000000000 ) ) ;
#401 = LINE ( 'NONE', #886, #173 ) ;
#402 = VERTEX_POINT ( 'NONE', #1158 ) ;
#403 = CARTESIAN_POINT ( 'NONE',  ( -11.99999999999999822, 48.94132020700916286, 478.0000000000001137 ) ) ;
#404 = ADVANCED_FACE ( 'NONE', ( #1077 ), #287, .F. ) ;
#405 = CARTESIAN_POINT ( 'NONE',  ( 4.000000000000005329, 52.17753259136855348, 157.7022324300350817 ) ) ;
#406 = EDGE_CURVE ( 'NONE', #842, #443, #588, .T. ) ;
#407 = DIRECTION ( 'NONE',  ( 0.000000000000000000, 0.000000000000000000, 1.000000000000000000 ) ) ;
#408 = ORIENTED_EDGE ( 'NONE', *, *, #902, .T. ) ;
#409 = CARTESIAN_POINT ( 'NONE',  ( 7.703719777548943412E-31, -48.32121111929345147, 478.0000000000001137 ) ) ;
#410 = ORIENTED_EDGE ( 'NONE', *, *, #1178, .F. ) ;
#411 = CARTESIAN_POINT ( 'NONE',  ( 10.00000000000000355, 48.94132020700916286, 397.7022324300351102 ) ) ;
#412 = EDGE_CURVE ( 'NONE', #603, #262, #1064, .T. ) ;
#413 = DIRECTION ( 'NONE',  ( 0.000000000000000000, -0.000000000000000000, -1.000000000000000000 ) ) ;
#414 = AXIS2_PLACEMENT_3D ( 'NONE', #634, #1025, #1001 ) ;
#415 = ORIENTED_EDGE ( 'NONE', *, *, #870, .T. ) ;
#416 = CARTESIAN_POINT ( 'NONE',  ( -7.000000000000000000, 56.17753259136854638, 133.7022324300350817 ) ) ;
#417 = VECTOR ( 'NONE', #519, 1000.000000000000000 ) ;
#418 = VECTOR ( 'NONE', #1066, 1000.000000000000000 ) ;
#419 = DIRECTION ( 'NONE',  ( 0.000000000000000000, -0.000000000000000000, 1.000000000000000000 ) ) ;
#420 = DIRECTION ( 'NONE',  ( -0.000000000000000000, -0.000000000000000000, 1.000000000000000000 ) ) ;
#421 = AXIS2_PLACEMENT_3D ( 'NONE', #589, #681, #675 ) ;
#422 = ORIENTED_EDGE ( 'NONE', *, *, #740, .F. ) ;
#423 = CARTESIAN_POINT ( 'NONE',  ( -3.999999999999999112, 56.17753259136854638, 133.7022324300350817 ) ) ;
#424 = ORIENTED_EDGE ( 'NONE', *, *, #1082, .T. ) ;
#425 = FACE_OUTER_BOUND ( 'NONE', #526, .T. ) ;
#426 = DIRECTION ( 'NONE',  ( 1.000000000000000000, 0.000000000000000000, 0.000000000000000000 ) ) ;
#427 = ORIENTED_EDGE ( 'NONE', *, *, #668, .T. ) ;
#428 = ADVANCED_FACE ( 'NONE', ( #966 ), #96, .F. ) ;
#429 = PLANE ( 'NONE',  #31 ) ;
#430 = EDGE_LOOP ( 'NONE', ( #1189, #22, #220, #104, #1041 ) ) ;
#431 = CARTESIAN_POINT ( 'NONE',  ( 0.000000000000000000, 52.17753259136855348, 381.7022324300351102 ) ) ;
#432 = DIRECTION ( 'NONE',  ( -0.000000000000000000, 1.000000000000000000, 0.000000000000000000 ) ) ;
#433 = ADVANCED_FACE ( 'NONE', ( #1254 ), #1071, .F. ) ;
#434 = ORIENTED_EDGE ( 'NONE', *, *, #49, .F. ) ;
#435 = DIRECTION ( 'NONE',  ( 0.000000000000000000, 0.000000000000000000, -1.000000000000000000 ) ) ;
#436 = ADVANCED_FACE ( 'NONE', ( #1018 ), #628, .F. ) ;
#437 = VECTOR ( 'NONE', #545, 1000.000000000000000 ) ;
#438 = VERTEX_POINT ( 'NONE', #914 ) ;
#439 = LINE ( 'NONE', #901, #113 ) ;
#440 = AXIS2_PLACEMENT_3D ( 'NONE', #1114, #140, #809 ) ;
#441 = AXIS2_PLACEMENT_3D ( 'NONE', #8, #392, #782 ) ;
#442 = DIRECTION ( 'NONE',  ( 1.000000000000000000, 0.000000000000000000, 0.000000000000000000 ) ) ;
#443 = VERTEX_POINT ( 'NONE', #621 ) ;
#444 = CARTESIAN_POINT ( 'NONE',  ( 4.000000000000000000, 58.77618519775963080, 397.7022324300351102 ) ) ;
#445 = CIRCLE ( 'NONE', #929, 100.0000000000000000 ) ;
#446 = ORIENTED_EDGE ( 'NONE', *, *, #523, .F. ) ;
#447 = PLANE ( 'NONE',  #1104 ) ;
#448 = ADVANCED_FACE ( 'NONE', ( #145 ), #533, .F. ) ;
#449 = DIRECTION ( 'NONE',  ( -0.000000000000000000, 0.000000000000000000, 1.000000000000000000 ) ) ;
#450 = ORIENTED_EDGE ( 'NONE', *, *, #1202, .T. ) ;
#451 = CARTESIAN_POINT ( 'NONE',  ( -6.999999999999999112, 48.17753259136854638, 397.7022324300351102 ) ) ;
#452 = EDGE_LOOP ( 'NONE', ( #1150, #119, #567, #1203 ) ) ;
#453 = CARTESIAN_POINT ( 'NONE',  ( 7.703719777548943412E-31, -48.32121111929345147, 478.0000000000001137 ) ) ;
#454 = EDGE_CURVE ( 'NONE', #56, #738, #439, .T. ) ;
#455 = VERTEX_POINT ( 'NONE', #1212 ) ;
#456 = CARTESIAN_POINT ( 'NONE',  ( 57.00674397724008458, 41.01600751713782955, 397.7022324300351102 ) ) ;
#457 = EDGE_LOOP ( 'NONE', ( #396, #518, #24, #302 ) ) ;
#458 = DIRECTION ( 'NONE',  ( 1.000000000000000000, 0.000000000000000000, 0.000000000000000000 ) ) ;
#459 = AXIS2_PLACEMENT_3D ( 'NONE', #483, #973, #871 ) ;
#460 = VECTOR ( 'NONE', #363, 1000.000000000000000 ) ;
#461 = ADVANCED_FACE ( 'NONE', ( #1098 ), #607, .F. ) ;
#462 = ORIENTED_EDGE ( 'NONE', *, *, #916, .T. ) ;
#463 = CARTESIAN_POINT ( 'NONE',  ( 60.00002500000006478, 36.57878888070658974, 397.7022324300351102 ) ) ;
#464 = VERTEX_POINT ( 'NONE', #323 ) ;
#465 = DIRECTION ( 'NONE',  ( 1.000000000000000000, 0.000000000000000000, 0.000000000000000000 ) ) ;
#466 = AXIS2_PLACEMENT_3D ( 'NONE', #793, #980, #21 ) ;
#467 = VERTEX_POINT ( 'NONE', #218 ) ;
#468 = CARTESIAN_POINT ( 'NONE',  ( -114.0134879544802118, 123.1757978108904155, 117.7022324300350817 ) ) ;
#469 = ADVANCED_FACE ( 'NONE', ( #45 ), #613, .T. ) ;
#470 = ORIENTED_EDGE ( 'NONE', *, *, #283, .T. ) ;
#471 = DIRECTION ( 'NONE',  ( 1.000000000000000000, 0.000000000000000000, 0.000000000000000000 ) ) ;
#472 = SURFACE_STYLE_FILL_AREA ( #34 ) ;
#473 = PLANE ( 'NONE',  #1010 ) ;
#474 = DIRECTION ( 'NONE',  ( -1.000000000000000000, 0.000000000000000000, 0.000000000000000000 ) ) ;
#475 = EDGE_LOOP ( 'NONE', ( #74, #877, #764, #1084 ) ) ;
#476 = LINE ( 'NONE', #962, #721 ) ;
#477 = CARTESIAN_POINT ( 'NONE',  ( 4.000000000000000888, 56.17753259136854638, 381.7022324300351102 ) ) ;
#478 = VECTOR ( 'NONE', #318, 1000.000000000000000 ) ;
#479 = ORIENTED_EDGE ( 'NONE', *, *, #1239, .F. ) ;
#480 = CARTESIAN_POINT ( 'NONE',  ( 52.83928462801132753, 36.57878888070658974, 397.7022324300351102 ) ) ;
#481 = ORIENTED_EDGE ( 'NONE', *, *, #1020, .F. ) ;
#482 = CARTESIAN_POINT ( 'NONE',  ( 4.000000000000005329, 52.17753259136855348, 157.7022324300350817 ) ) ;
#483 = CARTESIAN_POINT ( 'NONE',  ( -59.99999999999998579, 58.85624222338523737, 117.7022324300350817 ) ) ;
#484 = ADVANCED_FACE ( 'NONE', ( #1115 ), #142, .F. ) ;
#485 = DIRECTION ( 'NONE',  ( -1.000000000000000000, -3.337736394065249364E-16, 0.000000000000000000 ) ) ;
#486 = CARTESIAN_POINT ( 'NONE',  ( 0.000000000000000000, 52.17753259136855348, 157.7022324300350817 ) ) ;
#487 = ORIENTED_EDGE ( 'NONE', *, *, #637, .F. ) ;
#488 = CARTESIAN_POINT ( 'NONE',  ( -7.000000000000000000, 56.17753259136854638, 133.7022324300350817 ) ) ;
#489 = DIRECTION ( 'NONE',  ( -0.000000000000000000, -0.000000000000000000, -1.000000000000000000 ) ) ;
#490 = PRODUCT_RELATED_PRODUCT_CATEGORY ( 'part', '', ( #102 ) ) ;
#491 = EDGE_CURVE ( 'NONE', #1119, #851, #963, .T. ) ;
#492 = LINE ( 'NONE', #6, #76 ) ;
#493 = DIRECTION ( 'NONE',  ( 0.000000000000000000, 0.000000000000000000, -1.000000000000000000 ) ) ;
#494 = VERTEX_POINT ( 'NONE', #928 ) ;
#495 = LINE ( 'NONE', #776, #152 ) ;
#496 = PLANE ( 'NONE',  #1184 ) ;
#497 = CIRCLE ( 'NONE', #923, 4.000000000000006217 ) ;
#498 = DIRECTION ( 'NONE',  ( -1.000000000000000000, 0.000000000000000000, 0.000000000000000000 ) ) ;
#499 = ADVANCED_FACE ( 'NONE', ( #133 ), #447, .T. ) ;
#500 = DIRECTION ( 'NONE',  ( 0.000000000000000000, 0.000000000000000000, -1.000000000000000000 ) ) ;
#501 = VECTOR ( 'NONE', #592, 1000.000000000000000 ) ;
#502 = ORIENTED_EDGE ( 'NONE', *, *, #55, .T. ) ;
#503 = EDGE_CURVE ( 'NONE', #775, #719, #1094, .T. ) ;
#504 = CARTESIAN_POINT ( 'NONE',  ( 0.000000000000000000, 52.17753259136855348, 357.7022324300351102 ) ) ;
#505 = DIRECTION ( 'NONE',  ( 0.000000000000000000, -1.000000000000000000, 0.000000000000000000 ) ) ;
#506 = CARTESIAN_POINT ( 'NONE',  ( -9.999999999999998224, 46.17753259136855348, 117.7022324300350817 ) ) ;
#507 = ADVANCED_FACE ( 'NONE', ( #425 ), #515, .F. ) ;
#508 = VERTEX_POINT ( 'NONE', #908 ) ;
#509 = DIRECTION ( 'NONE',  ( -0.000000000000000000, -0.000000000000000000, -1.000000000000000000 ) ) ;
#510 = DIRECTION ( 'NONE',  ( 0.000000000000000000, 0.000000000000000000, 1.000000000000000000 ) ) ;
#511 = DIRECTION ( 'NONE',  ( -0.000000000000000000, -0.000000000000000000, 1.000000000000000000 ) ) ;
#512 = EDGE_LOOP ( 'NONE', ( #47, #117, #1078, #995 ) ) ;
#513 = DIRECTION ( 'NONE',  ( 1.000000000000000000, 0.000000000000000000, 0.000000000000000000 ) ) ;
#514 = ORIENTED_EDGE ( 'NONE', *, *, #393, .T. ) ;
#515 = PLANE ( 'NONE',  #187 ) ;
#516 = EDGE_CURVE ( 'NONE', #154, #100, #805, .T. ) ;
#517 = CARTESIAN_POINT ( 'NONE',  ( 0.000000000000000000, 52.17753259136855348, 357.7022324300351102 ) ) ;
#518 = ORIENTED_EDGE ( 'NONE', *, *, #1069, .T. ) ;
#519 = DIRECTION ( 'NONE',  ( 1.000000000000000000, 0.000000000000000000, 0.000000000000000000 ) ) ;
#520 = VECTOR ( 'NONE', #79, 1000.000000000000000 ) ;
#521 = CIRCLE ( 'NONE', #332, 2.000000000000000000 ) ;
#522 = CARTESIAN_POINT ( 'NONE',  ( -3.999999999999999112, 56.17753259136854638, 381.7022324300351102 ) ) ;
#523 = EDGE_CURVE ( 'NONE', #1036, #612, #319, .T. ) ;
#524 = VECTOR ( 'NONE', #420, 1000.000000000000000 ) ;
#525 = DIRECTION ( 'NONE',  ( -1.000000000000000000, 0.000000000000000000, 0.000000000000000000 ) ) ;
#526 = EDGE_LOOP ( 'NONE', ( #833, #924, #424, #195 ) ) ;
#527 = CARTESIAN_POINT ( 'NONE',  ( 7.000000000000000000, 56.17753259136854638, 133.7022324300350817 ) ) ;
#528 = VERTEX_POINT ( 'NONE', #1103 ) ;
#529 = DIRECTION ( 'NONE',  ( -9.912705577010325549E-17, 0.000000000000000000, -1.000000000000000000 ) ) ;
#530 = ORIENTED_EDGE ( 'NONE', *, *, #386, .T. ) ;
#531 = CARTESIAN_POINT ( 'NONE',  ( -114.0134879544802118, 123.1757978108904155, 397.7022324300351102 ) ) ;
#532 = ORIENTED_EDGE ( 'NONE', *, *, #864, .F. ) ;
#533 = PLANE ( 'NONE',  #151 ) ;
#534 = DIRECTION ( 'NONE',  ( -0.000000000000000000, -0.000000000000000000, -1.000000000000000000 ) ) ;
#535 = ORIENTED_EDGE ( 'NONE', *, *, #1155, .F. ) ;
#536 = LINE ( 'NONE', #925, #253 ) ;
#537 = ORIENTED_EDGE ( 'NONE', *, *, #652, .T. ) ;
#538 = DIRECTION ( 'NONE',  ( 1.000000000000000000, 0.000000000000000000, 0.000000000000000000 ) ) ;
#539 = AXIS2_PLACEMENT_3D ( 'NONE', #1092, #1190, #1201 ) ;
#540 =( NAMED_UNIT ( * ) PLANE_ANGLE_UNIT ( ) SI_UNIT ( $, .RADIAN. ) );
#541 = ORIENTED_EDGE ( 'NONE', *, *, #257, .F. ) ;
#542 = DIRECTION ( 'NONE',  ( 0.000000000000000000, -0.000000000000000000, -1.000000000000000000 ) ) ;
#543 = VECTOR ( 'NONE', #713, 1000.000000000000000 ) ;
#544 = ORIENTED_EDGE ( 'NONE', *, *, #412, .F. ) ;
#545 = DIRECTION ( 'NONE',  ( 0.000000000000000000, 0.000000000000000000, 1.000000000000000000 ) ) ;
#546 = APPLICATION_CONTEXT ( 'automotive_design' ) ;
#547 = ORIENTED_EDGE ( 'NONE', *, *, #245, .T. ) ;
#548 = LINE ( 'NONE', #1222, #1225 ) ;
#549 = ORIENTED_EDGE ( 'NONE', *, *, #26, .T. ) ;
#550 = DIRECTION ( 'NONE',  ( -0.000000000000000000, -0.000000000000000000, -1.000000000000000000 ) ) ;
#551 = EDGE_LOOP ( 'NONE', ( #1067, #1046, #578, #1039 ) ) ;
#552 = CARTESIAN_POINT ( 'NONE',  ( -12.24489795918367285, 50.92626982591330886, 397.7022324300351102 ) ) ;
#553 = ORIENTED_EDGE ( 'NONE', *, *, #503, .F. ) ;
#554 = CARTESIAN_POINT ( 'NONE',  ( 7.703719777548943412E-31, -48.32121111929345147, 117.7022324300350817 ) ) ;
#555 = CIRCLE ( 'NONE', #642, 2.000000000000000000 ) ;
#556 = ORIENTED_EDGE ( 'NONE', *, *, #338, .T. ) ;
#557 = DIRECTION ( 'NONE',  ( 1.000000000000000000, 0.000000000000000000, 0.000000000000000000 ) ) ;
#558 = ORIENTED_EDGE ( 'NONE', *, *, #383, .F. ) ;
#559 = CARTESIAN_POINT ( 'NONE',  ( 7.000000000000000000, 48.17753259136854638, 397.7022324300351102 ) ) ;
#560 = CIRCLE ( 'NONE', #116, 100.0000000000000000 ) ;
#561 = CARTESIAN_POINT ( 'NONE',  ( 60.00002500000004346, 36.57878888070658974, 117.7022324300350675 ) ) ;
#562 = PRODUCT_DEFINITION ( 'UNKNOWN', '', #780, #272 ) ;
#563 = CARTESIAN_POINT ( 'NONE',  ( 60.00000000000001421, 36.57878888070658974, 117.7022324300350817 ) ) ;
#564 = EDGE_CURVE ( 'NONE', #620, #664, #229, .T. ) ;
#565 = EDGE_CURVE ( 'NONE', #349, #988, #329, .T. ) ;
#566 = LINE ( 'NONE', #670, #418 ) ;
#567 = ORIENTED_EDGE ( 'NONE', *, *, #1118, .T. ) ;
#568 = DIRECTION ( 'NONE',  ( -1.084202172485504434E-16, 1.000000000000000000, -0.000000000000000000 ) ) ;
#569 = CARTESIAN_POINT ( 'NONE',  ( 57.00674397724008458, 41.01600751713782955, 117.7022324300350817 ) ) ;
#570 = DIRECTION ( 'NONE',  ( 0.000000000000000000, -0.000000000000000000, 1.000000000000000000 ) ) ;
#571 = FACE_OUTER_BOUND ( 'NONE', #687, .T. ) ;
#572 = VERTEX_POINT ( 'NONE', #559 ) ;
#573 = CARTESIAN_POINT ( 'NONE',  ( 60.00002500000004346, 36.57878888070658974, 117.7022324300350675 ) ) ;
#574 = ADVANCED_FACE ( 'NONE', ( #656 ), #1127, .F. ) ;
#575 = CARTESIAN_POINT ( 'NONE',  ( -7.000000000000000000, 56.17753259136854638, 133.7022324300350817 ) ) ;
#576 = AXIS2_PLACEMENT_3D ( 'NONE', #409, #435, #43 ) ;
#577 = DIRECTION ( 'NONE',  ( -1.000000000000000000, -6.675472788130498728E-16, 0.000000000000000000 ) ) ;
#578 = ORIENTED_EDGE ( 'NONE', *, *, #580, .F. ) ;
#579 = LINE ( 'NONE', #488, #11 ) ;
#580 = EDGE_CURVE ( 'NONE', #1231, #988, #647, .T. ) ;
#581 = DIRECTION ( 'NONE',  ( 1.000000000000000000, 0.000000000000000000, 0.000000000000000000 ) ) ;
#582 = EDGE_CURVE ( 'NONE', #1217, #1182, #163, .T. ) ;
#583 = AXIS2_PLACEMENT_3D ( 'NONE', #108, #224, #525 ) ;
#584 = DIRECTION ( 'NONE',  ( 6.675472788130498728E-16, -1.000000000000000000, 0.000000000000000000 ) ) ;
#585 = CARTESIAN_POINT ( 'NONE',  ( 7.000000000000000000, 56.17753259136854638, 117.7022324300350817 ) ) ;
#586 = ORIENTED_EDGE ( 'NONE', *, *, #1219, .F. ) ;
#587 = FACE_OUTER_BOUND ( 'NONE', #1252, .T. ) ;
#588 = LINE ( 'NONE', #405, #369 ) ;
#589 = CARTESIAN_POINT ( 'NONE',  ( -6.938893903907228378E-15, -41.14378277661475636, 133.7022324300350817 ) ) ;
#590 = CARTESIAN_POINT ( 'NONE',  ( 7.000000000000000000, 56.17753259136854638, 133.7022324300350817 ) ) ;
#591 = ORIENTED_EDGE ( 'NONE', *, *, #291, .T. ) ;
#592 = DIRECTION ( 'NONE',  ( -1.000000000000000000, -0.000000000000000000, -0.000000000000000000 ) ) ;
#593 = FACE_OUTER_BOUND ( 'NONE', #892, .T. ) ;
#594 = EDGE_CURVE ( 'NONE', #633, #1231, #1122, .T. ) ;
#595 = VECTOR ( 'NONE', #458, 1000.000000000000000 ) ;
#596 = LINE ( 'NONE', #506, #1074 ) ;
#597 = AXIS2_PLACEMENT_3D ( 'NONE', #957, #357, #276 ) ;
#598 = EDGE_LOOP ( 'NONE', ( #408, #1215, #481, #1093, #849 ) ) ;
#599 = DIRECTION ( 'NONE',  ( -1.000000000000000000, 0.000000000000000000, 0.000000000000000000 ) ) ;
#600 = ORIENTED_EDGE ( 'NONE', *, *, #1118, .F. ) ;
#601 = LINE ( 'NONE', #991, #130 ) ;
#602 = CARTESIAN_POINT ( 'NONE',  ( 7.703719777548943412E-31, -48.32121111929345147, 397.7022324300351102 ) ) ;
#603 = VERTEX_POINT ( 'NONE', #1050 ) ;
#604 = DIRECTION ( 'NONE',  ( -0.000000000000000000, -0.000000000000000000, 1.000000000000000000 ) ) ;
#605 = EDGE_CURVE ( 'NONE', #842, #317, #290, .T. ) ;
#606 = ORIENTED_EDGE ( 'NONE', *, *, #1111, .T. ) ;
#607 = CYLINDRICAL_SURFACE ( 'NONE', #819, 4.000000000000005329 ) ;
#608 = PLANE ( 'NONE',  #466 ) ;
#609 = VERTEX_POINT ( 'NONE', #263 ) ;
#610 = CARTESIAN_POINT ( 'NONE',  ( -6.999999999999999112, 48.17753259136854638, 381.7022324300351102 ) ) ;
#611 = ADVANCED_FACE ( 'NONE', ( #81 ), #66, .T. ) ;
#612 = VERTEX_POINT ( 'NONE', #1238 ) ;
#613 = PLANE ( 'NONE',  #941 ) ;
#614 = ADVANCED_FACE ( 'NONE', ( #934 ), #757, .F. ) ;
#615 = LINE ( 'NONE', #799, #1249 ) ;
#616 = AXIS2_PLACEMENT_3D ( 'NONE', #431, #717, #538 ) ;
#617 = VERTEX_POINT ( 'NONE', #367 ) ;
#618 = CARTESIAN_POINT ( 'NONE',  ( -57.00674397724010589, 41.01600751713783666, 397.7022324300351102 ) ) ;
#619 = VECTOR ( 'NONE', #192, 1000.000000000000000 ) ;
#620 = VERTEX_POINT ( 'NONE', #167 ) ;
#621 = CARTESIAN_POINT ( 'NONE',  ( 4.000000000000005329, 52.17753259136855348, 133.7022324300350817 ) ) ;
#622 = EDGE_CURVE ( 'NONE', #612, #1096, #831, .T. ) ;
#623 = COLOUR_RGB ( '',0.7921568627450980005, 0.8196078431372548767, 0.9333333333333333481 ) ;
#624 = CARTESIAN_POINT ( 'NONE',  ( 57.00674397724008458, 41.01600751713782955, 304.3688990967017958 ) ) ;
#625 = ORIENTED_EDGE ( 'NONE', *, *, #406, .F. ) ;
#626 = CARTESIAN_POINT ( 'NONE',  ( -57.00674397724011300, 41.01600751713782955, 211.0355657633683961 ) ) ;
#627 = ORIENTED_EDGE ( 'NONE', *, *, #630, .F. ) ;
#628 = PLANE ( 'NONE',  #1165 ) ;
#629 = DIRECTION ( 'NONE',  ( -0.000000000000000000, -0.000000000000000000, 1.000000000000000000 ) ) ;
#630 = EDGE_CURVE ( 'NONE', #572, #711, #181, .T. ) ;
#631 = VERTEX_POINT ( 'NONE', #736 ) ;
#632 = LINE ( 'NONE', #416, #252 ) ;
#633 = VERTEX_POINT ( 'NONE', #1218 ) ;
#634 = CARTESIAN_POINT ( 'NONE',  ( -7.000000000000000888, 56.17753259136854638, 381.7022324300351102 ) ) ;
#635 = FACE_OUTER_BOUND ( 'NONE', #752, .T. ) ;
#636 = ORIENTED_EDGE ( 'NONE', *, *, #918, .T. ) ;
#637 = EDGE_CURVE ( 'NONE', #528, #1223, #158, .T. ) ;
#638 = LINE ( 'NONE', #1029, #904 ) ;
#639 = CIRCLE ( 'NONE', #88, 4.000000000000006217 ) ;
#640 = ORIENTED_EDGE ( 'NONE', *, *, #291, .F. ) ;
#641 = DIRECTION ( 'NONE',  ( -0.000000000000000000, -0.000000000000000000, -1.000000000000000000 ) ) ;
#642 = AXIS2_PLACEMENT_3D ( 'NONE', #381, #185, #791 ) ;
#643 = EDGE_LOOP ( 'NONE', ( #1233, #342, #815, #600, #226, #1022, #293, #556, #336, #650, #208, #828 ) ) ;
#644 = CARTESIAN_POINT ( 'NONE',  ( -59.99999999999998579, 36.57878888070658974, 117.7022324300350817 ) ) ;
#645 = AXIS2_PLACEMENT_3D ( 'NONE', #781, #1235, #378 ) ;
#646 = ORIENTED_EDGE ( 'NONE', *, *, #338, .F. ) ;
#647 = LINE ( 'NONE', #950, #595 ) ;
#648 = ORIENTED_EDGE ( 'NONE', *, *, #62, .T. ) ;
#649 = DIRECTION ( 'NONE',  ( -1.000000000000000000, -0.000000000000000000, 9.912705577010325549E-17 ) ) ;
#650 = ORIENTED_EDGE ( 'NONE', *, *, #652, .F. ) ;
#651 = CARTESIAN_POINT ( 'NONE',  ( 60.00002500000006478, 36.57878888070658974, 397.7022324300351102 ) ) ;
#652 = EDGE_CURVE ( 'NONE', #443, #738, #311, .T. ) ;
#653 = ORIENTED_EDGE ( 'NONE', *, *, #146, .T. ) ;
#654 = CARTESIAN_POINT ( 'NONE',  ( -59.99999999999998579, 36.57878888070658974, 117.7022324300350817 ) ) ;
#655 = ORIENTED_EDGE ( 'NONE', *, *, #887, .T. ) ;
#656 = FACE_OUTER_BOUND ( 'NONE', #860, .T. ) ;
#657 = DIRECTION ( 'NONE',  ( -0.000000000000000000, -0.000000000000000000, -1.000000000000000000 ) ) ;
#658 = VECTOR ( 'NONE', #1097, 1000.000000000000000 ) ;
#659 = AXIS2_PLACEMENT_3D ( 'NONE', #561, #432, #1013 ) ;
#660 = EDGE_CURVE ( 'NONE', #56, #609, #1044, .T. ) ;
#661 = EDGE_CURVE ( 'NONE', #633, #1223, #938, .T. ) ;
#662 = DIRECTION ( 'NONE',  ( -0.000000000000000000, 1.000000000000000000, 0.000000000000000000 ) ) ;
#663 = DIRECTION ( 'NONE',  ( -1.000000000000000000, 1.084202172485504434E-16, 0.000000000000000000 ) ) ;
#664 = VERTEX_POINT ( 'NONE', #1132 ) ;
#665 = CARTESIAN_POINT ( 'NONE',  ( -6.999999999999999112, 48.17753259136854638, 381.7022324300351102 ) ) ;
#666 = AXIS2_PLACEMENT_3D ( 'NONE', #127, #449, #182 ) ;
#667 = LINE ( 'NONE', #818, #1045 ) ;
#668 = EDGE_CURVE ( 'NONE', #868, #1245, #801, .T. ) ;
#669 = ORIENTED_EDGE ( 'NONE', *, *, #199, .T. ) ;
#670 = CARTESIAN_POINT ( 'NONE',  ( -7.000000000000000888, 56.17753259136854638, 381.7022324300351102 ) ) ;
#671 = EDGE_CURVE ( 'NONE', #111, #438, #850, .T. ) ;
#672 = ORIENTED_EDGE ( 'NONE', *, *, #725, .T. ) ;
#673 = FACE_OUTER_BOUND ( 'NONE', #783, .T. ) ;
#674 = DIRECTION ( 'NONE',  ( -0.000000000000000000, -0.000000000000000000, -1.000000000000000000 ) ) ;
#675 = DIRECTION ( 'NONE',  ( 1.000000000000000000, 0.000000000000000000, 0.000000000000000000 ) ) ;
#676 = EDGE_LOOP ( 'NONE', ( #325, #1033, #956, #514 ) ) ;
#677 = DIRECTION ( 'NONE',  ( -1.000000000000000000, 0.000000000000000000, 0.000000000000000000 ) ) ;
#678 = DIRECTION ( 'NONE',  ( -1.000000000000000000, 0.000000000000000000, 9.912705577010325549E-17 ) ) ;
#679 = VECTOR ( 'NONE', #829, 1000.000000000000000 ) ;
#680 = VECTOR ( 'NONE', #90, 1000.000000000000000 ) ;
#681 = DIRECTION ( 'NONE',  ( -0.000000000000000000, -0.000000000000000000, 1.000000000000000000 ) ) ;
#682 = DIRECTION ( 'NONE',  ( -1.000000000000000000, 0.000000000000000000, 0.000000000000000000 ) ) ;
#683 = ORIENTED_EDGE ( 'NONE', *, *, #254, .T. ) ;
#684 = CARTESIAN_POINT ( 'NONE',  ( -4.000000000000000000, 58.77618519775963080, 133.7022324300350817 ) ) ;
#685 = VECTOR ( 'NONE', #897, 1000.000000000000000 ) ;
#686 = CARTESIAN_POINT ( 'NONE',  ( 0.000000000000000000, 52.17753259136855348, 357.7022324300351102 ) ) ;
#687 = EDGE_LOOP ( 'NONE', ( #549, #1180, #646, #247 ) ) ;
#688 =( LENGTH_UNIT ( ) NAMED_UNIT ( * ) SI_UNIT ( .MILLI., .METRE. ) );
#689 = EDGE_LOOP ( 'NONE', ( #149, #735, #1108, #17, #42 ) ) ;
#690 = DIRECTION ( 'NONE',  ( 1.000000000000000000, 0.000000000000000000, 0.000000000000000000 ) ) ;
#691 = EDGE_CURVE ( 'NONE', #455, #1129, #753, .T. ) ;
#692 = DIRECTION ( 'NONE',  ( 0.000000000000000000, 0.000000000000000000, 1.000000000000000000 ) ) ;
#693 = EDGE_CURVE ( 'NONE', #711, #275, #495, .T. ) ;
#694 = DIRECTION ( 'NONE',  ( -0.000000000000000000, -0.000000000000000000, 1.000000000000000000 ) ) ;
#695 = ORIENTED_EDGE ( 'NONE', *, *, #1137, .T. ) ;
#696 = LINE ( 'NONE', #573, #1030 ) ;
#697 = DIRECTION ( 'NONE',  ( -0.000000000000000000, 0.000000000000000000, 1.000000000000000000 ) ) ;
#698 = ADVANCED_FACE ( 'NONE', ( #587 ), #880, .F. ) ;
#699 = VECTOR ( 'NONE', #39, 1000.000000000000000 ) ;
#700 = DIRECTION ( 'NONE',  ( -1.000000000000000000, 0.000000000000000000, 0.000000000000000000 ) ) ;
#701 = VECTOR ( 'NONE', #1229, 1000.000000000000000 ) ;
#702 = ORIENTED_EDGE ( 'NONE', *, *, #1116, .F. ) ;
#703 = CARTESIAN_POINT ( 'NONE',  ( 10.00000000000000178, 46.17753259136855348, 117.7022324300350817 ) ) ;
#704 = ORIENTED_EDGE ( 'NONE', *, *, #909, .F. ) ;
#705 = DIRECTION ( 'NONE',  ( 1.000000000000000000, 3.337736394065249364E-16, -0.000000000000000000 ) ) ;
#706 = CLOSED_SHELL ( 'NONE', ( #316, #315, #7, #428, #132, #484, #448, #979, #433, #135, #574, #404, #614, #507, #264, #611, #856, #87, #773, #716, #989, #33, #469, #436, #1255, #126, #698, #368, #761, #1027, #1214, #1185, #1195, #461, #16, #270, #1, #499 ) ) ;
#707 = CARTESIAN_POINT ( 'NONE',  ( 4.000000000000000888, 56.17753259136854638, 133.7022324300350817 ) ) ;
#708 = VERTEX_POINT ( 'NONE', #388 ) ;
#709 = EDGE_CURVE ( 'NONE', #308, #275, #784, .T. ) ;
#710 = DIRECTION ( 'NONE',  ( -0.000000000000000000, -0.000000000000000000, 1.000000000000000000 ) ) ;
#711 = VERTEX_POINT ( 'NONE', #374 ) ;
#712 = CARTESIAN_POINT ( 'NONE',  ( -7.000000000000000888, 56.17753259136854638, 381.7022324300351102 ) ) ;
#713 = DIRECTION ( 'NONE',  ( -1.000000000000000000, -0.000000000000000000, -0.000000000000000000 ) ) ;
#714 = VERTEX_POINT ( 'NONE', #684 ) ;
#715 = LINE ( 'NONE', #326, #478 ) ;
#716 = ADVANCED_FACE ( 'NONE', ( #888 ), #1176, .F. ) ;
#717 = DIRECTION ( 'NONE',  ( 0.000000000000000000, -0.000000000000000000, -1.000000000000000000 ) ) ;
#718 = CARTESIAN_POINT ( 'NONE',  ( -6.938893903907228378E-15, -41.14378277661475636, 397.7022324300351102 ) ) ;
#719 = VERTEX_POINT ( 'NONE', #765 ) ;
#720 = LINE ( 'NONE', #322, #1048 ) ;
#721 = VECTOR ( 'NONE', #95, 1000.000000000000000 ) ;
#722 = VECTOR ( 'NONE', #852, 1000.000000000000000 ) ;
#723 = ORIENTED_EDGE ( 'NONE', *, *, #1038, .F. ) ;
#724 = CARTESIAN_POINT ( 'NONE',  ( 10.00000000000000178, 46.17753259136855348, 96.95943076871216704 ) ) ;
#725 = EDGE_CURVE ( 'NONE', #100, #868, #696, .T. ) ;
#726 = EDGE_CURVE ( 'NONE', #171, #443, #798, .T. ) ;
#727 = CIRCLE ( 'NONE', #194, 4.000000000000005329 ) ;
#728 = CARTESIAN_POINT ( 'NONE',  ( -4.000000000000006217, 52.17753259136855348, 357.7022324300351102 ) ) ;
#729 = ORIENTED_EDGE ( 'NONE', *, *, #136, .T. ) ;
#730 = CARTESIAN_POINT ( 'NONE',  ( 4.000000000000000888, 56.17753259136854638, 133.7022324300350817 ) ) ;
#731 = DIRECTION ( 'NONE',  ( -0.000000000000000000, 0.000000000000000000, 1.000000000000000000 ) ) ;
#732 = PLANE ( 'NONE',  #307 ) ;
#733 = VERTEX_POINT ( 'NONE', #1080 ) ;
#734 = LINE ( 'NONE', #261, #372 ) ;
#735 = ORIENTED_EDGE ( 'NONE', *, *, #847, .T. ) ;
#736 = CARTESIAN_POINT ( 'NONE',  ( 4.000000000000000888, 56.17753259136854638, 133.7022324300350817 ) ) ;
#737 = EDGE_CURVE ( 'NONE', #494, #262, #1157, .T. ) ;
#738 = VERTEX_POINT ( 'NONE', #112 ) ;
#739 = DIRECTION ( 'NONE',  ( -0.000000000000000000, 0.000000000000000000, 1.000000000000000000 ) ) ;
#740 = EDGE_CURVE ( 'NONE', #609, #494, #281, .T. ) ;
#741 = VECTOR ( 'NONE', #816, 1000.000000000000000 ) ;
#742 = AXIS2_PLACEMENT_3D ( 'NONE', #403, #977, #677 ) ;
#743 = ORIENTED_EDGE ( 'NONE', *, *, #837, .F. ) ;
#744 = DIRECTION ( 'NONE',  ( -1.000000000000000000, -0.000000000000000000, 9.912705577010325549E-17 ) ) ;
#745 = ORIENTED_EDGE ( 'NONE', *, *, #1248, .F. ) ;
#746 = DIRECTION ( 'NONE',  ( 3.337736394065249364E-16, -1.000000000000000000, 0.000000000000000000 ) ) ;
#747 = AXIS2_PLACEMENT_3D ( 'NONE', #517, #407, #207 ) ;
#748 = ORIENTED_EDGE ( 'NONE', *, *, #1161, .T. ) ;
#749 = DIRECTION ( 'NONE',  ( 0.000000000000000000, -0.000000000000000000, -1.000000000000000000 ) ) ;
#750 = ORIENTED_EDGE ( 'NONE', *, *, #237, .T. ) ;
#751 = CARTESIAN_POINT ( 'NONE',  ( -3.999999999999999112, 56.17753259136854638, 133.7022324300350817 ) ) ;
#752 = EDGE_LOOP ( 'NONE', ( #917, #1008, #537, #65, #541 ) ) ;
#753 = LINE ( 'NONE', #268, #1166 ) ;
#754 = CARTESIAN_POINT ( 'NONE',  ( 4.000000000000006217, 52.17753259136855348, 357.7022324300351102 ) ) ;
#755 = LINE ( 'NONE', #274, #844 ) ;
#756 = ORIENTED_EDGE ( 'NONE', *, *, #837, .T. ) ;
#757 = CYLINDRICAL_SURFACE ( 'NONE', #1089, 100.0000000000000000 ) ;
#758 = EDGE_CURVE ( 'NONE', #933, #154, #983, .T. ) ;
#759 = DIRECTION ( 'NONE',  ( -6.675472788130498728E-16, 1.000000000000000000, 0.000000000000000000 ) ) ;
#760 = AXIS2_PLACEMENT_3D ( 'NONE', #1130, #739, #557 ) ;
#761 = ADVANCED_FACE ( 'NONE', ( #209 ), #198, .F. ) ;
#762 = ORIENTED_EDGE ( 'NONE', *, *, #346, .F. ) ;
#763 = DIRECTION ( 'NONE',  ( -0.000000000000000000, 0.000000000000000000, 1.000000000000000000 ) ) ;
#764 = ORIENTED_EDGE ( 'NONE', *, *, #661, .F. ) ;
#765 = CARTESIAN_POINT ( 'NONE',  ( -3.999999999999999112, 56.17753259136854638, 397.7022324300351102 ) ) ;
#766 = VECTOR ( 'NONE', #1140, 1000.000000000000000 ) ;
#767 = DIRECTION ( 'NONE',  ( 1.000000000000000000, 6.675472788130498728E-16, 0.000000000000000000 ) ) ;
#768 = FACE_OUTER_BOUND ( 'NONE', #188, .T. ) ;
#769 = ORIENTED_EDGE ( 'NONE', *, *, #565, .F. ) ;
#770 = LINE ( 'NONE', #1068, #619 ) ;
#771 = CARTESIAN_POINT ( 'NONE',  ( -7.000000000000000000, 56.17753259136854638, 133.7022324300350817 ) ) ;
#772 = DIRECTION ( 'NONE',  ( 1.000000000000000000, 0.000000000000000000, 0.000000000000000000 ) ) ;
#773 = ADVANCED_FACE ( 'NONE', ( #673 ), #1253, .F. ) ;
#774 = DIRECTION ( 'NONE',  ( 1.000000000000000000, 0.000000000000000000, 0.000000000000000000 ) ) ;
#775 = VERTEX_POINT ( 'NONE', #106 ) ;
#776 = CARTESIAN_POINT ( 'NONE',  ( -7.000000000000000888, 56.17753259136854638, 397.7022324300351102 ) ) ;
#777 = PRODUCT_DEFINITION_SHAPE ( 'NONE', 'NONE',  #562 ) ;
#778 = DIRECTION ( 'NONE',  ( -1.000000000000000000, 0.000000000000000000, 0.000000000000000000 ) ) ;
#779 = VECTOR ( 'NONE', #259, 1000.000000000000000 ) ;
#780 = PRODUCT_DEFINITION_FORMATION_WITH_SPECIFIED_SOURCE ( 'ANY', '', #102, .NOT_KNOWN. ) ;
#781 = CARTESIAN_POINT ( 'NONE',  ( -6.938893903907228378E-15, -41.14378277661475636, 381.7022324300351102 ) ) ;
#782 = DIRECTION ( 'NONE',  ( 1.000000000000000000, 0.000000000000000000, 0.000000000000000000 ) ) ;
#783 = EDGE_LOOP ( 'NONE', ( #147, #487, #586, #961 ) ) ;
#784 = LINE ( 'NONE', #874, #93 ) ;
#785 = EDGE_CURVE ( 'NONE', #1065, #927, #555, .T. ) ;
#786 = AXIS2_PLACEMENT_3D ( 'NONE', #391, #662, #570 ) ;
#787 = CARTESIAN_POINT ( 'NONE',  ( -3.999999999999999112, 56.17753259136854638, 117.7022324300350817 ) ) ;
#788 = CARTESIAN_POINT ( 'NONE',  ( -4.000000000000005329, 52.17753259136855348, 133.7022324300350817 ) ) ;
#789 = FACE_OUTER_BOUND ( 'NONE', #1209, .T. ) ;
#790 = ORIENTED_EDGE ( 'NONE', *, *, #201, .T. ) ;
#791 = DIRECTION ( 'NONE',  ( -1.000000000000000000, 0.000000000000000000, 0.000000000000000000 ) ) ;
#792 = CARTESIAN_POINT ( 'NONE',  ( 7.000000000000000000, 56.17753259136854638, 133.7022324300350817 ) ) ;
#793 = CARTESIAN_POINT ( 'NONE',  ( -10.00000000000000000, 51.17753259136854638, 96.95943076871216704 ) ) ;
#794 = ORIENTED_EDGE ( 'NONE', *, *, #377, .T. ) ;
#795 = CARTESIAN_POINT ( 'NONE',  ( 60.00000000000001421, 39.01795136154723309, 397.7022324300351102 ) ) ;
#796 = CARTESIAN_POINT ( 'NONE',  ( 60.00000000000001421, 58.85624222338523737, 117.7022324300350817 ) ) ;
#797 = VECTOR ( 'NONE', #125, 1000.000000000000000 ) ;
#798 = CIRCLE ( 'NONE', #865, 4.000000000000005329 ) ;
#799 = CARTESIAN_POINT ( 'NONE',  ( 7.000000000000000000, 48.17753259136854638, 381.7022324300351102 ) ) ;
#800 = SHAPE_DEFINITION_REPRESENTATION ( #777, #398 ) ;
#801 = CIRCLE ( 'NONE', #1003, 100.0000000000000000 ) ;
#802 = VECTOR ( 'NONE', #932, 1000.000000000000000 ) ;
#803 = ORIENTED_EDGE ( 'NONE', *, *, #239, .T. ) ;
#804 = LINE ( 'NONE', #129, #986 ) ;
#805 = LINE ( 'NONE', #1192, #741 ) ;
#806 = AXIS2_PLACEMENT_3D ( 'NONE', #46, #958, #1152 ) ;
#807 = FACE_OUTER_BOUND ( 'NONE', #898, .T. ) ;
#808 = EDGE_LOOP ( 'NONE', ( #191, #535, #1133, #260 ) ) ;
#809 = DIRECTION ( 'NONE',  ( 1.000000000000000000, 0.000000000000000000, 0.000000000000000000 ) ) ;
#810 = ORIENTED_EDGE ( 'NONE', *, *, #1053, .T. ) ;
#811 = DIRECTION ( 'NONE',  ( -0.000000000000000000, -0.000000000000000000, -1.000000000000000000 ) ) ;
#812 = CARTESIAN_POINT ( 'NONE',  ( 60.00000000000000000, 39.01795136154724020, 117.7022324300350817 ) ) ;
#813 = ORIENTED_EDGE ( 'NONE', *, *, #49, .T. ) ;
#814 = DIRECTION ( 'NONE',  ( 1.084202172485504434E-16, 1.000000000000000000, -0.000000000000000000 ) ) ;
#815 = ORIENTED_EDGE ( 'NONE', *, *, #354, .T. ) ;
#816 = DIRECTION ( 'NONE',  ( -0.000000000000000000, -1.000000000000000000, 0.000000000000000000 ) ) ;
#817 = AXIS2_PLACEMENT_3D ( 'NONE', #240, #629, #1019 ) ;
#818 = CARTESIAN_POINT ( 'NONE',  ( 6.999999999999999112, 56.17753259136854638, 381.7022324300351102 ) ) ;
#819 = AXIS2_PLACEMENT_3D ( 'NONE', #57, #811, #337 ) ;
#820 = ORIENTED_EDGE ( 'NONE', *, *, #1239, .T. ) ;
#821 = LINE ( 'NONE', #423, #965 ) ;
#822 = VECTOR ( 'NONE', #294, 1000.000000000000000 ) ;
#823 = ORIENTED_EDGE ( 'NONE', *, *, #383, .T. ) ;
#824 = CARTESIAN_POINT ( 'NONE',  ( 6.999999999999999112, 56.17753259136854638, 381.7022324300351102 ) ) ;
#825 = EDGE_CURVE ( 'NONE', #362, #1049, #303, .T. ) ;
#826 = CIRCLE ( 'NONE', #806, 100.0000000000000000 ) ;
#827 = FACE_OUTER_BOUND ( 'NONE', #1075, .T. ) ;
#828 = ORIENTED_EDGE ( 'NONE', *, *, #344, .F. ) ;
#829 = DIRECTION ( 'NONE',  ( 3.337736394065249364E-16, -1.000000000000000000, -0.000000000000000000 ) ) ;
#830 = ORIENTED_EDGE ( 'NONE', *, *, #156, .T. ) ;
#831 = LINE ( 'NONE', #665, #134 ) ;
#832 = CARTESIAN_POINT ( 'NONE',  ( -4.000000000000000000, 58.77618519775963080, 133.7022324300350817 ) ) ;
#833 = ORIENTED_EDGE ( 'NONE', *, *, #825, .T. ) ;
#834 = CARTESIAN_POINT ( 'NONE',  ( -52.83928462801132753, 36.57878888070658974, 397.7022324300351102 ) ) ;
#835 = ORIENTED_EDGE ( 'NONE', *, *, #582, .F. ) ;
#836 = CARTESIAN_POINT ( 'NONE',  ( 6.999999999999999112, 56.17753259136854638, 397.7022324300351102 ) ) ;
#837 = EDGE_CURVE ( 'NONE', #280, #617, #476, .T. ) ;
#838 = ORIENTED_EDGE ( 'NONE', *, *, #146, .F. ) ;
#839 = DIRECTION ( 'NONE',  ( -1.000000000000000000, 0.000000000000000000, 0.000000000000000000 ) ) ;
#840 = AXIS2_PLACEMENT_3D ( 'NONE', #1177, #697, #107 ) ;
#841 = VECTOR ( 'NONE', #641, 1000.000000000000000 ) ;
#842 = VERTEX_POINT ( 'NONE', #482 ) ;
#843 = CARTESIAN_POINT ( 'NONE',  ( -10.00000000000000000, 51.17753259136854638, 117.7022324300350817 ) ) ;
#844 = VECTOR ( 'NONE', #1023, 1000.000000000000000 ) ;
#845 = CIRCLE ( 'NONE', #645, 100.0000000000000000 ) ;
#846 = ORIENTED_EDGE ( 'NONE', *, *, #726, .T. ) ;
#847 = EDGE_CURVE ( 'NONE', #228, #1119, #770, .T. ) ;
#848 = CARTESIAN_POINT ( 'NONE',  ( 10.00000000000000355, 48.94132020700916286, 397.7022324300351102 ) ) ;
#849 = ORIENTED_EDGE ( 'NONE', *, *, #622, .T. ) ;
#850 = LINE ( 'NONE', #1234, #460 ) ;
#851 = VERTEX_POINT ( 'NONE', #101 ) ;
#852 = DIRECTION ( 'NONE',  ( -1.000000000000000000, -0.000000000000000000, -0.000000000000000000 ) ) ;
#853 = EDGE_CURVE ( 'NONE', #139, #603, #579, .T. ) ;
#854 = ORIENTED_EDGE ( 'NONE', *, *, #330, .F. ) ;
#855 = CARTESIAN_POINT ( 'NONE',  ( -9.999999999999998224, 46.17753259136855348, 96.95943076871216704 ) ) ;
#856 = ADVANCED_FACE ( 'NONE', ( #29 ), #48, .T. ) ;
#857 = PRESENTATION_STYLE_ASSIGNMENT (( #345 ) ) ;
#858 = PLANE ( 'NONE',  #972 ) ;
#859 = LINE ( 'NONE', #1154, #680 ) ;
#860 = EDGE_LOOP ( 'NONE', ( #380, #35, #640, #803 ) ) ;
#861 = DIRECTION ( 'NONE',  ( 0.000000000000000000, -1.000000000000000000, 0.000000000000000000 ) ) ;
#862 = VECTOR ( 'NONE', #489, 1000.000000000000000 ) ;
#863 = CARTESIAN_POINT ( 'NONE',  ( 4.000000000000000888, 56.17753259136854638, 397.7022324300351102 ) ) ;
#864 = EDGE_CURVE ( 'NONE', #258, #620, #715, .T. ) ;
#865 = AXIS2_PLACEMENT_3D ( 'NONE', #1172, #1164, #4 ) ;
#866 = FACE_OUTER_BOUND ( 'NONE', #676, .T. ) ;
#867 = CARTESIAN_POINT ( 'NONE',  ( -7.000000000000000888, 56.17753259136854638, 381.7022324300351102 ) ) ;
#868 = VERTEX_POINT ( 'NONE', #227 ) ;
#869 = CARTESIAN_POINT ( 'NONE',  ( -7.000000000000000888, 48.17753259136854638, 133.7022324300350817 ) ) ;
#870 = EDGE_CURVE ( 'NONE', #159, #467, #123, .T. ) ;
#871 = DIRECTION ( 'NONE',  ( 1.000000000000000000, 0.000000000000000000, 0.000000000000000000 ) ) ;
#872 = DIRECTION ( 'NONE',  ( 0.000000000000000000, -1.000000000000000000, 0.000000000000000000 ) ) ;
#873 = ORIENTED_EDGE ( 'NONE', *, *, #136, .F. ) ;
#874 = CARTESIAN_POINT ( 'NONE',  ( 4.000000000000000888, 56.17753259136854638, 381.7022324300351102 ) ) ;
#875 = CARTESIAN_POINT ( 'NONE',  ( 0.000000000000000000, 52.17753259136855348, 133.7022324300350817 ) ) ;
#876 = EDGE_CURVE ( 'NONE', #464, #617, #1123, .T. ) ;
#877 = ORIENTED_EDGE ( 'NONE', *, *, #637, .T. ) ;
#878 = EDGE_CURVE ( 'NONE', #631, #943, #632, .T. ) ;
#879 = EDGE_LOOP ( 'NONE', ( #80, #1017, #532, #655 ) ) ;
#880 = CYLINDRICAL_SURFACE ( 'NONE', #210, 4.000000000000006217 ) ;
#881 = DIRECTION ( 'NONE',  ( 0.000000000000000000, -0.000000000000000000, 1.000000000000000000 ) ) ;
#882 = VECTOR ( 'NONE', #505, 1000.000000000000000 ) ;
#883 = AXIS2_PLACEMENT_3D ( 'NONE', #36, #1101, #1007 ) ;
#884 = AXIS2_PLACEMENT_3D ( 'NONE', #486, #493, #178 ) ;
#885 = CYLINDRICAL_SURFACE ( 'NONE', #583, 100.0000000000000000 ) ;
#886 = CARTESIAN_POINT ( 'NONE',  ( 4.000000000000000888, 56.17753259136854638, 381.7022324300351102 ) ) ;
#887 = EDGE_CURVE ( 'NONE', #258, #1102, #118, .T. ) ;
#888 = FACE_OUTER_BOUND ( 'NONE', #935, .T. ) ;
#889 = DIRECTION ( 'NONE',  ( -6.675472788130498728E-16, 1.000000000000000000, 0.000000000000000000 ) ) ;
#890 = FACE_OUTER_BOUND ( 'NONE', #475, .T. ) ;
#891 = APPLICATION_PROTOCOL_DEFINITION ( 'draft international standard', 'automotive_design', 1998, #91 ) ;
#892 = EDGE_LOOP ( 'NONE', ( #141, #122, #748, #1175 ) ) ;
#893 = LINE ( 'NONE', #899, #417 ) ;
#894 = ORIENTED_EDGE ( 'NONE', *, *, #909, .T. ) ;
#895 = CARTESIAN_POINT ( 'NONE',  ( -4.000000000000005329, 52.17753259136855348, 157.7022324300350817 ) ) ;
#896 = EDGE_CURVE ( 'NONE', #83, #387, #821, .T. ) ;
#897 = DIRECTION ( 'NONE',  ( -0.000000000000000000, -0.000000000000000000, 1.000000000000000000 ) ) ;
#898 = EDGE_LOOP ( 'NONE', ( #794, #530 ) ) ;
#899 = CARTESIAN_POINT ( 'NONE',  ( -6.999999999999999112, 48.17753259136854638, 397.7022324300351102 ) ) ;
#900 = EDGE_LOOP ( 'NONE', ( #1028, #606, #1163, #479 ) ) ;
#901 = CARTESIAN_POINT ( 'NONE',  ( -7.000000000000000888, 48.17753259136854638, 133.7022324300350817 ) ) ;
#902 = EDGE_CURVE ( 'NONE', #1096, #572, #893, .T. ) ;
#903 = VECTOR ( 'NONE', #1204, 1000.000000000000000 ) ;
#904 = VECTOR ( 'NONE', #649, 1000.000000000000000 ) ;
#905 = FILL_AREA_STYLE_COLOUR ( '', #623 ) ;
#906 = ORIENTED_EDGE ( 'NONE', *, *, #1032, .F. ) ;
#907 = CARTESIAN_POINT ( 'NONE',  ( -59.99999999999998579, 58.85624222338523737, 117.7022324300350817 ) ) ;
#908 = CARTESIAN_POINT ( 'NONE',  ( -4.000000000000000000, 58.77618519775963080, 117.7022324300350817 ) ) ;
#909 = EDGE_CURVE ( 'NONE', #1156, #349, #1107, .T. ) ;
#910 = VECTOR ( 'NONE', #301, 1000.000000000000000 ) ;
#911 = CARTESIAN_POINT ( 'NONE',  ( -7.000000000000000888, 56.17753259136854638, 381.7022324300351102 ) ) ;
#912 = VERTEX_POINT ( 'NONE', #221 ) ;
#913 = FACE_OUTER_BOUND ( 'NONE', #105, .T. ) ;
#914 = CARTESIAN_POINT ( 'NONE',  ( 6.999999999999999112, 56.17753259136854638, 381.7022324300351102 ) ) ;
#915 = DIRECTION ( 'NONE',  ( -0.000000000000000000, 0.000000000000000000, 1.000000000000000000 ) ) ;
#916 = EDGE_CURVE ( 'NONE', #77, #402, #67, .T. ) ;
#917 = ORIENTED_EDGE ( 'NONE', *, *, #605, .F. ) ;
#918 = EDGE_CURVE ( 'NONE', #708, #1119, #1244, .T. ) ;
#919 = CARTESIAN_POINT ( 'NONE',  ( -4.000000000000000000, 58.77618519775963080, 381.7022324300351102 ) ) ;
#920 = ORIENTED_EDGE ( 'NONE', *, *, #725, .F. ) ;
#921 = DIRECTION ( 'NONE',  ( -1.000000000000000000, -0.000000000000000000, -0.000000000000000000 ) ) ;
#922 = SURFACE_SIDE_STYLE ('',( #472 ) ) ;
#923 = AXIS2_PLACEMENT_3D ( 'NONE', #1173, #692, #389 ) ;
#924 = ORIENTED_EDGE ( 'NONE', *, *, #1032, .T. ) ;
#925 = CARTESIAN_POINT ( 'NONE',  ( -7.000000000000000000, 56.17753259136854638, 117.7022324300350817 ) ) ;
#926 = VECTOR ( 'NONE', #286, 1000.000000000000000 ) ;
#927 = VERTEX_POINT ( 'NONE', #144 ) ;
#928 = CARTESIAN_POINT ( 'NONE',  ( -7.000000000000000000, 48.17753259136854638, 117.7022324300350817 ) ) ;
#929 = AXIS2_PLACEMENT_3D ( 'NONE', #138, #413, #426 ) ;
#930 = CARTESIAN_POINT ( 'NONE',  ( 12.00000000000000178, 48.94132020700916286, 117.7022324300350817 ) ) ;
#931 = EDGE_LOOP ( 'NONE', ( #1221, #1100, #410, #1106 ) ) ;
#932 = DIRECTION ( 'NONE',  ( 3.469446951953616161E-16, -1.000000000000000000, 0.000000000000000000 ) ) ;
#933 = VERTEX_POINT ( 'NONE', #795 ) ;
#934 = FACE_OUTER_BOUND ( 'NONE', #900, .T. ) ;
#935 = EDGE_LOOP ( 'NONE', ( #166, #143, #1062, #558 ) ) ;
#936 = DIRECTION ( 'NONE',  ( -0.000000000000000000, -0.000000000000000000, -1.000000000000000000 ) ) ;
#937 = ORIENTED_EDGE ( 'NONE', *, *, #564, .T. ) ;
#938 = LINE ( 'NONE', #843, #701 ) ;
#939 = ORIENTED_EDGE ( 'NONE', *, *, #516, .T. ) ;
#940 = LINE ( 'NONE', #751, #1187 ) ;
#941 = AXIS2_PLACEMENT_3D ( 'NONE', #244, #731, #996 ) ;
#942 = VECTOR ( 'NONE', #1085, 1000.000000000000000 ) ;
#943 = VERTEX_POINT ( 'NONE', #527 ) ;
#944 = DIRECTION ( 'NONE',  ( 0.000000000000000000, 0.000000000000000000, -1.000000000000000000 ) ) ;
#945 = CIRCLE ( 'NONE', #1031, 100.0000000000000000 ) ;
#946 = PRESENTATION_LAYER_ASSIGNMENT (  '', '', ( #234 ) ) ;
#947 = EDGE_LOOP ( 'NONE', ( #762, #131, #1131, #1079, #422, #214, #184, #1135, #347, #197, #939, #672, #427, #547, #894, #669, #249, #750, #1015, #1006, #970, #296 ) ) ;
#948 = CARTESIAN_POINT ( 'NONE',  ( -7.000000000000000888, 56.17753259136854638, 397.7022324300351102 ) ) ;
#949 = EDGE_LOOP ( 'NONE', ( #743, #1043, #683, #157, #462, #312, #222, #204, #1121, #653, #591, #340 ) ) ;
#950 = CARTESIAN_POINT ( 'NONE',  ( -9.999999999999998224, 46.17753259136855348, 397.7022324300351102 ) ) ;
#951 = PLANE ( 'NONE',  #659 ) ;
#952 = VECTOR ( 'NONE', #534, 1000.000000000000000 ) ;
#953 = LINE ( 'NONE', #89, #524 ) ;
#954 = DIRECTION ( 'NONE',  ( 0.000000000000000000, 0.000000000000000000, -1.000000000000000000 ) ) ;
#955 = EDGE_CURVE ( 'NONE', #988, #1065, #720, .T. ) ;
#956 = ORIENTED_EDGE ( 'NONE', *, *, #412, .T. ) ;
#957 = CARTESIAN_POINT ( 'NONE',  ( 10.00000000000000178, 46.17753259136855348, 96.95943076871216704 ) ) ;
#958 = DIRECTION ( 'NONE',  ( -0.000000000000000000, -0.000000000000000000, 1.000000000000000000 ) ) ;
#959 = LINE ( 'NONE', #1153, #97 ) ;
#960 = PLANE ( 'NONE',  #292 ) ;
#961 = ORIENTED_EDGE ( 'NONE', *, *, #62, .F. ) ;
#962 = CARTESIAN_POINT ( 'NONE',  ( 4.000000000000000000, 58.77618519775963080, 133.7022324300350817 ) ) ;
#963 = CIRCLE ( 'NONE', #616, 4.000000000000006217 ) ;
#964 = EDGE_CURVE ( 'NONE', #631, #321, #999, .T. ) ;
#965 = VECTOR ( 'NONE', #509, 1000.000000000000000 ) ;
#966 = FACE_OUTER_BOUND ( 'NONE', #947, .T. ) ;
#967 = AXIS2_PLACEMENT_3D ( 'NONE', #84, #763, #774 ) ;
#968 = PLANE ( 'NONE',  #1035 ) ;
#969 = DIRECTION ( 'NONE',  ( -0.000000000000000000, 0.000000000000000000, -1.000000000000000000 ) ) ;
#970 = ORIENTED_EDGE ( 'NONE', *, *, #887, .F. ) ;
#971 = DIRECTION ( 'NONE',  ( -1.000000000000000000, -0.000000000000000000, 9.912705577010325549E-17 ) ) ;
#972 = AXIS2_PLACEMENT_3D ( 'NONE', #202, #278, #284 ) ;
#973 = DIRECTION ( 'NONE',  ( -0.000000000000000000, 0.000000000000000000, 1.000000000000000000 ) ) ;
#974 = ORIENTED_EDGE ( 'NONE', *, *, #1248, .T. ) ;
#975 = APPLICATION_PROTOCOL_DEFINITION ( 'draft international standard', 'automotive_design', 1998, #546 ) ;
#976 = EDGE_LOOP ( 'NONE', ( #71, #1073, #830, #756 ) ) ;
#977 = DIRECTION ( 'NONE',  ( 0.000000000000000000, 0.000000000000000000, -1.000000000000000000 ) ) ;
#978 = DIRECTION ( 'NONE',  ( 1.000000000000000000, 0.000000000000000000, -9.912705577010325549E-17 ) ) ;
#979 = ADVANCED_FACE ( 'NONE', ( #913 ), #233, .F. ) ;
#980 = DIRECTION ( 'NONE',  ( -1.000000000000000000, -3.469446951953616161E-16, 0.000000000000000000 ) ) ;
#981 = CARTESIAN_POINT ( 'NONE',  ( -9.999999999999998224, 46.17753259136855348, 397.7022324300351102 ) ) ;
#982 = ORIENTED_EDGE ( 'NONE', *, *, #1147, .F. ) ;
#983 = LINE ( 'NONE', #1063, #942 ) ;
#984 = DIRECTION ( 'NONE',  ( 1.000000000000000000, 0.000000000000000000, 0.000000000000000000 ) ) ;
#985 = VECTOR ( 'NONE', #744, 1000.000000000000000 ) ;
#986 = VECTOR ( 'NONE', #746, 1000.000000000000000 ) ;
#987 = DIRECTION ( 'NONE',  ( 0.000000000000000000, 0.000000000000000000, -1.000000000000000000 ) ) ;
#988 = VERTEX_POINT ( 'NONE', #242 ) ;
#989 = ADVANCED_FACE ( 'NONE', ( #1181 ), #429, .F. ) ;
#990 = CARTESIAN_POINT ( 'NONE',  ( -52.83928462801132042, 36.57878888070658974, 478.0000000000001137 ) ) ;
#991 = CARTESIAN_POINT ( 'NONE',  ( -7.000000000000000000, 56.17753259136854638, 117.7022324300350817 ) ) ;
#992 = CARTESIAN_POINT ( 'NONE',  ( 4.000000000000006217, 52.17753259136855348, 357.7022324300351102 ) ) ;
#993 = ORIENTED_EDGE ( 'NONE', *, *, #55, .F. ) ;
#994 = DIRECTION ( 'NONE',  ( -1.000000000000000000, 0.000000000000000000, 0.000000000000000000 ) ) ;
#995 = ORIENTED_EDGE ( 'NONE', *, *, #124, .T. ) ;
#996 = DIRECTION ( 'NONE',  ( 1.000000000000000000, 0.000000000000000000, 0.000000000000000000 ) ) ;
#997 = CARTESIAN_POINT ( 'NONE',  ( -7.000000000000000888, 48.17753259136854638, 133.7022324300350817 ) ) ;
#998 = ORIENTED_EDGE ( 'NONE', *, *, #1178, .T. ) ;
#999 = LINE ( 'NONE', #730, #658 ) ;
#1000 = EDGE_LOOP ( 'NONE', ( #854, #128, #627, #44, #723, #982, #360, #702, #232, #937, #906, #974, #1144, #695, #353, #60, #63, #790, #835, #180, #243, #838 ) ) ;
#1001 = DIRECTION ( 'NONE',  ( 0.000000000000000000, -0.000000000000000000, 1.000000000000000000 ) ) ;
#1002 = AXIS2_PLACEMENT_3D ( 'NONE', #796, #678, #5 ) ;
#1003 = AXIS2_PLACEMENT_3D ( 'NONE', #554, #75, #465 ) ;
#1004 = CARTESIAN_POINT ( 'NONE',  ( -3.999999999999999112, 56.17753259136854638, 133.7022324300350817 ) ) ;
#1005 = AXIS2_PLACEMENT_3D ( 'NONE', #189, #500, #682 ) ;
#1006 = ORIENTED_EDGE ( 'NONE', *, *, #1021, .T. ) ;
#1007 = DIRECTION ( 'NONE',  ( 1.000000000000000000, 0.000000000000000000, 0.000000000000000000 ) ) ;
#1008 = ORIENTED_EDGE ( 'NONE', *, *, #406, .T. ) ;
#1009 = CARTESIAN_POINT ( 'NONE',  ( -59.99999999999995737, 58.85624222338523737, 397.7022324300351102 ) ) ;
#1010 = AXIS2_PLACEMENT_3D ( 'NONE', #1159, #577, #584 ) ;
#1011 = EDGE_CURVE ( 'NONE', #620, #402, #271, .T. ) ;
#1012 = EDGE_CURVE ( 'NONE', #508, #387, #804, .T. ) ;
#1013 = DIRECTION ( 'NONE',  ( 0.000000000000000000, -0.000000000000000000, 1.000000000000000000 ) ) ;
#1014 = AXIS2_PLACEMENT_3D ( 'NONE', #930, #915, #442 ) ;
#1015 = ORIENTED_EDGE ( 'NONE', *, *, #1162, .T. ) ;
#1016 = CARTESIAN_POINT ( 'NONE',  ( -57.00674397724010589, 41.01600751713783666, 117.7022324300350817 ) ) ;
#1017 = ORIENTED_EDGE ( 'NONE', *, *, #564, .F. ) ;
#1018 = FACE_OUTER_BOUND ( 'NONE', #512, .T. ) ;
#1019 = DIRECTION ( 'NONE',  ( 1.000000000000000000, 0.000000000000000000, 0.000000000000000000 ) ) ;
#1020 = EDGE_CURVE ( 'NONE', #708, #111, #1120, .T. ) ;
#1021 = EDGE_CURVE ( 'NONE', #362, #1102, #638, .T. ) ;
#1022 = ORIENTED_EDGE ( 'NONE', *, *, #156, .F. ) ;
#1023 = DIRECTION ( 'NONE',  ( -1.000000000000000000, -0.000000000000000000, -0.000000000000000000 ) ) ;
#1024 = VERTEX_POINT ( 'NONE', #456 ) ;
#1025 = DIRECTION ( 'NONE',  ( -0.000000000000000000, 1.000000000000000000, 0.000000000000000000 ) ) ;
#1026 = DIRECTION ( 'NONE',  ( 1.000000000000000000, 0.000000000000000000, 0.000000000000000000 ) ) ;
#1027 = ADVANCED_FACE ( 'NONE', ( #54 ), #355, .F. ) ;
#1028 = ORIENTED_EDGE ( 'NONE', *, *, #201, .F. ) ;
#1029 = CARTESIAN_POINT ( 'NONE',  ( 60.00002500000004346, 36.57878888070658974, 117.7022324300350675 ) ) ;
#1030 = VECTOR ( 'NONE', #971, 1000.000000000000000 ) ;
#1031 = AXIS2_PLACEMENT_3D ( 'NONE', #1037, #1141, #839 ) ;
#1032 = EDGE_CURVE ( 'NONE', #1049, #664, #1042, .T. ) ;
#1033 = ORIENTED_EDGE ( 'NONE', *, *, #354, .F. ) ;
#1034 = CARTESIAN_POINT ( 'NONE',  ( 0.000000000000000000, 52.17753259136855348, 133.7022324300350817 ) ) ;
#1035 = AXIS2_PLACEMENT_3D ( 'NONE', #98, #485, #183 ) ;
#1036 = VERTEX_POINT ( 'NONE', #1236 ) ;
#1037 = CARTESIAN_POINT ( 'NONE',  ( -6.938893903907228378E-15, -41.14378277661475636, 397.7022324300351102 ) ) ;
#1038 = EDGE_CURVE ( 'NONE', #912, #1096, #59, .T. ) ;
#1039 = ORIENTED_EDGE ( 'NONE', *, *, #594, .F. ) ;
#1040 = DIRECTION ( 'NONE',  ( 0.000000000000000000, 0.000000000000000000, 1.000000000000000000 ) ) ;
#1041 = ORIENTED_EDGE ( 'NONE', *, *, #660, .T. ) ;
#1042 = LINE ( 'NONE', #463, #1070 ) ;
#1043 = ORIENTED_EDGE ( 'NONE', *, *, #19, .T. ) ;
#1044 = LINE ( 'NONE', #350, #69 ) ;
#1045 = VECTOR ( 'NONE', #1247, 1000.000000000000000 ) ;
#1046 = ORIENTED_EDGE ( 'NONE', *, *, #565, .T. ) ;
#1047 = CARTESIAN_POINT ( 'NONE',  ( -10.00000000000000000, 51.17753259136854638, 397.7022324300351102 ) ) ;
#1048 = VECTOR ( 'NONE', #23, 1000.000000000000000 ) ;
#1049 = VERTEX_POINT ( 'NONE', #834 ) ;
#1050 = CARTESIAN_POINT ( 'NONE',  ( -7.000000000000000000, 56.17753259136854638, 133.7022324300350817 ) ) ;
#1051 = AXIS2_PLACEMENT_3D ( 'NONE', #867, #1149, #1251 ) ;
#1052 = CARTESIAN_POINT ( 'NONE',  ( 57.00674397724008458, 41.01600751713782955, 211.0355657633684530 ) ) ;
#1053 = EDGE_CURVE ( 'NONE', #139, #494, #548, .T. ) ;
#1054 = EDGE_CURVE ( 'NONE', #467, #719, #165, .T. ) ;
#1055 = MECHANICAL_DESIGN_GEOMETRIC_PRESENTATION_REPRESENTATION (  '', ( #234 ), #335 ) ;
#1056 = CARTESIAN_POINT ( 'NONE',  ( 7.000000000000000000, 48.17753259136854638, 133.7022324300350817 ) ) ;
#1057 = FACE_OUTER_BOUND ( 'NONE', #85, .T. ) ;
#1058 = ORIENTED_EDGE ( 'NONE', *, *, #41, .F. ) ;
#1059 = DIRECTION ( 'NONE',  ( -0.000000000000000000, -0.000000000000000000, 1.000000000000000000 ) ) ;
#1060 = CARTESIAN_POINT ( 'NONE',  ( 0.000000000000000000, 52.17753259136855348, 381.7022324300351102 ) ) ;
#1061 = CARTESIAN_POINT ( 'NONE',  ( 60.00000000000004263, 36.57878888070658974, 397.7022324300351102 ) ) ;
#1062 = ORIENTED_EDGE ( 'NONE', *, *, #785, .F. ) ;
#1063 = CARTESIAN_POINT ( 'NONE',  ( 59.99999999999999289, 39.01795136154724730, -97.29776756996535880 ) ) ;
#1064 = LINE ( 'NONE', #575, #862 ) ;
#1065 = VERTEX_POINT ( 'NONE', #848 ) ;
#1066 = DIRECTION ( 'NONE',  ( -1.000000000000000000, -0.000000000000000000, -0.000000000000000000 ) ) ;
#1067 = ORIENTED_EDGE ( 'NONE', *, *, #199, .F. ) ;
#1068 = CARTESIAN_POINT ( 'NONE',  ( -4.000000000000006217, 52.17753259136855348, 357.7022324300351102 ) ) ;
#1069 = EDGE_CURVE ( 'NONE', #77, #258, #212, .T. ) ;
#1070 = VECTOR ( 'NONE', #1125, 1000.000000000000000 ) ;
#1071 = PLANE ( 'NONE',  #1088 ) ;
#1072 = AXIS2_PLACEMENT_3D ( 'NONE', #279, #663, #1160 ) ;
#1073 = ORIENTED_EDGE ( 'NONE', *, *, #964, .F. ) ;
#1074 = VECTOR ( 'NONE', #1090, 1000.000000000000000 ) ;
#1075 = EDGE_LOOP ( 'NONE', ( #820, #920, #434, #1148 ) ) ;
#1076 = CARTESIAN_POINT ( 'NONE',  ( -7.000000000000000888, 48.17753259136854638, 117.7022324300350817 ) ) ;
#1077 = FACE_OUTER_BOUND ( 'NONE', #255, .T. ) ;
#1078 = ORIENTED_EDGE ( 'NONE', *, *, #671, .F. ) ;
#1079 = ORIENTED_EDGE ( 'NONE', *, *, #737, .F. ) ;
#1080 = CARTESIAN_POINT ( 'NONE',  ( -12.24489795918367285, 50.92626982591330886, 117.7022324300350817 ) ) ;
#1081 = DIRECTION ( 'NONE',  ( 1.000000000000000000, 0.000000000000000000, 0.000000000000000000 ) ) ;
#1082 = EDGE_CURVE ( 'NONE', #664, #1102, #1227, .T. ) ;
#1083 = CARTESIAN_POINT ( 'NONE',  ( 7.000000000000000000, 48.17753259136854638, 381.7022324300351102 ) ) ;
#1084 = ORIENTED_EDGE ( 'NONE', *, *, #594, .T. ) ;
#1085 = DIRECTION ( 'NONE',  ( -0.000000000000000000, -0.000000000000000000, -1.000000000000000000 ) ) ;
#1086 = VECTOR ( 'NONE', #1026, 1000.000000000000000 ) ;
#1087 = DIRECTION ( 'NONE',  ( 0.000000000000000000, 0.000000000000000000, 1.000000000000000000 ) ) ;
#1088 = AXIS2_PLACEMENT_3D ( 'NONE', #103, #978, #529 ) ;
#1089 = AXIS2_PLACEMENT_3D ( 'NONE', #453, #944, #250 ) ;
#1090 = DIRECTION ( 'NONE',  ( -1.000000000000000000, 0.000000000000000000, 0.000000000000000000 ) ) ;
#1091 = ORIENTED_EDGE ( 'NONE', *, *, #1020, .T. ) ;
#1092 = CARTESIAN_POINT ( 'NONE',  ( -9.999999999999998224, 46.17753259136855348, 96.95943076871216704 ) ) ;
#1093 = ORIENTED_EDGE ( 'NONE', *, *, #283, .F. ) ;
#1094 = LINE ( 'NONE', #522, #797 ) ;
#1095 = DIRECTION ( 'NONE',  ( 0.000000000000000000, 0.000000000000000000, -1.000000000000000000 ) ) ;
#1096 = VERTEX_POINT ( 'NONE', #451 ) ;
#1097 = DIRECTION ( 'NONE',  ( -0.000000000000000000, -0.000000000000000000, -1.000000000000000000 ) ) ;
#1098 = FACE_OUTER_BOUND ( 'NONE', #1237, .T. ) ;
#1099 = FACE_OUTER_BOUND ( 'NONE', #949, .T. ) ;
#1100 = ORIENTED_EDGE ( 'NONE', *, *, #691, .F. ) ;
#1101 = DIRECTION ( 'NONE',  ( -0.000000000000000000, 0.000000000000000000, 1.000000000000000000 ) ) ;
#1102 = VERTEX_POINT ( 'NONE', #654 ) ;
#1103 = CARTESIAN_POINT ( 'NONE',  ( -10.00000000000000000, 48.94132020700916286, 397.7022324300351102 ) ) ;
#1104 = AXIS2_PLACEMENT_3D ( 'NONE', #1183, #705, #313 ) ;
#1105 = DIRECTION ( 'NONE',  ( -6.675472788130498728E-16, 1.000000000000000000, 0.000000000000000000 ) ) ;
#1106 = ORIENTED_EDGE ( 'NONE', *, *, #709, .T. ) ;
#1107 = LINE ( 'NONE', #703, #331 ) ;
#1108 = ORIENTED_EDGE ( 'NONE', *, *, #918, .F. ) ;
#1109 = DIRECTION ( 'NONE',  ( -1.084202172485504434E-16, 1.000000000000000000, 0.000000000000000000 ) ) ;
#1110 = VECTOR ( 'NONE', #511, 1000.000000000000000 ) ;
#1111 = EDGE_CURVE ( 'NONE', #927, #1245, #734, .T. ) ;
#1112 = FACE_OUTER_BOUND ( 'NONE', #689, .T. ) ;
#1113 = VERTEX_POINT ( 'NONE', #552 ) ;
#1114 = CARTESIAN_POINT ( 'NONE',  ( 0.000000000000000000, 52.17753259136855348, 381.7022324300351102 ) ) ;
#1115 = FACE_OUTER_BOUND ( 'NONE', #808, .T. ) ;
#1116 = EDGE_CURVE ( 'NONE', #402, #467, #945, .T. ) ;
#1117 = LINE ( 'NONE', #832, #238 ) ;
#1118 = EDGE_CURVE ( 'NONE', #714, #83, #940, .T. ) ;
#1119 = VERTEX_POINT ( 'NONE', #161 ) ;
#1120 = LINE ( 'NONE', #248, #1143 ) ;
#1121 = ORIENTED_EDGE ( 'NONE', *, *, #691, .T. ) ;
#1122 = LINE ( 'NONE', #855, #437 ) ;
#1123 = CIRCLE ( 'NONE', #883, 100.0000000000000000 ) ;
#1124 = ORIENTED_EDGE ( 'NONE', *, *, #516, .F. ) ;
#1125 = DIRECTION ( 'NONE',  ( -1.000000000000000000, -0.000000000000000000, 9.912705577010325549E-17 ) ) ;
#1126 = ORIENTED_EDGE ( 'NONE', *, *, #758, .F. ) ;
#1127 = CYLINDRICAL_SURFACE ( 'NONE', #1142, 100.0000000000000000 ) ;
#1128 = AXIS2_PLACEMENT_3D ( 'NONE', #1060, #1250, #772 ) ;
#1129 = VERTEX_POINT ( 'NONE', #444 ) ;
#1130 = CARTESIAN_POINT ( 'NONE',  ( 0.000000000000000000, 0.000000000000000000, 133.7022324300350817 ) ) ;
#1131 = ORIENTED_EDGE ( 'NONE', *, *, #393, .F. ) ;
#1132 = CARTESIAN_POINT ( 'NONE',  ( -59.99999999999995737, 36.57878888070658974, 397.7022324300351102 ) ) ;
#1133 = ORIENTED_EDGE ( 'NONE', *, *, #305, .T. ) ;
#1134 = DIRECTION ( 'NONE',  ( 3.337736394065249364E-16, -1.000000000000000000, 0.000000000000000000 ) ) ;
#1135 = ORIENTED_EDGE ( 'NONE', *, *, #394, .T. ) ;
#1136 = DIRECTION ( 'NONE',  ( -0.000000000000000000, -0.000000000000000000, 1.000000000000000000 ) ) ;
#1137 = EDGE_CURVE ( 'NONE', #528, #1231, #348, .T. ) ;
#1138 =( LENGTH_UNIT ( ) NAMED_UNIT ( * ) SI_UNIT ( .MILLI., .METRE. ) );
#1139 = EDGE_CURVE ( 'NONE', #943, #1211, #266, .T. ) ;
#1140 = DIRECTION ( 'NONE',  ( -9.912705577010325549E-17, -0.000000000000000000, -1.000000000000000000 ) ) ;
#1141 = DIRECTION ( 'NONE',  ( 0.000000000000000000, 0.000000000000000000, -1.000000000000000000 ) ) ;
#1142 = AXIS2_PLACEMENT_3D ( 'NONE', #61, #1040, #471 ) ;
#1143 = VECTOR ( 'NONE', #72, 1000.000000000000000 ) ;
#1144 = ORIENTED_EDGE ( 'NONE', *, *, #1219, .T. ) ;
#1145 = DIRECTION ( 'NONE',  ( 0.000000000000000000, 0.000000000000000000, -1.000000000000000000 ) ) ;
#1146 = CARTESIAN_POINT ( 'NONE',  ( 4.000000000000000000, 58.77618519775963080, 133.7022324300350817 ) ) ;
#1147 = EDGE_CURVE ( 'NONE', #719, #912, #365, .T. ) ;
#1148 = ORIENTED_EDGE ( 'NONE', *, *, #582, .T. ) ;
#1149 = DIRECTION ( 'NONE',  ( -1.000000000000000000, -2.168404344971008868E-16, 0.000000000000000000 ) ) ;
#1150 = ORIENTED_EDGE ( 'NONE', *, *, #1012, .F. ) ;
#1151 = DIRECTION ( 'NONE',  ( 0.000000000000000000, 0.000000000000000000, -1.000000000000000000 ) ) ;
#1152 = DIRECTION ( 'NONE',  ( -1.000000000000000000, 0.000000000000000000, 0.000000000000000000 ) ) ;
#1153 = CARTESIAN_POINT ( 'NONE',  ( -3.999999999999999112, 56.17753259136854638, 381.7022324300351102 ) ) ;
#1154 = CARTESIAN_POINT ( 'NONE',  ( 52.83928462801132042, 36.57878888070658974, 478.0000000000001137 ) ) ;
#1155 = EDGE_CURVE ( 'NONE', #438, #308, #755, .T. ) ;
#1156 = VERTEX_POINT ( 'NONE', #148 ) ;
#1157 = LINE ( 'NONE', #205, #822 ) ;
#1158 = CARTESIAN_POINT ( 'NONE',  ( -57.00674397724010589, 41.01600751713783666, 397.7022324300351102 ) ) ;
#1159 = CARTESIAN_POINT ( 'NONE',  ( 4.000000000000000888, 56.17753259136854638, 133.7022324300350817 ) ) ;
#1160 = DIRECTION ( 'NONE',  ( -1.084202172485504434E-16, -1.000000000000000000, 0.000000000000000000 ) ) ;
#1161 = EDGE_CURVE ( 'NONE', #321, #1211, #536, .T. ) ;
#1162 = EDGE_CURVE ( 'NONE', #733, #362, #13, .T. ) ;
#1163 = ORIENTED_EDGE ( 'NONE', *, *, #668, .F. ) ;
#1164 = DIRECTION ( 'NONE',  ( 0.000000000000000000, -0.000000000000000000, -1.000000000000000000 ) ) ;
#1165 = AXIS2_PLACEMENT_3D ( 'NONE', #824, #236, #1109 ) ;
#1166 = VECTOR ( 'NONE', #1136, 1000.000000000000000 ) ;
#1167 = CARTESIAN_POINT ( 'NONE',  ( 4.000000000000000888, 56.17753259136854638, 117.7022324300350817 ) ) ;
#1168 = LINE ( 'NONE', #992, #685 ) ;
#1169 =( NAMED_UNIT ( * ) PLANE_ANGLE_UNIT ( ) SI_UNIT ( $, .RADIAN. ) );
#1170 = AXIS2_PLACEMENT_3D ( 'NONE', #324, #27, #498 ) ;
#1171 = EDGE_LOOP ( 'NONE', ( #356, #174, #446, #729 ) ) ;
#1172 = CARTESIAN_POINT ( 'NONE',  ( 0.000000000000000000, 52.17753259136855348, 133.7022324300350817 ) ) ;
#1173 = CARTESIAN_POINT ( 'NONE',  ( 0.000000000000000000, 52.17753259136855348, 357.7022324300351102 ) ) ;
#1174 = LINE ( 'NONE', #219, #910 ) ;
#1175 = ORIENTED_EDGE ( 'NONE', *, *, #1139, .F. ) ;
#1176 = CYLINDRICAL_SURFACE ( 'NONE', #351, 2.000000000000000000 ) ;
#1177 = CARTESIAN_POINT ( 'NONE',  ( -6.938893903907228378E-15, -41.14378277661475636, 117.7022324300350817 ) ) ;
#1178 = EDGE_CURVE ( 'NONE', #308, #455, #401, .T. ) ;
#1179 = CARTESIAN_POINT ( 'NONE',  ( -7.000000000000000888, 48.17753259136854638, 133.7022324300350817 ) ) ;
#1180 = ORIENTED_EDGE ( 'NONE', *, *, #660, .F. ) ;
#1181 = FACE_OUTER_BOUND ( 'NONE', #598, .T. ) ;
#1182 = VERTEX_POINT ( 'NONE', #480 ) ;
#1183 = CARTESIAN_POINT ( 'NONE',  ( -3.999999999999999112, 56.17753259136854638, 133.7022324300350817 ) ) ;
#1184 = AXIS2_PLACEMENT_3D ( 'NONE', #771, #399, #881 ) ;
#1185 = ADVANCED_FACE ( 'NONE', ( #1057 ), #203, .F. ) ;
#1186 = AXIS2_PLACEMENT_3D ( 'NONE', #869, #861, #18 ) ;
#1187 = VECTOR ( 'NONE', #1134, 1000.000000000000000 ) ;
#1188 = FACE_OUTER_BOUND ( 'NONE', #457, .T. ) ;
#1189 = ORIENTED_EDGE ( 'NONE', *, *, #740, .T. ) ;
#1190 = DIRECTION ( 'NONE',  ( 0.000000000000000000, -1.000000000000000000, 0.000000000000000000 ) ) ;
#1191 = CIRCLE ( 'NONE', #1128, 4.000000000000006217 ) ;
#1192 = CARTESIAN_POINT ( 'NONE',  ( 60.00000000000001421, 58.85624222338523737, 117.7022324300350817 ) ) ;
#1193 = CYLINDRICAL_SURFACE ( 'NONE', #1170, 100.0000000000000000 ) ;
#1194 = ORIENTED_EDGE ( 'NONE', *, *, #1054, .T. ) ;
#1195 = ADVANCED_FACE ( 'NONE', ( #789 ), #289, .T. ) ;
#1196 = CARTESIAN_POINT ( 'NONE',  ( -57.00674397724009879, 41.01600751713782955, 304.3688990967017958 ) ) ;
#1197 = DIRECTION ( 'NONE',  ( -0.000000000000000000, 1.000000000000000000, 0.000000000000000000 ) ) ;
#1198 = CARTESIAN_POINT ( 'NONE',  ( -57.00674397724010589, 41.01600751713783666, 117.7022324300350817 ) ) ;
#1199 = PRODUCT_CONTEXT ( 'NONE', #546, 'mechanical' ) ;
#1200 = ORIENTED_EDGE ( 'NONE', *, *, #257, .T. ) ;
#1201 = DIRECTION ( 'NONE',  ( 0.000000000000000000, -0.000000000000000000, -1.000000000000000000 ) ) ;
#1202 = EDGE_CURVE ( 'NONE', #775, #1036, #566, .T. ) ;
#1203 = ORIENTED_EDGE ( 'NONE', *, *, #896, .T. ) ;
#1204 = DIRECTION ( 'NONE',  ( -0.000000000000000000, -1.000000000000000000, -0.000000000000000000 ) ) ;
#1205 = VECTOR ( 'NONE', #295, 1000.000000000000000 ) ;
#1206 = VECTOR ( 'NONE', #568, 1000.000000000000000 ) ;
#1207 = CARTESIAN_POINT ( 'NONE',  ( 4.000000000000000888, 56.17753259136854638, 381.7022324300351102 ) ) ;
#1208 = VECTOR ( 'NONE', #172, 1000.000000000000000 ) ;
#1209 = EDGE_LOOP ( 'NONE', ( #241, #366 ) ) ;
#1210 = DIRECTION ( 'NONE',  ( -0.000000000000000000, -1.000000000000000000, -0.000000000000000000 ) ) ;
#1211 = VERTEX_POINT ( 'NONE', #585 ) ;
#1212 = CARTESIAN_POINT ( 'NONE',  ( 3.999999999999999112, 58.77618519775963080, 381.7022324300351102 ) ) ;
#1213 = CIRCLE ( 'NONE', #666, 2.000000000000000000 ) ;
#1214 = ADVANCED_FACE ( 'NONE', ( #571 ), #960, .F. ) ;
#1215 = ORIENTED_EDGE ( 'NONE', *, *, #124, .F. ) ;
#1216 = DIRECTION ( 'NONE',  ( 1.000000000000000000, 0.000000000000000000, 0.000000000000000000 ) ) ;
#1217 = VERTEX_POINT ( 'NONE', #1061 ) ;
#1218 = CARTESIAN_POINT ( 'NONE',  ( -9.999999999999998224, 46.17753259136855348, 117.7022324300350817 ) ) ;
#1219 = EDGE_CURVE ( 'NONE', #1113, #528, #521, .T. ) ;
#1220 = LINE ( 'NONE', #277, #1086 ) ;
#1221 = ORIENTED_EDGE ( 'NONE', *, *, #330, .T. ) ;
#1222 = CARTESIAN_POINT ( 'NONE',  ( -7.000000000000000888, 48.17753259136854638, 133.7022324300350817 ) ) ;
#1223 = VERTEX_POINT ( 'NONE', #385 ) ;
#1224 = DIRECTION ( 'NONE',  ( 1.000000000000000000, 0.000000000000000000, 0.000000000000000000 ) ) ;
#1225 = VECTOR ( 'NONE', #936, 1000.000000000000000 ) ;
#1226 = ORIENTED_EDGE ( 'NONE', *, *, #503, .T. ) ;
#1227 = LINE ( 'NONE', #644, #395 ) ;
#1228 = ORIENTED_EDGE ( 'NONE', *, *, #491, .F. ) ;
#1229 = DIRECTION ( 'NONE',  ( -3.469446951953616161E-16, 1.000000000000000000, -0.000000000000000000 ) ) ;
#1230 = AXIS2_PLACEMENT_3D ( 'NONE', #602, #987, #121 ) ;
#1231 = VERTEX_POINT ( 'NONE', #981 ) ;
#1232 = DIRECTION ( 'NONE',  ( -9.912705577010325549E-17, 0.000000000000000000, -1.000000000000000000 ) ) ;
#1233 = ORIENTED_EDGE ( 'NONE', *, *, #110, .T. ) ;
#1234 = CARTESIAN_POINT ( 'NONE',  ( 6.999999999999999112, 56.17753259136854638, 381.7022324300351102 ) ) ;
#1235 = DIRECTION ( 'NONE',  ( -0.000000000000000000, -0.000000000000000000, -1.000000000000000000 ) ) ;
#1236 = CARTESIAN_POINT ( 'NONE',  ( -7.000000000000000888, 56.17753259136854638, 381.7022324300351102 ) ) ;
#1237 = EDGE_LOOP ( 'NONE', ( #625, #2, #1200, #846 ) ) ;
#1238 = CARTESIAN_POINT ( 'NONE',  ( -6.999999999999999112, 48.17753259136854638, 381.7022324300351102 ) ) ;
#1239 = EDGE_CURVE ( 'NONE', #1182, #868, #859, .T. ) ;
#1240 = CARTESIAN_POINT ( 'NONE',  ( -7.000000000000000000, 56.17753259136854638, 117.7022324300350817 ) ) ;
#1241 = FACE_OUTER_BOUND ( 'NONE', #976, .T. ) ;
#1242 = FACE_OUTER_BOUND ( 'NONE', #1171, .T. ) ;
#1243 = VECTOR ( 'NONE', #889, 1000.000000000000000 ) ;
#1244 = CIRCLE ( 'NONE', #440, 4.000000000000006217 ) ;
#1245 = VERTEX_POINT ( 'NONE', #109 ) ;
#1246 = DIRECTION ( 'NONE',  ( -0.000000000000000000, -0.000000000000000000, 1.000000000000000000 ) ) ;
#1247 = DIRECTION ( 'NONE',  ( -0.000000000000000000, -0.000000000000000000, 1.000000000000000000 ) ) ;
#1248 = EDGE_CURVE ( 'NONE', #1049, #1113, #137, .T. ) ;
#1249 = VECTOR ( 'NONE', #694, 1000.000000000000000 ) ;
#1250 = DIRECTION ( 'NONE',  ( 0.000000000000000000, -0.000000000000000000, -1.000000000000000000 ) ) ;
#1251 = DIRECTION ( 'NONE',  ( 2.168404344971008868E-16, -1.000000000000000000, 0.000000000000000000 ) ) ;
#1252 = EDGE_LOOP ( 'NONE', ( #333, #3, #53, #1228 ) ) ;
#1253 = CYLINDRICAL_SURFACE ( 'NONE', #742, 2.000000000000000000 ) ;
#1254 = FACE_OUTER_BOUND ( 'NONE', #879, .T. ) ;
#1255 = ADVANCED_FACE ( 'NONE', ( #1242 ), #196, .F. ) ;
ENDSEC;
END-ISO-10303-21;
