ISO-10303-21;
HEADER;
FILE_DESCRIPTION (( 'STEP AP214' ),
    '1' );
FILE_NAME ('Left Tail Flap.STEP',
    '2026-08-21T21:09:20',
    ( '' ),
    ( '' ),
    'SwSTEP 2.0',
    'SolidWorks 2026',
    '' );
FILE_SCHEMA (( 'AUTOMOTIVE_DESIGN' ));
ENDSEC;

DATA;
#1 = DIRECTION ( 'NONE',  ( 0.8207539717850707017, -0.5678858300441927964, -0.06219808545324756466 ) ) ;
#2 = LINE ( 'NONE', #304, #79 ) ;
#3 = CARTESIAN_POINT ( 'NONE',  ( -63.00017133630787924, 38.71772342266320521, 47.96561598015323113 ) ) ;
#4 =( BOUNDED_CURVE ( )  B_SPLINE_CURVE ( 3, ( #507, #577, #879, #805 ),
 .UNSPECIFIED., .F., .F. ) 
 B_SPLINE_CURVE_WITH_KNOTS ( ( 4, 4 ),
 ( 4.104322213424175914, 4.712388980384689674 ),
 .UNSPECIFIED. ) 
 CURVE ( )  GEOMETRIC_REPRESENTATION_ITEM ( )  RATIONAL_B_SPLINE_CURVE ( ( 1.000000000000000000, 0.9694245168361513842, 0.9694245168361513842, 1.000000000000000000 ) ) 
 REPRESENTATION_ITEM ( '' )  );
#5 = VERTEX_POINT ( 'NONE', #474 ) ;
#6 = DIRECTION ( 'NONE',  ( -1.978671640219439375E-16, 0.1088746101867817118, -0.9940554910349201911 ) ) ;
#7 = AXIS2_PLACEMENT_3D ( 'NONE', #100, #634, #255 ) ;
#8 = CARTESIAN_POINT ( 'NONE',  ( -62.09205540395189615, 36.51401159223468085, 43.72004065230579783 ) ) ;
#9 = ORIENTED_EDGE ( 'NONE', *, *, #317, .F. ) ;
#10 = FACE_OUTER_BOUND ( 'NONE', #457, .T. ) ;
#11 = EDGE_CURVE ( 'NONE', #151, #382, #441, .T. ) ;
#12 = CARTESIAN_POINT ( 'NONE',  ( -207.5472219750449483, 135.3230162882630623, 71.33994768069820225 ) ) ;
#13 = ORIENTED_EDGE ( 'NONE', *, *, #512, .T. ) ;
#14 = PLANE ( 'NONE',  #497 ) ;
#15 = AXIS2_PLACEMENT_3D ( 'NONE', #110, #638, #128 ) ;
#16 = FACE_OUTER_BOUND ( 'NONE', #350, .T. ) ;
#17 = ORIENTED_EDGE ( 'NONE', *, *, #312, .F. ) ;
#18 = DIRECTION ( 'NONE',  ( 0.1014979959594712877, 0.03781167543717695728, 0.9941169116441208597 ) ) ;
#19 = VECTOR ( 'NONE', #181, 1000.000000000000000 ) ;
#20 = DIRECTION ( 'NONE',  ( 0.000000000000000000, 0.000000000000000000, 1.000000000000000000 ) ) ;
#21 = DIRECTION ( 'NONE',  ( 0.8191520442889926867, -0.5735764363510448272, 0.000000000000000000 ) ) ;
#22 = PRODUCT ( 'Left Tail Flap', 'Left Tail Flap', '', ( #559 ) ) ;
#23 = LINE ( 'NONE', #855, #535 ) ;
#24 = CYLINDRICAL_SURFACE ( 'NONE', #898, 3.000000000000001776 ) ;
#25 = EDGE_CURVE ( 'NONE', #300, #180, #194, .T. ) ;
#26 = CARTESIAN_POINT ( 'NONE',  ( -61.74136194659595844, 36.28310466845080384, 43.45196284609372839 ) ) ;
#27 = LINE ( 'NONE', #650, #193 ) ;
#28 = CARTESIAN_POINT ( 'NONE',  ( -63.18372158249628256, 36.98152688821134859, 46.29630812929401174 ) ) ;
#29 = ORIENTED_EDGE ( 'NONE', *, *, #571, .F. ) ;
#30 = CARTESIAN_POINT ( 'NONE',  ( -70.50848619966936326, 42.40725988021631565, 43.63053216762371278 ) ) ;
#31 = CARTESIAN_POINT ( 'NONE',  ( -70.43927855699750751, 42.30025718090958975, 44.12024685441542715 ) ) ;
#32 = CARTESIAN_POINT ( 'NONE',  ( -68.04592222689413461, 40.53592097187158316, 57.35099278578715598 ) ) ;
#33 = CARTESIAN_POINT ( 'NONE',  ( -60.09985400302581127, 32.07925774507566530, 71.33994768069820225 ) ) ;
#34 =( BOUNDED_CURVE ( )  B_SPLINE_CURVE ( 3, ( #101, #481, #401, #948 ),
 .UNSPECIFIED., .F., .F. ) 
 B_SPLINE_CURVE_WITH_KNOTS ( ( 4, 4 ),
 ( 3.141592653589790007, 4.712388980384689674 ),
 .UNSPECIFIED. ) 
 CURVE ( )  GEOMETRIC_REPRESENTATION_ITEM ( )  RATIONAL_B_SPLINE_CURVE ( ( 1.000000000000000000, 0.8047378541243643824, 0.8047378541243643824, 1.000000000000000000 ) ) 
 REPRESENTATION_ITEM ( '' )  );
#35 = FACE_OUTER_BOUND ( 'NONE', #912, .T. ) ;
#36 = VECTOR ( 'NONE', #964, 1000.000000000000227 ) ;
#37 = DIRECTION ( 'NONE',  ( 0.5689874895700255397, 0.8223461781468921483, 0.000000000000000000 ) ) ;
#38 = CARTESIAN_POINT ( 'NONE',  ( -67.19254130271572478, 40.95024666645726796, 58.62976344851828969 ) ) ;
#39 = VERTEX_POINT ( 'NONE', #881 ) ;
#40 = EDGE_CURVE ( 'NONE', #877, #981, #34, .T. ) ;
#41 = DIRECTION ( 'NONE',  ( 0.5689874895700255397, 0.8223461781468921483, 0.000000000000000000 ) ) ;
#42 = DIRECTION ( 'NONE',  ( -0.5712818199444398282, -0.8158749924416696109, -0.08935926873735232367 ) ) ;
#43 = CARTESIAN_POINT ( 'NONE',  ( -58.49080566250676583, 44.53219105116990306, 59.26221980102251052 ) ) ;
#44 = CARTESIAN_POINT ( 'NONE',  ( -68.83582598983615242, 40.26190350293956755, 59.51134350756620961 ) ) ;
#45 = DIRECTION ( 'NONE',  ( -0.5712818199444398282, -0.8158749924416696109, -0.08935926873735251796 ) ) ;
#46 = DIRECTION ( 'NONE',  ( -0.000000000000000000, 0.1088746101867818367, -0.9940554910349200801 ) ) ;
#47 = CARTESIAN_POINT ( 'NONE',  ( -69.83063949215083710, 40.26343124324561984, 60.33216903435171474 ) ) ;
#48 = VERTEX_POINT ( 'NONE', #413 ) ;
#49 = LINE ( 'NONE', #610, #863 ) ;
#50 = LINE ( 'NONE', #414, #515 ) ;
#51 = ORIENTED_EDGE ( 'NONE', *, *, #317, .T. ) ;
#52 = EDGE_CURVE ( 'NONE', #337, #103, #545, .T. ) ;
#53 = CARTESIAN_POINT ( 'NONE',  ( -66.58553862356284014, 42.99544360807479393, 46.70803902744199831 ) ) ;
#54 = FACE_OUTER_BOUND ( 'NONE', #738, .T. ) ;
#55 = CARTESIAN_POINT ( 'NONE',  ( -70.76164599875133376, 40.63815508905216234, 61.35662548878515565 ) ) ;
#56 = ORIENTED_EDGE ( 'NONE', *, *, #25, .F. ) ;
#57 = CARTESIAN_POINT ( 'NONE',  ( -62.34124698447402579, 34.98340072436324988, 60.02753864465751832 ) ) ;
#58 = ADVANCED_FACE ( 'NONE', ( #487 ), #718, .F. ) ;
#59 = EDGE_CURVE ( 'NONE', #918, #840, #914, .T. ) ;
#60 = CARTESIAN_POINT ( 'NONE',  ( -62.34124698455958224, 36.65888690593820343, 44.72988351682812436 ) ) ;
#61 = ORIENTED_EDGE ( 'NONE', *, *, #571, .T. ) ;
#62 = CARTESIAN_POINT ( 'NONE',  ( -62.66517047422779996, 38.63573788862392888, 58.57881035081864241 ) ) ;
#63 = ADVANCED_BREP_SHAPE_REPRESENTATION ( 'Left Tail Flap', ( #149, #202 ), #773 ) ;
#64 = CARTESIAN_POINT ( 'NONE',  ( -69.49710698976841172, 41.83501095098996814, 45.74110160386828738 ) ) ;
#65 = CARTESIAN_POINT ( 'NONE',  ( -62.94583359441456594, 37.67461265062914322, 46.72678548056567394 ) ) ;
#66 = VERTEX_POINT ( 'NONE', #111 ) ;
#67 = CARTESIAN_POINT ( 'NONE',  ( -64.56775101695194508, 38.62649954542466446, 58.82019286614635689 ) ) ;
#68 = EDGE_CURVE ( 'NONE', #132, #180, #251, .T. ) ;
#69 = ADVANCED_FACE ( 'NONE', ( #790 ), #573, .F. ) ;
#70 = CARTESIAN_POINT ( 'NONE',  ( -66.63111847341865257, 42.90901774271424074, 46.71088135394895602 ) ) ;
#71 = CARTESIAN_POINT ( 'NONE',  ( -207.5472219750449483, 139.1410796473333562, 36.47996663744262236 ) ) ;
#72 =( BOUNDED_CURVE ( )  B_SPLINE_CURVE ( 3, ( #328, #417, #479, #410 ),
 .UNSPECIFIED., .F., .F. ) 
 B_SPLINE_CURVE_WITH_KNOTS ( ( 4, 4 ),
 ( 1.066132136277413351E-15, 1.570796326794897446 ),
 .UNSPECIFIED. ) 
 CURVE ( )  GEOMETRIC_REPRESENTATION_ITEM ( )  RATIONAL_B_SPLINE_CURVE ( ( 1.000000000000000000, 0.8047378541243650485, 0.8047378541243650485, 1.000000000000000000 ) ) 
 REPRESENTATION_ITEM ( '' )  );
#73 = EDGE_LOOP ( 'NONE', ( #292, #622, #275, #306 ) ) ;
#74 = CARTESIAN_POINT ( 'NONE',  ( -63.09163422688197187, 36.74702699121883853, 59.11031865501607996 ) ) ;
#75 = SURFACE_STYLE_FILL_AREA ( #807 ) ;
#76 = CARTESIAN_POINT ( 'NONE',  ( -60.94505794038157376, 46.46885204589590046, 57.27022088426503643 ) ) ;
#77 = CARTESIAN_POINT ( 'NONE',  ( -63.03070794719329939, 38.18569535558146555, 47.41724140616588556 ) ) ;
#78 = ORIENTED_EDGE ( 'NONE', *, *, #345, .T. ) ;
#79 = VECTOR ( 'NONE', #611, 1000.000000000000000 ) ;
#80 = CARTESIAN_POINT ( 'NONE',  ( -63.95599508862549953, 36.81979412507024563, 59.58890408058921651 ) ) ;
#81 = CARTESIAN_POINT ( 'NONE',  ( -62.89216271396897184, 37.51188378772700815, 46.46875706048751908 ) ) ;
#82 = ORIENTED_EDGE ( 'NONE', *, *, #528, .F. ) ;
#83 = DIRECTION ( 'NONE',  ( -0.5689874895700276491, -0.8223461781468907050, 0.000000000000000000 ) ) ;
#84 = CIRCLE ( 'NONE', #291, 1.500000000000000444 ) ;
#85 = CIRCLE ( 'NONE', #899, 2.000000000000001776 ) ;
#86 = CARTESIAN_POINT ( 'NONE',  ( -19.25438671330140394, 13.55531681548657907, -20.66005231930180486 ) ) ;
#87 = ORIENTED_EDGE ( 'NONE', *, *, #821, .T. ) ;
#88 = DIRECTION ( 'NONE',  ( 0.5712818199444397171, 0.8158749924416697219, 0.08935926873735233755 ) ) ;
#89 = APPLICATION_PROTOCOL_DEFINITION ( 'draft international standard', 'automotive_design', 1998, #806 ) ;
#90 = ORIENTED_EDGE ( 'NONE', *, *, #127, .T. ) ;
#91 = EDGE_CURVE ( 'NONE', #747, #630, #276, .T. ) ;
#92 = DIRECTION ( 'NONE',  ( 0.000000000000000000, 0.9940554910349201911, 0.1088746101867826693 ) ) ;
#93 = AXIS2_PLACEMENT_3D ( 'NONE', #954, #486, #644 ) ;
#94 = FACE_OUTER_BOUND ( 'NONE', #957, .T. ) ;
#95 = DIRECTION ( 'NONE',  ( -0.5712818199444410494, -0.8158749924416673904, -0.08935926873736468878 ) ) ;
#96 = CARTESIAN_POINT ( 'NONE',  ( -62.58656588395172804, 48.47476893004621701, 49.44994899626740903 ) ) ;
#97 = EDGE_CURVE ( 'NONE', #103, #652, #27, .T. ) ;
#98 = AXIS2_PLACEMENT_3D ( 'NONE', #708, #395, #864 ) ;
#99 = AXIS2_PLACEMENT_3D ( 'NONE', #852, #393, #249 ) ;
#100 = CARTESIAN_POINT ( 'NONE',  ( -60.13231360607690590, 45.89976233637855074, 57.27022088426503643 ) ) ;
#101 = CARTESIAN_POINT ( 'NONE',  ( -65.04653942182727633, 40.61132944347947671, 58.63670491986103883 ) ) ;
#102 = CYLINDRICAL_SURFACE ( 'NONE', #279, 2.999999999999997780 ) ;
#103 = VERTEX_POINT ( 'NONE', #105 ) ;
#104 = CARTESIAN_POINT ( 'NONE',  ( -61.74136194659595134, 34.32208419894023166, 61.35662548878519118 ) ) ;
#105 = CARTESIAN_POINT ( 'NONE',  ( -66.58553862356279751, 41.89349875889259778, 56.76910217401007230 ) ) ;
#106 = FACE_OUTER_BOUND ( 'NONE', #540, .T. ) ;
#107 = EDGE_LOOP ( 'NONE', ( #126, #585, #743, #925 ) ) ;
#108 = AXIS2_PLACEMENT_3D ( 'NONE', #649, #653, #412 ) ;
#109 = CARTESIAN_POINT ( 'NONE',  ( -70.63614679084976444, 42.50153580813099552, 43.54111324835741925 ) ) ;
#110 = CARTESIAN_POINT ( 'NONE',  ( -60.13231360607691300, 45.89976233637854364, 57.27022088426503643 ) ) ;
#111 = CARTESIAN_POINT ( 'NONE',  ( -211.6378007648932567, 133.2991277021897929, 35.84012283949203947 ) ) ;
#112 = CARTESIAN_POINT ( 'NONE',  ( -70.76164599875133376, 40.63815508905216234, 61.35662548878515565 ) ) ;
#113 = ORIENTED_EDGE ( 'NONE', *, *, #969, .F. ) ;
#114 = DIRECTION ( 'NONE',  ( 0.5712818199444398282, 0.8158749924416694999, 0.08935926873735232367 ) ) ;
#115 = CARTESIAN_POINT ( 'NONE',  ( -66.58553862356281172, 42.76364398295451963, 48.82443411510594444 ) ) ;
#116 = AXIS2_PLACEMENT_3D ( 'NONE', #677, #217, #913 ) ;
#117 = CARTESIAN_POINT ( 'NONE',  ( -60.23482234791151768, 45.75336468105381016, 59.26221980102250342 ) ) ;
#118 = CARTESIAN_POINT ( 'NONE',  ( -65.61888341364699784, 40.05584417700300293, 58.66276321932883064 ) ) ;
#119 = VERTEX_POINT ( 'NONE', #407 ) ;
#120 = CARTESIAN_POINT ( 'NONE',  ( -61.74136194659595134, 34.32208419894023166, 61.35662548878519118 ) ) ;
#121 = LINE ( 'NONE', #424, #575 ) ;
#122 =( NAMED_UNIT ( * ) PLANE_ANGLE_UNIT ( ) SI_UNIT ( $, .RADIAN. ) );
#123 = ORIENTED_EDGE ( 'NONE', *, *, #587, .F. ) ;
#124 = CYLINDRICAL_SURFACE ( 'NONE', #108, 2.999999999999997780 ) ;
#125 = CARTESIAN_POINT ( 'NONE',  ( -68.32531981182432901, 40.57007499269708717, 57.78940446252077834 ) ) ;
#126 = ORIENTED_EDGE ( 'NONE', *, *, #593, .F. ) ;
#127 = EDGE_CURVE ( 'NONE', #339, #337, #331, .T. ) ;
#128 = DIRECTION ( 'NONE',  ( 0.8191520442889953513, -0.5735764363510408304, -3.469446951953611033E-15 ) ) ;
#129 = CARTESIAN_POINT ( 'NONE',  ( -62.58656588395172804, 48.70656855516648420, 47.33355390860345580 ) ) ;
#130 = CARTESIAN_POINT ( 'NONE',  ( -215.8975481109212922, 131.7122177088466515, -5.881753893016108847 ) ) ;
#131 = PRESENTATION_LAYER_ASSIGNMENT (  '', '', ( #777 ) ) ;
#132 = VERTEX_POINT ( 'NONE', #567 ) ;
#133 = EDGE_CURVE ( 'NONE', #918, #339, #646, .T. ) ;
#134 = CARTESIAN_POINT ( 'NONE',  ( -66.82574965359177099, 42.45797201078506333, 48.75643987682342839 ) ) ;
#135 = CARTESIAN_POINT ( 'NONE',  ( -61.74136194659595134, 36.28310466845079674, 43.45196284609372839 ) ) ;
#136 = EDGE_LOOP ( 'NONE', ( #569, #810, #311, #715 ) ) ;
#137 = FACE_OUTER_BOUND ( 'NONE', #73, .T. ) ;
#138 = CARTESIAN_POINT ( 'NONE',  ( -68.42715042727665775, 41.28264334250312828, 44.98483166178510828 ) ) ;
#139 = CARTESIAN_POINT ( 'NONE',  ( -64.14094979880117364, 41.04498177203485909, 46.69049317710373970 ) ) ;
#140 = EDGE_CURVE ( 'NONE', #463, #652, #183, .T. ) ;
#141 = ORIENTED_EDGE ( 'NONE', *, *, #246, .T. ) ;
#142 = CARTESIAN_POINT ( 'NONE',  ( -62.85539726660314841, 38.34521624138264428, 56.61405753910148775 ) ) ;
#143 = CARTESIAN_POINT ( 'NONE',  ( -67.59413105428711788, 41.90995621136432447, 48.18923873728811458 ) ) ;
#144 = CARTESIAN_POINT ( 'NONE',  ( -64.02877760385338490, 41.20518026867353001, 46.70803902744198410 ) ) ;
#145 = ORIENTED_EDGE ( 'NONE', *, *, #512, .F. ) ;
#146 = VECTOR ( 'NONE', #262, 1000.000000000000000 ) ;
#147 = CARTESIAN_POINT ( 'NONE',  ( -64.57119189736270926, 39.08643575572305195, 58.70293476987321668 ) ) ;
#148 = CARTESIAN_POINT ( 'NONE',  ( -70.76164599875133376, 40.63815508905216944, 61.35662548878516276 ) ) ;
#149 = MANIFOLD_SOLID_BREP ( 'Cut-Extrude4', #885 ) ;
#150 = CARTESIAN_POINT ( 'NONE',  ( -62.06372938825996499, 36.43920206509235271, 44.08767414120886485 ) ) ;
#151 = VERTEX_POINT ( 'NONE', #891 ) ;
#152 = CARTESIAN_POINT ( 'NONE',  ( -58.49080566250676583, 45.83868637341128505, 47.33355390860344869 ) ) ;
#153 = CARTESIAN_POINT ( 'NONE',  ( -62.65913161293020295, 37.05908454061305690, 45.63084897738755785 ) ) ;
#154 = ORIENTED_EDGE ( 'NONE', *, *, #68, .T. ) ;
#155 = CARTESIAN_POINT ( 'NONE',  ( -63.43199471067811857, 36.01992903550795688, 60.05961104283490215 ) ) ;
#156 = ADVANCED_FACE ( 'NONE', ( #54 ), #654, .F. ) ;
#157 = ORIENTED_EDGE ( 'NONE', *, *, #340, .T. ) ;
#158 = CARTESIAN_POINT ( 'NONE',  ( -60.02751648676263585, 38.42390393618700983, 46.52144477108224407 ) ) ;
#159 = CIRCLE ( 'NONE', #673, 2.000000000000001776 ) ;
#160 = SHAPE_DEFINITION_REPRESENTATION ( #767, #63 ) ;
#161 = EDGE_CURVE ( 'NONE', #39, #151, #431, .T. ) ;
#162 = CARTESIAN_POINT ( 'NONE',  ( -207.5472219750449483, 135.3230162882630623, 71.33994768069818804 ) ) ;
#163 = ORIENTED_EDGE ( 'NONE', *, *, #700, .T. ) ;
#164 = DIRECTION ( 'NONE',  ( -0.5712818199444397171, -0.8158749924416697219, -0.08935926873735232367 ) ) ;
#165 =( BOUNDED_CURVE ( )  B_SPLINE_CURVE ( 3, ( #768, #28, #562, #771 ),
 .UNSPECIFIED., .F., .F. ) 
 B_SPLINE_CURVE_WITH_KNOTS ( ( 4, 4 ),
 ( 4.712388980384690562, 6.283185307179586232 ),
 .UNSPECIFIED. ) 
 CURVE ( )  GEOMETRIC_REPRESENTATION_ITEM ( )  RATIONAL_B_SPLINE_CURVE ( ( 1.000000000000000000, 0.8047378541243652705, 0.8047378541243652705, 1.000000000000000000 ) ) 
 REPRESENTATION_ITEM ( '' )  );
#166 = LINE ( 'NONE', #162, #466 ) ;
#167 = EDGE_LOOP ( 'NONE', ( #670, #243, #451, #238 ) ) ;
#168 = EDGE_CURVE ( 'NONE', #766, #529, #538, .T. ) ;
#169 = CARTESIAN_POINT ( 'NONE',  ( -69.57292994689647969, 28.05019424391653970, -16.87846925789853358 ) ) ;
#170 = EDGE_CURVE ( 'NONE', #66, #680, #425, .T. ) ;
#171 = FACE_OUTER_BOUND ( 'NONE', #136, .T. ) ;
#172 = EDGE_LOOP ( 'NONE', ( #421, #354, #950, #157 ) ) ;
#173 = ORIENTED_EDGE ( 'NONE', *, *, #628, .F. ) ;
#174 = CIRCLE ( 'NONE', #307, 1.500000000000000444 ) ;
#175 = PLANE ( 'NONE',  #688 ) ;
#176 = AXIS2_PLACEMENT_3D ( 'NONE', #546, #921, #625 ) ;
#177 = DIRECTION ( 'NONE',  ( -0.8191520442889943521, 0.5735764363510424957, 0.000000000000000000 ) ) ;
#178 = DIRECTION ( 'NONE',  ( 0.5712818199444397171, 0.8158749924416696109, 0.08935926873735232367 ) ) ;
#179 = CARTESIAN_POINT ( 'NONE',  ( -65.23774251408141822, 38.60845421784826925, 58.47966857675323382 ) ) ;
#180 = VERTEX_POINT ( 'NONE', #908 ) ;
#181 = DIRECTION ( 'NONE',  ( 1.065562961740677757E-16, -0.1088746101867817256, 0.9940554910349201911 ) ) ;
#182 = CARTESIAN_POINT ( 'NONE',  ( -69.66542682264177699, 40.30934470343213860, 59.41969717328441902 ) ) ;
#183 = LINE ( 'NONE', #229, #36 ) ;
#184 = DIRECTION ( 'NONE',  ( -0.8191520442889952403, 0.5735764363510411634, 0.000000000000000000 ) ) ;
#185 = ORIENTED_EDGE ( 'NONE', *, *, #11, .T. ) ;
#186 = ADVANCED_FACE ( 'NONE', ( #428, #730 ), #222, .F. ) ;
#187 = CYLINDRICAL_SURFACE ( 'NONE', #239, 2.000000000000001776 ) ;
#188 = ORIENTED_EDGE ( 'NONE', *, *, #232, .T. ) ;
#189 = CARTESIAN_POINT ( 'NONE',  ( -69.08788124093206306, 40.23993124073203376, 59.70396512939058198 ) ) ;
#190 = ORIENTED_EDGE ( 'NONE', *, *, #201, .F. ) ;
#191 = CARTESIAN_POINT ( 'NONE',  ( -62.29206179838127611, 34.75053468074190022, 60.96542689769925261 ) ) ;
#192 = DIRECTION ( 'NONE',  ( -1.256929030578951794E-15, 0.1088746101867824750, -0.9940554910349200801 ) ) ;
#193 = VECTOR ( 'NONE', #785, 1000.000000000000000 ) ;
#194 = LINE ( 'NONE', #117, #397 ) ;
#195 = CARTESIAN_POINT ( 'NONE',  ( -69.49710698984887358, 40.35741316227807118, 59.23198063349554587 ) ) ;
#196 = ORIENTED_EDGE ( 'NONE', *, *, #161, .F. ) ;
#197 = LINE ( 'NONE', #330, #856 ) ;
#198 = SURFACE_SIDE_STYLE ('',( #75 ) ) ;
#199 = CARTESIAN_POINT ( 'NONE',  ( -67.26352377524769111, 41.16573011550028838, 56.93071777161935643 ) ) ;
#200 = ORIENTED_EDGE ( 'NONE', *, *, #700, .F. ) ;
#201 = EDGE_CURVE ( 'NONE', #119, #430, #801, .T. ) ;
#202 = AXIS2_PLACEMENT_3D ( 'NONE', #432, #847, #920 ) ;
#203 = DIRECTION ( 'NONE',  ( -0.5712818199444398282, -0.8158749924416694999, -0.08935926873735232367 ) ) ;
#204 = CARTESIAN_POINT ( 'NONE',  ( -213.2600401744893190, 130.9823297229166599, 35.58637395006909543 ) ) ;
#205 = CARTESIAN_POINT ( 'NONE',  ( -66.63151172292097613, 41.62329189560907849, 58.62951385863034659 ) ) ;
#206 = ORIENTED_EDGE ( 'NONE', *, *, #168, .T. ) ;
#207 = CARTESIAN_POINT ( 'NONE',  ( -68.90853750051348925, 41.70797306141282235, 46.62051784934982379 ) ) ;
#208 = CARTESIAN_POINT ( 'NONE',  ( -63.05936775900045177, 38.95703830857237193, 46.37380774598748445 ) ) ;
#209 = VECTOR ( 'NONE', #812, 999.9999999999998863 ) ;
#210 = VERTEX_POINT ( 'NONE', #454 ) ;
#211 = AXIS2_PLACEMENT_3D ( 'NONE', #769, #462, #386 ) ;
#212 = LINE ( 'NONE', #565, #383 ) ;
#213 = EDGE_CURVE ( 'NONE', #630, #5, #49, .T. ) ;
#214 = CARTESIAN_POINT ( 'NONE',  ( -68.76459620262171768, 41.79279641725896965, 45.47459971166748716 ) ) ;
#215 = CARTESIAN_POINT ( 'NONE',  ( -62.91624893799950513, 39.07345340791948729, 48.24126844185187224 ) ) ;
#216 = ORIENTED_EDGE ( 'NONE', *, *, #423, .F. ) ;
#217 = DIRECTION ( 'NONE',  ( 0.8207539717850709238, -0.5678858300441930185, -0.06219808545324620463 ) ) ;
#218 = CARTESIAN_POINT ( 'NONE',  ( -68.72424389206616979, 41.39656866743330710, 44.80321856805305458 ) ) ;
#219 = CARTESIAN_POINT ( 'NONE',  ( -67.84435051580798870, 49.22162340901471111, 53.79547153843894591 ) ) ;
#220 = ORIENTED_EDGE ( 'NONE', *, *, #140, .F. ) ;
#221 = CARTESIAN_POINT ( 'NONE',  ( -64.19043279287413384, 30.05536915900243500, 35.84012283949203237 ) ) ;
#222 = PLANE ( 'NONE',  #848 ) ;
#223 = CARTESIAN_POINT ( 'NONE',  ( -68.26157097748652802, 41.81632125896236829, 45.87812054949996821 ) ) ;
#224 = CARTESIAN_POINT ( 'NONE',  ( -62.96830036730553815, 39.31597318861237511, 46.54518393773858520 ) ) ;
#225 = ORIENTED_EDGE ( 'NONE', *, *, #59, .F. ) ;
#226 = AXIS2_PLACEMENT_3D ( 'NONE', #493, #419, #343 ) ;
#227 = CARTESIAN_POINT ( 'NONE',  ( -63.02323998958463136, 37.52447566989548022, 57.06060198166648689 ) ) ;
#228 = VECTOR ( 'NONE', #18, 1000.000000000000114 ) ;
#229 = CARTESIAN_POINT ( 'NONE',  ( -62.58656588395172804, 48.70656855516648420, 47.33355390860345580 ) ) ;
#230 = CARTESIAN_POINT ( 'NONE',  ( -66.70330138826426492, 42.76210332767334421, 46.72007864201410854 ) ) ;
#231 = LINE ( 'NONE', #741, #398 ) ;
#232 = EDGE_CURVE ( 'NONE', #840, #510, #260, .T. ) ;
#233 = ORIENTED_EDGE ( 'NONE', *, *, #849, .F. ) ;
#234 =( BOUNDED_SURFACE ( )  B_SPLINE_SURFACE ( 3, 2, ( 
 ( #579, #112, #55 ),
 ( #965, #883, #876 ),
 ( #488, #47, #268 ),
 ( #568, #189, #195 ),
 ( #495, #44, #797 ),
 ( #357, #426, #802 ),
 ( #724, #651, #647 ),
 ( #338, #353, #125 ),
 ( #281, #349, #284 ),
 ( #719, #38, #655 ),
 ( #960, #584, #666 ),
 ( #791, #887, #199 ),
 ( #118, #661, #504 ),
 ( #344, #809, #429 ),
 ( #588, #205, #509 ),
 ( #813, #737, #435 ) ),
 .UNSPECIFIED., .F., .F., .T. ) 
 B_SPLINE_SURFACE_WITH_KNOTS ( ( 4, 2, 2, 2, 2, 2, 2, 4 ),
 ( 3, 3 ),
 ( 1.570796326794897002, 1.963495408493621364, 2.159844949342983433, 2.356194490192345725, 2.552544031041708017, 2.748893571891069865, 2.945243112740431712, 3.141592653589794004 ),
 ( 0.000000000000000000, 1.000000000000000000 ),
 .UNSPECIFIED. ) 
 GEOMETRIC_REPRESENTATION_ITEM ( )  RATIONAL_B_SPLINE_SURFACE ( (
 ( 1.000000000000000000, 1.000000000000000000, 1.000000000000000000),
 ( 1.000000000000000000, 1.000153430089866458, 1.000000000000000000),
 ( 1.000000000000000000, 0.9875447544196704897, 1.000000000000000000),
 ( 1.000000000000000000, 0.9538242550874890258, 1.000000000000000000),
 ( 1.000000000000000000, 0.9401537571634593915, 1.000000000000000000),
 ( 1.000000000000000000, 0.9095039307318509847, 1.000000000000000000),
 ( 1.000000000000000000, 0.8925248905393500243, 1.000000000000000000),
 ( 1.000000000000000000, 0.8574602268030936392, 1.000000000000000000),
 ( 1.000000000000000000, 0.8393798858270237195, 1.000000000000000000),
 ( 1.000000000000000000, 0.8049017991192860544, 1.000000000000000000),
 ( 1.000000000000000000, 0.7885212368335570154, 1.000000000000000000),
 ( 1.000000000000000000, 0.7605102254085733815, 1.000000000000000000),
 ( 1.000000000000000000, 0.7489123329829856512, 1.000000000000000000),
 ( 1.000000000000000000, 0.7330669938484936088, 1.000000000000000000),
 ( 1.000000000000000000, 0.7288205844047375148, 1.000000000000000000),
 ( 1.000000000000000000, 0.7288511202296557023, 1.000000000000000000) ) ) 
 REPRESENTATION_ITEM ( '' )  SURFACE ( )  );
#235 = CARTESIAN_POINT ( 'NONE',  ( -60.09985400302581127, 35.89732110414595212, 36.47996663744260815 ) ) ;
#236 = FACE_BOUND ( 'NONE', #172, .T. ) ;
#237 = UNCERTAINTY_MEASURE_WITH_UNIT (LENGTH_MEASURE( 1.000000000000000082E-05 ), #736, 'distance_accuracy_value', 'NONE');
#238 = ORIENTED_EDGE ( 'NONE', *, *, #52, .F. ) ;
#239 = AXIS2_PLACEMENT_3D ( 'NONE', #503, #42, #492 ) ;
#240 = CARTESIAN_POINT ( 'NONE',  ( -63.03070794719443626, 37.09203811242769433, 57.40263640269058243 ) ) ;
#241 = ADVANCED_FACE ( 'NONE', ( #940 ), #175, .T. ) ;
#242 = PLANE ( 'NONE',  #176 ) ;
#243 = ORIENTED_EDGE ( 'NONE', *, *, #40, .F. ) ;
#244 = CARTESIAN_POINT ( 'NONE',  ( -58.49400951749890964, 44.75260946367647108, 57.27022088426503643 ) ) ;
#245 = EDGE_CURVE ( 'NONE', #851, #358, #951, .T. ) ;
#246 = EDGE_CURVE ( 'NONE', #505, #327, #72, .T. ) ;
#247 = PLANE ( 'NONE',  #915 ) ;
#248 = ORIENTED_EDGE ( 'NONE', *, *, #729, .T. ) ;
#249 = DIRECTION ( 'NONE',  ( 0.8191520442889953513, -0.5735764363510408304, 0.000000000000000000 ) ) ;
#250 = DIRECTION ( 'NONE',  ( -0.8191520442889953513, 0.5735764363510410524, 1.385192717231180497E-15 ) ) ;
#251 = LINE ( 'NONE', #43, #961 ) ;
#252 = LINE ( 'NONE', #316, #963 ) ;
#253 = ORIENTED_EDGE ( 'NONE', *, *, #346, .F. ) ;
#254 = LINE ( 'NONE', #788, #733 ) ;
#255 = DIRECTION ( 'NONE',  ( 0.8191520442889953513, -0.5735764363510408304, 0.000000000000000000 ) ) ;
#256 = ORIENTED_EDGE ( 'NONE', *, *, #170, .F. ) ;
#257 = CARTESIAN_POINT ( 'NONE',  ( -61.74136194659595134, 34.32208419894023166, 61.35662548878519118 ) ) ;
#258 = ORIENTED_EDGE ( 'NONE', *, *, #346, .T. ) ;
#259 = PRODUCT_RELATED_PRODUCT_CATEGORY ( 'part', '', ( #22 ) ) ;
#260 = LINE ( 'NONE', #706, #464 ) ;
#261 = FACE_OUTER_BOUND ( 'NONE', #955, .T. ) ;
#262 = DIRECTION ( 'NONE',  ( 1.249990136675044961E-15, -0.1088746101867824750, 0.9940554910349200801 ) ) ;
#263 = CARTESIAN_POINT ( 'NONE',  ( -66.58553862356281172, 42.99544360807478682, 46.70803902744199121 ) ) ;
#264 = ORIENTED_EDGE ( 'NONE', *, *, #312, .T. ) ;
#265 = LINE ( 'NONE', #399, #942 ) ;
#266 = DIRECTION ( 'NONE',  ( 0.8191520442889952403, -0.5735764363510411634, 0.000000000000000000 ) ) ;
#267 = DIRECTION ( 'NONE',  ( 0.8191520442889950182, -0.5735764363510414965, 2.775557561562908706E-15 ) ) ;
#268 = CARTESIAN_POINT ( 'NONE',  ( -70.07254734028857968, 40.38978310585462594, 60.09265951363558855 ) ) ;
#269 = ORIENTED_EDGE ( 'NONE', *, *, #340, .F. ) ;
#270 = EDGE_CURVE ( 'NONE', #851, #287, #254, .T. ) ;
#271 = CARTESIAN_POINT ( 'NONE',  ( -61.74136194659595134, 34.32208419894022455, 61.35662548878519118 ) ) ;
#272 = FACE_OUTER_BOUND ( 'NONE', #107, .T. ) ;
#273 = CARTESIAN_POINT ( 'NONE',  ( -64.18071146073231148, 37.97650430791967580, 45.35516459912755494 ) ) ;
#274 = FACE_OUTER_BOUND ( 'NONE', #167, .T. ) ;
#275 = ORIENTED_EDGE ( 'NONE', *, *, #213, .F. ) ;
#276 = CIRCLE ( 'NONE', #226, 2.000000000000001776 ) ;
#277 = FACE_OUTER_BOUND ( 'NONE', #285, .T. ) ;
#278 = ADVANCED_FACE ( 'NONE', ( #35 ), #24, .F. ) ;
#279 = AXIS2_PLACEMENT_3D ( 'NONE', #158, #402, #92 ) ;
#280 = CARTESIAN_POINT ( 'NONE',  ( -208.2784809326213065, 134.2661424201697002, 71.33994768069820225 ) ) ;
#281 = CARTESIAN_POINT ( 'NONE',  ( -66.91179554689841780, 39.62529925667438846, 59.08539827598720251 ) ) ;
#282 = ORIENTED_EDGE ( 'NONE', *, *, #411, .T. ) ;
#283 =( NAMED_UNIT ( * ) SI_UNIT ( $, .STERADIAN. ) SOLID_ANGLE_UNIT ( ) );
#284 = CARTESIAN_POINT ( 'NONE',  ( -68.13546554825606449, 40.64476185688911869, 57.60045309084834741 ) ) ;
#285 = EDGE_LOOP ( 'NONE', ( #471, #934, #319, #477, #123 ) ) ;
#286 = CARTESIAN_POINT ( 'NONE',  ( -64.17456876864569892, 38.97749205003838568, 45.79400623551124738 ) ) ;
#287 = VERTEX_POINT ( 'NONE', #897 ) ;
#288 = CARTESIAN_POINT ( 'NONE',  ( -62.54281695100552696, 35.17327543045706051, 60.29827046287875447 ) ) ;
#289 = CARTESIAN_POINT ( 'NONE',  ( -67.10866026337807000, 42.20204049104214761, 48.59167060411130734 ) ) ;
#290 = CARTESIAN_POINT ( 'NONE',  ( -64.35883212743222259, 39.65150717792540291, 46.17877268612547681 ) ) ;
#291 = AXIS2_PLACEMENT_3D ( 'NONE', #498, #793, #41 ) ;
#292 = ORIENTED_EDGE ( 'NONE', *, *, #376, .T. ) ;
#293 = CARTESIAN_POINT ( 'NONE',  ( -62.69824551836735083, 38.71775890109190499, 56.51812233241268046 ) ) ;
#294 = CARTESIAN_POINT ( 'NONE',  ( -68.13546554830999469, 41.73841909996278332, 47.61505809431485403 ) ) ;
#295 = DIRECTION ( 'NONE',  ( 0.8207539717850707017, -0.5678858300441927964, -0.06219808545324619076 ) ) ;
#296 = EDGE_LOOP ( 'NONE', ( #190, #253, #796, #770 ) ) ;
#297 = CARTESIAN_POINT ( 'NONE',  ( -62.60195059707601928, 38.89266723255728664, 56.50276398185611271 ) ) ;
#298 = CARTESIAN_POINT ( 'NONE',  ( -65.09297505314403054, 41.47497559788258314, 46.65368725805524264 ) ) ;
#299 = CARTESIAN_POINT ( 'NONE',  ( -63.52008043957824412, 37.84667594663962120, 44.98483166185339854 ) ) ;
#300 = VERTEX_POINT ( 'NONE', #633 ) ;
#301 = CARTESIAN_POINT ( 'NONE',  ( -60.09985400302581127, 35.89732110414595212, 36.47996663744260815 ) ) ;
#302 = DIRECTION ( 'NONE',  ( -0.8191520442889953513, 0.5735764363510411634, 1.373376332735242575E-15 ) ) ;
#303 = EDGE_CURVE ( 'NONE', #287, #327, #323, .T. ) ;
#304 = CARTESIAN_POINT ( 'NONE',  ( -19.25438671330140394, 3.478953647112870140, 71.33994768069820225 ) ) ;
#305 = CARTESIAN_POINT ( 'NONE',  ( -62.74407677034918152, 36.99449201222673622, 44.24104244842074252 ) ) ;
#306 = ORIENTED_EDGE ( 'NONE', *, *, #519, .T. ) ;
#307 = AXIS2_PLACEMENT_3D ( 'NONE', #576, #952, #935 ) ;
#308 = LINE ( 'NONE', #384, #927 ) ;
#309 = AXIS2_PLACEMENT_3D ( 'NONE', #560, #862, #177 ) ;
#310 =( BOUNDED_SURFACE ( )  B_SPLINE_SURFACE ( 3, 2, ( 
 ( #586, #890, #712 ),
 ( #31, #443, #669 ),
 ( #745, #904, #355 ),
 ( #64, #900, #218 ),
 ( #364, #214, #138 ),
 ( #207, #223, #678 ),
 ( #683, #370, #916 ),
 ( #674, #979, #973 ),
 ( #294, #525, #663 ),
 ( #601, #520, #826 ),
 ( #143, #822, #448 ),
 ( #532, #985, #838 ),
 ( #289, #230, #750 ),
 ( #134, #70, #298 ),
 ( #514, #740, #606 ),
 ( #909, #53, #833 ) ),
 .UNSPECIFIED., .F., .F., .F. ) 
 B_SPLINE_SURFACE_WITH_KNOTS ( ( 4, 2, 2, 2, 2, 2, 2, 4 ),
 ( 3, 3 ),
 ( 1.570796326794897446, 1.963495408493621142, 2.159844949342982989, 2.356194490192344837, 2.552544031041706685, 2.748893571891068532, 2.945243112740430824, 3.141592653589792672 ),
 ( 0.000000000000000000, 1.000000000000000000 ),
 .UNSPECIFIED. ) 
 GEOMETRIC_REPRESENTATION_ITEM ( )  RATIONAL_B_SPLINE_SURFACE ( (
 ( 1.000000000000000000, 1.000000000000000000, 1.000000000000000000),
 ( 1.000000000000000000, 1.000162980499014420, 1.000000000000000000),
 ( 1.000000000000000000, 0.9859156089752839636, 1.000000000000000000),
 ( 1.000000000000000000, 0.9475140345277247578, 1.000000000000000000),
 ( 1.000000000000000000, 0.9319140524384434965, 1.000000000000000000),
 ( 1.000000000000000000, 0.8967831073832583932, 1.000000000000000000),
 ( 1.000000000000000000, 0.8772502861567342825, 1.000000000000000000),
 ( 1.000000000000000000, 0.8366785598225719989, 1.000000000000000000),
 ( 1.000000000000000000, 0.8156422777279906944, 1.000000000000000000),
 ( 1.000000000000000000, 0.7752602572564627481, 1.000000000000000000),
 ( 1.000000000000000000, 0.7559322149514559053, 1.000000000000000000),
 ( 1.000000000000000000, 0.7226779319807640212, 1.000000000000000000),
 ( 1.000000000000000000, 0.7087950332382836338, 1.000000000000000000),
 ( 1.000000000000000000, 0.6897678755440000975, 1.000000000000000000),
 ( 1.000000000000000000, 0.6846319508147512556, 1.000000000000000000),
 ( 1.000000000000000000, 0.6846722168599931324, 1.000000000000000000) ) ) 
 REPRESENTATION_ITEM ( '' )  SURFACE ( )  );
#311 = ORIENTED_EDGE ( 'NONE', *, *, #866, .F. ) ;
#312 = EDGE_CURVE ( 'NONE', #119, #210, #174, .T. ) ;
#313 = DIRECTION ( 'NONE',  ( -0.8207539717850708128, 0.5678858300441929075, 0.06219808545324618382 ) ) ;
#314 = DIRECTION ( 'NONE',  ( 0.8207539717850708128, -0.5678858300441929075, -0.06219808545324618382 ) ) ;
#315 = ORIENTED_EDGE ( 'NONE', *, *, #25, .T. ) ;
#316 = CARTESIAN_POINT ( 'NONE',  ( -58.49080566250676583, 45.63413590035208500, 49.20115665445442232 ) ) ;
#317 = EDGE_CURVE ( 'NONE', #48, #554, #212, .T. ) ;
#318 = CARTESIAN_POINT ( 'NONE',  ( -19.25438671330140394, 3.478953647112870140, 71.33994768069820225 ) ) ;
#319 = ORIENTED_EDGE ( 'NONE', *, *, #133, .F. ) ;
#320 = CARTESIAN_POINT ( 'NONE',  ( -60.94505794038158086, 47.33899726995783652, 49.32555282536091568 ) ) ;
#321 = DIRECTION ( 'NONE',  ( 0.8207539717850709238, -0.5678858300441930185, -0.06219808545324620463 ) ) ;
#322 = CARTESIAN_POINT ( 'NONE',  ( -207.5472219750449483, 139.1410796473333562, 36.47996663744262236 ) ) ;
#323 = LINE ( 'NONE', #668, #19 ) ;
#324 = DIRECTION ( 'NONE',  ( 1.249990136675045158E-15, -0.1088746101867824889, 0.9940554910349201911 ) ) ;
#325 = ORIENTED_EDGE ( 'NONE', *, *, #329, .F. ) ;
#326 = CARTESIAN_POINT ( 'NONE',  ( -208.0133165255741403, 134.6493792060620649, 71.33994768069820225 ) ) ;
#327 = VERTEX_POINT ( 'NONE', #104 ) ;
#328 = CARTESIAN_POINT ( 'NONE',  ( -62.48977840211784951, 39.05286572919847288, 56.52030983219708560 ) ) ;
#329 = EDGE_CURVE ( 'NONE', #563, #505, #815, .T. ) ;
#330 = CARTESIAN_POINT ( 'NONE',  ( -70.76164599875143324, 49.19357590182693940, -16.75674752318693095 ) ) ;
#331 = LINE ( 'NONE', #639, #146 ) ;
#332 = CARTESIAN_POINT ( 'NONE',  ( -60.13231360607690590, 46.76990756044046549, 49.32555282536091568 ) ) ;
#333 = EDGE_LOOP ( 'NONE', ( #792, #814, #248, #188 ) ) ;
#334 = AXIS2_PLACEMENT_3D ( 'NONE', #705, #775, #636 ) ;
#335 = DIRECTION ( 'NONE',  ( 0.8191520442889953513, -0.5735764363510410524, -1.379327360214282581E-15 ) ) ;
#336 = AXIS2_PLACEMENT_3D ( 'NONE', #480, #314, #853 ) ;
#337 = VERTEX_POINT ( 'NONE', #518 ) ;
#338 = CARTESIAN_POINT ( 'NONE',  ( -67.16585811020745211, 39.60410554025410335, 59.19643174051343948 ) ) ;
#339 = VERTEX_POINT ( 'NONE', #947 ) ;
#340 = EDGE_CURVE ( 'NONE', #327, #981, #265, .T. ) ;
#341 = FACE_OUTER_BOUND ( 'NONE', #496, .T. ) ;
#342 = CARTESIAN_POINT ( 'NONE',  ( 4.692277930383066398, 6.701267373356675883, 0.7339609102425606046 ) ) ;
#343 = DIRECTION ( 'NONE',  ( 0.8191520442889953513, -0.5735764363510408304, 0.000000000000000000 ) ) ;
#344 = CARTESIAN_POINT ( 'NONE',  ( -65.29667097609379312, 40.30689056970389572, 58.62087495118236546 ) ) ;
#345 = EDGE_CURVE ( 'NONE', #372, #379, #570, .T. ) ;
#346 = EDGE_CURVE ( 'NONE', #210, #119, #84, .T. ) ;
#347 = CARTESIAN_POINT ( 'NONE',  ( -60.49029203231231833, 42.30924584135244260, 53.17349068390648625 ) ) ;
#348 = DIRECTION ( 'NONE',  ( -0.5689874895700276491, -0.8223461781468907050, 0.000000000000000000 ) ) ;
#349 = CARTESIAN_POINT ( 'NONE',  ( -67.51300841157444665, 40.72144936982370211, 58.73676787007538991 ) ) ;
#350 = EDGE_LOOP ( 'NONE', ( #608, #206, #517, #51 ) ) ;
#351 = MECHANICAL_DESIGN_GEOMETRIC_PRESENTATION_REPRESENTATION (  '', ( #777 ), #450 ) ;
#352 = AXIS2_PLACEMENT_3D ( 'NONE', #318, #20, #617 ) ;
#353 = CARTESIAN_POINT ( 'NONE',  ( -67.70124837434848075, 40.61186915753349780, 58.81665679024234805 ) ) ;
#354 = ORIENTED_EDGE ( 'NONE', *, *, #270, .T. ) ;
#355 = CARTESIAN_POINT ( 'NONE',  ( -69.61605466203596393, 41.80630273433752109, 44.24104244826705923 ) ) ;
#356 = DIRECTION ( 'NONE',  ( -0.5735764363510406083, -0.8191520442889955733, 0.000000000000000000 ) ) ;
#357 = CARTESIAN_POINT ( 'NONE',  ( -67.96976369815651253, 39.63026516203405691, 59.58890408064942079 ) ) ;
#358 = VERTEX_POINT ( 'NONE', #861 ) ;
#359 = CARTESIAN_POINT ( 'NONE',  ( -61.74136194659595134, 34.32208419894023166, 61.35662548878519118 ) ) ;
#360 = ADVANCED_FACE ( 'NONE', ( #341 ), #374, .T. ) ;
#361 = CARTESIAN_POINT ( 'NONE',  ( -63.34114096542632666, 37.62727941921201591, 44.80321856797618096 ) ) ;
#362 = ORIENTED_EDGE ( 'NONE', *, *, #97, .F. ) ;
#363 = CARTESIAN_POINT ( 'NONE',  ( -62.98007509652055091, 36.21148030995875899, 59.45260680043499946 ) ) ;
#364 = CARTESIAN_POINT ( 'NONE',  ( -69.30116556525237570, 41.77846879217910470, 46.04546448716889984 ) ) ;
#365 = CARTESIAN_POINT ( 'NONE',  ( -61.74136194659595134, 36.28310466845080384, 43.45196284609372839 ) ) ;
#366 = VECTOR ( 'NONE', #831, 1000.000000000000227 ) ;
#367 = ORIENTED_EDGE ( 'NONE', *, *, #170, .T. ) ;
#368 = CYLINDRICAL_SURFACE ( 'NONE', #116, 1.500000000000000444 ) ;
#369 = ADVANCED_FACE ( 'NONE', ( #923 ), #368, .F. ) ;
#370 = CARTESIAN_POINT ( 'NONE',  ( -68.02015028493953253, 41.86301930003278216, 46.05523298483036143 ) ) ;
#371 = CARTESIAN_POINT ( 'NONE',  ( -64.38347454513352375, 39.87017946440109739, 46.28695307491232569 ) ) ;
#372 = VERTEX_POINT ( 'NONE', #221 ) ;
#373 = LINE ( 'NONE', #836, #642 ) ;
#374 =( BOUNDED_SURFACE ( )  B_SPLINE_SURFACE ( 3, 2, ( 
 ( #120, #359, #271 ),
 ( #878, #972, #191 ),
 ( #57, #288, #820 ),
 ( #616, #620, #155 ),
 ( #976, #363, #919 ),
 ( #541, #74, #80 ),
 ( #744, #604, #982 ),
 ( #452, #841, #753 ),
 ( #240, #442, #829 ),
 ( #227, #757, #681 ),
 ( #461, #671, #67 ),
 ( #380, #761, #147 ),
 ( #142, #62, #609 ),
 ( #293, #544, #523 ),
 ( #297, #447, #907 ),
 ( #748, #903, #598 ) ),
 .UNSPECIFIED., .F., .F., .T. ) 
 B_SPLINE_SURFACE_WITH_KNOTS ( ( 4, 2, 2, 2, 2, 2, 2, 4 ),
 ( 3, 3 ),
 ( 4.712388980384688786, 5.105088062083412481, 5.301437602932774773, 5.497787143782137065, 5.694136684631499357, 5.890486225480861648, 6.086835766330223940, 6.283185307179586232 ),
 ( 0.000000000000000000, 1.000000000000000000 ),
 .UNSPECIFIED. ) 
 GEOMETRIC_REPRESENTATION_ITEM ( )  RATIONAL_B_SPLINE_SURFACE ( (
 ( 1.000000000000000000, 1.000000000000000000, 1.000000000000000000),
 ( 1.000000000000000000, 1.000162980498678023, 1.000000000000000000),
 ( 1.000000000000000000, 0.9859156089757317165, 1.000000000000000000),
 ( 1.000000000000000000, 0.9475140345275011589, 1.000000000000000000),
 ( 1.000000000000000000, 0.9319140524385649549, 1.000000000000000000),
 ( 1.000000000000000000, 0.8967831073831371569, 1.000000000000000000),
 ( 1.000000000000000000, 0.8772502861567222920, 1.000000000000000000),
 ( 1.000000000000000000, 0.8366785598225835452, 1.000000000000000000),
 ( 1.000000000000000000, 0.8156422777277683167, 1.000000000000000000),
 ( 1.000000000000000000, 0.7752602572566820172, 1.000000000000000000),
 ( 1.000000000000000000, 0.7559322149519032141, 1.000000000000000000),
 ( 1.000000000000000000, 0.7226779319803102730, 1.000000000000000000),
 ( 1.000000000000000000, 0.7087950332379664431, 1.000000000000000000),
 ( 1.000000000000000000, 0.6897678755443137355, 1.000000000000000000),
 ( 1.000000000000000000, 0.6846319508145161103, 1.000000000000000000),
 ( 1.000000000000000000, 0.6846722168599909120, 1.000000000000000000) ) ) 
 REPRESENTATION_ITEM ( '' )  SURFACE ( )  );
#375 = SURFACE_STYLE_USAGE ( .BOTH. , #198 ) ;
#376 = EDGE_CURVE ( 'NONE', #505, #39, #373, .T. ) ;
#377 = DIRECTION ( 'NONE',  ( -0.5712818199444398282, -0.8158749924416694999, -0.08935926873735232367 ) ) ;
#378 = CARTESIAN_POINT ( 'NONE',  ( -62.86257152928724423, 37.47045908874555664, 45.19105327320935572 ) ) ;
#379 = VERTEX_POINT ( 'NONE', #301 ) ;
#380 = CARTESIAN_POINT ( 'NONE',  ( -62.91624893799148310, 38.14759293554385522, 56.69463222386587375 ) ) ;
#381 = CARTESIAN_POINT ( 'NONE',  ( -63.96284543637325015, 38.52190443330155034, 45.49262362625039202 ) ) ;
#382 = VERTEX_POINT ( 'NONE', #537 ) ;
#383 = VECTOR ( 'NONE', #485, 1000.000000000000114 ) ;
#384 = CARTESIAN_POINT ( 'NONE',  ( -58.49080566250676583, 45.83868637341128505, 47.33355390860344869 ) ) ;
#385 = VECTOR ( 'NONE', #476, 1000.000000000000227 ) ;
#386 = DIRECTION ( 'NONE',  ( 0.000000000000000000, 0.9973102921620566885, 0.07329516455833187671 ) ) ;
#387 = ORIENTED_EDGE ( 'NONE', *, *, #213, .T. ) ;
#388 = DIRECTION ( 'NONE',  ( 0.8191520442889953513, -0.5735764363510408304, 3.469446951953611033E-15 ) ) ;
#389 = ADVANCED_FACE ( 'NONE', ( #988, #137 ), #825, .F. ) ;
#390 = PLANE ( 'NONE',  #211 ) ;
#391 = VECTOR ( 'NONE', #427, 1000.000000000000000 ) ;
#392 = VERTEX_POINT ( 'NONE', #686 ) ;
#393 = DIRECTION ( 'NONE',  ( 0.5712818199444399392, 0.8158749924416696109, 0.08935926873735251796 ) ) ;
#394 = DIRECTION ( 'NONE',  ( -0.8191520442889953513, 0.5735764363510410524, 1.373376332735242575E-15 ) ) ;
#395 = DIRECTION ( 'NONE',  ( 1.249990136675045158E-15, -0.1088746101867824889, 0.9940554910349201911 ) ) ;
#396 = LINE ( 'NONE', #244, #385 ) ;
#397 = VECTOR ( 'NONE', #178, 1000.000000000000227 ) ;
#398 = VECTOR ( 'NONE', #986, 1000.000000000000000 ) ;
#399 = CARTESIAN_POINT ( 'NONE',  ( -23.47498461666146241, 7.527678332543284334, 61.35662548878531908 ) ) ;
#400 = FACE_OUTER_BOUND ( 'NONE', #333, .T. ) ;
#401 = CARTESIAN_POINT ( 'NONE',  ( -68.41776150295569892, 39.18865547358124246, 59.60629656497915363 ) ) ;
#402 = DIRECTION ( 'NONE',  ( -1.018504054143844988E-16, 0.1088746101867817256, -0.9940554910349203022 ) ) ;
#403 = ORIENTED_EDGE ( 'NONE', *, *, #794, .T. ) ;
#404 = EDGE_CURVE ( 'NONE', #554, #379, #458, .T. ) ;
#405 = CARTESIAN_POINT ( 'NONE',  ( -70.37891970878737880, 42.31653644660138269, 43.72004065230580494 ) ) ;
#406 = FACE_OUTER_BOUND ( 'NONE', #415, .T. ) ;
#407 = CARTESIAN_POINT ( 'NONE',  ( -65.43953348811228921, 43.90961379609528592, 53.48387412767512217 ) ) ;
#408 = LINE ( 'NONE', #322, #749 ) ;
#409 = ORIENTED_EDGE ( 'NONE', *, *, #628, .T. ) ;
#410 = CARTESIAN_POINT ( 'NONE',  ( -61.74136194659595134, 34.32208419894023166, 61.35662548878519118 ) ) ;
#411 = EDGE_CURVE ( 'NONE', #468, #510, #308, .T. ) ;
#412 = DIRECTION ( 'NONE',  ( -0.5735764363510406083, -0.8191520442889955733, 0.000000000000000000 ) ) ;
#413 = CARTESIAN_POINT ( 'NONE',  ( -60.56594855355504592, 31.40562066287468923, 71.33994768069821646 ) ) ;
#414 = CARTESIAN_POINT ( 'NONE',  ( -19.25438671330140394, 2.478953647112869252, 71.33994768069820225 ) ) ;
#415 = EDGE_LOOP ( 'NONE', ( #888, #667, #589, #939 ) ) ;
#416 = VECTOR ( 'NONE', #6, 1000.000000000000114 ) ;
#417 = CARTESIAN_POINT ( 'NONE',  ( -63.49372582867662373, 37.61908021308461514, 56.36327348908928059 ) ) ;
#418 = CARTESIAN_POINT ( 'NONE',  ( -19.25438671330140394, -7.597409521260839682, -20.66005231930180486 ) ) ;
#419 = DIRECTION ( 'NONE',  ( 0.5712818199444399392, 0.8158749924416696109, 0.08935926873735251796 ) ) ;
#420 = CARTESIAN_POINT ( 'NONE',  ( -65.77563852233311081, 40.44021324043649201, 46.56192554725907229 ) ) ;
#421 = ORIENTED_EDGE ( 'NONE', *, *, #866, .T. ) ;
#422 = ADVANCED_FACE ( 'NONE', ( #10 ), #640, .T. ) ;
#423 = EDGE_CURVE ( 'NONE', #918, #103, #846, .T. ) ;
#424 = CARTESIAN_POINT ( 'NONE',  ( -60.02980486424229412, 46.91630521576521318, 47.33355390860344869 ) ) ;
#425 = LINE ( 'NONE', #204, #209 ) ;
#426 = CARTESIAN_POINT ( 'NONE',  ( -68.35334849145398550, 40.35586149061077066, 59.17826280423052765 ) ) ;
#427 = DIRECTION ( 'NONE',  ( 0.8191520442889952403, -0.5735764363510411634, -7.791095701471561656E-17 ) ) ;
#428 = FACE_BOUND ( 'NONE', #502, .T. ) ;
#429 = CARTESIAN_POINT ( 'NONE',  ( -66.82574965360107910, 41.58079490892715313, 56.76531093690874030 ) ) ;
#430 = VERTEX_POINT ( 'NONE', #552 ) ;
#431 = CIRCLE ( 'NONE', #581, 1.999999999999996003 ) ;
#432 = CARTESIAN_POINT ( 'NONE',  ( 0.000000000000000000, 0.000000000000000000, 0.000000000000000000 ) ) ;
#433 = VECTOR ( 'NONE', #295, 1000.000000000000227 ) ;
#434 = CARTESIAN_POINT ( 'NONE',  ( -68.04592222689414882, 41.57473693960690042, 47.86631389572775674 ) ) ;
#435 = CARTESIAN_POINT ( 'NONE',  ( -66.58553862356279751, 41.89349875889259778, 56.76910217401007230 ) ) ;
#436 = ORIENTED_EDGE ( 'NONE', *, *, #519, .F. ) ;
#437 = DIRECTION ( 'NONE',  ( -0.8191520442889952403, 0.5735764363510412744, -2.793674368490920030E-15 ) ) ;
#438 =( NAMED_UNIT ( * ) SI_UNIT ( $, .STERADIAN. ) SOLID_ANGLE_UNIT ( ) );
#439 = CARTESIAN_POINT ( 'NONE',  ( -62.16447541386958875, 36.52313532243817207, 43.96541852066614808 ) ) ;
#440 = ORIENTED_EDGE ( 'NONE', *, *, #404, .F. ) ;
#441 =( BOUNDED_CURVE ( )  B_SPLINE_CURVE ( 3, ( #723, #778, #273, #578 ),
 .UNSPECIFIED., .F., .F. ) 
 B_SPLINE_CURVE_WITH_KNOTS ( ( 4, 4 ),
 ( -3.552713678800500929E-15, 1.481317705220682512 ),
 .UNSPECIFIED. ) 
 CURVE ( )  GEOMETRIC_REPRESENTATION_ITEM ( )  RATIONAL_B_SPLINE_CURVE ( ( 1.000000000000000000, 0.8253494280875486311, 0.8253494280875486311, 1.000000000000000000 ) ) 
 REPRESENTATION_ITEM ( '' )  );
#442 = CARTESIAN_POINT ( 'NONE',  ( -63.06531580529676262, 37.74219274907656541, 58.66678551209786008 ) ) ;
#443 = CARTESIAN_POINT ( 'NONE',  ( -70.32519468001859764, 42.23555971787639152, 43.98160423925666862 ) ) ;
#444 = EDGE_CURVE ( 'NONE', #510, #463, #159, .T. ) ;
#445 = CARTESIAN_POINT ( 'NONE',  ( -62.53575150148639494, 40.06190503609726505, 46.70084796623602585 ) ) ;
#446 = ORIENTED_EDGE ( 'NONE', *, *, #762, .T. ) ;
#447 = CARTESIAN_POINT ( 'NONE',  ( -62.51685507926241314, 38.78239660161055014, 58.63246961603575613 ) ) ;
#448 = CARTESIAN_POINT ( 'NONE',  ( -66.02655137364973825, 41.02067424554458341, 46.28695307489465449 ) ) ;
#449 = CARTESIAN_POINT ( 'NONE',  ( -60.94505794038158797, 47.33899726995782942, 49.32555282536091568 ) ) ;
#450 =( GEOMETRIC_REPRESENTATION_CONTEXT ( 3 ) GLOBAL_UNCERTAINTY_ASSIGNED_CONTEXT ( ( #237 ) ) GLOBAL_UNIT_ASSIGNED_CONTEXT ( ( #736, #122, #283 ) ) REPRESENTATION_CONTEXT ( 'NONE', 'WORKASPACE' ) );
#451 = ORIENTED_EDGE ( 'NONE', *, *, #821, .F. ) ;
#452 = CARTESIAN_POINT ( 'NONE',  ( -63.01510706704167575, 36.87235315116496537, 57.60196759329470950 ) ) ;
#453 = ADVANCED_FACE ( 'NONE', ( #106 ), #14, .T. ) ;
#454 = CARTESIAN_POINT ( 'NONE',  ( -63.73257101940221503, 46.37665233053596126, 53.48387412767512217 ) ) ;
#455 = FACE_OUTER_BOUND ( 'NONE', #547, .T. ) ;
#456 = CARTESIAN_POINT ( 'NONE',  ( -62.74880995176285126, 37.20411592955594671, 45.92078203740210540 ) ) ;
#457 = EDGE_LOOP ( 'NONE', ( #367, #691, #619, #860 ) ) ;
#458 = LINE ( 'NONE', #235, #416 ) ;
#459 = DIRECTION ( 'NONE',  ( -0.5712818199444398282, -0.8158749924416694999, -0.08935926873735230980 ) ) ;
#460 = EDGE_LOOP ( 'NONE', ( #603, #113 ) ) ;
#461 = CARTESIAN_POINT ( 'NONE',  ( -63.00017133631590127, 37.73721757960416312, 56.91790720375338708 ) ) ;
#462 = DIRECTION ( 'NONE',  ( 0.05125437091730784128, 0.07319882766237026384, -0.9959994583787310507 ) ) ;
#463 = VERTEX_POINT ( 'NONE', #96 ) ;
#464 = VECTOR ( 'NONE', #114, 1000.000000000000114 ) ;
#465 = DIRECTION ( 'NONE',  ( -0.8191520442889952403, 0.5735764363510411634, 7.709882115452476934E-17 ) ) ;
#466 = VECTOR ( 'NONE', #784, 1000.000000000000000 ) ;
#467 = CARTESIAN_POINT ( 'NONE',  ( -62.48977840211784951, 38.82106610407820568, 58.63670491986104594 ) ) ;
#468 = VERTEX_POINT ( 'NONE', #933 ) ;
#469 = CYLINDRICAL_SURFACE ( 'NONE', #690, 2.000000000000001776 ) ;
#470 = LINE ( 'NONE', #857, #734 ) ;
#471 = ORIENTED_EDGE ( 'NONE', *, *, #245, .F. ) ;
#472 = CARTESIAN_POINT ( 'NONE',  ( -62.49298225710999333, 39.04148451658477370, 56.64470600310357895 ) ) ;
#473 =( BOUNDED_CURVE ( )  B_SPLINE_CURVE ( 3, ( #257, #867, #179, #482 ),
 .UNSPECIFIED., .F., .T. ) 
 B_SPLINE_CURVE_WITH_KNOTS ( ( 4, 4 ),
 ( 4.712388980384689674, 6.283185307179586232 ),
 .UNSPECIFIED. ) 
 CURVE ( )  GEOMETRIC_REPRESENTATION_ITEM ( )  RATIONAL_B_SPLINE_CURVE ( ( 1.000000000000000000, 0.8047378541243649375, 0.8047378541243649375, 1.000000000000000000 ) ) 
 REPRESENTATION_ITEM ( '' )  );
#474 = CARTESIAN_POINT ( 'NONE',  ( -58.49080566250676583, 45.63413590035208500, 49.20115665445442232 ) ) ;
#475 = EDGE_CURVE ( 'NONE', #379, #680, #408, .T. ) ;
#476 = DIRECTION ( 'NONE',  ( -0.5712818199444397171, -0.8158749924416696109, -0.08935926873735228204 ) ) ;
#477 = ORIENTED_EDGE ( 'NONE', *, *, #59, .T. ) ;
#478 = CIRCLE ( 'NONE', #336, 1.500000000000004441 ) ;
#479 = CARTESIAN_POINT ( 'NONE',  ( -63.18372158249626835, 35.65952634262751531, 58.36654102596541804 ) ) ;
#480 = CARTESIAN_POINT ( 'NONE',  ( -60.49029203231231833, 42.30924584135244260, 53.17349068390648625 ) ) ;
#481 = CARTESIAN_POINT ( 'NONE',  ( -66.05048684838607187, 39.17754392736561897, 58.47966857675324093 ) ) ;
#482 = CARTESIAN_POINT ( 'NONE',  ( -64.23379508752259426, 40.04223973396210567, 58.63670491986103883 ) ) ;
#483 = ORIENTED_EDGE ( 'NONE', *, *, #984, .F. ) ;
#484 = ADVANCED_FACE ( 'NONE', ( #556 ), #102, .F. ) ;
#485 = DIRECTION ( 'NONE',  ( 0.5689874895700275381, 0.8223461781468908161, 0.000000000000000000 ) ) ;
#486 = DIRECTION ( 'NONE',  ( 0.5712818199444361644, 0.8158749924416726085, 0.08935926873734947873 ) ) ;
#487 = FACE_OUTER_BOUND ( 'NONE', #798, .T. ) ;
#488 = CARTESIAN_POINT ( 'NONE',  ( -69.66971755449463899, 40.05417799956505576, 60.58150058204265065 ) ) ;
#489 = EDGE_LOOP ( 'NONE', ( #962, #703, #483, #648 ) ) ;
#490 = AXIS2_PLACEMENT_3D ( 'NONE', #342, #45, #499 ) ;
#491 = CARTESIAN_POINT ( 'NONE',  ( -65.81267220247021044, 27.73857117972925579, 35.58637395006908122 ) ) ;
#492 = DIRECTION ( 'NONE',  ( 0.8191520442889953513, -0.5735764363510408304, 0.000000000000000000 ) ) ;
#493 = CARTESIAN_POINT ( 'NONE',  ( -60.13231360607691300, 45.89976233637854364, 57.27022088426503643 ) ) ;
#494 = EDGE_CURVE ( 'NONE', #39, #5, #252, .T. ) ;
#495 = CARTESIAN_POINT ( 'NONE',  ( -68.52989507735894392, 39.72158117048583392, 59.89461950307569538 ) ) ;
#496 = EDGE_LOOP ( 'NONE', ( #29, #632, #325, #728 ) ) ;
#497 = AXIS2_PLACEMENT_3D ( 'NONE', #623, #781, #627 ) ;
#498 = CARTESIAN_POINT ( 'NONE',  ( -64.58605225375725922, 45.14313306331562359, 53.48387412767512217 ) ) ;
#499 = DIRECTION ( 'NONE',  ( 0.8191520442889952403, -0.5735764363510412744, 0.000000000000000000 ) ) ;
#500 = CARTESIAN_POINT ( 'NONE',  ( -67.15789348901867584, 41.94623652270456660, 48.73490700177968193 ) ) ;
#501 = DIRECTION ( 'NONE',  ( -0.5712818199444398282, -0.8158749924416694999, -0.08935926873735232367 ) ) ;
#502 = EDGE_LOOP ( 'NONE', ( #258, #264 ) ) ;
#503 = CARTESIAN_POINT ( 'NONE',  ( -60.13231360607690590, 46.76990756044047259, 49.32555282536091568 ) ) ;
#504 = CARTESIAN_POINT ( 'NONE',  ( -67.10866026336876189, 41.29700542086349913, 56.85489266805989672 ) ) ;
#505 = VERTEX_POINT ( 'NONE', #714 ) ;
#506 = CIRCLE ( 'NONE', #924, 1.500000000000004441 ) ;
#507 = CARTESIAN_POINT ( 'NONE',  ( -69.04780053891802538, 41.73357678353014677, 46.41606191525079339 ) ) ;
#508 = FILL_AREA_STYLE_COLOUR ( '', #612 ) ;
#509 = CARTESIAN_POINT ( 'NONE',  ( -66.69771081851507688, 41.73330026225977463, 56.75155632367039260 ) ) ;
#510 = VERTEX_POINT ( 'NONE', #926 ) ;
#511 =( BOUNDED_CURVE ( )  B_SPLINE_CURVE ( 3, ( #8, #928, #764, #26 ),
 .UNSPECIFIED., .F., .F. ) 
 B_SPLINE_CURVE_WITH_KNOTS ( ( 4, 4 ),
 ( 1.481317705220682512, 1.570796326794896114 ),
 .UNSPECIFIED. ) 
 CURVE ( )  GEOMETRIC_REPRESENTATION_ITEM ( )  RATIONAL_B_SPLINE_CURVE ( ( 1.000000000000000000, 0.9993329093056259049, 0.9993329093056259049, 1.000000000000000000 ) ) 
 REPRESENTATION_ITEM ( '' )  );
#512 = EDGE_CURVE ( 'NONE', #747, #563, #396, .T. ) ;
#513 = VECTOR ( 'NONE', #739, 999.9999999999998863 ) ;
#514 = CARTESIAN_POINT ( 'NONE',  ( -66.69771081852051964, 42.60344548631422157, 48.80688826476293229 ) ) ;
#515 = VECTOR ( 'NONE', #184, 1000.000000000000000 ) ;
#516 = CARTESIAN_POINT ( 'NONE',  ( -62.94928791044880967, 37.68461520407110044, 45.40953701771041295 ) ) ;
#517 = ORIENTED_EDGE ( 'NONE', *, *, #618, .F. ) ;
#518 = CARTESIAN_POINT ( 'NONE',  ( -69.04780053891801117, 40.39575350957180433, 58.63076072547944761 ) ) ;
#519 = EDGE_CURVE ( 'NONE', #630, #505, #23, .T. ) ;
#520 = CARTESIAN_POINT ( 'NONE',  ( -67.06455730100124413, 42.32538952388475906, 46.62654078809865865 ) ) ;
#521 = CARTESIAN_POINT ( 'NONE',  ( -64.22732419587822505, 40.86884034215361794, 46.65368725805192440 ) ) ;
#522 = EDGE_LOOP ( 'NONE', ( #819, #13, #626, #436 ) ) ;
#523 = CARTESIAN_POINT ( 'NONE',  ( -64.43102011881200042, 39.70075531399265856, 58.62087495118102964 ) ) ;
#524 = AXIS2_PLACEMENT_3D ( 'NONE', #76, #377, #595 ) ;
#525 = CARTESIAN_POINT ( 'NONE',  ( -67.38831214784970314, 42.10588495934504039, 46.46236456844656715 ) ) ;
#526 = ADVANCED_FACE ( 'NONE', ( #709 ), #469, .T. ) ;
#527 = CARTESIAN_POINT ( 'NONE',  ( -63.01510706702863018, 38.01152259759492580, 47.20103351350361720 ) ) ;
#528 = EDGE_CURVE ( 'NONE', #287, #39, #165, .T. ) ;
#529 = VERTEX_POINT ( 'NONE', #326 ) ;
#530 = DIRECTION ( 'NONE',  ( -8.797261760657004206E-17, 0.1088746101867817256, -0.9940554910349201911 ) ) ;
#531 = DIRECTION ( 'NONE',  ( 0.5689874895700276491, 0.8223461781468907050, 0.000000000000000000 ) ) ;
#532 = CARTESIAN_POINT ( 'NONE',  ( -67.26352377521617143, 42.09159058793258623, 48.47735398961015818 ) ) ;
#533 = AXIS2_PLACEMENT_3D ( 'NONE', #645, #321, #37 ) ;
#534 = CARTESIAN_POINT ( 'NONE',  ( -62.60195059707091048, 39.76281245662622155, 48.55809592295540256 ) ) ;
#535 = VECTOR ( 'NONE', #164, 999.9999999999998863 ) ;
#536 = EDGE_LOOP ( 'NONE', ( #145, #233, #56, #803 ) ) ;
#537 = CARTESIAN_POINT ( 'NONE',  ( -62.09205540395189615, 36.51401159223468085, 43.72004065230579783 ) ) ;
#538 = LINE ( 'NONE', #280, #978 ) ;
#539 = FACE_OUTER_BOUND ( 'NONE', #828, .T. ) ;
#540 = EDGE_LOOP ( 'NONE', ( #725, #256, #752, #894 ) ) ;
#541 = CARTESIAN_POINT ( 'NONE',  ( -62.89216271399899938, 36.21628608200701649, 58.29792468194045796 ) ) ;
#542 = FACE_OUTER_BOUND ( 'NONE', #489, .T. ) ;
#543 = ORIENTED_EDGE ( 'NONE', *, *, #376, .F. ) ;
#544 = CARTESIAN_POINT ( 'NONE',  ( -62.55422474987944526, 38.75035827461852023, 58.61665241753741640 ) ) ;
#545 =( BOUNDED_CURVE ( )  B_SPLINE_CURVE ( 3, ( #635, #32, #875, #938 ),
 .UNSPECIFIED., .F., .F. ) 
 B_SPLINE_CURVE_WITH_KNOTS ( ( 4, 4 ),
 ( 2.178863093755411651, 3.141592653589796225 ),
 .UNSPECIFIED. ) 
 CURVE ( )  GEOMETRIC_REPRESENTATION_ITEM ( )  RATIONAL_B_SPLINE_CURVE ( ( 1.000000000000000000, 0.9242425799739916181, 0.9242425799739916181, 1.000000000000000000 ) ) 
 REPRESENTATION_ITEM ( '' )  );
#546 = CARTESIAN_POINT ( 'NONE',  ( -58.49080566250676583, 45.83868637341128505, 47.33355390860344869 ) ) ;
#547 = EDGE_LOOP ( 'NONE', ( #845, #362, #87, #975 ) ) ;
#548 = DIRECTION ( 'NONE',  ( 0.8191520442889953513, -0.5735764363510408304, 0.000000000000000000 ) ) ;
#549 = DIRECTION ( 'NONE',  ( 0.5712818199444397171, 0.8158749924416696109, 0.08935926873735236531 ) ) ;
#550 = EDGE_CURVE ( 'NONE', #652, #132, #816, .T. ) ;
#551 = ORIENTED_EDGE ( 'NONE', *, *, #232, .F. ) ;
#552 = CARTESIAN_POINT ( 'NONE',  ( -61.34377326666736252, 41.07572657413210493, 53.17349068390648625 ) ) ;
#553 = LINE ( 'NONE', #776, #614 ) ;
#554 = VERTEX_POINT ( 'NONE', #33 ) ;
#555 = EDGE_CURVE ( 'NONE', #372, #48, #699, .T. ) ;
#556 = FACE_OUTER_BOUND ( 'NONE', #641, .T. ) ;
#557 = ORIENTED_EDGE ( 'NONE', *, *, #528, .T. ) ;
#558 = CARTESIAN_POINT ( 'NONE',  ( -64.13128634568798248, 40.18863738928684626, 56.64470600310357895 ) ) ;
#559 = PRODUCT_CONTEXT ( 'NONE', #735, 'mechanical' ) ;
#560 = CARTESIAN_POINT ( 'NONE',  ( -64.94403067999266455, 40.75772709880421729, 56.64470600310357895 ) ) ;
#561 = ORIENTED_EDGE ( 'NONE', *, *, #11, .F. ) ;
#562 = CARTESIAN_POINT ( 'NONE',  ( -63.49372582867665926, 38.48922543714654410, 48.41860543018516694 ) ) ;
#563 = VERTEX_POINT ( 'NONE', #472 ) ;
#564 = VECTOR ( 'NONE', #949, 1000.000000000000114 ) ;
#565 = CARTESIAN_POINT ( 'NONE',  ( -60.25848252327983090, 31.84999513426752671, 71.33994768069820225 ) ) ;
#566 = FACE_OUTER_BOUND ( 'NONE', #676, .T. ) ;
#567 = CARTESIAN_POINT ( 'NONE',  ( -61.04756668221619265, 46.32245439057116698, 59.26221980102250342 ) ) ;
#568 = CARTESIAN_POINT ( 'NONE',  ( -68.81509763735492413, 39.78921828367963087, 60.05961104290708619 ) ) ;
#569 = ORIENTED_EDGE ( 'NONE', *, *, #127, .F. ) ;
#570 = LINE ( 'NONE', #491, #513 ) ;
#571 = EDGE_CURVE ( 'NONE', #327, #300, #473, .T. ) ;
#572 = CARTESIAN_POINT ( 'NONE',  ( -70.25472677330620286, 40.39269366468716527, 60.35697653025176379 ) ) ;
#573 = CYLINDRICAL_SURFACE ( 'NONE', #533, 1.500000000000000444 ) ;
#574 = CARTESIAN_POINT ( 'NONE',  ( -64.84152193815805276, 41.77426997819090104, 46.70803902744199121 ) ) ;
#575 = VECTOR ( 'NONE', #203, 1000.000000000000000 ) ;
#576 = CARTESIAN_POINT ( 'NONE',  ( -64.58605225375725922, 45.14313306331562359, 53.48387412767512217 ) ) ;
#577 = CARTESIAN_POINT ( 'NONE',  ( -69.66542682264180542, 41.83149652221717929, 45.52202744977206095 ) ) ;
#578 = CARTESIAN_POINT ( 'NONE',  ( -62.09205540395189615, 36.51401159223468085, 43.72004065230579783 ) ) ;
#579 = CARTESIAN_POINT ( 'NONE',  ( -70.76164599875133376, 40.63815508905215523, 61.35662548878515565 ) ) ;
#580 = ORIENTED_EDGE ( 'NONE', *, *, #444, .F. ) ;
#581 = AXIS2_PLACEMENT_3D ( 'NONE', #682, #664, #959 ) ;
#582 = LINE ( 'NONE', #800, #391 ) ;
#583 = CARTESIAN_POINT ( 'NONE',  ( -66.58553862356281172, 42.76364398295451963, 48.82443411510594444 ) ) ;
#584 = CARTESIAN_POINT ( 'NONE',  ( -67.06353381881478981, 41.06887916514653369, 58.60489977490382785 ) ) ;
#585 = ORIENTED_EDGE ( 'NONE', *, *, #494, .F. ) ;
#586 = CARTESIAN_POINT ( 'NONE',  ( -70.76164599875134797, 42.59917555856275584, 43.45196284609375681 ) ) ;
#587 = EDGE_CURVE ( 'NONE', #358, #840, #889, .T. ) ;
#588 = CARTESIAN_POINT ( 'NONE',  ( -65.15871161677688406, 40.45113094684438693, 58.61915906952295785 ) ) ;
#589 = ORIENTED_EDGE ( 'NONE', *, *, #946, .T. ) ;
#590 =( NAMED_UNIT ( * ) PLANE_ANGLE_UNIT ( ) SI_UNIT ( $, .RADIAN. ) );
#591 = CARTESIAN_POINT ( 'NONE',  ( -63.08798981180463272, 38.75690746557797439, 46.25999750983989145 ) ) ;
#592 = ORIENTED_EDGE ( 'NONE', *, *, #794, .F. ) ;
#593 = EDGE_CURVE ( 'NONE', #5, #468, #85, .T. ) ;
#594 = VECTOR ( 'NONE', #697, 1000.000000000000000 ) ;
#595 = DIRECTION ( 'NONE',  ( 0.8191520442889953513, -0.5735764363510408304, 0.000000000000000000 ) ) ;
#596 = DIRECTION ( 'NONE',  ( 0.8191520442889953513, -0.5735764363510408304, 0.000000000000000000 ) ) ;
#597 = EDGE_LOOP ( 'NONE', ( #760, #685, #220, #409 ) ) ;
#598 = CARTESIAN_POINT ( 'NONE',  ( -64.23379508752260847, 40.04223973396211989, 58.63670491986103883 ) ) ;
#599 = EDGE_CURVE ( 'NONE', #529, #66, #731, .T. ) ;
#600 = EDGE_CURVE ( 'NONE', #132, #877, #870, .T. ) ;
#601 = CARTESIAN_POINT ( 'NONE',  ( -67.76986665218899475, 41.83877622603180413, 48.01544721887567846 ) ) ;
#602 = CARTESIAN_POINT ( 'NONE',  ( -62.58656588395171383, 47.60462370598428805, 57.39461705517153689 ) ) ;
#603 = ORIENTED_EDGE ( 'NONE', *, *, #772, .F. ) ;
#604 = CARTESIAN_POINT ( 'NONE',  ( -63.11385905044085121, 37.01337309352153682, 58.96749259443234337 ) ) ;
#605 = CARTESIAN_POINT ( 'NONE',  ( -62.33601528936593184, 40.34715790930671631, 43.72004065230579783 ) ) ;
#606 = CARTESIAN_POINT ( 'NONE',  ( -64.95369413311634332, 41.61407148154908953, 46.69049317710297942 ) ) ;
#607 = CARTESIAN_POINT ( 'NONE',  ( -62.26522023384972471, 36.60706789586052423, 43.84316143707334845 ) ) ;
#608 = ORIENTED_EDGE ( 'NONE', *, *, #984, .T. ) ;
#609 = CARTESIAN_POINT ( 'NONE',  ( -64.54363445380371900, 39.30294674985344727, 58.66276321933016646 ) ) ;
#610 = CARTESIAN_POINT ( 'NONE',  ( -58.49080566250676583, 45.83868637341128505, 47.33355390860344869 ) ) ;
#611 = DIRECTION ( 'NONE',  ( -0.8191520442889952403, 0.5735764363510411634, 0.000000000000000000 ) ) ;
#612 = COLOUR_RGB ( '',0.7921568627450980005, 0.8196078431372548767, 0.9333333333333333481 ) ;
#613 = CARTESIAN_POINT ( 'NONE',  ( -64.25437794854877893, 39.20515795579720475, 45.93229622102711573 ) ) ;
#614 = VECTOR ( 'NONE', #250, 1000.000000000000114 ) ;
#615 = ORIENTED_EDGE ( 'NONE', *, *, #201, .T. ) ;
#616 = CARTESIAN_POINT ( 'NONE',  ( -62.65913161297298473, 35.58148675195025845, 59.12172800701791431 ) ) ;
#617 = DIRECTION ( 'NONE',  ( 1.000000000000000000, 0.000000000000000000, -0.000000000000000000 ) ) ;
#618 = EDGE_CURVE ( 'NONE', #48, #529, #50, .T. ) ;
#619 = ORIENTED_EDGE ( 'NONE', *, *, #345, .F. ) ;
#620 = CARTESIAN_POINT ( 'NONE',  ( -62.89273079494412855, 35.94045567318458012, 59.65128173218595720 ) ) ;
#621 = FACE_OUTER_BOUND ( 'NONE', #536, .T. ) ;
#622 = ORIENTED_EDGE ( 'NONE', *, *, #494, .T. ) ;
#623 = CARTESIAN_POINT ( 'NONE',  ( -213.2600401744893190, 127.1642663638463659, 70.44635499332467532 ) ) ;
#624 = ADVANCED_FACE ( 'NONE', ( #274 ), #234, .T. ) ;
#625 = DIRECTION ( 'NONE',  ( 0.000000000000000000, -0.9973102921620564665, -0.07329516455833426369 ) ) ;
#626 = ORIENTED_EDGE ( 'NONE', *, *, #329, .T. ) ;
#627 = DIRECTION ( 'NONE',  ( -0.5689874895700276491, -0.8223461781468907050, 0.000000000000000000 ) ) ;
#628 = EDGE_CURVE ( 'NONE', #463, #918, #231, .T. ) ;
#629 = CYLINDRICAL_SURFACE ( 'NONE', #865, 2.999999999999997780 ) ;
#630 = VERTEX_POINT ( 'NONE', #834 ) ;
#631 = DIRECTION ( 'NONE',  ( 0.5712818199444399392, 0.8158749924416696109, 0.08935926873735251796 ) ) ;
#632 = ORIENTED_EDGE ( 'NONE', *, *, #246, .F. ) ;
#633 = CARTESIAN_POINT ( 'NONE',  ( -64.23379508752259426, 40.04223973396210567, 58.63670491986103883 ) ) ;
#634 = DIRECTION ( 'NONE',  ( -0.5712818199444398282, -0.8158749924416697219, -0.08935926873735230980 ) ) ;
#635 = CARTESIAN_POINT ( 'NONE',  ( -69.04780053891801117, 40.39575350957180433, 58.63076072547944761 ) ) ;
#636 = DIRECTION ( 'NONE',  ( 0.000000000000000000, 0.9973102921620565775, 0.07329516455833350042 ) ) ;
#637 = CARTESIAN_POINT ( 'NONE',  ( -62.64354151486976718, 38.60146962109109126, 61.62470329499723931 ) ) ;
#638 = DIRECTION ( 'NONE',  ( 0.5712818199444399392, 0.8158749924416696109, 0.08935926873735251796 ) ) ;
#639 = CARTESIAN_POINT ( 'NONE',  ( -69.04780053891802538, 41.71693462510260275, 46.56800945324138752 ) ) ;
#640 = PLANE ( 'NONE',  #334 ) ;
#641 = EDGE_LOOP ( 'NONE', ( #868, #557, #543, #141 ) ) ;
#642 = VECTOR ( 'NONE', #530, 1000.000000000000000 ) ;
#643 = DIRECTION ( 'NONE',  ( -0.8191520442889982379, 0.5735764363510368335, 0.000000000000000000 ) ) ;
#644 = DIRECTION ( 'NONE',  ( -0.8191520442889982379, 0.5735764363510368335, 0.000000000000000000 ) ) ;
#645 = CARTESIAN_POINT ( 'NONE',  ( -68.69783175016303289, 47.98810414179437345, 53.79547153843894591 ) ) ;
#646 =( BOUNDED_CURVE ( )  B_SPLINE_CURVE ( 3, ( #583, #500, #434, #886 ),
 .UNSPECIFIED., .F., .F. ) 
 B_SPLINE_CURVE_WITH_KNOTS ( ( 4, 4 ),
 ( 3.141592653589794448, 4.104322213424175914 ),
 .UNSPECIFIED. ) 
 CURVE ( )  GEOMETRIC_REPRESENTATION_ITEM ( )  RATIONAL_B_SPLINE_CURVE ( ( 1.000000000000000000, 0.9242425799739921732, 0.9242425799739921732, 1.000000000000000000 ) ) 
 REPRESENTATION_ITEM ( '' )  );
#647 = CARTESIAN_POINT ( 'NONE',  ( -68.71186056430944689, 40.45388030631247034, 58.21402589938330152 ) ) ;
#648 = ORIENTED_EDGE ( 'NONE', *, *, #404, .T. ) ;
#649 = CARTESIAN_POINT ( 'NONE',  ( -62.33601528936593184, 40.34715790930671631, 43.72004065230579783 ) ) ;
#650 = CARTESIAN_POINT ( 'NONE',  ( -62.58656588395171383, 47.60462370598428805, 57.39461705517153689 ) ) ;
#651 = CARTESIAN_POINT ( 'NONE',  ( -68.12212411080801644, 40.42975385563993029, 59.03845169358299216 ) ) ;
#652 = VERTEX_POINT ( 'NONE', #602 ) ;
#653 = DIRECTION ( 'NONE',  ( -0.8191520442889953513, 0.5735764363510411634, 1.373376332735242575E-15 ) ) ;
#654 = CYLINDRICAL_SURFACE ( 'NONE', #830, 2.999999999999997780 ) ;
#655 = CARTESIAN_POINT ( 'NONE',  ( -67.76986665224291073, 40.82445176489157745, 57.27651183749089370 ) ) ;
#656 = ORIENTED_EDGE ( 'NONE', *, *, #91, .T. ) ;
#657 = AXIS2_PLACEMENT_3D ( 'NONE', #943, #95, #21 ) ;
#658 = ADVANCED_FACE ( 'NONE', ( #980 ), #905, .T. ) ;
#659 = CARTESIAN_POINT ( 'NONE',  ( -65.04653942182727633, 40.61132944347947671, 58.63670491986103883 ) ) ;
#660 = CARTESIAN_POINT ( 'NONE',  ( -69.55131298451806288, 46.75458487457403578, 53.79547153843894591 ) ) ;
#661 = CARTESIAN_POINT ( 'NONE',  ( -66.78849211090923177, 41.38677041128196521, 58.59649404327338118 ) ) ;
#662 = ORIENTED_EDGE ( 'NONE', *, *, #969, .T. ) ;
#663 = CARTESIAN_POINT ( 'NONE',  ( -66.74878458229083833, 40.95176028404687685, 45.93229622098962750 ) ) ;
#664 = DIRECTION ( 'NONE',  ( 0.5712818199444408274, 0.8158749924416687227, 0.08935926873735541842 ) ) ;
#665 = EDGE_CURVE ( 'NONE', #210, #392, #895, .T. ) ;
#666 = CARTESIAN_POINT ( 'NONE',  ( -67.59413105425559820, 40.92945036836194106, 57.14152996089304537 ) ) ;
#667 = ORIENTED_EDGE ( 'NONE', *, *, #599, .T. ) ;
#668 = CARTESIAN_POINT ( 'NONE',  ( -61.74136194659595134, 42.95237369959853169, -17.44031947967514284 ) ) ;
#669 = CARTESIAN_POINT ( 'NONE',  ( -70.21094614696370684, 42.17072507676028437, 43.84316143717212100 ) ) ;
#670 = ORIENTED_EDGE ( 'NONE', *, *, #880, .F. ) ;
#671 = CARTESIAN_POINT ( 'NONE',  ( -62.88301171064954076, 38.30381533287021512, 58.55446555663026231 ) ) ;
#672 = ADVANCED_FACE ( 'NONE', ( #539 ), #817, .T. ) ;
#673 = AXIS2_PLACEMENT_3D ( 'NONE', #320, #631, #388 ) ;
#674 = CARTESIAN_POINT ( 'NONE',  ( -68.32531981175270630, 41.70924443921203562, 47.38847038274004575 ) ) ;
#675 = CARTESIAN_POINT ( 'NONE',  ( -62.48977840211784240, 40.12756142631958767, 46.70803902744198410 ) ) ;
#676 = EDGE_LOOP ( 'NONE', ( #592, #163, #824, #929 ) ) ;
#677 = CARTESIAN_POINT ( 'NONE',  ( -68.69783175016303289, 47.98810414179437345, 53.79547153843894591 ) ) ;
#678 = CARTESIAN_POINT ( 'NONE',  ( -67.84470512588839597, 41.10446501834864819, 45.32953845070360899 ) ) ;
#679 = CARTESIAN_POINT ( 'NONE',  ( -62.70509029689213776, 39.83239442909894024, 46.68282529680166704 ) ) ;
#680 = VERTEX_POINT ( 'NONE', #71 ) ;
#681 = CARTESIAN_POINT ( 'NONE',  ( -64.53675277809020372, 38.38308569430372330, 58.89727651437966927 ) ) ;
#682 = CARTESIAN_POINT ( 'NONE',  ( -64.13128634568798248, 41.05878261334877521, 48.70003794419945109 ) ) ;
#683 = CARTESIAN_POINT ( 'NONE',  ( -68.71186056438109802, 41.69402123184813291, 46.89119411533577164 ) ) ;
#684 = CARTESIAN_POINT ( 'NONE',  ( -62.90505195871027411, 39.47191055957102179, 46.60012006484874547 ) ) ;
#685 = ORIENTED_EDGE ( 'NONE', *, *, #97, .T. ) ;
#686 = CARTESIAN_POINT ( 'NONE',  ( -59.63681079795728124, 43.54276510857278026, 53.17349068390648625 ) ) ;
#687 = ADVANCED_FACE ( 'NONE', ( #16 ), #702, .T. ) ;
#688 = AXIS2_PLACEMENT_3D ( 'NONE', #711, #869, #873 ) ;
#689 = CARTESIAN_POINT ( 'NONE',  ( -63.08895148116231866, 38.33657651718355197, 45.97221926728666830 ) ) ;
#690 = AXIS2_PLACEMENT_3D ( 'NONE', #930, #859, #548 ) ;
#691 = ORIENTED_EDGE ( 'NONE', *, *, #475, .F. ) ;
#692 = DIRECTION ( 'NONE',  ( -0.8191520442889953513, 0.5735764363510410524, 1.387778780781450014E-15 ) ) ;
#693 = LINE ( 'NONE', #467, #765 ) ;
#694 = PRODUCT_DEFINITION_CONTEXT ( 'detailed design', #806, 'design' ) ;
#695 = ORIENTED_EDGE ( 'NONE', *, *, #550, .T. ) ;
#696 = ADVANCED_FACE ( 'NONE', ( #400 ), #242, .F. ) ;
#697 = DIRECTION ( 'NONE',  ( 1.249990136675044961E-15, -0.1088746101867824750, 0.9940554910349200801 ) ) ;
#698 = ORIENTED_EDGE ( 'NONE', *, *, #133, .T. ) ;
#699 = LINE ( 'NONE', #169, #228 ) ;
#700 = EDGE_CURVE ( 'NONE', #382, #287, #511, .T. ) ;
#701 = ADVANCED_FACE ( 'NONE', ( #171 ), #629, .F. ) ;
#702 = PLANE ( 'NONE',  #352 ) ;
#703 = ORIENTED_EDGE ( 'NONE', *, *, #787, .T. ) ;
#704 = CIRCLE ( 'NONE', #309, 1.999999999999996003 ) ;
#705 = CARTESIAN_POINT ( 'NONE',  ( -213.2600401744893190, 130.9823297229166599, 35.58637395006909543 ) ) ;
#706 = CARTESIAN_POINT ( 'NONE',  ( -60.84254919854697619, 47.48539492528257711, 47.33355390860345580 ) ) ;
#707 = DIRECTION ( 'NONE',  ( -0.8191520442889952403, 0.5735764363510411634, 0.000000000000000000 ) ) ;
#708 = CARTESIAN_POINT ( 'NONE',  ( -69.04780053891802538, 44.69910109820736466, 46.89463328380173834 ) ) ;
#709 = FACE_OUTER_BOUND ( 'NONE', #522, .T. ) ;
#710 = EDGE_LOOP ( 'NONE', ( #854, #78, #440, #9 ) ) ;
#711 = CARTESIAN_POINT ( 'NONE',  ( -65.81267220247021044, 27.73857117972925579, 35.58637395006908122 ) ) ;
#712 = CARTESIAN_POINT ( 'NONE',  ( -70.76164599875134797, 42.59917555856275584, 43.45196284609375681 ) ) ;
#713 = PRODUCT_DEFINITION_FORMATION_WITH_SPECIFIED_SOURCE ( 'Symmetric', '', #22, .NOT_KNOWN. ) ;
#714 = CARTESIAN_POINT ( 'NONE',  ( -62.48977840211784951, 39.05286572919847288, 56.52030983219708560 ) ) ;
#715 = ORIENTED_EDGE ( 'NONE', *, *, #880, .T. ) ;
#716 = DIRECTION ( 'NONE',  ( 0.5712818199444361644, 0.8158749924416726085, 0.08935926873734947873 ) ) ;
#717 = CARTESIAN_POINT ( 'NONE',  ( -64.84152193815805276, 41.77426997819090104, 46.70803902744199121 ) ) ;
#718 = CYLINDRICAL_SURFACE ( 'NONE', #98, 2.999999999999997780 ) ;
#719 = CARTESIAN_POINT ( 'NONE',  ( -66.43427451439862352, 39.71174471792076588, 58.89727651440776413 ) ) ;
#720 = AXIS2_PLACEMENT_3D ( 'NONE', #558, #716, #643 ) ;
#721 = DIRECTION ( 'NONE',  ( 0.8191520442889951292, -0.5735764363510413855, 2.789277628298183929E-15 ) ) ;
#722 = DIRECTION ( 'NONE',  ( -0.5712818199444397171, -0.8158749924416696109, 0.08935926873735236531 ) ) ;
#723 = CARTESIAN_POINT ( 'NONE',  ( -64.02877760385338490, 41.20518026867353711, 46.70803902744198410 ) ) ;
#724 = CARTESIAN_POINT ( 'NONE',  ( -67.69484872235057082, 39.60658852363958715, 59.44818775369830632 ) ) ;
#725 = ORIENTED_EDGE ( 'NONE', *, *, #787, .F. ) ;
#726 = PLANE ( 'NONE',  #832 ) ;
#727 = DIRECTION ( 'NONE',  ( 0.5712818199444399392, 0.8158749924416696109, 0.08935926873735251796 ) ) ;
#728 = ORIENTED_EDGE ( 'NONE', *, *, #842, .F. ) ;
#729 = EDGE_CURVE ( 'NONE', #151, #840, #553, .T. ) ;
#730 = FACE_OUTER_BOUND ( 'NONE', #597, .T. ) ;
#731 = LINE ( 'NONE', #130, #564 ) ;
#732 = ORIENTED_EDGE ( 'NONE', *, *, #140, .T. ) ;
#733 = VECTOR ( 'NONE', #335, 999.9999999999998863 ) ;
#734 = VECTOR ( 'NONE', #394, 999.9999999999998863 ) ;
#735 = APPLICATION_CONTEXT ( 'automotive_design' ) ;
#736 =( LENGTH_UNIT ( ) NAMED_UNIT ( * ) SI_UNIT ( .MILLI., .METRE. ) );
#737 = CARTESIAN_POINT ( 'NONE',  ( -66.58553862356279751, 41.68894828583339773, 58.63670491986102462 ) ) ;
#738 = EDGE_LOOP ( 'NONE', ( #185, #403, #906, #987 ) ) ;
#739 = DIRECTION ( 'NONE',  ( 0.5712818199444397171, 0.8158749924416697219, 0.08935926873735232367 ) ) ;
#740 = CARTESIAN_POINT ( 'NONE',  ( -66.61261530068397008, 42.95677410558810294, 46.70380372364100197 ) ) ;
#741 = CARTESIAN_POINT ( 'NONE',  ( -62.58656588395172804, 48.47476893004621701, 49.44994899626740903 ) ) ;
#742 = ADVANCED_FACE ( 'NONE', ( #236, #542 ), #247, .T. ) ;
#743 = ORIENTED_EDGE ( 'NONE', *, *, #161, .T. ) ;
#744 = CARTESIAN_POINT ( 'NONE',  ( -62.94583359440152037, 36.43447172500849263, 58.04961726460292226 ) ) ;
#745 = CARTESIAN_POINT ( 'NONE',  ( -70.07254734044956024, 42.06526928733142512, 44.79500438580017629 ) ) ;
#746 = CARTESIAN_POINT ( 'NONE',  ( -63.02323998958576823, 38.53880013095558610, 47.79953736304245382 ) ) ;
#747 = VERTEX_POINT ( 'NONE', #843 ) ;
#748 = CARTESIAN_POINT ( 'NONE',  ( -62.48977840211784951, 39.05286572919847288, 56.52030983219708560 ) ) ;
#749 = VECTOR ( 'NONE', #465, 1000.000000000000000 ) ;
#750 = CARTESIAN_POINT ( 'NONE',  ( -65.42042307618061159, 41.24430998257309255, 46.54296492388247941 ) ) ;
#751 = CARTESIAN_POINT ( 'NONE',  ( -62.48977840211784951, 39.92301095326039473, 48.57564177329295774 ) ) ;
#752 = ORIENTED_EDGE ( 'NONE', *, *, #599, .F. ) ;
#753 = CARTESIAN_POINT ( 'NONE',  ( -64.32902623703110123, 37.61773447809039794, 59.19643174046696998 ) ) ;
#754 = CYLINDRICAL_SURFACE ( 'NONE', #524, 2.000000000000001776 ) ;
#755 = CARTESIAN_POINT ( 'NONE',  ( -61.74136194659595134, 36.28310466845080384, 43.45196284609372839 ) ) ;
#756 = EDGE_LOOP ( 'NONE', ( #17, #615, #662, #971 ) ) ;
#757 = CARTESIAN_POINT ( 'NONE',  ( -62.95636556590552857, 38.14065509095753725, 58.57029254217430037 ) ) ;
#758 = ADVANCED_FACE ( 'NONE', ( #94 ), #390, .F. ) ;
#759 = CARTESIAN_POINT ( 'NONE',  ( -63.06326035907380856, 38.11693696868540826, 45.80025887227172632 ) ) ;
#760 = ORIENTED_EDGE ( 'NONE', *, *, #423, .T. ) ;
#761 = CARTESIAN_POINT ( 'NONE',  ( -62.73637043998220264, 38.55404197539933620, 58.55832924325139999 ) ) ;
#762 = EDGE_CURVE ( 'NONE', #877, #300, #693, .T. ) ;
#763 = AXIS2_PLACEMENT_3D ( 'NONE', #152, #313, #83 ) ;
#764 = CARTESIAN_POINT ( 'NONE',  ( -61.86074421973201254, 36.35693277700955406, 43.54111324835740504 ) ) ;
#765 = VECTOR ( 'NONE', #850, 1000.000000000000000 ) ;
#766 = VERTEX_POINT ( 'NONE', #12 ) ;
#767 = PRODUCT_DEFINITION_SHAPE ( 'NONE', 'NONE',  #783 ) ;
#768 = CARTESIAN_POINT ( 'NONE',  ( -61.74136194659595844, 36.28310466845080384, 43.45196284609372839 ) ) ;
#769 = CARTESIAN_POINT ( 'NONE',  ( -58.49080566250676583, 44.53219105116990306, 59.26221980102251052 ) ) ;
#770 = ORIENTED_EDGE ( 'NONE', *, *, #772, .T. ) ;
#771 = CARTESIAN_POINT ( 'NONE',  ( -62.48977840211784951, 39.92301095326038762, 48.57564177329295774 ) ) ;
#772 = EDGE_CURVE ( 'NONE', #392, #430, #478, .T. ) ;
#773 =( GEOMETRIC_REPRESENTATION_CONTEXT ( 3 ) GLOBAL_UNCERTAINTY_ASSIGNED_CONTEXT ( ( #844 ) ) GLOBAL_UNIT_ASSIGNED_CONTEXT ( ( #967, #590, #438 ) ) REPRESENTATION_CONTEXT ( 'NONE', 'WORKASPACE' ) );
#774 = CARTESIAN_POINT ( 'NONE',  ( -69.04780053891802538, 44.69910109820736466, 46.89463328380173834 ) ) ;
#775 = DIRECTION ( 'NONE',  ( 0.05125437091730547512, 0.07319882766237188754, -0.9959994583787310507 ) ) ;
#776 = CARTESIAN_POINT ( 'NONE',  ( -62.48977840211784240, 40.12756142631960188, 46.70803902744198410 ) ) ;
#777 = STYLED_ITEM ( 'NONE', ( #968 ), #149 ) ;
#778 = CARTESIAN_POINT ( 'NONE',  ( -64.96289418802845717, 39.87112353091913519, 46.56192554725906518 ) ) ;
#779 = AXIS2_PLACEMENT_3D ( 'NONE', #449, #459, #596 ) ;
#780 =( BOUNDED_CURVE ( )  B_SPLINE_CURVE ( 3, ( #874, #572, #182, #941 ),
 .UNSPECIFIED., .F., .F. ) 
 B_SPLINE_CURVE_WITH_KNOTS ( ( 4, 4 ),
 ( 1.570796326794895892, 2.178863093755411651 ),
 .UNSPECIFIED. ) 
 CURVE ( )  GEOMETRIC_REPRESENTATION_ITEM ( )  RATIONAL_B_SPLINE_CURVE ( ( 1.000000000000000000, 0.9694245168361513842, 0.9694245168361513842, 1.000000000000000000 ) ) 
 REPRESENTATION_ITEM ( '' )  );
#781 = DIRECTION ( 'NONE',  ( -0.8207539717850708128, 0.5678858300441929075, 0.06219808545324605892 ) ) ;
#782 = DIRECTION ( 'NONE',  ( 0.5735764363510421626, 0.8191520442889945741, 0.000000000000000000 ) ) ;
#783 = PRODUCT_DEFINITION ( 'General', '', #713, #694 ) ;
#784 = DIRECTION ( 'NONE',  ( -0.000000000000000000, -0.1088746101867816424, 0.9940554910349201911 ) ) ;
#785 = DIRECTION ( 'NONE',  ( 0.5712818199444398282, 0.8158749924416694999, 0.08935926873735233755 ) ) ;
#786 = ORIENTED_EDGE ( 'NONE', *, *, #849, .T. ) ;
#787 = EDGE_CURVE ( 'NONE', #680, #766, #166, .T. ) ;
#788 = CARTESIAN_POINT ( 'NONE',  ( -22.55360638445659660, 8.843542818321701304, 43.45196284609366444 ) ) ;
#789 = CARTESIAN_POINT ( 'NONE',  ( -70.76164599875134797, 42.59917555856275584, 43.45196284609374970 ) ) ;
#790 = FACE_OUTER_BOUND ( 'NONE', #756, .T. ) ;
#791 = CARTESIAN_POINT ( 'NONE',  ( -65.80312725800420992, 39.94904618179009503, 58.70293476988378245 ) ) ;
#792 = ORIENTED_EDGE ( 'NONE', *, *, #411, .F. ) ;
#793 = DIRECTION ( 'NONE',  ( 0.8207539717850707017, -0.5678858300441927964, -0.06219808545324755772 ) ) ;
#794 = EDGE_CURVE ( 'NONE', #382, #358, #470, .T. ) ;
#795 = PLANE ( 'NONE',  #490 ) ;
#796 = ORIENTED_EDGE ( 'NONE', *, *, #665, .T. ) ;
#797 = CARTESIAN_POINT ( 'NONE',  ( -69.30116556517191384, 40.36414118757153346, 58.95866912752462241 ) ) ;
#798 = EDGE_LOOP ( 'NONE', ( #698, #90, #871, #216 ) ) ;
#799 = CARTESIAN_POINT ( 'NONE',  ( -70.76164599875134797, 42.59917555856275584, 43.45196284609374970 ) ) ;
#800 = CARTESIAN_POINT ( 'NONE',  ( -16.34687415381124254, -3.445051254847259603, 35.84012283949201816 ) ) ;
#801 = LINE ( 'NONE', #660, #366 ) ;
#802 = CARTESIAN_POINT ( 'NONE',  ( -68.90853750059392269, 40.41237535561766236, 58.44968547079955101 ) ) ;
#803 = ORIENTED_EDGE ( 'NONE', *, *, #842, .T. ) ;
#804 = ADVANCED_FACE ( 'NONE', ( #621 ), #937, .T. ) ;
#805 = CARTESIAN_POINT ( 'NONE',  ( -70.76164599875134797, 42.59917555856275584, 43.45196284609374970 ) ) ;
#806 = APPLICATION_CONTEXT ( 'automotive_design' ) ;
#807 = FILL_AREA_STYLE ('',( #508 ) ) ;
#808 = CIRCLE ( 'NONE', #93, 2.000000000000003553 ) ;
#809 = CARTESIAN_POINT ( 'NONE',  ( -66.67393231946871879, 41.55512067225780726, 58.61766884148423173 ) ) ;
#810 = ORIENTED_EDGE ( 'NONE', *, *, #910, .T. ) ;
#811 = DIRECTION ( 'NONE',  ( 0.5689874895700286483, 0.8223461781468899279, 0.000000000000000000 ) ) ;
#812 = DIRECTION ( 'NONE',  ( 0.5712818199444397171, 0.8158749924416697219, 0.08935926873735232367 ) ) ;
#813 = CARTESIAN_POINT ( 'NONE',  ( -65.04653942182727633, 40.61132944347947671, 58.63670491986103883 ) ) ;
#814 = ORIENTED_EDGE ( 'NONE', *, *, #953, .T. ) ;
#815 = CIRCLE ( 'NONE', #720, 2.000000000000003553 ) ;
#816 = CIRCLE ( 'NONE', #99, 2.000000000000001776 ) ;
#817 =( BOUNDED_SURFACE ( )  B_SPLINE_SURFACE ( 3, 2, ( 
 ( #135, #365, #755 ),
 ( #607, #439, #150 ),
 ( #305, #839, #60 ),
 ( #361, #378, #153 ),
 ( #299, #516, #456 ),
 ( #974, #759, #81 ),
 ( #381, #689, #65 ),
 ( #286, #591, #527 ),
 ( #613, #208, #77 ),
 ( #290, #224, #746 ),
 ( #371, #684, #3 ),
 ( #818, #901, #215 ),
 ( #827, #679, #911 ),
 ( #521, #917, #823 ),
 ( #139, #445, #534 ),
 ( #144, #675, #751 ) ),
 .UNSPECIFIED., .F., .F., .T. ) 
 B_SPLINE_SURFACE_WITH_KNOTS ( ( 4, 2, 2, 2, 2, 2, 2, 4 ),
 ( 3, 3 ),
 ( 4.712388980384689674, 5.105088062083413369, 5.301437602932775661, 5.497787143782137065, 5.694136684631499357, 5.890486225480861648, 6.086835766330223052, 6.283185307179585344 ),
 ( 0.000000000000000000, 1.000000000000000000 ),
 .UNSPECIFIED. ) 
 GEOMETRIC_REPRESENTATION_ITEM ( )  RATIONAL_B_SPLINE_SURFACE ( (
 ( 1.000000000000000000, 1.000000000000000000, 1.000000000000000000),
 ( 1.000000000000000000, 1.000153430089735007, 1.000000000000000000),
 ( 1.000000000000000000, 0.9875447544198451277, 1.000000000000000000),
 ( 1.000000000000000000, 0.9538242550874019843, 1.000000000000000000),
 ( 1.000000000000000000, 0.9401537571637785806, 1.000000000000000000),
 ( 1.000000000000000000, 0.9095039307315305743, 1.000000000000000000),
 ( 1.000000000000000000, 0.8925248905392162424, 1.000000000000000000),
 ( 1.000000000000000000, 0.8574602268032279762, 1.000000000000000000),
 ( 1.000000000000000000, 0.8393798858270834495, 1.000000000000000000),
 ( 1.000000000000000000, 0.8049017991192227717, 1.000000000000000000),
 ( 1.000000000000000000, 0.7885212368337162214, 1.000000000000000000),
 ( 1.000000000000000000, 0.7605102254084125102, 1.000000000000000000),
 ( 1.000000000000000000, 0.7489123329829474596, 1.000000000000000000),
 ( 1.000000000000000000, 0.7330669938485281367, 1.000000000000000000),
 ( 1.000000000000000000, 0.7288205844047079829, 1.000000000000000000),
 ( 1.000000000000000000, 0.7288511202296529268, 1.000000000000000000) ) ) 
 REPRESENTATION_ITEM ( '' )  SURFACE ( )  );
#818 = CARTESIAN_POINT ( 'NONE',  ( -64.37664545524322079, 40.29013734162999327, 46.46905144358560591 ) ) ;
#819 = ORIENTED_EDGE ( 'NONE', *, *, #91, .F. ) ;
#820 = CARTESIAN_POINT ( 'NONE',  ( -62.79773966288179565, 35.24236727735507202, 60.58150058218710399 ) ) ;
#821 = EDGE_CURVE ( 'NONE', #103, #877, #704, .T. ) ;
#822 = CARTESIAN_POINT ( 'NONE',  ( -66.93955091443649508, 42.44551706595240859, 46.67339506268940141 ) ) ;
#823 = CARTESIAN_POINT ( 'NONE',  ( -62.69824551837221804, 39.59493600292977789, 48.50925127232544298 ) ) ;
#824 = ORIENTED_EDGE ( 'NONE', *, *, #270, .F. ) ;
#825 = PLANE ( 'NONE',  #763 ) ;
#826 = CARTESIAN_POINT ( 'NONE',  ( -66.25635386368283264, 40.98016620162162837, 46.17877268616299347 ) ) ;
#827 = CARTESIAN_POINT ( 'NONE',  ( -64.34517411632133133, 40.49141255544125073, 46.54296492388577633 ) ) ;
#828 = EDGE_LOOP ( 'NONE', ( #82, #200, #561, #196 ) ) ;
#829 = CARTESIAN_POINT ( 'NONE',  ( -64.41738891321419658, 37.87869692834554058, 59.08539827601531158 ) ) ;
#830 = AXIS2_PLACEMENT_3D ( 'NONE', #605, #302, #356 ) ;
#831 = DIRECTION ( 'NONE',  ( 0.8207539717850707017, -0.5678858300441927964, -0.06219808545324619076 ) ) ;
#832 = AXIS2_PLACEMENT_3D ( 'NONE', #418, #722, #266 ) ;
#833 = CARTESIAN_POINT ( 'NONE',  ( -64.84152193815806697, 41.77426997819088683, 46.70803902744199121 ) ) ;
#834 = CARTESIAN_POINT ( 'NONE',  ( -58.49080566250676583, 44.76399067629016315, 57.14582471335855018 ) ) ;
#835 = EDGE_LOOP ( 'NONE', ( #580, #551, #225, #173 ) ) ;
#836 = CARTESIAN_POINT ( 'NONE',  ( -62.48977840211784951, 40.12756142631958767, 46.70803902744197700 ) ) ;
#837 = ADVANCED_FACE ( 'NONE', ( #406 ), #726, .T. ) ;
#838 = CARTESIAN_POINT ( 'NONE',  ( -65.60858081584629531, 41.15274776775263632, 46.46905144360331263 ) ) ;
#839 = CARTESIAN_POINT ( 'NONE',  ( -62.51858556055514526, 36.87745324585321782, 44.50047385005552769 ) ) ;
#840 = VERTEX_POINT ( 'NONE', #717 ) ;
#841 = CARTESIAN_POINT ( 'NONE',  ( -63.10200600393603310, 37.51155296508096626, 58.74437059491102531 ) ) ;
#842 = EDGE_CURVE ( 'NONE', #300, #563, #808, .T. ) ;
#843 = CARTESIAN_POINT ( 'NONE',  ( -58.49400951749891675, 44.75260946367646397, 57.27022088426503643 ) ) ;
#844 = UNCERTAINTY_MEASURE_WITH_UNIT (LENGTH_MEASURE( 1.000000000000000082E-05 ), #967, 'distance_accuracy_value', 'NONE');
#845 = ORIENTED_EDGE ( 'NONE', *, *, #550, .F. ) ;
#846 = LINE ( 'NONE', #263, #594 ) ;
#847 = DIRECTION ( 'NONE',  ( 0.000000000000000000, 0.000000000000000000, 1.000000000000000000 ) ) ;
#848 = AXIS2_PLACEMENT_3D ( 'NONE', #129, #1, #531 ) ;
#849 = EDGE_CURVE ( 'NONE', #180, #747, #892, .T. ) ;
#850 = DIRECTION ( 'NONE',  ( 0.8191520442889951292, -0.5735764363510413855, 2.789277628298184323E-15 ) ) ;
#851 = VERTEX_POINT ( 'NONE', #789 ) ;
#852 = CARTESIAN_POINT ( 'NONE',  ( -60.94505794038157376, 46.46885204589590046, 57.27022088426503643 ) ) ;
#853 = DIRECTION ( 'NONE',  ( 0.5689874895700286483, 0.8223461781468899279, 0.000000000000000000 ) ) ;
#854 = ORIENTED_EDGE ( 'NONE', *, *, #555, .F. ) ;
#855 = CARTESIAN_POINT ( 'NONE',  ( -58.49080566250676583, 44.76399067629016315, 57.14582471335855018 ) ) ;
#856 = VECTOR ( 'NONE', #192, 1000.000000000000227 ) ;
#857 = CARTESIAN_POINT ( 'NONE',  ( -64.05674459841904422, 37.88970177643972903, 43.72004065230579783 ) ) ;
#858 = ORIENTED_EDGE ( 'NONE', *, *, #444, .T. ) ;
#859 = DIRECTION ( 'NONE',  ( -0.5712818199444398282, -0.8158749924416697219, -0.08935926873735230980 ) ) ;
#860 = ORIENTED_EDGE ( 'NONE', *, *, #946, .F. ) ;
#861 = CARTESIAN_POINT ( 'NONE',  ( -70.37891970878737880, 42.31653644660138269, 43.72004065230580494 ) ) ;
#862 = DIRECTION ( 'NONE',  ( 0.5712818199444386069, 0.8158749924416701660, 0.08935926873735339226 ) ) ;
#863 = VECTOR ( 'NONE', #46, 1000.000000000000227 ) ;
#864 = DIRECTION ( 'NONE',  ( 0.000000000000000000, -0.9940554910349201911, -0.1088746101867826693 ) ) ;
#865 = AXIS2_PLACEMENT_3D ( 'NONE', #774, #324, #932 ) ;
#866 = EDGE_CURVE ( 'NONE', #981, #851, #197, .T. ) ;
#867 = CARTESIAN_POINT ( 'NONE',  ( -64.20534290380142295, 36.23908821635866673, 59.60629656497917495 ) ) ;
#868 = ORIENTED_EDGE ( 'NONE', *, *, #303, .F. ) ;
#869 = DIRECTION ( 'NONE',  ( 0.8207539717850709238, -0.5678858300441927964, -0.06219808545324625321 ) ) ;
#870 = LINE ( 'NONE', #893, #944 ) ;
#871 = ORIENTED_EDGE ( 'NONE', *, *, #52, .T. ) ;
#872 = ADVANCED_FACE ( 'NONE', ( #566 ), #124, .F. ) ;
#873 = DIRECTION ( 'NONE',  ( 0.5689874895700275381, 0.8223461781468908161, 0.000000000000000000 ) ) ;
#874 = CARTESIAN_POINT ( 'NONE',  ( -70.76164599875133376, 40.63815508905216944, 61.35662548878516276 ) ) ;
#875 = CARTESIAN_POINT ( 'NONE',  ( -67.15789348901867584, 41.07609129864263053, 56.67957506068380269 ) ) ;
#876 = CARTESIAN_POINT ( 'NONE',  ( -70.43927855708164998, 40.48205769240639285, 60.72091419367236398 ) ) ;
#877 = VERTEX_POINT ( 'NONE', #659 ) ;
#878 = CARTESIAN_POINT ( 'NONE',  ( -62.06372938835437481, 34.62100257659651703, 60.68834148046435217 ) ) ;
#879 = CARTESIAN_POINT ( 'NONE',  ( -70.25472677330621707, 42.12912972624686603, 44.50283203445812319 ) ) ;
#880 = EDGE_CURVE ( 'NONE', #981, #337, #780, .T. ) ;
#881 = CARTESIAN_POINT ( 'NONE',  ( -62.48977840211784951, 39.92301095326038762, 48.57564177329295774 ) ) ;
#882 = ADVANCED_FACE ( 'NONE', ( #272 ), #187, .T. ) ;
#883 = CARTESIAN_POINT ( 'NONE',  ( -70.33853253146818929, 40.39812443506471595, 60.84316981421877557 ) ) ;
#884 = ORIENTED_EDGE ( 'NONE', *, *, #40, .T. ) ;
#885 = CLOSED_SHELL ( 'NONE', ( #69, #526, #156, #58, #742, #837, #687, #453, #422, #241, #389, #696, #186, #758, #936, #278, #484, #701, #872, #658, #977, #672, #882, #360, #804, #624, #983, #369 ) ) ;
#886 = CARTESIAN_POINT ( 'NONE',  ( -69.04780053891802538, 41.73357678353014677, 46.41606191525079339 ) ) ;
#887 = CARTESIAN_POINT ( 'NONE',  ( -66.86003527531001112, 41.28842128033595316, 58.58792939266344746 ) ) ;
#888 = ORIENTED_EDGE ( 'NONE', *, *, #618, .T. ) ;
#889 =( BOUNDED_CURVE ( )  B_SPLINE_CURVE ( 3, ( #945, #956, #420, #574 ),
 .UNSPECIFIED., .F., .F. ) 
 B_SPLINE_CURVE_WITH_KNOTS ( ( 4, 4 ),
 ( 1.660274948369109937, 3.141592653589799333 ),
 .UNSPECIFIED. ) 
 CURVE ( )  GEOMETRIC_REPRESENTATION_ITEM ( )  RATIONAL_B_SPLINE_CURVE ( ( 1.000000000000000000, 0.8253494280875477429, 0.8253494280875477429, 1.000000000000000000 ) ) 
 REPRESENTATION_ITEM ( '' )  );
#890 = CARTESIAN_POINT ( 'NONE',  ( -70.76164599875134797, 42.59917555856275584, 43.45196284609375681 ) ) ;
#891 = CARTESIAN_POINT ( 'NONE',  ( -64.02877760385338490, 41.20518026867353711, 46.70803902744198410 ) ) ;
#892 = CIRCLE ( 'NONE', #15, 2.000000000000001776 ) ;
#893 = CARTESIAN_POINT ( 'NONE',  ( -61.04756668221619265, 46.32245439057116698, 59.26221980102250342 ) ) ;
#894 = ORIENTED_EDGE ( 'NONE', *, *, #168, .F. ) ;
#895 = LINE ( 'NONE', #219, #433 ) ;
#896 = ORIENTED_EDGE ( 'NONE', *, *, #600, .T. ) ;
#897 = CARTESIAN_POINT ( 'NONE',  ( -61.74136194659595844, 36.28310466845080384, 43.45196284609372839 ) ) ;
#898 = AXIS2_PLACEMENT_3D ( 'NONE', #637, #721, #782 ) ;
#899 = AXIS2_PLACEMENT_3D ( 'NONE', #332, #727, #970 ) ;
#900 = CARTESIAN_POINT ( 'NONE',  ( -69.02729039190084848, 41.81339546143667008, 45.24849674494001306 ) ) ;
#901 = CARTESIAN_POINT ( 'NONE',  ( -62.77279963150263598, 39.73187038115930392, 46.66960822594884206 ) ) ;
#902 = ORIENTED_EDGE ( 'NONE', *, *, #68, .F. ) ;
#903 = CARTESIAN_POINT ( 'NONE',  ( -62.48977840211785661, 38.82106610407820568, 58.63670491986106015 ) ) ;
#904 = CARTESIAN_POINT ( 'NONE',  ( -69.79790681364026739, 41.97975015622936468, 44.53570218357398858 ) ) ;
#905 = CYLINDRICAL_SURFACE ( 'NONE', #779, 2.000000000000001776 ) ;
#906 = ORIENTED_EDGE ( 'NONE', *, *, #587, .T. ) ;
#907 = CARTESIAN_POINT ( 'NONE',  ( -64.34596728248007480, 39.88204123732133866, 58.61915906952214073 ) ) ;
#908 = CARTESIAN_POINT ( 'NONE',  ( -60.23482234791151768, 45.75336468105381016, 59.26221980102250342 ) ) ;
#909 = CARTESIAN_POINT ( 'NONE',  ( -66.58553862356281172, 42.76364398295451963, 48.82443411510595155 ) ) ;
#910 = EDGE_CURVE ( 'NONE', #339, #851, #4, .T. ) ;
#911 = CARTESIAN_POINT ( 'NONE',  ( -62.85539726659828119, 39.25025131158131586, 48.35083547515482394 ) ) ;
#912 = EDGE_LOOP ( 'NONE', ( #269, #61, #922, #884 ) ) ;
#913 = DIRECTION ( 'NONE',  ( 0.5689874895700255397, 0.8223461781468921483, 0.000000000000000000 ) ) ;
#914 = CIRCLE ( 'NONE', #657, 2.000000000000000000 ) ;
#915 = AXIS2_PLACEMENT_3D ( 'NONE', #86, #549, #707 ) ;
#916 = CARTESIAN_POINT ( 'NONE',  ( -67.55936768486444066, 41.04021642297643524, 45.49262362619396782 ) ) ;
#917 = CARTESIAN_POINT ( 'NONE',  ( -62.58577775596069159, 39.99804847344661596, 46.69823254946810920 ) ) ;
#918 = VERTEX_POINT ( 'NONE', #115 ) ;
#919 = CARTESIAN_POINT ( 'NONE',  ( -63.62282508970711348, 36.28561377455015702, 59.89461950313594230 ) ) ;
#920 = DIRECTION ( 'NONE',  ( 1.000000000000000000, 0.000000000000000000, 0.000000000000000000 ) ) ;
#921 = DIRECTION ( 'NONE',  ( -0.05125437091730442041, -0.07319882766237265082, 0.9959994583787310507 ) ) ;
#922 = ORIENTED_EDGE ( 'NONE', *, *, #762, .F. ) ;
#923 = FACE_OUTER_BOUND ( 'NONE', #296, .T. ) ;
#924 = AXIS2_PLACEMENT_3D ( 'NONE', #347, #958, #811 ) ;
#925 = ORIENTED_EDGE ( 'NONE', *, *, #953, .F. ) ;
#926 = CARTESIAN_POINT ( 'NONE',  ( -60.84254919854697619, 47.48539492528257000, 47.33355390860345580 ) ) ;
#927 = VECTOR ( 'NONE', #692, 1000.000000000000227 ) ;
#928 = CARTESIAN_POINT ( 'NONE',  ( -61.97772007235339942, 36.43395313116570122, 43.63053216762369857 ) ) ;
#929 = ORIENTED_EDGE ( 'NONE', *, *, #245, .T. ) ;
#930 = CARTESIAN_POINT ( 'NONE',  ( -60.13231360607690590, 45.89976233637855074, 57.27022088426503643 ) ) ;
#931 = APPLICATION_PROTOCOL_DEFINITION ( 'draft international standard', 'automotive_design', 1998, #735 ) ;
#932 = DIRECTION ( 'NONE',  ( 0.000000000000000000, -0.9940554910349201911, -0.1088746101867826693 ) ) ;
#933 = CARTESIAN_POINT ( 'NONE',  ( -60.02980486424229412, 46.91630521576521318, 47.33355390860344869 ) ) ;
#934 = ORIENTED_EDGE ( 'NONE', *, *, #910, .F. ) ;
#935 = DIRECTION ( 'NONE',  ( 0.5689874895700255397, 0.8223461781468921483, 0.000000000000000000 ) ) ;
#936 = ADVANCED_FACE ( 'NONE', ( #261 ), #795, .F. ) ;
#937 = CYLINDRICAL_SURFACE ( 'NONE', #7, 2.000000000000001776 ) ;
#938 = CARTESIAN_POINT ( 'NONE',  ( -66.58553862356279751, 41.89349875889259778, 56.76910217401007230 ) ) ;
#939 = ORIENTED_EDGE ( 'NONE', *, *, #555, .T. ) ;
#940 = FACE_OUTER_BOUND ( 'NONE', #710, .T. ) ;
#941 = CARTESIAN_POINT ( 'NONE',  ( -69.04780053891801117, 40.39575350957180433, 58.63076072547944761 ) ) ;
#942 = VECTOR ( 'NONE', #437, 1000.000000000000114 ) ;
#943 = CARTESIAN_POINT ( 'NONE',  ( -64.94403067999267876, 41.62787232286613204, 48.70003794419945109 ) ) ;
#944 = VECTOR ( 'NONE', #501, 1000.000000000000000 ) ;
#945 = CARTESIAN_POINT ( 'NONE',  ( -70.37891970878737880, 42.31653644660138269, 43.72004065230580494 ) ) ;
#946 = EDGE_CURVE ( 'NONE', #66, #372, #582, .T. ) ;
#947 = CARTESIAN_POINT ( 'NONE',  ( -69.04780053891802538, 41.73357678353014677, 46.41606191525079339 ) ) ;
#948 = CARTESIAN_POINT ( 'NONE',  ( -70.76164599875133376, 40.63815508905216944, 61.35662548878516276 ) ) ;
#949 = DIRECTION ( 'NONE',  ( -0.1014979959594711489, -0.03781167543717705443, -0.9941169116441208597 ) ) ;
#950 = ORIENTED_EDGE ( 'NONE', *, *, #303, .T. ) ;
#951 =( BOUNDED_CURVE ( )  B_SPLINE_CURVE ( 3, ( #799, #109, #30, #405 ),
 .UNSPECIFIED., .F., .F. ) 
 B_SPLINE_CURVE_WITH_KNOTS ( ( 4, 4 ),
 ( 1.570796326794897446, 1.660274948369109937 ),
 .UNSPECIFIED. ) 
 CURVE ( )  GEOMETRIC_REPRESENTATION_ITEM ( )  RATIONAL_B_SPLINE_CURVE ( ( 1.000000000000000000, 0.9993329093056259049, 0.9993329093056259049, 1.000000000000000000 ) ) 
 REPRESENTATION_ITEM ( '' )  );
#952 = DIRECTION ( 'NONE',  ( 0.8207539717850707017, -0.5678858300441927964, -0.06219808545324755772 ) ) ;
#953 = EDGE_CURVE ( 'NONE', #468, #151, #121, .T. ) ;
#954 = CARTESIAN_POINT ( 'NONE',  ( -64.13128634568798248, 40.18863738928684626, 56.64470600310357895 ) ) ;
#955 = EDGE_LOOP ( 'NONE', ( #387, #966, #282, #858, #732, #695, #154, #786, #656 ) ) ;
#956 = CARTESIAN_POINT ( 'NONE',  ( -68.01202373574921012, 40.65921804412187157, 45.35516459912756204 ) ) ;
#957 = EDGE_LOOP ( 'NONE', ( #446, #315, #902, #896 ) ) ;
#958 = DIRECTION ( 'NONE',  ( 0.8207539717850708128, -0.5678858300441929075, -0.06219808545324618382 ) ) ;
#959 = DIRECTION ( 'NONE',  ( -0.8191520442889943521, 0.5735764363510424957, 0.000000000000000000 ) ) ;
#960 = CARTESIAN_POINT ( 'NONE',  ( -66.21082784542976185, 39.77699432662374335, 58.82019286613579823 ) ) ;
#961 = VECTOR ( 'NONE', #267, 1000.000000000000000 ) ;
#962 = ORIENTED_EDGE ( 'NONE', *, *, #475, .T. ) ;
#963 = VECTOR ( 'NONE', #88, 999.9999999999998863 ) ;
#964 = DIRECTION ( 'NONE',  ( 1.156482317317871528E-15, -0.1088746101867826138, 0.9940554910349200801 ) ) ;
#965 = CARTESIAN_POINT ( 'NONE',  ( -70.23778771149768829, 40.31419186164210799, 60.96542689780935120 ) ) ;
#966 = ORIENTED_EDGE ( 'NONE', *, *, #593, .T. ) ;
#967 =( LENGTH_UNIT ( ) NAMED_UNIT ( * ) SI_UNIT ( .MILLI., .METRE. ) );
#968 = PRESENTATION_STYLE_ASSIGNMENT (( #375 ) ) ;
#969 = EDGE_CURVE ( 'NONE', #430, #392, #506, .T. ) ;
#970 = DIRECTION ( 'NONE',  ( 0.8191520442889953513, -0.5735764363510408304, 0.000000000000000000 ) ) ;
#971 = ORIENTED_EDGE ( 'NONE', *, *, #665, .F. ) ;
#972 = CARTESIAN_POINT ( 'NONE',  ( -62.17781326532512054, 34.68570003962031478, 60.82698409561002961 ) ) ;
#973 = CARTESIAN_POINT ( 'NONE',  ( -67.01140064176499322, 40.96386311228761201, 45.79400623556768579 ) ) ;
#974 = CARTESIAN_POINT ( 'NONE',  ( -63.83093651640395194, 38.29399398131265286, 45.32953845063527609 ) ) ;
#975 = ORIENTED_EDGE ( 'NONE', *, *, #600, .F. ) ;
#976 = CARTESIAN_POINT ( 'NONE',  ( -62.74880995173282372, 35.78978832487323558, 58.83398667775469448 ) ) ;
#977 = ADVANCED_FACE ( 'NONE', ( #277 ), #310, .T. ) ;
#978 = VECTOR ( 'NONE', #348, 1000.000000000000114 ) ;
#979 = CARTESIAN_POINT ( 'NONE',  ( -67.58264915036714626, 42.00658370651159856, 46.34864246703106971 ) ) ;
#980 = FACE_OUTER_BOUND ( 'NONE', #835, .T. ) ;
#981 = VERTEX_POINT ( 'NONE', #148 ) ;
#982 = CARTESIAN_POINT ( 'NONE',  ( -64.09832647391647242, 37.08827653387918133, 59.44818775374481845 ) ) ;
#983 = ADVANCED_FACE ( 'NONE', ( #455 ), #754, .T. ) ;
#984 = EDGE_CURVE ( 'NONE', #554, #766, #2, .T. ) ;
#985 = CARTESIAN_POINT ( 'NONE',  ( -66.75682261301820120, 42.66567892126403194, 46.72105099927578209 ) ) ;
#986 = DIRECTION ( 'NONE',  ( -0.5712818199444398282, -0.8158749924416694999, -0.08935926873735232367 ) ) ;
#987 = ORIENTED_EDGE ( 'NONE', *, *, #729, .F. ) ;
#988 = FACE_BOUND ( 'NONE', #460, .T. ) ;
ENDSEC;
END-ISO-10303-21;
