ISO-10303-21;
HEADER;
FILE_DESCRIPTION (( 'STEP AP214' ),
    '1' );
FILE_NAME ('Motor Mount Servo.STEP',
    '2026-08-21T21:09:20',
    ( '' ),
    ( '' ),
    'SwSTEP 2.0',
    'SolidWorks 2026',
    '' );
FILE_SCHEMA (( 'AUTOMOTIVE_DESIGN' ));
ENDSEC;

DATA;
#1 = ORIENTED_EDGE ( 'NONE', *, *, #463, .F. ) ;
#2 = CARTESIAN_POINT ( 'NONE',  ( 6.717514421272213099, 10.00000000000000000, 8.117514421272190361 ) ) ;
#3 = ORIENTED_EDGE ( 'NONE', *, *, #207, .T. ) ;
#4 = CYLINDRICAL_SURFACE ( 'NONE', #209, 10.00000000000000000 ) ;
#5 = AXIS2_PLACEMENT_3D ( 'NONE', #284, #200, #1175 ) ;
#6 = EDGE_LOOP ( 'NONE', ( #188, #710, #570, #697 ) ) ;
#7 = DIRECTION ( 'NONE',  ( 0.000000000000000000, 1.000000000000000000, 0.000000000000000000 ) ) ;
#8 = AXIS2_PLACEMENT_3D ( 'NONE', #663, #1173, #179 ) ;
#9 = ORIENTED_EDGE ( 'NONE', *, *, #588, .T. ) ;
#10 = AXIS2_PLACEMENT_3D ( 'NONE', #616, #1214, #995 ) ;
#11 = CARTESIAN_POINT ( 'NONE',  ( -15.00000000000000000, 0.000000000000000000, 5.000000000000000000 ) ) ;
#12 = DIRECTION ( 'NONE',  ( -0.000000000000000000, 1.000000000000000000, -0.000000000000000000 ) ) ;
#13 = EDGE_CURVE ( 'NONE', #880, #254, #404, .T. ) ;
#14 = ORIENTED_EDGE ( 'NONE', *, *, #1135, .T. ) ;
#15 = DIRECTION ( 'NONE',  ( -0.000000000000000000, 1.000000000000000000, -0.000000000000000000 ) ) ;
#16 = EDGE_LOOP ( 'NONE', ( #554, #415, #788, #276 ) ) ;
#17 = ADVANCED_FACE ( 'NONE', ( #119 ), #703, .F. ) ;
#18 = DIRECTION ( 'NONE',  ( 0.000000000000000000, 0.000000000000000000, 1.000000000000000000 ) ) ;
#19 = DIRECTION ( 'NONE',  ( 1.000000000000000000, 0.000000000000000000, -1.387778780781445676E-16 ) ) ;
#20 = DIRECTION ( 'NONE',  ( 0.000000000000000000, 0.000000000000000000, -1.000000000000000000 ) ) ;
#21 = DIRECTION ( 'NONE',  ( -1.387778780781445676E-16, 0.000000000000000000, -1.000000000000000000 ) ) ;
#22 = AXIS2_PLACEMENT_3D ( 'NONE', #300, #293, #1198 ) ;
#23 = VERTEX_POINT ( 'NONE', #715 ) ;
#24 = LINE ( 'NONE', #425, #1242 ) ;
#25 = EDGE_LOOP ( 'NONE', ( #455, #1138, #183, #204, #823, #14, #279, #334 ) ) ;
#26 = CARTESIAN_POINT ( 'NONE',  ( 15.00000000000000000, 10.00000000000000000, -5.000000000000000000 ) ) ;
#27 = PRODUCT_DEFINITION_FORMATION_WITH_SPECIFIED_SOURCE ( 'Symmetric', '', #32, .NOT_KNOWN. ) ;
#28 = EDGE_LOOP ( 'NONE', ( #886, #1241 ) ) ;
#29 = VECTOR ( 'NONE', #557, 1000.000000000000000 ) ;
#30 = COLOUR_RGB ( '',0.7921568627450980005, 0.8196078431372548767, 0.9333333333333333481 ) ;
#31 = FACE_OUTER_BOUND ( 'NONE', #25, .T. ) ;
#32 = PRODUCT ( 'Motor Mount Servo', 'Motor Mount Servo', '', ( #332 ) ) ;
#33 = DIRECTION ( 'NONE',  ( 0.000000000000000000, -1.000000000000000000, 0.000000000000000000 ) ) ;
#34 = CARTESIAN_POINT ( 'NONE',  ( 6.717514421272213099, 4.000000000000000000, 3.217514421272188674 ) ) ;
#35 = ORIENTED_EDGE ( 'NONE', *, *, #502, .T. ) ;
#36 = EDGE_CURVE ( 'NONE', #1074, #1300, #220, .T. ) ;
#37 = VERTEX_POINT ( 'NONE', #721 ) ;
#38 = DIRECTION ( 'NONE',  ( 0.000000000000000000, 0.000000000000000000, -1.000000000000000000 ) ) ;
#39 = EDGE_CURVE ( 'NONE', #145, #688, #803, .T. ) ;
#40 = FACE_OUTER_BOUND ( 'NONE', #802, .T. ) ;
#41 = ORIENTED_EDGE ( 'NONE', *, *, #928, .F. ) ;
#42 = AXIS2_PLACEMENT_3D ( 'NONE', #157, #377, #478 ) ;
#43 = CARTESIAN_POINT ( 'NONE',  ( 15.00000000000000000, 0.000000000000000000, 5.000000000000000000 ) ) ;
#44 = CARTESIAN_POINT ( 'NONE',  ( 6.717514421272213099, 4.000000000000000000, 10.21751442127219178 ) ) ;
#45 = CARTESIAN_POINT ( 'NONE',  ( -15.00000000000000000, 0.000000000000000000, 6.500000000000000888 ) ) ;
#46 = APPLICATION_PROTOCOL_DEFINITION ( 'draft international standard', 'automotive_design', 1998, #1239 ) ;
#47 = ORIENTED_EDGE ( 'NONE', *, *, #598, .T. ) ;
#48 = AXIS2_PLACEMENT_3D ( 'NONE', #520, #1011, #407 ) ;
#49 = DIRECTION ( 'NONE',  ( 0.000000000000000000, 0.000000000000000000, -1.000000000000000000 ) ) ;
#50 = ORIENTED_EDGE ( 'NONE', *, *, #1085, .T. ) ;
#51 = CIRCLE ( 'NONE', #177, 10.00000000000000000 ) ;
#52 = CARTESIAN_POINT ( 'NONE',  ( -15.00000000000000000, 0.000000000000000000, -6.500000000000000888 ) ) ;
#53 = CYLINDRICAL_SURFACE ( 'NONE', #529, 1.400000000000001021 ) ;
#54 = EDGE_CURVE ( 'NONE', #1169, #925, #519, .T. ) ;
#55 = ORIENTED_EDGE ( 'NONE', *, *, #169, .F. ) ;
#56 = CYLINDRICAL_SURFACE ( 'NONE', #1134, 10.00000000000000000 ) ;
#57 = FACE_OUTER_BOUND ( 'NONE', #1157, .T. ) ;
#58 = CARTESIAN_POINT ( 'NONE',  ( 6.717514421272213099, 4.000000000000000000, 6.717514421272190006 ) ) ;
#59 = EDGE_LOOP ( 'NONE', ( #1148, #1116, #3, #642 ) ) ;
#60 = CARTESIAN_POINT ( 'NONE',  ( -6.717514421272213099, 0.000000000000000000, -10.21751442127219001 ) ) ;
#61 = AXIS2_PLACEMENT_3D ( 'NONE', #657, #367, #1166 ) ;
#62 = FACE_OUTER_BOUND ( 'NONE', #621, .T. ) ;
#63 = SURFACE_STYLE_FILL_AREA ( #1290 ) ;
#64 = ORIENTED_EDGE ( 'NONE', *, *, #750, .F. ) ;
#65 = CARTESIAN_POINT ( 'NONE',  ( 0.000000000000000000, 10.00000000000000000, 0.000000000000000000 ) ) ;
#66 = ORIENTED_EDGE ( 'NONE', *, *, #1287, .T. ) ;
#67 = DIRECTION ( 'NONE',  ( 0.000000000000000000, 0.000000000000000000, -1.000000000000000000 ) ) ;
#68 = CIRCLE ( 'NONE', #115, 1.500000000000000444 ) ;
#69 = AXIS2_PLACEMENT_3D ( 'NONE', #714, #1118, #1018 ) ;
#70 = DIRECTION ( 'NONE',  ( 0.000000000000000000, 0.000000000000000000, -1.000000000000000000 ) ) ;
#71 = ORIENTED_EDGE ( 'NONE', *, *, #1236, .T. ) ;
#72 = CARTESIAN_POINT ( 'NONE',  ( 6.717514421272190006, 4.000000000000000000, -3.217514421272213099 ) ) ;
#73 = EDGE_CURVE ( 'NONE', #688, #145, #931, .T. ) ;
#74 = ORIENTED_EDGE ( 'NONE', *, *, #231, .F. ) ;
#75 = DIRECTION ( 'NONE',  ( 1.387778780781445676E-16, -0.000000000000000000, 1.000000000000000000 ) ) ;
#76 = CARTESIAN_POINT ( 'NONE',  ( -15.00000000000000000, 10.00000000000000000, 5.000000000000000000 ) ) ;
#77 = EDGE_CURVE ( 'NONE', #848, #584, #799, .T. ) ;
#78 = EDGE_LOOP ( 'NONE', ( #775, #374, #451, #1217 ) ) ;
#79 = CYLINDRICAL_SURFACE ( 'NONE', #217, 3.500000000000000000 ) ;
#80 = ORIENTED_EDGE ( 'NONE', *, *, #906, .F. ) ;
#81 = ADVANCED_FACE ( 'NONE', ( #143 ), #345, .F. ) ;
#82 = CARTESIAN_POINT ( 'NONE',  ( 2.449293598294706414E-16, 10.00000000000000000, -2.000000000000000000 ) ) ;
#83 = AXIS2_PLACEMENT_3D ( 'NONE', #287, #1110, #117 ) ;
#84 = CARTESIAN_POINT ( 'NONE',  ( -24.99999999999999289, 0.000000000000000000, 2.500000000000000444 ) ) ;
#85 = ORIENTED_EDGE ( 'NONE', *, *, #191, .T. ) ;
#86 = CARTESIAN_POINT ( 'NONE',  ( -15.00000000000000000, 10.00000000000000000, -5.000000000000000000 ) ) ;
#87 = EDGE_LOOP ( 'NONE', ( #685, #94, #1272, #892 ) ) ;
#88 = CARTESIAN_POINT ( 'NONE',  ( 25.00000000000000355, 10.00000000000000000, -12.50000000000000711 ) ) ;
#89 = AXIS2_PLACEMENT_3D ( 'NONE', #896, #1216, #221 ) ;
#90 = FACE_BOUND ( 'NONE', #257, .T. ) ;
#91 = ADVANCED_FACE ( 'NONE', ( #733 ), #1059, .F. ) ;
#92 = CIRCLE ( 'NONE', #8, 1.500000000000000444 ) ;
#93 = EDGE_CURVE ( 'NONE', #206, #759, #68, .T. ) ;
#94 = ORIENTED_EDGE ( 'NONE', *, *, #1164, .F. ) ;
#95 = DIRECTION ( 'NONE',  ( -0.000000000000000000, 1.000000000000000000, -0.000000000000000000 ) ) ;
#96 = ORIENTED_EDGE ( 'NONE', *, *, #435, .T. ) ;
#97 = PLANE ( 'NONE',  #522 ) ;
#98 = FACE_BOUND ( 'NONE', #1002, .T. ) ;
#99 = CARTESIAN_POINT ( 'NONE',  ( 6.717514421272190006, 4.000000000000000000, -3.217514421272213099 ) ) ;
#100 = DIRECTION ( 'NONE',  ( 0.000000000000000000, -0.000000000000000000, -1.000000000000000000 ) ) ;
#101 = EDGE_LOOP ( 'NONE', ( #1184, #121 ) ) ;
#102 = CARTESIAN_POINT ( 'NONE',  ( 2.449293598294706414E-16, 0.000000000000000000, -2.000000000000000000 ) ) ;
#103 = CIRCLE ( 'NONE', #834, 3.499999999999999556 ) ;
#104 = DIRECTION ( 'NONE',  ( 0.000000000000000000, 0.000000000000000000, 1.000000000000000000 ) ) ;
#105 = CIRCLE ( 'NONE', #855, 2.000000000000000000 ) ;
#106 = DIRECTION ( 'NONE',  ( -1.387778780781445676E-16, -0.000000000000000000, -1.000000000000000000 ) ) ;
#107 = CARTESIAN_POINT ( 'NONE',  ( -15.00000000000000000, 10.00000000000000000, 5.000000000000000000 ) ) ;
#108 = ORIENTED_EDGE ( 'NONE', *, *, #883, .T. ) ;
#109 = CARTESIAN_POINT ( 'NONE',  ( 6.717514421272213099, 10.00000000000000000, 5.317514421272190539 ) ) ;
#110 = EDGE_CURVE ( 'NONE', #470, #1284, #150, .T. ) ;
#111 = AXIS2_PLACEMENT_3D ( 'NONE', #1020, #414, #926 ) ;
#112 = DIRECTION ( 'NONE',  ( 0.000000000000000000, 1.000000000000000000, 0.000000000000000000 ) ) ;
#113 = ORIENTED_EDGE ( 'NONE', *, *, #711, .T. ) ;
#114 = DIRECTION ( 'NONE',  ( 0.000000000000000000, -1.000000000000000000, 0.000000000000000000 ) ) ;
#115 = AXIS2_PLACEMENT_3D ( 'NONE', #842, #934, #1037 ) ;
#116 = EDGE_LOOP ( 'NONE', ( #594, #464, #745, #659 ) ) ;
#117 = DIRECTION ( 'NONE',  ( 0.000000000000000000, 0.000000000000000000, -1.000000000000000000 ) ) ;
#118 = LINE ( 'NONE', #418, #618 ) ;
#119 = FACE_OUTER_BOUND ( 'NONE', #796, .T. ) ;
#120 = PLANE ( 'NONE',  #718 ) ;
#121 = ORIENTED_EDGE ( 'NONE', *, *, #598, .F. ) ;
#122 = ADVANCED_FACE ( 'NONE', ( #40 ), #53, .F. ) ;
#123 = DIRECTION ( 'NONE',  ( 0.000000000000000000, 1.000000000000000000, -0.000000000000000000 ) ) ;
#124 = VECTOR ( 'NONE', #595, 1000.000000000000000 ) ;
#125 = ORIENTED_EDGE ( 'NONE', *, *, #286, .F. ) ;
#126 = CYLINDRICAL_SURFACE ( 'NONE', #111, 3.500000000000000444 ) ;
#127 = CIRCLE ( 'NONE', #626, 1.500000000000000444 ) ;
#128 = ORIENTED_EDGE ( 'NONE', *, *, #1085, .F. ) ;
#129 = PRODUCT_DEFINITION_SHAPE ( 'NONE', 'NONE',  #661 ) ;
#130 = DIRECTION ( 'NONE',  ( 0.000000000000000000, 1.000000000000000000, 0.000000000000000000 ) ) ;
#131 = DIRECTION ( 'NONE',  ( 0.000000000000000000, 0.000000000000000000, 1.000000000000000000 ) ) ;
#132 = EDGE_CURVE ( 'NONE', #1101, #37, #137, .T. ) ;
#133 = ORIENTED_EDGE ( 'NONE', *, *, #132, .T. ) ;
#134 = CIRCLE ( 'NONE', #1033, 1.400000000000001021 ) ;
#135 = CIRCLE ( 'NONE', #866, 1.400000000000000133 ) ;
#136 = FACE_BOUND ( 'NONE', #406, .T. ) ;
#137 = LINE ( 'NONE', #726, #740 ) ;
#138 = DIRECTION ( 'NONE',  ( -0.000000000000000000, -1.000000000000000000, -0.000000000000000000 ) ) ;
#139 = ORIENTED_EDGE ( 'NONE', *, *, #651, .T. ) ;
#140 = DIRECTION ( 'NONE',  ( -0.000000000000000000, -1.000000000000000000, -0.000000000000000000 ) ) ;
#141 = VERTEX_POINT ( 'NONE', #530 ) ;
#142 = CARTESIAN_POINT ( 'NONE',  ( -6.717514421272190006, 4.000000000000000000, 8.117514421272213454 ) ) ;
#143 = FACE_OUTER_BOUND ( 'NONE', #6, .T. ) ;
#144 = DIRECTION ( 'NONE',  ( 0.000000000000000000, 0.000000000000000000, -1.000000000000000000 ) ) ;
#145 = VERTEX_POINT ( 'NONE', #951 ) ;
#146 = CIRCLE ( 'NONE', #1090, 2.000000000000000000 ) ;
#147 = DIRECTION ( 'NONE',  ( 0.000000000000000000, 1.000000000000000000, 0.000000000000000000 ) ) ;
#148 = DIRECTION ( 'NONE',  ( 0.000000000000000000, 0.000000000000000000, -1.000000000000000000 ) ) ;
#149 = EDGE_CURVE ( 'NONE', #766, #1094, #850, .T. ) ;
#150 = LINE ( 'NONE', #1052, #29 ) ;
#151 = SHAPE_DEFINITION_REPRESENTATION ( #129, #482 ) ;
#152 = ORIENTED_EDGE ( 'NONE', *, *, #1124, .T. ) ;
#153 = VECTOR ( 'NONE', #535, 1000.000000000000000 ) ;
#154 = CARTESIAN_POINT ( 'NONE',  ( 6.717514421272190006, 4.000000000000000000, -6.717514421272213099 ) ) ;
#155 = ORIENTED_EDGE ( 'NONE', *, *, #1056, .T. ) ;
#156 = CIRCLE ( 'NONE', #260, 3.500000000000000000 ) ;
#157 = CARTESIAN_POINT ( 'NONE',  ( -6.717514421272213099, 10.00000000000000000, -6.717514421272190006 ) ) ;
#158 = CARTESIAN_POINT ( 'NONE',  ( 15.00000000000000000, 0.000000000000000000, 3.499999999999999556 ) ) ;
#159 = VERTEX_POINT ( 'NONE', #331 ) ;
#160 = FACE_OUTER_BOUND ( 'NONE', #494, .T. ) ;
#161 = EDGE_LOOP ( 'NONE', ( #1171, #648 ) ) ;
#162 = CARTESIAN_POINT ( 'NONE',  ( -6.717514421272213099, 4.000000000000000000, -10.21751442127219001 ) ) ;
#163 =( NAMED_UNIT ( * ) PLANE_ANGLE_UNIT ( ) SI_UNIT ( $, .RADIAN. ) );
#164 = VERTEX_POINT ( 'NONE', #1260 ) ;
#165 = CARTESIAN_POINT ( 'NONE',  ( 2.449293598294706414E-16, 0.000000000000000000, -2.000000000000000000 ) ) ;
#166 = ORIENTED_EDGE ( 'NONE', *, *, #789, .T. ) ;
#167 = AXIS2_PLACEMENT_3D ( 'NONE', #1270, #1149, #49 ) ;
#168 = CARTESIAN_POINT ( 'NONE',  ( -6.717514421272213099, 4.000000000000000000, -6.717514421272190006 ) ) ;
#169 = EDGE_CURVE ( 'NONE', #322, #1300, #633, .T. ) ;
#170 = DIRECTION ( 'NONE',  ( -0.000000000000000000, 1.000000000000000000, -0.000000000000000000 ) ) ;
#171 = ORIENTED_EDGE ( 'NONE', *, *, #1113, .T. ) ;
#172 = DIRECTION ( 'NONE',  ( 0.000000000000000000, 0.000000000000000000, 1.000000000000000000 ) ) ;
#173 = AXIS2_PLACEMENT_3D ( 'NONE', #86, #370, #172 ) ;
#174 = ORIENTED_EDGE ( 'NONE', *, *, #1145, .F. ) ;
#175 = CARTESIAN_POINT ( 'NONE',  ( 0.000000000000000000, 0.000000000000000000, 0.000000000000000000 ) ) ;
#176 = ADVANCED_FACE ( 'NONE', ( #352 ), #653, .F. ) ;
#177 = AXIS2_PLACEMENT_3D ( 'NONE', #777, #857, #658 ) ;
#178 = VECTOR ( 'NONE', #533, 1000.000000000000000 ) ;
#179 = DIRECTION ( 'NONE',  ( 0.000000000000000000, 0.000000000000000000, -1.000000000000000000 ) ) ;
#180 = VERTEX_POINT ( 'NONE', #243 ) ;
#181 = CARTESIAN_POINT ( 'NONE',  ( -6.717514421272190006, 0.000000000000000000, 6.717514421272213099 ) ) ;
#182 = EDGE_CURVE ( 'NONE', #235, #226, #1030, .T. ) ;
#183 = ORIENTED_EDGE ( 'NONE', *, *, #54, .T. ) ;
#184 = CYLINDRICAL_SURFACE ( 'NONE', #897, 1.400000000000001021 ) ;
#185 = DIRECTION ( 'NONE',  ( 0.000000000000000000, -1.000000000000000000, 0.000000000000000000 ) ) ;
#186 = EDGE_LOOP ( 'NONE', ( #1223, #940, #50, #612 ) ) ;
#187 = CYLINDRICAL_SURFACE ( 'NONE', #5, 3.500000000000000444 ) ;
#188 = ORIENTED_EDGE ( 'NONE', *, *, #449, .F. ) ;
#189 = CARTESIAN_POINT ( 'NONE',  ( 15.00000000000000711, 10.00000000000000000, 2.499999999999995115 ) ) ;
#190 = CIRCLE ( 'NONE', #83, 10.00000000000000000 ) ;
#191 = EDGE_CURVE ( 'NONE', #296, #141, #944, .T. ) ;
#192 = DIRECTION ( 'NONE',  ( -0.000000000000000000, 1.000000000000000000, -0.000000000000000000 ) ) ;
#193 = ORIENTED_EDGE ( 'NONE', *, *, #219, .F. ) ;
#194 = CYLINDRICAL_SURFACE ( 'NONE', #930, 1.500000000000000444 ) ;
#195 = ORIENTED_EDGE ( 'NONE', *, *, #400, .F. ) ;
#196 = DIRECTION ( 'NONE',  ( 0.000000000000000000, 1.000000000000000000, 0.000000000000000000 ) ) ;
#197 = CARTESIAN_POINT ( 'NONE',  ( -15.00000000000000000, 10.00000000000000000, 6.500000000000000888 ) ) ;
#198 = CLOSED_SHELL ( 'NONE', ( #1151, #668, #1205, #615, #695, #1082, #980, #1254, #249, #122, #432, #1064, #694, #1183, #91, #1105, #81, #453, #1283, #212, #632, #496, #381, #17, #316, #680, #176, #1244, #856, #548, #875, #731, #774, #1298, #1263, #1051, #422, #913, #1250, #1046 ) ) ;
#199 = ORIENTED_EDGE ( 'NONE', *, *, #73, .F. ) ;
#200 = DIRECTION ( 'NONE',  ( -0.000000000000000000, -1.000000000000000000, -0.000000000000000000 ) ) ;
#201 = ORIENTED_EDGE ( 'NONE', *, *, #1009, .F. ) ;
#202 = CARTESIAN_POINT ( 'NONE',  ( 6.717514421272213099, 0.000000000000000000, 10.21751442127219178 ) ) ;
#203 = FACE_BOUND ( 'NONE', #526, .T. ) ;
#204 = ORIENTED_EDGE ( 'NONE', *, *, #271, .T. ) ;
#205 = DIRECTION ( 'NONE',  ( 0.000000000000000000, 0.000000000000000000, -1.000000000000000000 ) ) ;
#206 = VERTEX_POINT ( 'NONE', #326 ) ;
#207 = EDGE_CURVE ( 'NONE', #206, #420, #256, .T. ) ;
#208 = LINE ( 'NONE', #402, #330 ) ;
#209 = AXIS2_PLACEMENT_3D ( 'NONE', #607, #811, #1089 ) ;
#210 = CARTESIAN_POINT ( 'NONE',  ( 0.000000000000000000, 0.000000000000000000, 0.000000000000000000 ) ) ;
#211 = AXIS2_PLACEMENT_3D ( 'NONE', #649, #456, #852 ) ;
#212 = ADVANCED_FACE ( 'NONE', ( #1130 ), #445, .F. ) ;
#213 = EDGE_LOOP ( 'NONE', ( #654, #195 ) ) ;
#214 = FACE_OUTER_BOUND ( 'NONE', #1261, .T. ) ;
#215 = ORIENTED_EDGE ( 'NONE', *, *, #191, .F. ) ;
#216 = DIRECTION ( 'NONE',  ( -0.000000000000000000, 1.000000000000000000, -0.000000000000000000 ) ) ;
#217 = AXIS2_PLACEMENT_3D ( 'NONE', #490, #600, #997 ) ;
#218 = PLANE ( 'NONE',  #1191 ) ;
#219 = EDGE_CURVE ( 'NONE', #305, #1074, #1142, .T. ) ;
#220 = LINE ( 'NONE', #99, #887 ) ;
#221 = DIRECTION ( 'NONE',  ( 0.000000000000000000, 0.000000000000000000, 1.000000000000000000 ) ) ;
#222 = CIRCLE ( 'NONE', #1299, 10.00000000000000000 ) ;
#223 = ORIENTED_EDGE ( 'NONE', *, *, #641, .F. ) ;
#224 = EDGE_CURVE ( 'NONE', #145, #159, #646, .T. ) ;
#225 = LINE ( 'NONE', #396, #1212 ) ;
#226 = VERTEX_POINT ( 'NONE', #955 ) ;
#227 = CARTESIAN_POINT ( 'NONE',  ( -6.717514421272190006, 4.000000000000000000, 6.717514421272213099 ) ) ;
#228 = ORIENTED_EDGE ( 'NONE', *, *, #449, .T. ) ;
#229 = EDGE_CURVE ( 'NONE', #235, #468, #573, .T. ) ;
#230 = LINE ( 'NONE', #44, #1035 ) ;
#231 = EDGE_CURVE ( 'NONE', #539, #1053, #156, .T. ) ;
#232 = VECTOR ( 'NONE', #899, 1000.000000000000000 ) ;
#233 = DIRECTION ( 'NONE',  ( -1.000000000000000000, 0.000000000000000000, 1.387778780781445676E-16 ) ) ;
#234 = CARTESIAN_POINT ( 'NONE',  ( -6.717514421272190006, 0.000000000000000000, 6.717514421272213099 ) ) ;
#235 = VERTEX_POINT ( 'NONE', #582 ) ;
#236 = FACE_BOUND ( 'NONE', #382, .T. ) ;
#237 = DIRECTION ( 'NONE',  ( 0.000000000000000000, 0.000000000000000000, -1.000000000000000000 ) ) ;
#238 = ORIENTED_EDGE ( 'NONE', *, *, #817, .T. ) ;
#239 = DIRECTION ( 'NONE',  ( 0.000000000000000000, 0.000000000000000000, 1.000000000000000000 ) ) ;
#240 = AXIS2_PLACEMENT_3D ( 'NONE', #454, #1234, #1137 ) ;
#241 = MECHANICAL_DESIGN_GEOMETRIC_PRESENTATION_REPRESENTATION (  '', ( #678 ), #933 ) ;
#242 = FACE_BOUND ( 'NONE', #213, .T. ) ;
#243 = CARTESIAN_POINT ( 'NONE',  ( 6.717514421272213099, 0.000000000000000000, 3.217514421272188674 ) ) ;
#244 = CARTESIAN_POINT ( 'NONE',  ( -14.99999999999999645, 10.00000000000000000, -12.50000000000000178 ) ) ;
#245 = ORIENTED_EDGE ( 'NONE', *, *, #536, .T. ) ;
#246 = DIRECTION ( 'NONE',  ( -0.000000000000000000, 1.000000000000000000, -0.000000000000000000 ) ) ;
#247 = EDGE_CURVE ( 'NONE', #481, #268, #134, .T. ) ;
#248 = CARTESIAN_POINT ( 'NONE',  ( 0.000000000000000000, 10.00000000000000000, 0.000000000000000000 ) ) ;
#249 = ADVANCED_FACE ( 'NONE', ( #1276 ), #1077, .F. ) ;
#250 = DIRECTION ( 'NONE',  ( 0.000000000000000000, 0.000000000000000000, -1.000000000000000000 ) ) ;
#251 = ORIENTED_EDGE ( 'NONE', *, *, #1224, .F. ) ;
#252 = CIRCLE ( 'NONE', #664, 1.400000000000001021 ) ;
#253 = DIRECTION ( 'NONE',  ( 0.000000000000000000, 0.000000000000000000, -1.000000000000000000 ) ) ;
#254 = VERTEX_POINT ( 'NONE', #769 ) ;
#255 = LINE ( 'NONE', #88, #645 ) ;
#256 = LINE ( 'NONE', #45, #970 ) ;
#257 = EDGE_LOOP ( 'NONE', ( #125, #692 ) ) ;
#258 = CIRCLE ( 'NONE', #401, 3.499999999999999556 ) ;
#259 = CARTESIAN_POINT ( 'NONE',  ( -24.99999999999999645, 0.000000000000000000, -12.50000000000000000 ) ) ;
#260 = AXIS2_PLACEMENT_3D ( 'NONE', #368, #784, #70 ) ;
#261 = CARTESIAN_POINT ( 'NONE',  ( -15.00000000000000000, 0.000000000000000000, -3.499999999999999556 ) ) ;
#262 = DIRECTION ( 'NONE',  ( 0.000000000000000000, 1.000000000000000000, 0.000000000000000000 ) ) ;
#263 = EDGE_LOOP ( 'NONE', ( #379, #285 ) ) ;
#264 = CARTESIAN_POINT ( 'NONE',  ( -15.00000000000000000, 0.000000000000000000, -6.500000000000000888 ) ) ;
#265 = DIRECTION ( 'NONE',  ( 0.000000000000000000, 0.000000000000000000, 1.000000000000000000 ) ) ;
#266 = EDGE_CURVE ( 'NONE', #23, #159, #92, .T. ) ;
#267 = CARTESIAN_POINT ( 'NONE',  ( -6.717514421272190006, 10.00000000000000000, 6.717514421272213099 ) ) ;
#268 = VERTEX_POINT ( 'NONE', #568 ) ;
#269 = CYLINDRICAL_SURFACE ( 'NONE', #1230, 1.400000000000000133 ) ;
#270 = VECTOR ( 'NONE', #627, 1000.000000000000000 ) ;
#271 = EDGE_CURVE ( 'NONE', #925, #848, #51, .T. ) ;
#272 = ORIENTED_EDGE ( 'NONE', *, *, #807, .F. ) ;
#273 = CIRCLE ( 'NONE', #1179, 3.499999999999999556 ) ;
#274 = DIRECTION ( 'NONE',  ( -0.000000000000000000, -1.000000000000000000, -0.000000000000000000 ) ) ;
#275 = CARTESIAN_POINT ( 'NONE',  ( -24.99999999999999645, 10.00000000000000000, -12.50000000000000000 ) ) ;
#276 = ORIENTED_EDGE ( 'NONE', *, *, #575, .F. ) ;
#277 = DIRECTION ( 'NONE',  ( -0.000000000000000000, 1.000000000000000000, -0.000000000000000000 ) ) ;
#278 = CIRCLE ( 'NONE', #173, 1.500000000000000444 ) ;
#279 = ORIENTED_EDGE ( 'NONE', *, *, #323, .T. ) ;
#280 = CARTESIAN_POINT ( 'NONE',  ( 0.000000000000000000, 10.00000000000000000, 2.000000000000000000 ) ) ;
#281 = AXIS2_PLACEMENT_3D ( 'NONE', #1119, #1220, #308 ) ;
#282 = SURFACE_SIDE_STYLE ('',( #63 ) ) ;
#283 = VERTEX_POINT ( 'NONE', #1187 ) ;
#284 = CARTESIAN_POINT ( 'NONE',  ( 6.717514421272190006, 4.000000000000000000, -6.717514421272213099 ) ) ;
#285 = ORIENTED_EDGE ( 'NONE', *, *, #558, .T. ) ;
#286 = EDGE_CURVE ( 'NONE', #180, #833, #384, .T. ) ;
#287 = CARTESIAN_POINT ( 'NONE',  ( -14.99999999999999645, 0.000000000000000000, -2.500000000000002220 ) ) ;
#288 = CARTESIAN_POINT ( 'NONE',  ( 6.717514421272213099, 0.000000000000000000, 6.717514421272190006 ) ) ;
#289 = ORIENTED_EDGE ( 'NONE', *, *, #411, .F. ) ;
#290 = CARTESIAN_POINT ( 'NONE',  ( -15.00000000000000000, 0.000000000000000000, 12.49999999999999822 ) ) ;
#291 = ORIENTED_EDGE ( 'NONE', *, *, #994, .T. ) ;
#292 = CIRCLE ( 'NONE', #485, 1.400000000000001021 ) ;
#293 = DIRECTION ( 'NONE',  ( -0.000000000000000000, 1.000000000000000000, -0.000000000000000000 ) ) ;
#294 = CIRCLE ( 'NONE', #1028, 10.00000000000000000 ) ;
#295 = DIRECTION ( 'NONE',  ( 0.000000000000000000, 0.000000000000000000, 1.000000000000000000 ) ) ;
#296 = VERTEX_POINT ( 'NONE', #84 ) ;
#297 = DIRECTION ( 'NONE',  ( -0.000000000000000000, 1.000000000000000000, -0.000000000000000000 ) ) ;
#298 = ORIENTED_EDGE ( 'NONE', *, *, #324, .T. ) ;
#299 = CIRCLE ( 'NONE', #1206, 3.500000000000000888 ) ;
#300 = CARTESIAN_POINT ( 'NONE',  ( -15.00000000000000000, 10.00000000000000000, 2.499999999999999112 ) ) ;
#301 = FACE_OUTER_BOUND ( 'NONE', #938, .T. ) ;
#302 = AXIS2_PLACEMENT_3D ( 'NONE', #314, #1125, #295 ) ;
#303 = VERTEX_POINT ( 'NONE', #373 ) ;
#304 = FACE_OUTER_BOUND ( 'NONE', #28, .T. ) ;
#305 = VERTEX_POINT ( 'NONE', #969 ) ;
#306 = DIRECTION ( 'NONE',  ( -0.000000000000000000, 1.000000000000000000, -0.000000000000000000 ) ) ;
#307 = EDGE_CURVE ( 'NONE', #305, #322, #466, .T. ) ;
#308 = DIRECTION ( 'NONE',  ( 0.000000000000000000, 0.000000000000000000, -1.000000000000000000 ) ) ;
#309 = PLANE ( 'NONE',  #1296 ) ;
#310 = ORIENTED_EDGE ( 'NONE', *, *, #1307, .F. ) ;
#311 = EDGE_CURVE ( 'NONE', #503, #491, #493, .T. ) ;
#312 = CARTESIAN_POINT ( 'NONE',  ( -24.99999999999999645, 10.00000000000000000, -2.500000000000000444 ) ) ;
#313 = VECTOR ( 'NONE', #274, 1000.000000000000000 ) ;
#314 = CARTESIAN_POINT ( 'NONE',  ( -6.717514421272213099, 10.00000000000000000, -6.717514421272190006 ) ) ;
#315 = CARTESIAN_POINT ( 'NONE',  ( -15.00000000000000000, 0.000000000000000000, -5.000000000000000000 ) ) ;
#316 = ADVANCED_FACE ( 'NONE', ( #590 ), #1268, .F. ) ;
#317 = PLANE ( 'NONE',  #510 ) ;
#318 = ORIENTED_EDGE ( 'NONE', *, *, #638, .F. ) ;
#319 = FACE_BOUND ( 'NONE', #978, .T. ) ;
#320 = EDGE_LOOP ( 'NONE', ( #489, #1047, #810, #755 ) ) ;
#321 = CARTESIAN_POINT ( 'NONE',  ( 25.00000000000000711, 10.00000000000000000, 2.499999999999993339 ) ) ;
#322 = VERTEX_POINT ( 'NONE', #687 ) ;
#323 = EDGE_CURVE ( 'NONE', #766, #141, #577, .T. ) ;
#324 = EDGE_CURVE ( 'NONE', #902, #37, #222, .T. ) ;
#325 = LINE ( 'NONE', #725, #270 ) ;
#326 = CARTESIAN_POINT ( 'NONE',  ( -15.00000000000000000, 0.000000000000000000, 6.500000000000000888 ) ) ;
#327 = DIRECTION ( 'NONE',  ( -1.387778780781445676E-16, -0.000000000000000000, -1.000000000000000000 ) ) ;
#328 = EDGE_LOOP ( 'NONE', ( #391, #914 ) ) ;
#329 = CARTESIAN_POINT ( 'NONE',  ( -6.717514421272213099, 4.000000000000000000, -6.717514421272190006 ) ) ;
#330 = VECTOR ( 'NONE', #706, 1000.000000000000000 ) ;
#331 = CARTESIAN_POINT ( 'NONE',  ( 15.00000000000000000, 10.00000000000000000, 3.499999999999999112 ) ) ;
#332 = PRODUCT_CONTEXT ( 'NONE', #1239, 'mechanical' ) ;
#333 = CIRCLE ( 'NONE', #211, 1.500000000000000444 ) ;
#334 = ORIENTED_EDGE ( 'NONE', *, *, #787, .T. ) ;
#335 = DIRECTION ( 'NONE',  ( 0.000000000000000000, 0.000000000000000000, -1.000000000000000000 ) ) ;
#336 = ORIENTED_EDGE ( 'NONE', *, *, #461, .T. ) ;
#337 = DIRECTION ( 'NONE',  ( 0.000000000000000000, 0.000000000000000000, -1.000000000000000000 ) ) ;
#338 = DIRECTION ( 'NONE',  ( -0.000000000000000000, 1.000000000000000000, -0.000000000000000000 ) ) ;
#339 = LINE ( 'NONE', #34, #673 ) ;
#340 = EDGE_CURVE ( 'NONE', #420, #164, #1167, .T. ) ;
#341 = ORIENTED_EDGE ( 'NONE', *, *, #480, .F. ) ;
#342 = CARTESIAN_POINT ( 'NONE',  ( -6.717514421272190006, 4.000000000000000000, 6.717514421272213099 ) ) ;
#343 = AXIS2_PLACEMENT_3D ( 'NONE', #1106, #500, #20 ) ;
#344 = FACE_BOUND ( 'NONE', #521, .T. ) ;
#345 = CYLINDRICAL_SURFACE ( 'NONE', #240, 1.400000000000001021 ) ;
#346 = CYLINDRICAL_SURFACE ( 'NONE', #467, 3.499999999999999556 ) ;
#347 = MANIFOLD_SOLID_BREP ( 'Cut-Extrude4', #198 ) ;
#348 = ORIENTED_EDGE ( 'NONE', *, *, #182, .F. ) ;
#349 = CARTESIAN_POINT ( 'NONE',  ( 25.00000000000000355, 10.00000000000000000, -2.500000000000007550 ) ) ;
#350 = ORIENTED_EDGE ( 'NONE', *, *, #54, .F. ) ;
#351 = CARTESIAN_POINT ( 'NONE',  ( 15.00000000000000000, 10.00000000000000000, 5.000000000000000000 ) ) ;
#352 = FACE_OUTER_BOUND ( 'NONE', #785, .T. ) ;
#353 = CARTESIAN_POINT ( 'NONE',  ( 0.000000000000000000, 0.000000000000000000, 0.000000000000000000 ) ) ;
#354 = CIRCLE ( 'NONE', #922, 3.500000000000000888 ) ;
#355 = EDGE_CURVE ( 'NONE', #623, #705, #531, .T. ) ;
#356 = EDGE_LOOP ( 'NONE', ( #74, #1294, #1174, #748 ) ) ;
#357 = AXIS2_PLACEMENT_3D ( 'NONE', #11, #999, #18 ) ;
#358 = DIRECTION ( 'NONE',  ( -0.000000000000000000, 1.000000000000000000, -0.000000000000000000 ) ) ;
#359 = ORIENTED_EDGE ( 'NONE', *, *, #93, .T. ) ;
#360 = LINE ( 'NONE', #162, #313 ) ;
#361 = DIRECTION ( 'NONE',  ( 0.000000000000000000, 0.000000000000000000, -1.000000000000000000 ) ) ;
#362 = ORIENTED_EDGE ( 'NONE', *, *, #266, .F. ) ;
#363 = CARTESIAN_POINT ( 'NONE',  ( -6.717514421272213099, 4.000000000000000000, -6.717514421272190006 ) ) ;
#364 = AXIS2_PLACEMENT_3D ( 'NONE', #1126, #507, #895 ) ;
#365 = EDGE_CURVE ( 'NONE', #1019, #1021, #405, .T. ) ;
#366 = VECTOR ( 'NONE', #412, 1000.000000000000000 ) ;
#367 = DIRECTION ( 'NONE',  ( 0.000000000000000000, -1.000000000000000000, 0.000000000000000000 ) ) ;
#368 = CARTESIAN_POINT ( 'NONE',  ( -6.717514421272190006, 4.000000000000000000, 6.717514421272213099 ) ) ;
#369 = EDGE_LOOP ( 'NONE', ( #946, #708, #1211, #1122 ) ) ;
#370 = DIRECTION ( 'NONE',  ( 0.000000000000000000, 1.000000000000000000, 0.000000000000000000 ) ) ;
#371 = VERTEX_POINT ( 'NONE', #403 ) ;
#372 = DIRECTION ( 'NONE',  ( -0.000000000000000000, -1.000000000000000000, -0.000000000000000000 ) ) ;
#373 = CARTESIAN_POINT ( 'NONE',  ( 6.717514421272213099, 4.000000000000000000, 3.217514421272188674 ) ) ;
#374 = ORIENTED_EDGE ( 'NONE', *, *, #182, .T. ) ;
#375 = DIRECTION ( 'NONE',  ( -0.000000000000000000, 1.000000000000000000, -0.000000000000000000 ) ) ;
#376 = ORIENTED_EDGE ( 'NONE', *, *, #1154, .F. ) ;
#377 = DIRECTION ( 'NONE',  ( 0.000000000000000000, 1.000000000000000000, 0.000000000000000000 ) ) ;
#378 = DIRECTION ( 'NONE',  ( 0.000000000000000000, 0.000000000000000000, -1.000000000000000000 ) ) ;
#379 = ORIENTED_EDGE ( 'NONE', *, *, #928, .T. ) ;
#380 = CARTESIAN_POINT ( 'NONE',  ( -15.00000000000000000, 10.00000000000000000, 12.49999999999999822 ) ) ;
#381 = ADVANCED_FACE ( 'NONE', ( #597, #1207, #90, #203, #806, #1304, #319, #894, #1226, #301 ), #218, .T. ) ;
#382 = EDGE_LOOP ( 'NONE', ( #318, #1203 ) ) ;
#383 = CARTESIAN_POINT ( 'NONE',  ( 25.00000000000000355, 10.00000000000000000, -12.50000000000000711 ) ) ;
#384 = CIRCLE ( 'NONE', #907, 3.500000000000000888 ) ;
#385 = CARTESIAN_POINT ( 'NONE',  ( -15.00000000000000000, 0.000000000000000000, 5.000000000000000000 ) ) ;
#386 = EDGE_LOOP ( 'NONE', ( #743, #223, #66, #497 ) ) ;
#387 = CARTESIAN_POINT ( 'NONE',  ( -6.717514421272213099, 4.000000000000000000, -10.21751442127219001 ) ) ;
#388 = EDGE_LOOP ( 'NONE', ( #413, #193, #1055, #1192 ) ) ;
#389 = DIRECTION ( 'NONE',  ( 0.000000000000000000, 0.000000000000000000, -1.000000000000000000 ) ) ;
#390 = DIRECTION ( 'NONE',  ( 0.000000000000000000, -0.000000000000000000, -1.000000000000000000 ) ) ;
#391 = ORIENTED_EDGE ( 'NONE', *, *, #355, .F. ) ;
#392 = CARTESIAN_POINT ( 'NONE',  ( -6.717514421272213099, 0.000000000000000000, -5.317514421272188763 ) ) ;
#393 = ORIENTED_EDGE ( 'NONE', *, *, #1113, .F. ) ;
#394 = CARTESIAN_POINT ( 'NONE',  ( 6.717514421272190006, 4.000000000000000000, -6.717514421272213099 ) ) ;
#395 = AXIS2_PLACEMENT_3D ( 'NONE', #1285, #780, #571 ) ;
#396 = CARTESIAN_POINT ( 'NONE',  ( 6.717514421272190006, 0.000000000000000000, -8.117514421272213454 ) ) ;
#397 = DIRECTION ( 'NONE',  ( 0.000000000000000000, 0.000000000000000000, 1.000000000000000000 ) ) ;
#398 = LINE ( 'NONE', #800, #862 ) ;
#399 = VERTEX_POINT ( 'NONE', #603 ) ;
#400 = EDGE_CURVE ( 'NONE', #851, #1284, #1144, .T. ) ;
#401 = AXIS2_PLACEMENT_3D ( 'NONE', #873, #579, #476 ) ;
#402 = CARTESIAN_POINT ( 'NONE',  ( 6.717514421272213099, 0.000000000000000000, 5.317514421272190539 ) ) ;
#403 = CARTESIAN_POINT ( 'NONE',  ( -6.717514421272213099, 4.000000000000000000, -3.217514421272189562 ) ) ;
#404 = CIRCLE ( 'NONE', #281, 3.499999999999999556 ) ;
#405 = CIRCLE ( 'NONE', #635, 2.000000000000000000 ) ;
#406 = EDGE_LOOP ( 'NONE', ( #362, #513 ) ) ;
#407 = DIRECTION ( 'NONE',  ( 0.000000000000000000, 0.000000000000000000, 1.000000000000000000 ) ) ;
#408 = EDGE_CURVE ( 'NONE', #559, #699, #225, .T. ) ;
#409 = ORIENTED_EDGE ( 'NONE', *, *, #767, .T. ) ;
#410 = CARTESIAN_POINT ( 'NONE',  ( -15.00000000000000000, 0.000000000000000000, 3.499999999999999112 ) ) ;
#411 = EDGE_CURVE ( 'NONE', #283, #1258, #910, .T. ) ;
#412 = DIRECTION ( 'NONE',  ( -0.000000000000000000, 1.000000000000000000, -0.000000000000000000 ) ) ;
#413 = ORIENTED_EDGE ( 'NONE', *, *, #36, .F. ) ;
#414 = DIRECTION ( 'NONE',  ( -0.000000000000000000, -1.000000000000000000, -0.000000000000000000 ) ) ;
#415 = ORIENTED_EDGE ( 'NONE', *, *, #588, .F. ) ;
#416 = CARTESIAN_POINT ( 'NONE',  ( -6.717514421272190006, 0.000000000000000000, 3.217514421272213099 ) ) ;
#417 = AXIS2_PLACEMENT_3D ( 'NONE', #686, #492, #693 ) ;
#418 = CARTESIAN_POINT ( 'NONE',  ( -6.717514421272213099, 0.000000000000000000, -8.117514421272190361 ) ) ;
#419 = UNCERTAINTY_MEASURE_WITH_UNIT (LENGTH_MEASURE( 1.000000000000000082E-05 ), #945, 'distance_accuracy_value', 'NONE');
#420 = VERTEX_POINT ( 'NONE', #197 ) ;
#421 = LINE ( 'NONE', #501, #738 ) ;
#422 = ADVANCED_FACE ( 'NONE', ( #1104, #98 ), #791, .T. ) ;
#423 = VERTEX_POINT ( 'NONE', #1000 ) ;
#424 =( GEOMETRIC_REPRESENTATION_CONTEXT ( 3 ) GLOBAL_UNCERTAINTY_ASSIGNED_CONTEXT ( ( #419 ) ) GLOBAL_UNIT_ASSIGNED_CONTEXT ( ( #945, #843, #956 ) ) REPRESENTATION_CONTEXT ( 'NONE', 'WORKASPACE' ) );
#425 = CARTESIAN_POINT ( 'NONE',  ( 25.00000000000000711, 10.00000000000000000, 2.499999999999993339 ) ) ;
#426 = CARTESIAN_POINT ( 'NONE',  ( 6.717514421272213099, 0.000000000000000000, 6.717514421272190006 ) ) ;
#427 = DIRECTION ( 'NONE',  ( 0.000000000000000000, 0.000000000000000000, -1.000000000000000000 ) ) ;
#428 = AXIS2_PLACEMENT_3D ( 'NONE', #315, #1112, #397 ) ;
#429 = ORIENTED_EDGE ( 'NONE', *, *, #311, .T. ) ;
#430 = CARTESIAN_POINT ( 'NONE',  ( -15.00000000000000000, 10.00000000000000000, -3.499999999999999556 ) ) ;
#431 = CARTESIAN_POINT ( 'NONE',  ( -24.99999999999999645, 10.00000000000000000, -2.500000000000000444 ) ) ;
#432 = ADVANCED_FACE ( 'NONE', ( #1111 ), #609, .F. ) ;
#433 = EDGE_LOOP ( 'NONE', ( #656, #736 ) ) ;
#434 = CARTESIAN_POINT ( 'NONE',  ( 15.00000000000000000, 10.00000000000000000, -3.499999999999999112 ) ) ;
#435 = EDGE_CURVE ( 'NONE', #1163, #838, #472, .T. ) ;
#436 = AXIS2_PLACEMENT_3D ( 'NONE', #762, #670, #265 ) ;
#437 = DIRECTION ( 'NONE',  ( -0.000000000000000000, 1.000000000000000000, -0.000000000000000000 ) ) ;
#438 = DIRECTION ( 'NONE',  ( 0.000000000000000000, 0.000000000000000000, -1.000000000000000000 ) ) ;
#439 = CIRCLE ( 'NONE', #730, 1.500000000000000444 ) ;
#440 = ORIENTED_EDGE ( 'NONE', *, *, #1056, .F. ) ;
#441 = CYLINDRICAL_SURFACE ( 'NONE', #460, 3.500000000000000888 ) ;
#442 = EDGE_CURVE ( 'NONE', #587, #547, #450, .T. ) ;
#443 = PLANE ( 'NONE',  #909 ) ;
#444 = CIRCLE ( 'NONE', #988, 10.00000000000000000 ) ;
#445 = PLANE ( 'NONE',  #617 ) ;
#446 = DIRECTION ( 'NONE',  ( -0.000000000000000000, -1.000000000000000000, -0.000000000000000000 ) ) ;
#447 = ORIENTED_EDGE ( 'NONE', *, *, #110, .T. ) ;
#448 = DIRECTION ( 'NONE',  ( 1.387778780781445676E-16, 0.000000000000000000, 1.000000000000000000 ) ) ;
#449 = EDGE_CURVE ( 'NONE', #601, #1163, #118, .T. ) ;
#450 = CIRCLE ( 'NONE', #69, 1.500000000000000444 ) ;
#451 = ORIENTED_EDGE ( 'NONE', *, *, #1009, .T. ) ;
#452 = DIRECTION ( 'NONE',  ( -0.000000000000000000, 1.000000000000000000, -0.000000000000000000 ) ) ;
#453 = ADVANCED_FACE ( 'NONE', ( #517 ), #987, .F. ) ;
#454 = CARTESIAN_POINT ( 'NONE',  ( -6.717514421272213099, 0.000000000000000000, -6.717514421272190006 ) ) ;
#455 = ORIENTED_EDGE ( 'NONE', *, *, #1224, .T. ) ;
#456 = DIRECTION ( 'NONE',  ( 0.000000000000000000, 1.000000000000000000, 0.000000000000000000 ) ) ;
#457 = CARTESIAN_POINT ( 'NONE',  ( 6.717514421272213099, 4.000000000000000000, 6.717514421272190006 ) ) ;
#458 =( LENGTH_UNIT ( ) NAMED_UNIT ( * ) SI_UNIT ( .MILLI., .METRE. ) );
#459 = ORIENTED_EDGE ( 'NONE', *, *, #787, .F. ) ;
#460 = AXIS2_PLACEMENT_3D ( 'NONE', #538, #735, #958 ) ;
#461 = EDGE_CURVE ( 'NONE', #468, #235, #742, .T. ) ;
#462 = LINE ( 'NONE', #947, #1070 ) ;
#463 = EDGE_CURVE ( 'NONE', #470, #532, #574, .T. ) ;
#464 = ORIENTED_EDGE ( 'NONE', *, *, #36, .T. ) ;
#465 = DIRECTION ( 'NONE',  ( -0.000000000000000000, 1.000000000000000000, -0.000000000000000000 ) ) ;
#466 = LINE ( 'NONE', #681, #677 ) ;
#467 = AXIS2_PLACEMENT_3D ( 'NONE', #1038, #138, #438 ) ;
#468 = VERTEX_POINT ( 'NONE', #739 ) ;
#469 = CYLINDRICAL_SURFACE ( 'NONE', #395, 3.500000000000000000 ) ;
#470 = VERTEX_POINT ( 'NONE', #840 ) ;
#471 = AXIS2_PLACEMENT_3D ( 'NONE', #385, #1168, #870 ) ;
#472 = CIRCLE ( 'NONE', #302, 1.400000000000001021 ) ;
#473 = DIRECTION ( 'NONE',  ( -0.000000000000000000, 1.000000000000000000, -0.000000000000000000 ) ) ;
#474 = CARTESIAN_POINT ( 'NONE',  ( -15.00000000000000000, 0.000000000000000000, -5.000000000000000000 ) ) ;
#475 = ORIENTED_EDGE ( 'NONE', *, *, #724, .F. ) ;
#476 = DIRECTION ( 'NONE',  ( 0.000000000000000000, 0.000000000000000000, -1.000000000000000000 ) ) ;
#477 = ORIENTED_EDGE ( 'NONE', *, *, #271, .F. ) ;
#478 = DIRECTION ( 'NONE',  ( 0.000000000000000000, 0.000000000000000000, 1.000000000000000000 ) ) ;
#479 = DIRECTION ( 'NONE',  ( 0.000000000000000000, 1.000000000000000000, 0.000000000000000000 ) ) ;
#480 = EDGE_CURVE ( 'NONE', #688, #23, #932, .T. ) ;
#481 = VERTEX_POINT ( 'NONE', #1022 ) ;
#483 = DIRECTION ( 'NONE',  ( 0.000000000000000000, 0.000000000000000000, 1.000000000000000000 ) ) ;
#482 = ADVANCED_BREP_SHAPE_REPRESENTATION ( 'Motor Mount Servo', ( #347, #593 ), #424 ) ;
#484 = EDGE_CURVE ( 'NONE', #759, #164, #1143, .T. ) ;
#485 = AXIS2_PLACEMENT_3D ( 'NONE', #1095, #196, #797 ) ;
#486 = VERTEX_POINT ( 'NONE', #430 ) ;
#487 = CARTESIAN_POINT ( 'NONE',  ( 0.000000000000000000, 0.000000000000000000, 0.000000000000000000 ) ) ;
#488 = DIRECTION ( 'NONE',  ( 0.000000000000000000, 0.000000000000000000, -1.000000000000000000 ) ) ;
#489 = ORIENTED_EDGE ( 'NONE', *, *, #542, .F. ) ;
#490 = CARTESIAN_POINT ( 'NONE',  ( -6.717514421272190006, 4.000000000000000000, 6.717514421272213099 ) ) ;
#491 = VERTEX_POINT ( 'NONE', #142 ) ;
#492 = DIRECTION ( 'NONE',  ( 0.000000000000000000, -1.000000000000000000, 0.000000000000000000 ) ) ;
#493 = CIRCLE ( 'NONE', #825, 1.400000000000001021 ) ;
#494 = EDGE_LOOP ( 'NONE', ( #1067, #1181, #1041, #828 ) ) ;
#495 = FACE_OUTER_BOUND ( 'NONE', #320, .T. ) ;
#496 = ADVANCED_FACE ( 'NONE', ( #1129, #236, #1245, #242, #1252, #344, #136, #949, #746, #31 ), #443, .F. ) ;
#497 = ORIENTED_EDGE ( 'NONE', *, *, #750, .T. ) ;
#498 = FACE_OUTER_BOUND ( 'NONE', #263, .T. ) ;
#499 = CARTESIAN_POINT ( 'NONE',  ( 15.00000000000000000, 0.000000000000000000, -5.000000000000000000 ) ) ;
#500 = DIRECTION ( 'NONE',  ( 0.000000000000000000, 1.000000000000000000, -0.000000000000000000 ) ) ;
#501 = CARTESIAN_POINT ( 'NONE',  ( 25.00000000000000711, 10.00000000000000000, 12.49999999999999289 ) ) ;
#502 = EDGE_CURVE ( 'NONE', #1284, #851, #135, .T. ) ;
#503 = VERTEX_POINT ( 'NONE', #631 ) ;
#504 = DIRECTION ( 'NONE',  ( 0.000000000000000000, -0.000000000000000000, -1.000000000000000000 ) ) ;
#505 = AXIS2_PLACEMENT_3D ( 'NONE', #342, #1162, #253 ) ;
#506 =( NAMED_UNIT ( * ) SI_UNIT ( $, .STERADIAN. ) SOLID_ANGLE_UNIT ( ) );
#507 = DIRECTION ( 'NONE',  ( 0.000000000000000000, 1.000000000000000000, -0.000000000000000000 ) ) ;
#508 = CARTESIAN_POINT ( 'NONE',  ( -6.717514421272213099, 4.000000000000000000, -6.717514421272190006 ) ) ;
#509 = ORIENTED_EDGE ( 'NONE', *, *, #484, .T. ) ;
#510 = AXIS2_PLACEMENT_3D ( 'NONE', #227, #114, #716 ) ;
#511 = CARTESIAN_POINT ( 'NONE',  ( -6.717514421272213099, 4.000000000000000000, -6.717514421272190006 ) ) ;
#512 = DIRECTION ( 'NONE',  ( 0.000000000000000000, 0.000000000000000000, 1.000000000000000000 ) ) ;
#513 = ORIENTED_EDGE ( 'NONE', *, *, #536, .F. ) ;
#514 = CARTESIAN_POINT ( 'NONE',  ( -6.717514421272213099, 10.00000000000000000, -8.117514421272190361 ) ) ;
#515 = ORIENTED_EDGE ( 'NONE', *, *, #812, .F. ) ;
#516 = CARTESIAN_POINT ( 'NONE',  ( -6.717514421272190006, 0.000000000000000000, 5.317514421272211855 ) ) ;
#517 = FACE_OUTER_BOUND ( 'NONE', #1141, .T. ) ;
#518 = EDGE_CURVE ( 'NONE', #399, #833, #230, .T. ) ;
#519 = LINE ( 'NONE', #604, #1015 ) ;
#520 = CARTESIAN_POINT ( 'NONE',  ( 0.000000000000000000, 0.000000000000000000, 0.000000000000000000 ) ) ;
#521 = EDGE_LOOP ( 'NONE', ( #764, #201 ) ) ;
#522 = AXIS2_PLACEMENT_3D ( 'NONE', #888, #1218, #504 ) ;
#523 = DIRECTION ( 'NONE',  ( 0.000000000000000000, 0.000000000000000000, -1.000000000000000000 ) ) ;
#524 = ORIENTED_EDGE ( 'NONE', *, *, #965, .F. ) ;
#525 = DIRECTION ( 'NONE',  ( 0.000000000000000000, 0.000000000000000000, -1.000000000000000000 ) ) ;
#526 = EDGE_LOOP ( 'NONE', ( #64, #174 ) ) ;
#527 = DIRECTION ( 'NONE',  ( 0.000000000000000000, 1.000000000000000000, 0.000000000000000000 ) ) ;
#528 = PRODUCT_RELATED_PRODUCT_CATEGORY ( 'part', '', ( #32 ) ) ;
#529 = AXIS2_PLACEMENT_3D ( 'NONE', #1044, #338, #551 ) ;
#530 = CARTESIAN_POINT ( 'NONE',  ( -24.99999999999999289, 10.00000000000000000, 2.500000000000000444 ) ) ;
#531 = CIRCLE ( 'NONE', #844, 2.000000000000000000 ) ;
#532 = VERTEX_POINT ( 'NONE', #1050 ) ;
#533 = DIRECTION ( 'NONE',  ( -0.000000000000000000, 1.000000000000000000, -0.000000000000000000 ) ) ;
#534 = DIRECTION ( 'NONE',  ( -0.000000000000000000, 1.000000000000000000, -0.000000000000000000 ) ) ;
#535 = DIRECTION ( 'NONE',  ( -0.000000000000000000, 1.000000000000000000, -0.000000000000000000 ) ) ;
#536 = EDGE_CURVE ( 'NONE', #159, #23, #1004, .T. ) ;
#537 = EDGE_LOOP ( 'NONE', ( #336, #1256 ) ) ;
#538 = CARTESIAN_POINT ( 'NONE',  ( 6.717514421272213099, 4.000000000000000000, 6.717514421272190006 ) ) ;
#539 = VERTEX_POINT ( 'NONE', #549 ) ;
#540 = DIRECTION ( 'NONE',  ( 0.000000000000000000, 0.000000000000000000, 1.000000000000000000 ) ) ;
#541 = AXIS2_PLACEMENT_3D ( 'NONE', #752, #936, #1029 ) ;
#542 = EDGE_CURVE ( 'NONE', #532, #470, #982, .T. ) ;
#543 = DIRECTION ( 'NONE',  ( 0.000000000000000000, -1.000000000000000000, 0.000000000000000000 ) ) ;
#544 = CARTESIAN_POINT ( 'NONE',  ( 6.717514421272190006, 0.000000000000000000, -3.217514421272213099 ) ) ;
#545 = ORIENTED_EDGE ( 'NONE', *, *, #1164, .T. ) ;
#546 = CYLINDRICAL_SURFACE ( 'NONE', #691, 1.500000000000000444 ) ;
#547 = VERTEX_POINT ( 'NONE', #52 ) ;
#548 = ADVANCED_FACE ( 'NONE', ( #1136 ), #849, .T. ) ;
#549 = CARTESIAN_POINT ( 'NONE',  ( -6.717514421272190006, 4.000000000000000000, 10.21751442127221310 ) ) ;
#550 = VECTOR ( 'NONE', #327, 1000.000000000000000 ) ;
#551 = DIRECTION ( 'NONE',  ( 0.000000000000000000, 0.000000000000000000, 1.000000000000000000 ) ) ;
#552 = VERTEX_POINT ( 'NONE', #434 ) ;
#553 = LINE ( 'NONE', #744, #962 ) ;
#554 = ORIENTED_EDGE ( 'NONE', *, *, #829, .F. ) ;
#555 = DIRECTION ( 'NONE',  ( 0.000000000000000000, 0.000000000000000000, -1.000000000000000000 ) ) ;
#556 = EDGE_CURVE ( 'NONE', #1258, #699, #252, .T. ) ;
#557 = DIRECTION ( 'NONE',  ( -0.000000000000000000, 1.000000000000000000, -0.000000000000000000 ) ) ;
#558 = EDGE_CURVE ( 'NONE', #371, #1061, #103, .T. ) ;
#559 = VERTEX_POINT ( 'NONE', #924 ) ;
#560 = DIRECTION ( 'NONE',  ( 0.000000000000000000, -1.000000000000000000, 0.000000000000000000 ) ) ;
#561 = FACE_OUTER_BOUND ( 'NONE', #186, .T. ) ;
#562 = AXIS2_PLACEMENT_3D ( 'NONE', #511, #1103, #1117 ) ;
#563 = EDGE_LOOP ( 'NONE', ( #133, #9, #251, #108 ) ) ;
#564 = VECTOR ( 'NONE', #1048, 1000.000000000000000 ) ;
#565 = CARTESIAN_POINT ( 'NONE',  ( 0.000000000000000000, 0.000000000000000000, 2.000000000000000000 ) ) ;
#566 = ORIENTED_EDGE ( 'NONE', *, *, #149, .T. ) ;
#567 = DIRECTION ( 'NONE',  ( 0.000000000000000000, 0.000000000000000000, 1.000000000000000000 ) ) ;
#568 = CARTESIAN_POINT ( 'NONE',  ( -6.717514421272190006, 10.00000000000000000, 5.317514421272211855 ) ) ;
#569 = CIRCLE ( 'NONE', #801, 1.400000000000000133 ) ;
#570 = ORIENTED_EDGE ( 'NONE', *, *, #1036, .T. ) ;
#571 = DIRECTION ( 'NONE',  ( 0.000000000000000000, 0.000000000000000000, -1.000000000000000000 ) ) ;
#572 = EDGE_LOOP ( 'NONE', ( #1086, #199, #1065, #1132 ) ) ;
#573 = CIRCLE ( 'NONE', #1100, 1.500000000000000444 ) ;
#574 = CIRCLE ( 'NONE', #1275, 1.399999999999999245 ) ;
#575 = EDGE_CURVE ( 'NONE', #1169, #902, #24, .T. ) ;
#576 = DIRECTION ( 'NONE',  ( -0.000000000000000000, 1.000000000000000000, -0.000000000000000000 ) ) ;
#577 = LINE ( 'NONE', #275, #1210 ) ;
#578 = EDGE_LOOP ( 'NONE', ( #515, #853, #152, #1302 ) ) ;
#579 = DIRECTION ( 'NONE',  ( 0.000000000000000000, -1.000000000000000000, 0.000000000000000000 ) ) ;
#580 = ORIENTED_EDGE ( 'NONE', *, *, #1293, .T. ) ;
#581 = CYLINDRICAL_SURFACE ( 'NONE', #1069, 2.000000000000000000 ) ;
#582 = CARTESIAN_POINT ( 'NONE',  ( 15.00000000000000000, 0.000000000000000000, -6.500000000000000888 ) ) ;
#583 = EDGE_CURVE ( 'NONE', #1021, #623, #325, .T. ) ;
#584 = VERTEX_POINT ( 'NONE', #1185 ) ;
#585 = CARTESIAN_POINT ( 'NONE',  ( -6.717514421272190006, 4.000000000000000000, 10.21751442127221310 ) ) ;
#586 = CIRCLE ( 'NONE', #22, 10.00000000000000000 ) ;
#587 = VERTEX_POINT ( 'NONE', #261 ) ;
#588 = EDGE_CURVE ( 'NONE', #37, #1108, #1058, .T. ) ;
#589 = CARTESIAN_POINT ( 'NONE',  ( -6.717514421272213099, 10.00000000000000000, -5.317514421272188763 ) ) ;
#590 = FACE_OUTER_BOUND ( 'NONE', #59, .T. ) ;
#591 = ORIENTED_EDGE ( 'NONE', *, *, #518, .F. ) ;
#592 = CYLINDRICAL_SURFACE ( 'NONE', #1248, 1.400000000000001021 ) ;
#593 = AXIS2_PLACEMENT_3D ( 'NONE', #353, #1045, #647 ) ;
#594 = ORIENTED_EDGE ( 'NONE', *, *, #927, .F. ) ;
#595 = DIRECTION ( 'NONE',  ( -0.000000000000000000, 1.000000000000000000, -0.000000000000000000 ) ) ;
#596 = AXIS2_PLACEMENT_3D ( 'NONE', #76, #479, #963 ) ;
#597 = FACE_BOUND ( 'NONE', #911, .T. ) ;
#598 = EDGE_CURVE ( 'NONE', #699, #1258, #1264, .T. ) ;
#599 = ORIENTED_EDGE ( 'NONE', *, *, #1014, .T. ) ;
#600 = DIRECTION ( 'NONE',  ( -0.000000000000000000, -1.000000000000000000, -0.000000000000000000 ) ) ;
#601 = VERTEX_POINT ( 'NONE', #1281 ) ;
#602 = LINE ( 'NONE', #102, #232 ) ;
#603 = CARTESIAN_POINT ( 'NONE',  ( 6.717514421272213099, 4.000000000000000000, 10.21751442127219178 ) ) ;
#604 = CARTESIAN_POINT ( 'NONE',  ( 25.00000000000000355, 10.00000000000000000, -12.50000000000000711 ) ) ;
#605 = FACE_BOUND ( 'NONE', #929, .T. ) ;
#606 = ORIENTED_EDGE ( 'NONE', *, *, #871, .T. ) ;
#607 = CARTESIAN_POINT ( 'NONE',  ( 15.00000000000000711, 10.00000000000000000, -2.500000000000006217 ) ) ;
#608 = CIRCLE ( 'NONE', #795, 3.500000000000000888 ) ;
#609 = CYLINDRICAL_SURFACE ( 'NONE', #1017, 1.400000000000001021 ) ;
#610 = VERTEX_POINT ( 'NONE', #1177 ) ;
#611 = CYLINDRICAL_SURFACE ( 'NONE', #48, 2.000000000000000000 ) ;
#612 = ORIENTED_EDGE ( 'NONE', *, *, #671, .F. ) ;
#613 = CIRCLE ( 'NONE', #904, 1.500000000000000444 ) ;
#614 = CARTESIAN_POINT ( 'NONE',  ( 15.00000000000000711, 10.00000000000000000, 2.499999999999995115 ) ) ;
#615 = ADVANCED_FACE ( 'NONE', ( #561 ), #1068, .F. ) ;
#616 = CARTESIAN_POINT ( 'NONE',  ( 6.717514421272213099, 4.000000000000000000, 6.717514421272190006 ) ) ;
#617 = AXIS2_PLACEMENT_3D ( 'NONE', #937, #233, #747 ) ;
#618 = VECTOR ( 'NONE', #819, 1000.000000000000000 ) ;
#619 = ORIENTED_EDGE ( 'NONE', *, *, #286, .T. ) ;
#620 = FACE_BOUND ( 'NONE', #989, .T. ) ;
#621 = EDGE_LOOP ( 'NONE', ( #1098, #669, #1201, #676 ) ) ;
#622 = CARTESIAN_POINT ( 'NONE',  ( 15.00000000000000000, 0.000000000000000000, 6.500000000000000888 ) ) ;
#623 = VERTEX_POINT ( 'NONE', #280 ) ;
#624 = FACE_OUTER_BOUND ( 'NONE', #433, .T. ) ;
#625 = EDGE_LOOP ( 'NONE', ( #238, #580, #475, #996 ) ) ;
#626 = AXIS2_PLACEMENT_3D ( 'NONE', #1170, #660, #1262 ) ;
#627 = DIRECTION ( 'NONE',  ( -0.000000000000000000, 1.000000000000000000, -0.000000000000000000 ) ) ;
#628 = DIRECTION ( 'NONE',  ( -0.000000000000000000, 1.000000000000000000, -0.000000000000000000 ) ) ;
#629 = CARTESIAN_POINT ( 'NONE',  ( 6.717514421272190006, 10.00000000000000000, -5.317514421272211855 ) ) ;
#630 = VERTEX_POINT ( 'NONE', #783 ) ;
#631 = CARTESIAN_POINT ( 'NONE',  ( -6.717514421272190006, 4.000000000000000000, 5.317514421272211855 ) ) ;
#632 = ADVANCED_FACE ( 'NONE', ( #652 ), #968, .F. ) ;
#633 = CIRCLE ( 'NONE', #1251, 3.500000000000000444 ) ;
#634 = DIRECTION ( 'NONE',  ( -0.000000000000000000, 1.000000000000000000, -0.000000000000000000 ) ) ;
#635 = AXIS2_PLACEMENT_3D ( 'NONE', #889, #707, #901 ) ;
#636 = EDGE_LOOP ( 'NONE', ( #80, #41, #868, #1231 ) ) ;
#637 = FACE_OUTER_BOUND ( 'NONE', #757, .T. ) ;
#638 = EDGE_CURVE ( 'NONE', #838, #1163, #1115, .T. ) ;
#639 = DIRECTION ( 'NONE',  ( 0.000000000000000000, -0.000000000000000000, -1.000000000000000000 ) ) ;
#640 = DIRECTION ( 'NONE',  ( 0.000000000000000000, -1.000000000000000000, 0.000000000000000000 ) ) ;
#641 = EDGE_CURVE ( 'NONE', #1053, #539, #1158, .T. ) ;
#642 = ORIENTED_EDGE ( 'NONE', *, *, #340, .T. ) ;
#643 = DIRECTION ( 'NONE',  ( 0.000000000000000000, 0.000000000000000000, 1.000000000000000000 ) ) ;
#644 = DIRECTION ( 'NONE',  ( -0.000000000000000000, -1.000000000000000000, -0.000000000000000000 ) ) ;
#645 = VECTOR ( 'NONE', #986, 1000.000000000000000 ) ;
#646 = LINE ( 'NONE', #158, #1232 ) ;
#647 = DIRECTION ( 'NONE',  ( 1.000000000000000000, 0.000000000000000000, 0.000000000000000000 ) ) ;
#648 = ORIENTED_EDGE ( 'NONE', *, *, #1165, .F. ) ;
#649 = CARTESIAN_POINT ( 'NONE',  ( -15.00000000000000000, 10.00000000000000000, -5.000000000000000000 ) ) ;
#650 = EDGE_LOOP ( 'NONE', ( #878, #779 ) ) ;
#651 = EDGE_CURVE ( 'NONE', #584, #630, #1222, .T. ) ;
#652 = FACE_OUTER_BOUND ( 'NONE', #625, .T. ) ;
#653 = CYLINDRICAL_SURFACE ( 'NONE', #950, 1.500000000000000444 ) ;
#654 = ORIENTED_EDGE ( 'NONE', *, *, #502, .F. ) ;
#655 = LINE ( 'NONE', #1066, #666 ) ;
#656 = ORIENTED_EDGE ( 'NONE', *, *, #219, .T. ) ;
#657 = CARTESIAN_POINT ( 'NONE',  ( 15.00000000000000711, 0.000000000000000000, -2.500000000000006217 ) ) ;
#658 = DIRECTION ( 'NONE',  ( 0.000000000000000000, 0.000000000000000000, -1.000000000000000000 ) ) ;
#659 = ORIENTED_EDGE ( 'NONE', *, *, #307, .F. ) ;
#660 = DIRECTION ( 'NONE',  ( 0.000000000000000000, 1.000000000000000000, -0.000000000000000000 ) ) ;
#661 = PRODUCT_DEFINITION ( 'General', '', #27, #918 ) ;
#662 = CARTESIAN_POINT ( 'NONE',  ( 15.00000000000000888, 10.00000000000000000, 12.49999999999999467 ) ) ;
#663 = CARTESIAN_POINT ( 'NONE',  ( 15.00000000000000000, 10.00000000000000000, 5.000000000000000000 ) ) ;
#664 = AXIS2_PLACEMENT_3D ( 'NONE', #1159, #130, #732 ) ;
#665 = ORIENTED_EDGE ( 'NONE', *, *, #845, .F. ) ;
#666 = VECTOR ( 'NONE', #358, 1000.000000000000000 ) ;
#667 = FACE_OUTER_BOUND ( 'NONE', #87, .T. ) ;
#668 = ADVANCED_FACE ( 'NONE', ( #62 ), #1075, .F. ) ;
#669 = ORIENTED_EDGE ( 'NONE', *, *, #518, .T. ) ;
#670 = DIRECTION ( 'NONE',  ( 0.000000000000000000, 1.000000000000000000, 0.000000000000000000 ) ) ;
#671 = EDGE_CURVE ( 'NONE', #1061, #880, #360, .T. ) ;
#672 = DIRECTION ( 'NONE',  ( 1.387778780781445676E-16, 0.000000000000000000, 1.000000000000000000 ) ) ;
#673 = VECTOR ( 'NONE', #446, 1000.000000000000000 ) ;
#674 = EDGE_LOOP ( 'NONE', ( #393, #682 ) ) ;
#675 = CARTESIAN_POINT ( 'NONE',  ( 6.717514421272213099, 0.000000000000000000, 6.717514421272190006 ) ) ;
#676 = ORIENTED_EDGE ( 'NONE', *, *, #1309, .F. ) ;
#677 = VECTOR ( 'NONE', #1194, 1000.000000000000000 ) ;
#678 = STYLED_ITEM ( 'NONE', ( #1297 ), #347 ) ;
#679 = DIRECTION ( 'NONE',  ( 1.000000000000000000, 0.000000000000000000, -1.387778780781445676E-16 ) ) ;
#680 = ADVANCED_FACE ( 'NONE', ( #876 ), #854, .F. ) ;
#681 = CARTESIAN_POINT ( 'NONE',  ( 6.717514421272190006, 4.000000000000000000, -10.21751442127221310 ) ) ;
#682 = ORIENTED_EDGE ( 'NONE', *, *, #1001, .F. ) ;
#683 = DIRECTION ( 'NONE',  ( 0.000000000000000000, -1.000000000000000000, 0.000000000000000000 ) ) ;
#684 = EDGE_CURVE ( 'NONE', #833, #180, #354, .T. ) ;
#685 = ORIENTED_EDGE ( 'NONE', *, *, #408, .F. ) ;
#686 = CARTESIAN_POINT ( 'NONE',  ( -6.717514421272190006, 0.000000000000000000, 6.717514421272213099 ) ) ;
#687 = CARTESIAN_POINT ( 'NONE',  ( 6.717514421272190006, 0.000000000000000000, -10.21751442127221310 ) ) ;
#688 = VERTEX_POINT ( 'NONE', #954 ) ;
#689 = DIRECTION ( 'NONE',  ( -0.000000000000000000, 1.000000000000000000, -0.000000000000000000 ) ) ;
#690 = CIRCLE ( 'NONE', #941, 1.400000000000001021 ) ;
#691 = AXIS2_PLACEMENT_3D ( 'NONE', #43, #939, #239 ) ;
#692 = ORIENTED_EDGE ( 'NONE', *, *, #684, .F. ) ;
#693 = DIRECTION ( 'NONE',  ( 0.000000000000000000, 0.000000000000000000, -1.000000000000000000 ) ) ;
#694 = ADVANCED_FACE ( 'NONE', ( #57 ), #184, .F. ) ;
#695 = ADVANCED_FACE ( 'NONE', ( #1288 ), #581, .F. ) ;
#696 = CARTESIAN_POINT ( 'NONE',  ( -24.99999999999999645, 10.00000000000000000, -12.50000000000000000 ) ) ;
#697 = ORIENTED_EDGE ( 'NONE', *, *, #638, .T. ) ;
#698 = CARTESIAN_POINT ( 'NONE',  ( 15.00000000000000888, 10.00000000000000000, 12.49999999999999467 ) ) ;
#699 = VERTEX_POINT ( 'NONE', #776 ) ;
#700 = DIRECTION ( 'NONE',  ( 0.000000000000000000, 0.000000000000000000, -1.000000000000000000 ) ) ;
#701 = VECTOR ( 'NONE', #1259, 1000.000000000000000 ) ;
#702 = DIRECTION ( 'NONE',  ( -0.000000000000000000, 1.000000000000000000, -0.000000000000000000 ) ) ;
#703 = CYLINDRICAL_SURFACE ( 'NONE', #428, 1.500000000000000444 ) ;
#704 = DIRECTION ( 'NONE',  ( -0.000000000000000000, -1.000000000000000000, -0.000000000000000000 ) ) ;
#705 = VERTEX_POINT ( 'NONE', #82 ) ;
#706 = DIRECTION ( 'NONE',  ( -0.000000000000000000, 1.000000000000000000, -0.000000000000000000 ) ) ;
#707 = DIRECTION ( 'NONE',  ( 0.000000000000000000, 1.000000000000000000, 0.000000000000000000 ) ) ;
#708 = ORIENTED_EDGE ( 'NONE', *, *, #845, .T. ) ;
#709 = CARTESIAN_POINT ( 'NONE',  ( 25.00000000000000711, 10.00000000000000000, 12.49999999999999289 ) ) ;
#710 = ORIENTED_EDGE ( 'NONE', *, *, #821, .F. ) ;
#711 = EDGE_CURVE ( 'NONE', #1021, #1019, #146, .T. ) ;
#712 = AXIS2_PLACEMENT_3D ( 'NONE', #1063, #465, #567 ) ;
#713 = LINE ( 'NONE', #516, #124 ) ;
#714 = CARTESIAN_POINT ( 'NONE',  ( -15.00000000000000000, 0.000000000000000000, -5.000000000000000000 ) ) ;
#715 = CARTESIAN_POINT ( 'NONE',  ( 15.00000000000000000, 10.00000000000000000, 6.500000000000000888 ) ) ;
#716 = DIRECTION ( 'NONE',  ( 0.000000000000000000, -0.000000000000000000, -1.000000000000000000 ) ) ;
#717 = ORIENTED_EDGE ( 'NONE', *, *, #821, .T. ) ;
#718 = AXIS2_PLACEMENT_3D ( 'NONE', #920, #727, #100 ) ;
#719 = CARTESIAN_POINT ( 'NONE',  ( 6.717514421272190006, 0.000000000000000000, -5.317514421272211855 ) ) ;
#720 = AXIS2_PLACEMENT_3D ( 'NONE', #1153, #1240, #250 ) ;
#721 = CARTESIAN_POINT ( 'NONE',  ( 15.00000000000000888, 0.000000000000000000, 12.49999999999999467 ) ) ;
#722 = DIRECTION ( 'NONE',  ( 0.000000000000000000, 0.000000000000000000, 1.000000000000000000 ) ) ;
#723 = EDGE_LOOP ( 'NONE', ( #477, #440, #1088, #1006 ) ) ;
#724 = EDGE_CURVE ( 'NONE', #848, #610, #255, .T. ) ;
#725 = CARTESIAN_POINT ( 'NONE',  ( 0.000000000000000000, 0.000000000000000000, 2.000000000000000000 ) ) ;
#726 = CARTESIAN_POINT ( 'NONE',  ( 25.00000000000000711, 0.000000000000000000, 12.49999999999999289 ) ) ;
#727 = DIRECTION ( 'NONE',  ( 0.000000000000000000, -1.000000000000000000, 0.000000000000000000 ) ) ;
#728 = ORIENTED_EDGE ( 'NONE', *, *, #355, .T. ) ;
#729 = AXIS2_PLACEMENT_3D ( 'NONE', #383, #75, #679 ) ;
#730 = AXIS2_PLACEMENT_3D ( 'NONE', #760, #147, #643 ) ;
#731 = ADVANCED_FACE ( 'NONE', ( #790 ), #4, .T. ) ;
#732 = DIRECTION ( 'NONE',  ( 0.000000000000000000, 0.000000000000000000, 1.000000000000000000 ) ) ;
#733 = FACE_OUTER_BOUND ( 'NONE', #1308, .T. ) ;
#734 = ORIENTED_EDGE ( 'NONE', *, *, #1124, .F. ) ;
#735 = DIRECTION ( 'NONE',  ( -0.000000000000000000, -1.000000000000000000, -0.000000000000000000 ) ) ;
#736 = ORIENTED_EDGE ( 'NONE', *, *, #927, .T. ) ;
#737 = APPLICATION_CONTEXT ( 'automotive_design' ) ;
#738 = VECTOR ( 'NONE', #1127, 1000.000000000000000 ) ;
#739 = CARTESIAN_POINT ( 'NONE',  ( 15.00000000000000000, 0.000000000000000000, -3.499999999999999112 ) ) ;
#740 = VECTOR ( 'NONE', #1146, 1000.000000000000000 ) ;
#741 = CARTESIAN_POINT ( 'NONE',  ( 6.717514421272190006, 0.000000000000000000, -6.717514421272213099 ) ) ;
#742 = CIRCLE ( 'NONE', #1102, 1.500000000000000444 ) ;
#743 = ORIENTED_EDGE ( 'NONE', *, *, #1109, .F. ) ;
#744 = CARTESIAN_POINT ( 'NONE',  ( -6.717514421272213099, 4.000000000000000000, -3.217514421272189562 ) ) ;
#745 = ORIENTED_EDGE ( 'NONE', *, *, #943, .T. ) ;
#746 = FACE_BOUND ( 'NONE', #674, .T. ) ;
#747 = DIRECTION ( 'NONE',  ( 1.387778780781445676E-16, 0.000000000000000000, 1.000000000000000000 ) ) ;
#748 = ORIENTED_EDGE ( 'NONE', *, *, #1287, .F. ) ;
#749 = CARTESIAN_POINT ( 'NONE',  ( -14.99999999999999645, 0.000000000000000000, -12.50000000000000178 ) ) ;
#750 = EDGE_CURVE ( 'NONE', #864, #423, #1049, .T. ) ;
#751 = EDGE_LOOP ( 'NONE', ( #359, #166 ) ) ;
#752 = CARTESIAN_POINT ( 'NONE',  ( -15.00000000000000000, 10.00000000000000000, 2.499999999999999112 ) ) ;
#753 = AXIS2_PLACEMENT_3D ( 'NONE', #457, #1267, #555 ) ;
#754 = CARTESIAN_POINT ( 'NONE',  ( 15.00000000000000000, 0.000000000000000000, -5.000000000000000000 ) ) ;
#755 = ORIENTED_EDGE ( 'NONE', *, *, #110, .F. ) ;
#756 = CARTESIAN_POINT ( 'NONE',  ( -15.00000000000000000, 10.00000000000000000, 12.49999999999999822 ) ) ;
#757 = EDGE_LOOP ( 'NONE', ( #1150, #846, #245, #341 ) ) ;
#758 = DIRECTION ( 'NONE',  ( 0.000000000000000000, -1.000000000000000000, 0.000000000000000000 ) ) ;
#759 = VERTEX_POINT ( 'NONE', #410 ) ;
#760 = CARTESIAN_POINT ( 'NONE',  ( -15.00000000000000000, 0.000000000000000000, -5.000000000000000000 ) ) ;
#761 = EDGE_CURVE ( 'NONE', #268, #481, #292, .T. ) ;
#762 = CARTESIAN_POINT ( 'NONE',  ( 6.717514421272190006, 10.00000000000000000, -6.717514421272213099 ) ) ;
#763 = DIRECTION ( 'NONE',  ( 0.000000000000000000, 0.000000000000000000, 1.000000000000000000 ) ) ;
#764 = ORIENTED_EDGE ( 'NONE', *, *, #1236, .F. ) ;
#765 = FACE_OUTER_BOUND ( 'NONE', #388, .T. ) ;
#766 = VERTEX_POINT ( 'NONE', #312 ) ;
#767 = EDGE_CURVE ( 'NONE', #1094, #935, #190, .T. ) ;
#768 = DIRECTION ( 'NONE',  ( 0.000000000000000000, -1.000000000000000000, 0.000000000000000000 ) ) ;
#769 = CARTESIAN_POINT ( 'NONE',  ( -6.717514421272213099, 0.000000000000000000, -3.217514421272189562 ) ) ;
#770 = AXIS2_PLACEMENT_3D ( 'NONE', #974, #768, #67 ) ;
#771 = ORIENTED_EDGE ( 'NONE', *, *, #994, .F. ) ;
#772 = CIRCLE ( 'NONE', #167, 3.500000000000000444 ) ;
#773 = CARTESIAN_POINT ( 'NONE',  ( 15.00000000000000000, 0.000000000000000000, -5.000000000000000000 ) ) ;
#774 = ADVANCED_FACE ( 'NONE', ( #498, #908 ), #97, .T. ) ;
#775 = ORIENTED_EDGE ( 'NONE', *, *, #229, .F. ) ;
#776 = CARTESIAN_POINT ( 'NONE',  ( 6.717514421272190006, 10.00000000000000000, -8.117514421272213454 ) ) ;
#777 = CARTESIAN_POINT ( 'NONE',  ( 15.00000000000000711, 10.00000000000000000, -2.500000000000006217 ) ) ;
#778 = EDGE_CURVE ( 'NONE', #559, #283, #690, .T. ) ;
#779 = ORIENTED_EDGE ( 'NONE', *, *, #761, .F. ) ;
#780 = DIRECTION ( 'NONE',  ( -0.000000000000000000, -1.000000000000000000, -0.000000000000000000 ) ) ;
#781 = EDGE_LOOP ( 'NONE', ( #898, #973 ) ) ;
#782 = VECTOR ( 'NONE', #640, 1000.000000000000000 ) ;
#783 = CARTESIAN_POINT ( 'NONE',  ( 25.00000000000000355, 0.000000000000000000, -2.500000000000007550 ) ) ;
#784 = DIRECTION ( 'NONE',  ( 0.000000000000000000, -1.000000000000000000, 0.000000000000000000 ) ) ;
#785 = EDGE_LOOP ( 'NONE', ( #348, #874, #606, #71 ) ) ;
#786 = CARTESIAN_POINT ( 'NONE',  ( -15.00000000000000000, 0.000000000000000000, 2.499999999999999112 ) ) ;
#787 = EDGE_CURVE ( 'NONE', #141, #1031, #586, .T. ) ;
#788 = ORIENTED_EDGE ( 'NONE', *, *, #324, .F. ) ;
#789 = EDGE_CURVE ( 'NONE', #759, #206, #923, .T. ) ;
#790 = FACE_OUTER_BOUND ( 'NONE', #723, .T. ) ;
#791 = PLANE ( 'NONE',  #10 ) ;
#792 = ORIENTED_EDGE ( 'NONE', *, *, #311, .F. ) ;
#793 = DIRECTION ( 'NONE',  ( 0.000000000000000000, 0.000000000000000000, -1.000000000000000000 ) ) ;
#794 = AXIS2_PLACEMENT_3D ( 'NONE', #189, #216, #700 ) ;
#795 = AXIS2_PLACEMENT_3D ( 'NONE', #1193, #1303, #389 ) ;
#796 = EDGE_LOOP ( 'NONE', ( #524, #1128, #599, #171 ) ) ;
#797 = DIRECTION ( 'NONE',  ( 0.000000000000000000, 0.000000000000000000, 1.000000000000000000 ) ) ;
#798 = DIRECTION ( 'NONE',  ( 0.000000000000000000, -1.000000000000000000, 0.000000000000000000 ) ) ;
#799 = LINE ( 'NONE', #1208, #782 ) ;
#800 = CARTESIAN_POINT ( 'NONE',  ( -6.717514421272190006, 4.000000000000000000, 3.217514421272213099 ) ) ;
#801 = AXIS2_PLACEMENT_3D ( 'NONE', #508, #809, #525 ) ;
#802 = EDGE_LOOP ( 'NONE', ( #376, #228, #96, #998 ) ) ;
#803 = CIRCLE ( 'NONE', #343, 1.500000000000000444 ) ;
#804 = DIRECTION ( 'NONE',  ( -1.000000000000000000, 0.000000000000000000, 1.387778780781445676E-16 ) ) ;
#805 = AXIS2_PLACEMENT_3D ( 'NONE', #696, #19, #1096 ) ;
#806 = FACE_BOUND ( 'NONE', #1247, .T. ) ;
#807 = EDGE_CURVE ( 'NONE', #532, #851, #208, .T. ) ;
#808 = ORIENTED_EDGE ( 'NONE', *, *, #1042, .T. ) ;
#809 = DIRECTION ( 'NONE',  ( -0.000000000000000000, 1.000000000000000000, -0.000000000000000000 ) ) ;
#810 = ORIENTED_EDGE ( 'NONE', *, *, #400, .T. ) ;
#811 = DIRECTION ( 'NONE',  ( 0.000000000000000000, -1.000000000000000000, 0.000000000000000000 ) ) ;
#812 = EDGE_CURVE ( 'NONE', #503, #268, #713, .T. ) ;
#813 = DIRECTION ( 'NONE',  ( 0.000000000000000000, 0.000000000000000000, 1.000000000000000000 ) ) ;
#814 = ORIENTED_EDGE ( 'NONE', *, *, #1014, .F. ) ;
#815 = CYLINDRICAL_SURFACE ( 'NONE', #1076, 1.400000000000001021 ) ;
#816 = ORIENTED_EDGE ( 'NONE', *, *, #711, .F. ) ;
#817 = EDGE_CURVE ( 'NONE', #584, #935, #993, .T. ) ;
#818 = DIRECTION ( 'NONE',  ( 0.000000000000000000, 1.000000000000000000, 0.000000000000000000 ) ) ;
#819 = DIRECTION ( 'NONE',  ( -0.000000000000000000, 1.000000000000000000, -0.000000000000000000 ) ) ;
#820 = ORIENTED_EDGE ( 'NONE', *, *, #1042, .F. ) ;
#821 = EDGE_CURVE ( 'NONE', #957, #601, #1199, .T. ) ;
#822 = FACE_OUTER_BOUND ( 'NONE', #116, .T. ) ;
#823 = ORIENTED_EDGE ( 'NONE', *, *, #724, .T. ) ;
#824 = CARTESIAN_POINT ( 'NONE',  ( 6.717514421272213099, 10.00000000000000000, 6.717514421272190006 ) ) ;
#825 = AXIS2_PLACEMENT_3D ( 'NONE', #1180, #192, #378 ) ;
#826 = CARTESIAN_POINT ( 'NONE',  ( 15.00000000000000000, 0.000000000000000000, -5.000000000000000000 ) ) ;
#827 = CYLINDRICAL_SURFACE ( 'NONE', #89, 1.500000000000000444 ) ;
#828 = ORIENTED_EDGE ( 'NONE', *, *, #149, .F. ) ;
#829 = EDGE_CURVE ( 'NONE', #1108, #1169, #1311, .T. ) ;
#830 = DIRECTION ( 'NONE',  ( -0.000000000000000000, 1.000000000000000000, -0.000000000000000000 ) ) ;
#831 = DIRECTION ( 'NONE',  ( 0.000000000000000000, 0.000000000000000000, 1.000000000000000000 ) ) ;
#832 = DIRECTION ( 'NONE',  ( 0.000000000000000000, -1.000000000000000000, 0.000000000000000000 ) ) ;
#833 = VERTEX_POINT ( 'NONE', #202 ) ;
#834 = AXIS2_PLACEMENT_3D ( 'NONE', #329, #836, #523 ) ;
#835 = VECTOR ( 'NONE', #95, 1000.000000000000000 ) ;
#836 = DIRECTION ( 'NONE',  ( 0.000000000000000000, -1.000000000000000000, 0.000000000000000000 ) ) ;
#837 = CARTESIAN_POINT ( 'NONE',  ( -24.99999999999999289, 10.00000000000000000, 2.500000000000000444 ) ) ;
#838 = VERTEX_POINT ( 'NONE', #589 ) ;
#839 = DIRECTION ( 'NONE',  ( 0.000000000000000000, -1.000000000000000000, 0.000000000000000000 ) ) ;
#840 = CARTESIAN_POINT ( 'NONE',  ( 6.717514421272213099, 4.000000000000000000, 8.117514421272190361 ) ) ;
#841 = VECTOR ( 'NONE', #1160, 1000.000000000000000 ) ;
#842 = CARTESIAN_POINT ( 'NONE',  ( -15.00000000000000000, 0.000000000000000000, 5.000000000000000000 ) ) ;
#843 =( NAMED_UNIT ( * ) PLANE_ANGLE_UNIT ( ) SI_UNIT ( $, .RADIAN. ) );
#844 = AXIS2_PLACEMENT_3D ( 'NONE', #882, #112, #512 ) ;
#845 = EDGE_CURVE ( 'NONE', #1019, #705, #602, .T. ) ;
#846 = ORIENTED_EDGE ( 'NONE', *, *, #224, .T. ) ;
#847 = LINE ( 'NONE', #756, #1005 ) ;
#848 = VERTEX_POINT ( 'NONE', #1007 ) ;
#849 = CYLINDRICAL_SURFACE ( 'NONE', #541, 10.00000000000000000 ) ;
#850 = LINE ( 'NONE', #431, #992 ) ;
#851 = VERTEX_POINT ( 'NONE', #109 ) ;
#852 = DIRECTION ( 'NONE',  ( 0.000000000000000000, 0.000000000000000000, 1.000000000000000000 ) ) ;
#853 = ORIENTED_EDGE ( 'NONE', *, *, #900, .F. ) ;
#854 = CYLINDRICAL_SURFACE ( 'NONE', #712, 1.500000000000000444 ) ;
#855 = AXIS2_PLACEMENT_3D ( 'NONE', #65, #818, #1225 ) ;
#856 = ADVANCED_FACE ( 'NONE', ( #1310 ), #1213, .T. ) ;
#857 = DIRECTION ( 'NONE',  ( -0.000000000000000000, 1.000000000000000000, -0.000000000000000000 ) ) ;
#858 = ORIENTED_EDGE ( 'NONE', *, *, #1154, .T. ) ;
#859 = CARTESIAN_POINT ( 'NONE',  ( 25.00000000000000711, 0.000000000000000000, 2.499999999999993339 ) ) ;
#860 = EDGE_LOOP ( 'NONE', ( #1024, #1092, #1280, #814 ) ) ;
#861 = CARTESIAN_POINT ( 'NONE',  ( 6.717514421272213099, 0.000000000000000000, 6.717514421272190006 ) ) ;
#862 = VECTOR ( 'NONE', #704, 1000.000000000000000 ) ;
#863 = DIRECTION ( 'NONE',  ( 0.000000000000000000, 0.000000000000000000, -1.000000000000000000 ) ) ;
#864 = VERTEX_POINT ( 'NONE', #416 ) ;
#865 = LINE ( 'NONE', #1182, #1121 ) ;
#866 = AXIS2_PLACEMENT_3D ( 'NONE', #824, #527, #540 ) ;
#867 = EDGE_CURVE ( 'NONE', #399, #303, #608, .T. ) ;
#868 = ORIENTED_EDGE ( 'NONE', *, *, #671, .T. ) ;
#869 = DIRECTION ( 'NONE',  ( 0.000000000000000000, 0.000000000000000000, 1.000000000000000000 ) ) ;
#870 = DIRECTION ( 'NONE',  ( 0.000000000000000000, 0.000000000000000000, 1.000000000000000000 ) ) ;
#871 = EDGE_CURVE ( 'NONE', #468, #552, #462, .T. ) ;
#872 = EDGE_LOOP ( 'NONE', ( #350, #1013, #1228, #155 ) ) ;
#873 = CARTESIAN_POINT ( 'NONE',  ( -6.717514421272213099, 0.000000000000000000, -6.717514421272190006 ) ) ;
#874 = ORIENTED_EDGE ( 'NONE', *, *, #461, .F. ) ;
#875 = ADVANCED_FACE ( 'NONE', ( #160 ), #56, .T. ) ;
#876 = FACE_OUTER_BOUND ( 'NONE', #572, .T. ) ;
#877 = FILL_AREA_STYLE_COLOUR ( '', #30 ) ;
#878 = ORIENTED_EDGE ( 'NONE', *, *, #247, .F. ) ;
#879 = DIRECTION ( 'NONE',  ( 0.000000000000000000, 0.000000000000000000, -1.000000000000000000 ) ) ;
#880 = VERTEX_POINT ( 'NONE', #60 ) ;
#881 = DIRECTION ( 'NONE',  ( 0.000000000000000000, 1.000000000000000000, 0.000000000000000000 ) ) ;
#882 = CARTESIAN_POINT ( 'NONE',  ( 0.000000000000000000, 10.00000000000000000, 0.000000000000000000 ) ) ;
#883 = EDGE_CURVE ( 'NONE', #1031, #1101, #847, .T. ) ;
#884 = EDGE_LOOP ( 'NONE', ( #985, #1286 ) ) ;
#885 = CARTESIAN_POINT ( 'NONE',  ( 25.00000000000000355, 10.00000000000000000, -2.500000000000007550 ) ) ;
#886 = ORIENTED_EDGE ( 'NONE', *, *, #641, .T. ) ;
#887 = VECTOR ( 'NONE', #919, 1000.000000000000000 ) ;
#888 = CARTESIAN_POINT ( 'NONE',  ( -6.717514421272213099, 4.000000000000000000, -6.717514421272190006 ) ) ;
#889 = CARTESIAN_POINT ( 'NONE',  ( 0.000000000000000000, 0.000000000000000000, 0.000000000000000000 ) ) ;
#890 = EDGE_LOOP ( 'NONE', ( #983, #509, #905, #1197 ) ) ;
#891 = DIRECTION ( 'NONE',  ( 0.000000000000000000, 0.000000000000000000, 1.000000000000000000 ) ) ;
#892 = ORIENTED_EDGE ( 'NONE', *, *, #556, .T. ) ;
#893 = CARTESIAN_POINT ( 'NONE',  ( 25.00000000000000355, 0.000000000000000000, -12.50000000000000711 ) ) ;
#894 = FACE_BOUND ( 'NONE', #751, .T. ) ;
#895 = DIRECTION ( 'NONE',  ( 0.000000000000000000, 0.000000000000000000, -1.000000000000000000 ) ) ;
#896 = CARTESIAN_POINT ( 'NONE',  ( -15.00000000000000000, 0.000000000000000000, 5.000000000000000000 ) ) ;
#897 = AXIS2_PLACEMENT_3D ( 'NONE', #1273, #473, #869 ) ;
#898 = ORIENTED_EDGE ( 'NONE', *, *, #442, .T. ) ;
#899 = DIRECTION ( 'NONE',  ( -0.000000000000000000, 1.000000000000000000, -0.000000000000000000 ) ) ;
#900 = EDGE_CURVE ( 'NONE', #491, #503, #1313, .T. ) ;
#901 = DIRECTION ( 'NONE',  ( 0.000000000000000000, 0.000000000000000000, 1.000000000000000000 ) ) ;
#902 = VERTEX_POINT ( 'NONE', #859 ) ;
#903 = CARTESIAN_POINT ( 'NONE',  ( 6.717514421272190006, 4.000000000000000000, -6.717514421272213099 ) ) ;
#904 = AXIS2_PLACEMENT_3D ( 'NONE', #26, #1221, #427 ) ;
#905 = ORIENTED_EDGE ( 'NONE', *, *, #1165, .T. ) ;
#906 = EDGE_CURVE ( 'NONE', #371, #254, #553, .T. ) ;
#907 = AXIS2_PLACEMENT_3D ( 'NONE', #288, #1071, #361 ) ;
#908 = FACE_BOUND ( 'NONE', #959, .T. ) ;
#909 = AXIS2_PLACEMENT_3D ( 'NONE', #248, #1152, #639 ) ;
#910 = LINE ( 'NONE', #719, #366 ) ;
#911 = EDGE_LOOP ( 'NONE', ( #976, #128 ) ) ;
#912 = FACE_OUTER_BOUND ( 'NONE', #578, .T. ) ;
#913 = ADVANCED_FACE ( 'NONE', ( #966 ), #441, .F. ) ;
#914 = ORIENTED_EDGE ( 'NONE', *, *, #1023, .F. ) ;
#915 = DIRECTION ( 'NONE',  ( 0.000000000000000000, 0.000000000000000000, -1.000000000000000000 ) ) ;
#916 = EDGE_CURVE ( 'NONE', #547, #587, #439, .T. ) ;
#917 = DIRECTION ( 'NONE',  ( 0.000000000000000000, 1.000000000000000000, -0.000000000000000000 ) ) ;
#918 = PRODUCT_DEFINITION_CONTEXT ( 'detailed design', #737, 'design' ) ;
#919 = DIRECTION ( 'NONE',  ( -0.000000000000000000, -1.000000000000000000, -0.000000000000000000 ) ) ;
#920 = CARTESIAN_POINT ( 'NONE',  ( 6.717514421272190006, 4.000000000000000000, -6.717514421272213099 ) ) ;
#921 = ORIENTED_EDGE ( 'NONE', *, *, #778, .T. ) ;
#922 = AXIS2_PLACEMENT_3D ( 'NONE', #861, #758, #1083 ) ;
#923 = CIRCLE ( 'NONE', #357, 1.500000000000000444 ) ;
#924 = CARTESIAN_POINT ( 'NONE',  ( 6.717514421272190006, 4.000000000000000000, -8.117514421272213454 ) ) ;
#925 = VERTEX_POINT ( 'NONE', #349 ) ;
#926 = DIRECTION ( 'NONE',  ( 0.000000000000000000, 0.000000000000000000, -1.000000000000000000 ) ) ;
#927 = EDGE_CURVE ( 'NONE', #1074, #305, #1266, .T. ) ;
#928 = EDGE_CURVE ( 'NONE', #1061, #371, #273, .T. ) ;
#929 = EDGE_LOOP ( 'NONE', ( #1189, #429 ) ) ;
#930 = AXIS2_PLACEMENT_3D ( 'NONE', #773, #297, #483 ) ;
#931 = CIRCLE ( 'NONE', #364, 1.500000000000000444 ) ;
#932 = LINE ( 'NONE', #622, #178 ) ;
#933 =( GEOMETRIC_REPRESENTATION_CONTEXT ( 3 ) GLOBAL_UNCERTAINTY_ASSIGNED_CONTEXT ( ( #1227 ) ) GLOBAL_UNIT_ASSIGNED_CONTEXT ( ( #458, #163, #506 ) ) REPRESENTATION_CONTEXT ( 'NONE', 'WORKASPACE' ) );
#934 = DIRECTION ( 'NONE',  ( 0.000000000000000000, 1.000000000000000000, 0.000000000000000000 ) ) ;
#935 = VERTEX_POINT ( 'NONE', #749 ) ;
#936 = DIRECTION ( 'NONE',  ( 0.000000000000000000, -1.000000000000000000, 0.000000000000000000 ) ) ;
#937 = CARTESIAN_POINT ( 'NONE',  ( 25.00000000000000355, 10.00000000000000000, -12.50000000000000711 ) ) ;
#938 = EDGE_LOOP ( 'NONE', ( #991, #298, #1269, #808, #771, #409, #1195, #139 ) ) ;
#939 = DIRECTION ( 'NONE',  ( -0.000000000000000000, 1.000000000000000000, -0.000000000000000000 ) ) ;
#940 = ORIENTED_EDGE ( 'NONE', *, *, #906, .T. ) ;
#941 = AXIS2_PLACEMENT_3D ( 'NONE', #394, #306, #1204 ) ;
#942 = DIRECTION ( 'NONE',  ( 0.000000000000000000, 0.000000000000000000, -1.000000000000000000 ) ) ;
#943 = EDGE_CURVE ( 'NONE', #1300, #322, #772, .T. ) ;
#944 = LINE ( 'NONE', #837, #841 ) ;
#945 =( LENGTH_UNIT ( ) NAMED_UNIT ( * ) SI_UNIT ( .MILLI., .METRE. ) );
#946 = ORIENTED_EDGE ( 'NONE', *, *, #365, .F. ) ;
#947 = CARTESIAN_POINT ( 'NONE',  ( 15.00000000000000000, 0.000000000000000000, -3.499999999999999556 ) ) ;
#948 = VECTOR ( 'NONE', #375, 1000.000000000000000 ) ;
#949 = FACE_BOUND ( 'NONE', #161, .T. ) ;
#950 = AXIS2_PLACEMENT_3D ( 'NONE', #754, #437, #831 ) ;
#951 = CARTESIAN_POINT ( 'NONE',  ( 15.00000000000000000, 0.000000000000000000, 3.499999999999999112 ) ) ;
#952 = ORIENTED_EDGE ( 'NONE', *, *, #778, .F. ) ;
#953 = LINE ( 'NONE', #259, #1243 ) ;
#954 = CARTESIAN_POINT ( 'NONE',  ( 15.00000000000000000, 0.000000000000000000, 6.500000000000000888 ) ) ;
#955 = CARTESIAN_POINT ( 'NONE',  ( 15.00000000000000000, 10.00000000000000000, -6.500000000000000888 ) ) ;
#956 =( NAMED_UNIT ( * ) SI_UNIT ( $, .STERADIAN. ) SOLID_ANGLE_UNIT ( ) );
#957 = VERTEX_POINT ( 'NONE', #1156 ) ;
#958 = DIRECTION ( 'NONE',  ( 0.000000000000000000, 0.000000000000000000, -1.000000000000000000 ) ) ;
#959 = EDGE_LOOP ( 'NONE', ( #717, #858 ) ) ;
#960 = DIRECTION ( 'NONE',  ( 0.000000000000000000, 0.000000000000000000, -1.000000000000000000 ) ) ;
#961 = AXIS2_PLACEMENT_3D ( 'NONE', #1238, #830, #337 ) ;
#962 = VECTOR ( 'NONE', #140, 1000.000000000000000 ) ;
#963 = DIRECTION ( 'NONE',  ( 0.000000000000000000, 0.000000000000000000, 1.000000000000000000 ) ) ;
#964 = ORIENTED_EDGE ( 'NONE', *, *, #943, .F. ) ;
#965 = EDGE_CURVE ( 'NONE', #547, #1291, #1140, .T. ) ;
#966 = FACE_OUTER_BOUND ( 'NONE', #1176, .T. ) ;
#967 = EDGE_LOOP ( 'NONE', ( #952, #1215, #47, #289 ) ) ;
#968 = PLANE ( 'NONE',  #729 ) ;
#969 = CARTESIAN_POINT ( 'NONE',  ( 6.717514421272190006, 4.000000000000000000, -10.21751442127221310 ) ) ;
#970 = VECTOR ( 'NONE', #534, 1000.000000000000000 ) ;
#971 = ORIENTED_EDGE ( 'NONE', *, *, #883, .F. ) ;
#972 = DIRECTION ( 'NONE',  ( -0.000000000000000000, 1.000000000000000000, -0.000000000000000000 ) ) ;
#973 = ORIENTED_EDGE ( 'NONE', *, *, #916, .T. ) ;
#974 = CARTESIAN_POINT ( 'NONE',  ( -6.717514421272190006, 4.000000000000000000, 6.717514421272213099 ) ) ;
#975 = CARTESIAN_POINT ( 'NONE',  ( 15.00000000000000711, 0.000000000000000000, 2.499999999999995115 ) ) ;
#976 = ORIENTED_EDGE ( 'NONE', *, *, #13, .F. ) ;
#977 = CARTESIAN_POINT ( 'NONE',  ( -14.99999999999999645, 10.00000000000000000, -2.500000000000002220 ) ) ;
#978 = EDGE_LOOP ( 'NONE', ( #1265, #1277 ) ) ;
#979 = DIRECTION ( 'NONE',  ( 0.000000000000000000, 0.000000000000000000, 1.000000000000000000 ) ) ;
#980 = ADVANCED_FACE ( 'NONE', ( #637 ), #546, .F. ) ;
#981 = DIRECTION ( 'NONE',  ( 0.000000000000000000, 0.000000000000000000, 1.000000000000000000 ) ) ;
#982 = CIRCLE ( 'NONE', #961, 1.399999999999999245 ) ;
#983 = ORIENTED_EDGE ( 'NONE', *, *, #789, .F. ) ;
#984 = DIRECTION ( 'NONE',  ( 0.000000000000000000, -1.000000000000000000, 0.000000000000000000 ) ) ;
#985 = ORIENTED_EDGE ( 'NONE', *, *, #1307, .T. ) ;
#986 = DIRECTION ( 'NONE',  ( -1.000000000000000000, 0.000000000000000000, 1.387778780781445676E-16 ) ) ;
#987 = PLANE ( 'NONE',  #805 ) ;
#988 = AXIS2_PLACEMENT_3D ( 'NONE', #977, #689, #793 ) ;
#989 = EDGE_LOOP ( 'NONE', ( #545, #921 ) ) ;
#990 = FACE_OUTER_BOUND ( 'NONE', #386, .T. ) ;
#991 = ORIENTED_EDGE ( 'NONE', *, *, #1279, .F. ) ;
#992 = VECTOR ( 'NONE', #543, 1000.000000000000000 ) ;
#993 = LINE ( 'NONE', #893, #1027 ) ;
#994 = EDGE_CURVE ( 'NONE', #1094, #296, #953, .T. ) ;
#995 = DIRECTION ( 'NONE',  ( 0.000000000000000000, -0.000000000000000000, -1.000000000000000000 ) ) ;
#996 = ORIENTED_EDGE ( 'NONE', *, *, #77, .T. ) ;
#997 = DIRECTION ( 'NONE',  ( 0.000000000000000000, 0.000000000000000000, -1.000000000000000000 ) ) ;
#998 = ORIENTED_EDGE ( 'NONE', *, *, #1036, .F. ) ;
#999 = DIRECTION ( 'NONE',  ( 0.000000000000000000, 1.000000000000000000, 0.000000000000000000 ) ) ;
#1000 = CARTESIAN_POINT ( 'NONE',  ( -6.717514421272190006, 0.000000000000000000, 10.21751442127221310 ) ) ;
#1001 = EDGE_CURVE ( 'NONE', #1291, #486, #333, .T. ) ;
#1002 = EDGE_LOOP ( 'NONE', ( #1161, #1072 ) ) ;
#1003 = LINE ( 'NONE', #244, #153 ) ;
#1004 = CIRCLE ( 'NONE', #1133, 1.500000000000000444 ) ;
#1005 = VECTOR ( 'NONE', #1062, 1000.000000000000000 ) ;
#1006 = ORIENTED_EDGE ( 'NONE', *, *, #77, .F. ) ;
#1007 = CARTESIAN_POINT ( 'NONE',  ( 15.00000000000000533, 10.00000000000000000, -12.50000000000000533 ) ) ;
#1008 = CARTESIAN_POINT ( 'NONE',  ( 6.717514421272190006, 0.000000000000000000, -6.717514421272213099 ) ) ;
#1009 = EDGE_CURVE ( 'NONE', #226, #552, #127, .T. ) ;
#1010 = ORIENTED_EDGE ( 'NONE', *, *, #323, .F. ) ;
#1011 = DIRECTION ( 'NONE',  ( -0.000000000000000000, 1.000000000000000000, -0.000000000000000000 ) ) ;
#1012 = VECTOR ( 'NONE', #1079, 1000.000000000000000 ) ;
#1013 = ORIENTED_EDGE ( 'NONE', *, *, #575, .T. ) ;
#1014 = EDGE_CURVE ( 'NONE', #587, #486, #655, .T. ) ;
#1015 = VECTOR ( 'NONE', #106, 1000.000000000000000 ) ;
#1016 = DIRECTION ( 'NONE',  ( 0.000000000000000000, -1.000000000000000000, 0.000000000000000000 ) ) ;
#1017 = AXIS2_PLACEMENT_3D ( 'NONE', #1008, #12, #813 ) ;
#1018 = DIRECTION ( 'NONE',  ( 0.000000000000000000, 0.000000000000000000, 1.000000000000000000 ) ) ;
#1019 = VERTEX_POINT ( 'NONE', #165 ) ;
#1020 = CARTESIAN_POINT ( 'NONE',  ( 6.717514421272190006, 4.000000000000000000, -6.717514421272213099 ) ) ;
#1021 = VERTEX_POINT ( 'NONE', #565 ) ;
#1022 = CARTESIAN_POINT ( 'NONE',  ( -6.717514421272190006, 10.00000000000000000, 8.117514421272213454 ) ) ;
#1023 = EDGE_CURVE ( 'NONE', #705, #623, #105, .T. ) ;
#1024 = ORIENTED_EDGE ( 'NONE', *, *, #916, .F. ) ;
#1025 = DIRECTION ( 'NONE',  ( 0.000000000000000000, 0.000000000000000000, 1.000000000000000000 ) ) ;
#1026 = EDGE_LOOP ( 'NONE', ( #459, #215, #820, #971 ) ) ;
#1027 = VECTOR ( 'NONE', #804, 1000.000000000000000 ) ;
#1028 = AXIS2_PLACEMENT_3D ( 'NONE', #786, #984, #879 ) ;
#1029 = DIRECTION ( 'NONE',  ( 0.000000000000000000, 0.000000000000000000, -1.000000000000000000 ) ) ;
#1030 = LINE ( 'NONE', #1255, #1188 ) ;
#1031 = VERTEX_POINT ( 'NONE', #380 ) ;
#1032 = CIRCLE ( 'NONE', #1139, 3.500000000000000000 ) ;
#1033 = AXIS2_PLACEMENT_3D ( 'NONE', #267, #262, #981 ) ;
#1034 = CARTESIAN_POINT ( 'NONE',  ( 6.717514421272213099, 4.000000000000000000, 6.717514421272190006 ) ) ;
#1035 = VECTOR ( 'NONE', #644, 1000.000000000000000 ) ;
#1036 = EDGE_CURVE ( 'NONE', #957, #838, #1087, .T. ) ;
#1037 = DIRECTION ( 'NONE',  ( 0.000000000000000000, 0.000000000000000000, 1.000000000000000000 ) ) ;
#1038 = CARTESIAN_POINT ( 'NONE',  ( -6.717514421272213099, 4.000000000000000000, -6.717514421272190006 ) ) ;
#1039 = EDGE_LOOP ( 'NONE', ( #55, #964 ) ) ;
#1040 = DIRECTION ( 'NONE',  ( 0.000000000000000000, 0.000000000000000000, -1.000000000000000000 ) ) ;
#1041 = ORIENTED_EDGE ( 'NONE', *, *, #767, .F. ) ;
#1042 = EDGE_CURVE ( 'NONE', #1101, #296, #294, .T. ) ;
#1043 = CARTESIAN_POINT ( 'NONE',  ( -15.00000000000000000, 0.000000000000000000, 3.499999999999999556 ) ) ;
#1044 = CARTESIAN_POINT ( 'NONE',  ( -6.717514421272213099, 0.000000000000000000, -6.717514421272190006 ) ) ;
#1045 = DIRECTION ( 'NONE',  ( 0.000000000000000000, 0.000000000000000000, 1.000000000000000000 ) ) ;
#1046 = ADVANCED_FACE ( 'NONE', ( #990 ), #469, .F. ) ;
#1047 = ORIENTED_EDGE ( 'NONE', *, *, #807, .T. ) ;
#1048 = DIRECTION ( 'NONE',  ( -0.000000000000000000, 1.000000000000000000, -0.000000000000000000 ) ) ;
#1049 = CIRCLE ( 'NONE', #417, 3.500000000000000000 ) ;
#1050 = CARTESIAN_POINT ( 'NONE',  ( 6.717514421272213099, 4.000000000000000000, 5.317514421272190539 ) ) ;
#1051 = ADVANCED_FACE ( 'NONE', ( #765 ), #187, .F. ) ;
#1052 = CARTESIAN_POINT ( 'NONE',  ( 6.717514421272213099, 0.000000000000000000, 8.117514421272190361 ) ) ;
#1053 = VERTEX_POINT ( 'NONE', #1202 ) ;
#1054 = DIRECTION ( 'NONE',  ( 0.000000000000000000, -1.000000000000000000, 0.000000000000000000 ) ) ;
#1055 = ORIENTED_EDGE ( 'NONE', *, *, #307, .T. ) ;
#1056 = EDGE_CURVE ( 'NONE', #630, #925, #1073, .T. ) ;
#1057 = CIRCLE ( 'NONE', #1186, 1.500000000000000444 ) ;
#1058 = LINE ( 'NONE', #662, #1178 ) ;
#1059 = CYLINDRICAL_SURFACE ( 'NONE', #1274, 1.400000000000000133 ) ;
#1060 = APPLICATION_PROTOCOL_DEFINITION ( 'draft international standard', 'automotive_design', 1998, #737 ) ;
#1061 = VERTEX_POINT ( 'NONE', #387 ) ;
#1062 = DIRECTION ( 'NONE',  ( 0.000000000000000000, -1.000000000000000000, 0.000000000000000000 ) ) ;
#1063 = CARTESIAN_POINT ( 'NONE',  ( 15.00000000000000000, 0.000000000000000000, 5.000000000000000000 ) ) ;
#1064 = ADVANCED_FACE ( 'NONE', ( #495 ), #269, .F. ) ;
#1065 = ORIENTED_EDGE ( 'NONE', *, *, #480, .T. ) ;
#1066 = CARTESIAN_POINT ( 'NONE',  ( -15.00000000000000000, 0.000000000000000000, -3.499999999999999556 ) ) ;
#1067 = ORIENTED_EDGE ( 'NONE', *, *, #1135, .F. ) ;
#1068 = CYLINDRICAL_SURFACE ( 'NONE', #1289, 3.499999999999999556 ) ;
#1069 = AXIS2_PLACEMENT_3D ( 'NONE', #175, #576, #979 ) ;
#1070 = VECTOR ( 'NONE', #246, 1000.000000000000000 ) ;
#1071 = DIRECTION ( 'NONE',  ( 0.000000000000000000, -1.000000000000000000, 0.000000000000000000 ) ) ;
#1072 = ORIENTED_EDGE ( 'NONE', *, *, #542, .T. ) ;
#1073 = LINE ( 'NONE', #885, #948 ) ;
#1074 = VERTEX_POINT ( 'NONE', #72 ) ;
#1075 = CYLINDRICAL_SURFACE ( 'NONE', #753, 3.500000000000000888 ) ;
#1076 = AXIS2_PLACEMENT_3D ( 'NONE', #234, #1229, #1025 ) ;
#1077 = CYLINDRICAL_SURFACE ( 'NONE', #1123, 1.500000000000000444 ) ;
#1078 = ORIENTED_EDGE ( 'NONE', *, *, #812, .T. ) ;
#1079 = DIRECTION ( 'NONE',  ( -0.000000000000000000, -1.000000000000000000, -0.000000000000000000 ) ) ;
#1080 = AXIS2_PLACEMENT_3D ( 'NONE', #1312, #1219, #104 ) ;
#1081 = ORIENTED_EDGE ( 'NONE', *, *, #1309, .T. ) ;
#1082 = ADVANCED_FACE ( 'NONE', ( #1093 ), #194, .F. ) ;
#1083 = DIRECTION ( 'NONE',  ( 0.000000000000000000, 0.000000000000000000, -1.000000000000000000 ) ) ;
#1084 = SURFACE_STYLE_USAGE ( .BOTH. , #282 ) ;
#1085 = EDGE_CURVE ( 'NONE', #254, #880, #258, .T. ) ;
#1086 = ORIENTED_EDGE ( 'NONE', *, *, #224, .F. ) ;
#1087 = LINE ( 'NONE', #392, #835 ) ;
#1088 = ORIENTED_EDGE ( 'NONE', *, *, #651, .F. ) ;
#1089 = DIRECTION ( 'NONE',  ( 0.000000000000000000, 0.000000000000000000, -1.000000000000000000 ) ) ;
#1090 = AXIS2_PLACEMENT_3D ( 'NONE', #487, #881, #1295 ) ;
#1091 = AXIS2_PLACEMENT_3D ( 'NONE', #154, #839, #1249 ) ;
#1092 = ORIENTED_EDGE ( 'NONE', *, *, #965, .T. ) ;
#1093 = FACE_OUTER_BOUND ( 'NONE', #78, .T. ) ;
#1094 = VERTEX_POINT ( 'NONE', #1196 ) ;
#1095 = CARTESIAN_POINT ( 'NONE',  ( -6.717514421272190006, 10.00000000000000000, 6.717514421272213099 ) ) ;
#1096 = DIRECTION ( 'NONE',  ( -1.387778780781445676E-16, 0.000000000000000000, -1.000000000000000000 ) ) ;
#1097 = AXIS2_PLACEMENT_3D ( 'NONE', #903, #15, #205 ) ;
#1098 = ORIENTED_EDGE ( 'NONE', *, *, #867, .F. ) ;
#1099 = DIRECTION ( 'NONE',  ( 0.000000000000000000, 0.000000000000000000, -1.000000000000000000 ) ) ;
#1100 = AXIS2_PLACEMENT_3D ( 'NONE', #826, #1282, #863 ) ;
#1101 = VERTEX_POINT ( 'NONE', #290 ) ;
#1102 = AXIS2_PLACEMENT_3D ( 'NONE', #499, #917, #38 ) ;
#1103 = DIRECTION ( 'NONE',  ( -0.000000000000000000, 1.000000000000000000, -0.000000000000000000 ) ) ;
#1104 = FACE_OUTER_BOUND ( 'NONE', #884, .T. ) ;
#1105 = ADVANCED_FACE ( 'NONE', ( #667 ), #592, .F. ) ;
#1106 = CARTESIAN_POINT ( 'NONE',  ( 15.00000000000000000, 0.000000000000000000, 5.000000000000000000 ) ) ;
#1107 = CARTESIAN_POINT ( 'NONE',  ( -15.00000000000000000, 10.00000000000000000, -6.500000000000000888 ) ) ;
#1108 = VERTEX_POINT ( 'NONE', #698 ) ;
#1109 = EDGE_CURVE ( 'NONE', #539, #423, #1278, .T. ) ;
#1110 = DIRECTION ( 'NONE',  ( 0.000000000000000000, -1.000000000000000000, 0.000000000000000000 ) ) ;
#1111 = FACE_OUTER_BOUND ( 'NONE', #967, .T. ) ;
#1112 = DIRECTION ( 'NONE',  ( -0.000000000000000000, 1.000000000000000000, -0.000000000000000000 ) ) ;
#1113 = EDGE_CURVE ( 'NONE', #486, #1291, #278, .T. ) ;
#1114 = DIRECTION ( 'NONE',  ( -1.000000000000000000, 0.000000000000000000, 1.387778780781445676E-16 ) ) ;
#1115 = CIRCLE ( 'NONE', #42, 1.400000000000001021 ) ;
#1116 = ORIENTED_EDGE ( 'NONE', *, *, #93, .F. ) ;
#1117 = DIRECTION ( 'NONE',  ( 0.000000000000000000, 0.000000000000000000, -1.000000000000000000 ) ) ;
#1118 = DIRECTION ( 'NONE',  ( 0.000000000000000000, 1.000000000000000000, 0.000000000000000000 ) ) ;
#1119 = CARTESIAN_POINT ( 'NONE',  ( -6.717514421272213099, 0.000000000000000000, -6.717514421272190006 ) ) ;
#1120 = FACE_OUTER_BOUND ( 'NONE', #890, .T. ) ;
#1121 = VECTOR ( 'NONE', #277, 1000.000000000000000 ) ;
#1122 = ORIENTED_EDGE ( 'NONE', *, *, #583, .F. ) ;
#1123 = AXIS2_PLACEMENT_3D ( 'NONE', #474, #170, #763 ) ;
#1124 = EDGE_CURVE ( 'NONE', #491, #481, #865, .T. ) ;
#1125 = DIRECTION ( 'NONE',  ( 0.000000000000000000, 1.000000000000000000, 0.000000000000000000 ) ) ;
#1126 = CARTESIAN_POINT ( 'NONE',  ( 15.00000000000000000, 0.000000000000000000, 5.000000000000000000 ) ) ;
#1127 = DIRECTION ( 'NONE',  ( 1.000000000000000000, -0.000000000000000000, -1.387778780781445676E-16 ) ) ;
#1128 = ORIENTED_EDGE ( 'NONE', *, *, #442, .F. ) ;
#1129 = FACE_BOUND ( 'NONE', #328, .T. ) ;
#1130 = FACE_OUTER_BOUND ( 'NONE', #872, .T. ) ;
#1131 = FACE_OUTER_BOUND ( 'NONE', #563, .T. ) ;
#1132 = ORIENTED_EDGE ( 'NONE', *, *, #266, .T. ) ;
#1133 = AXIS2_PLACEMENT_3D ( 'NONE', #351, #123, #148 ) ;
#1134 = AXIS2_PLACEMENT_3D ( 'NONE', #1257, #560, #335 ) ;
#1135 = EDGE_CURVE ( 'NONE', #610, #766, #444, .T. ) ;
#1136 = FACE_OUTER_BOUND ( 'NONE', #1026, .T. ) ;
#1137 = DIRECTION ( 'NONE',  ( 0.000000000000000000, 0.000000000000000000, 1.000000000000000000 ) ) ;
#1138 = ORIENTED_EDGE ( 'NONE', *, *, #829, .T. ) ;
#1139 = AXIS2_PLACEMENT_3D ( 'NONE', #181, #683, #1099 ) ;
#1140 = LINE ( 'NONE', #264, #564 ) ;
#1141 = EDGE_LOOP ( 'NONE', ( #291, #85, #1010, #566 ) ) ;
#1142 = CIRCLE ( 'NONE', #720, 3.500000000000000444 ) ;
#1143 = LINE ( 'NONE', #1043, #701 ) ;
#1144 = CIRCLE ( 'NONE', #1080, 1.400000000000000133 ) ;
#1145 = EDGE_CURVE ( 'NONE', #423, #864, #1032, .T. ) ;
#1146 = DIRECTION ( 'NONE',  ( 1.000000000000000000, -0.000000000000000000, -1.387778780781445676E-16 ) ) ;
#1147 = FACE_OUTER_BOUND ( 'NONE', #636, .T. ) ;
#1148 = ORIENTED_EDGE ( 'NONE', *, *, #484, .F. ) ;
#1149 = DIRECTION ( 'NONE',  ( 0.000000000000000000, -1.000000000000000000, 0.000000000000000000 ) ) ;
#1150 = ORIENTED_EDGE ( 'NONE', *, *, #39, .F. ) ;
#1151 = ADVANCED_FACE ( 'NONE', ( #1292 ), #79, .F. ) ;
#1152 = DIRECTION ( 'NONE',  ( 0.000000000000000000, -1.000000000000000000, 0.000000000000000000 ) ) ;
#1153 = CARTESIAN_POINT ( 'NONE',  ( 6.717514421272190006, 4.000000000000000000, -6.717514421272213099 ) ) ;
#1154 = EDGE_CURVE ( 'NONE', #601, #957, #569, .T. ) ;
#1155 = ORIENTED_EDGE ( 'NONE', *, *, #761, .T. ) ;
#1156 = CARTESIAN_POINT ( 'NONE',  ( -6.717514421272213099, 4.000000000000000000, -5.317514421272188763 ) ) ;
#1157 = EDGE_LOOP ( 'NONE', ( #792, #1078, #1155, #734 ) ) ;
#1158 = CIRCLE ( 'NONE', #770, 3.500000000000000000 ) ;
#1159 = CARTESIAN_POINT ( 'NONE',  ( 6.717514421272190006, 10.00000000000000000, -6.717514421272213099 ) ) ;
#1160 = DIRECTION ( 'NONE',  ( -0.000000000000000000, 1.000000000000000000, -0.000000000000000000 ) ) ;
#1161 = ORIENTED_EDGE ( 'NONE', *, *, #463, .T. ) ;
#1162 = DIRECTION ( 'NONE',  ( -0.000000000000000000, 1.000000000000000000, -0.000000000000000000 ) ) ;
#1163 = VERTEX_POINT ( 'NONE', #514 ) ;
#1164 = EDGE_CURVE ( 'NONE', #283, #559, #1271, .T. ) ;
#1165 = EDGE_CURVE ( 'NONE', #164, #420, #1057, .T. ) ;
#1166 = DIRECTION ( 'NONE',  ( 0.000000000000000000, 0.000000000000000000, -1.000000000000000000 ) ) ;
#1167 = CIRCLE ( 'NONE', #596, 1.500000000000000444 ) ;
#1168 = DIRECTION ( 'NONE',  ( -0.000000000000000000, 1.000000000000000000, -0.000000000000000000 ) ) ;
#1169 = VERTEX_POINT ( 'NONE', #321 ) ;
#1170 = CARTESIAN_POINT ( 'NONE',  ( 15.00000000000000000, 10.00000000000000000, -5.000000000000000000 ) ) ;
#1171 = ORIENTED_EDGE ( 'NONE', *, *, #340, .F. ) ;
#1172 = DIRECTION ( 'NONE',  ( -0.000000000000000000, 1.000000000000000000, -0.000000000000000000 ) ) ;
#1173 = DIRECTION ( 'NONE',  ( 0.000000000000000000, 1.000000000000000000, -0.000000000000000000 ) ) ;
#1174 = ORIENTED_EDGE ( 'NONE', *, *, #1145, .T. ) ;
#1175 = DIRECTION ( 'NONE',  ( 0.000000000000000000, 0.000000000000000000, -1.000000000000000000 ) ) ;
#1176 = EDGE_LOOP ( 'NONE', ( #591, #310, #1081, #619 ) ) ;
#1177 = CARTESIAN_POINT ( 'NONE',  ( -14.99999999999999645, 10.00000000000000000, -12.50000000000000178 ) ) ;
#1178 = VECTOR ( 'NONE', #1172, 1000.000000000000000 ) ;
#1179 = AXIS2_PLACEMENT_3D ( 'NONE', #363, #1054, #1040 ) ;
#1180 = CARTESIAN_POINT ( 'NONE',  ( -6.717514421272190006, 4.000000000000000000, 6.717514421272213099 ) ) ;
#1181 = ORIENTED_EDGE ( 'NONE', *, *, #1293, .F. ) ;
#1182 = CARTESIAN_POINT ( 'NONE',  ( -6.717514421272190006, 0.000000000000000000, 8.117514421272213454 ) ) ;
#1183 = ADVANCED_FACE ( 'NONE', ( #912 ), #815, .F. ) ;
#1184 = ORIENTED_EDGE ( 'NONE', *, *, #556, .F. ) ;
#1185 = CARTESIAN_POINT ( 'NONE',  ( 15.00000000000000533, 0.000000000000000000, -12.50000000000000533 ) ) ;
#1186 = AXIS2_PLACEMENT_3D ( 'NONE', #107, #7, #722 ) ;
#1187 = CARTESIAN_POINT ( 'NONE',  ( 6.717514421272190006, 4.000000000000000000, -5.317514421272211855 ) ) ;
#1188 = VECTOR ( 'NONE', #634, 1000.000000000000000 ) ;
#1189 = ORIENTED_EDGE ( 'NONE', *, *, #900, .T. ) ;
#1190 = CARTESIAN_POINT ( 'NONE',  ( 6.717514421272190006, 0.000000000000000000, -6.717514421272213099 ) ) ;
#1191 = AXIS2_PLACEMENT_3D ( 'NONE', #210, #798, #390 ) ;
#1192 = ORIENTED_EDGE ( 'NONE', *, *, #169, .T. ) ;
#1193 = CARTESIAN_POINT ( 'NONE',  ( 6.717514421272213099, 4.000000000000000000, 6.717514421272190006 ) ) ;
#1194 = DIRECTION ( 'NONE',  ( -0.000000000000000000, -1.000000000000000000, -0.000000000000000000 ) ) ;
#1195 = ORIENTED_EDGE ( 'NONE', *, *, #817, .F. ) ;
#1196 = CARTESIAN_POINT ( 'NONE',  ( -24.99999999999999645, 0.000000000000000000, -2.500000000000000444 ) ) ;
#1197 = ORIENTED_EDGE ( 'NONE', *, *, #207, .F. ) ;
#1198 = DIRECTION ( 'NONE',  ( 0.000000000000000000, 0.000000000000000000, -1.000000000000000000 ) ) ;
#1199 = CIRCLE ( 'NONE', #562, 1.400000000000000133 ) ;
#1200 = AXIS2_PLACEMENT_3D ( 'NONE', #614, #1016, #915 ) ;
#1201 = ORIENTED_EDGE ( 'NONE', *, *, #684, .T. ) ;
#1202 = CARTESIAN_POINT ( 'NONE',  ( -6.717514421272190006, 4.000000000000000000, 3.217514421272213099 ) ) ;
#1203 = ORIENTED_EDGE ( 'NONE', *, *, #435, .F. ) ;
#1204 = DIRECTION ( 'NONE',  ( 0.000000000000000000, 0.000000000000000000, -1.000000000000000000 ) ) ;
#1205 = ADVANCED_FACE ( 'NONE', ( #822 ), #126, .F. ) ;
#1206 = AXIS2_PLACEMENT_3D ( 'NONE', #58, #832, #144 ) ;
#1207 = FACE_BOUND ( 'NONE', #1039, .T. ) ;
#1208 = CARTESIAN_POINT ( 'NONE',  ( 15.00000000000000533, 10.00000000000000000, -12.50000000000000533 ) ) ;
#1209 = LINE ( 'NONE', #1235, #550 ) ;
#1210 = VECTOR ( 'NONE', #672, 1000.000000000000000 ) ;
#1211 = ORIENTED_EDGE ( 'NONE', *, *, #1023, .T. ) ;
#1212 = VECTOR ( 'NONE', #702, 1000.000000000000000 ) ;
#1213 = CYLINDRICAL_SURFACE ( 'NONE', #1200, 10.00000000000000000 ) ;
#1214 = DIRECTION ( 'NONE',  ( 0.000000000000000000, -1.000000000000000000, 0.000000000000000000 ) ) ;
#1215 = ORIENTED_EDGE ( 'NONE', *, *, #408, .T. ) ;
#1216 = DIRECTION ( 'NONE',  ( -0.000000000000000000, 1.000000000000000000, -0.000000000000000000 ) ) ;
#1217 = ORIENTED_EDGE ( 'NONE', *, *, #871, .F. ) ;
#1218 = DIRECTION ( 'NONE',  ( 0.000000000000000000, -1.000000000000000000, 0.000000000000000000 ) ) ;
#1219 = DIRECTION ( 'NONE',  ( 0.000000000000000000, 1.000000000000000000, 0.000000000000000000 ) ) ;
#1220 = DIRECTION ( 'NONE',  ( 0.000000000000000000, -1.000000000000000000, 0.000000000000000000 ) ) ;
#1221 = DIRECTION ( 'NONE',  ( 0.000000000000000000, 1.000000000000000000, -0.000000000000000000 ) ) ;
#1222 = CIRCLE ( 'NONE', #61, 10.00000000000000000 ) ;
#1223 = ORIENTED_EDGE ( 'NONE', *, *, #558, .F. ) ;
#1224 = EDGE_CURVE ( 'NONE', #1031, #1108, #421, .T. ) ;
#1225 = DIRECTION ( 'NONE',  ( 0.000000000000000000, 0.000000000000000000, 1.000000000000000000 ) ) ;
#1226 = FACE_BOUND ( 'NONE', #781, .T. ) ;
#1227 = UNCERTAINTY_MEASURE_WITH_UNIT (LENGTH_MEASURE( 1.000000000000000082E-05 ), #458, 'distance_accuracy_value', 'NONE');
#1228 = ORIENTED_EDGE ( 'NONE', *, *, #1279, .T. ) ;
#1229 = DIRECTION ( 'NONE',  ( -0.000000000000000000, 1.000000000000000000, -0.000000000000000000 ) ) ;
#1230 = AXIS2_PLACEMENT_3D ( 'NONE', #675, #972, #891 ) ;
#1231 = ORIENTED_EDGE ( 'NONE', *, *, #13, .T. ) ;
#1232 = VECTOR ( 'NONE', #628, 1000.000000000000000 ) ;
#1233 = DIRECTION ( 'NONE',  ( 0.000000000000000000, -1.000000000000000000, 0.000000000000000000 ) ) ;
#1234 = DIRECTION ( 'NONE',  ( -0.000000000000000000, 1.000000000000000000, -0.000000000000000000 ) ) ;
#1235 = CARTESIAN_POINT ( 'NONE',  ( 25.00000000000000355, 0.000000000000000000, -12.50000000000000711 ) ) ;
#1236 = EDGE_CURVE ( 'NONE', #552, #226, #613, .T. ) ;
#1237 = ORIENTED_EDGE ( 'NONE', *, *, #583, .T. ) ;
#1238 = CARTESIAN_POINT ( 'NONE',  ( 6.717514421272213099, 4.000000000000000000, 6.717514421272190006 ) ) ;
#1239 = APPLICATION_CONTEXT ( 'automotive_design' ) ;
#1240 = DIRECTION ( 'NONE',  ( 0.000000000000000000, -1.000000000000000000, 0.000000000000000000 ) ) ;
#1241 = ORIENTED_EDGE ( 'NONE', *, *, #231, .T. ) ;
#1242 = VECTOR ( 'NONE', #1233, 1000.000000000000000 ) ;
#1243 = VECTOR ( 'NONE', #448, 1000.000000000000000 ) ;
#1244 = ADVANCED_FACE ( 'NONE', ( #214 ), #611, .F. ) ;
#1245 = FACE_BOUND ( 'NONE', #101, .T. ) ;
#1246 = DIRECTION ( 'NONE',  ( -0.000000000000000000, 1.000000000000000000, -0.000000000000000000 ) ) ;
#1247 = EDGE_LOOP ( 'NONE', ( #113, #1305 ) ) ;
#1248 = AXIS2_PLACEMENT_3D ( 'NONE', #1190, #1306, #1301 ) ;
#1249 = DIRECTION ( 'NONE',  ( 0.000000000000000000, 0.000000000000000000, -1.000000000000000000 ) ) ;
#1250 = ADVANCED_FACE ( 'NONE', ( #304, #605 ), #317, .T. ) ;
#1251 = AXIS2_PLACEMENT_3D ( 'NONE', #741, #33, #237 ) ;
#1252 = FACE_BOUND ( 'NONE', #650, .T. ) ;
#1253 = PRESENTATION_LAYER_ASSIGNMENT (  '', '', ( #678 ) ) ;
#1254 = ADVANCED_FACE ( 'NONE', ( #1120 ), #827, .F. ) ;
#1255 = CARTESIAN_POINT ( 'NONE',  ( 15.00000000000000000, 0.000000000000000000, -6.500000000000000888 ) ) ;
#1256 = ORIENTED_EDGE ( 'NONE', *, *, #229, .T. ) ;
#1257 = CARTESIAN_POINT ( 'NONE',  ( -14.99999999999999645, 10.00000000000000000, -2.500000000000002220 ) ) ;
#1258 = VERTEX_POINT ( 'NONE', #629 ) ;
#1259 = DIRECTION ( 'NONE',  ( -0.000000000000000000, 1.000000000000000000, -0.000000000000000000 ) ) ;
#1260 = CARTESIAN_POINT ( 'NONE',  ( -15.00000000000000000, 10.00000000000000000, 3.499999999999999112 ) ) ;
#1261 = EDGE_LOOP ( 'NONE', ( #665, #816, #1237, #728 ) ) ;
#1262 = DIRECTION ( 'NONE',  ( 0.000000000000000000, 0.000000000000000000, -1.000000000000000000 ) ) ;
#1263 = ADVANCED_FACE ( 'NONE', ( #624, #620 ), #120, .T. ) ;
#1264 = CIRCLE ( 'NONE', #436, 1.400000000000001021 ) ;
#1265 = ORIENTED_EDGE ( 'NONE', *, *, #73, .T. ) ;
#1266 = CIRCLE ( 'NONE', #1091, 3.500000000000000444 ) ;
#1267 = DIRECTION ( 'NONE',  ( -0.000000000000000000, -1.000000000000000000, -0.000000000000000000 ) ) ;
#1268 = CYLINDRICAL_SURFACE ( 'NONE', #471, 1.500000000000000444 ) ;
#1269 = ORIENTED_EDGE ( 'NONE', *, *, #132, .F. ) ;
#1270 = CARTESIAN_POINT ( 'NONE',  ( 6.717514421272190006, 0.000000000000000000, -6.717514421272213099 ) ) ;
#1271 = CIRCLE ( 'NONE', #1097, 1.400000000000001021 ) ;
#1272 = ORIENTED_EDGE ( 'NONE', *, *, #411, .T. ) ;
#1273 = CARTESIAN_POINT ( 'NONE',  ( -6.717514421272190006, 0.000000000000000000, 6.717514421272213099 ) ) ;
#1274 = AXIS2_PLACEMENT_3D ( 'NONE', #426, #1246, #131 ) ;
#1275 = AXIS2_PLACEMENT_3D ( 'NONE', #1034, #452, #942 ) ;
#1276 = FACE_OUTER_BOUND ( 'NONE', #860, .T. ) ;
#1277 = ORIENTED_EDGE ( 'NONE', *, *, #39, .T. ) ;
#1278 = LINE ( 'NONE', #585, #1012 ) ;
#1279 = EDGE_CURVE ( 'NONE', #902, #630, #1209, .T. ) ;
#1280 = ORIENTED_EDGE ( 'NONE', *, *, #1001, .T. ) ;
#1281 = CARTESIAN_POINT ( 'NONE',  ( -6.717514421272213099, 4.000000000000000000, -8.117514421272190361 ) ) ;
#1282 = DIRECTION ( 'NONE',  ( 0.000000000000000000, 1.000000000000000000, -0.000000000000000000 ) ) ;
#1283 = ADVANCED_FACE ( 'NONE', ( #1131 ), #309, .F. ) ;
#1284 = VERTEX_POINT ( 'NONE', #2 ) ;
#1285 = CARTESIAN_POINT ( 'NONE',  ( -6.717514421272190006, 4.000000000000000000, 6.717514421272213099 ) ) ;
#1286 = ORIENTED_EDGE ( 'NONE', *, *, #867, .T. ) ;
#1287 = EDGE_CURVE ( 'NONE', #1053, #864, #398, .T. ) ;
#1288 = FACE_OUTER_BOUND ( 'NONE', #369, .T. ) ;
#1289 = AXIS2_PLACEMENT_3D ( 'NONE', #168, #372, #960 ) ;
#1290 = FILL_AREA_STYLE ('',( #877 ) ) ;
#1291 = VERTEX_POINT ( 'NONE', #1107 ) ;
#1292 = FACE_OUTER_BOUND ( 'NONE', #356, .T. ) ;
#1293 = EDGE_CURVE ( 'NONE', #935, #610, #1003, .T. ) ;
#1294 = ORIENTED_EDGE ( 'NONE', *, *, #1109, .T. ) ;
#1295 = DIRECTION ( 'NONE',  ( 0.000000000000000000, 0.000000000000000000, 1.000000000000000000 ) ) ;
#1296 = AXIS2_PLACEMENT_3D ( 'NONE', #709, #21, #1114 ) ;
#1297 = PRESENTATION_STYLE_ASSIGNMENT (( #1084 ) ) ;
#1298 = ADVANCED_FACE ( 'NONE', ( #1147 ), #346, .F. ) ;
#1299 = AXIS2_PLACEMENT_3D ( 'NONE', #975, #185, #488 ) ;
#1300 = VERTEX_POINT ( 'NONE', #544 ) ;
#1301 = DIRECTION ( 'NONE',  ( 0.000000000000000000, 0.000000000000000000, 1.000000000000000000 ) ) ;
#1302 = ORIENTED_EDGE ( 'NONE', *, *, #247, .T. ) ;
#1303 = DIRECTION ( 'NONE',  ( 0.000000000000000000, -1.000000000000000000, 0.000000000000000000 ) ) ;
#1304 = FACE_BOUND ( 'NONE', #537, .T. ) ;
#1305 = ORIENTED_EDGE ( 'NONE', *, *, #365, .T. ) ;
#1306 = DIRECTION ( 'NONE',  ( -0.000000000000000000, 1.000000000000000000, -0.000000000000000000 ) ) ;
#1307 = EDGE_CURVE ( 'NONE', #303, #399, #299, .T. ) ;
#1308 = EDGE_LOOP ( 'NONE', ( #272, #1, #447, #35 ) ) ;
#1309 = EDGE_CURVE ( 'NONE', #303, #180, #339, .T. ) ;
#1310 = FACE_OUTER_BOUND ( 'NONE', #16, .T. ) ;
#1311 = CIRCLE ( 'NONE', #794, 10.00000000000000000 ) ;
#1312 = CARTESIAN_POINT ( 'NONE',  ( 6.717514421272213099, 10.00000000000000000, 6.717514421272190006 ) ) ;
#1313 = CIRCLE ( 'NONE', #505, 1.400000000000001021 ) ;
ENDSEC;
END-ISO-10303-21;
