ISO-10303-21;
HEADER;
FILE_DESCRIPTION (( 'STEP AP214' ),
    '1' );
FILE_NAME ('RDS3225.step.STEP',
    '2026-08-20T17:33:11',
    ( '' ),
    ( '' ),
    'SwSTEP 2.0',
    'SolidWorks 2026',
    '' );
FILE_SCHEMA (( 'AUTOMOTIVE_DESIGN' ));
ENDSEC;

DATA;
#1 = IDENTIFICATION_ROLE ( 'external document id and location', $) ;
#2 = SHAPE_DEFINITION_REPRESENTATION ( #190, #97 ) ;
#3 = APPLICATION_PROTOCOL_DEFINITION ( 'draft international standard', 'automotive_design', 1998, #108 ) ;
#4 = AXIS2_PLACEMENT_3D ( 'NONE', #62, #36, #122 ) ;
#5 = PRODUCT_RELATED_PRODUCT_CATEGORY ( 'part', '', ( #231 ) ) ;
#6 =( LENGTH_UNIT ( ) NAMED_UNIT ( * ) SI_UNIT ( .MILLI., .METRE. ) );
#7 = ITEM_DEFINED_TRANSFORMATION ( 'NONE', 'NONE', #69,  #179 ) ;
#8 = CARTESIAN_POINT ( 'NONE',  ( 0.000000000000000000, 0.000000000000000000, 0.000000000000000000 ) ) ;
#9 = PRODUCT ( 'Support_large.step', 'Support_large.step', '', ( #74 ) ) ;
#10 =( LENGTH_UNIT ( ) NAMED_UNIT ( * ) SI_UNIT ( .MILLI., .METRE. ) );
#11 = AXIS2_PLACEMENT_3D ( 'NONE', #209, #219, #221 ) ;
#12 = APPLICATION_CONTEXT ( 'automotive_design' ) ;
#13 =( GEOMETRIC_REPRESENTATION_CONTEXT ( 3 ) GLOBAL_UNCERTAINTY_ASSIGNED_CONTEXT ( ( #85 ) ) GLOBAL_UNIT_ASSIGNED_CONTEXT ( ( #64, #30, #95 ) ) REPRESENTATION_CONTEXT ( 'NONE', 'WORKASPACE' ) );
#14 = PRODUCT_DEFINITION_CONTEXT ( 'detailed design', #12, 'design' ) ;
#15 = DIRECTION ( 'NONE',  ( -1.387778780781445676E-17, 1.000000000000000222, 7.010830718051641597E-15 ) ) ;
#16 = PRODUCT_CONTEXT ( 'NONE', #58, 'mechanical' ) ;
#17 = PRODUCT_DEFINITION_SHAPE ( 'NONE', 'NONE',  #31 ) ;
#18 = DIRECTION ( 'NONE',  ( 1.040834085586084257E-17, -1.000000000000000222, -1.006085405957923840E-15 ) ) ;
#19 = PROPERTY_DEFINITION ('external definition','', #103 ) ;
#20 = CARTESIAN_POINT ( 'NONE',  ( 0.000000000000000000, 0.000000000000000000, 0.000000000000000000 ) ) ;
#21 = DOCUMENT_FILE ( 'Wheel.step.STEP' , '', '', #22, '' ,$ ) ;
#22 = DOCUMENT_TYPE ( 'geometry' ) ;
#23 = AXIS2_PLACEMENT_3D ( 'NONE', #8, #78, #193 ) ;
#24 =( NAMED_UNIT ( * ) PLANE_ANGLE_UNIT ( ) SI_UNIT ( $, .RADIAN. ) );
#25 = DOCUMENT_FILE ( 'Gear (25R@0.00).step.STEP' , '', '', #40, '' ,$ ) ;
#26 = PRODUCT_DEFINITION ( 'General', '', #168, #29 ) ;
#27 = OBJECT_ROLE ('mandatory',$ ) ;
#28 = UNCERTAINTY_MEASURE_WITH_UNIT (LENGTH_MEASURE( 1.000000000000000082E-05 ), #101, 'distance_accuracy_value', 'NONE');
#29 = PRODUCT_DEFINITION_CONTEXT ( 'detailed design', #79, 'design' ) ;
#30 =( NAMED_UNIT ( * ) PLANE_ANGLE_UNIT ( ) SI_UNIT ( $, .RADIAN. ) );
#31 = PRODUCT_DEFINITION ( 'General', '', #170, #184 ) ;
#32 = APPLIED_EXTERNAL_IDENTIFICATION_ASSIGNMENT ( 'Screws.step.STEP' , #1, #107,( #126) ) ;
#33 =( NAMED_UNIT ( * ) PLANE_ANGLE_UNIT ( ) SI_UNIT ( $, .RADIAN. ) );
#34 = PRODUCT_DEFINITION_SHAPE ( 'NONE', 'NONE',  #88 ) ;
#35 = APPLICATION_PROTOCOL_DEFINITION ( 'draft international standard', 'automotive_design', 1998, #70 ) ;
#36 = DIRECTION ( 'NONE',  ( 0.000000000000000000, 0.000000000000000000, 1.000000000000000000 ) ) ;
#37 = ITEM_DEFINED_TRANSFORMATION ( 'NONE', 'NONE', #50,  #23 ) ;
#38 = PRODUCT ( 'Wheel.step', 'Wheel.step', '', ( #129 ) ) ;
#39 = PROPERTY_DEFINITION_REPRESENTATION ( #160, #144 ) ;
#40 = DOCUMENT_TYPE ( 'geometry' ) ;
#41 = ITEM_DEFINED_TRANSFORMATION ( 'NONE', 'NONE', #55,  #183 ) ;
#42 = DIRECTION ( 'NONE',  ( 0.000000000000000000, 0.000000000000000000, 1.000000000000000000 ) ) ;
#43 = APPLIED_DOCUMENT_REFERENCE ( #21,'',( #26) ) ;
#44 = APPLICATION_CONTEXT ( 'automotive_design' ) ;
#45 = PRODUCT_RELATED_PRODUCT_CATEGORY ( 'part', '', ( #154 ) ) ;
#46 = UNCERTAINTY_MEASURE_WITH_UNIT (LENGTH_MEASURE( 1.000000000000000082E-05 ), #10, 'distance_accuracy_value', 'NONE');
#47 = DIRECTION ( 'NONE',  ( 1.000000000000000222, -1.040834085586084257E-17, 3.469446951953614189E-18 ) ) ;
#48 = APPLICATION_PROTOCOL_DEFINITION ( 'draft international standard', 'automotive_design', 1998, #120 ) ;
#49 = OBJECT_ROLE ('mandatory',$ ) ;
#50 = AXIS2_PLACEMENT_3D ( 'NONE', #174, #94, #51 ) ;
#51 = DIRECTION ( 'NONE',  ( -3.469446951953614189E-18, -6.451002926288751382E-18, -1.000000000000000222 ) ) ;
#52 = PRODUCT_DEFINITION_SHAPE ( 'NONE', 'NONE',  #236 ) ;
#53 = PRODUCT_CONTEXT ( 'NONE', #108, 'mechanical' ) ;
#54 = DIRECTION ( 'NONE',  ( 0.000000000000000000, 0.000000000000000000, 1.000000000000000000 ) ) ;
#55 = AXIS2_PLACEMENT_3D ( 'NONE', #188, #15, #47 ) ;
#56 = PROPERTY_DEFINITION_REPRESENTATION ( #142, #97 ) ;
#57 = APPLIED_EXTERNAL_IDENTIFICATION_ASSIGNMENT ( 'Wheel.step.STEP' , #177, #192,( #21) ) ;
#58 = APPLICATION_CONTEXT ( 'automotive_design' ) ;
#59 =( NAMED_UNIT ( * ) SI_UNIT ( $, .STERADIAN. ) SOLID_ANGLE_UNIT ( ) );
#60 = APPLIED_DOCUMENT_REFERENCE ( #25,'',( #222) ) ;
#61 =( GEOMETRIC_REPRESENTATION_CONTEXT ( 3 ) GLOBAL_UNCERTAINTY_ASSIGNED_CONTEXT ( ( #28 ) ) GLOBAL_UNIT_ASSIGNED_CONTEXT ( ( #101, #84, #166 ) ) REPRESENTATION_CONTEXT ( 'NONE', 'WORKASPACE' ) );
#62 = CARTESIAN_POINT ( 'NONE',  ( 0.000000000000000000, 0.000000000000000000, 0.000000000000000000 ) ) ;
#63 = ITEM_DEFINED_TRANSFORMATION ( 'NONE', 'NONE', #151,  #4 ) ;
#64 =( LENGTH_UNIT ( ) NAMED_UNIT ( * ) SI_UNIT ( .MILLI., .METRE. ) );
#65 = APPLICATION_CONTEXT ( 'automotive_design' ) ;
#66 = AXIS2_PLACEMENT_3D ( 'NONE', #77, #134, #128 ) ;
#67 =( REPRESENTATION_RELATIONSHIP ('NONE','NONE', #175, #144 ) REPRESENTATION_RELATIONSHIP_WITH_TRANSFORMATION ( #132 )SHAPE_REPRESENTATION_RELATIONSHIP( ) );
#68 = PRODUCT_RELATED_PRODUCT_CATEGORY ( 'part', '', ( #9 ) ) ;
#69 = AXIS2_PLACEMENT_3D ( 'NONE', #208, #18, #173 ) ;
#70 = APPLICATION_CONTEXT ( 'automotive_design' ) ;
#71 = SHAPE_DEFINITION_REPRESENTATION ( #114, #144 ) ;
#72 = PRODUCT_DEFINITION_SHAPE ( 'NONE', 'NONE',  #234 ) ;
#73 =( GEOMETRIC_REPRESENTATION_CONTEXT ( 3 ) GLOBAL_UNCERTAINTY_ASSIGNED_CONTEXT ( ( #148 ) ) GLOBAL_UNIT_ASSIGNED_CONTEXT ( ( #185, #33, #133 ) ) REPRESENTATION_CONTEXT ( 'NONE', 'WORKASPACE' ) );
#74 = PRODUCT_CONTEXT ( 'NONE', #70, 'mechanical' ) ;
#75 = APPLICATION_PROTOCOL_DEFINITION ( 'draft international standard', 'automotive_design', 1998, #138 ) ;
#76 = OBJECT_ROLE ('mandatory',$ ) ;
#77 = CARTESIAN_POINT ( 'NONE',  ( 0.000000000000000000, 0.000000000000000000, 0.000000000000000000 ) ) ;
#78 = DIRECTION ( 'NONE',  ( 0.000000000000000000, 0.000000000000000000, 1.000000000000000000 ) ) ;
#79 = APPLICATION_CONTEXT ( 'automotive_design' ) ;
#80 = DOCUMENT_FILE ( 'Support_large.step.STEP' , '', '', #140, '' ,$ ) ;
#81 = PROPERTY_DEFINITION_REPRESENTATION ( #117, #97 ) ;
#82 = PROPERTY_DEFINITION ('document property','', #126 ) ;
#83 = PRODUCT_RELATED_PRODUCT_CATEGORY ( 'part', '', ( #199 ) ) ;
#84 =( NAMED_UNIT ( * ) PLANE_ANGLE_UNIT ( ) SI_UNIT ( $, .RADIAN. ) );
#85 = UNCERTAINTY_MEASURE_WITH_UNIT (LENGTH_MEASURE( 1.000000000000000082E-05 ), #64, 'distance_accuracy_value', 'NONE');
#86 = EXTERNAL_SOURCE (IDENTIFIER('') ) ;
#87 = PRODUCT_DEFINITION_FORMATION_WITH_SPECIFIED_SOURCE ( 'Symmetric', '', #9, .NOT_KNOWN. ) ;
#88 = PRODUCT_DEFINITION ( 'General', '', #156, #106 ) ;
#89 = OBJECT_ROLE ('mandatory',$ ) ;
#90 = SHAPE_DEFINITION_REPRESENTATION ( #17, #175 ) ;
#91 = PROPERTY_DEFINITION ('document property','', #103 ) ;
#92 = APPLICATION_PROTOCOL_DEFINITION ( 'draft international standard', 'automotive_design', 1998, #169 ) ;
#93 = PRODUCT_DEFINITION_CONTEXT ( 'detailed design', #217, 'design' ) ;
#94 = DIRECTION ( 'NONE',  ( 1.000000000000000222, -1.040834085586084257E-17, 3.469446951953614189E-18 ) ) ;
#95 =( NAMED_UNIT ( * ) SI_UNIT ( $, .STERADIAN. ) SOLID_ANGLE_UNIT ( ) );
#96 = PROPERTY_DEFINITION_REPRESENTATION ( #130, #214 ) ;
#97 = SHAPE_REPRESENTATION ( 'Wheel.step', ( #183 ), #61 ) ;
#98 = PRODUCT_DEFINITION_FORMATION_WITH_SPECIFIED_SOURCE ( 'Symmetric', '', #199, .NOT_KNOWN. ) ;
#99 = PROPERTY_DEFINITION ('external definition','', #126 ) ;
#100 =( REPRESENTATION_RELATIONSHIP ('NONE','NONE', #175, #97 ) REPRESENTATION_RELATIONSHIP_WITH_TRANSFORMATION ( #41 )SHAPE_REPRESENTATION_RELATIONSHIP( ) );
#101 =( LENGTH_UNIT ( ) NAMED_UNIT ( * ) SI_UNIT ( .MILLI., .METRE. ) );
#102 = DIRECTION ( 'NONE',  ( 1.000000000000000000, 0.000000000000000000, 0.000000000000000000 ) ) ;
#103 = DOCUMENT_FILE ( 'Wheel_gear.step.STEP' , '', '', #118, '' ,$ ) ;
#104 =( NAMED_UNIT ( * ) PLANE_ANGLE_UNIT ( ) SI_UNIT ( $, .RADIAN. ) );
#105 =( NAMED_UNIT ( * ) SI_UNIT ( $, .STERADIAN. ) SOLID_ANGLE_UNIT ( ) );
#106 = PRODUCT_DEFINITION_CONTEXT ( 'detailed design', #138, 'design' ) ;
#107 = EXTERNAL_SOURCE (IDENTIFIER('') ) ;
#108 = APPLICATION_CONTEXT ( 'automotive_design' ) ;
#109 = PRODUCT_DEFINITION ( 'General', '', #87, #93 ) ;
#110 = PRODUCT_DEFINITION_CONTEXT ( 'detailed design', #169, 'design' ) ;
#111 = DIRECTION ( 'NONE',  ( 3.469446951953614189E-18, 6.451002926288751382E-18, 1.000000000000000222 ) ) ;
#112 = DOCUMENT_TYPE ( 'geometry' ) ;
#113 = PROPERTY_DEFINITION ('external definition','', #25 ) ;
#114 = PRODUCT_DEFINITION_SHAPE ( 'NONE', 'NONE',  #222 ) ;
#115 = SHAPE_DEFINITION_REPRESENTATION ( #34, #146 ) ;
#116 = CONTEXT_DEPENDENT_SHAPE_REPRESENTATION ( #67, #210 ) ;
#117 = PROPERTY_DEFINITION ('document property','', #21 ) ;
#118 = DOCUMENT_TYPE ( 'geometry' ) ;
#119 = CONTEXT_DEPENDENT_SHAPE_REPRESENTATION ( #155, #139 ) ;
#120 = APPLICATION_CONTEXT ( 'automotive_design' ) ;
#121 = PRODUCT_DEFINITION_FORMATION_WITH_SPECIFIED_SOURCE ( 'Symmetric', '', #154, .NOT_KNOWN. ) ;
#122 = DIRECTION ( 'NONE',  ( 1.000000000000000000, 0.000000000000000000, 0.000000000000000000 ) ) ;
#123 = PRODUCT ( 'RDS3225.step', 'RDS3225.step', '', ( #205 ) ) ;
#124 = PROPERTY_DEFINITION_REPRESENTATION ( #99, #204 ) ;
#125 = PRODUCT_DEFINITION_SHAPE ( 'NONE', 'NONE',  #235 ) ;
#126 = DOCUMENT_FILE ( 'Screws.step.STEP' , '', '', #112, '' ,$ ) ;
#127 =( REPRESENTATION_RELATIONSHIP ('NONE','NONE', #175, #214 ) REPRESENTATION_RELATIONSHIP_WITH_TRANSFORMATION ( #37 )SHAPE_REPRESENTATION_RELATIONSHIP( ) );
#128 = DIRECTION ( 'NONE',  ( 1.000000000000000000, 0.000000000000000000, 0.000000000000000000 ) ) ;
#129 = PRODUCT_CONTEXT ( 'NONE', #120, 'mechanical' ) ;
#130 = PROPERTY_DEFINITION ('document property','', #80 ) ;
#131 = IDENTIFICATION_ROLE ( 'external document id and location', $) ;
#132 = ITEM_DEFINED_TRANSFORMATION ( 'NONE', 'NONE', #11,  #135 ) ;
#133 =( NAMED_UNIT ( * ) SI_UNIT ( $, .STERADIAN. ) SOLID_ANGLE_UNIT ( ) );
#134 = DIRECTION ( 'NONE',  ( 0.000000000000000000, 0.000000000000000000, 1.000000000000000000 ) ) ;
#135 = AXIS2_PLACEMENT_3D ( 'NONE', #180, #42, #226 ) ;
#136 = DIRECTION ( 'NONE',  ( 1.000000000000000000, 0.000000000000000000, 0.000000000000000000 ) ) ;
#137 = PRODUCT_RELATED_PRODUCT_CATEGORY ( 'part', '', ( #123 ) ) ;
#138 = APPLICATION_CONTEXT ( 'automotive_design' ) ;
#139 = PRODUCT_DEFINITION_SHAPE ( 'NONE', 'NONE',  #237 ) ;
#140 = DOCUMENT_TYPE ( 'geometry' ) ;
#141 =( GEOMETRIC_REPRESENTATION_CONTEXT ( 3 ) GLOBAL_UNCERTAINTY_ASSIGNED_CONTEXT ( ( #46 ) ) GLOBAL_UNIT_ASSIGNED_CONTEXT ( ( #10, #104, #59 ) ) REPRESENTATION_CONTEXT ( 'NONE', 'WORKASPACE' ) );
#142 = PROPERTY_DEFINITION ('external definition','', #21 ) ;
#143 = CONTEXT_DEPENDENT_SHAPE_REPRESENTATION ( #100, #72 ) ;
#144 = SHAPE_REPRESENTATION ( 'Gear (25R@0.00).step', ( #135 ), #141 ) ;
#145 = CONTEXT_DEPENDENT_SHAPE_REPRESENTATION ( #196, #125 ) ;
#146 = SHAPE_REPRESENTATION ( 'Wheel_gear.step', ( #179 ), #13 ) ;
#147 = EXTERNAL_SOURCE (IDENTIFIER('') ) ;
#148 = UNCERTAINTY_MEASURE_WITH_UNIT (LENGTH_MEASURE( 1.000000000000000082E-05 ), #185, 'distance_accuracy_value', 'NONE');
#149 = APPLIED_EXTERNAL_IDENTIFICATION_ASSIGNMENT ( 'Gear (25R@0.00).step.STEP' , #131, #86,( #25) ) ;
#150 = PRODUCT_DEFINITION ( 'General', '', #98, #14 ) ;
#151 = AXIS2_PLACEMENT_3D ( 'NONE', #20, #111, #172 ) ;
#152 = APPLICATION_CONTEXT ( 'automotive_design' ) ;
#153 = APPLICATION_PROTOCOL_DEFINITION ( 'draft international standard', 'automotive_design', 1998, #152 ) ;
#154 = PRODUCT ( 'Gear (25R@0.00).step', 'Gear (25R@0.00).step', '', ( #16 ) ) ;
#155 =( REPRESENTATION_RELATIONSHIP ('NONE','NONE', #175, #146 ) REPRESENTATION_RELATIONSHIP_WITH_TRANSFORMATION ( #7 )SHAPE_REPRESENTATION_RELATIONSHIP( ) );
#156 = PRODUCT_DEFINITION_FORMATION_WITH_SPECIFIED_SOURCE ( 'Symmetric', '', #231, .NOT_KNOWN. ) ;
#157 = APPLICATION_PROTOCOL_DEFINITION ( 'draft international standard', 'automotive_design', 1998, #44 ) ;
#158 = PRODUCT_CONTEXT ( 'NONE', #65, 'mechanical' ) ;
#159 = APPLIED_EXTERNAL_IDENTIFICATION_ASSIGNMENT ( 'Wheel_gear.step.STEP' , #186, #147,( #103) ) ;
#160 = PROPERTY_DEFINITION ('document property','', #25 ) ;
#161 = CARTESIAN_POINT ( 'NONE',  ( 0.000000000000000000, 0.000000000000000000, 0.000000000000000000 ) ) ;
#162 = APPLIED_DOCUMENT_REFERENCE ( #80,'',( #109) ) ;
#163 =( NAMED_UNIT ( * ) PLANE_ANGLE_UNIT ( ) SI_UNIT ( $, .RADIAN. ) );
#164 = PRODUCT_DEFINITION_SHAPE ( 'NONE', 'NONE',  #109 ) ;
#165 = PROPERTY_DEFINITION_REPRESENTATION ( #19, #146 ) ;
#166 =( NAMED_UNIT ( * ) SI_UNIT ( $, .STERADIAN. ) SOLID_ANGLE_UNIT ( ) );
#167 = IDENTIFICATION_ROLE ( 'external document id and location', $) ;
#168 = PRODUCT_DEFINITION_FORMATION_WITH_SPECIFIED_SOURCE ( 'Symmetric', '', #38, .NOT_KNOWN. ) ;
#169 = APPLICATION_CONTEXT ( 'automotive_design' ) ;
#170 = PRODUCT_DEFINITION_FORMATION_WITH_SPECIFIED_SOURCE ( 'Symmetric', '', #123, .NOT_KNOWN. ) ;
#171 = APPLICATION_PROTOCOL_DEFINITION ( 'draft international standard', 'automotive_design', 1998, #217 ) ;
#172 = DIRECTION ( 'NONE',  ( 1.000000000000000222, -1.040834085586084257E-17, 3.469446951953614189E-18 ) ) ;
#173 = DIRECTION ( 'NONE',  ( 1.000000000000000222, -1.040834085586084257E-17, 3.469446951953614189E-18 ) ) ;
#174 = CARTESIAN_POINT ( 'NONE',  ( 19.44149119324700692, 2.220446049250313081E-13, -0.7000000000001449507 ) ) ;
#175 = SHAPE_REPRESENTATION ( 'RDS3225.step', ( #66, #11, #55, #151, #50, #69 ), #73 ) ;
#176 = ROLE_ASSOCIATION ( #89, #194 ) ;
#177 = IDENTIFICATION_ROLE ( 'external document id and location', $) ;
#178 = CONTEXT_DEPENDENT_SHAPE_REPRESENTATION ( #127, #52 ) ;
#179 = AXIS2_PLACEMENT_3D ( 'NONE', #161, #182, #102 ) ;
#180 = CARTESIAN_POINT ( 'NONE',  ( 0.000000000000000000, 0.000000000000000000, 0.000000000000000000 ) ) ;
#181 = ROLE_ASSOCIATION ( #49, #60 ) ;
#182 = DIRECTION ( 'NONE',  ( 0.000000000000000000, 0.000000000000000000, 1.000000000000000000 ) ) ;
#183 = AXIS2_PLACEMENT_3D ( 'NONE', #200, #54, #136 ) ;
#184 = PRODUCT_DEFINITION_CONTEXT ( 'detailed design', #152, 'design' ) ;
#185 =( LENGTH_UNIT ( ) NAMED_UNIT ( * ) SI_UNIT ( .MILLI., .METRE. ) );
#186 = IDENTIFICATION_ROLE ( 'external document id and location', $) ;
#187 = APPLICATION_PROTOCOL_DEFINITION ( 'draft international standard', 'automotive_design', 1998, #79 ) ;
#188 = CARTESIAN_POINT ( 'NONE',  ( 11.00000000000012079, 10.00000000000023093, 25.74999999999993960 ) ) ;
#189 =( GEOMETRIC_REPRESENTATION_CONTEXT ( 3 ) GLOBAL_UNCERTAINTY_ASSIGNED_CONTEXT ( ( #202 ) ) GLOBAL_UNIT_ASSIGNED_CONTEXT ( ( #6, #163, #105 ) ) REPRESENTATION_CONTEXT ( 'NONE', 'WORKASPACE' ) );
#190 = PRODUCT_DEFINITION_SHAPE ( 'NONE', 'NONE',  #26 ) ;
#191 = PROPERTY_DEFINITION_REPRESENTATION ( #113, #144 ) ;
#192 = EXTERNAL_SOURCE (IDENTIFIER('') ) ;
#193 = DIRECTION ( 'NONE',  ( 1.000000000000000000, 0.000000000000000000, 0.000000000000000000 ) ) ;
#194 = APPLIED_DOCUMENT_REFERENCE ( #103,'',( #88) ) ;
#195 =( NAMED_UNIT ( * ) SI_UNIT ( $, .STERADIAN. ) SOLID_ANGLE_UNIT ( ) );
#196 =( REPRESENTATION_RELATIONSHIP ('NONE','NONE', #175, #204 ) REPRESENTATION_RELATIONSHIP_WITH_TRANSFORMATION ( #63 )SHAPE_REPRESENTATION_RELATIONSHIP( ) );
#197 = PROPERTY_DEFINITION_REPRESENTATION ( #82, #204 ) ;
#198 =( LENGTH_UNIT ( ) NAMED_UNIT ( * ) SI_UNIT ( .MILLI., .METRE. ) );
#199 = PRODUCT ( 'Screws.step', 'Screws.step', '', ( #158 ) ) ;
#200 = CARTESIAN_POINT ( 'NONE',  ( 0.000000000000000000, 0.000000000000000000, 0.000000000000000000 ) ) ;
#201 = ROLE_ASSOCIATION ( #27, #162 ) ;
#202 = UNCERTAINTY_MEASURE_WITH_UNIT (LENGTH_MEASURE( 1.000000000000000082E-05 ), #6, 'distance_accuracy_value', 'NONE');
#203 = APPLICATION_PROTOCOL_DEFINITION ( 'draft international standard', 'automotive_design', 1998, #12 ) ;
#204 = SHAPE_REPRESENTATION ( 'Screws.step', ( #4 ), #230 ) ;
#205 = PRODUCT_CONTEXT ( 'NONE', #44, 'mechanical' ) ;
#206 = EXTERNAL_SOURCE (IDENTIFIER('') ) ;
#207 = PRODUCT_RELATED_PRODUCT_CATEGORY ( 'part', '', ( #38 ) ) ;
#208 = CARTESIAN_POINT ( 'NONE',  ( 10.99149119324716040, 10.00000000000000888, -27.15000000000011937 ) ) ;
#209 = CARTESIAN_POINT ( 'NONE',  ( 10.99149119324804857, 10.00000000000000888, -26.05000000000012861 ) ) ;
#210 = PRODUCT_DEFINITION_SHAPE ( 'NONE', 'NONE',  #233 ) ;
#211 = ROLE_ASSOCIATION ( #216, #227 ) ;
#212 = PROPERTY_DEFINITION ('external definition','', #80 ) ;
#213 = ROLE_ASSOCIATION ( #76, #43 ) ;
#214 = SHAPE_REPRESENTATION ( 'Support_large.step', ( #23 ), #189 ) ;
#215 = UNCERTAINTY_MEASURE_WITH_UNIT (LENGTH_MEASURE( 1.000000000000000082E-05 ), #198, 'distance_accuracy_value', 'NONE');
#216 = OBJECT_ROLE ('mandatory',$ ) ;
#217 = APPLICATION_CONTEXT ( 'automotive_design' ) ;
#218 = APPLICATION_PROTOCOL_DEFINITION ( 'draft international standard', 'automotive_design', 1998, #65 ) ;
#219 = DIRECTION ( 'NONE',  ( 3.469446951953614189E-18, 6.451002926288751382E-18, 1.000000000000000222 ) ) ;
#220 = PROPERTY_DEFINITION_REPRESENTATION ( #91, #146 ) ;
#221 = DIRECTION ( 'NONE',  ( 1.000000000000000222, -1.040834085586084257E-17, 3.469446951953614189E-18 ) ) ;
#222 = PRODUCT_DEFINITION ( 'General', '', #121, #110 ) ;
#223 = APPLICATION_PROTOCOL_DEFINITION ( 'draft international standard', 'automotive_design', 1998, #58 ) ;
#224 = SHAPE_DEFINITION_REPRESENTATION ( #225, #204 ) ;
#225 = PRODUCT_DEFINITION_SHAPE ( 'NONE', 'NONE',  #150 ) ;
#226 = DIRECTION ( 'NONE',  ( 1.000000000000000000, 0.000000000000000000, 0.000000000000000000 ) ) ;
#227 = APPLIED_DOCUMENT_REFERENCE ( #126,'',( #150) ) ;
#228 = APPLIED_EXTERNAL_IDENTIFICATION_ASSIGNMENT ( 'Support_large.step.STEP' , #167, #206,( #80) ) ;
#229 = PROPERTY_DEFINITION_REPRESENTATION ( #212, #214 ) ;
#230 =( GEOMETRIC_REPRESENTATION_CONTEXT ( 3 ) GLOBAL_UNCERTAINTY_ASSIGNED_CONTEXT ( ( #215 ) ) GLOBAL_UNIT_ASSIGNED_CONTEXT ( ( #198, #24, #195 ) ) REPRESENTATION_CONTEXT ( 'NONE', 'WORKASPACE' ) );
#231 = PRODUCT ( 'Wheel_gear.step', 'Wheel_gear.step', '', ( #53 ) ) ;
#232 = SHAPE_DEFINITION_REPRESENTATION ( #164, #214 ) ;
#233 = NEXT_ASSEMBLY_USAGE_OCCURRENCE ( 'NAUO16', ' ', ' ', #31, #222, $ ) ;
#234 = NEXT_ASSEMBLY_USAGE_OCCURRENCE ( 'NAUO17', ' ', ' ', #31, #26, $ ) ;
#235 = NEXT_ASSEMBLY_USAGE_OCCURRENCE ( 'NAUO18', ' ', ' ', #31, #150, $ ) ;
#236 = NEXT_ASSEMBLY_USAGE_OCCURRENCE ( 'NAUO19', ' ', ' ', #31, #109, $ ) ;
#237 = NEXT_ASSEMBLY_USAGE_OCCURRENCE ( 'NAUO20', ' ', ' ', #31, #88, $ ) ;
ENDSEC;
END-ISO-10303-21;
