ISO-10303-21;
HEADER;
FILE_DESCRIPTION (( 'STEP AP214' ),
    '1' );
FILE_NAME ('RDS3225 v7.step.STEP',
    '2026-08-20T17:33:12',
    ( '' ),
    ( '' ),
    'SwSTEP 2.0',
    'SolidWorks 2026',
    '' );
FILE_SCHEMA (( 'AUTOMOTIVE_DESIGN' ));
ENDSEC;

DATA;
#1 = APPLICATION_PROTOCOL_DEFINITION ( 'draft international standard', 'automotive_design', 1998, #96 ) ;
#2 = UNCERTAINTY_MEASURE_WITH_UNIT (LENGTH_MEASURE( 1.000000000000000082E-05 ), #52, 'distance_accuracy_value', 'NONE');
#3 = PRODUCT_RELATED_PRODUCT_CATEGORY ( 'part', '', ( #102 ) ) ;
#4 = APPLICATION_CONTEXT ( 'automotive_design' ) ;
#5 =( GEOMETRIC_REPRESENTATION_CONTEXT ( 3 ) GLOBAL_UNCERTAINTY_ASSIGNED_CONTEXT ( ( #62 ) ) GLOBAL_UNIT_ASSIGNED_CONTEXT ( ( #54, #27, #98 ) ) REPRESENTATION_CONTEXT ( 'NONE', 'WORKASPACE' ) );
#6 = EXTERNAL_SOURCE (IDENTIFIER('') ) ;
#7 = DIRECTION ( 'NONE',  ( 0.000000000000000000, 0.000000000000000000, 1.000000000000000000 ) ) ;
#8 = PROPERTY_DEFINITION_REPRESENTATION ( #21, #11 ) ;
#9 = ITEM_DEFINED_TRANSFORMATION ( 'NONE', 'NONE', #12,  #58 ) ;
#10 = DOCUMENT_TYPE ( 'geometry' ) ;
#11 = SHAPE_REPRESENTATION ( 'RDS3225.step', ( #82 ), #5 ) ;
#12 = AXIS2_PLACEMENT_3D ( 'NONE', #51, #106, #64 ) ;
#13 = PRODUCT_DEFINITION_CONTEXT ( 'detailed design', #96, 'design' ) ;
#14 = APPLICATION_PROTOCOL_DEFINITION ( 'draft international standard', 'automotive_design', 1998, #4 ) ;
#15 = DIRECTION ( 'NONE',  ( 3.469446951953614189E-18, 6.451002926288751382E-18, 1.000000000000000222 ) ) ;
#16 = DIRECTION ( 'NONE',  ( 0.000000000000000000, 0.000000000000000000, 1.000000000000000000 ) ) ;
#17 = OBJECT_ROLE ('mandatory',$ ) ;
#18 = APPLICATION_PROTOCOL_DEFINITION ( 'draft international standard', 'automotive_design', 1998, #66 ) ;
#19 = PRODUCT_DEFINITION_SHAPE ( 'NONE', 'NONE',  #108 ) ;
#20 = PRODUCT_DEFINITION ( 'General', '', #97, #76 ) ;
#21 = PROPERTY_DEFINITION ('external definition','', #92 ) ;
#22 =( NAMED_UNIT ( * ) PLANE_ANGLE_UNIT ( ) SI_UNIT ( $, .RADIAN. ) );
#23 = APPLICATION_CONTEXT ( 'automotive_design' ) ;
#24 = PRODUCT_DEFINITION ( 'General', '', #31, #13 ) ;
#25 = APPLICATION_PROTOCOL_DEFINITION ( 'draft international standard', 'automotive_design', 1998, #23 ) ;
#26 = SHAPE_DEFINITION_REPRESENTATION ( #94, #41 ) ;
#27 =( NAMED_UNIT ( * ) PLANE_ANGLE_UNIT ( ) SI_UNIT ( $, .RADIAN. ) );
#28 = PRODUCT_CONTEXT ( 'NONE', #84, 'mechanical' ) ;
#29 = ROLE_ASSOCIATION ( #77, #42 ) ;
#30 = PRODUCT ( 'RDS3225.step', 'RDS3225.step', '', ( #56 ) ) ;
#31 = PRODUCT_DEFINITION_FORMATION_WITH_SPECIFIED_SOURCE ( 'Symmetric', '', #30, .NOT_KNOWN. ) ;
#32 = SHAPE_DEFINITION_REPRESENTATION ( #59, #104 ) ;
#33 = IDENTIFICATION_ROLE ( 'external document id and location', $) ;
#34 = PRODUCT_DEFINITION_FORMATION_WITH_SPECIFIED_SOURCE ( 'Symmetric', '', #102, .NOT_KNOWN. ) ;
#35 = DIRECTION ( 'NONE',  ( 0.000000000000000000, 0.000000000000000000, 1.000000000000000000 ) ) ;
#36 = CARTESIAN_POINT ( 'NONE',  ( 0.000000000000000000, 0.000000000000000000, 0.000000000000000000 ) ) ;
#37 = DIRECTION ( 'NONE',  ( 1.000000000000000000, 0.000000000000000000, 0.000000000000000000 ) ) ;
#38 = PRODUCT_CONTEXT ( 'NONE', #23, 'mechanical' ) ;
#39 = IDENTIFICATION_ROLE ( 'external document id and location', $) ;
#40 = PROPERTY_DEFINITION_REPRESENTATION ( #68, #104 ) ;
#41 = SHAPE_REPRESENTATION ( 'RDS3225 v7.step', ( #73, #74, #12 ), #69 ) ;
#42 = APPLIED_DOCUMENT_REFERENCE ( #92,'',( #24) ) ;
#43 = PRODUCT_DEFINITION ( 'General', '', #34, #86 ) ;
#44 = PRODUCT_DEFINITION_SHAPE ( 'NONE', 'NONE',  #107 ) ;
#45 = DIRECTION ( 'NONE',  ( 1.000000000000000000, 0.000000000000000000, 0.000000000000000000 ) ) ;
#46 = CARTESIAN_POINT ( 'NONE',  ( 0.000000000000000000, 0.000000000000000000, 0.000000000000000000 ) ) ;
#47 = CONTEXT_DEPENDENT_SHAPE_REPRESENTATION ( #55, #19 ) ;
#48 = APPLIED_DOCUMENT_REFERENCE ( #57,'',( #20) ) ;
#49 = APPLICATION_CONTEXT ( 'automotive_design' ) ;
#50 =( NAMED_UNIT ( * ) SI_UNIT ( $, .STERADIAN. ) SOLID_ANGLE_UNIT ( ) );
#51 = CARTESIAN_POINT ( 'NONE',  ( 0.000000000000000000, 0.000000000000000000, 0.000000000000000000 ) ) ;
#52 =( LENGTH_UNIT ( ) NAMED_UNIT ( * ) SI_UNIT ( .MILLI., .METRE. ) );
#53 = CONTEXT_DEPENDENT_SHAPE_REPRESENTATION ( #61, #44 ) ;
#54 =( LENGTH_UNIT ( ) NAMED_UNIT ( * ) SI_UNIT ( .MILLI., .METRE. ) );
#55 =( REPRESENTATION_RELATIONSHIP ('NONE','NONE', #41, #104 ) REPRESENTATION_RELATIONSHIP_WITH_TRANSFORMATION ( #9 )SHAPE_REPRESENTATION_RELATIONSHIP( ) );
#56 = PRODUCT_CONTEXT ( 'NONE', #66, 'mechanical' ) ;
#57 = DOCUMENT_FILE ( 'eBom-FreeParts.step.STEP' , '', '', #10, '' ,$ ) ;
#58 = AXIS2_PLACEMENT_3D ( 'NONE', #36, #35, #37 ) ;
#59 = PRODUCT_DEFINITION_SHAPE ( 'NONE', 'NONE',  #20 ) ;
#60 =( GEOMETRIC_REPRESENTATION_CONTEXT ( 3 ) GLOBAL_UNCERTAINTY_ASSIGNED_CONTEXT ( ( #2 ) ) GLOBAL_UNIT_ASSIGNED_CONTEXT ( ( #52, #22, #71 ) ) REPRESENTATION_CONTEXT ( 'NONE', 'WORKASPACE' ) );
#61 =( REPRESENTATION_RELATIONSHIP ('NONE','NONE', #41, #11 ) REPRESENTATION_RELATIONSHIP_WITH_TRANSFORMATION ( #91 )SHAPE_REPRESENTATION_RELATIONSHIP( ) );
#62 = UNCERTAINTY_MEASURE_WITH_UNIT (LENGTH_MEASURE( 1.000000000000000082E-05 ), #54, 'distance_accuracy_value', 'NONE');
#63 = APPLIED_EXTERNAL_IDENTIFICATION_ASSIGNMENT ( 'RDS3225.step.STEP' , #39, #87,( #92) ) ;
#64 = DIRECTION ( 'NONE',  ( 1.000000000000000222, -1.040834085586084257E-17, 3.469446951953614189E-18 ) ) ;
#65 = DIRECTION ( 'NONE',  ( 1.000000000000000222, -1.040834085586084257E-17, 3.469446951953614189E-18 ) ) ;
#66 = APPLICATION_CONTEXT ( 'automotive_design' ) ;
#67 = PROPERTY_DEFINITION_REPRESENTATION ( #100, #104 ) ;
#68 = PROPERTY_DEFINITION ('external definition','', #57 ) ;
#69 =( GEOMETRIC_REPRESENTATION_CONTEXT ( 3 ) GLOBAL_UNCERTAINTY_ASSIGNED_CONTEXT ( ( #79 ) ) GLOBAL_UNIT_ASSIGNED_CONTEXT ( ( #85, #105, #50 ) ) REPRESENTATION_CONTEXT ( 'NONE', 'WORKASPACE' ) );
#70 = CARTESIAN_POINT ( 'NONE',  ( 0.000000000000000000, 0.000000000000000000, 0.000000000000000000 ) ) ;
#71 =( NAMED_UNIT ( * ) SI_UNIT ( $, .STERADIAN. ) SOLID_ANGLE_UNIT ( ) );
#72 = APPLICATION_PROTOCOL_DEFINITION ( 'draft international standard', 'automotive_design', 1998, #49 ) ;
#73 = AXIS2_PLACEMENT_3D ( 'NONE', #70, #7, #45 ) ;
#74 = AXIS2_PLACEMENT_3D ( 'NONE', #89, #15, #65 ) ;
#75 = DOCUMENT_TYPE ( 'geometry' ) ;
#76 = PRODUCT_DEFINITION_CONTEXT ( 'detailed design', #49, 'design' ) ;
#77 = OBJECT_ROLE ('mandatory',$ ) ;
#78 = DIRECTION ( 'NONE',  ( 1.000000000000000000, 0.000000000000000000, 0.000000000000000000 ) ) ;
#79 = UNCERTAINTY_MEASURE_WITH_UNIT (LENGTH_MEASURE( 1.000000000000000082E-05 ), #85, 'distance_accuracy_value', 'NONE');
#80 = SHAPE_DEFINITION_REPRESENTATION ( #99, #11 ) ;
#81 = APPLICATION_PROTOCOL_DEFINITION ( 'draft international standard', 'automotive_design', 1998, #84 ) ;
#82 = AXIS2_PLACEMENT_3D ( 'NONE', #46, #16, #78 ) ;
#83 = PROPERTY_DEFINITION ('document property','', #92 ) ;
#84 = APPLICATION_CONTEXT ( 'automotive_design' ) ;
#85 =( LENGTH_UNIT ( ) NAMED_UNIT ( * ) SI_UNIT ( .MILLI., .METRE. ) );
#86 = PRODUCT_DEFINITION_CONTEXT ( 'detailed design', #4, 'design' ) ;
#87 = EXTERNAL_SOURCE (IDENTIFIER('') ) ;
#88 = PRODUCT_RELATED_PRODUCT_CATEGORY ( 'part', '', ( #103 ) ) ;
#89 = CARTESIAN_POINT ( 'NONE',  ( 0.000000000000000000, 0.000000000000000000, 0.000000000000000000 ) ) ;
#90 = APPLIED_EXTERNAL_IDENTIFICATION_ASSIGNMENT ( 'eBom-FreeParts.step.STEP' , #33, #6,( #57) ) ;
#91 = ITEM_DEFINED_TRANSFORMATION ( 'NONE', 'NONE', #74,  #82 ) ;
#92 = DOCUMENT_FILE ( 'RDS3225.step.STEP' , '', '', #75, '' ,$ ) ;
#93 = PROPERTY_DEFINITION_REPRESENTATION ( #83, #11 ) ;
#94 = PRODUCT_DEFINITION_SHAPE ( 'NONE', 'NONE',  #43 ) ;
#95 = PRODUCT_RELATED_PRODUCT_CATEGORY ( 'part', '', ( #30 ) ) ;
#96 = APPLICATION_CONTEXT ( 'automotive_design' ) ;
#97 = PRODUCT_DEFINITION_FORMATION_WITH_SPECIFIED_SOURCE ( 'Symmetric', '', #103, .NOT_KNOWN. ) ;
#98 =( NAMED_UNIT ( * ) SI_UNIT ( $, .STERADIAN. ) SOLID_ANGLE_UNIT ( ) );
#99 = PRODUCT_DEFINITION_SHAPE ( 'NONE', 'NONE',  #24 ) ;
#100 = PROPERTY_DEFINITION ('document property','', #57 ) ;
#101 = ROLE_ASSOCIATION ( #17, #48 ) ;
#102 = PRODUCT ( 'RDS3225 v7.step', 'RDS3225 v7.step', '', ( #38 ) ) ;
#103 = PRODUCT ( 'eBom-FreeParts.step', 'eBom-FreeParts.step', '', ( #28 ) ) ;
#104 = SHAPE_REPRESENTATION ( 'eBom-FreeParts.step', ( #58 ), #60 ) ;
#105 =( NAMED_UNIT ( * ) PLANE_ANGLE_UNIT ( ) SI_UNIT ( $, .RADIAN. ) );
#106 = DIRECTION ( 'NONE',  ( 3.469446951953614189E-18, 6.451002926288751382E-18, 1.000000000000000222 ) ) ;
#107 = NEXT_ASSEMBLY_USAGE_OCCURRENCE ( 'NAUO21', ' ', ' ', #43, #24, $ ) ;
#108 = NEXT_ASSEMBLY_USAGE_OCCURRENCE ( 'NAUO22', ' ', ' ', #43, #20, $ ) ;
ENDSEC;
END-ISO-10303-21;
