ISO-10303-21;
HEADER;
FILE_DESCRIPTION (( 'STEP AP214' ),
    '1' );
FILE_NAME ('Right Tail Flap.STEP',
    '2026-08-21T21:09:20',
    ( '' ),
    ( '' ),
    'SwSTEP 2.0',
    'SolidWorks 2026',
    '' );
FILE_SCHEMA (( 'AUTOMOTIVE_DESIGN' ));
ENDSEC;

DATA;
#1 = LINE ( 'NONE', #641, #824 ) ;
#2 = CARTESIAN_POINT ( 'NONE',  ( -62.31360364778192462, 38.36094697911021711, -59.51408996512655136 ) ) ;
#3 = EDGE_LOOP ( 'NONE', ( #234, #155 ) ) ;
#4 = CARTESIAN_POINT ( 'NONE',  ( 4.692277930383287554, 6.701267373356993851, -0.7339609102426447595 ) ) ;
#5 = VECTOR ( 'NONE', #449, 1000.000000000000000 ) ;
#6 = DIRECTION ( 'NONE',  ( 0.05125437091730903477, 0.07319882766237667537, 0.9959994583787304956 ) ) ;
#7 = ORIENTED_EDGE ( 'NONE', *, *, #406, .T. ) ;
#8 = DIRECTION ( 'NONE',  ( 0.8191520442889953513, -0.5735764363510408304, 0.000000000000000000 ) ) ;
#9 = CARTESIAN_POINT ( 'NONE',  ( -67.73180333564874900, 41.33129904658881060, -49.06655896809231621 ) ) ;
#10 = ORIENTED_EDGE ( 'NONE', *, *, #356, .F. ) ;
#11 = DIRECTION ( 'NONE',  ( 0.8191520442889953513, -0.5735764363510408304, 0.000000000000000000 ) ) ;
#12 = VECTOR ( 'NONE', #339, 1000.000000000000227 ) ;
#13 = DIRECTION ( 'NONE',  ( 0.8191520442889953513, -0.5735764363510410524, -1.387778780781450014E-15 ) ) ;
#14 = ORIENTED_EDGE ( 'NONE', *, *, #646, .F. ) ;
#15 = FACE_OUTER_BOUND ( 'NONE', #671, .T. ) ;
#16 = CARTESIAN_POINT ( 'NONE',  ( -64.07048517813633737, 39.11978692447821260, -49.19009866938826292 ) ) ;
#17 = DIRECTION ( 'NONE',  ( -0.5735764363510406083, -0.8191520442889955733, 0.000000000000000000 ) ) ;
#18 = LINE ( 'NONE', #169, #486 ) ;
#19 = ADVANCED_FACE ( 'NONE', ( #805 ), #891, .F. ) ;
#20 = CARTESIAN_POINT ( 'NONE',  ( -67.27102073556808648, 40.50849616952807963, -48.50394960945624945 ) ) ;
#21 = CARTESIAN_POINT ( 'NONE',  ( -63.84293939639433546, 39.65691713584008937, -59.65603198636561899 ) ) ;
#22 = LINE ( 'NONE', #383, #663 ) ;
#23 = ORIENTED_EDGE ( 'NONE', *, *, #528, .F. ) ;
#24 = ADVANCED_FACE ( 'NONE', ( #689 ), #698, .T. ) ;
#25 = CARTESIAN_POINT ( 'NONE',  ( -68.75945358962435705, 41.20185653008342541, -49.42738789851284764 ) ) ;
#26 = STYLED_ITEM ( 'NONE', ( #652 ), #786 ) ;
#27 = CARTESIAN_POINT ( 'NONE',  ( -62.69172814722688258, 35.67976005651189553, -62.46393278369556157 ) ) ;
#28 = DIRECTION ( 'NONE',  ( 0.5712818199444397171, 0.8158749924416692778, -0.08935926873735791642 ) ) ;
#29 = CARTESIAN_POINT ( 'NONE',  ( -64.65568373069901043, 41.09615206941941778, -51.71136392746151955 ) ) ;
#30 = ORIENTED_EDGE ( 'NONE', *, *, #474, .T. ) ;
#31 = CARTESIAN_POINT ( 'NONE',  ( -67.40650177305700197, 39.07486827019169340, -62.45951373696114217 ) ) ;
#32 = CARTESIAN_POINT ( 'NONE',  ( -61.97687328455778299, 36.07534764241687242, -46.85448742031866942 ) ) ;
#33 = DIRECTION ( 'NONE',  ( 0.8191520442889953513, -0.5735764363510408304, 0.000000000000000000 ) ) ;
#34 = ORIENTED_EDGE ( 'NONE', *, *, #748, .T. ) ;
#35 = EDGE_CURVE ( 'NONE', #212, #792, #462, .T. ) ;
#36 = CARTESIAN_POINT ( 'NONE',  ( -67.84711859896154351, 40.11304160344269576, -60.61177907411014587 ) ) ;
#37 = CARTESIAN_POINT ( 'NONE',  ( -62.82551210114721840, 36.48165284007459519, -61.97881857769444025 ) ) ;
#38 = CARTESIAN_POINT ( 'NONE',  ( -61.87612846457356142, 35.99141506899147913, -46.97674450392466383 ) ) ;
#39 = DIRECTION ( 'NONE',  ( 0.5689874895700255397, 0.8223461781468921483, 0.000000000000000000 ) ) ;
#40 = EDGE_LOOP ( 'NONE', ( #947, #894, #653, #611 ) ) ;
#41 = VECTOR ( 'NONE', #76, 1000.000000000000114 ) ;
#42 = CARTESIAN_POINT ( 'NONE',  ( -61.45301499730229722, 33.79036394549341082, -64.36795147204719569 ) ) ;
#43 = CIRCLE ( 'NONE', #585, 1.500000000000000444 ) ;
#44 = DIRECTION ( 'NONE',  ( 0.8207539717850711458, -0.5678858300441919083, 0.06219808545325020144 ) ) ;
#45 = CARTESIAN_POINT ( 'NONE',  ( -59.81150705373216425, 35.69541839663093441, -36.47996663744275736 ) ) ;
#46 = EDGE_LOOP ( 'NONE', ( #278, #547, #239 ) ) ;
#47 = CARTESIAN_POINT ( 'NONE',  ( -67.30578410499178688, 41.37823595791880393, -51.20056472054907459 ) ) ;
#48 = CARTESIAN_POINT ( 'NONE',  ( -68.40948480086935035, 47.49106469048660273, -56.49015214643269189 ) ) ;
#49 = DIRECTION ( 'NONE',  ( -0.000000000000000000, -0.1088746101867890115, -0.9940554910349193030 ) ) ;
#50 = ORIENTED_EDGE ( 'NONE', *, *, #134, .F. ) ;
#51 =( BOUNDED_SURFACE ( )  B_SPLINE_SURFACE ( 3, 2, ( 
 ( #318, #313, #621 ),
 ( #267, #38, #32 ),
 ( #767, #761, #391 ),
 ( #329, #93, #254 ),
 ( #382, #909, #539 ),
 ( #309, #96, #833 ),
 ( #922, #532, #551 ),
 ( #187, #323, #615 ),
 ( #545, #473, #774 ),
 ( #897, #632, #16 ),
 ( #403, #88, #242 ),
 ( #165, #703, #457 ),
 ( #756, #838, #468 ),
 ( #914, #903, #171 ),
 ( #176, #102, #398 ),
 ( #627, #182, #259 ) ),
 .UNSPECIFIED., .F., .F., .T. ) 
 B_SPLINE_SURFACE_WITH_KNOTS ( ( 4, 2, 2, 2, 2, 2, 2, 4 ),
 ( 3, 3 ),
 ( 1.570796326794896114, 1.963495408493620253, 2.159844949342982545, 2.356194490192344393, 2.552544031041706241, 2.748893571891068532, 2.945243112740430824, 3.141592653589792672 ),
 ( 0.000000000000000000, 1.000000000000000000 ),
 .UNSPECIFIED. ) 
 GEOMETRIC_REPRESENTATION_ITEM ( )  RATIONAL_B_SPLINE_SURFACE ( (
 ( 1.000000000000000000, 1.000000000000000000, 1.000000000000000000),
 ( 1.000000000000000000, 1.000153430089902873, 1.000000000000000000),
 ( 1.000000000000000000, 0.9875447544196221950, 1.000000000000000000),
 ( 1.000000000000000000, 0.9538242550875128956, 1.000000000000000000),
 ( 1.000000000000000000, 0.9401537571637362811, 1.000000000000000000),
 ( 1.000000000000000000, 0.9095039307315746502, 1.000000000000000000),
 ( 1.000000000000000000, 0.8925248905390456011, 1.000000000000000000),
 ( 1.000000000000000000, 0.8574602268034000607, 1.000000000000000000),
 ( 1.000000000000000000, 0.8393798858269426733, 1.000000000000000000),
 ( 1.000000000000000000, 0.8049017991193688770, 1.000000000000000000),
 ( 1.000000000000000000, 0.7885212368331929733, 1.000000000000000000),
 ( 1.000000000000000000, 0.7605102254089427527, 1.000000000000000000),
 ( 1.000000000000000000, 0.7489123329829858733, 1.000000000000000000),
 ( 1.000000000000000000, 0.7330669938484937198, 1.000000000000000000),
 ( 1.000000000000000000, 0.7288205844047392912, 1.000000000000000000),
 ( 1.000000000000000000, 0.7288511202296567015, 1.000000000000000000) ) ) 
 REPRESENTATION_ITEM ( '' )  SURFACE ( )  );
#52 = CARTESIAN_POINT ( 'NONE',  ( -62.20143145282418828, 38.52114547575170178, -59.53163581545911853 ) ) ;
#53 = DIRECTION ( 'NONE',  ( 0.5712818199444392731, 0.8158749924416690558, -0.08935926873735827725 ) ) ;
#54 = CARTESIAN_POINT ( 'NONE',  ( -60.65671099108794095, 46.80727701651110095, -52.33687880862302677 ) ) ;
#55 = ORIENTED_EDGE ( 'NONE', *, *, #712, .F. ) ;
#56 = CARTESIAN_POINT ( 'NONE',  ( -69.20876004055551789, 39.82569290883106561, -62.24330661676008702 ) ) ;
#57 = EDGE_CURVE ( 'NONE', #369, #864, #678, .T. ) ;
#58 =( NAMED_UNIT ( * ) PLANE_ANGLE_UNIT ( ) SI_UNIT ( $, .RADIAN. ) );
#59 = ADVANCED_FACE ( 'NONE', ( #752 ), #51, .T. ) ;
#60 = CIRCLE ( 'NONE', #245, 2.000000000000001776 ) ;
#61 = CARTESIAN_POINT ( 'NONE',  ( -64.65568373069901043, 40.22600684535743909, -59.65603198636561899 ) ) ;
#62 = VERTEX_POINT ( 'NONE', #845 ) ;
#63 = CARTESIAN_POINT ( 'NONE',  ( -62.62790198869780056, 37.61587268209707702, -59.70595820712912882 ) ) ;
#64 = CARTESIAN_POINT ( 'NONE',  ( -69.96637982401256295, 39.86097341124036575, -63.36830251351380383 ) ) ;
#65 = ORIENTED_EDGE ( 'NONE', *, *, #321, .F. ) ;
#66 = CARTESIAN_POINT ( 'NONE',  ( -62.89537463320263555, 36.44980663476463434, -49.30763411255608020 ) ) ;
#67 = ADVANCED_FACE ( 'NONE', ( #590 ), #784, .T. ) ;
#68 = EDGE_CURVE ( 'NONE', #808, #888, #1, .T. ) ;
#69 = CARTESIAN_POINT ( 'NONE',  ( -70.47329904945767964, 40.10643483560534861, -64.36795147204719569 ) ) ;
#70 = ORIENTED_EDGE ( 'NONE', *, *, #236, .T. ) ;
#71 = DIRECTION ( 'NONE',  ( -0.5689874895700269830, -0.8223461781468911491, 0.000000000000000000 ) ) ;
#72 = LINE ( 'NONE', #731, #12 ) ;
#73 = DIRECTION ( 'NONE',  ( 0.5712818199444436029, 0.8158749924416661692, -0.08935926873735904052 ) ) ;
#74 = ORIENTED_EDGE ( 'NONE', *, *, #676, .F. ) ;
#75 = VECTOR ( 'NONE', #272, 1000.000000000000227 ) ;
#76 = DIRECTION ( 'NONE',  ( 0.000000000000000000, 0.1088746101867883731, 0.9940554910349194140 ) ) ;
#77 = FILL_AREA_STYLE_COLOUR ( '', #570 ) ;
#78 = ORIENTED_EDGE ( 'NONE', *, *, #507, .T. ) ;
#79 =( GEOMETRIC_REPRESENTATION_CONTEXT ( 3 ) GLOBAL_UNCERTAINTY_ASSIGNED_CONTEXT ( ( #813 ) ) GLOBAL_UNIT_ASSIGNED_CONTEXT ( ( #727, #58, #492 ) ) REPRESENTATION_CONTEXT ( 'NONE', 'WORKASPACE' ) );
#80 = CYLINDRICAL_SURFACE ( 'NONE', #624, 2.000000000000001776 ) ;
#81 = ORIENTED_EDGE ( 'NONE', *, *, #534, .T. ) ;
#82 = EDGE_LOOP ( 'NONE', ( #338, #470, #576, #763 ) ) ;
#83 = EDGE_CURVE ( 'NONE', #108, #325, #569, .T. ) ;
#84 = CARTESIAN_POINT ( 'NONE',  ( -59.84396665678326599, 45.36804208293176544, -60.28154686752713332 ) ) ;
#85 = VECTOR ( 'NONE', #199, 1000.000000000000227 ) ;
#86 = CIRCLE ( 'NONE', #862, 1.500000000000000444 ) ;
#87 = CARTESIAN_POINT ( 'NONE',  ( -70.03684773072174607, 41.70383946443033096, -46.99293022251925578 ) ) ;
#88 = CARTESIAN_POINT ( 'NONE',  ( -62.61670500941683315, 38.94019030612273014, -49.61144604811071446 ) ) ;
#89 = DIRECTION ( 'NONE',  ( 1.898376737504554381E-16, 0.1088746101867886784, 0.9940554910349194140 ) ) ;
#90 =( BOUNDED_CURVE ( )  B_SPLINE_CURVE ( 3, ( #500, #128, #64, #69 ),
 .UNSPECIFIED., .F., .T. ) 
 B_SPLINE_CURVE_WITH_KNOTS ( ( 4, 4 ),
 ( 0.9627295598343824645, 1.570796326794896114 ),
 .UNSPECIFIED. ) 
 CURVE ( )  GEOMETRIC_REPRESENTATION_ITEM ( )  RATIONAL_B_SPLINE_CURVE ( ( 1.000000000000000000, 0.9694245168361513842, 0.9694245168361513842, 1.000000000000000000 ) ) 
 REPRESENTATION_ITEM ( '' )  );
#91 = EDGE_CURVE ( 'NONE', #269, #864, #72, .T. ) ;
#92 = CARTESIAN_POINT ( 'NONE',  ( -67.55635817659435816, 40.57274476490245974, -48.34086443396682142 ) ) ;
#93 = CARTESIAN_POINT ( 'NONE',  ( -62.57422457999088294, 36.93873883530094560, -48.20237925646905808 ) ) ;
#94 = EDGE_LOOP ( 'NONE', ( #700, #705, #55, #447 ) ) ;
#95 = CARTESIAN_POINT ( 'NONE',  ( -66.29719167426914339, 42.23192372950780538, -51.83576009836802001 ) ) ;
#96 = CARTESIAN_POINT ( 'NONE',  ( -62.77491340978293266, 37.58521671523662633, -48.81158485553028470 ) ) ;
#97 = DIRECTION ( 'NONE',  ( -0.000000000000000000, 0.1088746101867894694, 0.9940554910349193030 ) ) ;
#98 = ORIENTED_EDGE ( 'NONE', *, *, #841, .F. ) ;
#99 = AXIS2_PLACEMENT_3D ( 'NONE', #21, #28, #106 ) ;
#100 = CARTESIAN_POINT ( 'NONE',  ( -67.68141674886247472, 39.09854490858656817, -62.60023006391190847 ) ) ;
#101 = CARTESIAN_POINT ( 'NONE',  ( -67.48151970289488588, 41.30705597258527462, -51.02677320213761192 ) ) ;
#102 = CARTESIAN_POINT ( 'NONE',  ( -62.24740455219591695, 39.53018478265501301, -49.71217394948756407 ) ) ;
#103 = FACE_OUTER_BOUND ( 'NONE', #661, .T. ) ;
#104 = FACE_OUTER_BOUND ( 'NONE', #776, .T. ) ;
#105 = CARTESIAN_POINT ( 'NONE',  ( -68.75945358962435705, 39.87871904941442125, -61.50800132892247518 ) ) ;
#106 = DIRECTION ( 'NONE',  ( -0.8191520442889943521, 0.5735764363510424957, 0.000000000000000000 ) ) ;
#107 = CARTESIAN_POINT ( 'NONE',  ( -62.20143145282418828, 38.28934585063142038, -61.64803090312309308 ) ) ;
#108 = VERTEX_POINT ( 'NONE', #931 ) ;
#109 = CARTESIAN_POINT ( 'NONE',  ( -59.94647539861788488, 45.22164442760701064, -62.27354578428459320 ) ) ;
#110 = CARTESIAN_POINT ( 'NONE',  ( -62.46046300243911986, 35.25806807142646448, -61.84531266101519975 ) ) ;
#111 = DIRECTION ( 'NONE',  ( 0.8191520442889952403, -0.5735764363510411634, -8.368777166780536714E-17 ) ) ;
#112 = DIRECTION ( 'NONE',  ( 0.5712818199444392731, 0.8158749924416692778, -0.08935926873735827725 ) ) ;
#113 = ORIENTED_EDGE ( 'NONE', *, *, #720, .F. ) ;
#114 =( BOUNDED_CURVE ( )  B_SPLINE_CURVE ( 3, ( #732, #657, #863, #137 ),
 .UNSPECIFIED., .F., .T. ) 
 B_SPLINE_CURVE_WITH_KNOTS ( ( 4, 4 ),
 ( 3.141592653589791340, 4.712388980384688786 ),
 .UNSPECIFIED. ) 
 CURVE ( )  GEOMETRIC_REPRESENTATION_ITEM ( )  RATIONAL_B_SPLINE_CURVE ( ( 1.000000000000000000, 0.8047378541243648264, 0.8047378541243648264, 1.000000000000000000 ) ) 
 REPRESENTATION_ITEM ( '' )  );
#115 = VECTOR ( 'NONE', #686, 999.9999999999998863 ) ;
#116 = CARTESIAN_POINT ( 'NONE',  ( -62.60438384565049574, 35.40873541973617478, -62.66260771544794750 ) ) ;
#117 = VECTOR ( 'NONE', #475, 1000.000000000000114 ) ;
#118 = LINE ( 'NONE', #415, #75 ) ;
#119 = LINE ( 'NONE', #107, #379 ) ;
#120 = ORIENTED_EDGE ( 'NONE', *, *, #461, .T. ) ;
#121 = PRODUCT_DEFINITION ( 'General', '', #139, #446 ) ;
#122 = CARTESIAN_POINT ( 'NONE',  ( -62.65748664510783783, 35.90275147156171442, -61.06094324786352701 ) ) ;
#123 = DIRECTION ( 'NONE',  ( -0.5712818199444392731, -0.8158749924416690558, 0.08935926873735826337 ) ) ;
#124 = CARTESIAN_POINT ( 'NONE',  ( -58.20245871321311881, 44.00047079772309644, -62.27354578428459320 ) ) ;
#125 = ADVANCED_FACE ( 'NONE', ( #343, #637 ), #510, .F. ) ;
#126 = EDGE_LOOP ( 'NONE', ( #495, #691, #928, #593 ) ) ;
#127 = EDGE_CURVE ( 'NONE', #244, #108, #361, .T. ) ;
#128 = CARTESIAN_POINT ( 'NONE',  ( -69.37707987334812287, 39.77762444998534619, -62.43102315654644485 ) ) ;
#129 = EDGE_LOOP ( 'NONE', ( #158, #113, #643, #680 ) ) ;
#130 = CARTESIAN_POINT ( 'NONE',  ( -61.45301499730229722, 35.75138441500411091, -46.46328882935580395 ) ) ;
#131 = CARTESIAN_POINT ( 'NONE',  ( -64.27940406765844727, 38.09477929197643675, -61.83151884940878773 ) ) ;
#132 = CIRCLE ( 'NONE', #679, 2.000000000000001776 ) ;
#133 = SURFACE_STYLE_FILL_AREA ( #433 ) ;
#134 = EDGE_CURVE ( 'NONE', #835, #369, #598, .T. ) ;
#135 = ORIENTED_EDGE ( 'NONE', *, *, #599, .F. ) ;
#136 = CARTESIAN_POINT ( 'NONE',  ( -66.53740270430598969, 41.04907465548176049, -59.77663692017095087 ) ) ;
#137 = CARTESIAN_POINT ( 'NONE',  ( -70.47329904945767964, 42.06745530511605580, -46.46328882935578264 ) ) ;
#138 = ORIENTED_EDGE ( 'NONE', *, *, #91, .T. ) ;
#139 = PRODUCT_DEFINITION_FORMATION_WITH_SPECIFIED_SOURCE ( 'Symmetric', '', #496, .NOT_KNOWN. ) ;
#140 = CARTESIAN_POINT ( 'NONE',  ( -62.29821893465808103, 46.86835297947829559, -62.27354578428459320 ) ) ;
#141 = CYLINDRICAL_SURFACE ( 'NONE', #162, 1.500000000000000444 ) ;
#142 = DIRECTION ( 'NONE',  ( -0.05125437091731008254, -0.07319882766237593985, -0.9959994583787304956 ) ) ;
#143 = ORIENTED_EDGE ( 'NONE', *, *, #549, .F. ) ;
#144 = DIRECTION ( 'NONE',  ( -0.8191520442889982379, 0.5735764363510368335, 0.000000000000000000 ) ) ;
#145 = CARTESIAN_POINT ( 'NONE',  ( -62.29821893465808103, 46.86835297947829559, -62.27354578428459320 ) ) ;
#146 = VERTEX_POINT ( 'NONE', #483 ) ;
#147 = AXIS2_PLACEMENT_3D ( 'NONE', #4, #295, #886 ) ;
#148 = CARTESIAN_POINT ( 'NONE',  ( -66.34316477362662567, 41.09157164216132685, -61.64083984189181109 ) ) ;
#149 = PRESENTATION_LAYER_ASSIGNMENT (  '', '', ( #26 ) ) ;
#150 = ORIENTED_EDGE ( 'NONE', *, *, #807, .F. ) ;
#151 = EDGE_CURVE ( 'NONE', #916, #822, #876, .T. ) ;
#152 = CARTESIAN_POINT ( 'NONE',  ( -67.75757527760046628, 40.00420071842481207, -60.36231876904918181 ) ) ;
#153 = EDGE_CURVE ( 'NONE', #284, #605, #118, .T. ) ;
#154 = CARTESIAN_POINT ( 'NONE',  ( -58.20245871321311881, 44.00047079772309644, -62.27354578428459320 ) ) ;
#155 = ORIENTED_EDGE ( 'NONE', *, *, #676, .T. ) ;
#156 = CYLINDRICAL_SURFACE ( 'NONE', #811, 2.000000000000001776 ) ;
#157 = CARTESIAN_POINT ( 'NONE',  ( -70.47329904945767964, 42.06745530511606290, -46.46328882935578264 ) ) ;
#158 = ORIENTED_EDGE ( 'NONE', *, *, #505, .F. ) ;
#159 = EDGE_CURVE ( 'NONE', #822, #228, #214, .T. ) ;
#160 = LINE ( 'NONE', #747, #115 ) ;
#161 = EDGE_CURVE ( 'NONE', #173, #146, #408, .T. ) ;
#162 = AXIS2_PLACEMENT_3D ( 'NONE', #48, #44, #562 ) ;
#163 = AXIS2_PLACEMENT_3D ( 'NONE', #61, #73, #512 ) ;
#164 = CARTESIAN_POINT ( 'NONE',  ( -68.43589694277028457, 40.86484841398522860, -47.81454455131562042 ) ) ;
#165 = CARTESIAN_POINT ( 'NONE',  ( -62.62790198870579417, 38.54173315447319936, -51.25259442511185171 ) ) ;
#166 = CARTESIAN_POINT ( 'NONE',  ( -64.75819247253363642, 40.07960919003268430, -61.64803090312309308 ) ) ;
#167 = ORIENTED_EDGE ( 'NONE', *, *, #362, .F. ) ;
#168 = AXIS2_PLACEMENT_3D ( 'NONE', #154, #6, #893 ) ;
#169 = CARTESIAN_POINT ( 'NONE',  ( -65.52432525317655632, 27.53666847221424518, -35.58637395006917359 ) ) ;
#170 = CARTESIAN_POINT ( 'NONE',  ( -68.03697286245930798, 41.17752418576540663, -50.39979636600084234 ) ) ;
#171 = CARTESIAN_POINT ( 'NONE',  ( -63.93897724658663151, 40.33712008870630683, -49.66501324131350970 ) ) ;
#172 = PLANE ( 'NONE',  #229 ) ;
#173 = VERTEX_POINT ( 'NONE', #645 ) ;
#174 = CARTESIAN_POINT ( 'NONE',  ( -69.78420039099435712, 39.85806285240824565, -63.10398549689266900 ) ) ;
#175 = CARTESIAN_POINT ( 'NONE',  ( -64.55317498886438443, 41.24254972474417258, -49.71936501070405967 ) ) ;
#176 = CARTESIAN_POINT ( 'NONE',  ( -62.31360364777693661, 39.23109220318006152, -51.56942190621651889 ) ) ;
#177 = CYLINDRICAL_SURFACE ( 'NONE', #921, 2.000000000000001776 ) ;
#178 = ORIENTED_EDGE ( 'NONE', *, *, #231, .F. ) ;
#179 = VECTOR ( 'NONE', #535, 1000.000000000000000 ) ;
#180 = CARTESIAN_POINT ( 'NONE',  ( -62.20143145282418828, 39.59584117287288052, -49.71936501070406678 ) ) ;
#181 = CARTESIAN_POINT ( 'NONE',  ( -64.66534718382497715, 41.08235122810539508, -49.70181916036514735 ) ) ;
#182 = CARTESIAN_POINT ( 'NONE',  ( -62.20143145282418118, 39.59584117287288763, -49.71936501070407388 ) ) ;
#183 = DIRECTION ( 'NONE',  ( 0.8191520442889953513, -0.5735764363510408304, 6.938893903907222067E-15 ) ) ;
#184 = ORIENTED_EDGE ( 'NONE', *, *, #505, .T. ) ;
#185 = DIRECTION ( 'NONE',  ( 0.8191520442889951292, -0.5735764363510412744, -1.362564463107841371E-15 ) ) ;
#186 = CARTESIAN_POINT ( 'NONE',  ( -66.29719167426914339, 42.23192372950779827, -51.83576009836802001 ) ) ;
#187 = CARTESIAN_POINT ( 'NONE',  ( -62.72676011773528870, 37.47980234414999501, -50.21235949676495380 ) ) ;
#188 = CARTESIAN_POINT ( 'NONE',  ( -64.29770530446361931, 44.64609361200789550, -56.17855473566885394 ) ) ;
#189 = ORIENTED_EDGE ( 'NONE', *, *, #326, .T. ) ;
#190 =( BOUNDED_SURFACE ( )  B_SPLINE_SURFACE ( 3, 2, ( 
 ( #631, #488, #42 ),
 ( #482, #335, #478 ),
 ( #636, #402, #778 ),
 ( #697, #116, #702 ),
 ( #472, #27, #110 ),
 ( #692, #789, #544 ),
 ( #920, #37, #122 ),
 ( #317, #253, #925 ),
 ( #467, #328, #266 ),
 ( #270, #783, #561 ),
 ( #131, #651, #348 ),
 ( #934, #279, #63 ),
 ( #352, #656, #883 ),
 ( #357, #221, #432 ),
 ( #945, #866, #2 ),
 ( #870, #342, #52 ) ),
 .UNSPECIFIED., .F., .F., .T. ) 
 B_SPLINE_SURFACE_WITH_KNOTS ( ( 4, 2, 2, 2, 2, 2, 2, 4 ),
 ( 3, 3 ),
 ( 4.712388980384688786, 5.105088062083412481, 5.301437602932774773, 5.497787143782137065, 5.694136684631499357, 5.890486225480861648, 6.086835766330223940, 6.283185307179586232 ),
 ( 0.000000000000000000, 1.000000000000000000 ),
 .UNSPECIFIED. ) 
 GEOMETRIC_REPRESENTATION_ITEM ( )  RATIONAL_B_SPLINE_SURFACE ( (
 ( 1.000000000000000000, 1.000000000000000000, 1.000000000000000000),
 ( 1.000000000000000000, 1.000162980498564114, 1.000000000000000000),
 ( 1.000000000000000000, 0.9859156089758847052, 1.000000000000000000),
 ( 1.000000000000000000, 0.9475140345274247755, 1.000000000000000000),
 ( 1.000000000000000000, 0.9319140524383462409, 1.000000000000000000),
 ( 1.000000000000000000, 0.8967831073833549826, 1.000000000000000000),
 ( 1.000000000000000000, 0.8772502861561539689, 1.000000000000000000),
 ( 1.000000000000000000, 0.8366785598231520904, 1.000000000000000000),
 ( 1.000000000000000000, 0.8156422777278954372, 1.000000000000000000),
 ( 1.000000000000000000, 0.7752602572565560068, 1.000000000000000000),
 ( 1.000000000000000000, 0.7559322149517270217, 1.000000000000000000),
 ( 1.000000000000000000, 0.7226779319804871315, 1.000000000000000000),
 ( 1.000000000000000000, 0.7087950332380392737, 1.000000000000000000),
 ( 1.000000000000000000, 0.6897678755442382403, 1.000000000000000000),
 ( 1.000000000000000000, 0.6846319508145717325, 1.000000000000000000),
 ( 1.000000000000000000, 0.6846722168599910230, 1.000000000000000000) ) ) 
 REPRESENTATION_ITEM ( '' )  SURFACE ( )  );
#191 = CARTESIAN_POINT ( 'NONE',  ( -65.96800691439169384, 40.44844594817636363, -49.19009866942482745 ) ) ;
#192 = CARTESIAN_POINT ( 'NONE',  ( -70.47329904945765122, 48.99406648454831270, 16.77859892909979678 ) ) ;
#193 = CARTESIAN_POINT ( 'NONE',  ( -60.65671099108794095, 45.93713179244912226, -60.28154686752713332 ) ) ;
#194 = ORIENTED_EDGE ( 'NONE', *, *, #918, .F. ) ;
#195 = AXIS2_PLACEMENT_3D ( 'NONE', #630, #316, #384 ) ;
#196 = ADVANCED_FACE ( 'NONE', ( #419 ), #141, .F. ) ;
#197 = DIRECTION ( 'NONE',  ( 1.955327984818825305E-16, 0.1088746101867886784, 0.9940554910349194140 ) ) ;
#198 = VECTOR ( 'NONE', #273, 1000.000000000000114 ) ;
#199 = DIRECTION ( 'NONE',  ( 0.5712818199444393841, 0.8158749924416690558, -0.08935926873735827725 ) ) ;
#200 = CARTESIAN_POINT ( 'NONE',  ( -63.94544813822894724, 39.51051948051532037, -61.64803090312309308 ) ) ;
#201 = ORIENTED_EDGE ( 'NONE', *, *, #474, .F. ) ;
#202 = DIRECTION ( 'NONE',  ( -8.227749287514297427E-17, 0.1088746101867888727, 0.9940554910349193030 ) ) ;
#203 = ORIENTED_EDGE ( 'NONE', *, *, #428, .F. ) ;
#204 = CARTESIAN_POINT ( 'NONE',  ( -68.75945358962435705, 41.20185653008342541, -49.42738789851284764 ) ) ;
#205 = ADVANCED_FACE ( 'NONE', ( #855 ), #935, .F. ) ;
#206 = DIRECTION ( 'NONE',  ( 0.5689874895700255397, 0.8223461781468921483, 0.000000000000000000 ) ) ;
#207 = ORIENTED_EDGE ( 'NONE', *, *, #574, .T. ) ;
#208 = CARTESIAN_POINT ( 'NONE',  ( -64.75819247253362221, 40.07960919003268430, -61.64803090312309308 ) ) ;
#209 = DIRECTION ( 'NONE',  ( 1.000000000000000000, 0.000000000000000000, 0.000000000000000000 ) ) ;
#210 = VECTOR ( 'NONE', #71, 1000.000000000000114 ) ;
#211 = VECTOR ( 'NONE', #709, 1000.000000000000227 ) ;
#212 = VERTEX_POINT ( 'NONE', #566 ) ;
#213 = CARTESIAN_POINT ( 'NONE',  ( -66.29719167426915760, 41.15722803238660532, -61.64803090312308598 ) ) ;
#214 = LINE ( 'NONE', #707, #723 ) ;
#215 =( BOUNDED_SURFACE ( )  B_SPLINE_SURFACE ( 3, 2, ( 
 ( #821, #157, #751 ),
 ( #453, #87, #381 ),
 ( #742, #754, #241 ),
 ( #164, #685, #226 ),
 ( #308, #674, #608 ),
 ( #92, #372, #385 ),
 ( #20, #9, #312 ),
 ( #521, #613, #170 ),
 ( #812, #445, #407 ),
 ( #191, #640, #101 ),
 ( #858, #414, #47 ),
 ( #550, #930, #706 ),
 ( #843, #773, #765 ),
 ( #258, #275, #556 ),
 ( #181, #626, #620 ),
 ( #175, #565, #186 ) ),
 .UNSPECIFIED., .F., .F., .T. ) 
 B_SPLINE_SURFACE_WITH_KNOTS ( ( 4, 2, 2, 2, 2, 2, 2, 4 ),
 ( 3, 3 ),
 ( 1.570796326794896558, 1.963495408493620697, 2.159844949342982545, 2.356194490192344837, 2.552544031041707129, 2.748893571891068976, 2.945243112740430824, 3.141592653589793116 ),
 ( 0.000000000000000000, 1.000000000000000000 ),
 .UNSPECIFIED. ) 
 GEOMETRIC_REPRESENTATION_ITEM ( )  RATIONAL_B_SPLINE_SURFACE ( (
 ( 1.000000000000000000, 1.000000000000000000, 1.000000000000000000),
 ( 1.000000000000000000, 1.000162980498746634, 1.000000000000000000),
 ( 1.000000000000000000, 0.9859156089756409003, 1.000000000000000000),
 ( 1.000000000000000000, 0.9475140345275465670, 1.000000000000000000),
 ( 1.000000000000000000, 0.9319140524382977242, 1.000000000000000000),
 ( 1.000000000000000000, 0.8967831073834036104, 1.000000000000000000),
 ( 1.000000000000000000, 0.8772502861561869425, 1.000000000000000000),
 ( 1.000000000000000000, 0.8366785598231160082, 1.000000000000000000),
 ( 1.000000000000000000, 0.8156422777276933767, 1.000000000000000000),
 ( 1.000000000000000000, 0.7752602572567562911, 1.000000000000000000),
 ( 1.000000000000000000, 0.7559322149518461487, 1.000000000000000000),
 ( 1.000000000000000000, 0.7226779319803695589, 1.000000000000000000),
 ( 1.000000000000000000, 0.7087950332380972274, 1.000000000000000000),
 ( 1.000000000000000000, 0.6897678755441847276, 1.000000000000000000),
 ( 1.000000000000000000, 0.6846319508146090360, 1.000000000000000000),
 ( 1.000000000000000000, 0.6846722168599934655, 1.000000000000000000) ) ) 
 REPRESENTATION_ITEM ( '' )  SURFACE ( )  );
#216 = LINE ( 'NONE', #349, #441 ) ;
#217 = ORIENTED_EDGE ( 'NONE', *, *, #507, .F. ) ;
#218 = VECTOR ( 'NONE', #896, 1000.000000000000114 ) ;
#219 = CARTESIAN_POINT ( 'NONE',  ( -70.47329904945767964, 42.06745530511605580, -46.46328882935578264 ) ) ;
#220 = CARTESIAN_POINT ( 'NONE',  ( -60.75921973292255984, 45.79073413712436746, -62.27354578428459320 ) ) ;
#221 = CARTESIAN_POINT ( 'NONE',  ( -62.26587780058697064, 38.21863802117174203, -61.62797840080064304 ) ) ;
#222 = ORIENTED_EDGE ( 'NONE', *, *, #83, .T. ) ;
#223 =( BOUNDED_CURVE ( )  B_SPLINE_CURVE ( 3, ( #690, #458, #152, #530 ),
 .UNSPECIFIED., .F., .T. ) 
 B_SPLINE_CURVE_WITH_KNOTS ( ( 4, 4 ),
 ( -3.552713678800500929E-15, 0.9627295598343824645 ),
 .UNSPECIFIED. ) 
 CURVE ( )  GEOMETRIC_REPRESENTATION_ITEM ( )  RATIONAL_B_SPLINE_CURVE ( ( 1.000000000000000000, 0.9242425799739915071, 0.9242425799739915071, 1.000000000000000000 ) ) 
 REPRESENTATION_ITEM ( '' )  );
#224 = FACE_OUTER_BOUND ( 'NONE', #82, .T. ) ;
#225 = EDGE_CURVE ( 'NONE', #274, #847, #519, .T. ) ;
#226 = CARTESIAN_POINT ( 'NONE',  ( -69.20876004047478602, 41.30329069754308335, -48.75242758713189772 ) ) ;
#227 = UNCERTAINTY_MEASURE_WITH_UNIT (LENGTH_MEASURE( 1.000000000000000082E-05 ), #728, 'distance_accuracy_value', 'NONE');
#228 = VERTEX_POINT ( 'NONE', #777 ) ;
#229 = AXIS2_PLACEMENT_3D ( 'NONE', #235, #463, #694 ) ;
#230 = DIRECTION ( 'NONE',  ( 0.8207539717850711458, -0.5678858300441919083, 0.06219808545325020144 ) ) ;
#231 = EDGE_CURVE ( 'NONE', #888, #244, #907, .T. ) ;
#232 = APPLICATION_CONTEXT ( 'automotive_design' ) ;
#233 = DIRECTION ( 'NONE',  ( -0.5712818199444392731, -0.8158749924416692778, 0.08935926873735830500 ) ) ;
#234 = ORIENTED_EDGE ( 'NONE', *, *, #720, .T. ) ;
#235 = CARTESIAN_POINT ( 'NONE',  ( -213.2600401744893190, 130.9823297229168020, -35.58637395006917359 ) ) ;
#236 = EDGE_CURVE ( 'NONE', #792, #581, #18, .T. ) ;
#237 = ADVANCED_FACE ( 'NONE', ( #848 ), #389, .T. ) ;
#238 = CARTESIAN_POINT ( 'NONE',  ( -60.65671099108794095, 46.80727701651109385, -52.33687880862302677 ) ) ;
#239 = ORIENTED_EDGE ( 'NONE', *, *, #333, .F. ) ;
#240 = LINE ( 'NONE', #456, #487 ) ;
#241 = CARTESIAN_POINT ( 'NONE',  ( -69.78420039115582085, 41.53354903388504482, -47.80633036905906152 ) ) ;
#242 = CARTESIAN_POINT ( 'NONE',  ( -64.09512759584181651, 39.33845921095453946, -49.29827905817388256 ) ) ;
#243 = CARTESIAN_POINT ( 'NONE',  ( -61.45301499730229722, 35.75138441500411091, -46.46328882935580395 ) ) ;
#244 = VERTEX_POINT ( 'NONE', #466 ) ;
#245 = AXIS2_PLACEMENT_3D ( 'NONE', #834, #677, #11 ) ;
#246 = VECTOR ( 'NONE', #775, 1000.000000000000114 ) ;
#247 = CARTESIAN_POINT ( 'NONE',  ( -68.54747904054315200, 39.73018324949124036, -62.52266949082870440 ) ) ;
#248 = CARTESIAN_POINT ( 'NONE',  ( -62.29821893465808103, 47.94304867659948144, -52.46127497952952012 ) ) ;
#249 = CARTESIAN_POINT ( 'NONE',  ( -19.25438671330140394, -7.597409521260257037, 20.66005231930175512 ) ) ;
#250 = DIRECTION ( 'NONE',  ( -0.8191520442889945741, 0.5735764363510419406, 0.000000000000000000 ) ) ;
#251 = ORIENTED_EDGE ( 'NONE', *, *, #712, .T. ) ;
#252 = CARTESIAN_POINT ( 'NONE',  ( -70.47329904945767964, 40.10643483560535572, -64.36795147204719569 ) ) ;
#253 = CARTESIAN_POINT ( 'NONE',  ( -62.81365905464237187, 36.97983271163401042, -61.75569657817312930 ) ) ;
#254 = CARTESIAN_POINT ( 'NONE',  ( -63.05279401612865087, 37.09555916576243817, -47.81454455123806468 ) ) ;
#255 = CARTESIAN_POINT ( 'NONE',  ( -69.26296603522439455, 46.25754542326626506, -56.49015214643269189 ) ) ;
#256 = ORIENTED_EDGE ( 'NONE', *, *, #68, .T. ) ;
#257 = CARTESIAN_POINT ( 'NONE',  ( -67.22466146228086359, 40.18972911637812473, -61.74809385334122425 ) ) ;
#258 = CARTESIAN_POINT ( 'NONE',  ( -64.80462810385280648, 40.94325534443569126, -49.66501324131685635 ) ) ;
#259 = CARTESIAN_POINT ( 'NONE',  ( -63.74043065455970947, 40.67346001522680865, -49.71936501070406678 ) ) ;
#260 = DIRECTION ( 'NONE',  ( 0.5689874895700255397, 0.8223461781468921483, 0.000000000000000000 ) ) ;
#261 = EDGE_LOOP ( 'NONE', ( #522, #868, #14, #508 ) ) ;
#262 = CIRCLE ( 'NONE', #412, 1.500000000000000444 ) ;
#263 = ADVANCED_FACE ( 'NONE', ( #104 ), #917, .F. ) ;
#264 = AXIS2_PLACEMENT_3D ( 'NONE', #286, #515, #584 ) ;
#265 = DIRECTION ( 'NONE',  ( 1.955327984818825552E-16, 0.1088746101867886923, 0.9940554910349195250 ) ) ;
#266 = CARTESIAN_POINT ( 'NONE',  ( -62.74236099790081767, 36.56031785897959452, -60.41396238595129375 ) ) ;
#267 = CARTESIAN_POINT ( 'NONE',  ( -61.77538243896567138, 35.90748181164547503, -47.09900012446847484 ) ) ;
#268 = CARTESIAN_POINT ( 'NONE',  ( -62.29821893465808103, 47.07290345253750985, -60.40594303843362667 ) ) ;
#269 = VERTEX_POINT ( 'NONE', #109 ) ;
#270 = CARTESIAN_POINT ( 'NONE',  ( -64.24840582879701856, 37.85136544085758459, -61.90860249764155299 ) ) ;
#271 = EDGE_CURVE ( 'NONE', #228, #835, #413, .T. ) ;
#272 = DIRECTION ( 'NONE',  ( 0.5712818199444392731, 0.8158749924416690558, -0.08935926873735827725 ) ) ;
#273 = DIRECTION ( 'NONE',  ( -0.5712818199444392731, -0.8158749924416690558, 0.08935926873735826337 ) ) ;
#274 = VERTEX_POINT ( 'NONE', #25 ) ;
#275 = CARTESIAN_POINT ( 'NONE',  ( -66.34277152412499845, 42.37729748926869178, -49.72220733721100316 ) ) ;
#276 = DIRECTION ( 'NONE',  ( 1.955327984818825552E-16, 0.1088746101867886923, 0.9940554910349195250 ) ) ;
#277 = CARTESIAN_POINT ( 'NONE',  ( -64.29770530446361931, 44.64609361200789550, -56.17855473566885394 ) ) ;
#278 = ORIENTED_EDGE ( 'NONE', *, *, #406, .F. ) ;
#279 = CARTESIAN_POINT ( 'NONE',  ( -62.44802349069109226, 38.02232172195378013, -61.56965522651216816 ) ) ;
#280 = ORIENTED_EDGE ( 'NONE', *, *, #127, .T. ) ;
#281 = FACE_OUTER_BOUND ( 'NONE', #464, .T. ) ;
#282 = ORIENTED_EDGE ( 'NONE', *, *, #850, .T. ) ;
#283 = DIRECTION ( 'NONE',  ( 0.5712818199444376077, 0.8158749924416704991, -0.08935926873735905440 ) ) ;
#284 = VERTEX_POINT ( 'NONE', #497 ) ;
#285 = CARTESIAN_POINT ( 'NONE',  ( -66.29719167426914339, 41.36177850544582668, -59.78042815727211945 ) ) ;
#286 = CARTESIAN_POINT ( 'NONE',  ( -58.20245871321311881, 44.00047079772309644, -62.27354578428459320 ) ) ;
#287 = AXIS2_PLACEMENT_3D ( 'NONE', #450, #386, #693 ) ;
#288 = MECHANICAL_DESIGN_GEOMETRIC_PRESENTATION_REPRESENTATION (  '', ( #26 ), #455 ) ;
#289 = DIRECTION ( 'NONE',  ( 0.5689874895700269830, 0.8223461781468911491, 0.000000000000000000 ) ) ;
#290 = ORIENTED_EDGE ( 'NONE', *, *, #134, .T. ) ;
#291 = CARTESIAN_POINT ( 'NONE',  ( -62.04766834007226350, 39.81543765586000916, -46.73136663556787340 ) ) ;
#292 = DIRECTION ( 'NONE',  ( 0.000000000000000000, -0.9940554910349193030, 0.1088746101867895111 ) ) ;
#293 = FACE_OUTER_BOUND ( 'NONE', #443, .T. ) ;
#294 = ORIENTED_EDGE ( 'NONE', *, *, #878, .T. ) ;
#295 = DIRECTION ( 'NONE',  ( -0.5712818199444391620, -0.8158749924416692778, 0.08935926873735845766 ) ) ;
#296 = ADVANCED_FACE ( 'NONE', ( #281 ), #944, .T. ) ;
#297 = ORIENTED_EDGE ( 'NONE', *, *, #644, .F. ) ;
#298 = EDGE_CURVE ( 'NONE', #717, #62, #614, .T. ) ;
#299 = DIRECTION ( 'NONE',  ( -0.5712818199444393841, -0.8158749924416691668, 0.08935926873735827725 ) ) ;
#300 = VERTEX_POINT ( 'NONE', #722 ) ;
#301 = VECTOR ( 'NONE', #827, 999.9999999999998863 ) ;
#302 = LINE ( 'NONE', #617, #650 ) ;
#303 = EDGE_CURVE ( 'NONE', #430, #560, #684, .T. ) ;
#304 = CARTESIAN_POINT ( 'NONE',  ( -64.55317498886438443, 41.24254972474417258, -49.71936501070405967 ) ) ;
#305 = ORIENTED_EDGE ( 'NONE', *, *, #426, .F. ) ;
#306 = CARTESIAN_POINT ( 'NONE',  ( -59.84396665678325888, 46.23818730699373702, -52.33687880862303388 ) ) ;
#307 = ADVANCED_BREP_SHAPE_REPRESENTATION ( 'Right Tail Flap', ( #786, #669 ), #79 ) ;
#308 = CARTESIAN_POINT ( 'NONE',  ( -68.13880347798337311, 40.75092308905590244, -47.99615764504597593 ) ) ;
#309 = CARTESIAN_POINT ( 'NONE',  ( -62.60381576467549536, 36.98016353428084813, -49.48008304374891253 ) ) ;
#310 = DIRECTION ( 'NONE',  ( -0.5712818199444393841, -0.8158749924416692778, 0.08935926873735827725 ) ) ;
#311 = CARTESIAN_POINT ( 'NONE',  ( -62.89537463320263555, 35.12780608918072289, -61.37786700922744387 ) ) ;
#312 = CARTESIAN_POINT ( 'NONE',  ( -68.42351361508715968, 41.16230097840134050, -49.90252009859908355 ) ) ;
#313 = CARTESIAN_POINT ( 'NONE',  ( -61.45301499730229722, 35.75138441500411091, -46.46328882935579685 ) ) ;
#314 = CARTESIAN_POINT ( 'NONE',  ( -63.74043065455970947, 40.67346001522680865, -49.71936501070406678 ) ) ;
#315 = EDGE_LOOP ( 'NONE', ( #854, #725, #885, #98 ) ) ;
#316 = DIRECTION ( 'NONE',  ( 0.8207539717850709238, -0.5678858300441920193, 0.06219808545325009735 ) ) ;
#317 = CARTESIAN_POINT ( 'NONE',  ( -64.04067928773471863, 37.08601422464202813, -62.20775772372877555 ) ) ;
#318 = CARTESIAN_POINT ( 'NONE',  ( -61.45301499730229722, 35.75138441500411091, -46.46328882935579685 ) ) ;
#319 = DIRECTION ( 'NONE',  ( -0.8191520442889943521, 0.5735764363510424957, 0.000000000000000000 ) ) ;
#320 = ORIENTED_EDGE ( 'NONE', *, *, #852, .T. ) ;
#321 = EDGE_CURVE ( 'NONE', #373, #212, #355, .T. ) ;
#322 = CARTESIAN_POINT ( 'NONE',  ( -68.03697286253118648, 40.03835473925014554, -60.80073044578340102 ) ) ;
#323 = CARTESIAN_POINT ( 'NONE',  ( -62.79964286251097150, 38.22518721213319282, -49.27132349310370785 ) ) ;
#324 = CARTESIAN_POINT ( 'NONE',  ( -58.20245871321311881, 44.23227042284337784, -60.15715069662062575 ) ) ;
#325 = VERTEX_POINT ( 'NONE', #869 ) ;
#326 = EDGE_CURVE ( 'NONE', #916, #274, #558, .T. ) ;
#327 = CARTESIAN_POINT ( 'NONE',  ( -67.30578410496156039, 40.39773011491544707, -60.15285594415485093 ) ) ;
#328 = CARTESIAN_POINT ( 'NONE',  ( -62.77696885600568066, 37.21047249562722214, -61.67811149535859272 ) ) ;
#329 = CARTESIAN_POINT ( 'NONE',  ( -62.37078466363523432, 36.52736428716436023, -48.64217496064890867 ) ) ;
#330 = CARTESIAN_POINT ( 'NONE',  ( -59.84396665678326599, 45.36804208293175833, -60.28154686752713332 ) ) ;
#331 = EDGE_LOOP ( 'NONE', ( #70, #564, #485, #769 ) ) ;
#332 = CLOSED_SHELL ( 'NONE', ( #770, #394, #205, #655, #741, #24, #237, #67, #498, #125, #912, #816, #837, #375, #19, #494, #334, #263, #296, #607, #950, #683, #943, #938, #59, #405, #196 ) ) ;
#333 = EDGE_CURVE ( 'NONE', #244, #430, #749, .T. ) ;
#334 = ADVANCED_FACE ( 'NONE', ( #360 ), #802, .F. ) ;
#335 = CARTESIAN_POINT ( 'NONE',  ( -61.88946631603938187, 34.15397978617677666, -63.83831007888232278 ) ) ;
#336 = CARTESIAN_POINT ( 'NONE',  ( -59.74145791494864000, 46.38458496231848471, -50.34487989186556689 ) ) ;
#337 = LINE ( 'NONE', #768, #198 ) ;
#338 = ORIENTED_EDGE ( 'NONE', *, *, #534, .F. ) ;
#339 = DIRECTION ( 'NONE',  ( -0.5712818199444393841, -0.8158749924416690558, 0.08935926873735827725 ) ) ;
#340 = PLANE ( 'NONE',  #788 ) ;
#341 = ORIENTED_EDGE ( 'NONE', *, *, #161, .F. ) ;
#342 = CARTESIAN_POINT ( 'NONE',  ( -62.20143145282418118, 38.28934585063142038, -61.64803090312310019 ) ) ;
#343 = FACE_BOUND ( 'NONE', #354, .T. ) ;
#344 = DIRECTION ( 'NONE',  ( 9.243862389501787111E-17, -0.1088746101867888588, -0.9940554910349193030 ) ) ;
#345 = ORIENTED_EDGE ( 'NONE', *, *, #579, .T. ) ;
#346 = CARTESIAN_POINT ( 'NONE',  ( -70.47329904945767964, 40.10643483560535572, -64.36795147204719569 ) ) ;
#347 = AXIS2_PLACEMENT_3D ( 'NONE', #436, #489, #779 ) ;
#348 = CARTESIAN_POINT ( 'NONE',  ( -62.71182438702227557, 37.20549732615739202, -59.92923318701419788 ) ) ;
#349 = CARTESIAN_POINT ( 'NONE',  ( -61.45301499730230432, 42.75286428231998315, 17.46217088558793407 ) ) ;
#350 = EDGE_LOOP ( 'NONE', ( #120, #911, #905, #513, #320, #222, #251, #421, #81 ) ) ;
#351 = CARTESIAN_POINT ( 'NONE',  ( -63.20537887938300514, 37.95750518369981563, -51.42993141344723540 ) ) ;
#352 = CARTESIAN_POINT ( 'NONE',  ( -64.25528750451007909, 38.77122649640550378, -61.67408920259229888 ) ) ;
#353 = FACE_BOUND ( 'NONE', #3, .T. ) ;
#354 = EDGE_LOOP ( 'NONE', ( #481, #143 ) ) ;
#355 = LINE ( 'NONE', #518, #210 ) ;
#356 = EDGE_CURVE ( 'NONE', #373, #434, #439, .T. ) ;
#357 = CARTESIAN_POINT ( 'NONE',  ( -64.14267316951837472, 39.16903506054701722, -61.63220093444297021 ) ) ;
#358 = PLANE ( 'NONE',  #832 ) ;
#359 = VERTEX_POINT ( 'NONE', #874 ) ;
#360 = FACE_OUTER_BOUND ( 'NONE', #729, .T. ) ;
#361 = LINE ( 'NONE', #336, #503 ) ;
#362 = EDGE_CURVE ( 'NONE', #601, #857, #577, .T. ) ;
#363 = PRODUCT_CONTEXT ( 'NONE', #232, 'mechanical' ) ;
#364 = AXIS2_PLACEMENT_3D ( 'NONE', #193, #638, #860 ) ;
#365 = DIRECTION ( 'NONE',  ( 0.000000000000000000, 0.9973102921620563555, -0.07329516455833759436 ) ) ;
#366 = ORIENTED_EDGE ( 'NONE', *, *, #599, .T. ) ;
#367 = FACE_OUTER_BOUND ( 'NONE', #350, .T. ) ;
#368 = CARTESIAN_POINT ( 'NONE',  ( -66.29719167426914339, 42.23192372950780538, -51.83576009836802001 ) ) ;
#369 = VERTEX_POINT ( 'NONE', #672 ) ;
#370 = VECTOR ( 'NONE', #233, 999.9999999999998863 ) ;
#371 = CARTESIAN_POINT ( 'NONE',  ( -19.25438671330140394, 3.478953647112787095, -71.33994768069833015 ) ) ;
#372 = CARTESIAN_POINT ( 'NONE',  ( -67.97322402818977594, 41.28460100551718170, -48.88944653276352881 ) ) ;
#373 = VERTEX_POINT ( 'NONE', #435 ) ;
#374 = CARTESIAN_POINT ( 'NONE',  ( -68.12941455366204480, 38.65693522013445005, -62.61762254824118656 ) ) ;
#375 = ADVANCED_FACE ( 'NONE', ( #367 ), #668, .F. ) ;
#376 = LINE ( 'NONE', #760, #418 ) ;
#377 = AXIS2_PLACEMENT_3D ( 'NONE', #859, #276, #292 ) ;
#378 = ORIENTED_EDGE ( 'NONE', *, *, #225, .F. ) ;
#379 = VECTOR ( 'NONE', #344, 1000.000000000000227 ) ;
#380 = CARTESIAN_POINT ( 'NONE',  ( -60.20194508301864289, 41.81220639004468609, -55.86817129190018960 ) ) ;
#381 = CARTESIAN_POINT ( 'NONE',  ( -70.15093160769050940, 41.76853692745439872, -47.13157283766967254 ) ) ;
#382 = CARTESIAN_POINT ( 'NONE',  ( -62.46046300246901950, 36.67239567610869955, -48.93210802066483467 ) ) ;
#383 = CARTESIAN_POINT ( 'NONE',  ( -58.20245871321311881, 44.00047079772309644, -62.27354578428459320 ) ) ;
#384 = DIRECTION ( 'NONE',  ( 0.5689874895700269830, 0.8223461781468911491, 0.000000000000000000 ) ) ;
#385 = CARTESIAN_POINT ( 'NONE',  ( -68.62019055121982092, 41.17625280796593756, -49.63184383261337018 ) ) ;
#386 = DIRECTION ( 'NONE',  ( 9.243862389501788343E-17, -0.1088746101867888866, -0.9940554910349195250 ) ) ;
#387 = DIRECTION ( 'NONE',  ( 0.5712818199444387179, 0.8158749924416691668, -0.08935926873736216303 ) ) ;
#388 = ORIENTED_EDGE ( 'NONE', *, *, #906, .F. ) ;
#389 = PLANE ( 'NONE',  #195 ) ;
#390 = CARTESIAN_POINT ( 'NONE',  ( -62.20143145282418828, 38.28934585063141327, -61.64803090312309308 ) ) ;
#391 = CARTESIAN_POINT ( 'NONE',  ( -62.45572982106358495, 36.46277175878582710, -47.25236843168318757 ) ) ;
#392 = FACE_OUTER_BOUND ( 'NONE', #126, .T. ) ;
#393 = EDGE_LOOP ( 'NONE', ( #65, #150, #404, #695 ) ) ;
#394 = ADVANCED_FACE ( 'NONE', ( #224 ), #444, .T. ) ;
#395 = CARTESIAN_POINT ( 'NONE',  ( -68.42351361501528118, 39.92216005286584846, -61.22535188264479444 ) ) ;
#396 = EDGE_CURVE ( 'NONE', #635, #300, #597, .T. ) ;
#397 = LINE ( 'NONE', #105, #542 ) ;
#398 = CARTESIAN_POINT ( 'NONE',  ( -63.85260284951745291, 40.51326151859666425, -49.70181916036592895 ) ) ;
#399 = DIRECTION ( 'NONE',  ( -0.8191520442889953513, 0.5735764363510410524, 0.000000000000000000 ) ) ;
#400 = ORIENTED_EDGE ( 'NONE', *, *, #852, .F. ) ;
#401 = CARTESIAN_POINT ( 'NONE',  ( -66.14592756510702998, 39.18002446447469822, -61.90860249767013102 ) ) ;
#402 = CARTESIAN_POINT ( 'NONE',  ( -62.25447000171190126, 34.64155517701343001, -63.30959644614068793 ) ) ;
#403 = CARTESIAN_POINT ( 'NONE',  ( -62.71182438701428197, 38.18600316921605753, -50.97694196341739570 ) ) ;
#404 = ORIENTED_EDGE ( 'NONE', *, *, #236, .F. ) ;
#405 = ADVANCED_FACE ( 'NONE', ( #757 ), #156, .T. ) ;
#406 = EDGE_CURVE ( 'NONE', #560, #244, #951, .T. ) ;
#407 = CARTESIAN_POINT ( 'NONE',  ( -67.84711859901678110, 41.20669884651587012, -50.62638407757703618 ) ) ;
#408 = LINE ( 'NONE', #220, #85 ) ;
#409 = CARTESIAN_POINT ( 'NONE',  ( -58.20245871321311881, 44.23227042284337784, -60.15715069662062575 ) ) ;
#410 = ORIENTED_EDGE ( 'NONE', *, *, #918, .T. ) ;
#411 = AXIS2_PLACEMENT_3D ( 'NONE', #740, #299, #8 ) ;
#412 = AXIS2_PLACEMENT_3D ( 'NONE', #380, #681, #828 ) ;
#413 =( BOUNDED_CURVE ( )  B_SPLINE_CURVE ( 3, ( #758, #311, #830, #901 ),
 .UNSPECIFIED., .F., .F. ) 
 B_SPLINE_CURVE_WITH_KNOTS ( ( 4, 4 ),
 ( 4.712388980384689674, 6.283185307179586232 ),
 .UNSPECIFIED. ) 
 CURVE ( )  GEOMETRIC_REPRESENTATION_ITEM ( )  RATIONAL_B_SPLINE_CURVE ( ( 1.000000000000000000, 0.8047378541243649375, 0.8047378541243649375, 1.000000000000000000 ) ) 
 REPRESENTATION_ITEM ( '' )  );
#414 = CARTESIAN_POINT ( 'NONE',  ( -66.65120396514279832, 41.91379681250455747, -49.68472104595267069 ) ) ;
#415 = CARTESIAN_POINT ( 'NONE',  ( -213.2600401744893190, 130.9823297229168020, -35.58637395006917359 ) ) ;
#416 = DIRECTION ( 'NONE',  ( 0.8191520442889953513, -0.5735764363510410524, -0.000000000000000000 ) ) ;
#417 = ORIENTED_EDGE ( 'NONE', *, *, #271, .F. ) ;
#418 = VECTOR ( 'NONE', #13, 1000.000000000000227 ) ;
#419 = FACE_OUTER_BOUND ( 'NONE', #129, .T. ) ;
#420 = FACE_OUTER_BOUND ( 'NONE', #491, .T. ) ;
#421 = ORIENTED_EDGE ( 'NONE', *, *, #298, .T. ) ;
#422 = CARTESIAN_POINT ( 'NONE',  ( -70.05018558216981717, 39.86640418160900623, -63.85449579749067794 ) ) ;
#423 = CARTESIAN_POINT ( 'NONE',  ( -70.47329904945767964, 40.10643483560534861, -64.36795147204719569 ) ) ;
#424 = EDGE_LOOP ( 'NONE', ( #217, #861, #345, #517 ) ) ;
#425 = CARTESIAN_POINT ( 'NONE',  ( -66.97517682595442068, 40.63400986205321885, -59.94204375488165937 ) ) ;
#426 = EDGE_CURVE ( 'NONE', #284, #359, #160, .T. ) ;
#427 = AXIS2_PLACEMENT_3D ( 'NONE', #29, #387, #319 ) ;
#428 = EDGE_CURVE ( 'NONE', #658, #587, #223, .T. ) ;
#429 =( NAMED_UNIT ( * ) SI_UNIT ( $, .STERADIAN. ) SOLID_ANGLE_UNIT ( ) );
#430 = VERTEX_POINT ( 'NONE', #819 ) ;
#431 = DIRECTION ( 'NONE',  ( 0.8191520442889951292, -0.5735764363510412744, -1.362564463107841371E-15 ) ) ;
#432 = CARTESIAN_POINT ( 'NONE',  ( -62.40989856907412303, 38.18603864764416045, -59.52944831567473472 ) ) ;
#433 = FILL_AREA_STYLE ('',( #77 ) ) ;
#434 = VERTEX_POINT ( 'NONE', #815 ) ;
#435 = CARTESIAN_POINT ( 'NONE',  ( -59.81150705373215715, 31.87735503756039535, -71.33994768069833015 ) ) ;
#436 = CARTESIAN_POINT ( 'NONE',  ( -65.52432525317655632, 27.53666847221424518, -35.58637395006917359 ) ) ;
#437 = DIRECTION ( 'NONE',  ( 0.8207539717850711458, -0.5678858300441919083, 0.06219808545325020144 ) ) ;
#438 = ORIENTED_EDGE ( 'NONE', *, *, #68, .F. ) ;
#439 = LINE ( 'NONE', #371, #520 ) ;
#440 = VECTOR ( 'NONE', #230, 1000.000000000000000 ) ;
#441 = VECTOR ( 'NONE', #202, 1000.000000000000114 ) ;
#442 = DIRECTION ( 'NONE',  ( -0.5712818199444392731, -0.8158749924416690558, 0.08935926873735826337 ) ) ;
#443 = EDGE_LOOP ( 'NONE', ( #74, #184, #501, #797 ) ) ;
#444 = CYLINDRICAL_SURFACE ( 'NONE', #411, 2.000000000000001776 ) ;
#445 = CARTESIAN_POINT ( 'NONE',  ( -67.09996519855609165, 41.57416470589830482, -49.47369055170859298 ) ) ;
#446 = PRODUCT_DEFINITION_CONTEXT ( 'detailed design', #820, 'design' ) ;
#447 = ORIENTED_EDGE ( 'NONE', *, *, #841, .T. ) ;
#448 = DIRECTION ( 'NONE',  ( 0.8207539717850711458, -0.5678858300441919083, 0.06219808545325020144 ) ) ;
#449 = DIRECTION ( 'NONE',  ( -0.8191520442889951292, 0.5735764363510412744, 1.358563245085661359E-15 ) ) ;
#450 = CARTESIAN_POINT ( 'NONE',  ( -59.73916953746897462, 36.58568836049884254, -61.46143664676333884 ) ) ;
#451 = DIRECTION ( 'NONE',  ( -0.8191520442889953513, 0.5735764363510411634, 9.981771629505807572E-17 ) ) ;
#452 =( BOUNDED_CURVE ( )  B_SPLINE_CURVE ( 3, ( #610, #374, #823, #166 ),
 .UNSPECIFIED., .F., .F. ) 
 B_SPLINE_CURVE_WITH_KNOTS ( ( 4, 4 ),
 ( 4.712388980384690562, 6.283185307179586232 ),
 .UNSPECIFIED. ) 
 CURVE ( )  GEOMETRIC_REPRESENTATION_ITEM ( )  RATIONAL_B_SPLINE_CURVE ( ( 1.000000000000000000, 0.8047378541243652705, 0.8047378541243652705, 1.000000000000000000 ) ) 
 REPRESENTATION_ITEM ( '' )  );
#453 = CARTESIAN_POINT ( 'NONE',  ( -69.92259919767127485, 41.63900482331342801, -46.85448742044350467 ) ) ;
#454 = EDGE_LOOP ( 'NONE', ( #639, #814, #297, #290 ) ) ;
#455 =( GEOMETRIC_REPRESENTATION_CONTEXT ( 3 ) GLOBAL_UNCERTAINTY_ASSIGNED_CONTEXT ( ( #227 ) ) GLOBAL_UNIT_ASSIGNED_CONTEXT ( ( #728, #940, #429 ) ) REPRESENTATION_CONTEXT ( 'NONE', 'WORKASPACE' ) );
#456 = CARTESIAN_POINT ( 'NONE',  ( -66.29719167426914339, 41.15722803238661953, -61.64803090312309308 ) ) ;
#457 = CARTESIAN_POINT ( 'NONE',  ( -64.08829850594757715, 39.75841708818311560, -49.48037742684820017 ) ) ;
#458 = CARTESIAN_POINT ( 'NONE',  ( -66.86954653972502172, 40.54437104519586654, -59.69090104394583562 ) ) ;
#459 = DIRECTION ( 'NONE',  ( 0.5712818199444392731, 0.8158749924416690558, -0.08935926873735827725 ) ) ;
#460 = LINE ( 'NONE', #600, #370 ) ;
#461 = EDGE_CURVE ( 'NONE', #269, #146, #22, .T. ) ;
#462 = LINE ( 'NONE', #609, #301 ) ;
#463 = DIRECTION ( 'NONE',  ( -0.8207539717850709238, 0.5678858300441920193, -0.06219808545325047205 ) ) ;
#464 = EDGE_LOOP ( 'NONE', ( #924, #629, #203, #596 ) ) ;
#465 = EDGE_CURVE ( 'NONE', #146, #601, #60, .T. ) ;
#466 = CARTESIAN_POINT ( 'NONE',  ( -63.74043065455970947, 40.67346001522680865, -49.71936501070406678 ) ) ;
#467 = CARTESIAN_POINT ( 'NONE',  ( -64.12904196392007350, 37.34697667489808737, -62.09672425927750083 ) ) ;
#468 = CARTESIAN_POINT ( 'NONE',  ( -64.05682716702561663, 39.95969230199511202, -49.55429090714833507 ) ) ;
#469 = LINE ( 'NONE', #409, #117 ) ;
#470 = ORIENTED_EDGE ( 'NONE', *, *, #578, .T. ) ;
#471 = CARTESIAN_POINT ( 'NONE',  ( -67.48151970295012347, 40.29273151144442267, -60.28783782075317532 ) ) ;
#472 = CARTESIAN_POINT ( 'NONE',  ( -63.33447814041345936, 35.75389352110335750, -62.90594548639796812 ) ) ;
#473 = CARTESIAN_POINT ( 'NONE',  ( -62.77102080971184250, 38.42531805512562926, -49.38513372924703759 ) ) ;
#474 = EDGE_CURVE ( 'NONE', #434, #605, #302, .T. ) ;
#475 = DIRECTION ( 'NONE',  ( 0.5712818199444392731, 0.8158749924416690558, -0.08935926873735827725 ) ) ;
#476 = ORIENTED_EDGE ( 'NONE', *, *, #461, .F. ) ;
#477 = CARTESIAN_POINT ( 'NONE',  ( -69.38137060519930799, 39.52245774611773754, -63.59282656530366751 ) ) ;
#478 = CARTESIAN_POINT ( 'NONE',  ( -61.77538243906504789, 34.08928232315212625, -63.69966746373187050 ) ) ;
#479 = DIRECTION ( 'NONE',  ( -1.965220324536263091E-16, -0.1088746101867886923, -0.9940554910349194140 ) ) ;
#480 = DIRECTION ( 'NONE',  ( 0.5712818199444392731, 0.8158749924416692778, -0.08935926873735845766 ) ) ;
#481 = ORIENTED_EDGE ( 'NONE', *, *, #682, .F. ) ;
#482 = CARTESIAN_POINT ( 'NONE',  ( -62.00371484909474162, 34.21881442729914369, -63.97675288096984758 ) ) ;
#483 = CARTESIAN_POINT ( 'NONE',  ( -60.75921973292255984, 45.79073413712436746, -62.27354578428459320 ) ) ;
#484 = FACE_BOUND ( 'NONE', #568, .T. ) ;
#485 = ORIENTED_EDGE ( 'NONE', *, *, #153, .F. ) ;
#486 = VECTOR ( 'NONE', #459, 1000.000000000000227 ) ;
#487 = VECTOR ( 'NONE', #89, 1000.000000000000114 ) ;
#488 = CARTESIAN_POINT ( 'NONE',  ( -61.45301499730229722, 33.79036394549341082, -64.36795147204719569 ) ) ;
#489 = DIRECTION ( 'NONE',  ( 0.05125437091730895844, 0.07319882766237674476, 0.9959994583787304956 ) ) ;
#490 = CARTESIAN_POINT ( 'NONE',  ( -61.45301499730229722, 33.79036394549341793, -64.36795147204719569 ) ) ;
#491 = EDGE_LOOP ( 'NONE', ( #10, #541, #78, #366 ) ) ;
#492 =( NAMED_UNIT ( * ) SI_UNIT ( $, .STERADIAN. ) SOLID_ANGLE_UNIT ( ) );
#493 = CARTESIAN_POINT ( 'NONE',  ( -60.55420224925332207, 46.95367467183584154, -50.34487989186555978 ) ) ;
#494 = ADVANCED_FACE ( 'NONE', ( #392 ), #753, .F. ) ;
#495 = ORIENTED_EDGE ( 'NONE', *, *, #159, .F. ) ;
#496 = PRODUCT ( 'Right Tail Flap', 'Right Tail Flap', '', ( #363 ) ) ;
#497 = CARTESIAN_POINT ( 'NONE',  ( -211.6378007648932567, 133.2991277021899919, -35.84012283949214606 ) ) ;
#498 = ADVANCED_FACE ( 'NONE', ( #602 ), #172, .T. ) ;
#499 = APPLICATION_PROTOCOL_DEFINITION ( 'draft international standard', 'automotive_design', 1998, #820 ) ;
#500 = CARTESIAN_POINT ( 'NONE',  ( -68.75945358962435705, 39.86403325612501192, -61.64208670874148055 ) ) ;
#501 = ORIENTED_EDGE ( 'NONE', *, *, #549, .T. ) ;
#502 = CARTESIAN_POINT ( 'NONE',  ( -65.51478030871084002, 39.41732592834338789, -61.71426075314585091 ) ) ;
#503 = VECTOR ( 'NONE', #53, 1000.000000000000227 ) ;
#504 = CIRCLE ( 'NONE', #163, 2.000000000000000000 ) ;
#505 = EDGE_CURVE ( 'NONE', #618, #553, #895, .T. ) ;
#506 = LINE ( 'NONE', #580, #825 ) ;
#507 = EDGE_CURVE ( 'NONE', #212, #359, #526, .T. ) ;
#508 = ORIENTED_EDGE ( 'NONE', *, *, #303, .T. ) ;
#509 = CARTESIAN_POINT ( 'NONE',  ( -65.33053646435534745, 39.52412392355641657, -61.67408920259097727 ) ) ;
#510 = PLANE ( 'NONE',  #264 ) ;
#511 = VECTOR ( 'NONE', #442, 1000.000000000000227 ) ;
#512 = DIRECTION ( 'NONE',  ( -0.8191520442889926867, 0.5735764363510448272, 0.000000000000000000 ) ) ;
#513 = ORIENTED_EDGE ( 'NONE', *, *, #603, .T. ) ;
#514 = DIRECTION ( 'NONE',  ( -0.8191520442889952403, 0.5735764363510411634, 0.000000000000000000 ) ) ;
#515 = DIRECTION ( 'NONE',  ( -0.8207539717850709238, 0.5678858300441920193, -0.06219808545325020144 ) ) ;
#516 = APPLICATION_PROTOCOL_DEFINITION ( 'draft international standard', 'automotive_design', 1998, #232 ) ;
#517 = ORIENTED_EDGE ( 'NONE', *, *, #426, .T. ) ;
#518 = CARTESIAN_POINT ( 'NONE',  ( -60.43692042972757861, 30.97345766030798231, -71.33994768069833015 ) ) ;
#519 =( BOUNDED_CURVE ( )  B_SPLINE_CURVE ( 3, ( #204, #687, #842, #95 ),
 .UNSPECIFIED., .F., .T. ) 
 B_SPLINE_CURVE_WITH_KNOTS ( ( 4, 4 ),
 ( 2.178863093755410762, 3.141592653589795781 ),
 .UNSPECIFIED. ) 
 CURVE ( )  GEOMETRIC_REPRESENTATION_ITEM ( )  RATIONAL_B_SPLINE_CURVE ( ( 1.000000000000000000, 0.9242425799739916181, 0.9242425799739916181, 1.000000000000000000 ) ) 
 REPRESENTATION_ITEM ( '' )  );
#520 = VECTOR ( 'NONE', #514, 1000.000000000000000 ) ;
#521 = CARTESIAN_POINT ( 'NONE',  ( -66.72305369247398232, 40.43214285884254622, -48.80533221882951267 ) ) ;
#522 = ORIENTED_EDGE ( 'NONE', *, *, #782, .F. ) ;
#523 = CARTESIAN_POINT ( 'NONE',  ( -66.82031331407654307, 40.76528516741533537, -59.86621865132177334 ) ) ;
#524 = FACE_OUTER_BOUND ( 'NONE', #952, .T. ) ;
#525 = ORIENTED_EDGE ( 'NONE', *, *, #161, .T. ) ;
#526 = LINE ( 'NONE', #898, #179 ) ;
#527 = FACE_OUTER_BOUND ( 'NONE', #743, .T. ) ;
#528 = EDGE_CURVE ( 'NONE', #847, #888, #554, .T. ) ;
#529 = ORIENTED_EDGE ( 'NONE', *, *, #748, .F. ) ;
#530 = CARTESIAN_POINT ( 'NONE',  ( -68.75945358962435705, 39.86403325612501192, -61.64208670874148055 ) ) ;
#531 = CARTESIAN_POINT ( 'NONE',  ( -62.29821893465808103, 47.94304867659947433, -52.46127497952952012 ) ) ;
#532 = CARTESIAN_POINT ( 'NONE',  ( -62.80060453186865743, 37.80485626373492636, -48.98354525054699593 ) ) ;
#533 = CIRCLE ( 'NONE', #665, 1.500000000000000444 ) ;
#534 = EDGE_CURVE ( 'NONE', #62, #269, #132, .T. ) ;
#535 = DIRECTION ( 'NONE',  ( -0.8191520442889952403, 0.5735764363510411634, 0.000000000000000000 ) ) ;
#536 = ORIENTED_EDGE ( 'NONE', *, *, #326, .F. ) ;
#537 = CARTESIAN_POINT ( 'NONE',  ( -68.79953429163613521, 39.70821098728374210, -62.71529111265633816 ) ) ;
#538 = LINE ( 'NONE', #604, #5 ) ;
#539 = CARTESIAN_POINT ( 'NONE',  ( -63.23173349028288470, 37.31495569319250194, -47.99615764511665361 ) ) ;
#540 = CARTESIAN_POINT ( 'NONE',  ( -62.35519456557611306, 38.06974936764428463, -64.63602927825927225 ) ) ;
#541 = ORIENTED_EDGE ( 'NONE', *, *, #321, .T. ) ;
#542 = VECTOR ( 'NONE', #197, 1000.000000000000114 ) ;
#543 = CARTESIAN_POINT ( 'NONE',  ( -68.24154812806567350, 39.18986091703974495, -62.90594548633729488 ) ) ;
#544 = CARTESIAN_POINT ( 'NONE',  ( -62.60381576470540210, 35.68456582856020987, -61.30925066520398303 ) ) ;
#545 = CARTESIAN_POINT ( 'NONE',  ( -62.74236099789965238, 37.65397510213475840, -50.42856738942794692 ) ) ;
#546 = CARTESIAN_POINT ( 'NONE',  ( -65.15118653881864930, 43.41257434478755783, -56.17855473566886104 ) ) ;
#547 = ORIENTED_EDGE ( 'NONE', *, *, #303, .F. ) ;
#548 = CARTESIAN_POINT ( 'NONE',  ( -66.62344859760270310, 39.09357900322687129, -62.09672425924892281 ) ) ;
#549 = EDGE_CURVE ( 'NONE', #553, #300, #262, .T. ) ;
#550 = CARTESIAN_POINT ( 'NONE',  ( -65.32023386655279751, 40.62102751430445835, -49.48037742686469187 ) ) ;
#551 = CARTESIAN_POINT ( 'NONE',  ( -63.67449848707930471, 37.99018417985424634, -48.50394960951206258 ) ) ;
#552 = DIRECTION ( 'NONE',  ( 0.8207539717850711458, -0.5678858300441919083, 0.06219808545325020144 ) ) ;
#553 = VERTEX_POINT ( 'NONE', #744 ) ;
#554 = CIRCLE ( 'NONE', #427, 1.999999999999996003 ) ;
#555 = CARTESIAN_POINT ( 'NONE',  ( -70.47329904945767964, 40.10643483560535572, -64.36795147204719569 ) ) ;
#556 = CARTESIAN_POINT ( 'NONE',  ( -66.53740270429696579, 41.92625175733946463, -51.76776586008536185 ) ) ;
#557 = DIRECTION ( 'NONE',  ( -0.5712818199444400502, -0.8158749924416701660, -0.08935926873734645337 ) ) ;
#558 =( BOUNDED_CURVE ( )  B_SPLINE_CURVE ( 3, ( #219, #734, #662, #654 ),
 .UNSPECIFIED., .F., .F. ) 
 B_SPLINE_CURVE_WITH_KNOTS ( ( 4, 4 ),
 ( 1.570796326794897668, 2.178863093755410762 ),
 .UNSPECIFIED. ) 
 CURVE ( )  GEOMETRIC_REPRESENTATION_ITEM ( )  RATIONAL_B_SPLINE_CURVE ( ( 1.000000000000000000, 0.9694245168361514953, 0.9694245168361514953, 1.000000000000000000 ) ) 
 REPRESENTATION_ITEM ( '' )  );
#559 = DIRECTION ( 'NONE',  ( -0.5712818199444393841, -0.8158749924416691668, 0.08935926873735827725 ) ) ;
#560 = VERTEX_POINT ( 'NONE', #243 ) ;
#561 = CARTESIAN_POINT ( 'NONE',  ( -62.73489304029094882, 36.99275541645002363, -60.07192796492983433 ) ) ;
#562 = DIRECTION ( 'NONE',  ( 0.5689874895700255397, 0.8223461781468921483, 0.000000000000000000 ) ) ;
#563 = CARTESIAN_POINT ( 'NONE',  ( -68.75945358962435705, 39.86403325612501192, -61.64208670874148055 ) ) ;
#564 = ORIENTED_EDGE ( 'NONE', *, *, #739, .F. ) ;
#565 = CARTESIAN_POINT ( 'NONE',  ( -66.29719167426914339, 42.46372335462807257, -49.71936501070404546 ) ) ;
#566 = CARTESIAN_POINT ( 'NONE',  ( -60.27760160426139180, 31.20371795535942283, -71.33994768069833015 ) ) ;
#567 = CARTESIAN_POINT ( 'NONE',  ( -63.44422407010858223, 45.87961287922823317, -56.17855473566885394 ) ) ;
#568 = EDGE_LOOP ( 'NONE', ( #733, #794, #840, #933 ) ) ;
#569 = CIRCLE ( 'NONE', #873, 2.000000000000001776 ) ;
#570 = COLOUR_RGB ( '',0.7921568627450980005, 0.8196078431372548767, 0.9333333333333333481 ) ;
#571 = EDGE_CURVE ( 'NONE', #822, #173, #452, .T. ) ;
#572 = EDGE_LOOP ( 'NONE', ( #829, #715, #880, #30 ) ) ;
#573 = CARTESIAN_POINT ( 'NONE',  ( -70.15093160778729953, 39.95033743895860567, -63.73224017693887333 ) ) ;
#574 = EDGE_CURVE ( 'NONE', #658, #847, #240, .T. ) ;
#575 = DIRECTION ( 'NONE',  ( -0.000000000000000000, -0.1088746101867888449, -0.9940554910349193030 ) ) ;
#576 = ORIENTED_EDGE ( 'NONE', *, *, #57, .T. ) ;
#577 = LINE ( 'NONE', #140, #41 ) ;
#578 = EDGE_CURVE ( 'NONE', #62, #369, #337, .T. ) ;
#579 = EDGE_CURVE ( 'NONE', #792, #284, #699, .T. ) ;
#580 = CARTESIAN_POINT ( 'NONE',  ( -59.81150705373216425, 31.87735503756039535, -71.33994768069833015 ) ) ;
#581 = VERTEX_POINT ( 'NONE', #642 ) ;
#582 = CARTESIAN_POINT ( 'NONE',  ( -66.38558537017520678, 41.02340041881200250, -61.62899482474508517 ) ) ;
#583 = AXIS2_PLACEMENT_3D ( 'NONE', #291, #431, #659 ) ;
#584 = DIRECTION ( 'NONE',  ( -0.5689874895700269830, -0.8223461781468911491, 0.000000000000000000 ) ) ;
#585 = AXIS2_PLACEMENT_3D ( 'NONE', #791, #552, #39 ) ;
#586 = FACE_OUTER_BOUND ( 'NONE', #781, .T. ) ;
#587 = VERTEX_POINT ( 'NONE', #563 ) ;
#588 = CARTESIAN_POINT ( 'NONE',  ( -66.57168832601659858, 40.75670102689011998, -61.59925537592305744 ) ) ;
#589 =( BOUNDED_CURVE ( )  B_SPLINE_CURVE ( 3, ( #200, #628, #932, #490 ),
 .UNSPECIFIED., .F., .F. ) 
 B_SPLINE_CURVE_WITH_KNOTS ( ( 4, 4 ),
 ( -8.881784197001252323E-16, 1.570796326794897002 ),
 .UNSPECIFIED. ) 
 CURVE ( )  GEOMETRIC_REPRESENTATION_ITEM ( )  RATIONAL_B_SPLINE_CURVE ( ( 1.000000000000000000, 0.8047378541243646044, 0.8047378541243646044, 1.000000000000000000 ) ) 
 REPRESENTATION_ITEM ( '' )  );
#590 = FACE_OUTER_BOUND ( 'NONE', #331, .T. ) ;
#591 = CARTESIAN_POINT ( 'NONE',  ( 0.000000000000000000, 0.000000000000000000, 0.000000000000000000 ) ) ;
#592 = CARTESIAN_POINT ( 'NONE',  ( -58.20245871321311881, 45.10241564690534943, -52.21248263771653342 ) ) ;
#593 = ORIENTED_EDGE ( 'NONE', *, *, #673, .T. ) ;
#594 = CARTESIAN_POINT ( 'NONE',  ( -62.20143145282418828, 39.39129069981367337, -51.58696775655501199 ) ) ;
#595 = CARTESIAN_POINT ( 'NONE',  ( -70.47329904945767964, 42.06745530511605580, -46.46328882935578264 ) ) ;
#596 = ORIENTED_EDGE ( 'NONE', *, *, #772, .F. ) ;
#597 = LINE ( 'NONE', #889, #440 ) ;
#598 = CIRCLE ( 'NONE', #900, 1.999999999999996003 ) ;
#599 = EDGE_CURVE ( 'NONE', #359, #434, #923, .T. ) ;
#600 = CARTESIAN_POINT ( 'NONE',  ( -62.29821893465808103, 47.07290345253750985, -60.40594303843362667 ) ) ;
#601 = VERTEX_POINT ( 'NONE', #268 ) ;
#602 = FACE_OUTER_BOUND ( 'NONE', #801, .T. ) ;
#603 = EDGE_CURVE ( 'NONE', #857, #808, #875, .T. ) ;
#604 = CARTESIAN_POINT ( 'NONE',  ( -22.70856994151579755, 8.622231923190827985, -46.46328882935586080 ) ) ;
#605 = VERTEX_POINT ( 'NONE', #856 ) ;
#606 = CARTESIAN_POINT ( 'NONE',  ( -61.45301499730229722, 35.75138441500411091, -46.46328882935580395 ) ) ;
#607 = ADVANCED_FACE ( 'NONE', ( #103 ), #714, .T. ) ;
#608 = CARTESIAN_POINT ( 'NONE',  ( -69.01281861595870737, 41.24674853873256097, -49.05679047042944774 ) ) ;
#609 = CARTESIAN_POINT ( 'NONE',  ( -69.28677863857222974, 27.84747358070801226, 16.89997435067356335 ) ) ;
#610 = CARTESIAN_POINT ( 'NONE',  ( -70.47329904945767964, 40.10643483560534861, -64.36795147204719569 ) ) ;
#611 = ORIENTED_EDGE ( 'NONE', *, *, #574, .F. ) ;
#612 = CARTESIAN_POINT ( 'NONE',  ( -69.01281861587881394, 39.83242093412468421, -61.96999511078738720 ) ) ;
#613 = CARTESIAN_POINT ( 'NONE',  ( -67.29430220107072103, 41.47486345306195687, -49.35996845029302449 ) ) ;
#614 = CIRCLE ( 'NONE', #708, 2.000000000000000000 ) ;
#615 = CARTESIAN_POINT ( 'NONE',  ( -63.88622181935231481, 38.44577179659228960, -48.80533221877372085 ) ) ;
#616 = AXIS2_PLACEMENT_3D ( 'NONE', #785, #112, #399 ) ;
#617 = CARTESIAN_POINT ( 'NONE',  ( -207.5472219750449483, 139.1410796473334983, -36.47996663744275736 ) ) ;
#618 = VERTEX_POINT ( 'NONE', #546 ) ;
#619 = DIRECTION ( 'NONE',  ( 0.000000000000000000, -0.9940554910349193030, 0.1088746101867895111 ) ) ;
#620 = CARTESIAN_POINT ( 'NONE',  ( -66.40936386922753343, 42.07172523286616439, -51.81821424802825504 ) ) ;
#621 = CARTESIAN_POINT ( 'NONE',  ( -61.45301499730229722, 35.75138441500411091, -46.46328882935580395 ) ) ;
#622 = CARTESIAN_POINT ( 'NONE',  ( -63.79689949309792496, 37.20088403047502368, -48.21361775316179887 ) ) ;
#623 = ORIENTED_EDGE ( 'NONE', *, *, #465, .F. ) ;
#624 = AXIS2_PLACEMENT_3D ( 'NONE', #238, #745, #688 ) ;
#625 = CARTESIAN_POINT ( 'NONE',  ( -67.41290142505549454, 40.08014890408502851, -61.82798277350334359 ) ) ;
#626 = CARTESIAN_POINT ( 'NONE',  ( -66.32426835139291654, 42.42505385214161606, -49.71512970691041033 ) ) ;
#627 = CARTESIAN_POINT ( 'NONE',  ( -62.20143145282418828, 39.39129069981367337, -51.58696775655502620 ) ) ;
#628 = CARTESIAN_POINT ( 'NONE',  ( -64.94939556478776410, 38.07673396440147684, -61.49099456001528097 ) ) ;
#629 = ORIENTED_EDGE ( 'NONE', *, *, #810, .F. ) ;
#630 = CARTESIAN_POINT ( 'NONE',  ( -65.52432525317655632, 23.71860511314370257, -70.44635499332474637 ) ) ;
#631 = CARTESIAN_POINT ( 'NONE',  ( -61.45301499730229722, 33.79036394549341082, -64.36795147204719569 ) ) ;
#632 = CARTESIAN_POINT ( 'NONE',  ( -62.67995341800668285, 38.78425293516563954, -49.55650992100324714 ) ) ;
#633 = AXIS2_PLACEMENT_3D ( 'NONE', #795, #265, #619 ) ;
#634 = CARTESIAN_POINT ( 'NONE',  ( -16.34687415381144149, -3.445051254846947408, -35.84012283949213185 ) ) ;
#635 = VERTEX_POINT ( 'NONE', #567 ) ;
#636 = CARTESIAN_POINT ( 'NONE',  ( -62.50939271358342353, 34.71064702390592061, -63.59282656544762347 ) ) ;
#637 = FACE_OUTER_BOUND ( 'NONE', #94, .T. ) ;
#638 = DIRECTION ( 'NONE',  ( -0.5712818199444393841, -0.8158749924416691668, 0.08935926873735827725 ) ) ;
#639 = ORIENTED_EDGE ( 'NONE', *, *, #578, .F. ) ;
#640 = CARTESIAN_POINT ( 'NONE',  ( -66.77621035170764685, 41.79366927043800217, -49.63786677136067738 ) ) ;
#641 = CARTESIAN_POINT ( 'NONE',  ( -60.55420224925332207, 46.95367467183584154, -50.34487989186555978 ) ) ;
#642 = CARTESIAN_POINT ( 'NONE',  ( -59.81150705373215715, 35.69541839663092020, -36.47996663744275736 ) ) ;
#643 = ORIENTED_EDGE ( 'NONE', *, *, #396, .T. ) ;
#644 = EDGE_CURVE ( 'NONE', #835, #717, #469, .T. ) ;
#645 = CARTESIAN_POINT ( 'NONE',  ( -64.75819247253363642, 40.07960919003268430, -61.64803090312309308 ) ) ;
#646 = EDGE_CURVE ( 'NONE', #430, #835, #119, .T. ) ;
#647 = FACE_OUTER_BOUND ( 'NONE', #572, .T. ) ;
#648 = ORIENTED_EDGE ( 'NONE', *, *, #528, .T. ) ;
#649 = CARTESIAN_POINT ( 'NONE',  ( -68.52675068806212266, 39.25749803023308715, -63.07093702616964492 ) ) ;
#650 = VECTOR ( 'NONE', #97, 1000.000000000000114 ) ;
#651 = CARTESIAN_POINT ( 'NONE',  ( -62.59466476135349922, 37.77209507942220768, -61.56579153989351028 ) ) ;
#652 = PRESENTATION_STYLE_ASSIGNMENT (( #884 ) ) ;
#653 = ORIENTED_EDGE ( 'NONE', *, *, #225, .T. ) ;
#654 = CARTESIAN_POINT ( 'NONE',  ( -68.75945358962435705, 41.20185653008342541, -49.42738789851284764 ) ) ;
#655 = ADVANCED_FACE ( 'NONE', ( #484, #647 ), #927, .T. ) ;
#656 = CARTESIAN_POINT ( 'NONE',  ( -62.37682352493301607, 38.10401763517715068, -61.59013633407953847 ) ) ;
#657 = CARTESIAN_POINT ( 'NONE',  ( -65.55712241542319418, 39.80876420863031484, -49.56232866759625466 ) ) ;
#658 = VERTEX_POINT ( 'NONE', #846 ) ;
#659 = DIRECTION ( 'NONE',  ( 0.5735764363510406083, 0.8191520442889955733, 0.000000000000000000 ) ) ;
#660 = DIRECTION ( 'NONE',  ( 0.8207539717850711458, -0.5678858300441921303, 0.06219808545324986143 ) ) ;
#661 = EDGE_LOOP ( 'NONE', ( #623, #341, #818, #667 ) ) ;
#662 = CARTESIAN_POINT ( 'NONE',  ( -69.37707987334810866, 41.29977626877046504, -48.53335343303410809 ) ) ;
#663 = VECTOR ( 'NONE', #250, 1000.000000000000114 ) ;
#664 = DIRECTION ( 'NONE',  ( -0.8191520442889943521, 0.5735764363510424957, 0.000000000000000000 ) ) ;
#665 = AXIS2_PLACEMENT_3D ( 'NONE', #188, #915, #260 ) ;
#666 = LINE ( 'NONE', #592, #511 ) ;
#667 = ORIENTED_EDGE ( 'NONE', *, *, #850, .F. ) ;
#668 = PLANE ( 'NONE',  #147 ) ;
#669 = AXIS2_PLACEMENT_3D ( 'NONE', #591, #939, #209 ) ;
#670 = SURFACE_SIDE_STYLE ('',( #133 ) ) ;
#671 = EDGE_LOOP ( 'NONE', ( #738, #194, #648, #438 ) ) ;
#672 = CARTESIAN_POINT ( 'NONE',  ( -62.20463530781634631, 38.50976426313800260, -59.65603198636562610 ) ) ;
#673 = EDGE_CURVE ( 'NONE', #864, #228, #589, .T. ) ;
#674 = CARTESIAN_POINT ( 'NONE',  ( -68.47624925333107626, 41.26107616381077037, -48.48592569492802795 ) ) ;
#675 = EDGE_LOOP ( 'NONE', ( #417, #937, #941, #50 ) ) ;
#676 = EDGE_CURVE ( 'NONE', #618, #635, #86, .T. ) ;
#677 = DIRECTION ( 'NONE',  ( 0.5712818199444392731, 0.8158749924416692778, -0.08935926873735845766 ) ) ;
#678 = CIRCLE ( 'NONE', #99, 1.999999999999996003 ) ;
#679 = AXIS2_PLACEMENT_3D ( 'NONE', #84, #904, #762 ) ;
#680 = ORIENTED_EDGE ( 'NONE', *, *, #682, .T. ) ;
#681 = DIRECTION ( 'NONE',  ( 0.8207539717850711458, -0.5678858300441919083, 0.06219808545325020144 ) ) ;
#682 = EDGE_CURVE ( 'NONE', #300, #553, #43, .T. ) ;
#683 = ADVANCED_FACE ( 'NONE', ( #704 ), #177, .T. ) ;
#684 =( BOUNDED_CURVE ( )  B_SPLINE_CURVE ( 3, ( #594, #351, #66, #130 ),
 .UNSPECIFIED., .F., .T. ) 
 B_SPLINE_CURVE_WITH_KNOTS ( ( 4, 4 ),
 ( 3.141592653589790451, 4.712388980384689674 ),
 .UNSPECIFIED. ) 
 CURVE ( )  GEOMETRIC_REPRESENTATION_ITEM ( )  RATIONAL_B_SPLINE_CURVE ( ( 1.000000000000000000, 0.8047378541243643824, 0.8047378541243643824, 1.000000000000000000 ) ) 
 REPRESENTATION_ITEM ( '' )  );
#685 = CARTESIAN_POINT ( 'NONE',  ( -68.73894344260388323, 41.28167520798672285, -48.25982272819886276 ) ) ;
#686 = DIRECTION ( 'NONE',  ( 0.1014979959594713571, 0.03781167543716967838, -0.9941169116441211928 ) ) ;
#687 = CARTESIAN_POINT ( 'NONE',  ( -67.75757527760045207, 41.04301668616016485, -50.87763987898982521 ) ) ;
#688 = DIRECTION ( 'NONE',  ( 0.8191520442889953513, -0.5735764363510408304, 0.000000000000000000 ) ) ;
#689 = FACE_OUTER_BOUND ( 'NONE', #424, .T. ) ;
#690 = CARTESIAN_POINT ( 'NONE',  ( -66.29719167426914339, 41.36177850544583379, -59.78042815727211945 ) ) ;
#691 = ORIENTED_EDGE ( 'NONE', *, *, #571, .T. ) ;
#692 = CARTESIAN_POINT ( 'NONE',  ( -63.66764813933184541, 36.28807387162345321, -62.60023006385123523 ) ) ;
#693 = DIRECTION ( 'NONE',  ( 0.000000000000000000, 0.9940554910349193030, -0.1088746101867895111 ) ) ;
#694 = DIRECTION ( 'NONE',  ( -0.5689874895700269830, -0.8223461781468911491, 0.000000000000000000 ) ) ;
#695 = ORIENTED_EDGE ( 'NONE', *, *, #35, .F. ) ;
#696 = CARTESIAN_POINT ( 'NONE',  ( -67.83377716151389336, 39.89803360219468686, -62.04977767684611933 ) ) ;
#697 = CARTESIAN_POINT ( 'NONE',  ( -63.14364776138682345, 35.48820878206232976, -63.07093702609767405 ) ) ;
#698 = PLANE ( 'NONE',  #798 ) ;
#699 = LINE ( 'NONE', #634, #211 ) ;
#700 = ORIENTED_EDGE ( 'NONE', *, *, #646, .T. ) ;
#701 = CARTESIAN_POINT ( 'NONE',  ( -66.77518686952092253, 40.53715891169880337, -61.61622575816820557 ) ) ;
#702 = CARTESIAN_POINT ( 'NONE',  ( -62.37078466367940877, 35.04976649850340920, -62.13305399028151754 ) ) ;
#703 = CARTESIAN_POINT ( 'NONE',  ( -62.48445268220885396, 39.20015012771403917, -49.68093420921096026 ) ) ;
#704 = FACE_OUTER_BOUND ( 'NONE', #454, .T. ) ;
#705 = ORIENTED_EDGE ( 'NONE', *, *, #644, .T. ) ;
#706 = CARTESIAN_POINT ( 'NONE',  ( -66.97517682592420840, 41.55987033448467116, -51.48867997287331377 ) ) ;
#707 = CARTESIAN_POINT ( 'NONE',  ( -23.62994817372038270, 7.306367437412113475, -64.36795147204720990 ) ) ;
#708 = AXIS2_PLACEMENT_3D ( 'NONE', #809, #953, #881 ) ;
#709 = DIRECTION ( 'NONE',  ( -0.8191520442889953513, 0.5735764363510410524, -1.363618452388890344E-19 ) ) ;
#710 = ORIENTED_EDGE ( 'NONE', *, *, #949, .F. ) ;
#711 = VECTOR ( 'NONE', #416, 1000.000000000000114 ) ;
#712 = EDGE_CURVE ( 'NONE', #325, #717, #853, .T. ) ;
#713 = DIRECTION ( 'NONE',  ( 0.5712818199444392731, 0.8158749924416692778, -0.08935926873735845766 ) ) ;
#714 = CYLINDRICAL_SURFACE ( 'NONE', #364, 2.000000000000001776 ) ;
#715 = ORIENTED_EDGE ( 'NONE', *, *, #807, .T. ) ;
#716 = DIRECTION ( 'NONE',  ( 0.8207539717850711458, -0.5678858300441921303, 0.06219808545324987531 ) ) ;
#717 = VERTEX_POINT ( 'NONE', #324 ) ;
#718 = CARTESIAN_POINT ( 'NONE',  ( -69.54229254286178730, 39.73171098980171934, -63.34349501760680567 ) ) ;
#719 = CYLINDRICAL_SURFACE ( 'NONE', #736, 1.500000000000000444 ) ;
#720 = EDGE_CURVE ( 'NONE', #635, #618, #533, .T. ) ;
#721 = ORIENTED_EDGE ( 'NONE', *, *, #151, .F. ) ;
#722 = CARTESIAN_POINT ( 'NONE',  ( -59.34846384866359870, 43.04572565726502376, -55.86817129190018960 ) ) ;
#723 = VECTOR ( 'NONE', #111, 1000.000000000000000 ) ;
#724 = DIRECTION ( 'NONE',  ( -1.000000000000000000, 0.000000000000000000, -0.000000000000000000 ) ) ;
#725 = ORIENTED_EDGE ( 'NONE', *, *, #127, .F. ) ;
#726 = CARTESIAN_POINT ( 'NONE',  ( -65.00832402679812105, 39.77517031625691146, -61.63220093444430603 ) ) ;
#727 =( LENGTH_UNIT ( ) NAMED_UNIT ( * ) SI_UNIT ( .MILLI., .METRE. ) );
#728 =( LENGTH_UNIT ( ) NAMED_UNIT ( * ) SI_UNIT ( .MILLI., .METRE. ) );
#729 = EDGE_LOOP ( 'NONE', ( #178, #34, #388, #7 ) ) ;
#730 = CARTESIAN_POINT ( 'NONE',  ( -65.92248089613582351, 39.24527407317687278, -61.83151884939779563 ) ) ;
#731 = CARTESIAN_POINT ( 'NONE',  ( -59.94647539861788488, 45.22164442760701064, -62.27354578428459320 ) ) ;
#732 = CARTESIAN_POINT ( 'NONE',  ( -64.55317498886438443, 41.24254972474417258, -49.71936501070405967 ) ) ;
#733 = ORIENTED_EDGE ( 'NONE', *, *, #906, .T. ) ;
#734 = CARTESIAN_POINT ( 'NONE',  ( -69.96637982401254874, 41.59740947280014467, -47.51415801772014902 ) ) ;
#735 = AXIS2_PLACEMENT_3D ( 'NONE', #942, #283, #144 ) ;
#736 = AXIS2_PLACEMENT_3D ( 'NONE', #867, #437, #206 ) ;
#737 = CARTESIAN_POINT ( 'NONE',  ( -62.20143145282418828, 38.52114547575170178, -59.53163581545911853 ) ) ;
#738 = ORIENTED_EDGE ( 'NONE', *, *, #603, .F. ) ;
#739 = EDGE_CURVE ( 'NONE', #605, #581, #780, .T. ) ;
#740 = CARTESIAN_POINT ( 'NONE',  ( -59.84396665678326599, 45.36804208293175833, -60.28154686752713332 ) ) ;
#741 = ADVANCED_FACE ( 'NONE', ( #420 ), #340, .T. ) ;
#742 = CARTESIAN_POINT ( 'NONE',  ( -69.32770771274677202, 41.27458248089353532, -47.25236843152806188 ) ) ;
#743 = EDGE_LOOP ( 'NONE', ( #536, #529, #23, #378 ) ) ;
#744 = CARTESIAN_POINT ( 'NONE',  ( -61.05542631737367998, 40.57868712282434842, -55.86817129190018960 ) ) ;
#745 = DIRECTION ( 'NONE',  ( -0.5712818199444393841, -0.8158749924416691668, 0.08935926873735827725 ) ) ;
#746 = EDGE_LOOP ( 'NONE', ( #167, #282, #207, #410 ) ) ;
#747 = CARTESIAN_POINT ( 'NONE',  ( -215.8975481109212069, 131.7122177088471631, 5.881753893014995072 ) ) ;
#748 = EDGE_CURVE ( 'NONE', #888, #916, #114, .T. ) ;
#749 = CIRCLE ( 'NONE', #735, 2.000000000000003553 ) ;
#750 = VECTOR ( 'NONE', #49, 1000.000000000000114 ) ;
#751 = CARTESIAN_POINT ( 'NONE',  ( -70.47329904945767964, 42.06745530511606290, -46.46328882935578264 ) ) ;
#752 = FACE_OUTER_BOUND ( 'NONE', #46, .T. ) ;
#753 = CYLINDRICAL_SURFACE ( 'NONE', #766, 2.999999999999997780 ) ;
#754 = CARTESIAN_POINT ( 'NONE',  ( -69.50955986435262446, 41.44802990278883215, -47.54702816684243061 ) ) ;
#755 = VECTOR ( 'NONE', #887, 999.9999999999998863 ) ;
#756 = CARTESIAN_POINT ( 'NONE',  ( -62.56705031730432154, 38.71853105813531215, -51.36216145841657976 ) ) ;
#757 = FACE_OUTER_BOUND ( 'NONE', #315, .T. ) ;
#758 = CARTESIAN_POINT ( 'NONE',  ( -61.45301499730229722, 33.79036394549341793, -64.36795147204719569 ) ) ;
#759 = PRODUCT_RELATED_PRODUCT_CATEGORY ( 'part', '', ( #496 ) ) ;
#760 = CARTESIAN_POINT ( 'NONE',  ( -58.20245871321311881, 45.30696611996455658, -50.34487989186556689 ) ) ;
#761 = CARTESIAN_POINT ( 'NONE',  ( -62.23023861126664968, 36.34573299240233268, -47.51179983332202283 ) ) ;
#762 = DIRECTION ( 'NONE',  ( 0.8191520442889953513, -0.5735764363510408304, 0.000000000000000000 ) ) ;
#763 = ORIENTED_EDGE ( 'NONE', *, *, #91, .F. ) ;
#764 = CARTESIAN_POINT ( 'NONE',  ( -68.06500154215959242, 39.82414123716559118, -62.18958878749207031 ) ) ;
#765 = CARTESIAN_POINT ( 'NONE',  ( -66.82031331408556696, 41.67032023759428938, -51.60299658737350370 ) ) ;
#766 = AXIS2_PLACEMENT_3D ( 'NONE', #540, #451, #17 ) ;
#767 = CARTESIAN_POINT ( 'NONE',  ( -62.05290003526855713, 36.12716665249548242, -47.74120950009162812 ) ) ;
#768 = CARTESIAN_POINT ( 'NONE',  ( -58.20566256820526974, 44.22088921022967156, -60.28154686752713332 ) ) ;
#769 = ORIENTED_EDGE ( 'NONE', *, *, #579, .F. ) ;
#770 = ADVANCED_FACE ( 'NONE', ( #293 ), #719, .F. ) ;
#771 = CARTESIAN_POINT ( 'NONE',  ( -66.90419435342212751, 40.41852641300910420, -61.64108943177643596 ) ) ;
#772 = EDGE_CURVE ( 'NONE', #173, #658, #504, .T. ) ;
#773 = CARTESIAN_POINT ( 'NONE',  ( -66.41495443897062501, 42.23038307422547177, -49.73140462527616990 ) ) ;
#774 = CARTESIAN_POINT ( 'NONE',  ( -63.96603099925733460, 38.67343770235096656, -48.94362220428847365 ) ) ;
#775 = DIRECTION ( 'NONE',  ( 0.5689874895700269830, 0.8223461781468911491, 0.000000000000000000 ) ) ;
#776 = EDGE_LOOP ( 'NONE', ( #710, #872, #721, #189 ) ) ;
#777 = CARTESIAN_POINT ( 'NONE',  ( -61.45301499730229722, 33.79036394549341793, -64.36795147204719569 ) ) ;
#778 = CARTESIAN_POINT ( 'NONE',  ( -62.05290003518022246, 34.45168047091654984, -63.03886462791637513 ) ) ;
#779 = DIRECTION ( 'NONE',  ( 0.000000000000000000, -0.9973102921620562444, 0.07329516455833838540 ) ) ;
#780 = LINE ( 'NONE', #45, #711 ) ;
#781 = EDGE_LOOP ( 'NONE', ( #400, #256, #899, #280 ) ) ;
#782 = EDGE_CURVE ( 'NONE', #228, #560, #216, .T. ) ;
#783 = CARTESIAN_POINT ( 'NONE',  ( -62.66801861660918149, 37.60893483751348754, -61.58161852543766202 ) ) ;
#784 = PLANE ( 'NONE',  #347 ) ;
#785 = CARTESIAN_POINT ( 'NONE',  ( -19.25438671330140394, 13.55531681548716172, 20.66005231930160591 ) ) ;
#786 = MANIFOLD_SOLID_BREP ( 'Cut-Extrude3', #332 ) ;
#787 = ORIENTED_EDGE ( 'NONE', *, *, #153, .T. ) ;
#788 = AXIS2_PLACEMENT_3D ( 'NONE', #946, #871, #724 ) ;
#789 = CARTESIAN_POINT ( 'NONE',  ( -62.80328727758829643, 36.21530673777198928, -62.12164463827969030 ) ) ;
#790 = DIRECTION ( 'NONE',  ( 0.8191520442889953513, -0.5735764363510408304, 3.469446951953611033E-15 ) ) ;
#791 = CARTESIAN_POINT ( 'NONE',  ( -60.20194508301864289, 41.81220639004468609, -55.86817129190018960 ) ) ;
#792 = VERTEX_POINT ( 'NONE', #796 ) ;
#793 = FACE_OUTER_BOUND ( 'NONE', #746, .T. ) ;
#794 = ORIENTED_EDGE ( 'NONE', *, *, #151, .T. ) ;
#795 = CARTESIAN_POINT ( 'NONE',  ( -68.75945358962435705, 42.86088552251918316, -61.83462515948284022 ) ) ;
#796 = CARTESIAN_POINT ( 'NONE',  ( -63.90208584358047972, 29.85346645148741018, -35.84012283949213185 ) ) ;
#797 = ORIENTED_EDGE ( 'NONE', *, *, #396, .F. ) ;
#798 = AXIS2_PLACEMENT_3D ( 'NONE', #249, #557, #851 ) ;
#799 = CARTESIAN_POINT ( 'NONE',  ( -66.50014516161544975, 40.85505015783424909, -61.60782002653658651 ) ) ;
#800 = AXIS2_PLACEMENT_3D ( 'NONE', #54, #480, #183 ) ;
#801 = EDGE_LOOP ( 'NONE', ( #787, #201, #135, #305 ) ) ;
#802 = CYLINDRICAL_SURFACE ( 'NONE', #583, 2.999999999999997780 ) ;
#803 = DIRECTION ( 'NONE',  ( 0.5712818199444397171, 0.8158749924416692778, -0.08935926873735791642 ) ) ;
#804 = CARTESIAN_POINT ( 'NONE',  ( -58.20245871321311881, 45.30696611996455658, -50.34487989186556689 ) ) ;
#805 = FACE_OUTER_BOUND ( 'NONE', #261, .T. ) ;
#806 = CARTESIAN_POINT ( 'NONE',  ( -64.87036466749189856, 39.91941069340273884, -61.63048505278494105 ) ) ;
#807 = EDGE_CURVE ( 'NONE', #581, #373, #506, .T. ) ;
#808 = VERTEX_POINT ( 'NONE', #493 ) ;
#809 = CARTESIAN_POINT ( 'NONE',  ( -59.84396665678326599, 45.36804208293176544, -60.28154686752713332 ) ) ;
#810 = EDGE_CURVE ( 'NONE', #587, #822, #90, .T. ) ;
#811 = AXIS2_PLACEMENT_3D ( 'NONE', #306, #310, #892 ) ;
#812 = CARTESIAN_POINT ( 'NONE',  ( -66.46043763299461204, 40.42004003059869888, -48.94362220425189491 ) ) ;
#813 = UNCERTAINTY_MEASURE_WITH_UNIT (LENGTH_MEASURE( 1.000000000000000082E-05 ), #727, 'distance_accuracy_value', 'NONE');
#814 = ORIENTED_EDGE ( 'NONE', *, *, #298, .F. ) ;
#815 = CARTESIAN_POINT ( 'NONE',  ( -207.5472219750449483, 135.3230162882629202, -71.33994768069834436 ) ) ;
#816 = ADVANCED_FACE ( 'NONE', ( #353, #793 ), #358, .F. ) ;
#817 = LINE ( 'NONE', #390, #218 ) ;
#818 = ORIENTED_EDGE ( 'NONE', *, *, #772, .T. ) ;
#819 = CARTESIAN_POINT ( 'NONE',  ( -62.20143145282418828, 39.39129069981367337, -51.58696775655501199 ) ) ;
#820 = APPLICATION_CONTEXT ( 'automotive_design' ) ;
#821 = CARTESIAN_POINT ( 'NONE',  ( -70.47329904945767964, 42.06745530511606290, -46.46328882935578264 ) ) ;
#822 = VERTEX_POINT ( 'NONE', #423 ) ;
#823 = CARTESIAN_POINT ( 'NONE',  ( -65.76213989909243196, 38.64582367391883366, -61.49099456001527386 ) ) ;
#824 = VECTOR ( 'NONE', #123, 1000.000000000000114 ) ;
#825 = VECTOR ( 'NONE', #575, 1000.000000000000114 ) ;
#826 = PLANE ( 'NONE',  #168 ) ;
#827 = DIRECTION ( 'NONE',  ( -0.1014979959594710518, -0.03781167543716988655, 0.9941169116441211928 ) ) ;
#828 = DIRECTION ( 'NONE',  ( 0.5689874895700255397, 0.8223461781468921483, 0.000000000000000000 ) ) ;
#829 = ORIENTED_EDGE ( 'NONE', *, *, #739, .T. ) ;
#830 = CARTESIAN_POINT ( 'NONE',  ( -63.20537887938300514, 37.08735995963784404, -59.37459947235130642 ) ) ;
#831 = LINE ( 'NONE', #248, #755 ) ;
#832 = AXIS2_PLACEMENT_3D ( 'NONE', #145, #660, #289 ) ;
#833 = CARTESIAN_POINT ( 'NONE',  ( -63.54258956711200312, 37.76227372786636494, -48.34086443389616505 ) ) ;
#834 = CARTESIAN_POINT ( 'NONE',  ( -60.65671099108794095, 45.93713179244912226, -60.28154686752713332 ) ) ;
#835 = VERTEX_POINT ( 'NONE', #737 ) ;
#836 = CARTESIAN_POINT ( 'NONE',  ( -68.62019055129972855, 39.88065510217094811, -61.46101145406088762 ) ) ;
#837 = ADVANCED_FACE ( 'NONE', ( #586 ), #879, .F. ) ;
#838 = CARTESIAN_POINT ( 'NONE',  ( -62.41674334759977683, 39.30067417565432919, -49.69415128006601634 ) ) ;
#839 = CARTESIAN_POINT ( 'NONE',  ( -208.7463856200826910, 133.5898891834566200, -71.33994768069833015 ) ) ;
#840 = ORIENTED_EDGE ( 'NONE', *, *, #159, .T. ) ;
#841 = EDGE_CURVE ( 'NONE', #325, #430, #666, .T. ) ;
#842 = CARTESIAN_POINT ( 'NONE',  ( -66.86954653972502172, 41.41451626925784524, -51.74623298504175750 ) ) ;
#843 = CARTESIAN_POINT ( 'NONE',  ( -65.13207612688449899, 40.71258972912653462, -49.55429090714498130 ) ) ;
#844 = VECTOR ( 'NONE', #479, 1000.000000000000000 ) ;
#845 = CARTESIAN_POINT ( 'NONE',  ( -58.20566256820526974, 44.22088921022967867, -60.28154686752713332 ) ) ;
#846 = CARTESIAN_POINT ( 'NONE',  ( -66.29719167426914339, 41.36177850544583379, -59.78042815727211945 ) ) ;
#847 = VERTEX_POINT ( 'NONE', #368 ) ;
#848 = FACE_OUTER_BOUND ( 'NONE', #393, .T. ) ;
#849 = FACE_OUTER_BOUND ( 'NONE', #675, .T. ) ;
#850 = EDGE_CURVE ( 'NONE', #601, #658, #460, .T. ) ;
#851 = DIRECTION ( 'NONE',  ( 0.8191520442889952403, -0.5735764363510411634, 0.000000000000000000 ) ) ;
#852 = EDGE_CURVE ( 'NONE', #808, #108, #376, .T. ) ;
#853 = LINE ( 'NONE', #124, #750 ) ;
#854 = ORIENTED_EDGE ( 'NONE', *, *, #83, .F. ) ;
#855 = FACE_OUTER_BOUND ( 'NONE', #40, .T. ) ;
#856 = CARTESIAN_POINT ( 'NONE',  ( -207.5472219750449483, 139.1410796473334983, -36.47996663744275736 ) ) ;
#857 = VERTEX_POINT ( 'NONE', #531 ) ;
#858 = CARTESIAN_POINT ( 'NONE',  ( -65.73820442435591360, 40.48895399209931867, -49.29827905815738376 ) ) ;
#859 = CARTESIAN_POINT ( 'NONE',  ( -68.75945358962435705, 42.86088552251918316, -61.83462515948284022 ) ) ;
#860 = DIRECTION ( 'NONE',  ( 0.8191520442889953513, -0.5735764363510408304, 0.000000000000000000 ) ) ;
#861 = ORIENTED_EDGE ( 'NONE', *, *, #35, .T. ) ;
#862 = AXIS2_PLACEMENT_3D ( 'NONE', #277, #716, #936 ) ;
#863 = CARTESIAN_POINT ( 'NONE',  ( -68.00931809225220093, 40.15045128769759941, -48.21361775316179887 ) ) ;
#864 = VERTEX_POINT ( 'NONE', #902 ) ;
#865 = CARTESIAN_POINT ( 'NONE',  ( -69.94944076220220097, 39.78247160819328343, -63.97675288107824798 ) ) ;
#866 = CARTESIAN_POINT ( 'NONE',  ( -62.22850812997782555, 38.25067634816967654, -61.64379559930691244 ) ) ;
#867 = CARTESIAN_POINT ( 'NONE',  ( -68.40948480086935035, 47.49106469048660273, -56.49015214643269189 ) ) ;
#868 = ORIENTED_EDGE ( 'NONE', *, *, #271, .T. ) ;
#869 = CARTESIAN_POINT ( 'NONE',  ( -58.20245871321311881, 45.10241564690534943, -52.21248263771653342 ) ) ;
#870 = CARTESIAN_POINT ( 'NONE',  ( -63.94544813822896145, 39.51051948051532747, -61.64803090312308598 ) ) ;
#871 = DIRECTION ( 'NONE',  ( 0.000000000000000000, 0.000000000000000000, -1.000000000000000000 ) ) ;
#872 = ORIENTED_EDGE ( 'NONE', *, *, #810, .T. ) ;
#873 = AXIS2_PLACEMENT_3D ( 'NONE', #882, #713, #790 ) ;
#874 = CARTESIAN_POINT ( 'NONE',  ( -208.0133165255741403, 134.6493792060620081, -71.33994768069833015 ) ) ;
#875 = CIRCLE ( 'NONE', #800, 2.000000000000001776 ) ;
#876 = LINE ( 'NONE', #192, #844 ) ;
#877 = SHAPE_DEFINITION_REPRESENTATION ( #929, #307 ) ;
#878 = EDGE_CURVE ( 'NONE', #864, #173, #817, .T. ) ;
#879 = PLANE ( 'NONE',  #908 ) ;
#880 = ORIENTED_EDGE ( 'NONE', *, *, #356, .T. ) ;
#881 = DIRECTION ( 'NONE',  ( 0.8191520442889926867, -0.5735764363510448272, -4.510281037539698445E-14 ) ) ;
#882 = CARTESIAN_POINT ( 'NONE',  ( -59.84396665678325888, 46.23818730699373702, -52.33687880862303388 ) ) ;
#883 = CARTESIAN_POINT ( 'NONE',  ( -62.56705031730906796, 37.81349598793683953, -59.62538352236350647 ) ) ;
#884 = SURFACE_STYLE_USAGE ( .BOTH. , #670 ) ;
#885 = ORIENTED_EDGE ( 'NONE', *, *, #333, .T. ) ;
#886 = DIRECTION ( 'NONE',  ( 0.8191520442889953513, -0.5735764363510409414, 0.000000000000000000 ) ) ;
#887 = DIRECTION ( 'NONE',  ( 0.5712818199444392731, 0.8158749924416692778, -0.08935926873735830500 ) ) ;
#888 = VERTEX_POINT ( 'NONE', #304 ) ;
#889 = CARTESIAN_POINT ( 'NONE',  ( -67.55600356651430616, 48.72458395770694040, -56.49015214643269189 ) ) ;
#890 = VECTOR ( 'NONE', #448, 1000.000000000000000 ) ;
#891 = CYLINDRICAL_SURFACE ( 'NONE', #287, 3.000000000000000444 ) ;
#892 = DIRECTION ( 'NONE',  ( 0.8191520442889953513, -0.5735764363510408304, 0.000000000000000000 ) ) ;
#893 = DIRECTION ( 'NONE',  ( 0.000000000000000000, -0.9973102921620562444, 0.07329516455833831601 ) ) ;
#894 = ORIENTED_EDGE ( 'NONE', *, *, #949, .T. ) ;
#895 = LINE ( 'NONE', #255, #890 ) ;
#896 = DIRECTION ( 'NONE',  ( -0.8191520442889954623, 0.5735764363510409414, 1.067286300913876854E-16 ) ) ;
#897 = CARTESIAN_POINT ( 'NONE',  ( -62.73489304029211411, 38.00707987750887895, -50.81086334630451518 ) ) ;
#898 = CARTESIAN_POINT ( 'NONE',  ( -19.25438671330140394, 2.478953647112786207, -71.33994768069833015 ) ) ;
#899 = ORIENTED_EDGE ( 'NONE', *, *, #231, .T. ) ;
#900 = AXIS2_PLACEMENT_3D ( 'NONE', #926, #803, #664 ) ;
#901 = CARTESIAN_POINT ( 'NONE',  ( -62.20143145282418828, 38.52114547575170178, -59.53163581545911853 ) ) ;
#902 = CARTESIAN_POINT ( 'NONE',  ( -63.94544813822894724, 39.51051948051532037, -61.64803090312309308 ) ) ;
#903 = CARTESIAN_POINT ( 'NONE',  ( -62.29743080666576560, 39.46632821999775587, -49.70955853272786129 ) ) ;
#904 = DIRECTION ( 'NONE',  ( 0.5712818199444392731, 0.8158749924416692778, -0.08935926873735845766 ) ) ;
#905 = ORIENTED_EDGE ( 'NONE', *, *, #362, .T. ) ;
#906 = EDGE_CURVE ( 'NONE', #560, #916, #538, .T. ) ;
#907 = LINE ( 'NONE', #180, #919 ) ;
#908 = AXIS2_PLACEMENT_3D ( 'NONE', #804, #142, #365 ) ;
#909 = CARTESIAN_POINT ( 'NONE',  ( -62.66094096115249101, 37.15289495062640412, -48.42086300097582097 ) ) ;
#910 = CARTESIAN_POINT ( 'NONE',  ( -64.74437808111852632, 39.23967449911295091, -49.56232866759625466 ) ) ;
#911 = ORIENTED_EDGE ( 'NONE', *, *, #465, .T. ) ;
#912 = ADVANCED_FACE ( 'NONE', ( #524 ), #826, .F. ) ;
#913 = CARTESIAN_POINT ( 'NONE',  ( -66.87751116091374115, 39.07238528680841938, -62.20775772377471213 ) ) ;
#914 = CARTESIAN_POINT ( 'NONE',  ( -62.40989856907886235, 39.06321574948234598, -51.52057725558781698 ) ) ;
#915 = DIRECTION ( 'NONE',  ( 0.8207539717850711458, -0.5678858300441921303, 0.06219808545324987531 ) ) ;
#916 = VERTEX_POINT ( 'NONE', #595 ) ;
#917 = CYLINDRICAL_SURFACE ( 'NONE', #633, 3.000000000000000444 ) ;
#918 = EDGE_CURVE ( 'NONE', #847, #857, #831, .T. ) ;
#919 = VECTOR ( 'NONE', #185, 1000.000000000000000 ) ;
#920 = CARTESIAN_POINT ( 'NONE',  ( -63.80997952462555389, 36.55655628043397343, -62.45951373700707165 ) ) ;
#921 = AXIS2_PLACEMENT_3D ( 'NONE', #330, #559, #33 ) ;
#922 = CARTESIAN_POINT ( 'NONE',  ( -62.65748664512060628, 37.14289239718065971, -49.73811146382848136 ) ) ;
#923 = LINE ( 'NONE', #839, #246 ) ;
#924 = ORIENTED_EDGE ( 'NONE', *, *, #571, .F. ) ;
#925 = CARTESIAN_POINT ( 'NONE',  ( -62.72676011774805716, 36.34063289771817296, -60.61329357655816352 ) ) ;
#926 = CARTESIAN_POINT ( 'NONE',  ( -63.84293939639433546, 39.65691713584008937, -59.65603198636561899 ) ) ;
#927 = PLANE ( 'NONE',  #616 ) ;
#928 = ORIENTED_EDGE ( 'NONE', *, *, #878, .F. ) ;
#929 = PRODUCT_DEFINITION_SHAPE ( 'NONE', 'NONE',  #121 ) ;
#930 = CARTESIAN_POINT ( 'NONE',  ( -66.46847566372449023, 42.13395866781863219, -49.73237698253658579 ) ) ;
#931 = CARTESIAN_POINT ( 'NONE',  ( -59.74145791494864000, 46.38458496231848471, -50.34487989186556689 ) ) ;
#932 = CARTESIAN_POINT ( 'NONE',  ( -63.91699595450776883, 35.70736796291188142, -62.61762254824118656 ) ) ;
#933 = ORIENTED_EDGE ( 'NONE', *, *, #782, .T. ) ;
#934 = CARTESIAN_POINT ( 'NONE',  ( -64.28284494806891303, 38.55471550227770905, -61.71426075313485882 ) ) ;
#935 = CYLINDRICAL_SURFACE ( 'NONE', #377, 3.000000000000000444 ) ;
#936 = DIRECTION ( 'NONE',  ( 0.5689874895700255397, 0.8223461781468921483, 0.000000000000000000 ) ) ;
#937 = ORIENTED_EDGE ( 'NONE', *, *, #673, .F. ) ;
#938 = ADVANCED_FACE ( 'NONE', ( #15 ), #80, .T. ) ;
#939 = DIRECTION ( 'NONE',  ( 0.000000000000000000, 0.000000000000000000, 1.000000000000000000 ) ) ;
#940 =( NAMED_UNIT ( * ) PLANE_ANGLE_UNIT ( ) SI_UNIT ( $, .RADIAN. ) );
#941 = ORIENTED_EDGE ( 'NONE', *, *, #57, .F. ) ;
#942 = CARTESIAN_POINT ( 'NONE',  ( -63.84293939639433546, 40.52706235990205386, -51.71136392746152666 ) ) ;
#943 = ADVANCED_FACE ( 'NONE', ( #527 ), #215, .T. ) ;
#944 =( BOUNDED_SURFACE ( )  B_SPLINE_SURFACE ( 3, 2, ( 
 ( #555, #346, #252 ),
 ( #573, #422, #865 ),
 ( #174, #718, #477 ),
 ( #56, #537, #649 ),
 ( #612, #247, #543 ),
 ( #836, #764, #100 ),
 ( #395, #696, #31 ),
 ( #322, #625, #913 ),
 ( #36, #257, #548 ),
 ( #471, #771, #401 ),
 ( #327, #701, #730 ),
 ( #425, #588, #502 ),
 ( #523, #799, #509 ),
 ( #136, #582, #726 ),
 ( #948, #148, #806 ),
 ( #285, #213, #208 ) ),
 .UNSPECIFIED., .F., .F., .T. ) 
 B_SPLINE_SURFACE_WITH_KNOTS ( ( 4, 2, 2, 2, 2, 2, 2, 4 ),
 ( 3, 3 ),
 ( 4.712388980384689674, 5.105088062083413369, 5.301437602932775661, 5.497787143782137065, 5.694136684631499357, 5.890486225480861648, 6.086835766330223052, 6.283185307179585344 ),
 ( 0.000000000000000000, 1.000000000000000000 ),
 .UNSPECIFIED. ) 
 GEOMETRIC_REPRESENTATION_ITEM ( )  RATIONAL_B_SPLINE_SURFACE ( (
 ( 1.000000000000000000, 1.000000000000000000, 1.000000000000000000),
 ( 1.000000000000000000, 1.000153430090096496, 1.000000000000000000),
 ( 1.000000000000000000, 0.9875447544193640681, 1.000000000000000000),
 ( 1.000000000000000000, 0.9538242550876424586, 1.000000000000000000),
 ( 1.000000000000000000, 0.9401537571636642276, 1.000000000000000000),
 ( 1.000000000000000000, 0.9095039307316467037, 1.000000000000000000),
 ( 1.000000000000000000, 0.8925248905390861243, 1.000000000000000000),
 ( 1.000000000000000000, 0.8574602268033595376, 1.000000000000000000),
 ( 1.000000000000000000, 0.8393798858266752205, 1.000000000000000000),
 ( 1.000000000000000000, 0.8049017991196341093, 1.000000000000000000),
 ( 1.000000000000000000, 0.7885212368335252631, 1.000000000000000000),
 ( 1.000000000000000000, 0.7605102254086076874, 1.000000000000000000),
 ( 1.000000000000000000, 0.7489123329830769116, 1.000000000000000000),
 ( 1.000000000000000000, 0.7330669938483990178, 1.000000000000000000),
 ( 1.000000000000000000, 0.7288205844048110116, 1.000000000000000000),
 ( 1.000000000000000000, 0.7288511202296548142, 1.000000000000000000) ) ) 
 REPRESENTATION_ITEM ( '' )  SURFACE ( )  );
#945 = CARTESIAN_POINT ( 'NONE',  ( -64.05762033318895021, 39.35032098387547705, -61.63048505278412392 ) ) ;
#946 = CARTESIAN_POINT ( 'NONE',  ( -19.25438671330140394, 2.478953647112786207, -71.33994768069833015 ) ) ;
#947 = ORIENTED_EDGE ( 'NONE', *, *, #428, .T. ) ;
#948 = CARTESIAN_POINT ( 'NONE',  ( -66.40936386922227541, 41.20158000881131244, -59.76288230693667458 ) ) ;
#949 = EDGE_CURVE ( 'NONE', #587, #274, #397, .T. ) ;
#950 = ADVANCED_FACE ( 'NONE', ( #849 ), #190, .T. ) ;
#951 =( BOUNDED_CURVE ( )  B_SPLINE_CURVE ( 3, ( #606, #622, #910, #314 ),
 .UNSPECIFIED., .F., .F. ) 
 B_SPLINE_CURVE_WITH_KNOTS ( ( 4, 4 ),
 ( 1.570796326794896336, 3.141592653589793116 ),
 .UNSPECIFIED. ) 
 CURVE ( )  GEOMETRIC_REPRESENTATION_ITEM ( )  RATIONAL_B_SPLINE_CURVE ( ( 1.000000000000000000, 0.8047378541243649375, 0.8047378541243649375, 1.000000000000000000 ) ) 
 REPRESENTATION_ITEM ( '' )  );
#952 = EDGE_LOOP ( 'NONE', ( #294, #525, #476, #138 ) ) ;
#953 = DIRECTION ( 'NONE',  ( 0.5712818199444392731, 0.8158749924416692778, -0.08935926873735845766 ) ) ;
ENDSEC;
END-ISO-10303-21;
