ISO-10303-21;
HEADER;
FILE_DESCRIPTION (( 'STEP AP214' ),
    '1' );
FILE_NAME ('Screws.step.STEP',
    '2026-08-20T17:33:11',
    ( '' ),
    ( '' ),
    'SwSTEP 2.0',
    'SolidWorks 2026',
    '' );
FILE_SCHEMA (( 'AUTOMOTIVE_DESIGN' ));
ENDSEC;

DATA;
#1 =( GEOMETRIC_REPRESENTATION_CONTEXT ( 3 ) GLOBAL_UNCERTAINTY_ASSIGNED_CONTEXT ( ( #199 ) ) GLOBAL_UNIT_ASSIGNED_CONTEXT ( ( #329, #155, #326 ) ) REPRESENTATION_CONTEXT ( 'NONE', 'WORKASPACE' ) );
#2 =( NAMED_UNIT ( * ) PLANE_ANGLE_UNIT ( ) SI_UNIT ( $, .RADIAN. ) );
#3 = ROLE_ASSOCIATION ( #90, #106 ) ;
#4 = DIRECTION ( 'NONE',  ( -1.000000000000000222, 1.040834085586084257E-17, -3.469446951953614189E-18 ) ) ;
#5 = PRODUCT_DEFINITION_SHAPE ( 'NONE', 'NONE',  #439 ) ;
#6 = APPLIED_DOCUMENT_REFERENCE ( #41,'',( #26) ) ;
#7 = CARTESIAN_POINT ( 'NONE',  ( 4.000000000000003553, 10.00850880675296928, -26.20000000000011298 ) ) ;
#8 = CARTESIAN_POINT ( 'NONE',  ( 18.00000000000023803, 9.991491193247270530, -26.20000000000011298 ) ) ;
#9 = PROPERTY_DEFINITION_REPRESENTATION ( #284, #405 ) ;
#10 = EXTERNAL_SOURCE (IDENTIFIER('') ) ;
#11 = CARTESIAN_POINT ( 'NONE',  ( 11.00850880675285914, 17.00000000000034817, 24.79999999999993321 ) ) ;
#12 = PRODUCT_DEFINITION_SHAPE ( 'NONE', 'NONE',  #428 ) ;
#13 =( LENGTH_UNIT ( ) NAMED_UNIT ( * ) SI_UNIT ( .MILLI., .METRE. ) );
#14 = OBJECT_ROLE ('mandatory',$ ) ;
#15 = PROPERTY_DEFINITION_REPRESENTATION ( #178, #313 ) ;
#16 = EXTERNAL_SOURCE (IDENTIFIER('') ) ;
#17 = PROPERTY_DEFINITION_REPRESENTATION ( #260, #113 ) ;
#18 = PRODUCT_DEFINITION_SHAPE ( 'NONE', 'NONE',  #443 ) ;
#19 = APPLIED_DOCUMENT_REFERENCE ( #59,'',( #159) ) ;
#20 = OBJECT_ROLE ('mandatory',$ ) ;
#21 = APPLIED_DOCUMENT_REFERENCE ( #327,'',( #428) ) ;
#22 = APPLICATION_PROTOCOL_DEFINITION ( 'draft international standard', 'automotive_design', 1998, #131 ) ;
#23 = UNCERTAINTY_MEASURE_WITH_UNIT (LENGTH_MEASURE( 1.000000000000000082E-05 ), #13, 'distance_accuracy_value', 'NONE');
#24 = PROPERTY_DEFINITION_REPRESENTATION ( #74, #313 ) ;
#25 = PRODUCT_DEFINITION_SHAPE ( 'NONE', 'NONE',  #444 ) ;
#26 = PRODUCT_DEFINITION ( 'General', '', #124, #62 ) ;
#27 =( REPRESENTATION_RELATIONSHIP ('NONE','NONE', #342, #405 ) REPRESENTATION_RELATIONSHIP_WITH_TRANSFORMATION ( #316 )SHAPE_REPRESENTATION_RELATIONSHIP( ) );
#28 = ROLE_ASSOCIATION ( #333, #336 ) ;
#29 =( NAMED_UNIT ( * ) SI_UNIT ( $, .STERADIAN. ) SOLID_ANGLE_UNIT ( ) );
#30 = AXIS2_PLACEMENT_3D ( 'NONE', #85, #39, #312 ) ;
#31 =( REPRESENTATION_RELATIONSHIP ('NONE','NONE', #342, #313 ) REPRESENTATION_RELATIONSHIP_WITH_TRANSFORMATION ( #229 )SHAPE_REPRESENTATION_RELATIONSHIP( ) );
#32 = PROPERTY_DEFINITION ('external definition','', #347 ) ;
#33 = APPLIED_DOCUMENT_REFERENCE ( #369,'',( #159) ) ;
#34 = ITEM_DEFINED_TRANSFORMATION ( 'NONE', 'NONE', #267,  #139 ) ;
#35 = PROPERTY_DEFINITION ('document property','', #276 ) ;
#36 = DIRECTION ( 'NONE',  ( 0.000000000000000000, 0.000000000000000000, 1.000000000000000000 ) ) ;
#37 = EXTERNAL_SOURCE (IDENTIFIER('') ) ;
#38 = PROPERTY_DEFINITION ('external definition','', #156 ) ;
#39 = DIRECTION ( 'NONE',  ( 0.000000000000000000, 3.991436087896760299E-15, -1.000000000000000222 ) ) ;
#40 = IDENTIFICATION_ROLE ( 'external document id and location', $) ;
#41 = DOCUMENT_FILE ( '92000A010(Mirror).step.STEP' , '', '', #359, '' ,$ ) ;
#42 = DIRECTION ( 'NONE',  ( -8.150112529303754627E-13, 1.000000000000000000, 4.282598581317742514E-18 ) ) ;
#43 = PROPERTY_DEFINITION_REPRESENTATION ( #430, #163 ) ;
#44 = IDENTIFICATION_ROLE ( 'external document id and location', $) ;
#45 = APPLICATION_PROTOCOL_DEFINITION ( 'draft international standard', 'automotive_design', 1998, #307 ) ;
#46 = PROPERTY_DEFINITION_REPRESENTATION ( #160, #84 ) ;
#47 = CARTESIAN_POINT ( 'NONE',  ( 3.999999999999781508, 10.00850880675296928, 24.79999999999982307 ) ) ;
#48 = CARTESIAN_POINT ( 'NONE',  ( 0.000000000000000000, 0.000000000000000000, 0.000000000000000000 ) ) ;
#49 = PROPERTY_DEFINITION ('document property','', #59 ) ;
#50 = CONTEXT_DEPENDENT_SHAPE_REPRESENTATION ( #31, #374 ) ;
#51 = EXTERNAL_SOURCE (IDENTIFIER('') ) ;
#52 = SHAPE_DEFINITION_REPRESENTATION ( #12, #84 ) ;
#53 =( GEOMETRIC_REPRESENTATION_CONTEXT ( 3 ) GLOBAL_UNCERTAINTY_ASSIGNED_CONTEXT ( ( #129 ) ) GLOBAL_UNIT_ASSIGNED_CONTEXT ( ( #244, #2, #99 ) ) REPRESENTATION_CONTEXT ( 'NONE', 'WORKASPACE' ) );
#54 = CONTEXT_DEPENDENT_SHAPE_REPRESENTATION ( #382, #290 ) ;
#55 = APPLICATION_CONTEXT ( 'automotive_design' ) ;
#56 = APPLICATION_PROTOCOL_DEFINITION ( 'draft international standard', 'automotive_design', 1998, #55 ) ;
#57 = PRODUCT_RELATED_PRODUCT_CATEGORY ( 'part', '', ( #157 ) ) ;
#58 = APPLICATION_PROTOCOL_DEFINITION ( 'draft international standard', 'automotive_design', 1998, #286 ) ;
#59 = DOCUMENT_FILE ( '95836A511.step.STEP' , '', '', #391, '' ,$ ) ;
#60 = EXTERNAL_SOURCE (IDENTIFIER('') ) ;
#61 =( NAMED_UNIT ( * ) PLANE_ANGLE_UNIT ( ) SI_UNIT ( $, .RADIAN. ) );
#62 = PRODUCT_DEFINITION_CONTEXT ( 'detailed design', #221, 'design' ) ;
#63 = IDENTIFICATION_ROLE ( 'external document id and location', $) ;
#64 = PROPERTY_DEFINITION_REPRESENTATION ( #386, #405 ) ;
#65 = PROPERTY_DEFINITION ('document property','', #182 ) ;
#66 =( LENGTH_UNIT ( ) NAMED_UNIT ( * ) SI_UNIT ( .MILLI., .METRE. ) );
#67 =( REPRESENTATION_RELATIONSHIP ('NONE','NONE', #342, #405 ) REPRESENTATION_RELATIONSHIP_WITH_TRANSFORMATION ( #142 )SHAPE_REPRESENTATION_RELATIONSHIP( ) );
#68 = CONTEXT_DEPENDENT_SHAPE_REPRESENTATION ( #421, #5 ) ;
#69 =( NAMED_UNIT ( * ) PLANE_ANGLE_UNIT ( ) SI_UNIT ( $, .RADIAN. ) );
#70 = DOCUMENT_TYPE ( 'geometry' ) ;
#71 = DOCUMENT_FILE ( '92000A010.step.STEP' , '', '', #337, '' ,$ ) ;
#72 = CARTESIAN_POINT ( 'NONE',  ( 0.000000000000000000, 0.000000000000000000, 0.000000000000000000 ) ) ;
#73 = PROPERTY_DEFINITION ('document property','', #71 ) ;
#74 = PROPERTY_DEFINITION ('document property','', #369 ) ;
#75 = IDENTIFICATION_ROLE ( 'external document id and location', $) ;
#76 = APPLIED_EXTERNAL_IDENTIFICATION_ASSIGNMENT ( '94997A225.step.STEP' , #236, #51,( #279) ) ;
#77 = DIRECTION ( 'NONE',  ( 1.000000000000000000, 0.000000000000000000, 0.000000000000000000 ) ) ;
#78 = CARTESIAN_POINT ( 'NONE',  ( 11.00850880675308119, 17.00000000000012790, -26.20000000000011298 ) ) ;
#79 = EXTERNAL_SOURCE (IDENTIFIER('') ) ;
#80 = PROPERTY_DEFINITION ('external definition','', #341 ) ;
#81 = ROLE_ASSOCIATION ( #146, #281 ) ;
#82 = CARTESIAN_POINT ( 'NONE',  ( 11.00000000000034284, 10.00000000000000888, 26.34999999999987352 ) ) ;
#83 = AXIS2_PLACEMENT_3D ( 'NONE', #262, #384, #420 ) ;
#84 = SHAPE_REPRESENTATION ( '92000A010.step', ( #180 ), #397 ) ;
#85 = CARTESIAN_POINT ( 'NONE',  ( -17.74999999999993250, 17.75000000000015632, -14.99440000000018536 ) ) ;
#86 = IDENTIFICATION_ROLE ( 'external document id and location', $) ;
#87 = ROLE_ASSOCIATION ( #138, #19 ) ;
#88 = PRODUCT_DEFINITION_SHAPE ( 'NONE', 'NONE',  #207 ) ;
#89 = EXTERNAL_SOURCE (IDENTIFIER('') ) ;
#90 = OBJECT_ROLE ('mandatory',$ ) ;
#91 = DOCUMENT_TYPE ( 'geometry' ) ;
#92 = DIRECTION ( 'NONE',  ( 1.000000000000000000, 0.000000000000000000, 0.000000000000000000 ) ) ;
#93 = PRODUCT_DEFINITION_CONTEXT ( 'detailed design', #181, 'design' ) ;
#94 = CONTEXT_DEPENDENT_SHAPE_REPRESENTATION ( #158, #277 ) ;
#95 = PRODUCT_DEFINITION_FORMATION_WITH_SPECIFIED_SOURCE ( 'Symmetric', '', #140, .NOT_KNOWN. ) ;
#96 = DOCUMENT_FILE ( '92000A010(Mirror).step.STEP' , '', '', #200, '' ,$ ) ;
#97 = OBJECT_ROLE ('mandatory',$ ) ;
#98 = APPLIED_DOCUMENT_REFERENCE ( #71,'',( #428) ) ;
#99 =( NAMED_UNIT ( * ) SI_UNIT ( $, .STERADIAN. ) SOLID_ANGLE_UNIT ( ) );
#100 = PRODUCT_DEFINITION_SHAPE ( 'NONE', 'NONE',  #437 ) ;
#101 = APPLIED_EXTERNAL_IDENTIFICATION_ASSIGNMENT ( '92000A010.step.STEP' , #210, #37,( #341) ) ;
#102 =( REPRESENTATION_RELATIONSHIP ('NONE','NONE', #342, #163 ) REPRESENTATION_RELATIONSHIP_WITH_TRANSFORMATION ( #143 )SHAPE_REPRESENTATION_RELATIONSHIP( ) );
#103 = CONTEXT_DEPENDENT_SHAPE_REPRESENTATION ( #196, #427 ) ;
#104 = APPLIED_DOCUMENT_REFERENCE ( #252,'',( #428) ) ;
#105 = PRODUCT_DEFINITION_SHAPE ( 'NONE', 'NONE',  #433 ) ;
#106 = APPLIED_DOCUMENT_REFERENCE ( #347,'',( #26) ) ;
#107 = DIRECTION ( 'NONE',  ( 1.002670169114594501E-15, 8.727827488508310694E-18, 1.000000000000000222 ) ) ;
#108 = OBJECT_ROLE ('mandatory',$ ) ;
#109 = AXIS2_PLACEMENT_3D ( 'NONE', #376, #172, #407 ) ;
#110 = CONTEXT_DEPENDENT_SHAPE_REPRESENTATION ( #67, #18 ) ;
#111 = APPLIED_EXTERNAL_IDENTIFICATION_ASSIGNMENT ( '92000A010.step.STEP' , #175, #79,( #327) ) ;
#112 = EXTERNAL_SOURCE (IDENTIFIER('') ) ;
#113 = SHAPE_REPRESENTATION ( '93475A210.step', ( #367 ), #53 ) ;
#114 = DIRECTION ( 'NONE',  ( 1.040834085586084257E-17, -1.000000000000000000, -6.451002926288751382E-18 ) ) ;
#115 = APPLIED_DOCUMENT_REFERENCE ( #182,'',( #26) ) ;
#116 =( GEOMETRIC_REPRESENTATION_CONTEXT ( 3 ) GLOBAL_UNCERTAINTY_ASSIGNED_CONTEXT ( ( #301 ) ) GLOBAL_UNIT_ASSIGNED_CONTEXT ( ( #66, #61, #29 ) ) REPRESENTATION_CONTEXT ( 'NONE', 'WORKASPACE' ) );
#117 = SHAPE_DEFINITION_REPRESENTATION ( #423, #405 ) ;
#118 = PROPERTY_DEFINITION_REPRESENTATION ( #38, #313 ) ;
#119 = PRODUCT_RELATED_PRODUCT_CATEGORY ( 'part', '', ( #140 ) ) ;
#120 = PROPERTY_DEFINITION_REPRESENTATION ( #188, #313 ) ;
#121 =( REPRESENTATION_RELATIONSHIP ('NONE','NONE', #342, #405 ) REPRESENTATION_RELATIONSHIP_WITH_TRANSFORMATION ( #308 )SHAPE_REPRESENTATION_RELATIONSHIP( ) );
#122 = SHAPE_DEFINITION_REPRESENTATION ( #154, #342 ) ;
#123 = AXIS2_PLACEMENT_3D ( 'NONE', #357, #107, #42 ) ;
#124 = PRODUCT_DEFINITION_FORMATION_WITH_SPECIFIED_SOURCE ( 'Symmetric', '', #225, .NOT_KNOWN. ) ;
#125 = APPLICATION_PROTOCOL_DEFINITION ( 'draft international standard', 'automotive_design', 1998, #392 ) ;
#126 =( REPRESENTATION_RELATIONSHIP ('NONE','NONE', #342, #84 ) REPRESENTATION_RELATIONSHIP_WITH_TRANSFORMATION ( #417 )SHAPE_REPRESENTATION_RELATIONSHIP( ) );
#127 = PRODUCT_RELATED_PRODUCT_CATEGORY ( 'part', '', ( #220 ) ) ;
#128 = ROLE_ASSOCIATION ( #299, #133 ) ;
#129 = UNCERTAINTY_MEASURE_WITH_UNIT (LENGTH_MEASURE( 1.000000000000000082E-05 ), #244, 'distance_accuracy_value', 'NONE');
#130 = PROPERTY_DEFINITION_REPRESENTATION ( #414, #84 ) ;
#131 = APPLICATION_CONTEXT ( 'automotive_design' ) ;
#132 = APPLIED_EXTERNAL_IDENTIFICATION_ASSIGNMENT ( '92000A010(Mirror).step.STEP' , #153, #10,( #41) ) ;
#133 = APPLIED_DOCUMENT_REFERENCE ( #341,'',( #428) ) ;
#134 = DIRECTION ( 'NONE',  ( 0.000000000000000000, 0.000000000000000000, 1.000000000000000000 ) ) ;
#135 = IDENTIFICATION_ROLE ( 'external document id and location', $) ;
#136 = PRODUCT_RELATED_PRODUCT_CATEGORY ( 'part', '', ( #225 ) ) ;
#137 = PROPERTY_DEFINITION_REPRESENTATION ( #358, #313 ) ;
#138 = OBJECT_ROLE ('mandatory',$ ) ;
#139 = AXIS2_PLACEMENT_3D ( 'NONE', #72, #345, #202 ) ;
#140 = PRODUCT ( '93475A210.step', '93475A210.step', '', ( #381 ) ) ;
#141 = APPLIED_EXTERNAL_IDENTIFICATION_ASSIGNMENT ( '93475A210.step.STEP' , #344, #89,( #276) ) ;
#142 = ITEM_DEFINED_TRANSFORMATION ( 'NONE', 'NONE', #186,  #109 ) ;
#143 = ITEM_DEFINED_TRANSFORMATION ( 'NONE', 'NONE', #247,  #198 ) ;
#144 = CARTESIAN_POINT ( 'NONE',  ( 17.75000000000037659, 17.75000000000015632, -15.25000000000009592 ) ) ;
#145 = PROPERTY_DEFINITION ('document property','', #270 ) ;
#146 = OBJECT_ROLE ('mandatory',$ ) ;
#147 = ROLE_ASSOCIATION ( #185, #6 ) ;
#148 = DIRECTION ( 'NONE',  ( 3.469446951953614189E-18, 6.451002926288751382E-18, 1.000000000000000222 ) ) ;
#149 = DOCUMENT_TYPE ( 'geometry' ) ;
#150 = DIRECTION ( 'NONE',  ( 1.002670169114594501E-15, 8.727827488508310694E-18, 1.000000000000000222 ) ) ;
#151 = ITEM_DEFINED_TRANSFORMATION ( 'NONE', 'NONE', #375,  #109 ) ;
#152 = DIRECTION ( 'NONE',  ( 1.000000000000000222, -1.040834085586084257E-17, 3.469446951953614189E-18 ) ) ;
#153 = IDENTIFICATION_ROLE ( 'external document id and location', $) ;
#154 = PRODUCT_DEFINITION_SHAPE ( 'NONE', 'NONE',  #257 ) ;
#155 =( NAMED_UNIT ( * ) PLANE_ANGLE_UNIT ( ) SI_UNIT ( $, .RADIAN. ) );
#156 = DOCUMENT_FILE ( '95836A511.step.STEP' , '', '', #91, '' ,$ ) ;
#157 = PRODUCT ( '95836A511.step', '95836A511.step', '', ( #232 ) ) ;
#158 =( REPRESENTATION_RELATIONSHIP ('NONE','NONE', #342, #84 ) REPRESENTATION_RELATIONSHIP_WITH_TRANSFORMATION ( #174 )SHAPE_REPRESENTATION_RELATIONSHIP( ) );
#159 = PRODUCT_DEFINITION ( 'General', '', #264, #398 ) ;
#160 = PROPERTY_DEFINITION ('document property','', #252 ) ;
#161 = CARTESIAN_POINT ( 'NONE',  ( 0.000000000000000000, 0.000000000000000000, 0.000000000000000000 ) ) ;
#162 = DOCUMENT_TYPE ( 'geometry' ) ;
#163 = SHAPE_REPRESENTATION ( '94997A225.step', ( #198 ), #283 ) ;
#164 = APPLICATION_PROTOCOL_DEFINITION ( 'draft international standard', 'automotive_design', 1998, #278 ) ;
#165 = AXIS2_PLACEMENT_3D ( 'NONE', #280, #416, #379 ) ;
#166 = EXTERNAL_SOURCE (IDENTIFIER('') ) ;
#167 = ROLE_ASSOCIATION ( #273, #302 ) ;
#168 = PROPERTY_DEFINITION ('document property','', #347 ) ;
#169 = PROPERTY_DEFINITION_REPRESENTATION ( #343, #84 ) ;
#170 =( NAMED_UNIT ( * ) SI_UNIT ( $, .STERADIAN. ) SOLID_ANGLE_UNIT ( ) );
#171 = PRODUCT_DEFINITION_CONTEXT ( 'detailed design', #278, 'design' ) ;
#172 = DIRECTION ( 'NONE',  ( 0.000000000000000000, 0.000000000000000000, 1.000000000000000000 ) ) ;
#173 = APPLIED_EXTERNAL_IDENTIFICATION_ASSIGNMENT ( '95836A511.step.STEP' , #63, #432,( #156) ) ;
#174 = ITEM_DEFINED_TRANSFORMATION ( 'NONE', 'NONE', #372,  #180 ) ;
#175 = IDENTIFICATION_ROLE ( 'external document id and location', $) ;
#176 =( LENGTH_UNIT ( ) NAMED_UNIT ( * ) SI_UNIT ( .MILLI., .METRE. ) );
#177 = CONTEXT_DEPENDENT_SHAPE_REPRESENTATION ( #237, #100 ) ;
#178 = PROPERTY_DEFINITION ('external definition','', #59 ) ;
#179 = PROPERTY_DEFINITION_REPRESENTATION ( #323, #163 ) ;
#180 = AXIS2_PLACEMENT_3D ( 'NONE', #408, #36, #187 ) ;
#181 = APPLICATION_CONTEXT ( 'automotive_design' ) ;
#182 = DOCUMENT_FILE ( '92000A010(Mirror).step.STEP' , '', '', #162, '' ,$ ) ;
#183 = DIRECTION ( 'NONE',  ( 1.000000000000000222, -1.040834085586084257E-17, 3.469446951953614189E-18 ) ) ;
#184 = DIRECTION ( 'NONE',  ( 1.000000000000000222, -1.040834085586084257E-17, 3.469446951953614189E-18 ) ) ;
#185 = OBJECT_ROLE ('mandatory',$ ) ;
#186 = AXIS2_PLACEMENT_3D ( 'NONE', #78, #322, #389 ) ;
#187 = DIRECTION ( 'NONE',  ( 1.000000000000000000, 0.000000000000000000, 0.000000000000000000 ) ) ;
#188 = PROPERTY_DEFINITION ('document property','', #156 ) ;
#189 = DIRECTION ( 'NONE',  ( 1.000000000000000222, -1.040834085586084257E-17, 3.469446951953614189E-18 ) ) ;
#190 = DIRECTION ( 'NONE',  ( 0.000000000000000000, 3.991436087896760299E-15, -1.000000000000000222 ) ) ;
#191 = SHAPE_DEFINITION_REPRESENTATION ( #88, #163 ) ;
#192 = PRODUCT_CONTEXT ( 'NONE', #131, 'mechanical' ) ;
#193 =( REPRESENTATION_RELATIONSHIP ('NONE','NONE', #342, #405 ) REPRESENTATION_RELATIONSHIP_WITH_TRANSFORMATION ( #151 )SHAPE_REPRESENTATION_RELATIONSHIP( ) );
#194 = APPLIED_EXTERNAL_IDENTIFICATION_ASSIGNMENT ( '92000A010(Mirror).step.STEP' , #304, #259,( #96) ) ;
#195 = CONTEXT_DEPENDENT_SHAPE_REPRESENTATION ( #205, #248 ) ;
#196 =( REPRESENTATION_RELATIONSHIP ('NONE','NONE', #342, #313 ) REPRESENTATION_RELATIONSHIP_WITH_TRANSFORMATION ( #34 )SHAPE_REPRESENTATION_RELATIONSHIP( ) );
#197 = SHAPE_DEFINITION_REPRESENTATION ( #355, #113 ) ;
#198 = AXIS2_PLACEMENT_3D ( 'NONE', #306, #214, #77 ) ;
#199 = UNCERTAINTY_MEASURE_WITH_UNIT (LENGTH_MEASURE( 1.000000000000000082E-05 ), #329, 'distance_accuracy_value', 'NONE');
#200 = DOCUMENT_TYPE ( 'geometry' ) ;
#201 = CONTEXT_DEPENDENT_SHAPE_REPRESENTATION ( #311, #349 ) ;
#202 = DIRECTION ( 'NONE',  ( 1.000000000000000000, 0.000000000000000000, 0.000000000000000000 ) ) ;
#203 = PRODUCT_DEFINITION_SHAPE ( 'NONE', 'NONE',  #445 ) ;
#204 = ROLE_ASSOCIATION ( #20, #98 ) ;
#205 =( REPRESENTATION_RELATIONSHIP ('NONE','NONE', #342, #84 ) REPRESENTATION_RELATIONSHIP_WITH_TRANSFORMATION ( #395 )SHAPE_REPRESENTATION_RELATIONSHIP( ) );
#206 =( NAMED_UNIT ( * ) PLANE_ANGLE_UNIT ( ) SI_UNIT ( $, .RADIAN. ) );
#207 = PRODUCT_DEFINITION ( 'General', '', #216, #240 ) ;
#208 = OBJECT_ROLE ('mandatory',$ ) ;
#209 = ITEM_DEFINED_TRANSFORMATION ( 'NONE', 'NONE', #165,  #367 ) ;
#210 = IDENTIFICATION_ROLE ( 'external document id and location', $) ;
#211 = PRODUCT_RELATED_PRODUCT_CATEGORY ( 'part', '', ( #309 ) ) ;
#212 = PROPERTY_DEFINITION_REPRESENTATION ( #73, #84 ) ;
#213 = PROPERTY_DEFINITION ('external definition','', #71 ) ;
#214 = DIRECTION ( 'NONE',  ( 0.000000000000000000, 0.000000000000000000, 1.000000000000000000 ) ) ;
#215 = PROPERTY_DEFINITION ('external definition','', #270 ) ;
#216 = PRODUCT_DEFINITION_FORMATION_WITH_SPECIFIED_SOURCE ( 'Symmetric', '', #419, .NOT_KNOWN. ) ;
#217 = PROPERTY_DEFINITION_REPRESENTATION ( #370, #405 ) ;
#218 = DIRECTION ( 'NONE',  ( 3.469446951953614189E-18, 6.451002926288751382E-18, 1.000000000000000222 ) ) ;
#219 = PROPERTY_DEFINITION_REPRESENTATION ( #325, #405 ) ;
#220 = PRODUCT ( '92000A010.step', '92000A010.step', '', ( #363 ) ) ;
#221 = APPLICATION_CONTEXT ( 'automotive_design' ) ;
#222 = CONTEXT_DEPENDENT_SHAPE_REPRESENTATION ( #193, #25 ) ;
#223 = DIRECTION ( 'NONE',  ( 3.469446951953614189E-18, 6.451002926288751382E-18, 1.000000000000000222 ) ) ;
#224 = APPLIED_EXTERNAL_IDENTIFICATION_ASSIGNMENT ( '92000A010(Mirror).step.STEP' , #86, #60,( #377) ) ;
#225 = PRODUCT ( '92000A010(Mirror).step', '92000A010(Mirror).step', '', ( #192 ) ) ;
#226 = DIRECTION ( 'NONE',  ( 3.469446951953614189E-18, 6.451002926288751382E-18, 1.000000000000000222 ) ) ;
#227 = PRODUCT_DEFINITION_SHAPE ( 'NONE', 'NONE',  #447 ) ;
#228 = PRODUCT_DEFINITION ( 'General', '', #95, #93 ) ;
#229 = ITEM_DEFINED_TRANSFORMATION ( 'NONE', 'NONE', #30,  #139 ) ;
#230 = OBJECT_ROLE ('mandatory',$ ) ;
#231 = PRODUCT_DEFINITION_SHAPE ( 'NONE', 'NONE',  #440 ) ;
#232 = PRODUCT_CONTEXT ( 'NONE', #392, 'mechanical' ) ;
#233 = EXTERNAL_SOURCE (IDENTIFIER('') ) ;
#234 =( GEOMETRIC_REPRESENTATION_CONTEXT ( 3 ) GLOBAL_UNCERTAINTY_ASSIGNED_CONTEXT ( ( #334 ) ) GLOBAL_UNIT_ASSIGNED_CONTEXT ( ( #242, #206, #411 ) ) REPRESENTATION_CONTEXT ( 'NONE', 'WORKASPACE' ) );
#235 = APPLICATION_PROTOCOL_DEFINITION ( 'draft international standard', 'automotive_design', 1998, #366 ) ;
#236 = IDENTIFICATION_ROLE ( 'external document id and location', $) ;
#237 =( REPRESENTATION_RELATIONSHIP ('NONE','NONE', #342, #313 ) REPRESENTATION_RELATIONSHIP_WITH_TRANSFORMATION ( #319 )SHAPE_REPRESENTATION_RELATIONSHIP( ) );
#238 = APPLICATION_PROTOCOL_DEFINITION ( 'draft international standard', 'automotive_design', 1998, #181 ) ;
#239 = AXIS2_PLACEMENT_3D ( 'NONE', #282, #190, #350 ) ;
#240 = PRODUCT_DEFINITION_CONTEXT ( 'detailed design', #361, 'design' ) ;
#241 = ROLE_ASSOCIATION ( #268, #339 ) ;
#242 =( LENGTH_UNIT ( ) NAMED_UNIT ( * ) SI_UNIT ( .MILLI., .METRE. ) );
#243 = PROPERTY_DEFINITION_REPRESENTATION ( #215, #313 ) ;
#244 =( LENGTH_UNIT ( ) NAMED_UNIT ( * ) SI_UNIT ( .MILLI., .METRE. ) );
#245 = APPLICATION_CONTEXT ( 'automotive_design' ) ;
#246 = PROPERTY_DEFINITION_REPRESENTATION ( #213, #84 ) ;
#247 = AXIS2_PLACEMENT_3D ( 'NONE', #82, #223, #353 ) ;
#248 = PRODUCT_DEFINITION_SHAPE ( 'NONE', 'NONE',  #435 ) ;
#249 = APPLIED_EXTERNAL_IDENTIFICATION_ASSIGNMENT ( '95836A511.step.STEP' , #399, #412,( #270) ) ;
#250 = PROPERTY_DEFINITION_REPRESENTATION ( #80, #84 ) ;
#251 = PROPERTY_DEFINITION_REPRESENTATION ( #168, #405 ) ;
#252 = DOCUMENT_FILE ( '92000A010.step.STEP' , '', '', #364, '' ,$ ) ;
#253 = DIRECTION ( 'NONE',  ( 3.469446951953614189E-18, 6.451002926288751382E-18, 1.000000000000000222 ) ) ;
#254 = OBJECT_ROLE ('mandatory',$ ) ;
#255 = CONTEXT_DEPENDENT_SHAPE_REPRESENTATION ( #126, #227 ) ;
#256 = DIRECTION ( 'NONE',  ( 0.000000000000000000, 3.991436087896760299E-15, -1.000000000000000222 ) ) ;
#257 = PRODUCT_DEFINITION ( 'General', '', #305, #401 ) ;
#258 = PROPERTY_DEFINITION_REPRESENTATION ( #335, #405 ) ;
#259 = EXTERNAL_SOURCE (IDENTIFIER('') ) ;
#260 = PROPERTY_DEFINITION ('external definition','', #276 ) ;
#261 = ROLE_ASSOCIATION ( #208, #115 ) ;
#262 = CARTESIAN_POINT ( 'NONE',  ( 18.00000000000023803, 9.991491193247270530, 24.79999999999982307 ) ) ;
#263 = IDENTIFICATION_ROLE ( 'external document id and location', $) ;
#264 = PRODUCT_DEFINITION_FORMATION_WITH_SPECIFIED_SOURCE ( 'Symmetric', '', #157, .NOT_KNOWN. ) ;
#265 = PROPERTY_DEFINITION ('external definition','', #327 ) ;
#266 = SHAPE_DEFINITION_REPRESENTATION ( #288, #313 ) ;
#267 = AXIS2_PLACEMENT_3D ( 'NONE', #144, #348, #152 ) ;
#268 = OBJECT_ROLE ('mandatory',$ ) ;
#269 = DIRECTION ( 'NONE',  ( 0.000000000000000000, 0.000000000000000000, 1.000000000000000000 ) ) ;
#270 = DOCUMENT_FILE ( '95836A511.step.STEP' , '', '', #70, '' ,$ ) ;
#271 = ROLE_ASSOCIATION ( #14, #400 ) ;
#272 = DIRECTION ( 'NONE',  ( 1.000000000000000000, 0.000000000000000000, 0.000000000000000000 ) ) ;
#273 = OBJECT_ROLE ('mandatory',$ ) ;
#274 = UNCERTAINTY_MEASURE_WITH_UNIT (LENGTH_MEASURE( 1.000000000000000082E-05 ), #176, 'distance_accuracy_value', 'NONE');
#275 = IDENTIFICATION_ROLE ( 'external document id and location', $) ;
#276 = DOCUMENT_FILE ( '93475A210.step.STEP' , '', '', #346, '' ,$ ) ;
#277 = PRODUCT_DEFINITION_SHAPE ( 'NONE', 'NONE',  #441 ) ;
#278 = APPLICATION_CONTEXT ( 'automotive_design' ) ;
#279 = DOCUMENT_FILE ( '94997A225.step.STEP' , '', '', #320, '' ,$ ) ;
#280 = CARTESIAN_POINT ( 'NONE',  ( 11.00000000000012079, 10.00000000000023093, 25.74999999999993960 ) ) ;
#281 = APPLIED_DOCUMENT_REFERENCE ( #279,'',( #207) ) ;
#282 = CARTESIAN_POINT ( 'NONE',  ( 17.74999999999993250, 2.250000000000085265, -15.25000000000020783 ) ) ;
#283 =( GEOMETRIC_REPRESENTATION_CONTEXT ( 3 ) GLOBAL_UNCERTAINTY_ASSIGNED_CONTEXT ( ( #23 ) ) GLOBAL_UNIT_ASSIGNED_CONTEXT ( ( #13, #413, #287 ) ) REPRESENTATION_CONTEXT ( 'NONE', 'WORKASPACE' ) );
#284 = PROPERTY_DEFINITION ('external definition','', #96 ) ;
#285 = CARTESIAN_POINT ( 'NONE',  ( -17.74999999999993250, 2.250000000000085265, -15.25000000000009592 ) ) ;
#286 = APPLICATION_CONTEXT ( 'automotive_design' ) ;
#287 =( NAMED_UNIT ( * ) SI_UNIT ( $, .STERADIAN. ) SOLID_ANGLE_UNIT ( ) );
#288 = PRODUCT_DEFINITION_SHAPE ( 'NONE', 'NONE',  #159 ) ;
#289 = PROPERTY_DEFINITION ('external definition','', #252 ) ;
#290 = PRODUCT_DEFINITION_SHAPE ( 'NONE', 'NONE',  #438 ) ;
#291 = APPLIED_DOCUMENT_REFERENCE ( #156,'',( #159) ) ;
#292 = PRODUCT_DEFINITION_SHAPE ( 'NONE', 'NONE',  #446 ) ;
#293 = APPLICATION_CONTEXT ( 'automotive_design' ) ;
#294 = APPLICATION_PROTOCOL_DEFINITION ( 'draft international standard', 'automotive_design', 1998, #245 ) ;
#295 = DOCUMENT_TYPE ( 'geometry' ) ;
#296 = AXIS2_PLACEMENT_3D ( 'NONE', #47, #394, #425 ) ;
#297 = PROPERTY_DEFINITION_REPRESENTATION ( #35, #113 ) ;
#298 = ITEM_DEFINED_TRANSFORMATION ( 'NONE', 'NONE', #239,  #139 ) ;
#299 = OBJECT_ROLE ('mandatory',$ ) ;
#300 = PROPERTY_DEFINITION_REPRESENTATION ( #145, #313 ) ;
#301 = UNCERTAINTY_MEASURE_WITH_UNIT (LENGTH_MEASURE( 1.000000000000000082E-05 ), #66, 'distance_accuracy_value', 'NONE');
#302 = APPLIED_DOCUMENT_REFERENCE ( #377,'',( #26) ) ;
#303 = ROLE_ASSOCIATION ( #97, #33 ) ;
#304 = IDENTIFICATION_ROLE ( 'external document id and location', $) ;
#305 = PRODUCT_DEFINITION_FORMATION_WITH_SPECIFIED_SOURCE ( 'Symmetric', '', #309, .NOT_KNOWN. ) ;
#306 = CARTESIAN_POINT ( 'NONE',  ( 0.000000000000000000, 0.000000000000000000, 0.000000000000000000 ) ) ;
#307 = APPLICATION_CONTEXT ( 'automotive_design' ) ;
#308 = ITEM_DEFINED_TRANSFORMATION ( 'NONE', 'NONE', #123,  #109 ) ;
#309 = PRODUCT ( 'Screws.step', 'Screws.step', '', ( #424 ) ) ;
#310 = APPLIED_EXTERNAL_IDENTIFICATION_ASSIGNMENT ( '92000A010(Mirror).step.STEP' , #44, #396,( #347) ) ;
#311 =( REPRESENTATION_RELATIONSHIP ('NONE','NONE', #342, #405 ) REPRESENTATION_RELATIONSHIP_WITH_TRANSFORMATION ( #404 )SHAPE_REPRESENTATION_RELATIONSHIP( ) );
#312 = DIRECTION ( 'NONE',  ( 1.000000000000000222, -1.040834085586084257E-17, 3.469446951953614189E-18 ) ) ;
#313 = SHAPE_REPRESENTATION ( '95836A511.step', ( #139 ), #116 ) ;
#314 = CONTEXT_DEPENDENT_SHAPE_REPRESENTATION ( #27, #203 ) ;
#315 = DIRECTION ( 'NONE',  ( -1.040834085586084257E-17, 1.000000000000000000, 6.451002926288751382E-18 ) ) ;
#316 = ITEM_DEFINED_TRANSFORMATION ( 'NONE', 'NONE', #390,  #109 ) ;
#317 = CARTESIAN_POINT ( 'NONE',  ( 10.99149119324716040, 3.000000000000335731, -26.20000000000011298 ) ) ;
#318 = AXIS2_PLACEMENT_3D ( 'NONE', #285, #256, #184 ) ;
#319 = ITEM_DEFINED_TRANSFORMATION ( 'NONE', 'NONE', #318,  #139 ) ;
#320 = DOCUMENT_TYPE ( 'geometry' ) ;
#321 = DOCUMENT_TYPE ( 'geometry' ) ;
#322 = DIRECTION ( 'NONE',  ( 3.469446951953614189E-18, 6.451002926288751382E-18, 1.000000000000000222 ) ) ;
#323 = PROPERTY_DEFINITION ('external definition','', #279 ) ;
#324 = APPLIED_EXTERNAL_IDENTIFICATION_ASSIGNMENT ( '95836A511.step.STEP' , #40, #16,( #59) ) ;
#325 = PROPERTY_DEFINITION ('document property','', #96 ) ;
#326 =( NAMED_UNIT ( * ) SI_UNIT ( $, .STERADIAN. ) SOLID_ANGLE_UNIT ( ) );
#327 = DOCUMENT_FILE ( '92000A010.step.STEP' , '', '', #328, '' ,$ ) ;
#328 = DOCUMENT_TYPE ( 'geometry' ) ;
#329 =( LENGTH_UNIT ( ) NAMED_UNIT ( * ) SI_UNIT ( .MILLI., .METRE. ) );
#330 = AXIS2_PLACEMENT_3D ( 'NONE', #317, #253, #183 ) ;
#331 = PROPERTY_DEFINITION_REPRESENTATION ( #49, #313 ) ;
#332 = ROLE_ASSOCIATION ( #254, #21 ) ;
#333 = OBJECT_ROLE ('mandatory',$ ) ;
#334 = UNCERTAINTY_MEASURE_WITH_UNIT (LENGTH_MEASURE( 1.000000000000000082E-05 ), #242, 'distance_accuracy_value', 'NONE');
#335 = PROPERTY_DEFINITION ('external definition','', #41 ) ;
#336 = APPLIED_DOCUMENT_REFERENCE ( #96,'',( #26) ) ;
#337 = DOCUMENT_TYPE ( 'geometry' ) ;
#338 = AXIS2_PLACEMENT_3D ( 'NONE', #11, #218, #4 ) ;
#339 = APPLIED_DOCUMENT_REFERENCE ( #270,'',( #159) ) ;
#340 = EXTERNAL_SOURCE (IDENTIFIER('') ) ;
#341 = DOCUMENT_FILE ( '92000A010.step.STEP' , '', '', #321, '' ,$ ) ;
#342 = SHAPE_REPRESENTATION ( 'Screws.step', ( #418, #239, #30, #338, #267, #318, #165, #83, #123, #372, #330, #186, #375, #390, #247, #296 ), #1 ) ;
#343 = PROPERTY_DEFINITION ('document property','', #341 ) ;
#344 = IDENTIFICATION_ROLE ( 'external document id and location', $) ;
#345 = DIRECTION ( 'NONE',  ( 0.000000000000000000, 0.000000000000000000, 1.000000000000000000 ) ) ;
#346 = DOCUMENT_TYPE ( 'geometry' ) ;
#347 = DOCUMENT_FILE ( '92000A010(Mirror).step.STEP' , '', '', #295, '' ,$ ) ;
#348 = DIRECTION ( 'NONE',  ( 0.000000000000000000, 3.991436087896760299E-15, -1.000000000000000222 ) ) ;
#349 = PRODUCT_DEFINITION_SHAPE ( 'NONE', 'NONE',  #442 ) ;
#350 = DIRECTION ( 'NONE',  ( 1.000000000000000222, 3.099256962180163555E-14, 3.469446951953614189E-18 ) ) ;
#351 = DOCUMENT_TYPE ( 'geometry' ) ;
#352 = CONTEXT_DEPENDENT_SHAPE_REPRESENTATION ( #102, #292 ) ;
#353 = DIRECTION ( 'NONE',  ( 1.000000000000000222, -1.040834085586084257E-17, 3.469446951953614189E-18 ) ) ;
#354 = PRODUCT_CONTEXT ( 'NONE', #293, 'mechanical' ) ;
#355 = PRODUCT_DEFINITION_SHAPE ( 'NONE', 'NONE',  #228 ) ;
#356 = PRODUCT_RELATED_PRODUCT_CATEGORY ( 'part', '', ( #419 ) ) ;
#357 = CARTESIAN_POINT ( 'NONE',  ( 10.99149119324716040, 10.00000000000000888, -24.15000000000000568 ) ) ;
#358 = PROPERTY_DEFINITION ('external definition','', #369 ) ;
#359 = DOCUMENT_TYPE ( 'geometry' ) ;
#360 = APPLICATION_PROTOCOL_DEFINITION ( 'draft international standard', 'automotive_design', 1998, #221 ) ;
#361 = APPLICATION_CONTEXT ( 'automotive_design' ) ;
#362 = APPLIED_EXTERNAL_IDENTIFICATION_ASSIGNMENT ( '95836A511.step.STEP' , #263, #166,( #369) ) ;
#363 = PRODUCT_CONTEXT ( 'NONE', #366, 'mechanical' ) ;
#364 = DOCUMENT_TYPE ( 'geometry' ) ;
#365 = CONTEXT_DEPENDENT_SHAPE_REPRESENTATION ( #415, #105 ) ;
#366 = APPLICATION_CONTEXT ( 'automotive_design' ) ;
#367 = AXIS2_PLACEMENT_3D ( 'NONE', #48, #134, #272 ) ;
#368 = APPLIED_EXTERNAL_IDENTIFICATION_ASSIGNMENT ( '92000A010.step.STEP' , #275, #233,( #71) ) ;
#369 = DOCUMENT_FILE ( '95836A511.step.STEP' , '', '', #351, '' ,$ ) ;
#370 = PROPERTY_DEFINITION ('document property','', #41 ) ;
#371 = PROPERTY_DEFINITION_REPRESENTATION ( #265, #84 ) ;
#372 = AXIS2_PLACEMENT_3D ( 'NONE', #387, #226, #189 ) ;
#373 = ITEM_DEFINED_TRANSFORMATION ( 'NONE', 'NONE', #83,  #180 ) ;
#374 = PRODUCT_DEFINITION_SHAPE ( 'NONE', 'NONE',  #434 ) ;
#375 = AXIS2_PLACEMENT_3D ( 'NONE', #8, #150, #315 ) ;
#376 = CARTESIAN_POINT ( 'NONE',  ( 0.000000000000000000, 0.000000000000000000, 0.000000000000000000 ) ) ;
#377 = DOCUMENT_FILE ( '92000A010(Mirror).step.STEP' , '', '', #149, '' ,$ ) ;
#378 = ROLE_ASSOCIATION ( #230, #104 ) ;
#379 = DIRECTION ( 'NONE',  ( 1.000000000000000222, -1.040834085586084257E-17, 3.469446951953614189E-18 ) ) ;
#380 = PROPERTY_DEFINITION ('document property','', #377 ) ;
#381 = PRODUCT_CONTEXT ( 'NONE', #55, 'mechanical' ) ;
#382 =( REPRESENTATION_RELATIONSHIP ('NONE','NONE', #342, #113 ) REPRESENTATION_RELATIONSHIP_WITH_TRANSFORMATION ( #209 )SHAPE_REPRESENTATION_RELATIONSHIP( ) );
#383 = PROPERTY_DEFINITION_REPRESENTATION ( #289, #84 ) ;
#384 = DIRECTION ( 'NONE',  ( 3.469446951953614189E-18, 6.451002926288751382E-18, 1.000000000000000222 ) ) ;
#385 = PROPERTY_DEFINITION_REPRESENTATION ( #65, #405 ) ;
#386 = PROPERTY_DEFINITION ('external definition','', #377 ) ;
#387 = CARTESIAN_POINT ( 'NONE',  ( 10.99149119324693835, 3.000000000000335731, 24.79999999999982307 ) ) ;
#388 = PROPERTY_DEFINITION_REPRESENTATION ( #402, #405 ) ;
#389 = DIRECTION ( 'NONE',  ( -1.000000000000000222, 1.040834085586084257E-17, -3.469446951953614189E-18 ) ) ;
#390 = AXIS2_PLACEMENT_3D ( 'NONE', #7, #148, #114 ) ;
#391 = DOCUMENT_TYPE ( 'geometry' ) ;
#392 = APPLICATION_CONTEXT ( 'automotive_design' ) ;
#393 = APPLICATION_PROTOCOL_DEFINITION ( 'draft international standard', 'automotive_design', 1998, #293 ) ;
#394 = DIRECTION ( 'NONE',  ( 3.469446951953614189E-18, 6.451002926288751382E-18, 1.000000000000000222 ) ) ;
#395 = ITEM_DEFINED_TRANSFORMATION ( 'NONE', 'NONE', #338,  #180 ) ;
#396 = EXTERNAL_SOURCE (IDENTIFIER('') ) ;
#397 =( GEOMETRIC_REPRESENTATION_CONTEXT ( 3 ) GLOBAL_UNCERTAINTY_ASSIGNED_CONTEXT ( ( #274 ) ) GLOBAL_UNIT_ASSIGNED_CONTEXT ( ( #176, #69, #170 ) ) REPRESENTATION_CONTEXT ( 'NONE', 'WORKASPACE' ) );
#398 = PRODUCT_DEFINITION_CONTEXT ( 'detailed design', #286, 'design' ) ;
#399 = IDENTIFICATION_ROLE ( 'external document id and location', $) ;
#400 = APPLIED_DOCUMENT_REFERENCE ( #276,'',( #228) ) ;
#401 = PRODUCT_DEFINITION_CONTEXT ( 'detailed design', #245, 'design' ) ;
#402 = PROPERTY_DEFINITION ('external definition','', #182 ) ;
#403 = PRODUCT_DEFINITION_FORMATION_WITH_SPECIFIED_SOURCE ( 'Symmetric', '', #220, .NOT_KNOWN. ) ;
#404 = ITEM_DEFINED_TRANSFORMATION ( 'NONE', 'NONE', #330,  #109 ) ;
#405 = SHAPE_REPRESENTATION ( '92000A010(Mirror).step', ( #109 ), #234 ) ;
#406 = PROPERTY_DEFINITION_REPRESENTATION ( #380, #405 ) ;
#407 = DIRECTION ( 'NONE',  ( 1.000000000000000000, 0.000000000000000000, 0.000000000000000000 ) ) ;
#408 = CARTESIAN_POINT ( 'NONE',  ( 0.000000000000000000, 0.000000000000000000, 0.000000000000000000 ) ) ;
#409 = CONTEXT_DEPENDENT_SHAPE_REPRESENTATION ( #121, #231 ) ;
#410 = APPLIED_EXTERNAL_IDENTIFICATION_ASSIGNMENT ( '92000A010(Mirror).step.STEP' , #135, #112,( #182) ) ;
#411 =( NAMED_UNIT ( * ) SI_UNIT ( $, .STERADIAN. ) SOLID_ANGLE_UNIT ( ) );
#412 = EXTERNAL_SOURCE (IDENTIFIER('') ) ;
#413 =( NAMED_UNIT ( * ) PLANE_ANGLE_UNIT ( ) SI_UNIT ( $, .RADIAN. ) );
#414 = PROPERTY_DEFINITION ('document property','', #327 ) ;
#415 =( REPRESENTATION_RELATIONSHIP ('NONE','NONE', #342, #313 ) REPRESENTATION_RELATIONSHIP_WITH_TRANSFORMATION ( #298 )SHAPE_REPRESENTATION_RELATIONSHIP( ) );
#416 = DIRECTION ( 'NONE',  ( 3.469446951953614189E-18, 6.451002926288751382E-18, 1.000000000000000222 ) ) ;
#417 = ITEM_DEFINED_TRANSFORMATION ( 'NONE', 'NONE', #296,  #180 ) ;
#418 = AXIS2_PLACEMENT_3D ( 'NONE', #161, #269, #92 ) ;
#419 = PRODUCT ( '94997A225.step', '94997A225.step', '', ( #354 ) ) ;
#420 = DIRECTION ( 'NONE',  ( -1.040834085586084257E-17, 1.000000000000000000, 6.451002926288751382E-18 ) ) ;
#421 =( REPRESENTATION_RELATIONSHIP ('NONE','NONE', #342, #84 ) REPRESENTATION_RELATIONSHIP_WITH_TRANSFORMATION ( #373 )SHAPE_REPRESENTATION_RELATIONSHIP( ) );
#422 = PROPERTY_DEFINITION_REPRESENTATION ( #32, #405 ) ;
#423 = PRODUCT_DEFINITION_SHAPE ( 'NONE', 'NONE',  #26 ) ;
#424 = PRODUCT_CONTEXT ( 'NONE', #307, 'mechanical' ) ;
#425 = DIRECTION ( 'NONE',  ( 1.040834085586084257E-17, -1.000000000000000000, -6.451002926288751382E-18 ) ) ;
#426 = APPLIED_EXTERNAL_IDENTIFICATION_ASSIGNMENT ( '92000A010.step.STEP' , #75, #340,( #252) ) ;
#427 = PRODUCT_DEFINITION_SHAPE ( 'NONE', 'NONE',  #436 ) ;
#428 = PRODUCT_DEFINITION ( 'General', '', #403, #171 ) ;
#429 = ROLE_ASSOCIATION ( #108, #291 ) ;
#430 = PROPERTY_DEFINITION ('document property','', #279 ) ;
#431 = APPLICATION_PROTOCOL_DEFINITION ( 'draft international standard', 'automotive_design', 1998, #361 ) ;
#432 = EXTERNAL_SOURCE (IDENTIFIER('') ) ;
#433 = NEXT_ASSEMBLY_USAGE_OCCURRENCE ( 'NAUO1', ' ', ' ', #257, #159, $ ) ;
#434 = NEXT_ASSEMBLY_USAGE_OCCURRENCE ( 'NAUO2', ' ', ' ', #257, #159, $ ) ;
#435 = NEXT_ASSEMBLY_USAGE_OCCURRENCE ( 'NAUO3', ' ', ' ', #257, #428, $ ) ;
#436 = NEXT_ASSEMBLY_USAGE_OCCURRENCE ( 'NAUO4', ' ', ' ', #257, #159, $ ) ;
#437 = NEXT_ASSEMBLY_USAGE_OCCURRENCE ( 'NAUO5', ' ', ' ', #257, #159, $ ) ;
#438 = NEXT_ASSEMBLY_USAGE_OCCURRENCE ( 'NAUO6', ' ', ' ', #257, #228, $ ) ;
#439 = NEXT_ASSEMBLY_USAGE_OCCURRENCE ( 'NAUO7', ' ', ' ', #257, #428, $ ) ;
#440 = NEXT_ASSEMBLY_USAGE_OCCURRENCE ( 'NAUO8', ' ', ' ', #257, #26, $ ) ;
#441 = NEXT_ASSEMBLY_USAGE_OCCURRENCE ( 'NAUO9', ' ', ' ', #257, #428, $ ) ;
#442 = NEXT_ASSEMBLY_USAGE_OCCURRENCE ( 'NAUO10', ' ', ' ', #257, #26, $ ) ;
#443 = NEXT_ASSEMBLY_USAGE_OCCURRENCE ( 'NAUO11', ' ', ' ', #257, #26, $ ) ;
#444 = NEXT_ASSEMBLY_USAGE_OCCURRENCE ( 'NAUO12', ' ', ' ', #257, #26, $ ) ;
#445 = NEXT_ASSEMBLY_USAGE_OCCURRENCE ( 'NAUO13', ' ', ' ', #257, #26, $ ) ;
#446 = NEXT_ASSEMBLY_USAGE_OCCURRENCE ( 'NAUO14', ' ', ' ', #257, #207, $ ) ;
#447 = NEXT_ASSEMBLY_USAGE_OCCURRENCE ( 'NAUO15', ' ', ' ', #257, #428, $ ) ;
ENDSEC;
END-ISO-10303-21;
